<?xml version="1.0" encoding="UTF-8"?>
<svg xmlns="http://www.w3.org/2000/svg"
     xmlns:xlink="http://www.w3.org/1999/xlink"
     width="800" height="600" viewBox="0 0 800 600">
<defs>
<clipPath id="clip-1">
<rect x="100.00" y="66.00" width="620.00" height="462.00"/>
</clipPath>
<clipPath id="clip-2">
<rect x="100.00" y="66.00" width="620.00" height="462.00"/>
</clipPath>
<clipPath id="clip-3">
<rect x="100.00" y="66.00" width="620.00" height="462.00"/>
</clipPath>
<clipPath id="clip-4">
<rect x="100.00" y="66.00" width="620.00" height="462.00"/>
</clipPath>
<clipPath id="clip-5">
<rect x="100.00" y="66.00" width="620.00" height="462.00"/>
</clipPath>
<clipPath id="clip-6">
<rect x="100.00" y="66.00" width="620.00" height="462.00"/>
</clipPath>
<clipPath id="clip-7">
<rect x="100.00" y="66.00" width="620.00" height="462.00"/>
</clipPath>
<clipPath id="clip-8">
<rect x="100.00" y="66.00" width="620.00" height="462.00"/>
</clipPath>
<clipPath id="clip-9">
<rect x="100.00" y="66.00" width="620.00" height="462.00"/>
</clipPath>
<clipPath id="clip-10">
<rect x="100.00" y="66.00" width="620.00" height="462.00"/>
</clipPath>
<clipPath id="clip-11">
<rect x="100.00" y="66.00" width="620.00" height="462.00"/>
</clipPath>
<clipPath id="clip-12">
<rect x="100.00" y="66.00" width="620.00" height="462.00"/>
</clipPath>
<clipPath id="clip-13">
<rect x="100.00" y="66.00" width="620.00" height="462.00"/>
</clipPath>
<clipPath id="clip-14">
<rect x="100.00" y="66.00" width="620.00" height="462.00"/>
</clipPath>
<clipPath id="clip-15">
<rect x="100.00" y="66.00" width="620.00" height="462.00"/>
</clipPath>
<clipPath id="clip-16">
<rect x="100.00" y="66.00" width="620.00" height="462.00"/>
</clipPath>
<clipPath id="clip-17">
<rect x="100.00" y="66.00" width="620.00" height="462.00"/>
</clipPath>
<clipPath id="clip-18">
<rect x="100.00" y="66.00" width="620.00" height="462.00"/>
</clipPath>
<clipPath id="clip-19">
<rect x="100.00" y="66.00" width="620.00" height="462.00"/>
</clipPath>
<clipPath id="clip-20">
<rect x="100.00" y="66.00" width="620.00" height="462.00"/>
</clipPath>
<clipPath id="clip-21">
<rect x="100.00" y="66.00" width="620.00" height="462.00"/>
</clipPath>
<clipPath id="clip-22">
<rect x="100.00" y="66.00" width="620.00" height="462.00"/>
</clipPath>
<clipPath id="clip-23">
<rect x="100.00" y="66.00" width="620.00" height="462.00"/>
</clipPath>
<clipPath id="clip-24">
<rect x="100.00" y="66.00" width="620.00" height="462.00"/>
</clipPath>
<clipPath id="clip-25">
<rect x="100.00" y="66.00" width="620.00" height="462.00"/>
</clipPath>
<clipPath id="clip-26">
<rect x="100.00" y="66.00" width="620.00" height="462.00"/>
</clipPath>
<clipPath id="clip-27">
<rect x="100.00" y="66.00" width="620.00" height="462.00"/>
</clipPath>
<clipPath id="clip-28">
<rect x="100.00" y="66.00" width="620.00" height="462.00"/>
</clipPath>
<clipPath id="clip-29">
<rect x="100.00" y="66.00" width="620.00" height="462.00"/>
</clipPath>
<clipPath id="clip-30">
<rect x="100.00" y="66.00" width="620.00" height="462.00"/>
</clipPath>
<clipPath id="clip-31">
<rect x="100.00" y="66.00" width="620.00" height="462.00"/>
</clipPath>
<clipPath id="clip-32">
<rect x="100.00" y="66.00" width="620.00" height="462.00"/>
</clipPath>
<clipPath id="clip-33">
<rect x="100.00" y="66.00" width="620.00" height="462.00"/>
</clipPath>
<clipPath id="clip-34">
<rect x="100.00" y="66.00" width="620.00" height="462.00"/>
</clipPath>
<clipPath id="clip-35">
<rect x="100.00" y="66.00" width="620.00" height="462.00"/>
</clipPath>
<clipPath id="clip-36">
<rect x="100.00" y="66.00" width="620.00" height="462.00"/>
</clipPath>
<clipPath id="clip-37">
<rect x="100.00" y="66.00" width="620.00" height="462.00"/>
</clipPath>
<clipPath id="clip-38">
<rect x="100.00" y="66.00" width="620.00" height="462.00"/>
</clipPath>
<clipPath id="clip-39">
<rect x="100.00" y="66.00" width="620.00" height="462.00"/>
</clipPath>
<clipPath id="clip-40">
<rect x="100.00" y="66.00" width="620.00" height="462.00"/>
</clipPath>
<clipPath id="clip-41">
<rect x="100.00" y="66.00" width="620.00" height="462.00"/>
</clipPath>
<clipPath id="clip-42">
<rect x="100.00" y="66.00" width="620.00" height="462.00"/>
</clipPath>
<clipPath id="clip-43">
<rect x="100.00" y="66.00" width="620.00" height="462.00"/>
</clipPath>
<clipPath id="clip-44">
<rect x="100.00" y="66.00" width="620.00" height="462.00"/>
</clipPath>
<clipPath id="clip-45">
<rect x="100.00" y="66.00" width="620.00" height="462.00"/>
</clipPath>
<clipPath id="clip-46">
<rect x="100.00" y="66.00" width="620.00" height="462.00"/>
</clipPath>
<clipPath id="clip-47">
<rect x="100.00" y="66.00" width="620.00" height="462.00"/>
</clipPath>
<clipPath id="clip-48">
<rect x="100.00" y="66.00" width="620.00" height="462.00"/>
</clipPath>
<clipPath id="clip-49">
<rect x="100.00" y="66.00" width="620.00" height="462.00"/>
</clipPath>
<clipPath id="clip-50">
<rect x="100.00" y="66.00" width="620.00" height="462.00"/>
</clipPath>
<clipPath id="clip-51">
<rect x="100.00" y="66.00" width="620.00" height="462.00"/>
</clipPath>
<clipPath id="clip-52">
<rect x="100.00" y="66.00" width="620.00" height="462.00"/>
</clipPath>
<clipPath id="clip-53">
<rect x="100.00" y="66.00" width="620.00" height="462.00"/>
</clipPath>
<clipPath id="clip-54">
<rect x="100.00" y="66.00" width="620.00" height="462.00"/>
</clipPath>
<clipPath id="clip-55">
<rect x="100.00" y="66.00" width="620.00" height="462.00"/>
</clipPath>
<clipPath id="clip-56">
<rect x="100.00" y="66.00" width="620.00" height="462.00"/>
</clipPath>
<clipPath id="clip-57">
<rect x="100.00" y="66.00" width="620.00" height="462.00"/>
</clipPath>
<clipPath id="clip-58">
<rect x="100.00" y="66.00" width="620.00" height="462.00"/>
</clipPath>
<clipPath id="clip-59">
<rect x="100.00" y="66.00" width="620.00" height="462.00"/>
</clipPath>
<clipPath id="clip-60">
<rect x="100.00" y="66.00" width="620.00" height="462.00"/>
</clipPath>
<clipPath id="clip-61">
<rect x="100.00" y="66.00" width="620.00" height="462.00"/>
</clipPath>
<clipPath id="clip-62">
<rect x="100.00" y="66.00" width="620.00" height="462.00"/>
</clipPath>
<clipPath id="clip-63">
<rect x="100.00" y="66.00" width="620.00" height="462.00"/>
</clipPath>
</defs>
<g transform="translate(0,600) scale(1,-1)">
<rect width="800" height="600" fill="white"/>
<path d="M 0.00 0.00 L 800.00 0.00 L 800.00 600.00 L 0.00 600.00 L 0.00 0.00 Z " fill="#FFFFFF" fill-opacity="1.00" stroke="#000000" stroke-opacity="1.00" stroke-width="0.00" stroke-linecap="butt" stroke-linejoin="miter"/>
<path d="M 100.00 66.00 L 720.00 66.00 L 720.00 528.00 L 100.00 528.00 L 100.00 66.00 Z " fill="#FFFFFF" fill-opacity="1.00" stroke="none" stroke-opacity="0.00" stroke-width="0.00" stroke-linecap="butt" stroke-linejoin="miter"/>
<path d="M 128.50 66.50 L 128.50 528.50 " fill="none" fill-opacity="0.00" stroke="#B0B0B0" stroke-opacity="1.00" stroke-width="0.80" stroke-linecap="butt" stroke-linejoin="miter" clip-path="url(#clip-1)"/>
<path d="M 218.50 66.50 L 218.50 528.50 " fill="none" fill-opacity="0.00" stroke="#B0B0B0" stroke-opacity="1.00" stroke-width="0.80" stroke-linecap="butt" stroke-linejoin="miter" clip-path="url(#clip-2)"/>
<path d="M 308.50 66.50 L 308.50 528.50 " fill="none" fill-opacity="0.00" stroke="#B0B0B0" stroke-opacity="1.00" stroke-width="0.80" stroke-linecap="butt" stroke-linejoin="miter" clip-path="url(#clip-3)"/>
<path d="M 397.50 66.50 L 397.50 528.50 " fill="none" fill-opacity="0.00" stroke="#B0B0B0" stroke-opacity="1.00" stroke-width="0.80" stroke-linecap="butt" stroke-linejoin="miter" clip-path="url(#clip-4)"/>
<path d="M 487.50 66.50 L 487.50 528.50 " fill="none" fill-opacity="0.00" stroke="#B0B0B0" stroke-opacity="1.00" stroke-width="0.80" stroke-linecap="butt" stroke-linejoin="miter" clip-path="url(#clip-5)"/>
<path d="M 577.50 66.50 L 577.50 528.50 " fill="none" fill-opacity="0.00" stroke="#B0B0B0" stroke-opacity="1.00" stroke-width="0.80" stroke-linecap="butt" stroke-linejoin="miter" clip-path="url(#clip-6)"/>
<path d="M 666.50 66.50 L 666.50 528.50 " fill="none" fill-opacity="0.00" stroke="#B0B0B0" stroke-opacity="1.00" stroke-width="0.80" stroke-linecap="butt" stroke-linejoin="miter" clip-path="url(#clip-7)"/>
<path d="M 100.50 86.50 L 720.50 86.50 " fill="none" fill-opacity="0.00" stroke="#B0B0B0" stroke-opacity="1.00" stroke-width="0.80" stroke-linecap="butt" stroke-linejoin="miter" clip-path="url(#clip-8)"/>
<path d="M 100.50 153.50 L 720.50 153.50 " fill="none" fill-opacity="0.00" stroke="#B0B0B0" stroke-opacity="1.00" stroke-width="0.80" stroke-linecap="butt" stroke-linejoin="miter" clip-path="url(#clip-9)"/>
<path d="M 100.50 220.50 L 720.50 220.50 " fill="none" fill-opacity="0.00" stroke="#B0B0B0" stroke-opacity="1.00" stroke-width="0.80" stroke-linecap="butt" stroke-linejoin="miter" clip-path="url(#clip-10)"/>
<path d="M 100.50 287.50 L 720.50 287.50 " fill="none" fill-opacity="0.00" stroke="#B0B0B0" stroke-opacity="1.00" stroke-width="0.80" stroke-linecap="butt" stroke-linejoin="miter" clip-path="url(#clip-11)"/>
<path d="M 100.50 353.50 L 720.50 353.50 " fill="none" fill-opacity="0.00" stroke="#B0B0B0" stroke-opacity="1.00" stroke-width="0.80" stroke-linecap="butt" stroke-linejoin="miter" clip-path="url(#clip-12)"/>
<path d="M 100.50 420.50 L 720.50 420.50 " fill="none" fill-opacity="0.00" stroke="#B0B0B0" stroke-opacity="1.00" stroke-width="0.80" stroke-linecap="butt" stroke-linejoin="miter" clip-path="url(#clip-13)"/>
<path d="M 100.50 487.50 L 720.50 487.50 " fill="none" fill-opacity="0.00" stroke="#B0B0B0" stroke-opacity="1.00" stroke-width="0.80" stroke-linecap="butt" stroke-linejoin="miter" clip-path="url(#clip-14)"/>
<path d="M 128.18 85.95 L 173.01 85.95 L 173.01 80.70 L 187.10 87.00 L 173.01 93.30 L 173.01 88.05 L 128.18 88.05 Z " fill="#1F77B4" fill-opacity="1.00" stroke="#1F77B4" stroke-opacity="1.00" stroke-width="0.00" stroke-linecap="butt" stroke-linejoin="round" clip-path="url(#clip-15)"/>
<path d="M 223.04 86.21 L 271.31 117.35 L 275.92 113.39 L 281.04 125.02 L 264.85 122.91 L 269.47 118.94 L 221.20 87.79 Z " fill="#1F77B4" fill-opacity="1.00" stroke="#1F77B4" stroke-opacity="1.00" stroke-width="0.00" stroke-linecap="butt" stroke-linejoin="round" clip-path="url(#clip-16)"/>
<path d="M 316.98 86.21 L 365.25 117.35 L 369.86 113.39 L 374.98 125.02 L 358.79 122.91 L 363.41 118.94 L 315.14 87.79 Z " fill="#1F77B4" fill-opacity="1.00" stroke="#1F77B4" stroke-opacity="1.00" stroke-width="0.00" stroke-linecap="butt" stroke-linejoin="round" clip-path="url(#clip-17)"/>
<path d="M 410.00 85.95 L 454.83 85.95 L 454.83 80.70 L 468.92 87.00 L 454.83 93.30 L 454.83 88.05 L 410.00 88.05 Z " fill="#1F77B4" fill-opacity="1.00" stroke="#1F77B4" stroke-opacity="1.00" stroke-width="0.00" stroke-linecap="butt" stroke-linejoin="round" clip-path="url(#clip-18)"/>
<path d="M 503.02 86.21 L 551.28 55.06 L 546.67 51.09 L 562.86 48.98 L 557.74 60.61 L 553.13 56.65 L 504.86 87.79 Z " fill="#1F77B4" fill-opacity="1.00" stroke="#1F77B4" stroke-opacity="1.00" stroke-width="0.00" stroke-linecap="butt" stroke-linejoin="round" clip-path="url(#clip-19)"/>
<path d="M 596.96 86.21 L 645.22 55.06 L 640.61 51.09 L 656.80 48.98 L 651.68 60.61 L 647.07 56.65 L 598.80 87.79 Z " fill="#1F77B4" fill-opacity="1.00" stroke="#1F77B4" stroke-opacity="1.00" stroke-width="0.00" stroke-linecap="butt" stroke-linejoin="round" clip-path="url(#clip-20)"/>
<path d="M 691.82 85.95 L 736.65 85.95 L 736.65 80.70 L 750.74 87.00 L 736.65 93.30 L 736.65 88.05 L 691.82 88.05 Z " fill="#1F77B4" fill-opacity="1.00" stroke="#1F77B4" stroke-opacity="1.00" stroke-width="0.00" stroke-linecap="butt" stroke-linejoin="round" clip-path="url(#clip-21)"/>
<path d="M 128.18 155.95 L 143.55 155.95 L 143.55 150.70 L 157.64 157.00 L 143.55 163.30 L 143.55 158.05 L 128.18 158.05 Z " fill="#1F77B4" fill-opacity="1.00" stroke="#1F77B4" stroke-opacity="1.00" stroke-width="0.00" stroke-linecap="butt" stroke-linejoin="round" clip-path="url(#clip-22)"/>
<path d="M 223.34 156.47 L 245.76 185.40 L 251.86 182.78 L 251.58 195.02 L 237.21 189.08 L 243.32 186.45 L 220.90 157.52 Z " fill="#1F77B4" fill-opacity="1.00" stroke="#1F77B4" stroke-opacity="1.00" stroke-width="0.00" stroke-linecap="butt" stroke-linejoin="round" clip-path="url(#clip-23)"/>
<path d="M 317.28 156.47 L 339.70 185.40 L 345.80 182.78 L 345.52 195.02 L 331.15 189.08 L 337.25 186.45 L 314.84 157.52 Z " fill="#1F77B4" fill-opacity="1.00" stroke="#1F77B4" stroke-opacity="1.00" stroke-width="0.00" stroke-linecap="butt" stroke-linejoin="round" clip-path="url(#clip-24)"/>
<path d="M 410.00 155.95 L 425.37 155.95 L 425.37 150.70 L 439.46 157.00 L 425.37 163.30 L 425.37 158.05 L 410.00 158.05 Z " fill="#1F77B4" fill-opacity="1.00" stroke="#1F77B4" stroke-opacity="1.00" stroke-width="0.00" stroke-linecap="butt" stroke-linejoin="round" clip-path="url(#clip-25)"/>
<path d="M 502.72 156.47 L 525.13 127.55 L 519.03 124.92 L 533.40 118.98 L 533.68 131.22 L 527.57 128.60 L 505.16 157.52 Z " fill="#1F77B4" fill-opacity="1.00" stroke="#1F77B4" stroke-opacity="1.00" stroke-width="0.00" stroke-linecap="butt" stroke-linejoin="round" clip-path="url(#clip-26)"/>
<path d="M 596.66 156.47 L 619.07 127.55 L 612.97 124.92 L 627.34 118.98 L 627.61 131.22 L 621.51 128.60 L 599.10 157.52 Z " fill="#1F77B4" fill-opacity="1.00" stroke="#1F77B4" stroke-opacity="1.00" stroke-width="0.00" stroke-linecap="butt" stroke-linejoin="round" clip-path="url(#clip-27)"/>
<path d="M 691.82 155.95 L 707.19 155.95 L 707.19 150.70 L 721.28 157.00 L 707.19 163.30 L 707.19 158.05 L 691.82 158.05 Z " fill="#1F77B4" fill-opacity="1.00" stroke="#1F77B4" stroke-opacity="1.00" stroke-width="0.00" stroke-linecap="butt" stroke-linejoin="round" clip-path="url(#clip-28)"/>
<path d="M 128.18 228.05 L 112.81 228.05 L 112.81 233.30 L 98.72 227.00 L 112.81 220.70 L 112.81 225.95 L 128.18 225.95 Z " fill="#1F77B4" fill-opacity="1.00" stroke="#1F77B4" stroke-opacity="1.00" stroke-width="0.00" stroke-linecap="butt" stroke-linejoin="round" clip-path="url(#clip-29)"/>
<path d="M 223.34 227.52 L 200.93 256.45 L 207.03 259.08 L 192.66 265.02 L 192.39 252.78 L 198.49 255.40 L 220.90 226.47 Z " fill="#1F77B4" fill-opacity="1.00" stroke="#1F77B4" stroke-opacity="1.00" stroke-width="0.00" stroke-linecap="butt" stroke-linejoin="round" clip-path="url(#clip-30)"/>
<path d="M 317.28 227.52 L 294.87 256.45 L 300.97 259.08 L 286.60 265.02 L 286.32 252.78 L 292.43 255.40 L 314.84 226.47 Z " fill="#1F77B4" fill-opacity="1.00" stroke="#1F77B4" stroke-opacity="1.00" stroke-width="0.00" stroke-linecap="butt" stroke-linejoin="round" clip-path="url(#clip-31)"/>
<path d="M 410.00 228.05 L 394.63 228.05 L 394.63 233.30 L 380.54 227.00 L 394.63 220.70 L 394.63 225.95 L 410.00 225.95 Z " fill="#1F77B4" fill-opacity="1.00" stroke="#1F77B4" stroke-opacity="1.00" stroke-width="0.00" stroke-linecap="butt" stroke-linejoin="round" clip-path="url(#clip-32)"/>
<path d="M 502.72 227.52 L 480.30 198.60 L 474.20 201.22 L 474.48 188.98 L 488.85 194.92 L 482.75 197.55 L 505.16 226.47 Z " fill="#1F77B4" fill-opacity="1.00" stroke="#1F77B4" stroke-opacity="1.00" stroke-width="0.00" stroke-linecap="butt" stroke-linejoin="round" clip-path="url(#clip-33)"/>
<path d="M 596.66 227.52 L 574.24 198.60 L 568.14 201.22 L 568.42 188.98 L 582.79 194.92 L 576.68 197.55 L 599.10 226.47 Z " fill="#1F77B4" fill-opacity="1.00" stroke="#1F77B4" stroke-opacity="1.00" stroke-width="0.00" stroke-linecap="butt" stroke-linejoin="round" clip-path="url(#clip-34)"/>
<path d="M 691.82 228.05 L 676.45 228.05 L 676.45 233.30 L 662.36 227.00 L 676.45 220.70 L 676.45 225.95 L 691.82 225.95 Z " fill="#1F77B4" fill-opacity="1.00" stroke="#1F77B4" stroke-opacity="1.00" stroke-width="0.00" stroke-linecap="butt" stroke-linejoin="round" clip-path="url(#clip-35)"/>
<path d="M 128.18 298.05 L 83.35 298.05 L 83.35 303.30 L 69.26 297.00 L 83.35 290.70 L 83.35 295.95 L 128.18 295.95 Z " fill="#1F77B4" fill-opacity="1.00" stroke="#1F77B4" stroke-opacity="1.00" stroke-width="0.00" stroke-linecap="butt" stroke-linejoin="round" clip-path="url(#clip-36)"/>
<path d="M 223.04 297.79 L 174.78 328.94 L 179.39 332.91 L 163.20 335.02 L 168.32 323.39 L 172.93 327.35 L 221.20 296.21 Z " fill="#1F77B4" fill-opacity="1.00" stroke="#1F77B4" stroke-opacity="1.00" stroke-width="0.00" stroke-linecap="butt" stroke-linejoin="round" clip-path="url(#clip-37)"/>
<path d="M 316.98 297.79 L 268.72 328.94 L 273.33 332.91 L 257.14 335.02 L 262.26 323.39 L 266.87 327.35 L 315.14 296.21 Z " fill="#1F77B4" fill-opacity="1.00" stroke="#1F77B4" stroke-opacity="1.00" stroke-width="0.00" stroke-linecap="butt" stroke-linejoin="round" clip-path="url(#clip-38)"/>
<path d="M 410.00 298.05 L 365.17 298.05 L 365.17 303.30 L 351.08 297.00 L 365.17 290.70 L 365.17 295.95 L 410.00 295.95 Z " fill="#1F77B4" fill-opacity="1.00" stroke="#1F77B4" stroke-opacity="1.00" stroke-width="0.00" stroke-linecap="butt" stroke-linejoin="round" clip-path="url(#clip-39)"/>
<path d="M 503.02 297.79 L 454.75 266.65 L 450.14 270.61 L 445.02 258.98 L 461.21 261.09 L 456.59 265.06 L 504.86 296.21 Z " fill="#1F77B4" fill-opacity="1.00" stroke="#1F77B4" stroke-opacity="1.00" stroke-width="0.00" stroke-linecap="butt" stroke-linejoin="round" clip-path="url(#clip-40)"/>
<path d="M 596.96 297.79 L 548.69 266.65 L 544.08 270.61 L 538.96 258.98 L 555.15 261.09 L 550.53 265.06 L 598.80 296.21 Z " fill="#1F77B4" fill-opacity="1.00" stroke="#1F77B4" stroke-opacity="1.00" stroke-width="0.00" stroke-linecap="butt" stroke-linejoin="round" clip-path="url(#clip-41)"/>
<path d="M 691.82 298.05 L 646.99 298.05 L 646.99 303.30 L 632.90 297.00 L 646.99 290.70 L 646.99 295.95 L 691.82 295.95 Z " fill="#1F77B4" fill-opacity="1.00" stroke="#1F77B4" stroke-opacity="1.00" stroke-width="0.00" stroke-linecap="butt" stroke-linejoin="round" clip-path="url(#clip-42)"/>
<path d="M 128.18 368.05 L 112.81 368.05 L 112.81 373.30 L 98.72 367.00 L 112.81 360.70 L 112.81 365.95 L 128.18 365.95 Z " fill="#1F77B4" fill-opacity="1.00" stroke="#1F77B4" stroke-opacity="1.00" stroke-width="0.00" stroke-linecap="butt" stroke-linejoin="round" clip-path="url(#clip-43)"/>
<path d="M 223.34 367.52 L 200.93 396.45 L 207.03 399.08 L 192.66 405.02 L 192.39 392.78 L 198.49 395.40 L 220.90 366.47 Z " fill="#1F77B4" fill-opacity="1.00" stroke="#1F77B4" stroke-opacity="1.00" stroke-width="0.00" stroke-linecap="butt" stroke-linejoin="round" clip-path="url(#clip-44)"/>
<path d="M 317.28 367.52 L 294.87 396.45 L 300.97 399.08 L 286.60 405.02 L 286.32 392.78 L 292.43 395.40 L 314.84 366.47 Z " fill="#1F77B4" fill-opacity="1.00" stroke="#1F77B4" stroke-opacity="1.00" stroke-width="0.00" stroke-linecap="butt" stroke-linejoin="round" clip-path="url(#clip-45)"/>
<path d="M 410.00 368.05 L 394.63 368.05 L 394.63 373.30 L 380.54 367.00 L 394.63 360.70 L 394.63 365.95 L 410.00 365.95 Z " fill="#1F77B4" fill-opacity="1.00" stroke="#1F77B4" stroke-opacity="1.00" stroke-width="0.00" stroke-linecap="butt" stroke-linejoin="round" clip-path="url(#clip-46)"/>
<path d="M 502.72 367.52 L 480.30 338.60 L 474.20 341.22 L 474.48 328.98 L 488.85 334.92 L 482.75 337.55 L 505.16 366.47 Z " fill="#1F77B4" fill-opacity="1.00" stroke="#1F77B4" stroke-opacity="1.00" stroke-width="0.00" stroke-linecap="butt" stroke-linejoin="round" clip-path="url(#clip-47)"/>
<path d="M 596.66 367.52 L 574.24 338.60 L 568.14 341.22 L 568.42 328.98 L 582.79 334.92 L 576.68 337.55 L 599.10 366.47 Z " fill="#1F77B4" fill-opacity="1.00" stroke="#1F77B4" stroke-opacity="1.00" stroke-width="0.00" stroke-linecap="butt" stroke-linejoin="round" clip-path="url(#clip-48)"/>
<path d="M 691.82 368.05 L 676.45 368.05 L 676.45 373.30 L 662.36 367.00 L 676.45 360.70 L 676.45 365.95 L 691.82 365.95 Z " fill="#1F77B4" fill-opacity="1.00" stroke="#1F77B4" stroke-opacity="1.00" stroke-width="0.00" stroke-linecap="butt" stroke-linejoin="round" clip-path="url(#clip-49)"/>
<path d="M 128.18 435.95 L 143.55 435.95 L 143.55 430.70 L 157.64 437.00 L 143.55 443.30 L 143.55 438.05 L 128.18 438.05 Z " fill="#1F77B4" fill-opacity="1.00" stroke="#1F77B4" stroke-opacity="1.00" stroke-width="0.00" stroke-linecap="butt" stroke-linejoin="round" clip-path="url(#clip-50)"/>
<path d="M 223.34 436.47 L 245.76 465.40 L 251.86 462.78 L 251.58 475.02 L 237.21 469.08 L 243.32 466.45 L 220.90 437.52 Z " fill="#1F77B4" fill-opacity="1.00" stroke="#1F77B4" stroke-opacity="1.00" stroke-width="0.00" stroke-linecap="butt" stroke-linejoin="round" clip-path="url(#clip-51)"/>
<path d="M 317.28 436.47 L 339.70 465.40 L 345.80 462.78 L 345.52 475.02 L 331.15 469.08 L 337.25 466.45 L 314.84 437.52 Z " fill="#1F77B4" fill-opacity="1.00" stroke="#1F77B4" stroke-opacity="1.00" stroke-width="0.00" stroke-linecap="butt" stroke-linejoin="round" clip-path="url(#clip-52)"/>
<path d="M 410.00 435.95 L 425.37 435.95 L 425.37 430.70 L 439.46 437.00 L 425.37 443.30 L 425.37 438.05 L 410.00 438.05 Z " fill="#1F77B4" fill-opacity="1.00" stroke="#1F77B4" stroke-opacity="1.00" stroke-width="0.00" stroke-linecap="butt" stroke-linejoin="round" clip-path="url(#clip-53)"/>
<path d="M 502.72 436.47 L 525.13 407.55 L 519.03 404.92 L 533.40 398.98 L 533.68 411.22 L 527.57 408.60 L 505.16 437.52 Z " fill="#1F77B4" fill-opacity="1.00" stroke="#1F77B4" stroke-opacity="1.00" stroke-width="0.00" stroke-linecap="butt" stroke-linejoin="round" clip-path="url(#clip-54)"/>
<path d="M 596.66 436.47 L 619.07 407.55 L 612.97 404.92 L 627.34 398.98 L 627.61 411.22 L 621.51 408.60 L 599.10 437.52 Z " fill="#1F77B4" fill-opacity="1.00" stroke="#1F77B4" stroke-opacity="1.00" stroke-width="0.00" stroke-linecap="butt" stroke-linejoin="round" clip-path="url(#clip-55)"/>
<path d="M 691.82 435.95 L 707.19 435.95 L 707.19 430.70 L 721.28 437.00 L 707.19 443.30 L 707.19 438.05 L 691.82 438.05 Z " fill="#1F77B4" fill-opacity="1.00" stroke="#1F77B4" stroke-opacity="1.00" stroke-width="0.00" stroke-linecap="butt" stroke-linejoin="round" clip-path="url(#clip-56)"/>
<path d="M 128.18 505.95 L 173.01 505.95 L 173.01 500.70 L 187.10 507.00 L 173.01 513.30 L 173.01 508.05 L 128.18 508.05 Z " fill="#1F77B4" fill-opacity="1.00" stroke="#1F77B4" stroke-opacity="1.00" stroke-width="0.00" stroke-linecap="butt" stroke-linejoin="round" clip-path="url(#clip-57)"/>
<path d="M 223.04 506.21 L 271.31 537.35 L 275.92 533.39 L 281.04 545.02 L 264.85 542.91 L 269.47 538.94 L 221.20 507.79 Z " fill="#1F77B4" fill-opacity="1.00" stroke="#1F77B4" stroke-opacity="1.00" stroke-width="0.00" stroke-linecap="butt" stroke-linejoin="round" clip-path="url(#clip-58)"/>
<path d="M 316.98 506.21 L 365.25 537.35 L 369.86 533.39 L 374.98 545.02 L 358.79 542.91 L 363.41 538.94 L 315.14 507.79 Z " fill="#1F77B4" fill-opacity="1.00" stroke="#1F77B4" stroke-opacity="1.00" stroke-width="0.00" stroke-linecap="butt" stroke-linejoin="round" clip-path="url(#clip-59)"/>
<path d="M 410.00 505.95 L 454.83 505.95 L 454.83 500.70 L 468.92 507.00 L 454.83 513.30 L 454.83 508.05 L 410.00 508.05 Z " fill="#1F77B4" fill-opacity="1.00" stroke="#1F77B4" stroke-opacity="1.00" stroke-width="0.00" stroke-linecap="butt" stroke-linejoin="round" clip-path="url(#clip-60)"/>
<path d="M 503.02 506.21 L 551.28 475.06 L 546.67 471.09 L 562.86 468.98 L 557.74 480.61 L 553.13 476.65 L 504.86 507.79 Z " fill="#1F77B4" fill-opacity="1.00" stroke="#1F77B4" stroke-opacity="1.00" stroke-width="0.00" stroke-linecap="butt" stroke-linejoin="round" clip-path="url(#clip-61)"/>
<path d="M 596.96 506.21 L 645.22 475.06 L 640.61 471.09 L 656.80 468.98 L 651.68 480.61 L 647.07 476.65 L 598.80 507.79 Z " fill="#1F77B4" fill-opacity="1.00" stroke="#1F77B4" stroke-opacity="1.00" stroke-width="0.00" stroke-linecap="butt" stroke-linejoin="round" clip-path="url(#clip-62)"/>
<path d="M 691.82 505.95 L 736.65 505.95 L 736.65 500.70 L 750.74 507.00 L 736.65 513.30 L 736.65 508.05 L 691.82 508.05 Z " fill="#1F77B4" fill-opacity="1.00" stroke="#1F77B4" stroke-opacity="1.00" stroke-width="0.00" stroke-linecap="butt" stroke-linejoin="round" clip-path="url(#clip-63)"/>
<text font-family="DejaVu Sans" font-size="16.67" fill="#000000" fill-opacity="1.00" text-anchor="middle" transform="translate(410.00,537.33) scale(1,-1)">Quiver Plot — Wind Patterns</text>
<path d="M 128.50 66.50 L 128.50 61.50 " fill="none" fill-opacity="0.00" stroke="#000000" stroke-opacity="1.00" stroke-width="0.80" stroke-linecap="butt" stroke-linejoin="miter"/>
<text font-family="DejaVu Sans" font-size="13.89" fill="#000000" fill-opacity="1.00" text-anchor="middle" dominant-baseline="text-before-edge" transform="translate(128.18,56.28) scale(1,-1)">0</text>
<path d="M 218.50 66.50 L 218.50 61.50 " fill="none" fill-opacity="0.00" stroke="#000000" stroke-opacity="1.00" stroke-width="0.80" stroke-linecap="butt" stroke-linejoin="miter"/>
<text font-family="DejaVu Sans" font-size="13.89" fill="#000000" fill-opacity="1.00" text-anchor="middle" dominant-baseline="text-before-edge" transform="translate(217.89,56.28) scale(1,-1)">1</text>
<path d="M 308.50 66.50 L 308.50 61.50 " fill="none" fill-opacity="0.00" stroke="#000000" stroke-opacity="1.00" stroke-width="0.80" stroke-linecap="butt" stroke-linejoin="miter"/>
<text font-family="DejaVu Sans" font-size="13.89" fill="#000000" fill-opacity="1.00" text-anchor="middle" dominant-baseline="text-before-edge" transform="translate(307.59,56.28) scale(1,-1)">2</text>
<path d="M 397.50 66.50 L 397.50 61.50 " fill="none" fill-opacity="0.00" stroke="#000000" stroke-opacity="1.00" stroke-width="0.80" stroke-linecap="butt" stroke-linejoin="miter"/>
<text font-family="DejaVu Sans" font-size="13.89" fill="#000000" fill-opacity="1.00" text-anchor="middle" dominant-baseline="text-before-edge" transform="translate(397.30,56.28) scale(1,-1)">3</text>
<path d="M 487.50 66.50 L 487.50 61.50 " fill="none" fill-opacity="0.00" stroke="#000000" stroke-opacity="1.00" stroke-width="0.80" stroke-linecap="butt" stroke-linejoin="miter"/>
<text font-family="DejaVu Sans" font-size="13.89" fill="#000000" fill-opacity="1.00" text-anchor="middle" dominant-baseline="text-before-edge" transform="translate(487.00,56.28) scale(1,-1)">4</text>
<path d="M 577.50 66.50 L 577.50 61.50 " fill="none" fill-opacity="0.00" stroke="#000000" stroke-opacity="1.00" stroke-width="0.80" stroke-linecap="butt" stroke-linejoin="miter"/>
<text font-family="DejaVu Sans" font-size="13.89" fill="#000000" fill-opacity="1.00" text-anchor="middle" dominant-baseline="text-before-edge" transform="translate(576.71,56.28) scale(1,-1)">5</text>
<path d="M 666.50 66.50 L 666.50 61.50 " fill="none" fill-opacity="0.00" stroke="#000000" stroke-opacity="1.00" stroke-width="0.80" stroke-linecap="butt" stroke-linejoin="miter"/>
<text font-family="DejaVu Sans" font-size="13.89" fill="#000000" fill-opacity="1.00" text-anchor="middle" dominant-baseline="text-before-edge" transform="translate(666.41,56.28) scale(1,-1)">6</text>
<text font-family="DejaVu Sans" font-size="13.89" fill="#000000" fill-opacity="1.00" text-anchor="middle" dominant-baseline="text-before-edge" transform="translate(410.00,37.17) scale(1,-1)">X</text>
<path d="M 100.50 86.50 L 95.50 86.50 " fill="none" fill-opacity="0.00" stroke="#000000" stroke-opacity="1.00" stroke-width="0.80" stroke-linecap="butt" stroke-linejoin="miter"/>
<text font-family="DejaVu Sans" font-size="13.89" fill="#000000" fill-opacity="1.00" text-anchor="end" dominant-baseline="central" transform="translate(90.28,87.00) scale(1,-1)">0</text>
<path d="M 100.50 153.50 L 95.50 153.50 " fill="none" fill-opacity="0.00" stroke="#000000" stroke-opacity="1.00" stroke-width="0.80" stroke-linecap="butt" stroke-linejoin="miter"/>
<text font-family="DejaVu Sans" font-size="13.89" fill="#000000" fill-opacity="1.00" text-anchor="end" dominant-baseline="central" transform="translate(90.28,153.85) scale(1,-1)">1</text>
<path d="M 100.50 220.50 L 95.50 220.50 " fill="none" fill-opacity="0.00" stroke="#000000" stroke-opacity="1.00" stroke-width="0.80" stroke-linecap="butt" stroke-linejoin="miter"/>
<text font-family="DejaVu Sans" font-size="13.89" fill="#000000" fill-opacity="1.00" text-anchor="end" dominant-baseline="central" transform="translate(90.28,220.69) scale(1,-1)">2</text>
<path d="M 100.50 287.50 L 95.50 287.50 " fill="none" fill-opacity="0.00" stroke="#000000" stroke-opacity="1.00" stroke-width="0.80" stroke-linecap="butt" stroke-linejoin="miter"/>
<text font-family="DejaVu Sans" font-size="13.89" fill="#000000" fill-opacity="1.00" text-anchor="end" dominant-baseline="central" transform="translate(90.28,287.54) scale(1,-1)">3</text>
<path d="M 100.50 353.50 L 95.50 353.50 " fill="none" fill-opacity="0.00" stroke="#000000" stroke-opacity="1.00" stroke-width="0.80" stroke-linecap="butt" stroke-linejoin="miter"/>
<text font-family="DejaVu Sans" font-size="13.89" fill="#000000" fill-opacity="1.00" text-anchor="end" dominant-baseline="central" transform="translate(90.28,354.38) scale(1,-1)">4</text>
<path d="M 100.50 420.50 L 95.50 420.50 " fill="none" fill-opacity="0.00" stroke="#000000" stroke-opacity="1.00" stroke-width="0.80" stroke-linecap="butt" stroke-linejoin="miter"/>
<text font-family="DejaVu Sans" font-size="13.89" fill="#000000" fill-opacity="1.00" text-anchor="end" dominant-baseline="central" transform="translate(90.28,421.23) scale(1,-1)">5</text>
<path d="M 100.50 487.50 L 95.50 487.50 " fill="none" fill-opacity="0.00" stroke="#000000" stroke-opacity="1.00" stroke-width="0.80" stroke-linecap="butt" stroke-linejoin="miter"/>
<text font-family="DejaVu Sans" font-size="13.89" fill="#000000" fill-opacity="1.00" text-anchor="end" dominant-baseline="central" transform="translate(90.28,488.07) scale(1,-1)">6</text>
<text font-family="DejaVu Sans" font-size="13.89" fill="#000000" fill-opacity="1.00" text-anchor="middle" transform="translate(69.26,297.00) rotate(90.00) scale(1,-1)">Y</text>
<path d="M 100.50 66.50 L 100.50 528.50 " fill="none" fill-opacity="0.00" stroke="#000000" stroke-opacity="1.00" stroke-width="0.80" stroke-linecap="square" stroke-linejoin="miter"/>
<path d="M 720.50 66.50 L 720.50 528.50 " fill="none" fill-opacity="0.00" stroke="#000000" stroke-opacity="1.00" stroke-width="0.80" stroke-linecap="square" stroke-linejoin="miter"/>
<path d="M 100.50 65.50 L 720.50 65.50 " fill="none" fill-opacity="0.00" stroke="#000000" stroke-opacity="1.00" stroke-width="0.80" stroke-linecap="square" stroke-linejoin="miter"/>
<path d="M 100.50 527.50 L 720.50 527.50 " fill="none" fill-opacity="0.00" stroke="#000000" stroke-opacity="1.00" stroke-width="0.80" stroke-linecap="square" stroke-linejoin="miter"/>
</g>
</svg>
