<?xml version="1.0" encoding="UTF-8"?>
<svg xmlns="http://www.w3.org/2000/svg"
     xmlns:xlink="http://www.w3.org/1999/xlink"
     width="1000" height="600" viewBox="0 0 1000 600">
<defs>
</defs>
<g transform="translate(0,600) scale(1,-1)">
<rect width="1000" height="600" fill="white"/>
<path d="M 0.00 0.00 L 1000.00 0.00 L 1000.00 600.00 L 0.00 600.00 L 0.00 0.00 Z " fill="#FFFFFF" fill-opacity="1.00" stroke="#000000" stroke-opacity="1.00" stroke-width="0.00" stroke-linecap="butt" stroke-linejoin="miter"/>
<path d="M 125.00 66.00 L 900.00 66.00 L 900.00 528.00 L 125.00 528.00 L 125.00 66.00 Z " fill="#FFFFFF" fill-opacity="1.00" stroke="none" stroke-opacity="0.00" stroke-width="0.00" stroke-linecap="butt" stroke-linejoin="miter"/>
<path d="M 125.00 192.00 L 900.00 192.00 L 900.00 402.02 L 125.00 402.02 Z " fill="#FFFF00" fill-opacity="0.30" stroke="#000000" stroke-opacity="0.00" stroke-width="0.00" stroke-linecap="butt" stroke-linejoin="miter"/>
<path d="M 336.36 66.00 L 512.50 66.00 L 512.50 528.00 L 336.36 528.00 Z " fill="#0000FF" fill-opacity="0.20" stroke="#000000" stroke-opacity="0.00" stroke-width="0.00" stroke-linecap="butt" stroke-linejoin="miter"/>
<path d="M 160.23 297.01 L 163.77 318.08 L 167.31 338.94 L 170.85 359.37 L 174.39 379.18 L 177.93 398.16 L 181.47 416.11 L 185.01 432.87 L 188.55 448.25 L 192.09 462.11 L 195.63 474.30 L 199.17 484.70 L 202.71 493.21 L 206.25 499.73 L 209.79 504.21 L 213.33 506.60 L 216.87 506.88 L 220.41 505.03 L 223.96 501.09 L 227.50 495.09 L 231.04 487.09 L 234.58 477.17 L 238.12 465.43 L 241.66 451.99 L 245.20 436.99 L 248.74 420.57 L 252.28 402.91 L 255.82 384.18 L 259.36 364.57 L 262.90 344.28 L 266.44 323.51 L 269.98 302.47 L 273.52 281.38 L 277.06 260.45 L 280.60 239.88 L 284.14 219.89 L 287.68 200.68 L 291.22 182.44 L 294.76 165.36 L 298.30 149.61 L 301.84 135.34 L 305.38 122.71 L 308.93 111.83 L 312.47 102.83 L 316.01 95.78 L 319.55 90.76 L 323.09 87.83 L 326.63 87.01 L 330.17 88.30 L 333.71 91.71 L 337.25 97.18 L 340.79 104.67 L 344.33 114.10 L 347.87 125.38 L 351.41 138.39 L 354.95 153.00 L 358.49 169.07 L 362.03 186.42 L 365.57 204.90 L 369.11 224.30 L 372.65 244.43 L 376.19 265.10 L 379.73 286.09 L 383.27 307.18 L 386.81 328.18 L 390.36 348.86 L 393.90 369.02 L 397.44 388.45 L 400.98 406.96 L 404.52 424.35 L 408.06 440.47 L 411.60 455.13 L 415.14 468.20 L 418.68 479.54 L 422.22 489.04 L 425.76 496.61 L 429.30 502.15 L 432.84 505.63 L 436.38 507.00 L 439.92 506.25 L 443.46 503.39 L 447.00 498.45 L 450.54 491.47 L 454.08 482.54 L 457.62 471.72 L 461.16 459.15 L 464.70 444.94 L 468.24 429.24 L 471.79 412.20 L 475.33 394.00 L 478.87 374.82 L 482.41 354.86 L 485.95 334.31 L 489.49 313.38 L 493.03 292.29 L 496.57 271.25 L 500.11 250.47 L 503.65 230.15 L 507.19 210.52 L 510.73 191.75 L 514.27 174.05 L 517.81 157.59 L 521.35 142.53 L 524.89 129.04 L 528.43 117.24 L 531.97 107.25 L 535.51 99.18 L 539.05 93.10 L 542.59 89.09 L 546.13 87.17 L 549.67 87.37 L 553.21 89.68 L 556.76 94.09 L 560.30 100.55 L 563.84 108.98 L 567.38 119.32 L 570.92 131.45 L 574.46 145.25 L 578.00 160.58 L 581.54 177.29 L 585.08 195.21 L 588.62 214.15 L 592.16 233.93 L 595.70 254.35 L 599.24 275.19 L 602.78 296.26 L 606.32 317.34 L 609.86 338.21 L 613.40 358.66 L 616.94 378.49 L 620.48 397.50 L 624.02 415.50 L 627.56 432.30 L 631.10 447.73 L 634.64 461.64 L 638.19 473.90 L 641.73 484.36 L 645.27 492.94 L 648.81 499.54 L 652.35 504.09 L 655.89 506.55 L 659.43 506.90 L 662.97 505.13 L 666.51 501.27 L 670.05 495.33 L 673.59 487.40 L 677.13 477.55 L 680.67 465.87 L 684.21 452.49 L 687.75 437.54 L 691.29 421.18 L 694.83 403.56 L 698.37 384.86 L 701.91 365.28 L 705.45 345.00 L 708.99 324.25 L 712.53 303.22 L 716.07 282.12 L 719.62 261.18 L 723.16 240.60 L 726.70 220.59 L 730.24 201.35 L 733.78 183.07 L 737.32 165.94 L 740.86 150.14 L 744.40 135.82 L 747.94 123.13 L 751.48 112.19 L 755.02 103.11 L 758.56 95.99 L 762.10 90.91 L 765.64 87.90 L 769.18 87.00 L 772.72 88.22 L 776.26 91.55 L 779.80 96.95 L 783.34 104.37 L 786.88 113.74 L 790.42 124.95 L 793.96 137.90 L 797.50 152.46 L 801.04 168.48 L 804.59 185.79 L 808.13 204.23 L 811.67 223.60 L 815.21 243.71 L 818.75 264.36 L 822.29 285.34 L 825.83 306.44 L 829.37 327.44 L 832.91 348.14 L 836.45 368.32 L 839.99 387.78 L 843.53 406.32 L 847.07 423.76 L 850.61 439.92 L 854.15 454.64 L 857.69 467.77 L 861.23 479.17 L 864.77 488.74 " fill="none" fill-opacity="0.00" stroke="#4682B4" stroke-opacity="1.00" stroke-width="2.00" stroke-linecap="square" stroke-linejoin="round"/>
<text font-family="DejaVu Sans" font-size="16.67" fill="#000000" fill-opacity="1.00" text-anchor="middle" transform="translate(512.50,537.33) scale(1,-1)">Sine Wave with Highlighted Regions</text>
<path d="M 160.50 66.50 L 160.50 61.50 " fill="none" fill-opacity="0.00" stroke="#000000" stroke-opacity="1.00" stroke-width="0.80" stroke-linecap="butt" stroke-linejoin="miter"/>
<text font-family="DejaVu Sans" font-size="13.89" fill="#000000" fill-opacity="1.00" text-anchor="middle" dominant-baseline="text-before-edge" transform="translate(160.23,56.28) scale(1,-1)">0.0</text>
<path d="M 248.50 66.50 L 248.50 61.50 " fill="none" fill-opacity="0.00" stroke="#000000" stroke-opacity="1.00" stroke-width="0.80" stroke-linecap="butt" stroke-linejoin="miter"/>
<text font-family="DejaVu Sans" font-size="13.89" fill="#000000" fill-opacity="1.00" text-anchor="middle" dominant-baseline="text-before-edge" transform="translate(248.30,56.28) scale(1,-1)">2.5</text>
<path d="M 336.50 66.50 L 336.50 61.50 " fill="none" fill-opacity="0.00" stroke="#000000" stroke-opacity="1.00" stroke-width="0.80" stroke-linecap="butt" stroke-linejoin="miter"/>
<text font-family="DejaVu Sans" font-size="13.89" fill="#000000" fill-opacity="1.00" text-anchor="middle" dominant-baseline="text-before-edge" transform="translate(336.36,56.28) scale(1,-1)">5.0</text>
<path d="M 424.50 66.50 L 424.50 61.50 " fill="none" fill-opacity="0.00" stroke="#000000" stroke-opacity="1.00" stroke-width="0.80" stroke-linecap="butt" stroke-linejoin="miter"/>
<text font-family="DejaVu Sans" font-size="13.89" fill="#000000" fill-opacity="1.00" text-anchor="middle" dominant-baseline="text-before-edge" transform="translate(424.43,56.28) scale(1,-1)">7.5</text>
<path d="M 512.50 66.50 L 512.50 61.50 " fill="none" fill-opacity="0.00" stroke="#000000" stroke-opacity="1.00" stroke-width="0.80" stroke-linecap="butt" stroke-linejoin="miter"/>
<text font-family="DejaVu Sans" font-size="13.89" fill="#000000" fill-opacity="1.00" text-anchor="middle" dominant-baseline="text-before-edge" transform="translate(512.50,56.28) scale(1,-1)">10.0</text>
<path d="M 601.50 66.50 L 601.50 61.50 " fill="none" fill-opacity="0.00" stroke="#000000" stroke-opacity="1.00" stroke-width="0.80" stroke-linecap="butt" stroke-linejoin="miter"/>
<text font-family="DejaVu Sans" font-size="13.89" fill="#000000" fill-opacity="1.00" text-anchor="middle" dominant-baseline="text-before-edge" transform="translate(600.57,56.28) scale(1,-1)">12.5</text>
<path d="M 689.50 66.50 L 689.50 61.50 " fill="none" fill-opacity="0.00" stroke="#000000" stroke-opacity="1.00" stroke-width="0.80" stroke-linecap="butt" stroke-linejoin="miter"/>
<text font-family="DejaVu Sans" font-size="13.89" fill="#000000" fill-opacity="1.00" text-anchor="middle" dominant-baseline="text-before-edge" transform="translate(688.64,56.28) scale(1,-1)">15.0</text>
<path d="M 777.50 66.50 L 777.50 61.50 " fill="none" fill-opacity="0.00" stroke="#000000" stroke-opacity="1.00" stroke-width="0.80" stroke-linecap="butt" stroke-linejoin="miter"/>
<text font-family="DejaVu Sans" font-size="13.89" fill="#000000" fill-opacity="1.00" text-anchor="middle" dominant-baseline="text-before-edge" transform="translate(776.70,56.28) scale(1,-1)">17.5</text>
<path d="M 865.50 66.50 L 865.50 61.50 " fill="none" fill-opacity="0.00" stroke="#000000" stroke-opacity="1.00" stroke-width="0.80" stroke-linecap="butt" stroke-linejoin="miter"/>
<text font-family="DejaVu Sans" font-size="13.89" fill="#000000" fill-opacity="1.00" text-anchor="middle" dominant-baseline="text-before-edge" transform="translate(864.77,56.28) scale(1,-1)">20.0</text>
<text font-family="DejaVu Sans" font-size="13.89" fill="#000000" fill-opacity="1.00" text-anchor="middle" dominant-baseline="text-before-edge" transform="translate(512.50,37.17) scale(1,-1)">Time</text>
<path d="M 125.50 86.50 L 120.50 86.50 " fill="none" fill-opacity="0.00" stroke="#000000" stroke-opacity="1.00" stroke-width="0.80" stroke-linecap="butt" stroke-linejoin="miter"/>
<text font-family="DejaVu Sans" font-size="13.89" fill="#000000" fill-opacity="1.00" text-anchor="end" dominant-baseline="central" transform="translate(115.28,86.99) scale(1,-1)">-1.00</text>
<path d="M 125.50 138.50 L 120.50 138.50 " fill="none" fill-opacity="0.00" stroke="#000000" stroke-opacity="1.00" stroke-width="0.80" stroke-linecap="butt" stroke-linejoin="miter"/>
<text font-family="DejaVu Sans" font-size="13.89" fill="#000000" fill-opacity="1.00" text-anchor="end" dominant-baseline="central" transform="translate(115.28,139.50) scale(1,-1)">-0.75</text>
<path d="M 125.50 191.50 L 120.50 191.50 " fill="none" fill-opacity="0.00" stroke="#000000" stroke-opacity="1.00" stroke-width="0.80" stroke-linecap="butt" stroke-linejoin="miter"/>
<text font-family="DejaVu Sans" font-size="13.89" fill="#000000" fill-opacity="1.00" text-anchor="end" dominant-baseline="central" transform="translate(115.28,192.00) scale(1,-1)">-0.50</text>
<path d="M 125.50 244.50 L 120.50 244.50 " fill="none" fill-opacity="0.00" stroke="#000000" stroke-opacity="1.00" stroke-width="0.80" stroke-linecap="butt" stroke-linejoin="miter"/>
<text font-family="DejaVu Sans" font-size="13.89" fill="#000000" fill-opacity="1.00" text-anchor="end" dominant-baseline="central" transform="translate(115.28,244.50) scale(1,-1)">-0.25</text>
<path d="M 125.50 296.50 L 120.50 296.50 " fill="none" fill-opacity="0.00" stroke="#000000" stroke-opacity="1.00" stroke-width="0.80" stroke-linecap="butt" stroke-linejoin="miter"/>
<text font-family="DejaVu Sans" font-size="13.89" fill="#000000" fill-opacity="1.00" text-anchor="end" dominant-baseline="central" transform="translate(115.28,297.01) scale(1,-1)">0.00</text>
<path d="M 125.50 349.50 L 120.50 349.50 " fill="none" fill-opacity="0.00" stroke="#000000" stroke-opacity="1.00" stroke-width="0.80" stroke-linecap="butt" stroke-linejoin="miter"/>
<text font-family="DejaVu Sans" font-size="13.89" fill="#000000" fill-opacity="1.00" text-anchor="end" dominant-baseline="central" transform="translate(115.28,349.51) scale(1,-1)">0.25</text>
<path d="M 125.50 401.50 L 120.50 401.50 " fill="none" fill-opacity="0.00" stroke="#000000" stroke-opacity="1.00" stroke-width="0.80" stroke-linecap="butt" stroke-linejoin="miter"/>
<text font-family="DejaVu Sans" font-size="13.89" fill="#000000" fill-opacity="1.00" text-anchor="end" dominant-baseline="central" transform="translate(115.28,402.02) scale(1,-1)">0.50</text>
<path d="M 125.50 454.50 L 120.50 454.50 " fill="none" fill-opacity="0.00" stroke="#000000" stroke-opacity="1.00" stroke-width="0.80" stroke-linecap="butt" stroke-linejoin="miter"/>
<text font-family="DejaVu Sans" font-size="13.89" fill="#000000" fill-opacity="1.00" text-anchor="end" dominant-baseline="central" transform="translate(115.28,454.52) scale(1,-1)">0.75</text>
<path d="M 125.50 506.50 L 120.50 506.50 " fill="none" fill-opacity="0.00" stroke="#000000" stroke-opacity="1.00" stroke-width="0.80" stroke-linecap="butt" stroke-linejoin="miter"/>
<text font-family="DejaVu Sans" font-size="13.89" fill="#000000" fill-opacity="1.00" text-anchor="end" dominant-baseline="central" transform="translate(115.28,507.02) scale(1,-1)">1.00</text>
<text font-family="DejaVu Sans" font-size="13.89" fill="#000000" fill-opacity="1.00" text-anchor="middle" transform="translate(60.68,297.00) rotate(90.00) scale(1,-1)">Amplitude</text>
<path d="M 125.50 66.50 L 125.50 528.50 " fill="none" fill-opacity="0.00" stroke="#000000" stroke-opacity="1.00" stroke-width="0.80" stroke-linecap="square" stroke-linejoin="miter"/>
<path d="M 900.50 66.50 L 900.50 528.50 " fill="none" fill-opacity="0.00" stroke="#000000" stroke-opacity="1.00" stroke-width="0.80" stroke-linecap="square" stroke-linejoin="miter"/>
<path d="M 125.50 65.50 L 900.50 65.50 " fill="none" fill-opacity="0.00" stroke="#000000" stroke-opacity="1.00" stroke-width="0.80" stroke-linecap="square" stroke-linejoin="miter"/>
<path d="M 125.50 527.50 L 900.50 527.50 " fill="none" fill-opacity="0.00" stroke="#000000" stroke-opacity="1.00" stroke-width="0.80" stroke-linecap="square" stroke-linejoin="miter"/>
</g>
</svg>
