<?xml version="1.0" encoding="UTF-8"?>
<svg xmlns="http://www.w3.org/2000/svg"
     xmlns:xlink="http://www.w3.org/1999/xlink"
     width="700" height="500" viewBox="0 0 700 500">
<defs>
<symbol id="marker-1" overflow="visible">
<path d="M 0.00 -4.17 C 1.11 -4.17 2.16 -3.73 2.95 -2.95 C 3.73 -2.16 4.17 -1.11 4.17 0.00 C 4.17 1.11 3.73 2.16 2.95 2.95 C 2.16 3.73 1.11 4.17 0.00 4.17 C -1.11 4.17 -2.16 3.73 -2.95 2.95 C -3.73 2.16 -4.17 1.11 -4.17 0.00 C -4.17 -1.11 -3.73 -2.16 -2.95 -2.95 C -2.16 -3.73 -1.11 -4.17 0.00 -4.17 Z " fill="#4682B4" fill-opacity="1.00" stroke="#4682B4" stroke-opacity="1.00" stroke-width="1.00" stroke-linecap="butt" stroke-linejoin="miter"/>
</symbol>
</defs>
<g transform="translate(0,500) scale(1,-1)">
<rect width="700" height="500" fill="white"/>
<path d="M 0.00 0.00 L 700.00 0.00 L 700.00 500.00 L 0.00 500.00 L 0.00 0.00 Z " fill="#FFFFFF" fill-opacity="1.00" stroke="#000000" stroke-opacity="1.00" stroke-width="0.00" stroke-linecap="butt" stroke-linejoin="miter"/>
<path d="M 87.50 55.00 L 630.00 55.00 L 630.00 440.00 L 87.50 440.00 L 87.50 55.00 Z " fill="#FFFFFF" fill-opacity="1.00" stroke="none" stroke-opacity="0.00" stroke-width="0.00" stroke-linecap="butt" stroke-linejoin="miter"/>
<path d="M 141.75 183.33 L 250.25 311.67 L 358.75 247.50 L 467.25 375.83 L 575.75 119.17 " fill="none" fill-opacity="0.00" stroke="#4682B4" stroke-opacity="1.00" stroke-width="2.00" stroke-linecap="square" stroke-linejoin="round"/>
<use xlink:href="#marker-1" x="141.75" y="183.33"/>
<use xlink:href="#marker-1" x="250.25" y="311.67"/>
<use xlink:href="#marker-1" x="358.75" y="247.50"/>
<use xlink:href="#marker-1" x="467.25" y="375.83"/>
<use xlink:href="#marker-1" x="575.75" y="119.17"/>
<text font-family="DejaVu Sans" font-size="12.50" fill="#000000" fill-opacity="1.00" text-anchor="middle" dominant-baseline="text-after-edge" transform="translate(575.75,128.79) scale(1,-1)">(5,1)</text>
<text font-family="DejaVu Sans" font-size="12.50" fill="#000000" fill-opacity="1.00" text-anchor="middle" dominant-baseline="text-after-edge" transform="translate(467.25,385.46) scale(1,-1)">(4,5)</text>
<text font-family="DejaVu Sans" font-size="12.50" fill="#000000" fill-opacity="1.00" text-anchor="middle" dominant-baseline="text-after-edge" transform="translate(358.75,257.12) scale(1,-1)">(3,3)</text>
<text font-family="DejaVu Sans" font-size="12.50" fill="#000000" fill-opacity="1.00" text-anchor="middle" dominant-baseline="text-after-edge" transform="translate(250.25,321.29) scale(1,-1)">(2,4)</text>
<text font-family="DejaVu Sans" font-size="12.50" fill="#000000" fill-opacity="1.00" text-anchor="middle" dominant-baseline="text-after-edge" transform="translate(141.75,192.96) scale(1,-1)">(1,2)</text>
<text font-family="DejaVu Sans" font-size="16.67" fill="#000000" fill-opacity="1.00" text-anchor="middle" transform="translate(358.75,449.33) scale(1,-1)">Data Point Labels</text>
<text font-family="DejaVu Sans" font-size="12.50" fill="#000000" fill-opacity="1.00" text-anchor="middle" dominant-baseline="text-after-edge" transform="translate(575.75,128.79) scale(1,-1)">(5,1)</text>
<text font-family="DejaVu Sans" font-size="12.50" fill="#000000" fill-opacity="1.00" text-anchor="middle" dominant-baseline="text-after-edge" transform="translate(467.25,385.46) scale(1,-1)">(4,5)</text>
<text font-family="DejaVu Sans" font-size="12.50" fill="#000000" fill-opacity="1.00" text-anchor="middle" dominant-baseline="text-after-edge" transform="translate(358.75,257.12) scale(1,-1)">(3,3)</text>
<text font-family="DejaVu Sans" font-size="12.50" fill="#000000" fill-opacity="1.00" text-anchor="middle" dominant-baseline="text-after-edge" transform="translate(250.25,321.29) scale(1,-1)">(2,4)</text>
<text font-family="DejaVu Sans" font-size="12.50" fill="#000000" fill-opacity="1.00" text-anchor="middle" dominant-baseline="text-after-edge" transform="translate(141.75,192.96) scale(1,-1)">(1,2)</text>
<path d="M 142.50 55.50 L 142.50 50.50 " fill="none" fill-opacity="0.00" stroke="#000000" stroke-opacity="1.00" stroke-width="0.80" stroke-linecap="butt" stroke-linejoin="miter"/>
<text font-family="DejaVu Sans" font-size="13.89" fill="#000000" fill-opacity="1.00" text-anchor="middle" dominant-baseline="text-before-edge" transform="translate(141.75,45.28) scale(1,-1)">1</text>
<path d="M 250.50 55.50 L 250.50 50.50 " fill="none" fill-opacity="0.00" stroke="#000000" stroke-opacity="1.00" stroke-width="0.80" stroke-linecap="butt" stroke-linejoin="miter"/>
<text font-family="DejaVu Sans" font-size="13.89" fill="#000000" fill-opacity="1.00" text-anchor="middle" dominant-baseline="text-before-edge" transform="translate(250.25,45.28) scale(1,-1)">2</text>
<path d="M 359.50 55.50 L 359.50 50.50 " fill="none" fill-opacity="0.00" stroke="#000000" stroke-opacity="1.00" stroke-width="0.80" stroke-linecap="butt" stroke-linejoin="miter"/>
<text font-family="DejaVu Sans" font-size="13.89" fill="#000000" fill-opacity="1.00" text-anchor="middle" dominant-baseline="text-before-edge" transform="translate(358.75,45.28) scale(1,-1)">3</text>
<path d="M 467.50 55.50 L 467.50 50.50 " fill="none" fill-opacity="0.00" stroke="#000000" stroke-opacity="1.00" stroke-width="0.80" stroke-linecap="butt" stroke-linejoin="miter"/>
<text font-family="DejaVu Sans" font-size="13.89" fill="#000000" fill-opacity="1.00" text-anchor="middle" dominant-baseline="text-before-edge" transform="translate(467.25,45.28) scale(1,-1)">4</text>
<path d="M 576.50 55.50 L 576.50 50.50 " fill="none" fill-opacity="0.00" stroke="#000000" stroke-opacity="1.00" stroke-width="0.80" stroke-linecap="butt" stroke-linejoin="miter"/>
<text font-family="DejaVu Sans" font-size="13.89" fill="#000000" fill-opacity="1.00" text-anchor="middle" dominant-baseline="text-before-edge" transform="translate(575.75,45.28) scale(1,-1)">5</text>
<path d="M 87.50 54.50 L 83.50 54.50 " fill="none" fill-opacity="0.00" stroke="#000000" stroke-opacity="1.00" stroke-width="0.80" stroke-linecap="butt" stroke-linejoin="miter"/>
<text font-family="DejaVu Sans" font-size="13.89" fill="#000000" fill-opacity="1.00" text-anchor="end" dominant-baseline="central" transform="translate(77.78,55.00) scale(1,-1)">0</text>
<path d="M 87.50 118.50 L 83.50 118.50 " fill="none" fill-opacity="0.00" stroke="#000000" stroke-opacity="1.00" stroke-width="0.80" stroke-linecap="butt" stroke-linejoin="miter"/>
<text font-family="DejaVu Sans" font-size="13.89" fill="#000000" fill-opacity="1.00" text-anchor="end" dominant-baseline="central" transform="translate(77.78,119.17) scale(1,-1)">1</text>
<path d="M 87.50 182.50 L 83.50 182.50 " fill="none" fill-opacity="0.00" stroke="#000000" stroke-opacity="1.00" stroke-width="0.80" stroke-linecap="butt" stroke-linejoin="miter"/>
<text font-family="DejaVu Sans" font-size="13.89" fill="#000000" fill-opacity="1.00" text-anchor="end" dominant-baseline="central" transform="translate(77.78,183.33) scale(1,-1)">2</text>
<path d="M 87.50 246.50 L 83.50 246.50 " fill="none" fill-opacity="0.00" stroke="#000000" stroke-opacity="1.00" stroke-width="0.80" stroke-linecap="butt" stroke-linejoin="miter"/>
<text font-family="DejaVu Sans" font-size="13.89" fill="#000000" fill-opacity="1.00" text-anchor="end" dominant-baseline="central" transform="translate(77.78,247.50) scale(1,-1)">3</text>
<path d="M 87.50 311.50 L 83.50 311.50 " fill="none" fill-opacity="0.00" stroke="#000000" stroke-opacity="1.00" stroke-width="0.80" stroke-linecap="butt" stroke-linejoin="miter"/>
<text font-family="DejaVu Sans" font-size="13.89" fill="#000000" fill-opacity="1.00" text-anchor="end" dominant-baseline="central" transform="translate(77.78,311.67) scale(1,-1)">4</text>
<path d="M 87.50 375.50 L 83.50 375.50 " fill="none" fill-opacity="0.00" stroke="#000000" stroke-opacity="1.00" stroke-width="0.80" stroke-linecap="butt" stroke-linejoin="miter"/>
<text font-family="DejaVu Sans" font-size="13.89" fill="#000000" fill-opacity="1.00" text-anchor="end" dominant-baseline="central" transform="translate(77.78,375.83) scale(1,-1)">5</text>
<path d="M 87.50 439.50 L 83.50 439.50 " fill="none" fill-opacity="0.00" stroke="#000000" stroke-opacity="1.00" stroke-width="0.80" stroke-linecap="butt" stroke-linejoin="miter"/>
<text font-family="DejaVu Sans" font-size="13.89" fill="#000000" fill-opacity="1.00" text-anchor="end" dominant-baseline="central" transform="translate(77.78,440.00) scale(1,-1)">6</text>
<path d="M 87.50 55.50 L 87.50 440.50 " fill="none" fill-opacity="0.00" stroke="#000000" stroke-opacity="1.00" stroke-width="0.80" stroke-linecap="square" stroke-linejoin="miter"/>
<path d="M 630.50 55.50 L 630.50 440.50 " fill="none" fill-opacity="0.00" stroke="#000000" stroke-opacity="1.00" stroke-width="0.80" stroke-linecap="square" stroke-linejoin="miter"/>
<path d="M 87.50 54.50 L 630.50 54.50 " fill="none" fill-opacity="0.00" stroke="#000000" stroke-opacity="1.00" stroke-width="0.80" stroke-linecap="square" stroke-linejoin="miter"/>
<path d="M 87.50 439.50 L 630.50 439.50 " fill="none" fill-opacity="0.00" stroke="#000000" stroke-opacity="1.00" stroke-width="0.80" stroke-linecap="square" stroke-linejoin="miter"/>
</g>
</svg>
