<?xml version="1.0" encoding="UTF-8"?>
<svg xmlns="http://www.w3.org/2000/svg"
     xmlns:xlink="http://www.w3.org/1999/xlink"
     width="800" height="500" viewBox="0 0 800 500">
<defs>
<clipPath id="clip-1">
<rect x="100.00" y="55.00" width="620.00" height="385.00"/>
</clipPath>
<clipPath id="clip-2">
<rect x="100.00" y="55.00" width="620.00" height="385.00"/>
</clipPath>
<clipPath id="clip-3">
<rect x="100.00" y="55.00" width="620.00" height="385.00"/>
</clipPath>
<clipPath id="clip-4">
<rect x="100.00" y="55.00" width="620.00" height="385.00"/>
</clipPath>
<clipPath id="clip-5">
<rect x="100.00" y="55.00" width="620.00" height="385.00"/>
</clipPath>
<clipPath id="clip-6">
<rect x="100.00" y="55.00" width="620.00" height="385.00"/>
</clipPath>
<clipPath id="clip-7">
<rect x="100.00" y="55.00" width="620.00" height="385.00"/>
</clipPath>
<clipPath id="clip-8">
<rect x="100.00" y="55.00" width="620.00" height="385.00"/>
</clipPath>
<clipPath id="clip-9">
<rect x="100.00" y="55.00" width="620.00" height="385.00"/>
</clipPath>
<clipPath id="clip-10">
<rect x="100.00" y="55.00" width="620.00" height="385.00"/>
</clipPath>
<clipPath id="clip-11">
<rect x="100.00" y="55.00" width="620.00" height="385.00"/>
</clipPath>
</defs>
<g transform="translate(0,500) scale(1,-1)">
<rect width="800" height="500" fill="white"/>
<path d="M 0.00 0.00 L 800.00 0.00 L 800.00 500.00 L 0.00 500.00 L 0.00 0.00 Z " fill="#FFFFFF" fill-opacity="1.00" stroke="#000000" stroke-opacity="1.00" stroke-width="0.00" stroke-linecap="butt" stroke-linejoin="miter"/>
<path d="M 100.00 55.00 L 720.00 55.00 L 720.00 440.00 L 100.00 440.00 L 100.00 55.00 Z " fill="#FFFFFF" fill-opacity="1.00" stroke="none" stroke-opacity="0.00" stroke-width="0.00" stroke-linecap="butt" stroke-linejoin="miter"/>
<path d="M 631.43 55.00 L 691.82 55.00 L 691.82 152.78 L 631.43 152.78 L 631.43 55.00 Z " fill="#FF7F50" fill-opacity="1.00" stroke="#000000" stroke-opacity="1.00" stroke-width="0.80" stroke-linecap="butt" stroke-linejoin="miter"/>
<path d="M 530.78 55.00 L 591.17 55.00 L 591.17 201.67 L 530.78 201.67 L 530.78 55.00 Z " fill="#9370DB" fill-opacity="1.00" stroke="#000000" stroke-opacity="1.00" stroke-width="0.80" stroke-linecap="butt" stroke-linejoin="miter"/>
<path d="M 430.13 55.00 L 490.52 55.00 L 490.52 258.70 L 430.13 258.70 L 430.13 55.00 Z " fill="#DAA520" fill-opacity="1.00" stroke="#000000" stroke-opacity="1.00" stroke-width="0.80" stroke-linecap="butt" stroke-linejoin="miter"/>
<path d="M 329.48 55.00 L 389.87 55.00 L 389.87 299.44 L 329.48 299.44 L 329.48 55.00 Z " fill="#2E8B57" fill-opacity="1.00" stroke="#000000" stroke-opacity="1.00" stroke-width="0.80" stroke-linecap="butt" stroke-linejoin="miter"/>
<path d="M 228.83 55.00 L 289.22 55.00 L 289.22 364.63 L 228.83 364.63 L 228.83 55.00 Z " fill="#FF6347" fill-opacity="1.00" stroke="#000000" stroke-opacity="1.00" stroke-width="0.80" stroke-linecap="butt" stroke-linejoin="miter"/>
<path d="M 128.18 55.00 L 188.57 55.00 L 188.57 421.67 L 128.18 421.67 L 128.18 55.00 Z " fill="#4682B4" fill-opacity="1.00" stroke="#000000" stroke-opacity="1.00" stroke-width="0.80" stroke-linecap="butt" stroke-linejoin="miter"/>
<path d="M 158.50 55.50 L 158.50 440.50 " fill="none" fill-opacity="0.00" stroke="#B0B0B0" stroke-opacity="1.00" stroke-width="0.80" stroke-linecap="butt" stroke-linejoin="miter" clip-path="url(#clip-1)"/>
<path d="M 259.50 55.50 L 259.50 440.50 " fill="none" fill-opacity="0.00" stroke="#B0B0B0" stroke-opacity="1.00" stroke-width="0.80" stroke-linecap="butt" stroke-linejoin="miter" clip-path="url(#clip-2)"/>
<path d="M 360.50 55.50 L 360.50 440.50 " fill="none" fill-opacity="0.00" stroke="#B0B0B0" stroke-opacity="1.00" stroke-width="0.80" stroke-linecap="butt" stroke-linejoin="miter" clip-path="url(#clip-3)"/>
<path d="M 460.50 55.50 L 460.50 440.50 " fill="none" fill-opacity="0.00" stroke="#B0B0B0" stroke-opacity="1.00" stroke-width="0.80" stroke-linecap="butt" stroke-linejoin="miter" clip-path="url(#clip-4)"/>
<path d="M 561.50 55.50 L 561.50 440.50 " fill="none" fill-opacity="0.00" stroke="#B0B0B0" stroke-opacity="1.00" stroke-width="0.80" stroke-linecap="butt" stroke-linejoin="miter" clip-path="url(#clip-5)"/>
<path d="M 662.50 55.50 L 662.50 440.50 " fill="none" fill-opacity="0.00" stroke="#B0B0B0" stroke-opacity="1.00" stroke-width="0.80" stroke-linecap="butt" stroke-linejoin="miter" clip-path="url(#clip-6)"/>
<path d="M 100.50 54.50 L 720.50 54.50 " fill="none" fill-opacity="0.00" stroke="#B0B0B0" stroke-opacity="1.00" stroke-width="0.80" stroke-linecap="butt" stroke-linejoin="miter" clip-path="url(#clip-7)"/>
<path d="M 100.50 135.50 L 720.50 135.50 " fill="none" fill-opacity="0.00" stroke="#B0B0B0" stroke-opacity="1.00" stroke-width="0.80" stroke-linecap="butt" stroke-linejoin="miter" clip-path="url(#clip-8)"/>
<path d="M 100.50 217.50 L 720.50 217.50 " fill="none" fill-opacity="0.00" stroke="#B0B0B0" stroke-opacity="1.00" stroke-width="0.80" stroke-linecap="butt" stroke-linejoin="miter" clip-path="url(#clip-9)"/>
<path d="M 100.50 298.50 L 720.50 298.50 " fill="none" fill-opacity="0.00" stroke="#B0B0B0" stroke-opacity="1.00" stroke-width="0.80" stroke-linecap="butt" stroke-linejoin="miter" clip-path="url(#clip-10)"/>
<path d="M 100.50 380.50 L 720.50 380.50 " fill="none" fill-opacity="0.00" stroke="#B0B0B0" stroke-opacity="1.00" stroke-width="0.80" stroke-linecap="butt" stroke-linejoin="miter" clip-path="url(#clip-11)"/>
<text font-family="DejaVu Sans" font-size="16.67" fill="#000000" fill-opacity="1.00" text-anchor="middle" transform="translate(410.00,449.33) scale(1,-1)">Programming Language Popularity</text>
<path d="M 158.50 55.50 L 158.50 50.50 " fill="none" fill-opacity="0.00" stroke="#000000" stroke-opacity="1.00" stroke-width="0.80" stroke-linecap="butt" stroke-linejoin="miter"/>
<text font-family="DejaVu Sans" font-size="13.89" fill="#000000" fill-opacity="1.00" text-anchor="middle" dominant-baseline="text-before-edge" transform="translate(158.38,45.28) scale(1,-1)">1</text>
<path d="M 259.50 55.50 L 259.50 50.50 " fill="none" fill-opacity="0.00" stroke="#000000" stroke-opacity="1.00" stroke-width="0.80" stroke-linecap="butt" stroke-linejoin="miter"/>
<text font-family="DejaVu Sans" font-size="13.89" fill="#000000" fill-opacity="1.00" text-anchor="middle" dominant-baseline="text-before-edge" transform="translate(259.03,45.28) scale(1,-1)">2</text>
<path d="M 360.50 55.50 L 360.50 50.50 " fill="none" fill-opacity="0.00" stroke="#000000" stroke-opacity="1.00" stroke-width="0.80" stroke-linecap="butt" stroke-linejoin="miter"/>
<text font-family="DejaVu Sans" font-size="13.89" fill="#000000" fill-opacity="1.00" text-anchor="middle" dominant-baseline="text-before-edge" transform="translate(359.68,45.28) scale(1,-1)">3</text>
<path d="M 460.50 55.50 L 460.50 50.50 " fill="none" fill-opacity="0.00" stroke="#000000" stroke-opacity="1.00" stroke-width="0.80" stroke-linecap="butt" stroke-linejoin="miter"/>
<text font-family="DejaVu Sans" font-size="13.89" fill="#000000" fill-opacity="1.00" text-anchor="middle" dominant-baseline="text-before-edge" transform="translate(460.32,45.28) scale(1,-1)">4</text>
<path d="M 561.50 55.50 L 561.50 50.50 " fill="none" fill-opacity="0.00" stroke="#000000" stroke-opacity="1.00" stroke-width="0.80" stroke-linecap="butt" stroke-linejoin="miter"/>
<text font-family="DejaVu Sans" font-size="13.89" fill="#000000" fill-opacity="1.00" text-anchor="middle" dominant-baseline="text-before-edge" transform="translate(560.97,45.28) scale(1,-1)">5</text>
<path d="M 662.50 55.50 L 662.50 50.50 " fill="none" fill-opacity="0.00" stroke="#000000" stroke-opacity="1.00" stroke-width="0.80" stroke-linecap="butt" stroke-linejoin="miter"/>
<text font-family="DejaVu Sans" font-size="13.89" fill="#000000" fill-opacity="1.00" text-anchor="middle" dominant-baseline="text-before-edge" transform="translate(661.62,45.28) scale(1,-1)">6</text>
<text font-family="DejaVu Sans" font-size="13.89" fill="#000000" fill-opacity="1.00" text-anchor="middle" dominant-baseline="text-before-edge" transform="translate(410.00,26.17) scale(1,-1)">Language</text>
<path d="M 100.50 54.50 L 95.50 54.50 " fill="none" fill-opacity="0.00" stroke="#000000" stroke-opacity="1.00" stroke-width="0.80" stroke-linecap="butt" stroke-linejoin="miter"/>
<text font-family="DejaVu Sans" font-size="13.89" fill="#000000" fill-opacity="1.00" text-anchor="end" dominant-baseline="central" transform="translate(90.28,55.00) scale(1,-1)">0</text>
<path d="M 100.50 135.50 L 95.50 135.50 " fill="none" fill-opacity="0.00" stroke="#000000" stroke-opacity="1.00" stroke-width="0.80" stroke-linecap="butt" stroke-linejoin="miter"/>
<text font-family="DejaVu Sans" font-size="13.89" fill="#000000" fill-opacity="1.00" text-anchor="end" dominant-baseline="central" transform="translate(90.28,136.48) scale(1,-1)">10</text>
<path d="M 100.50 217.50 L 95.50 217.50 " fill="none" fill-opacity="0.00" stroke="#000000" stroke-opacity="1.00" stroke-width="0.80" stroke-linecap="butt" stroke-linejoin="miter"/>
<text font-family="DejaVu Sans" font-size="13.89" fill="#000000" fill-opacity="1.00" text-anchor="end" dominant-baseline="central" transform="translate(90.28,217.96) scale(1,-1)">20</text>
<path d="M 100.50 298.50 L 95.50 298.50 " fill="none" fill-opacity="0.00" stroke="#000000" stroke-opacity="1.00" stroke-width="0.80" stroke-linecap="butt" stroke-linejoin="miter"/>
<text font-family="DejaVu Sans" font-size="13.89" fill="#000000" fill-opacity="1.00" text-anchor="end" dominant-baseline="central" transform="translate(90.28,299.44) scale(1,-1)">30</text>
<path d="M 100.50 380.50 L 95.50 380.50 " fill="none" fill-opacity="0.00" stroke="#000000" stroke-opacity="1.00" stroke-width="0.80" stroke-linecap="butt" stroke-linejoin="miter"/>
<text font-family="DejaVu Sans" font-size="13.89" fill="#000000" fill-opacity="1.00" text-anchor="end" dominant-baseline="central" transform="translate(90.28,380.93) scale(1,-1)">40</text>
<text font-family="DejaVu Sans" font-size="13.89" fill="#000000" fill-opacity="1.00" text-anchor="middle" transform="translate(60.57,247.50) rotate(-90.00) scale(1,-1)">Popularity</text>
<path d="M 100.50 55.50 L 100.50 440.50 " fill="none" fill-opacity="0.00" stroke="#000000" stroke-opacity="1.00" stroke-width="0.80" stroke-linecap="square" stroke-linejoin="miter"/>
<path d="M 720.50 55.50 L 720.50 440.50 " fill="none" fill-opacity="0.00" stroke="#000000" stroke-opacity="1.00" stroke-width="0.80" stroke-linecap="square" stroke-linejoin="miter"/>
<path d="M 100.50 54.50 L 720.50 54.50 " fill="none" fill-opacity="0.00" stroke="#000000" stroke-opacity="1.00" stroke-width="0.80" stroke-linecap="square" stroke-linejoin="miter"/>
<path d="M 100.50 439.50 L 720.50 439.50 " fill="none" fill-opacity="0.00" stroke="#000000" stroke-opacity="1.00" stroke-width="0.80" stroke-linecap="square" stroke-linejoin="miter"/>
</g>
</svg>
