<?xml version="1.0" encoding="UTF-8"?>
<svg xmlns="http://www.w3.org/2000/svg"
     xmlns:xlink="http://www.w3.org/1999/xlink"
     width="800" height="500" viewBox="0 0 800 500">
<defs>
<pattern id="hatch-1" patternUnits="userSpaceOnUse" width="100.00" height="100.00">
<path d="M 3.00 0.00 L 2.77 1.15 L 2.12 2.12 L 1.15 2.77 L 0.00 3.00 L -1.15 2.77 L -2.12 2.12 L -2.77 1.15 L -3.00 0.00 L -2.77 -1.15 L -2.12 -2.12 L -1.15 -2.77 L -0.00 -3.00 L 1.15 -2.77 L 2.12 -2.12 L 2.77 -1.15 Z M 3.33 0.00 L 3.08 1.28 L 2.36 2.36 L 1.28 3.08 L 0.00 3.33 L -1.28 3.08 L -2.36 2.36 L -3.08 1.28 L -3.33 0.00 L -3.08 -1.28 L -2.36 -2.36 L -1.28 -3.08 L -0.00 -3.33 L 1.28 -3.08 L 2.36 -2.36 L 3.08 -1.28 Z M 19.67 0.00 L 19.44 1.15 L 18.79 2.12 L 17.81 2.77 L 16.67 3.00 L 15.52 2.77 L 14.55 2.12 L 13.90 1.15 L 13.67 0.00 L 13.90 -1.15 L 14.55 -2.12 L 15.52 -2.77 L 16.67 -3.00 L 17.81 -2.77 L 18.79 -2.12 L 19.44 -1.15 Z M 20.00 0.00 L 19.75 1.28 L 19.02 2.36 L 17.94 3.08 L 16.67 3.33 L 15.39 3.08 L 14.31 2.36 L 13.59 1.28 L 13.33 0.00 L 13.59 -1.28 L 14.31 -2.36 L 15.39 -3.08 L 16.67 -3.33 L 17.94 -3.08 L 19.02 -2.36 L 19.75 -1.28 Z M 36.33 0.00 L 36.10 1.15 L 35.45 2.12 L 34.48 2.77 L 33.33 3.00 L 32.19 2.77 L 31.21 2.12 L 30.56 1.15 L 30.33 0.00 L 30.56 -1.15 L 31.21 -2.12 L 32.19 -2.77 L 33.33 -3.00 L 34.48 -2.77 L 35.45 -2.12 L 36.10 -1.15 Z M 36.67 0.00 L 36.41 1.28 L 35.69 2.36 L 34.61 3.08 L 33.33 3.33 L 32.06 3.08 L 30.98 2.36 L 30.25 1.28 L 30.00 0.00 L 30.25 -1.28 L 30.98 -2.36 L 32.06 -3.08 L 33.33 -3.33 L 34.61 -3.08 L 35.69 -2.36 L 36.41 -1.28 Z M 53.00 0.00 L 52.77 1.15 L 52.12 2.12 L 51.15 2.77 L 50.00 3.00 L 48.85 2.77 L 47.88 2.12 L 47.23 1.15 L 47.00 0.00 L 47.23 -1.15 L 47.88 -2.12 L 48.85 -2.77 L 50.00 -3.00 L 51.15 -2.77 L 52.12 -2.12 L 52.77 -1.15 Z M 53.33 0.00 L 53.08 1.28 L 52.36 2.36 L 51.28 3.08 L 50.00 3.33 L 48.72 3.08 L 47.64 2.36 L 46.92 1.28 L 46.67 0.00 L 46.92 -1.28 L 47.64 -2.36 L 48.72 -3.08 L 50.00 -3.33 L 51.28 -3.08 L 52.36 -2.36 L 53.08 -1.28 Z M 69.67 0.00 L 69.44 1.15 L 68.79 2.12 L 67.81 2.77 L 66.67 3.00 L 65.52 2.77 L 64.55 2.12 L 63.90 1.15 L 63.67 0.00 L 63.90 -1.15 L 64.55 -2.12 L 65.52 -2.77 L 66.67 -3.00 L 67.81 -2.77 L 68.79 -2.12 L 69.44 -1.15 Z M 70.00 0.00 L 69.75 1.28 L 69.02 2.36 L 67.94 3.08 L 66.67 3.33 L 65.39 3.08 L 64.31 2.36 L 63.59 1.28 L 63.33 0.00 L 63.59 -1.28 L 64.31 -2.36 L 65.39 -3.08 L 66.67 -3.33 L 67.94 -3.08 L 69.02 -2.36 L 69.75 -1.28 Z M 86.33 0.00 L 86.10 1.15 L 85.45 2.12 L 84.48 2.77 L 83.33 3.00 L 82.19 2.77 L 81.21 2.12 L 80.56 1.15 L 80.33 0.00 L 80.56 -1.15 L 81.21 -2.12 L 82.19 -2.77 L 83.33 -3.00 L 84.48 -2.77 L 85.45 -2.12 L 86.10 -1.15 Z M 86.67 0.00 L 86.41 1.28 L 85.69 2.36 L 84.61 3.08 L 83.33 3.33 L 82.06 3.08 L 80.98 2.36 L 80.25 1.28 L 80.00 0.00 L 80.25 -1.28 L 80.98 -2.36 L 82.06 -3.08 L 83.33 -3.33 L 84.61 -3.08 L 85.69 -2.36 L 86.41 -1.28 Z M 103.00 0.00 L 102.77 1.15 L 102.12 2.12 L 101.15 2.77 L 100.00 3.00 L 98.85 2.77 L 97.88 2.12 L 97.23 1.15 L 97.00 0.00 L 97.23 -1.15 L 97.88 -2.12 L 98.85 -2.77 L 100.00 -3.00 L 101.15 -2.77 L 102.12 -2.12 L 102.77 -1.15 Z M 103.33 0.00 L 103.08 1.28 L 102.36 2.36 L 101.28 3.08 L 100.00 3.33 L 98.72 3.08 L 97.64 2.36 L 96.92 1.28 L 96.67 0.00 L 96.92 -1.28 L 97.64 -2.36 L 98.72 -3.08 L 100.00 -3.33 L 101.28 -3.08 L 102.36 -2.36 L 103.08 -1.28 Z M 11.33 16.67 L 11.10 17.81 L 10.45 18.79 L 9.48 19.44 L 8.33 19.67 L 7.19 19.44 L 6.21 18.79 L 5.56 17.81 L 5.33 16.67 L 5.56 15.52 L 6.21 14.55 L 7.19 13.90 L 8.33 13.67 L 9.48 13.90 L 10.45 14.55 L 11.10 15.52 Z M 11.67 16.67 L 11.41 17.94 L 10.69 19.02 L 9.61 19.75 L 8.33 20.00 L 7.06 19.75 L 5.98 19.02 L 5.25 17.94 L 5.00 16.67 L 5.25 15.39 L 5.98 14.31 L 7.06 13.59 L 8.33 13.33 L 9.61 13.59 L 10.69 14.31 L 11.41 15.39 Z M 28.00 16.67 L 27.77 17.81 L 27.12 18.79 L 26.15 19.44 L 25.00 19.67 L 23.85 19.44 L 22.88 18.79 L 22.23 17.81 L 22.00 16.67 L 22.23 15.52 L 22.88 14.55 L 23.85 13.90 L 25.00 13.67 L 26.15 13.90 L 27.12 14.55 L 27.77 15.52 Z M 28.33 16.67 L 28.08 17.94 L 27.36 19.02 L 26.28 19.75 L 25.00 20.00 L 23.72 19.75 L 22.64 19.02 L 21.92 17.94 L 21.67 16.67 L 21.92 15.39 L 22.64 14.31 L 23.72 13.59 L 25.00 13.33 L 26.28 13.59 L 27.36 14.31 L 28.08 15.39 Z M 44.67 16.67 L 44.44 17.81 L 43.79 18.79 L 42.81 19.44 L 41.67 19.67 L 40.52 19.44 L 39.55 18.79 L 38.90 17.81 L 38.67 16.67 L 38.90 15.52 L 39.55 14.55 L 40.52 13.90 L 41.67 13.67 L 42.81 13.90 L 43.79 14.55 L 44.44 15.52 Z M 45.00 16.67 L 44.75 17.94 L 44.02 19.02 L 42.94 19.75 L 41.67 20.00 L 40.39 19.75 L 39.31 19.02 L 38.59 17.94 L 38.33 16.67 L 38.59 15.39 L 39.31 14.31 L 40.39 13.59 L 41.67 13.33 L 42.94 13.59 L 44.02 14.31 L 44.75 15.39 Z M 61.33 16.67 L 61.10 17.81 L 60.45 18.79 L 59.48 19.44 L 58.33 19.67 L 57.19 19.44 L 56.21 18.79 L 55.56 17.81 L 55.33 16.67 L 55.56 15.52 L 56.21 14.55 L 57.19 13.90 L 58.33 13.67 L 59.48 13.90 L 60.45 14.55 L 61.10 15.52 Z M 61.67 16.67 L 61.41 17.94 L 60.69 19.02 L 59.61 19.75 L 58.33 20.00 L 57.06 19.75 L 55.98 19.02 L 55.25 17.94 L 55.00 16.67 L 55.25 15.39 L 55.98 14.31 L 57.06 13.59 L 58.33 13.33 L 59.61 13.59 L 60.69 14.31 L 61.41 15.39 Z M 78.00 16.67 L 77.77 17.81 L 77.12 18.79 L 76.15 19.44 L 75.00 19.67 L 73.85 19.44 L 72.88 18.79 L 72.23 17.81 L 72.00 16.67 L 72.23 15.52 L 72.88 14.55 L 73.85 13.90 L 75.00 13.67 L 76.15 13.90 L 77.12 14.55 L 77.77 15.52 Z M 78.33 16.67 L 78.08 17.94 L 77.36 19.02 L 76.28 19.75 L 75.00 20.00 L 73.72 19.75 L 72.64 19.02 L 71.92 17.94 L 71.67 16.67 L 71.92 15.39 L 72.64 14.31 L 73.72 13.59 L 75.00 13.33 L 76.28 13.59 L 77.36 14.31 L 78.08 15.39 Z M 94.67 16.67 L 94.44 17.81 L 93.79 18.79 L 92.81 19.44 L 91.67 19.67 L 90.52 19.44 L 89.55 18.79 L 88.90 17.81 L 88.67 16.67 L 88.90 15.52 L 89.55 14.55 L 90.52 13.90 L 91.67 13.67 L 92.81 13.90 L 93.79 14.55 L 94.44 15.52 Z M 95.00 16.67 L 94.75 17.94 L 94.02 19.02 L 92.94 19.75 L 91.67 20.00 L 90.39 19.75 L 89.31 19.02 L 88.59 17.94 L 88.33 16.67 L 88.59 15.39 L 89.31 14.31 L 90.39 13.59 L 91.67 13.33 L 92.94 13.59 L 94.02 14.31 L 94.75 15.39 Z M 3.00 33.33 L 2.77 34.48 L 2.12 35.45 L 1.15 36.10 L 0.00 36.33 L -1.15 36.10 L -2.12 35.45 L -2.77 34.48 L -3.00 33.33 L -2.77 32.19 L -2.12 31.21 L -1.15 30.56 L -0.00 30.33 L 1.15 30.56 L 2.12 31.21 L 2.77 32.19 Z M 3.33 33.33 L 3.08 34.61 L 2.36 35.69 L 1.28 36.41 L 0.00 36.67 L -1.28 36.41 L -2.36 35.69 L -3.08 34.61 L -3.33 33.33 L -3.08 32.06 L -2.36 30.98 L -1.28 30.25 L -0.00 30.00 L 1.28 30.25 L 2.36 30.98 L 3.08 32.06 Z M 19.67 33.33 L 19.44 34.48 L 18.79 35.45 L 17.81 36.10 L 16.67 36.33 L 15.52 36.10 L 14.55 35.45 L 13.90 34.48 L 13.67 33.33 L 13.90 32.19 L 14.55 31.21 L 15.52 30.56 L 16.67 30.33 L 17.81 30.56 L 18.79 31.21 L 19.44 32.19 Z M 20.00 33.33 L 19.75 34.61 L 19.02 35.69 L 17.94 36.41 L 16.67 36.67 L 15.39 36.41 L 14.31 35.69 L 13.59 34.61 L 13.33 33.33 L 13.59 32.06 L 14.31 30.98 L 15.39 30.25 L 16.67 30.00 L 17.94 30.25 L 19.02 30.98 L 19.75 32.06 Z M 36.33 33.33 L 36.10 34.48 L 35.45 35.45 L 34.48 36.10 L 33.33 36.33 L 32.19 36.10 L 31.21 35.45 L 30.56 34.48 L 30.33 33.33 L 30.56 32.19 L 31.21 31.21 L 32.19 30.56 L 33.33 30.33 L 34.48 30.56 L 35.45 31.21 L 36.10 32.19 Z M 36.67 33.33 L 36.41 34.61 L 35.69 35.69 L 34.61 36.41 L 33.33 36.67 L 32.06 36.41 L 30.98 35.69 L 30.25 34.61 L 30.00 33.33 L 30.25 32.06 L 30.98 30.98 L 32.06 30.25 L 33.33 30.00 L 34.61 30.25 L 35.69 30.98 L 36.41 32.06 Z M 53.00 33.33 L 52.77 34.48 L 52.12 35.45 L 51.15 36.10 L 50.00 36.33 L 48.85 36.10 L 47.88 35.45 L 47.23 34.48 L 47.00 33.33 L 47.23 32.19 L 47.88 31.21 L 48.85 30.56 L 50.00 30.33 L 51.15 30.56 L 52.12 31.21 L 52.77 32.19 Z M 53.33 33.33 L 53.08 34.61 L 52.36 35.69 L 51.28 36.41 L 50.00 36.67 L 48.72 36.41 L 47.64 35.69 L 46.92 34.61 L 46.67 33.33 L 46.92 32.06 L 47.64 30.98 L 48.72 30.25 L 50.00 30.00 L 51.28 30.25 L 52.36 30.98 L 53.08 32.06 Z M 69.67 33.33 L 69.44 34.48 L 68.79 35.45 L 67.81 36.10 L 66.67 36.33 L 65.52 36.10 L 64.55 35.45 L 63.90 34.48 L 63.67 33.33 L 63.90 32.19 L 64.55 31.21 L 65.52 30.56 L 66.67 30.33 L 67.81 30.56 L 68.79 31.21 L 69.44 32.19 Z M 70.00 33.33 L 69.75 34.61 L 69.02 35.69 L 67.94 36.41 L 66.67 36.67 L 65.39 36.41 L 64.31 35.69 L 63.59 34.61 L 63.33 33.33 L 63.59 32.06 L 64.31 30.98 L 65.39 30.25 L 66.67 30.00 L 67.94 30.25 L 69.02 30.98 L 69.75 32.06 Z M 86.33 33.33 L 86.10 34.48 L 85.45 35.45 L 84.48 36.10 L 83.33 36.33 L 82.19 36.10 L 81.21 35.45 L 80.56 34.48 L 80.33 33.33 L 80.56 32.19 L 81.21 31.21 L 82.19 30.56 L 83.33 30.33 L 84.48 30.56 L 85.45 31.21 L 86.10 32.19 Z M 86.67 33.33 L 86.41 34.61 L 85.69 35.69 L 84.61 36.41 L 83.33 36.67 L 82.06 36.41 L 80.98 35.69 L 80.25 34.61 L 80.00 33.33 L 80.25 32.06 L 80.98 30.98 L 82.06 30.25 L 83.33 30.00 L 84.61 30.25 L 85.69 30.98 L 86.41 32.06 Z M 103.00 33.33 L 102.77 34.48 L 102.12 35.45 L 101.15 36.10 L 100.00 36.33 L 98.85 36.10 L 97.88 35.45 L 97.23 34.48 L 97.00 33.33 L 97.23 32.19 L 97.88 31.21 L 98.85 30.56 L 100.00 30.33 L 101.15 30.56 L 102.12 31.21 L 102.77 32.19 Z M 103.33 33.33 L 103.08 34.61 L 102.36 35.69 L 101.28 36.41 L 100.00 36.67 L 98.72 36.41 L 97.64 35.69 L 96.92 34.61 L 96.67 33.33 L 96.92 32.06 L 97.64 30.98 L 98.72 30.25 L 100.00 30.00 L 101.28 30.25 L 102.36 30.98 L 103.08 32.06 Z M 11.33 50.00 L 11.10 51.15 L 10.45 52.12 L 9.48 52.77 L 8.33 53.00 L 7.19 52.77 L 6.21 52.12 L 5.56 51.15 L 5.33 50.00 L 5.56 48.85 L 6.21 47.88 L 7.19 47.23 L 8.33 47.00 L 9.48 47.23 L 10.45 47.88 L 11.10 48.85 Z M 11.67 50.00 L 11.41 51.28 L 10.69 52.36 L 9.61 53.08 L 8.33 53.33 L 7.06 53.08 L 5.98 52.36 L 5.25 51.28 L 5.00 50.00 L 5.25 48.72 L 5.98 47.64 L 7.06 46.92 L 8.33 46.67 L 9.61 46.92 L 10.69 47.64 L 11.41 48.72 Z M 28.00 50.00 L 27.77 51.15 L 27.12 52.12 L 26.15 52.77 L 25.00 53.00 L 23.85 52.77 L 22.88 52.12 L 22.23 51.15 L 22.00 50.00 L 22.23 48.85 L 22.88 47.88 L 23.85 47.23 L 25.00 47.00 L 26.15 47.23 L 27.12 47.88 L 27.77 48.85 Z M 28.33 50.00 L 28.08 51.28 L 27.36 52.36 L 26.28 53.08 L 25.00 53.33 L 23.72 53.08 L 22.64 52.36 L 21.92 51.28 L 21.67 50.00 L 21.92 48.72 L 22.64 47.64 L 23.72 46.92 L 25.00 46.67 L 26.28 46.92 L 27.36 47.64 L 28.08 48.72 Z M 44.67 50.00 L 44.44 51.15 L 43.79 52.12 L 42.81 52.77 L 41.67 53.00 L 40.52 52.77 L 39.55 52.12 L 38.90 51.15 L 38.67 50.00 L 38.90 48.85 L 39.55 47.88 L 40.52 47.23 L 41.67 47.00 L 42.81 47.23 L 43.79 47.88 L 44.44 48.85 Z M 45.00 50.00 L 44.75 51.28 L 44.02 52.36 L 42.94 53.08 L 41.67 53.33 L 40.39 53.08 L 39.31 52.36 L 38.59 51.28 L 38.33 50.00 L 38.59 48.72 L 39.31 47.64 L 40.39 46.92 L 41.67 46.67 L 42.94 46.92 L 44.02 47.64 L 44.75 48.72 Z M 61.33 50.00 L 61.10 51.15 L 60.45 52.12 L 59.48 52.77 L 58.33 53.00 L 57.19 52.77 L 56.21 52.12 L 55.56 51.15 L 55.33 50.00 L 55.56 48.85 L 56.21 47.88 L 57.19 47.23 L 58.33 47.00 L 59.48 47.23 L 60.45 47.88 L 61.10 48.85 Z M 61.67 50.00 L 61.41 51.28 L 60.69 52.36 L 59.61 53.08 L 58.33 53.33 L 57.06 53.08 L 55.98 52.36 L 55.25 51.28 L 55.00 50.00 L 55.25 48.72 L 55.98 47.64 L 57.06 46.92 L 58.33 46.67 L 59.61 46.92 L 60.69 47.64 L 61.41 48.72 Z M 78.00 50.00 L 77.77 51.15 L 77.12 52.12 L 76.15 52.77 L 75.00 53.00 L 73.85 52.77 L 72.88 52.12 L 72.23 51.15 L 72.00 50.00 L 72.23 48.85 L 72.88 47.88 L 73.85 47.23 L 75.00 47.00 L 76.15 47.23 L 77.12 47.88 L 77.77 48.85 Z M 78.33 50.00 L 78.08 51.28 L 77.36 52.36 L 76.28 53.08 L 75.00 53.33 L 73.72 53.08 L 72.64 52.36 L 71.92 51.28 L 71.67 50.00 L 71.92 48.72 L 72.64 47.64 L 73.72 46.92 L 75.00 46.67 L 76.28 46.92 L 77.36 47.64 L 78.08 48.72 Z M 94.67 50.00 L 94.44 51.15 L 93.79 52.12 L 92.81 52.77 L 91.67 53.00 L 90.52 52.77 L 89.55 52.12 L 88.90 51.15 L 88.67 50.00 L 88.90 48.85 L 89.55 47.88 L 90.52 47.23 L 91.67 47.00 L 92.81 47.23 L 93.79 47.88 L 94.44 48.85 Z M 95.00 50.00 L 94.75 51.28 L 94.02 52.36 L 92.94 53.08 L 91.67 53.33 L 90.39 53.08 L 89.31 52.36 L 88.59 51.28 L 88.33 50.00 L 88.59 48.72 L 89.31 47.64 L 90.39 46.92 L 91.67 46.67 L 92.94 46.92 L 94.02 47.64 L 94.75 48.72 Z M 3.00 66.67 L 2.77 67.81 L 2.12 68.79 L 1.15 69.44 L 0.00 69.67 L -1.15 69.44 L -2.12 68.79 L -2.77 67.81 L -3.00 66.67 L -2.77 65.52 L -2.12 64.55 L -1.15 63.90 L -0.00 63.67 L 1.15 63.90 L 2.12 64.55 L 2.77 65.52 Z M 3.33 66.67 L 3.08 67.94 L 2.36 69.02 L 1.28 69.75 L 0.00 70.00 L -1.28 69.75 L -2.36 69.02 L -3.08 67.94 L -3.33 66.67 L -3.08 65.39 L -2.36 64.31 L -1.28 63.59 L -0.00 63.33 L 1.28 63.59 L 2.36 64.31 L 3.08 65.39 Z M 19.67 66.67 L 19.44 67.81 L 18.79 68.79 L 17.81 69.44 L 16.67 69.67 L 15.52 69.44 L 14.55 68.79 L 13.90 67.81 L 13.67 66.67 L 13.90 65.52 L 14.55 64.55 L 15.52 63.90 L 16.67 63.67 L 17.81 63.90 L 18.79 64.55 L 19.44 65.52 Z M 20.00 66.67 L 19.75 67.94 L 19.02 69.02 L 17.94 69.75 L 16.67 70.00 L 15.39 69.75 L 14.31 69.02 L 13.59 67.94 L 13.33 66.67 L 13.59 65.39 L 14.31 64.31 L 15.39 63.59 L 16.67 63.33 L 17.94 63.59 L 19.02 64.31 L 19.75 65.39 Z M 36.33 66.67 L 36.10 67.81 L 35.45 68.79 L 34.48 69.44 L 33.33 69.67 L 32.19 69.44 L 31.21 68.79 L 30.56 67.81 L 30.33 66.67 L 30.56 65.52 L 31.21 64.55 L 32.19 63.90 L 33.33 63.67 L 34.48 63.90 L 35.45 64.55 L 36.10 65.52 Z M 36.67 66.67 L 36.41 67.94 L 35.69 69.02 L 34.61 69.75 L 33.33 70.00 L 32.06 69.75 L 30.98 69.02 L 30.25 67.94 L 30.00 66.67 L 30.25 65.39 L 30.98 64.31 L 32.06 63.59 L 33.33 63.33 L 34.61 63.59 L 35.69 64.31 L 36.41 65.39 Z M 53.00 66.67 L 52.77 67.81 L 52.12 68.79 L 51.15 69.44 L 50.00 69.67 L 48.85 69.44 L 47.88 68.79 L 47.23 67.81 L 47.00 66.67 L 47.23 65.52 L 47.88 64.55 L 48.85 63.90 L 50.00 63.67 L 51.15 63.90 L 52.12 64.55 L 52.77 65.52 Z M 53.33 66.67 L 53.08 67.94 L 52.36 69.02 L 51.28 69.75 L 50.00 70.00 L 48.72 69.75 L 47.64 69.02 L 46.92 67.94 L 46.67 66.67 L 46.92 65.39 L 47.64 64.31 L 48.72 63.59 L 50.00 63.33 L 51.28 63.59 L 52.36 64.31 L 53.08 65.39 Z M 69.67 66.67 L 69.44 67.81 L 68.79 68.79 L 67.81 69.44 L 66.67 69.67 L 65.52 69.44 L 64.55 68.79 L 63.90 67.81 L 63.67 66.67 L 63.90 65.52 L 64.55 64.55 L 65.52 63.90 L 66.67 63.67 L 67.81 63.90 L 68.79 64.55 L 69.44 65.52 Z M 70.00 66.67 L 69.75 67.94 L 69.02 69.02 L 67.94 69.75 L 66.67 70.00 L 65.39 69.75 L 64.31 69.02 L 63.59 67.94 L 63.33 66.67 L 63.59 65.39 L 64.31 64.31 L 65.39 63.59 L 66.67 63.33 L 67.94 63.59 L 69.02 64.31 L 69.75 65.39 Z M 86.33 66.67 L 86.10 67.81 L 85.45 68.79 L 84.48 69.44 L 83.33 69.67 L 82.19 69.44 L 81.21 68.79 L 80.56 67.81 L 80.33 66.67 L 80.56 65.52 L 81.21 64.55 L 82.19 63.90 L 83.33 63.67 L 84.48 63.90 L 85.45 64.55 L 86.10 65.52 Z M 86.67 66.67 L 86.41 67.94 L 85.69 69.02 L 84.61 69.75 L 83.33 70.00 L 82.06 69.75 L 80.98 69.02 L 80.25 67.94 L 80.00 66.67 L 80.25 65.39 L 80.98 64.31 L 82.06 63.59 L 83.33 63.33 L 84.61 63.59 L 85.69 64.31 L 86.41 65.39 Z M 103.00 66.67 L 102.77 67.81 L 102.12 68.79 L 101.15 69.44 L 100.00 69.67 L 98.85 69.44 L 97.88 68.79 L 97.23 67.81 L 97.00 66.67 L 97.23 65.52 L 97.88 64.55 L 98.85 63.90 L 100.00 63.67 L 101.15 63.90 L 102.12 64.55 L 102.77 65.52 Z M 103.33 66.67 L 103.08 67.94 L 102.36 69.02 L 101.28 69.75 L 100.00 70.00 L 98.72 69.75 L 97.64 69.02 L 96.92 67.94 L 96.67 66.67 L 96.92 65.39 L 97.64 64.31 L 98.72 63.59 L 100.00 63.33 L 101.28 63.59 L 102.36 64.31 L 103.08 65.39 Z M 11.33 83.33 L 11.10 84.48 L 10.45 85.45 L 9.48 86.10 L 8.33 86.33 L 7.19 86.10 L 6.21 85.45 L 5.56 84.48 L 5.33 83.33 L 5.56 82.19 L 6.21 81.21 L 7.19 80.56 L 8.33 80.33 L 9.48 80.56 L 10.45 81.21 L 11.10 82.19 Z M 11.67 83.33 L 11.41 84.61 L 10.69 85.69 L 9.61 86.41 L 8.33 86.67 L 7.06 86.41 L 5.98 85.69 L 5.25 84.61 L 5.00 83.33 L 5.25 82.06 L 5.98 80.98 L 7.06 80.25 L 8.33 80.00 L 9.61 80.25 L 10.69 80.98 L 11.41 82.06 Z M 28.00 83.33 L 27.77 84.48 L 27.12 85.45 L 26.15 86.10 L 25.00 86.33 L 23.85 86.10 L 22.88 85.45 L 22.23 84.48 L 22.00 83.33 L 22.23 82.19 L 22.88 81.21 L 23.85 80.56 L 25.00 80.33 L 26.15 80.56 L 27.12 81.21 L 27.77 82.19 Z M 28.33 83.33 L 28.08 84.61 L 27.36 85.69 L 26.28 86.41 L 25.00 86.67 L 23.72 86.41 L 22.64 85.69 L 21.92 84.61 L 21.67 83.33 L 21.92 82.06 L 22.64 80.98 L 23.72 80.25 L 25.00 80.00 L 26.28 80.25 L 27.36 80.98 L 28.08 82.06 Z M 44.67 83.33 L 44.44 84.48 L 43.79 85.45 L 42.81 86.10 L 41.67 86.33 L 40.52 86.10 L 39.55 85.45 L 38.90 84.48 L 38.67 83.33 L 38.90 82.19 L 39.55 81.21 L 40.52 80.56 L 41.67 80.33 L 42.81 80.56 L 43.79 81.21 L 44.44 82.19 Z M 45.00 83.33 L 44.75 84.61 L 44.02 85.69 L 42.94 86.41 L 41.67 86.67 L 40.39 86.41 L 39.31 85.69 L 38.59 84.61 L 38.33 83.33 L 38.59 82.06 L 39.31 80.98 L 40.39 80.25 L 41.67 80.00 L 42.94 80.25 L 44.02 80.98 L 44.75 82.06 Z M 61.33 83.33 L 61.10 84.48 L 60.45 85.45 L 59.48 86.10 L 58.33 86.33 L 57.19 86.10 L 56.21 85.45 L 55.56 84.48 L 55.33 83.33 L 55.56 82.19 L 56.21 81.21 L 57.19 80.56 L 58.33 80.33 L 59.48 80.56 L 60.45 81.21 L 61.10 82.19 Z M 61.67 83.33 L 61.41 84.61 L 60.69 85.69 L 59.61 86.41 L 58.33 86.67 L 57.06 86.41 L 55.98 85.69 L 55.25 84.61 L 55.00 83.33 L 55.25 82.06 L 55.98 80.98 L 57.06 80.25 L 58.33 80.00 L 59.61 80.25 L 60.69 80.98 L 61.41 82.06 Z M 78.00 83.33 L 77.77 84.48 L 77.12 85.45 L 76.15 86.10 L 75.00 86.33 L 73.85 86.10 L 72.88 85.45 L 72.23 84.48 L 72.00 83.33 L 72.23 82.19 L 72.88 81.21 L 73.85 80.56 L 75.00 80.33 L 76.15 80.56 L 77.12 81.21 L 77.77 82.19 Z M 78.33 83.33 L 78.08 84.61 L 77.36 85.69 L 76.28 86.41 L 75.00 86.67 L 73.72 86.41 L 72.64 85.69 L 71.92 84.61 L 71.67 83.33 L 71.92 82.06 L 72.64 80.98 L 73.72 80.25 L 75.00 80.00 L 76.28 80.25 L 77.36 80.98 L 78.08 82.06 Z M 94.67 83.33 L 94.44 84.48 L 93.79 85.45 L 92.81 86.10 L 91.67 86.33 L 90.52 86.10 L 89.55 85.45 L 88.90 84.48 L 88.67 83.33 L 88.90 82.19 L 89.55 81.21 L 90.52 80.56 L 91.67 80.33 L 92.81 80.56 L 93.79 81.21 L 94.44 82.19 Z M 95.00 83.33 L 94.75 84.61 L 94.02 85.69 L 92.94 86.41 L 91.67 86.67 L 90.39 86.41 L 89.31 85.69 L 88.59 84.61 L 88.33 83.33 L 88.59 82.06 L 89.31 80.98 L 90.39 80.25 L 91.67 80.00 L 92.94 80.25 L 94.02 80.98 L 94.75 82.06 Z M 3.00 100.00 L 2.77 101.15 L 2.12 102.12 L 1.15 102.77 L 0.00 103.00 L -1.15 102.77 L -2.12 102.12 L -2.77 101.15 L -3.00 100.00 L -2.77 98.85 L -2.12 97.88 L -1.15 97.23 L -0.00 97.00 L 1.15 97.23 L 2.12 97.88 L 2.77 98.85 Z M 3.33 100.00 L 3.08 101.28 L 2.36 102.36 L 1.28 103.08 L 0.00 103.33 L -1.28 103.08 L -2.36 102.36 L -3.08 101.28 L -3.33 100.00 L -3.08 98.72 L -2.36 97.64 L -1.28 96.92 L -0.00 96.67 L 1.28 96.92 L 2.36 97.64 L 3.08 98.72 Z M 19.67 100.00 L 19.44 101.15 L 18.79 102.12 L 17.81 102.77 L 16.67 103.00 L 15.52 102.77 L 14.55 102.12 L 13.90 101.15 L 13.67 100.00 L 13.90 98.85 L 14.55 97.88 L 15.52 97.23 L 16.67 97.00 L 17.81 97.23 L 18.79 97.88 L 19.44 98.85 Z M 20.00 100.00 L 19.75 101.28 L 19.02 102.36 L 17.94 103.08 L 16.67 103.33 L 15.39 103.08 L 14.31 102.36 L 13.59 101.28 L 13.33 100.00 L 13.59 98.72 L 14.31 97.64 L 15.39 96.92 L 16.67 96.67 L 17.94 96.92 L 19.02 97.64 L 19.75 98.72 Z M 36.33 100.00 L 36.10 101.15 L 35.45 102.12 L 34.48 102.77 L 33.33 103.00 L 32.19 102.77 L 31.21 102.12 L 30.56 101.15 L 30.33 100.00 L 30.56 98.85 L 31.21 97.88 L 32.19 97.23 L 33.33 97.00 L 34.48 97.23 L 35.45 97.88 L 36.10 98.85 Z M 36.67 100.00 L 36.41 101.28 L 35.69 102.36 L 34.61 103.08 L 33.33 103.33 L 32.06 103.08 L 30.98 102.36 L 30.25 101.28 L 30.00 100.00 L 30.25 98.72 L 30.98 97.64 L 32.06 96.92 L 33.33 96.67 L 34.61 96.92 L 35.69 97.64 L 36.41 98.72 Z M 53.00 100.00 L 52.77 101.15 L 52.12 102.12 L 51.15 102.77 L 50.00 103.00 L 48.85 102.77 L 47.88 102.12 L 47.23 101.15 L 47.00 100.00 L 47.23 98.85 L 47.88 97.88 L 48.85 97.23 L 50.00 97.00 L 51.15 97.23 L 52.12 97.88 L 52.77 98.85 Z M 53.33 100.00 L 53.08 101.28 L 52.36 102.36 L 51.28 103.08 L 50.00 103.33 L 48.72 103.08 L 47.64 102.36 L 46.92 101.28 L 46.67 100.00 L 46.92 98.72 L 47.64 97.64 L 48.72 96.92 L 50.00 96.67 L 51.28 96.92 L 52.36 97.64 L 53.08 98.72 Z M 69.67 100.00 L 69.44 101.15 L 68.79 102.12 L 67.81 102.77 L 66.67 103.00 L 65.52 102.77 L 64.55 102.12 L 63.90 101.15 L 63.67 100.00 L 63.90 98.85 L 64.55 97.88 L 65.52 97.23 L 66.67 97.00 L 67.81 97.23 L 68.79 97.88 L 69.44 98.85 Z M 70.00 100.00 L 69.75 101.28 L 69.02 102.36 L 67.94 103.08 L 66.67 103.33 L 65.39 103.08 L 64.31 102.36 L 63.59 101.28 L 63.33 100.00 L 63.59 98.72 L 64.31 97.64 L 65.39 96.92 L 66.67 96.67 L 67.94 96.92 L 69.02 97.64 L 69.75 98.72 Z M 86.33 100.00 L 86.10 101.15 L 85.45 102.12 L 84.48 102.77 L 83.33 103.00 L 82.19 102.77 L 81.21 102.12 L 80.56 101.15 L 80.33 100.00 L 80.56 98.85 L 81.21 97.88 L 82.19 97.23 L 83.33 97.00 L 84.48 97.23 L 85.45 97.88 L 86.10 98.85 Z M 86.67 100.00 L 86.41 101.28 L 85.69 102.36 L 84.61 103.08 L 83.33 103.33 L 82.06 103.08 L 80.98 102.36 L 80.25 101.28 L 80.00 100.00 L 80.25 98.72 L 80.98 97.64 L 82.06 96.92 L 83.33 96.67 L 84.61 96.92 L 85.69 97.64 L 86.41 98.72 Z M 103.00 100.00 L 102.77 101.15 L 102.12 102.12 L 101.15 102.77 L 100.00 103.00 L 98.85 102.77 L 97.88 102.12 L 97.23 101.15 L 97.00 100.00 L 97.23 98.85 L 97.88 97.88 L 98.85 97.23 L 100.00 97.00 L 101.15 97.23 L 102.12 97.88 L 102.77 98.85 Z M 103.33 100.00 L 103.08 101.28 L 102.36 102.36 L 101.28 103.08 L 100.00 103.33 L 98.72 103.08 L 97.64 102.36 L 96.92 101.28 L 96.67 100.00 L 96.92 98.72 L 97.64 97.64 L 98.72 96.92 L 100.00 96.67 L 101.28 96.92 L 102.36 97.64 L 103.08 98.72 Z " fill="none" stroke="#000000" stroke-opacity="1.00" stroke-width="1.0"/>
</pattern>
<pattern id="hatch-2" patternUnits="userSpaceOnUse" width="100.00" height="100.00">
<path d="M -50.00 50.00 L 50.00 150.00 M -33.33 33.33 L 66.67 133.33 M -16.67 16.67 L 83.33 116.67 M 0.00 0.00 L 100.00 100.00 M 16.67 -16.67 L 116.67 83.33 M 33.33 -33.33 L 133.33 66.67 M 50.00 -50.00 L 150.00 50.00 M -50.00 50.00 L 50.00 -50.00 M -33.33 66.67 L 66.67 -33.33 M -16.67 83.33 L 83.33 -16.67 M 0.00 100.00 L 100.00 0.00 M 16.67 116.67 L 116.67 16.67 M 33.33 133.33 L 133.33 33.33 M 50.00 150.00 L 150.00 50.00 " fill="none" stroke="#000000" stroke-opacity="1.00" stroke-width="1.0"/>
</pattern>
<pattern id="hatch-3" patternUnits="userSpaceOnUse" width="100.00" height="100.00">
<path d="M -50.00 50.00 L 50.00 -50.00 M -33.33 66.67 L 66.67 -33.33 M -16.67 83.33 L 83.33 -16.67 M 0.00 100.00 L 100.00 0.00 M 16.67 116.67 L 116.67 16.67 M 33.33 133.33 L 133.33 33.33 M 50.00 150.00 L 150.00 50.00 " fill="none" stroke="#000000" stroke-opacity="1.00" stroke-width="1.0"/>
</pattern>
<pattern id="hatch-4" patternUnits="userSpaceOnUse" width="100.00" height="100.00">
<path d="M -50.00 50.00 L 50.00 150.00 M -33.33 33.33 L 66.67 133.33 M -16.67 16.67 L 83.33 116.67 M 0.00 0.00 L 100.00 100.00 M 16.67 -16.67 L 116.67 83.33 M 33.33 -33.33 L 133.33 66.67 M 50.00 -50.00 L 150.00 50.00 " fill="none" stroke="#000000" stroke-opacity="1.00" stroke-width="1.0"/>
</pattern>
</defs>
<g transform="translate(0,500) scale(1,-1)">
<rect width="800" height="500" fill="white"/>
<path d="M 0.00 0.00 L 800.00 0.00 L 800.00 500.00 L 0.00 500.00 L 0.00 0.00 Z " fill="#FFFFFF" fill-opacity="1.00" stroke="#000000" stroke-opacity="1.00" stroke-width="0.00" stroke-linecap="butt" stroke-linejoin="miter"/>
<path d="M 100.00 55.00 L 720.00 55.00 L 720.00 440.00 L 100.00 440.00 L 100.00 55.00 Z " fill="#FFFFFF" fill-opacity="1.00" stroke="none" stroke-opacity="0.00" stroke-width="0.00" stroke-linecap="butt" stroke-linejoin="miter"/>
<path d="M 573.16 55.00 L 691.82 55.00 L 691.82 385.60 L 573.16 385.60 L 573.16 55.00 Z " fill="#C44E52" fill-opacity="1.00" stroke="#000000" stroke-opacity="1.00" stroke-width="0.80" stroke-linecap="butt" stroke-linejoin="miter"/>
<path d="M 573.16 55.00 L 691.82 55.00 L 691.82 385.60 L 573.16 385.60 L 573.16 55.00 Z " fill="url(#hatch-1)" fill-opacity="1.0" stroke="none" stroke-opacity="0.00"/>
<path d="M 424.83 55.00 L 543.49 55.00 L 543.49 283.42 L 424.83 283.42 L 424.83 55.00 Z " fill="#55A868" fill-opacity="1.00" stroke="#000000" stroke-opacity="1.00" stroke-width="0.80" stroke-linecap="butt" stroke-linejoin="miter"/>
<path d="M 424.83 55.00 L 543.49 55.00 L 543.49 283.42 L 424.83 283.42 L 424.83 55.00 Z " fill="url(#hatch-2)" fill-opacity="1.0" stroke="none" stroke-opacity="0.00"/>
<path d="M 276.51 55.00 L 395.17 55.00 L 395.17 421.67 L 276.51 421.67 L 276.51 55.00 Z " fill="#DD8452" fill-opacity="1.00" stroke="#000000" stroke-opacity="1.00" stroke-width="0.80" stroke-linecap="butt" stroke-linejoin="miter"/>
<path d="M 276.51 55.00 L 395.17 55.00 L 395.17 421.67 L 276.51 421.67 L 276.51 55.00 Z " fill="url(#hatch-3)" fill-opacity="1.0" stroke="none" stroke-opacity="0.00"/>
<path d="M 128.18 55.00 L 246.84 55.00 L 246.84 307.46 L 128.18 307.46 L 128.18 55.00 Z " fill="#4C72B0" fill-opacity="1.00" stroke="#000000" stroke-opacity="1.00" stroke-width="0.80" stroke-linecap="butt" stroke-linejoin="miter"/>
<path d="M 128.18 55.00 L 246.84 55.00 L 246.84 307.46 L 128.18 307.46 L 128.18 55.00 Z " fill="url(#hatch-4)" fill-opacity="1.0" stroke="none" stroke-opacity="0.00"/>
<text font-family="DejaVu Sans" font-size="16.67" fill="#000000" fill-opacity="1.00" text-anchor="middle" transform="translate(410.00,449.33) scale(1,-1)">Bar Chart with Hatch Patterns</text>
<path d="M 188.50 55.50 L 188.50 50.50 " fill="none" fill-opacity="0.00" stroke="#000000" stroke-opacity="1.00" stroke-width="0.80" stroke-linecap="butt" stroke-linejoin="miter"/>
<text font-family="DejaVu Sans" font-size="13.89" fill="#000000" fill-opacity="1.00" text-anchor="middle" dominant-baseline="text-before-edge" transform="translate(187.51,45.28) scale(1,-1)">A</text>
<path d="M 336.50 55.50 L 336.50 50.50 " fill="none" fill-opacity="0.00" stroke="#000000" stroke-opacity="1.00" stroke-width="0.80" stroke-linecap="butt" stroke-linejoin="miter"/>
<text font-family="DejaVu Sans" font-size="13.89" fill="#000000" fill-opacity="1.00" text-anchor="middle" dominant-baseline="text-before-edge" transform="translate(335.84,45.28) scale(1,-1)">B</text>
<path d="M 484.50 55.50 L 484.50 50.50 " fill="none" fill-opacity="0.00" stroke="#000000" stroke-opacity="1.00" stroke-width="0.80" stroke-linecap="butt" stroke-linejoin="miter"/>
<text font-family="DejaVu Sans" font-size="13.89" fill="#000000" fill-opacity="1.00" text-anchor="middle" dominant-baseline="text-before-edge" transform="translate(484.16,45.28) scale(1,-1)">C</text>
<path d="M 632.50 55.50 L 632.50 50.50 " fill="none" fill-opacity="0.00" stroke="#000000" stroke-opacity="1.00" stroke-width="0.80" stroke-linecap="butt" stroke-linejoin="miter"/>
<text font-family="DejaVu Sans" font-size="13.89" fill="#000000" fill-opacity="1.00" text-anchor="middle" dominant-baseline="text-before-edge" transform="translate(632.49,45.28) scale(1,-1)">D</text>
<text font-family="DejaVu Sans" font-size="13.89" fill="#000000" fill-opacity="1.00" text-anchor="middle" dominant-baseline="text-before-edge" transform="translate(410.00,26.17) scale(1,-1)">Category</text>
<path d="M 100.50 54.50 L 95.50 54.50 " fill="none" fill-opacity="0.00" stroke="#000000" stroke-opacity="1.00" stroke-width="0.80" stroke-linecap="butt" stroke-linejoin="miter"/>
<text font-family="DejaVu Sans" font-size="13.89" fill="#000000" fill-opacity="1.00" text-anchor="end" dominant-baseline="central" transform="translate(90.28,55.00) scale(1,-1)">0</text>
<path d="M 100.50 114.50 L 95.50 114.50 " fill="none" fill-opacity="0.00" stroke="#000000" stroke-opacity="1.00" stroke-width="0.80" stroke-linecap="butt" stroke-linejoin="miter"/>
<text font-family="DejaVu Sans" font-size="13.89" fill="#000000" fill-opacity="1.00" text-anchor="end" dominant-baseline="central" transform="translate(90.28,115.11) scale(1,-1)">1</text>
<path d="M 100.50 174.50 L 95.50 174.50 " fill="none" fill-opacity="0.00" stroke="#000000" stroke-opacity="1.00" stroke-width="0.80" stroke-linecap="butt" stroke-linejoin="miter"/>
<text font-family="DejaVu Sans" font-size="13.89" fill="#000000" fill-opacity="1.00" text-anchor="end" dominant-baseline="central" transform="translate(90.28,175.22) scale(1,-1)">2</text>
<path d="M 100.50 234.50 L 95.50 234.50 " fill="none" fill-opacity="0.00" stroke="#000000" stroke-opacity="1.00" stroke-width="0.80" stroke-linecap="butt" stroke-linejoin="miter"/>
<text font-family="DejaVu Sans" font-size="13.89" fill="#000000" fill-opacity="1.00" text-anchor="end" dominant-baseline="central" transform="translate(90.28,235.33) scale(1,-1)">3</text>
<path d="M 100.50 294.50 L 95.50 294.50 " fill="none" fill-opacity="0.00" stroke="#000000" stroke-opacity="1.00" stroke-width="0.80" stroke-linecap="butt" stroke-linejoin="miter"/>
<text font-family="DejaVu Sans" font-size="13.89" fill="#000000" fill-opacity="1.00" text-anchor="end" dominant-baseline="central" transform="translate(90.28,295.44) scale(1,-1)">4</text>
<path d="M 100.50 355.50 L 95.50 355.50 " fill="none" fill-opacity="0.00" stroke="#000000" stroke-opacity="1.00" stroke-width="0.80" stroke-linecap="butt" stroke-linejoin="miter"/>
<text font-family="DejaVu Sans" font-size="13.89" fill="#000000" fill-opacity="1.00" text-anchor="end" dominant-baseline="central" transform="translate(90.28,355.55) scale(1,-1)">5</text>
<path d="M 100.50 415.50 L 95.50 415.50 " fill="none" fill-opacity="0.00" stroke="#000000" stroke-opacity="1.00" stroke-width="0.80" stroke-linecap="butt" stroke-linejoin="miter"/>
<text font-family="DejaVu Sans" font-size="13.89" fill="#000000" fill-opacity="1.00" text-anchor="end" dominant-baseline="central" transform="translate(90.28,415.66) scale(1,-1)">6</text>
<text font-family="DejaVu Sans" font-size="13.89" fill="#000000" fill-opacity="1.00" text-anchor="middle" transform="translate(69.26,247.50) rotate(90.00) scale(1,-1)">Value</text>
<path d="M 100.50 55.50 L 100.50 440.50 " fill="none" fill-opacity="0.00" stroke="#000000" stroke-opacity="1.00" stroke-width="0.80" stroke-linecap="square" stroke-linejoin="miter"/>
<path d="M 720.50 55.50 L 720.50 440.50 " fill="none" fill-opacity="0.00" stroke="#000000" stroke-opacity="1.00" stroke-width="0.80" stroke-linecap="square" stroke-linejoin="miter"/>
<path d="M 100.50 54.50 L 720.50 54.50 " fill="none" fill-opacity="0.00" stroke="#000000" stroke-opacity="1.00" stroke-width="0.80" stroke-linecap="square" stroke-linejoin="miter"/>
<path d="M 100.50 439.50 L 720.50 439.50 " fill="none" fill-opacity="0.00" stroke="#000000" stroke-opacity="1.00" stroke-width="0.80" stroke-linecap="square" stroke-linejoin="miter"/>
</g>
</svg>
