<?xml version="1.0" encoding="UTF-8"?>
<svg xmlns="http://www.w3.org/2000/svg"
     xmlns:xlink="http://www.w3.org/1999/xlink"
     width="800" height="500" viewBox="0 0 800 500">
<defs>
</defs>
<g transform="translate(0,500) scale(1,-1)">
<rect width="800" height="500" fill="white"/>
<path d="M 0.00 0.00 L 800.00 0.00 L 800.00 500.00 L 0.00 500.00 L 0.00 0.00 Z " fill="#FFFFFF" fill-opacity="1.00" stroke="#000000" stroke-opacity="1.00" stroke-width="0.00" stroke-linecap="butt" stroke-linejoin="miter"/>
<path d="M 100.00 55.00 L 720.00 55.00 L 720.00 440.00 L 100.00 440.00 L 100.00 55.00 Z " fill="#FFFFFF" fill-opacity="1.00" stroke="none" stroke-opacity="0.00" stroke-width="0.00" stroke-linecap="butt" stroke-linejoin="miter"/>
<path d="M 691.82 348.18 C 692.83 348.18 693.79 348.58 694.51 349.30 C 695.22 350.01 695.62 350.98 695.62 351.99 C 695.62 352.99 695.22 353.96 694.51 354.67 C 693.79 355.39 692.83 355.79 691.82 355.79 C 690.81 355.79 689.84 355.39 689.13 354.67 C 688.42 353.96 688.01 352.99 688.01 351.99 C 688.01 350.98 688.42 350.01 689.13 349.30 C 689.84 348.58 690.81 348.18 691.82 348.18 Z " fill="#1F77B4" fill-opacity="0.60" stroke="none" stroke-opacity="0.00" stroke-width="0.00" stroke-linecap="butt" stroke-linejoin="round"/>
<path d="M 691.82 344.53 C 692.83 344.53 693.79 344.93 694.51 345.64 C 695.22 346.35 695.62 347.32 695.62 348.33 C 695.62 349.34 695.22 350.31 694.51 351.02 C 693.79 351.73 692.83 352.13 691.82 352.13 C 690.81 352.13 689.84 351.73 689.13 351.02 C 688.42 350.31 688.01 349.34 688.01 348.33 C 688.01 347.32 688.42 346.35 689.13 345.64 C 689.84 344.93 690.81 344.53 691.82 344.53 Z " fill="#1F77B4" fill-opacity="0.60" stroke="none" stroke-opacity="0.00" stroke-width="0.00" stroke-linecap="butt" stroke-linejoin="round"/>
<path d="M 691.82 358.61 C 692.83 358.61 693.79 359.01 694.51 359.73 C 695.22 360.44 695.62 361.41 695.62 362.41 C 695.62 363.42 695.22 364.39 694.51 365.10 C 693.79 365.82 692.83 366.22 691.82 366.22 C 690.81 366.22 689.84 365.82 689.13 365.10 C 688.42 364.39 688.01 363.42 688.01 362.41 C 688.01 361.41 688.42 360.44 689.13 359.73 C 689.84 359.01 690.81 358.61 691.82 358.61 Z " fill="#1F77B4" fill-opacity="0.60" stroke="none" stroke-opacity="0.00" stroke-width="0.00" stroke-linecap="butt" stroke-linejoin="round"/>
<path d="M 691.82 377.90 C 692.83 377.90 693.79 378.30 694.51 379.01 C 695.22 379.72 695.62 380.69 695.62 381.70 C 695.62 382.71 695.22 383.68 694.51 384.39 C 693.79 385.10 692.83 385.50 691.82 385.50 C 690.81 385.50 689.84 385.10 689.13 384.39 C 688.42 383.68 688.01 382.71 688.01 381.70 C 688.01 380.69 688.42 379.72 689.13 379.01 C 689.84 378.30 690.81 377.90 691.82 377.90 Z " fill="#1F77B4" fill-opacity="0.60" stroke="none" stroke-opacity="0.00" stroke-width="0.00" stroke-linecap="butt" stroke-linejoin="round"/>
<path d="M 691.82 358.82 C 692.83 358.82 693.79 359.22 694.51 359.93 C 695.22 360.64 695.62 361.61 695.62 362.62 C 695.62 363.63 695.22 364.60 694.51 365.31 C 693.79 366.02 692.83 366.42 691.82 366.42 C 690.81 366.42 689.84 366.02 689.13 365.31 C 688.42 364.60 688.01 363.63 688.01 362.62 C 688.01 361.61 688.42 360.64 689.13 359.93 C 689.84 359.22 690.81 358.82 691.82 358.82 Z " fill="#1F77B4" fill-opacity="0.60" stroke="none" stroke-opacity="0.00" stroke-width="0.00" stroke-linecap="butt" stroke-linejoin="round"/>
<path d="M 691.82 363.57 C 692.83 363.57 693.79 363.97 694.51 364.69 C 695.22 365.40 695.62 366.37 695.62 367.38 C 695.62 368.38 695.22 369.35 694.51 370.06 C 693.79 370.78 692.83 371.18 691.82 371.18 C 690.81 371.18 689.84 370.78 689.13 370.06 C 688.42 369.35 688.01 368.38 688.01 367.38 C 688.01 366.37 688.42 365.40 689.13 364.69 C 689.84 363.97 690.81 363.57 691.82 363.57 Z " fill="#1F77B4" fill-opacity="0.60" stroke="none" stroke-opacity="0.00" stroke-width="0.00" stroke-linecap="butt" stroke-linejoin="round"/>
<path d="M 691.82 366.41 C 692.83 366.41 693.79 366.81 694.51 367.52 C 695.22 368.24 695.62 369.20 695.62 370.21 C 695.62 371.22 695.22 372.19 694.51 372.90 C 693.79 373.61 692.83 374.02 691.82 374.02 C 690.81 374.02 689.84 373.61 689.13 372.90 C 688.42 372.19 688.01 371.22 688.01 370.21 C 688.01 369.20 688.42 368.24 689.13 367.52 C 689.84 366.81 690.81 366.41 691.82 366.41 Z " fill="#1F77B4" fill-opacity="0.60" stroke="none" stroke-opacity="0.00" stroke-width="0.00" stroke-linecap="butt" stroke-linejoin="round"/>
<path d="M 691.82 375.25 C 692.83 375.25 693.79 375.65 694.51 376.36 C 695.22 377.08 695.62 378.04 695.62 379.05 C 695.62 380.06 695.22 381.03 694.51 381.74 C 693.79 382.45 692.83 382.86 691.82 382.86 C 690.81 382.86 689.84 382.45 689.13 381.74 C 688.42 381.03 688.01 380.06 688.01 379.05 C 688.01 378.04 688.42 377.08 689.13 376.36 C 689.84 375.65 690.81 375.25 691.82 375.25 Z " fill="#1F77B4" fill-opacity="0.60" stroke="none" stroke-opacity="0.00" stroke-width="0.00" stroke-linecap="butt" stroke-linejoin="round"/>
<path d="M 691.82 359.05 C 692.83 359.05 693.79 359.45 694.51 360.16 C 695.22 360.87 695.62 361.84 695.62 362.85 C 695.62 363.86 695.22 364.83 694.51 365.54 C 693.79 366.25 692.83 366.65 691.82 366.65 C 690.81 366.65 689.84 366.25 689.13 365.54 C 688.42 364.83 688.01 363.86 688.01 362.85 C 688.01 361.84 688.42 360.87 689.13 360.16 C 689.84 359.45 690.81 359.05 691.82 359.05 Z " fill="#1F77B4" fill-opacity="0.60" stroke="none" stroke-opacity="0.00" stroke-width="0.00" stroke-linecap="butt" stroke-linejoin="round"/>
<path d="M 691.82 378.30 C 692.83 378.30 693.79 378.70 694.51 379.42 C 695.22 380.13 695.62 381.10 695.62 382.11 C 695.62 383.11 695.22 384.08 694.51 384.80 C 693.79 385.51 692.83 385.91 691.82 385.91 C 690.81 385.91 689.84 385.51 689.13 384.80 C 688.42 384.08 688.01 383.11 688.01 382.11 C 688.01 381.10 688.42 380.13 689.13 379.42 C 689.84 378.70 690.81 378.30 691.82 378.30 Z " fill="#1F77B4" fill-opacity="0.60" stroke="none" stroke-opacity="0.00" stroke-width="0.00" stroke-linecap="butt" stroke-linejoin="round"/>
<path d="M 691.82 358.68 C 692.83 358.68 693.79 359.08 694.51 359.80 C 695.22 360.51 695.62 361.48 695.62 362.49 C 695.62 363.50 695.22 364.46 694.51 365.18 C 693.79 365.89 692.83 366.29 691.82 366.29 C 690.81 366.29 689.84 365.89 689.13 365.18 C 688.42 364.46 688.01 363.50 688.01 362.49 C 688.01 361.48 688.42 360.51 689.13 359.80 C 689.84 359.08 690.81 358.68 691.82 358.68 Z " fill="#1F77B4" fill-opacity="0.60" stroke="none" stroke-opacity="0.00" stroke-width="0.00" stroke-linecap="butt" stroke-linejoin="round"/>
<path d="M 691.82 362.81 C 692.83 362.81 693.79 363.21 694.51 363.92 C 695.22 364.64 695.62 365.60 695.62 366.61 C 695.62 367.62 695.22 368.59 694.51 369.30 C 693.79 370.02 692.83 370.42 691.82 370.42 C 690.81 370.42 689.84 370.02 689.13 369.30 C 688.42 368.59 688.01 367.62 688.01 366.61 C 688.01 365.60 688.42 364.64 689.13 363.92 C 689.84 363.21 690.81 362.81 691.82 362.81 Z " fill="#1F77B4" fill-opacity="0.60" stroke="none" stroke-opacity="0.00" stroke-width="0.00" stroke-linecap="butt" stroke-linejoin="round"/>
<path d="M 691.82 381.83 C 692.83 381.83 693.79 382.23 694.51 382.94 C 695.22 383.66 695.62 384.63 695.62 385.63 C 695.62 386.64 695.22 387.61 694.51 388.32 C 693.79 389.04 692.83 389.44 691.82 389.44 C 690.81 389.44 689.84 389.04 689.13 388.32 C 688.42 387.61 688.01 386.64 688.01 385.63 C 688.01 384.63 688.42 383.66 689.13 382.94 C 689.84 382.23 690.81 381.83 691.82 381.83 Z " fill="#1F77B4" fill-opacity="0.60" stroke="none" stroke-opacity="0.00" stroke-width="0.00" stroke-linecap="butt" stroke-linejoin="round"/>
<path d="M 691.82 321.07 C 692.83 321.07 693.79 321.47 694.51 322.19 C 695.22 322.90 695.62 323.87 695.62 324.87 C 695.62 325.88 695.22 326.85 694.51 327.56 C 693.79 328.28 692.83 328.68 691.82 328.68 C 690.81 328.68 689.84 328.28 689.13 327.56 C 688.42 326.85 688.01 325.88 688.01 324.87 C 688.01 323.87 688.42 322.90 689.13 322.19 C 689.84 321.47 690.81 321.07 691.82 321.07 Z " fill="#1F77B4" fill-opacity="0.60" stroke="none" stroke-opacity="0.00" stroke-width="0.00" stroke-linecap="butt" stroke-linejoin="round"/>
<path d="M 691.82 365.46 C 692.83 365.46 693.79 365.86 694.51 366.57 C 695.22 367.29 695.62 368.26 695.62 369.26 C 695.62 370.27 695.22 371.24 694.51 371.95 C 693.79 372.67 692.83 373.07 691.82 373.07 C 690.81 373.07 689.84 372.67 689.13 371.95 C 688.42 371.24 688.01 370.27 688.01 369.26 C 688.01 368.26 688.42 367.29 689.13 366.57 C 689.84 365.86 690.81 365.46 691.82 365.46 Z " fill="#1F77B4" fill-opacity="0.60" stroke="none" stroke-opacity="0.00" stroke-width="0.00" stroke-linecap="butt" stroke-linejoin="round"/>
<path d="M 691.82 324.96 C 692.83 324.96 693.79 325.36 694.51 326.08 C 695.22 326.79 695.62 327.76 695.62 328.77 C 695.62 329.78 695.22 330.74 694.51 331.46 C 693.79 332.17 692.83 332.57 691.82 332.57 C 690.81 332.57 689.84 332.17 689.13 331.46 C 688.42 330.74 688.01 329.78 688.01 328.77 C 688.01 327.76 688.42 326.79 689.13 326.08 C 689.84 325.36 690.81 324.96 691.82 324.96 Z " fill="#1F77B4" fill-opacity="0.60" stroke="none" stroke-opacity="0.00" stroke-width="0.00" stroke-linecap="butt" stroke-linejoin="round"/>
<path d="M 691.82 418.70 C 692.83 418.70 693.79 419.10 694.51 419.81 C 695.22 420.52 695.62 421.49 695.62 422.50 C 695.62 423.51 695.22 424.48 694.51 425.19 C 693.79 425.90 692.83 426.30 691.82 426.30 C 690.81 426.30 689.84 425.90 689.13 425.19 C 688.42 424.48 688.01 423.51 688.01 422.50 C 688.01 421.49 688.42 420.52 689.13 419.81 C 689.84 419.10 690.81 418.70 691.82 418.70 Z " fill="#1F77B4" fill-opacity="0.60" stroke="none" stroke-opacity="0.00" stroke-width="0.00" stroke-linecap="butt" stroke-linejoin="round"/>
<path d="M 691.82 357.32 C 692.83 357.32 693.79 357.72 694.51 358.43 C 695.22 359.15 695.62 360.11 695.62 361.12 C 695.62 362.13 695.22 363.10 694.51 363.81 C 693.79 364.53 692.83 364.93 691.82 364.93 C 690.81 364.93 689.84 364.53 689.13 363.81 C 688.42 363.10 688.01 362.13 688.01 361.12 C 688.01 360.11 688.42 359.15 689.13 358.43 C 689.84 357.72 690.81 357.32 691.82 357.32 Z " fill="#1F77B4" fill-opacity="0.60" stroke="none" stroke-opacity="0.00" stroke-width="0.00" stroke-linecap="butt" stroke-linejoin="round"/>
<path d="M 691.82 361.73 C 692.83 361.73 693.79 362.13 694.51 362.84 C 695.22 363.56 695.62 364.52 695.62 365.53 C 695.62 366.54 695.22 367.51 694.51 368.22 C 693.79 368.94 692.83 369.34 691.82 369.34 C 690.81 369.34 689.84 368.94 689.13 368.22 C 688.42 367.51 688.01 366.54 688.01 365.53 C 688.01 364.52 688.42 363.56 689.13 362.84 C 689.84 362.13 690.81 361.73 691.82 361.73 Z " fill="#1F77B4" fill-opacity="0.60" stroke="none" stroke-opacity="0.00" stroke-width="0.00" stroke-linecap="butt" stroke-linejoin="round"/>
<path d="M 691.82 358.58 C 692.83 358.58 693.79 358.98 694.51 359.69 C 695.22 360.40 695.62 361.37 695.62 362.38 C 695.62 363.39 695.22 364.36 694.51 365.07 C 693.79 365.78 692.83 366.18 691.82 366.18 C 690.81 366.18 689.84 365.78 689.13 365.07 C 688.42 364.36 688.01 363.39 688.01 362.38 C 688.01 361.37 688.42 360.40 689.13 359.69 C 689.84 358.98 690.81 358.58 691.82 358.58 Z " fill="#1F77B4" fill-opacity="0.60" stroke="none" stroke-opacity="0.00" stroke-width="0.00" stroke-linecap="butt" stroke-linejoin="round"/>
<path d="M 550.91 293.72 C 551.92 293.72 552.89 294.12 553.60 294.83 C 554.31 295.55 554.71 296.52 554.71 297.52 C 554.71 298.53 554.31 299.50 553.60 300.21 C 552.89 300.93 551.92 301.33 550.91 301.33 C 549.90 301.33 548.93 300.93 548.22 300.21 C 547.51 299.50 547.11 298.53 547.11 297.52 C 547.11 296.52 547.51 295.55 548.22 294.83 C 548.93 294.12 549.90 293.72 550.91 293.72 Z " fill="#1F77B4" fill-opacity="0.60" stroke="none" stroke-opacity="0.00" stroke-width="0.00" stroke-linecap="butt" stroke-linejoin="round"/>
<path d="M 550.91 288.17 C 551.92 288.17 552.89 288.57 553.60 289.28 C 554.31 289.99 554.71 290.96 554.71 291.97 C 554.71 292.98 554.31 293.95 553.60 294.66 C 552.89 295.37 551.92 295.77 550.91 295.77 C 549.90 295.77 548.93 295.37 548.22 294.66 C 547.51 293.95 547.11 292.98 547.11 291.97 C 547.11 290.96 547.51 289.99 548.22 289.28 C 548.93 288.57 549.90 288.17 550.91 288.17 Z " fill="#1F77B4" fill-opacity="0.60" stroke="none" stroke-opacity="0.00" stroke-width="0.00" stroke-linecap="butt" stroke-linejoin="round"/>
<path d="M 550.91 288.84 C 551.92 288.84 552.89 289.24 553.60 289.95 C 554.31 290.66 554.71 291.63 554.71 292.64 C 554.71 293.65 554.31 294.62 553.60 295.33 C 552.89 296.04 551.92 296.44 550.91 296.44 C 549.90 296.44 548.93 296.04 548.22 295.33 C 547.51 294.62 547.11 293.65 547.11 292.64 C 547.11 291.63 547.51 290.66 548.22 289.95 C 548.93 289.24 549.90 288.84 550.91 288.84 Z " fill="#1F77B4" fill-opacity="0.60" stroke="none" stroke-opacity="0.00" stroke-width="0.00" stroke-linecap="butt" stroke-linejoin="round"/>
<path d="M 550.91 300.63 C 551.92 300.63 552.89 301.03 553.60 301.75 C 554.31 302.46 554.71 303.43 554.71 304.44 C 554.71 305.45 554.31 306.41 553.60 307.13 C 552.89 307.84 551.92 308.24 550.91 308.24 C 549.90 308.24 548.93 307.84 548.22 307.13 C 547.51 306.41 547.11 305.45 547.11 304.44 C 547.11 303.43 547.51 302.46 548.22 301.75 C 548.93 301.03 549.90 300.63 550.91 300.63 Z " fill="#1F77B4" fill-opacity="0.60" stroke="none" stroke-opacity="0.00" stroke-width="0.00" stroke-linecap="butt" stroke-linejoin="round"/>
<path d="M 550.91 300.96 C 551.92 300.96 552.89 301.36 553.60 302.07 C 554.31 302.79 554.71 303.75 554.71 304.76 C 554.71 305.77 554.31 306.74 553.60 307.45 C 552.89 308.17 551.92 308.57 550.91 308.57 C 549.90 308.57 548.93 308.17 548.22 307.45 C 547.51 306.74 547.11 305.77 547.11 304.76 C 547.11 303.75 547.51 302.79 548.22 302.07 C 548.93 301.36 549.90 300.96 550.91 300.96 Z " fill="#1F77B4" fill-opacity="0.60" stroke="none" stroke-opacity="0.00" stroke-width="0.00" stroke-linecap="butt" stroke-linejoin="round"/>
<path d="M 550.91 284.79 C 551.92 284.79 552.89 285.19 553.60 285.90 C 554.31 286.61 554.71 287.58 554.71 288.59 C 554.71 289.60 554.31 290.57 553.60 291.28 C 552.89 291.99 551.92 292.39 550.91 292.39 C 549.90 292.39 548.93 291.99 548.22 291.28 C 547.51 290.57 547.11 289.60 547.11 288.59 C 547.11 287.58 547.51 286.61 548.22 285.90 C 548.93 285.19 549.90 284.79 550.91 284.79 Z " fill="#1F77B4" fill-opacity="0.60" stroke="none" stroke-opacity="0.00" stroke-width="0.00" stroke-linecap="butt" stroke-linejoin="round"/>
<path d="M 550.91 322.33 C 551.92 322.33 552.89 322.73 553.60 323.44 C 554.31 324.16 554.71 325.13 554.71 326.13 C 554.71 327.14 554.31 328.11 553.60 328.82 C 552.89 329.54 551.92 329.94 550.91 329.94 C 549.90 329.94 548.93 329.54 548.22 328.82 C 547.51 328.11 547.11 327.14 547.11 326.13 C 547.11 325.13 547.51 324.16 548.22 323.44 C 548.93 322.73 549.90 322.33 550.91 322.33 Z " fill="#1F77B4" fill-opacity="0.60" stroke="none" stroke-opacity="0.00" stroke-width="0.00" stroke-linecap="butt" stroke-linejoin="round"/>
<path d="M 550.91 313.05 C 551.92 313.05 552.89 313.45 553.60 314.16 C 554.31 314.88 554.71 315.85 554.71 316.85 C 554.71 317.86 554.31 318.83 553.60 319.54 C 552.89 320.26 551.92 320.66 550.91 320.66 C 549.90 320.66 548.93 320.26 548.22 319.54 C 547.51 318.83 547.11 317.86 547.11 316.85 C 547.11 315.85 547.51 314.88 548.22 314.16 C 548.93 313.45 549.90 313.05 550.91 313.05 Z " fill="#1F77B4" fill-opacity="0.60" stroke="none" stroke-opacity="0.00" stroke-width="0.00" stroke-linecap="butt" stroke-linejoin="round"/>
<path d="M 550.91 309.73 C 551.92 309.73 552.89 310.13 553.60 310.84 C 554.31 311.56 554.71 312.52 554.71 313.53 C 554.71 314.54 554.31 315.51 553.60 316.22 C 552.89 316.94 551.92 317.34 550.91 317.34 C 549.90 317.34 548.93 316.94 548.22 316.22 C 547.51 315.51 547.11 314.54 547.11 313.53 C 547.11 312.52 547.51 311.56 548.22 310.84 C 548.93 310.13 549.90 309.73 550.91 309.73 Z " fill="#1F77B4" fill-opacity="0.60" stroke="none" stroke-opacity="0.00" stroke-width="0.00" stroke-linecap="butt" stroke-linejoin="round"/>
<path d="M 550.91 281.01 C 551.92 281.01 552.89 281.42 553.60 282.13 C 554.31 282.84 554.71 283.81 554.71 284.82 C 554.71 285.83 554.31 286.79 553.60 287.51 C 552.89 288.22 551.92 288.62 550.91 288.62 C 549.90 288.62 548.93 288.22 548.22 287.51 C 547.51 286.79 547.11 285.83 547.11 284.82 C 547.11 283.81 547.51 282.84 548.22 282.13 C 548.93 281.42 549.90 281.01 550.91 281.01 Z " fill="#1F77B4" fill-opacity="0.60" stroke="none" stroke-opacity="0.00" stroke-width="0.00" stroke-linecap="butt" stroke-linejoin="round"/>
<path d="M 550.91 279.01 C 551.92 279.01 552.89 279.41 553.60 280.12 C 554.31 280.84 554.71 281.80 554.71 282.81 C 554.71 283.82 554.31 284.79 553.60 285.50 C 552.89 286.22 551.92 286.62 550.91 286.62 C 549.90 286.62 548.93 286.22 548.22 285.50 C 547.51 284.79 547.11 283.82 547.11 282.81 C 547.11 281.80 547.51 280.84 548.22 280.12 C 548.93 279.41 549.90 279.01 550.91 279.01 Z " fill="#1F77B4" fill-opacity="0.60" stroke="none" stroke-opacity="0.00" stroke-width="0.00" stroke-linecap="butt" stroke-linejoin="round"/>
<path d="M 550.91 291.11 C 551.92 291.11 552.89 291.51 553.60 292.23 C 554.31 292.94 554.71 293.91 554.71 294.92 C 554.71 295.92 554.31 296.89 553.60 297.61 C 552.89 298.32 551.92 298.72 550.91 298.72 C 549.90 298.72 548.93 298.32 548.22 297.61 C 547.51 296.89 547.11 295.92 547.11 294.92 C 547.11 293.91 547.51 292.94 548.22 292.23 C 548.93 291.51 549.90 291.11 550.91 291.11 Z " fill="#1F77B4" fill-opacity="0.60" stroke="none" stroke-opacity="0.00" stroke-width="0.00" stroke-linecap="butt" stroke-linejoin="round"/>
<path d="M 550.91 272.69 C 551.92 272.69 552.89 273.09 553.60 273.80 C 554.31 274.52 554.71 275.48 554.71 276.49 C 554.71 277.50 554.31 278.47 553.60 279.18 C 552.89 279.89 551.92 280.30 550.91 280.30 C 549.90 280.30 548.93 279.89 548.22 279.18 C 547.51 278.47 547.11 277.50 547.11 276.49 C 547.11 275.48 547.51 274.52 548.22 273.80 C 548.93 273.09 549.90 272.69 550.91 272.69 Z " fill="#1F77B4" fill-opacity="0.60" stroke="none" stroke-opacity="0.00" stroke-width="0.00" stroke-linecap="butt" stroke-linejoin="round"/>
<path d="M 550.91 300.84 C 551.92 300.84 552.89 301.24 553.60 301.95 C 554.31 302.66 554.71 303.63 554.71 304.64 C 554.71 305.65 554.31 306.62 553.60 307.33 C 552.89 308.04 551.92 308.44 550.91 308.44 C 549.90 308.44 548.93 308.04 548.22 307.33 C 547.51 306.62 547.11 305.65 547.11 304.64 C 547.11 303.63 547.51 302.66 548.22 301.95 C 548.93 301.24 549.90 300.84 550.91 300.84 Z " fill="#1F77B4" fill-opacity="0.60" stroke="none" stroke-opacity="0.00" stroke-width="0.00" stroke-linecap="butt" stroke-linejoin="round"/>
<path d="M 550.91 303.71 C 551.92 303.71 552.89 304.11 553.60 304.82 C 554.31 305.53 554.71 306.50 554.71 307.51 C 554.71 308.52 554.31 309.49 553.60 310.20 C 552.89 310.91 551.92 311.31 550.91 311.31 C 549.90 311.31 548.93 310.91 548.22 310.20 C 547.51 309.49 547.11 308.52 547.11 307.51 C 547.11 306.50 547.51 305.53 548.22 304.82 C 548.93 304.11 549.90 303.71 550.91 303.71 Z " fill="#1F77B4" fill-opacity="0.60" stroke="none" stroke-opacity="0.00" stroke-width="0.00" stroke-linecap="butt" stroke-linejoin="round"/>
<path d="M 550.91 297.01 C 551.92 297.01 552.89 297.41 553.60 298.13 C 554.31 298.84 554.71 299.81 554.71 300.82 C 554.71 301.82 554.31 302.79 553.60 303.50 C 552.89 304.22 551.92 304.62 550.91 304.62 C 549.90 304.62 548.93 304.22 548.22 303.50 C 547.51 302.79 547.11 301.82 547.11 300.82 C 547.11 299.81 547.51 298.84 548.22 298.13 C 548.93 297.41 549.90 297.01 550.91 297.01 Z " fill="#1F77B4" fill-opacity="0.60" stroke="none" stroke-opacity="0.00" stroke-width="0.00" stroke-linecap="butt" stroke-linejoin="round"/>
<path d="M 550.91 321.44 C 551.92 321.44 552.89 321.84 553.60 322.55 C 554.31 323.27 554.71 324.24 554.71 325.24 C 554.71 326.25 554.31 327.22 553.60 327.93 C 552.89 328.65 551.92 329.05 550.91 329.05 C 549.90 329.05 548.93 328.65 548.22 327.93 C 547.51 327.22 547.11 326.25 547.11 325.24 C 547.11 324.24 547.51 323.27 548.22 322.55 C 548.93 321.84 549.90 321.44 550.91 321.44 Z " fill="#1F77B4" fill-opacity="0.60" stroke="none" stroke-opacity="0.00" stroke-width="0.00" stroke-linecap="butt" stroke-linejoin="round"/>
<path d="M 550.91 301.30 C 551.92 301.30 552.89 301.70 553.60 302.42 C 554.31 303.13 554.71 304.10 554.71 305.11 C 554.71 306.12 554.31 307.08 553.60 307.80 C 552.89 308.51 551.92 308.91 550.91 308.91 C 549.90 308.91 548.93 308.51 548.22 307.80 C 547.51 307.08 547.11 306.12 547.11 305.11 C 547.11 304.10 547.51 303.13 548.22 302.42 C 548.93 301.70 549.90 301.30 550.91 301.30 Z " fill="#1F77B4" fill-opacity="0.60" stroke="none" stroke-opacity="0.00" stroke-width="0.00" stroke-linecap="butt" stroke-linejoin="round"/>
<path d="M 550.91 319.51 C 551.92 319.51 552.89 319.91 553.60 320.62 C 554.31 321.34 554.71 322.31 554.71 323.31 C 554.71 324.32 554.31 325.29 553.60 326.00 C 552.89 326.72 551.92 327.12 550.91 327.12 C 549.90 327.12 548.93 326.72 548.22 326.00 C 547.51 325.29 547.11 324.32 547.11 323.31 C 547.11 322.31 547.51 321.34 548.22 320.62 C 548.93 319.91 549.90 319.51 550.91 319.51 Z " fill="#1F77B4" fill-opacity="0.60" stroke="none" stroke-opacity="0.00" stroke-width="0.00" stroke-linecap="butt" stroke-linejoin="round"/>
<path d="M 550.91 247.79 C 551.92 247.79 552.89 248.20 553.60 248.91 C 554.31 249.62 554.71 250.59 554.71 251.60 C 554.71 252.61 554.31 253.57 553.60 254.29 C 552.89 255.00 551.92 255.40 550.91 255.40 C 549.90 255.40 548.93 255.00 548.22 254.29 C 547.51 253.57 547.11 252.61 547.11 251.60 C 547.11 250.59 547.51 249.62 548.22 248.91 C 548.93 248.20 549.90 247.79 550.91 247.79 Z " fill="#1F77B4" fill-opacity="0.60" stroke="none" stroke-opacity="0.00" stroke-width="0.00" stroke-linecap="butt" stroke-linejoin="round"/>
<path d="M 410.00 202.84 C 411.01 202.84 411.98 203.24 412.69 203.96 C 413.40 204.67 413.80 205.64 413.80 206.65 C 413.80 207.66 413.40 208.62 412.69 209.34 C 411.98 210.05 411.01 210.45 410.00 210.45 C 408.99 210.45 408.02 210.05 407.31 209.34 C 406.60 208.62 406.20 207.66 406.20 206.65 C 406.20 205.64 406.60 204.67 407.31 203.96 C 408.02 203.24 408.99 202.84 410.00 202.84 Z " fill="#1F77B4" fill-opacity="0.60" stroke="none" stroke-opacity="0.00" stroke-width="0.00" stroke-linecap="butt" stroke-linejoin="round"/>
<path d="M 410.00 224.14 C 411.01 224.14 411.98 224.54 412.69 225.25 C 413.40 225.97 413.80 226.93 413.80 227.94 C 413.80 228.95 413.40 229.92 412.69 230.63 C 411.98 231.34 411.01 231.75 410.00 231.75 C 408.99 231.75 408.02 231.34 407.31 230.63 C 406.60 229.92 406.20 228.95 406.20 227.94 C 406.20 226.93 406.60 225.97 407.31 225.25 C 408.02 224.54 408.99 224.14 410.00 224.14 Z " fill="#1F77B4" fill-opacity="0.60" stroke="none" stroke-opacity="0.00" stroke-width="0.00" stroke-linecap="butt" stroke-linejoin="round"/>
<path d="M 410.00 270.09 C 411.01 270.09 411.98 270.49 412.69 271.20 C 413.40 271.92 413.80 272.88 413.80 273.89 C 413.80 274.90 413.40 275.87 412.69 276.58 C 411.98 277.29 411.01 277.70 410.00 277.70 C 408.99 277.70 408.02 277.29 407.31 276.58 C 406.60 275.87 406.20 274.90 406.20 273.89 C 406.20 272.88 406.60 271.92 407.31 271.20 C 408.02 270.49 408.99 270.09 410.00 270.09 Z " fill="#1F77B4" fill-opacity="0.60" stroke="none" stroke-opacity="0.00" stroke-width="0.00" stroke-linecap="butt" stroke-linejoin="round"/>
<path d="M 410.00 266.11 C 411.01 266.11 411.98 266.51 412.69 267.22 C 413.40 267.94 413.80 268.90 413.80 269.91 C 413.80 270.92 413.40 271.89 412.69 272.60 C 411.98 273.31 411.01 273.72 410.00 273.72 C 408.99 273.72 408.02 273.31 407.31 272.60 C 406.60 271.89 406.20 270.92 406.20 269.91 C 406.20 268.90 406.60 267.94 407.31 267.22 C 408.02 266.51 408.99 266.11 410.00 266.11 Z " fill="#1F77B4" fill-opacity="0.60" stroke="none" stroke-opacity="0.00" stroke-width="0.00" stroke-linecap="butt" stroke-linejoin="round"/>
<path d="M 410.00 255.00 C 411.01 255.00 411.98 255.40 412.69 256.12 C 413.40 256.83 413.80 257.80 413.80 258.81 C 413.80 259.81 413.40 260.78 412.69 261.50 C 411.98 262.21 411.01 262.61 410.00 262.61 C 408.99 262.61 408.02 262.21 407.31 261.50 C 406.60 260.78 406.20 259.81 406.20 258.81 C 406.20 257.80 406.60 256.83 407.31 256.12 C 408.02 255.40 408.99 255.00 410.00 255.00 Z " fill="#1F77B4" fill-opacity="0.60" stroke="none" stroke-opacity="0.00" stroke-width="0.00" stroke-linecap="butt" stroke-linejoin="round"/>
<path d="M 410.00 252.31 C 411.01 252.31 411.98 252.71 412.69 253.42 C 413.40 254.13 413.80 255.10 413.80 256.11 C 413.80 257.12 413.40 258.09 412.69 258.80 C 411.98 259.51 411.01 259.91 410.00 259.91 C 408.99 259.91 408.02 259.51 407.31 258.80 C 406.60 258.09 406.20 257.12 406.20 256.11 C 406.20 255.10 406.60 254.13 407.31 253.42 C 408.02 252.71 408.99 252.31 410.00 252.31 Z " fill="#1F77B4" fill-opacity="0.60" stroke="none" stroke-opacity="0.00" stroke-width="0.00" stroke-linecap="butt" stroke-linejoin="round"/>
<path d="M 410.00 244.89 C 411.01 244.89 411.98 245.29 412.69 246.00 C 413.40 246.71 413.80 247.68 413.80 248.69 C 413.80 249.70 413.40 250.66 412.69 251.38 C 411.98 252.09 411.01 252.49 410.00 252.49 C 408.99 252.49 408.02 252.09 407.31 251.38 C 406.60 250.66 406.20 249.70 406.20 248.69 C 406.20 247.68 406.60 246.71 407.31 246.00 C 408.02 245.29 408.99 244.89 410.00 244.89 Z " fill="#1F77B4" fill-opacity="0.60" stroke="none" stroke-opacity="0.00" stroke-width="0.00" stroke-linecap="butt" stroke-linejoin="round"/>
<path d="M 410.00 270.35 C 411.01 270.35 411.98 270.75 412.69 271.47 C 413.40 272.18 413.80 273.15 413.80 274.16 C 413.80 275.17 413.40 276.13 412.69 276.85 C 411.98 277.56 411.01 277.96 410.00 277.96 C 408.99 277.96 408.02 277.56 407.31 276.85 C 406.60 276.13 406.20 275.17 406.20 274.16 C 406.20 273.15 406.60 272.18 407.31 271.47 C 408.02 270.75 408.99 270.35 410.00 270.35 Z " fill="#1F77B4" fill-opacity="0.60" stroke="none" stroke-opacity="0.00" stroke-width="0.00" stroke-linecap="butt" stroke-linejoin="round"/>
<path d="M 410.00 251.06 C 411.01 251.06 411.98 251.46 412.69 252.17 C 413.40 252.88 413.80 253.85 413.80 254.86 C 413.80 255.87 413.40 256.84 412.69 257.55 C 411.98 258.26 411.01 258.66 410.00 258.66 C 408.99 258.66 408.02 258.26 407.31 257.55 C 406.60 256.84 406.20 255.87 406.20 254.86 C 406.20 253.85 406.60 252.88 407.31 252.17 C 408.02 251.46 408.99 251.06 410.00 251.06 Z " fill="#1F77B4" fill-opacity="0.60" stroke="none" stroke-opacity="0.00" stroke-width="0.00" stroke-linecap="butt" stroke-linejoin="round"/>
<path d="M 410.00 228.58 C 411.01 228.58 411.98 228.98 412.69 229.69 C 413.40 230.40 413.80 231.37 413.80 232.38 C 413.80 233.39 413.40 234.36 412.69 235.07 C 411.98 235.78 411.01 236.18 410.00 236.18 C 408.99 236.18 408.02 235.78 407.31 235.07 C 406.60 234.36 406.20 233.39 406.20 232.38 C 406.20 231.37 406.60 230.40 407.31 229.69 C 408.02 228.98 408.99 228.58 410.00 228.58 Z " fill="#1F77B4" fill-opacity="0.60" stroke="none" stroke-opacity="0.00" stroke-width="0.00" stroke-linecap="butt" stroke-linejoin="round"/>
<path d="M 410.00 233.52 C 411.01 233.52 411.98 233.92 412.69 234.64 C 413.40 235.35 413.80 236.32 413.80 237.33 C 413.80 238.33 413.40 239.30 412.69 240.01 C 411.98 240.73 411.01 241.13 410.00 241.13 C 408.99 241.13 408.02 240.73 407.31 240.01 C 406.60 239.30 406.20 238.33 406.20 237.33 C 406.20 236.32 406.60 235.35 407.31 234.64 C 408.02 233.92 408.99 233.52 410.00 233.52 Z " fill="#1F77B4" fill-opacity="0.60" stroke="none" stroke-opacity="0.00" stroke-width="0.00" stroke-linecap="butt" stroke-linejoin="round"/>
<path d="M 410.00 219.49 C 411.01 219.49 411.98 219.89 412.69 220.60 C 413.40 221.32 413.80 222.28 413.80 223.29 C 413.80 224.30 413.40 225.27 412.69 225.98 C 411.98 226.70 411.01 227.10 410.00 227.10 C 408.99 227.10 408.02 226.70 407.31 225.98 C 406.60 225.27 406.20 224.30 406.20 223.29 C 406.20 222.28 406.60 221.32 407.31 220.60 C 408.02 219.89 408.99 219.49 410.00 219.49 Z " fill="#1F77B4" fill-opacity="0.60" stroke="none" stroke-opacity="0.00" stroke-width="0.00" stroke-linecap="butt" stroke-linejoin="round"/>
<path d="M 410.00 214.21 C 411.01 214.21 411.98 214.61 412.69 215.33 C 413.40 216.04 413.80 217.01 413.80 218.02 C 413.80 219.02 413.40 219.99 412.69 220.71 C 411.98 221.42 411.01 221.82 410.00 221.82 C 408.99 221.82 408.02 221.42 407.31 220.71 C 406.60 219.99 406.20 219.02 406.20 218.02 C 406.20 217.01 406.60 216.04 407.31 215.33 C 408.02 214.61 408.99 214.21 410.00 214.21 Z " fill="#1F77B4" fill-opacity="0.60" stroke="none" stroke-opacity="0.00" stroke-width="0.00" stroke-linecap="butt" stroke-linejoin="round"/>
<path d="M 410.00 240.27 C 411.01 240.27 411.98 240.67 412.69 241.39 C 413.40 242.10 413.80 243.07 413.80 244.08 C 413.80 245.08 413.40 246.05 412.69 246.77 C 411.98 247.48 411.01 247.88 410.00 247.88 C 408.99 247.88 408.02 247.48 407.31 246.77 C 406.60 246.05 406.20 245.08 406.20 244.08 C 406.20 243.07 406.60 242.10 407.31 241.39 C 408.02 240.67 408.99 240.27 410.00 240.27 Z " fill="#1F77B4" fill-opacity="0.60" stroke="none" stroke-opacity="0.00" stroke-width="0.00" stroke-linecap="butt" stroke-linejoin="round"/>
<path d="M 410.00 238.56 C 411.01 238.56 411.98 238.96 412.69 239.67 C 413.40 240.39 413.80 241.35 413.80 242.36 C 413.80 243.37 413.40 244.34 412.69 245.05 C 411.98 245.77 411.01 246.17 410.00 246.17 C 408.99 246.17 408.02 245.77 407.31 245.05 C 406.60 244.34 406.20 243.37 406.20 242.36 C 406.20 241.35 406.60 240.39 407.31 239.67 C 408.02 238.96 408.99 238.56 410.00 238.56 Z " fill="#1F77B4" fill-opacity="0.60" stroke="none" stroke-opacity="0.00" stroke-width="0.00" stroke-linecap="butt" stroke-linejoin="round"/>
<path d="M 410.00 206.75 C 411.01 206.75 411.98 207.15 412.69 207.86 C 413.40 208.57 413.80 209.54 413.80 210.55 C 413.80 211.56 413.40 212.53 412.69 213.24 C 411.98 213.95 411.01 214.35 410.00 214.35 C 408.99 214.35 408.02 213.95 407.31 213.24 C 406.60 212.53 406.20 211.56 406.20 210.55 C 406.20 209.54 406.60 208.57 407.31 207.86 C 408.02 207.15 408.99 206.75 410.00 206.75 Z " fill="#1F77B4" fill-opacity="0.60" stroke="none" stroke-opacity="0.00" stroke-width="0.00" stroke-linecap="butt" stroke-linejoin="round"/>
<path d="M 410.00 250.21 C 411.01 250.21 411.98 250.61 412.69 251.33 C 413.40 252.04 413.80 253.01 413.80 254.02 C 413.80 255.02 413.40 255.99 412.69 256.71 C 411.98 257.42 411.01 257.82 410.00 257.82 C 408.99 257.82 408.02 257.42 407.31 256.71 C 406.60 255.99 406.20 255.02 406.20 254.02 C 406.20 253.01 406.60 252.04 407.31 251.33 C 408.02 250.61 408.99 250.21 410.00 250.21 Z " fill="#1F77B4" fill-opacity="0.60" stroke="none" stroke-opacity="0.00" stroke-width="0.00" stroke-linecap="butt" stroke-linejoin="round"/>
<path d="M 410.00 242.58 C 411.01 242.58 411.98 242.98 412.69 243.69 C 413.40 244.41 413.80 245.37 413.80 246.38 C 413.80 247.39 413.40 248.36 412.69 249.07 C 411.98 249.78 411.01 250.19 410.00 250.19 C 408.99 250.19 408.02 249.78 407.31 249.07 C 406.60 248.36 406.20 247.39 406.20 246.38 C 406.20 245.37 406.60 244.41 407.31 243.69 C 408.02 242.98 408.99 242.58 410.00 242.58 Z " fill="#1F77B4" fill-opacity="0.60" stroke="none" stroke-opacity="0.00" stroke-width="0.00" stroke-linecap="butt" stroke-linejoin="round"/>
<path d="M 410.00 230.86 C 411.01 230.86 411.98 231.26 412.69 231.97 C 413.40 232.69 413.80 233.65 413.80 234.66 C 413.80 235.67 413.40 236.64 412.69 237.35 C 411.98 238.07 411.01 238.47 410.00 238.47 C 408.99 238.47 408.02 238.07 407.31 237.35 C 406.60 236.64 406.20 235.67 406.20 234.66 C 406.20 233.65 406.60 232.69 407.31 231.97 C 408.02 231.26 408.99 230.86 410.00 230.86 Z " fill="#1F77B4" fill-opacity="0.60" stroke="none" stroke-opacity="0.00" stroke-width="0.00" stroke-linecap="butt" stroke-linejoin="round"/>
<path d="M 410.00 220.04 C 411.01 220.04 411.98 220.44 412.69 221.15 C 413.40 221.87 413.80 222.83 413.80 223.84 C 413.80 224.85 413.40 225.82 412.69 226.53 C 411.98 227.24 411.01 227.65 410.00 227.65 C 408.99 227.65 408.02 227.24 407.31 226.53 C 406.60 225.82 406.20 224.85 406.20 223.84 C 406.20 222.83 406.60 221.87 407.31 221.15 C 408.02 220.44 408.99 220.04 410.00 220.04 Z " fill="#1F77B4" fill-opacity="0.60" stroke="none" stroke-opacity="0.00" stroke-width="0.00" stroke-linecap="butt" stroke-linejoin="round"/>
<path d="M 269.09 210.76 C 270.10 210.76 271.07 211.16 271.78 211.88 C 272.49 212.59 272.89 213.56 272.89 214.57 C 272.89 215.57 272.49 216.54 271.78 217.26 C 271.07 217.97 270.10 218.37 269.09 218.37 C 268.08 218.37 267.11 217.97 266.40 217.26 C 265.69 216.54 265.29 215.57 265.29 214.57 C 265.29 213.56 265.69 212.59 266.40 211.88 C 267.11 211.16 268.08 210.76 269.09 210.76 Z " fill="#1F77B4" fill-opacity="0.60" stroke="none" stroke-opacity="0.00" stroke-width="0.00" stroke-linecap="butt" stroke-linejoin="round"/>
<path d="M 269.09 194.29 C 270.10 194.29 271.07 194.69 271.78 195.41 C 272.49 196.12 272.89 197.09 272.89 198.10 C 272.89 199.10 272.49 200.07 271.78 200.78 C 271.07 201.50 270.10 201.90 269.09 201.90 C 268.08 201.90 267.11 201.50 266.40 200.78 C 265.69 200.07 265.29 199.10 265.29 198.10 C 265.29 197.09 265.69 196.12 266.40 195.41 C 267.11 194.69 268.08 194.29 269.09 194.29 Z " fill="#1F77B4" fill-opacity="0.60" stroke="none" stroke-opacity="0.00" stroke-width="0.00" stroke-linecap="butt" stroke-linejoin="round"/>
<path d="M 269.09 164.80 C 270.10 164.80 271.07 165.21 271.78 165.92 C 272.49 166.63 272.89 167.60 272.89 168.61 C 272.89 169.62 272.49 170.58 271.78 171.30 C 271.07 172.01 270.10 172.41 269.09 172.41 C 268.08 172.41 267.11 172.01 266.40 171.30 C 265.69 170.58 265.29 169.62 265.29 168.61 C 265.29 167.60 265.69 166.63 266.40 165.92 C 267.11 165.21 268.08 164.80 269.09 164.80 Z " fill="#1F77B4" fill-opacity="0.60" stroke="none" stroke-opacity="0.00" stroke-width="0.00" stroke-linecap="butt" stroke-linejoin="round"/>
<path d="M 269.09 168.21 C 270.10 168.21 271.07 168.61 271.78 169.32 C 272.49 170.03 272.89 171.00 272.89 172.01 C 272.89 173.02 272.49 173.99 271.78 174.70 C 271.07 175.41 270.10 175.81 269.09 175.81 C 268.08 175.81 267.11 175.41 266.40 174.70 C 265.69 173.99 265.29 173.02 265.29 172.01 C 265.29 171.00 265.69 170.03 266.40 169.32 C 267.11 168.61 268.08 168.21 269.09 168.21 Z " fill="#1F77B4" fill-opacity="0.60" stroke="none" stroke-opacity="0.00" stroke-width="0.00" stroke-linecap="butt" stroke-linejoin="round"/>
<path d="M 269.09 190.18 C 270.10 190.18 271.07 190.58 271.78 191.29 C 272.49 192.01 272.89 192.98 272.89 193.98 C 272.89 194.99 272.49 195.96 271.78 196.67 C 271.07 197.39 270.10 197.79 269.09 197.79 C 268.08 197.79 267.11 197.39 266.40 196.67 C 265.69 195.96 265.29 194.99 265.29 193.98 C 265.29 192.98 265.69 192.01 266.40 191.29 C 267.11 190.58 268.08 190.18 269.09 190.18 Z " fill="#1F77B4" fill-opacity="0.60" stroke="none" stroke-opacity="0.00" stroke-width="0.00" stroke-linecap="butt" stroke-linejoin="round"/>
<path d="M 269.09 202.38 C 270.10 202.38 271.07 202.78 271.78 203.50 C 272.49 204.21 272.89 205.18 272.89 206.19 C 272.89 207.20 272.49 208.16 271.78 208.88 C 271.07 209.59 270.10 209.99 269.09 209.99 C 268.08 209.99 267.11 209.59 266.40 208.88 C 265.69 208.16 265.29 207.20 265.29 206.19 C 265.29 205.18 265.69 204.21 266.40 203.50 C 267.11 202.78 268.08 202.38 269.09 202.38 Z " fill="#1F77B4" fill-opacity="0.60" stroke="none" stroke-opacity="0.00" stroke-width="0.00" stroke-linecap="butt" stroke-linejoin="round"/>
<path d="M 269.09 139.98 C 270.10 139.98 271.07 140.38 271.78 141.10 C 272.49 141.81 272.89 142.78 272.89 143.79 C 272.89 144.79 272.49 145.76 271.78 146.48 C 271.07 147.19 270.10 147.59 269.09 147.59 C 268.08 147.59 267.11 147.19 266.40 146.48 C 265.69 145.76 265.29 144.79 265.29 143.79 C 265.29 142.78 265.69 141.81 266.40 141.10 C 267.11 140.38 268.08 139.98 269.09 139.98 Z " fill="#1F77B4" fill-opacity="0.60" stroke="none" stroke-opacity="0.00" stroke-width="0.00" stroke-linecap="butt" stroke-linejoin="round"/>
<path d="M 269.09 152.88 C 270.10 152.88 271.07 153.29 271.78 154.00 C 272.49 154.71 272.89 155.68 272.89 156.69 C 272.89 157.70 272.49 158.66 271.78 159.38 C 271.07 160.09 270.10 160.49 269.09 160.49 C 268.08 160.49 267.11 160.09 266.40 159.38 C 265.69 158.66 265.29 157.70 265.29 156.69 C 265.29 155.68 265.69 154.71 266.40 154.00 C 267.11 153.29 268.08 152.88 269.09 152.88 Z " fill="#1F77B4" fill-opacity="0.60" stroke="none" stroke-opacity="0.00" stroke-width="0.00" stroke-linecap="butt" stroke-linejoin="round"/>
<path d="M 269.09 180.95 C 270.10 180.95 271.07 181.35 271.78 182.07 C 272.49 182.78 272.89 183.75 272.89 184.76 C 272.89 185.77 272.49 186.73 271.78 187.45 C 271.07 188.16 270.10 188.56 269.09 188.56 C 268.08 188.56 267.11 188.16 266.40 187.45 C 265.69 186.73 265.29 185.77 265.29 184.76 C 265.29 183.75 265.69 182.78 266.40 182.07 C 267.11 181.35 268.08 180.95 269.09 180.95 Z " fill="#1F77B4" fill-opacity="0.60" stroke="none" stroke-opacity="0.00" stroke-width="0.00" stroke-linecap="butt" stroke-linejoin="round"/>
<path d="M 269.09 149.68 C 270.10 149.68 271.07 150.08 271.78 150.79 C 272.49 151.51 272.89 152.48 272.89 153.48 C 272.89 154.49 272.49 155.46 271.78 156.17 C 271.07 156.89 270.10 157.29 269.09 157.29 C 268.08 157.29 267.11 156.89 266.40 156.17 C 265.69 155.46 265.29 154.49 265.29 153.48 C 265.29 152.48 265.69 151.51 266.40 150.79 C 267.11 150.08 268.08 149.68 269.09 149.68 Z " fill="#1F77B4" fill-opacity="0.60" stroke="none" stroke-opacity="0.00" stroke-width="0.00" stroke-linecap="butt" stroke-linejoin="round"/>
<path d="M 269.09 150.00 C 270.10 150.00 271.07 150.40 271.78 151.11 C 272.49 151.82 272.89 152.79 272.89 153.80 C 272.89 154.81 272.49 155.78 271.78 156.49 C 271.07 157.20 270.10 157.60 269.09 157.60 C 268.08 157.60 267.11 157.20 266.40 156.49 C 265.69 155.78 265.29 154.81 265.29 153.80 C 265.29 152.79 265.69 151.82 266.40 151.11 C 267.11 150.40 268.08 150.00 269.09 150.00 Z " fill="#1F77B4" fill-opacity="0.60" stroke="none" stroke-opacity="0.00" stroke-width="0.00" stroke-linecap="butt" stroke-linejoin="round"/>
<path d="M 269.09 188.32 C 270.10 188.32 271.07 188.73 271.78 189.44 C 272.49 190.15 272.89 191.12 272.89 192.13 C 272.89 193.14 272.49 194.10 271.78 194.82 C 271.07 195.53 270.10 195.93 269.09 195.93 C 268.08 195.93 267.11 195.53 266.40 194.82 C 265.69 194.10 265.29 193.14 265.29 192.13 C 265.29 191.12 265.69 190.15 266.40 189.44 C 267.11 188.73 268.08 188.32 269.09 188.32 Z " fill="#1F77B4" fill-opacity="0.60" stroke="none" stroke-opacity="0.00" stroke-width="0.00" stroke-linecap="butt" stroke-linejoin="round"/>
<path d="M 269.09 207.03 C 270.10 207.03 271.07 207.43 271.78 208.14 C 272.49 208.86 272.89 209.82 272.89 210.83 C 272.89 211.84 272.49 212.81 271.78 213.52 C 271.07 214.23 270.10 214.64 269.09 214.64 C 268.08 214.64 267.11 214.23 266.40 213.52 C 265.69 212.81 265.29 211.84 265.29 210.83 C 265.29 209.82 265.69 208.86 266.40 208.14 C 267.11 207.43 268.08 207.03 269.09 207.03 Z " fill="#1F77B4" fill-opacity="0.60" stroke="none" stroke-opacity="0.00" stroke-width="0.00" stroke-linecap="butt" stroke-linejoin="round"/>
<path d="M 269.09 155.53 C 270.10 155.53 271.07 155.93 271.78 156.64 C 272.49 157.35 272.89 158.32 272.89 159.33 C 272.89 160.34 272.49 161.31 271.78 162.02 C 271.07 162.73 270.10 163.13 269.09 163.13 C 268.08 163.13 267.11 162.73 266.40 162.02 C 265.69 161.31 265.29 160.34 265.29 159.33 C 265.29 158.32 265.69 157.35 266.40 156.64 C 267.11 155.93 268.08 155.53 269.09 155.53 Z " fill="#1F77B4" fill-opacity="0.60" stroke="none" stroke-opacity="0.00" stroke-width="0.00" stroke-linecap="butt" stroke-linejoin="round"/>
<path d="M 269.09 162.14 C 270.10 162.14 271.07 162.54 271.78 163.26 C 272.49 163.97 272.89 164.94 272.89 165.94 C 272.89 166.95 272.49 167.92 271.78 168.63 C 271.07 169.35 270.10 169.75 269.09 169.75 C 268.08 169.75 267.11 169.35 266.40 168.63 C 265.69 167.92 265.29 166.95 265.29 165.94 C 265.29 164.94 265.69 163.97 266.40 163.26 C 267.11 162.54 268.08 162.14 269.09 162.14 Z " fill="#1F77B4" fill-opacity="0.60" stroke="none" stroke-opacity="0.00" stroke-width="0.00" stroke-linecap="butt" stroke-linejoin="round"/>
<path d="M 269.09 115.10 C 270.10 115.10 271.07 115.50 271.78 116.21 C 272.49 116.92 272.89 117.89 272.89 118.90 C 272.89 119.91 272.49 120.88 271.78 121.59 C 271.07 122.30 270.10 122.70 269.09 122.70 C 268.08 122.70 267.11 122.30 266.40 121.59 C 265.69 120.88 265.29 119.91 265.29 118.90 C 265.29 117.89 265.69 116.92 266.40 116.21 C 267.11 115.50 268.08 115.10 269.09 115.10 Z " fill="#1F77B4" fill-opacity="0.60" stroke="none" stroke-opacity="0.00" stroke-width="0.00" stroke-linecap="butt" stroke-linejoin="round"/>
<path d="M 269.09 157.69 C 270.10 157.69 271.07 158.09 271.78 158.81 C 272.49 159.52 272.89 160.49 272.89 161.50 C 272.89 162.51 272.49 163.47 271.78 164.19 C 271.07 164.90 270.10 165.30 269.09 165.30 C 268.08 165.30 267.11 164.90 266.40 164.19 C 265.69 163.47 265.29 162.51 265.29 161.50 C 265.29 160.49 265.69 159.52 266.40 158.81 C 267.11 158.09 268.08 157.69 269.09 157.69 Z " fill="#1F77B4" fill-opacity="0.60" stroke="none" stroke-opacity="0.00" stroke-width="0.00" stroke-linecap="butt" stroke-linejoin="round"/>
<path d="M 269.09 195.40 C 270.10 195.40 271.07 195.80 271.78 196.51 C 272.49 197.23 272.89 198.19 272.89 199.20 C 272.89 200.21 272.49 201.18 271.78 201.89 C 271.07 202.61 270.10 203.01 269.09 203.01 C 268.08 203.01 267.11 202.61 266.40 201.89 C 265.69 201.18 265.29 200.21 265.29 199.20 C 265.29 198.19 265.69 197.23 266.40 196.51 C 267.11 195.80 268.08 195.40 269.09 195.40 Z " fill="#1F77B4" fill-opacity="0.60" stroke="none" stroke-opacity="0.00" stroke-width="0.00" stroke-linecap="butt" stroke-linejoin="round"/>
<path d="M 269.09 157.84 C 270.10 157.84 271.07 158.24 271.78 158.95 C 272.49 159.67 272.89 160.63 272.89 161.64 C 272.89 162.65 272.49 163.62 271.78 164.33 C 271.07 165.04 270.10 165.45 269.09 165.45 C 268.08 165.45 267.11 165.04 266.40 164.33 C 265.69 163.62 265.29 162.65 265.29 161.64 C 265.29 160.63 265.69 159.67 266.40 158.95 C 267.11 158.24 268.08 157.84 269.09 157.84 Z " fill="#1F77B4" fill-opacity="0.60" stroke="none" stroke-opacity="0.00" stroke-width="0.00" stroke-linecap="butt" stroke-linejoin="round"/>
<path d="M 269.09 164.89 C 270.10 164.89 271.07 165.29 271.78 166.01 C 272.49 166.72 272.89 167.69 272.89 168.70 C 272.89 169.71 272.49 170.67 271.78 171.39 C 271.07 172.10 270.10 172.50 269.09 172.50 C 268.08 172.50 267.11 172.10 266.40 171.39 C 265.69 170.67 265.29 169.71 265.29 168.70 C 265.29 167.69 265.69 166.72 266.40 166.01 C 267.11 165.29 268.08 164.89 269.09 164.89 Z " fill="#1F77B4" fill-opacity="0.60" stroke="none" stroke-opacity="0.00" stroke-width="0.00" stroke-linecap="butt" stroke-linejoin="round"/>
<path d="M 128.18 84.31 C 129.19 84.31 130.16 84.71 130.87 85.42 C 131.58 86.14 131.99 87.10 131.99 88.11 C 131.99 89.12 131.58 90.09 130.87 90.80 C 130.16 91.51 129.19 91.92 128.18 91.92 C 127.17 91.92 126.21 91.51 125.49 90.80 C 124.78 90.09 124.38 89.12 124.38 88.11 C 124.38 87.10 124.78 86.14 125.49 85.42 C 126.21 84.71 127.17 84.31 128.18 84.31 Z " fill="#1F77B4" fill-opacity="0.60" stroke="none" stroke-opacity="0.00" stroke-width="0.00" stroke-linecap="butt" stroke-linejoin="round"/>
<path d="M 128.18 108.41 C 129.19 108.41 130.16 108.81 130.87 109.53 C 131.58 110.24 131.99 111.21 131.99 112.22 C 131.99 113.22 131.58 114.19 130.87 114.91 C 130.16 115.62 129.19 116.02 128.18 116.02 C 127.17 116.02 126.21 115.62 125.49 114.91 C 124.78 114.19 124.38 113.22 124.38 112.22 C 124.38 111.21 124.78 110.24 125.49 109.53 C 126.21 108.81 127.17 108.41 128.18 108.41 Z " fill="#1F77B4" fill-opacity="0.60" stroke="none" stroke-opacity="0.00" stroke-width="0.00" stroke-linecap="butt" stroke-linejoin="round"/>
<path d="M 128.18 129.28 C 129.19 129.28 130.16 129.68 130.87 130.40 C 131.58 131.11 131.99 132.08 131.99 133.09 C 131.99 134.09 131.58 135.06 130.87 135.78 C 130.16 136.49 129.19 136.89 128.18 136.89 C 127.17 136.89 126.21 136.49 125.49 135.78 C 124.78 135.06 124.38 134.09 124.38 133.09 C 124.38 132.08 124.78 131.11 125.49 130.40 C 126.21 129.68 127.17 129.28 128.18 129.28 Z " fill="#1F77B4" fill-opacity="0.60" stroke="none" stroke-opacity="0.00" stroke-width="0.00" stroke-linecap="butt" stroke-linejoin="round"/>
<path d="M 128.18 113.62 C 129.19 113.62 130.16 114.02 130.87 114.73 C 131.58 115.44 131.99 116.41 131.99 117.42 C 131.99 118.43 131.58 119.40 130.87 120.11 C 130.16 120.82 129.19 121.22 128.18 121.22 C 127.17 121.22 126.21 120.82 125.49 120.11 C 124.78 119.40 124.38 118.43 124.38 117.42 C 124.38 116.41 124.78 115.44 125.49 114.73 C 126.21 114.02 127.17 113.62 128.18 113.62 Z " fill="#1F77B4" fill-opacity="0.60" stroke="none" stroke-opacity="0.00" stroke-width="0.00" stroke-linecap="butt" stroke-linejoin="round"/>
<path d="M 128.18 100.15 C 129.19 100.15 130.16 100.55 130.87 101.26 C 131.58 101.97 131.99 102.94 131.99 103.95 C 131.99 104.96 131.58 105.93 130.87 106.64 C 130.16 107.35 129.19 107.75 128.18 107.75 C 127.17 107.75 126.21 107.35 125.49 106.64 C 124.78 105.93 124.38 104.96 124.38 103.95 C 124.38 102.94 124.78 101.97 125.49 101.26 C 126.21 100.55 127.17 100.15 128.18 100.15 Z " fill="#1F77B4" fill-opacity="0.60" stroke="none" stroke-opacity="0.00" stroke-width="0.00" stroke-linecap="butt" stroke-linejoin="round"/>
<path d="M 128.18 68.70 C 129.19 68.70 130.16 69.10 130.87 69.81 C 131.58 70.52 131.99 71.49 131.99 72.50 C 131.99 73.51 131.58 74.48 130.87 75.19 C 130.16 75.90 129.19 76.30 128.18 76.30 C 127.17 76.30 126.21 75.90 125.49 75.19 C 124.78 74.48 124.38 73.51 124.38 72.50 C 124.38 71.49 124.78 70.52 125.49 69.81 C 126.21 69.10 127.17 68.70 128.18 68.70 Z " fill="#1F77B4" fill-opacity="0.60" stroke="none" stroke-opacity="0.00" stroke-width="0.00" stroke-linecap="butt" stroke-linejoin="round"/>
<path d="M 128.18 104.53 C 129.19 104.53 130.16 104.93 130.87 105.64 C 131.58 106.35 131.99 107.32 131.99 108.33 C 131.99 109.34 131.58 110.31 130.87 111.02 C 130.16 111.73 129.19 112.13 128.18 112.13 C 127.17 112.13 126.21 111.73 125.49 111.02 C 124.78 110.31 124.38 109.34 124.38 108.33 C 124.38 107.32 124.78 106.35 125.49 105.64 C 126.21 104.93 127.17 104.53 128.18 104.53 Z " fill="#1F77B4" fill-opacity="0.60" stroke="none" stroke-opacity="0.00" stroke-width="0.00" stroke-linecap="butt" stroke-linejoin="round"/>
<path d="M 128.18 110.45 C 129.19 110.45 130.16 110.85 130.87 111.57 C 131.58 112.28 131.99 113.25 131.99 114.26 C 131.99 115.27 131.58 116.23 130.87 116.95 C 130.16 117.66 129.19 118.06 128.18 118.06 C 127.17 118.06 126.21 117.66 125.49 116.95 C 124.78 116.23 124.38 115.27 124.38 114.26 C 124.38 113.25 124.78 112.28 125.49 111.57 C 126.21 110.85 127.17 110.45 128.18 110.45 Z " fill="#1F77B4" fill-opacity="0.60" stroke="none" stroke-opacity="0.00" stroke-width="0.00" stroke-linecap="butt" stroke-linejoin="round"/>
<path d="M 128.18 95.95 C 129.19 95.95 130.16 96.35 130.87 97.06 C 131.58 97.77 131.99 98.74 131.99 99.75 C 131.99 100.76 131.58 101.73 130.87 102.44 C 130.16 103.15 129.19 103.55 128.18 103.55 C 127.17 103.55 126.21 103.15 125.49 102.44 C 124.78 101.73 124.38 100.76 124.38 99.75 C 124.38 98.74 124.78 97.77 125.49 97.06 C 126.21 96.35 127.17 95.95 128.18 95.95 Z " fill="#1F77B4" fill-opacity="0.60" stroke="none" stroke-opacity="0.00" stroke-width="0.00" stroke-linecap="butt" stroke-linejoin="round"/>
<path d="M 128.18 87.37 C 129.19 87.37 130.16 87.77 130.87 88.48 C 131.58 89.19 131.99 90.16 131.99 91.17 C 131.99 92.18 131.58 93.15 130.87 93.86 C 130.16 94.57 129.19 94.97 128.18 94.97 C 127.17 94.97 126.21 94.57 125.49 93.86 C 124.78 93.15 124.38 92.18 124.38 91.17 C 124.38 90.16 124.78 89.19 125.49 88.48 C 126.21 87.77 127.17 87.37 128.18 87.37 Z " fill="#1F77B4" fill-opacity="0.60" stroke="none" stroke-opacity="0.00" stroke-width="0.00" stroke-linecap="butt" stroke-linejoin="round"/>
<path d="M 128.18 109.77 C 129.19 109.77 130.16 110.17 130.87 110.89 C 131.58 111.60 131.99 112.57 131.99 113.58 C 131.99 114.59 131.58 115.55 130.87 116.27 C 130.16 116.98 129.19 117.38 128.18 117.38 C 127.17 117.38 126.21 116.98 125.49 116.27 C 124.78 115.55 124.38 114.59 124.38 113.58 C 124.38 112.57 124.78 111.60 125.49 110.89 C 126.21 110.17 127.17 109.77 128.18 109.77 Z " fill="#1F77B4" fill-opacity="0.60" stroke="none" stroke-opacity="0.00" stroke-width="0.00" stroke-linecap="butt" stroke-linejoin="round"/>
<path d="M 128.18 119.47 C 129.19 119.47 130.16 119.87 130.87 120.59 C 131.58 121.30 131.99 122.27 131.99 123.28 C 131.99 124.29 131.58 125.25 130.87 125.97 C 130.16 126.68 129.19 127.08 128.18 127.08 C 127.17 127.08 126.21 126.68 125.49 125.97 C 124.78 125.25 124.38 124.29 124.38 123.28 C 124.38 122.27 124.78 121.30 125.49 120.59 C 126.21 119.87 127.17 119.47 128.18 119.47 Z " fill="#1F77B4" fill-opacity="0.60" stroke="none" stroke-opacity="0.00" stroke-width="0.00" stroke-linecap="butt" stroke-linejoin="round"/>
<path d="M 128.18 129.76 C 129.19 129.76 130.16 130.16 130.87 130.88 C 131.58 131.59 131.99 132.56 131.99 133.57 C 131.99 134.57 131.58 135.54 130.87 136.25 C 130.16 136.97 129.19 137.37 128.18 137.37 C 127.17 137.37 126.21 136.97 125.49 136.25 C 124.78 135.54 124.38 134.57 124.38 133.57 C 124.38 132.56 124.78 131.59 125.49 130.88 C 126.21 130.16 127.17 129.76 128.18 129.76 Z " fill="#1F77B4" fill-opacity="0.60" stroke="none" stroke-opacity="0.00" stroke-width="0.00" stroke-linecap="butt" stroke-linejoin="round"/>
<path d="M 128.18 111.25 C 129.19 111.25 130.16 111.65 130.87 112.37 C 131.58 113.08 131.99 114.05 131.99 115.06 C 131.99 116.06 131.58 117.03 130.87 117.74 C 130.16 118.46 129.19 118.86 128.18 118.86 C 127.17 118.86 126.21 118.46 125.49 117.74 C 124.78 117.03 124.38 116.06 124.38 115.06 C 124.38 114.05 124.78 113.08 125.49 112.37 C 126.21 111.65 127.17 111.25 128.18 111.25 Z " fill="#1F77B4" fill-opacity="0.60" stroke="none" stroke-opacity="0.00" stroke-width="0.00" stroke-linecap="butt" stroke-linejoin="round"/>
<path d="M 128.18 135.48 C 129.19 135.48 130.16 135.88 130.87 136.59 C 131.58 137.31 131.99 138.27 131.99 139.28 C 131.99 140.29 131.58 141.26 130.87 141.97 C 130.16 142.68 129.19 143.09 128.18 143.09 C 127.17 143.09 126.21 142.68 125.49 141.97 C 124.78 141.26 124.38 140.29 124.38 139.28 C 124.38 138.27 124.78 137.31 125.49 136.59 C 126.21 135.88 127.17 135.48 128.18 135.48 Z " fill="#1F77B4" fill-opacity="0.60" stroke="none" stroke-opacity="0.00" stroke-width="0.00" stroke-linecap="butt" stroke-linejoin="round"/>
<path d="M 128.18 81.92 C 129.19 81.92 130.16 82.33 130.87 83.04 C 131.58 83.75 131.99 84.72 131.99 85.73 C 131.99 86.74 131.58 87.70 130.87 88.42 C 130.16 89.13 129.19 89.53 128.18 89.53 C 127.17 89.53 126.21 89.13 125.49 88.42 C 124.78 87.70 124.38 86.74 124.38 85.73 C 124.38 84.72 124.78 83.75 125.49 83.04 C 126.21 82.33 127.17 81.92 128.18 81.92 Z " fill="#1F77B4" fill-opacity="0.60" stroke="none" stroke-opacity="0.00" stroke-width="0.00" stroke-linecap="butt" stroke-linejoin="round"/>
<path d="M 128.18 112.64 C 129.19 112.64 130.16 113.04 130.87 113.75 C 131.58 114.47 131.99 115.43 131.99 116.44 C 131.99 117.45 131.58 118.42 130.87 119.13 C 130.16 119.85 129.19 120.25 128.18 120.25 C 127.17 120.25 126.21 119.85 125.49 119.13 C 124.78 118.42 124.38 117.45 124.38 116.44 C 124.38 115.43 124.78 114.47 125.49 113.75 C 126.21 113.04 127.17 112.64 128.18 112.64 Z " fill="#1F77B4" fill-opacity="0.60" stroke="none" stroke-opacity="0.00" stroke-width="0.00" stroke-linecap="butt" stroke-linejoin="round"/>
<path d="M 128.18 94.63 C 129.19 94.63 130.16 95.03 130.87 95.74 C 131.58 96.45 131.99 97.42 131.99 98.43 C 131.99 99.44 131.58 100.41 130.87 101.12 C 130.16 101.83 129.19 102.23 128.18 102.23 C 127.17 102.23 126.21 101.83 125.49 101.12 C 124.78 100.41 124.38 99.44 124.38 98.43 C 124.38 97.42 124.78 96.45 125.49 95.74 C 126.21 95.03 127.17 94.63 128.18 94.63 Z " fill="#1F77B4" fill-opacity="0.60" stroke="none" stroke-opacity="0.00" stroke-width="0.00" stroke-linecap="butt" stroke-linejoin="round"/>
<path d="M 128.18 83.14 C 129.19 83.14 130.16 83.54 130.87 84.26 C 131.58 84.97 131.99 85.94 131.99 86.95 C 131.99 87.95 131.58 88.92 130.87 89.64 C 130.16 90.35 129.19 90.75 128.18 90.75 C 127.17 90.75 126.21 90.35 125.49 89.64 C 124.78 88.92 124.38 87.95 124.38 86.95 C 124.38 85.94 124.78 84.97 125.49 84.26 C 126.21 83.54 127.17 83.14 128.18 83.14 Z " fill="#1F77B4" fill-opacity="0.60" stroke="none" stroke-opacity="0.00" stroke-width="0.00" stroke-linecap="butt" stroke-linejoin="round"/>
<path d="M 128.18 104.52 C 129.19 104.52 130.16 104.92 130.87 105.63 C 131.58 106.34 131.99 107.31 131.99 108.32 C 131.99 109.33 131.58 110.30 130.87 111.01 C 130.16 111.72 129.19 112.12 128.18 112.12 C 127.17 112.12 126.21 111.72 125.49 111.01 C 124.78 110.30 124.38 109.33 124.38 108.32 C 124.38 107.31 124.78 106.34 125.49 105.63 C 126.21 104.92 127.17 104.52 128.18 104.52 Z " fill="#1F77B4" fill-opacity="0.60" stroke="none" stroke-opacity="0.00" stroke-width="0.00" stroke-linecap="butt" stroke-linejoin="round"/>
<text font-family="DejaVu Sans" font-size="16.67" fill="#000000" fill-opacity="1.00" text-anchor="middle" transform="translate(410.00,449.33) scale(1,-1)">Categorical Scatter Plot</text>
<path d="M 128.50 55.50 L 128.50 50.50 " fill="none" fill-opacity="0.00" stroke="#000000" stroke-opacity="1.00" stroke-width="0.80" stroke-linecap="butt" stroke-linejoin="miter"/>
<text font-family="DejaVu Sans" font-size="13.89" fill="#000000" fill-opacity="1.00" text-anchor="middle" dominant-baseline="text-before-edge" transform="translate(128.18,45.28) scale(1,-1)">Alpha</text>
<path d="M 269.50 55.50 L 269.50 50.50 " fill="none" fill-opacity="0.00" stroke="#000000" stroke-opacity="1.00" stroke-width="0.80" stroke-linecap="butt" stroke-linejoin="miter"/>
<text font-family="DejaVu Sans" font-size="13.89" fill="#000000" fill-opacity="1.00" text-anchor="middle" dominant-baseline="text-before-edge" transform="translate(269.09,45.28) scale(1,-1)">Beta</text>
<path d="M 410.50 55.50 L 410.50 50.50 " fill="none" fill-opacity="0.00" stroke="#000000" stroke-opacity="1.00" stroke-width="0.80" stroke-linecap="butt" stroke-linejoin="miter"/>
<text font-family="DejaVu Sans" font-size="13.89" fill="#000000" fill-opacity="1.00" text-anchor="middle" dominant-baseline="text-before-edge" transform="translate(410.00,45.28) scale(1,-1)">Gamma</text>
<path d="M 551.50 55.50 L 551.50 50.50 " fill="none" fill-opacity="0.00" stroke="#000000" stroke-opacity="1.00" stroke-width="0.80" stroke-linecap="butt" stroke-linejoin="miter"/>
<text font-family="DejaVu Sans" font-size="13.89" fill="#000000" fill-opacity="1.00" text-anchor="middle" dominant-baseline="text-before-edge" transform="translate(550.91,45.28) scale(1,-1)">Delta</text>
<path d="M 692.50 55.50 L 692.50 50.50 " fill="none" fill-opacity="0.00" stroke="#000000" stroke-opacity="1.00" stroke-width="0.80" stroke-linecap="butt" stroke-linejoin="miter"/>
<text font-family="DejaVu Sans" font-size="13.89" fill="#000000" fill-opacity="1.00" text-anchor="middle" dominant-baseline="text-before-edge" transform="translate(691.82,45.28) scale(1,-1)">Epsilon</text>
<text font-family="DejaVu Sans" font-size="13.89" fill="#000000" fill-opacity="1.00" text-anchor="middle" dominant-baseline="text-before-edge" transform="translate(410.00,26.17) scale(1,-1)">Category</text>
<path d="M 100.50 107.50 L 95.50 107.50 " fill="none" fill-opacity="0.00" stroke="#000000" stroke-opacity="1.00" stroke-width="0.80" stroke-linecap="butt" stroke-linejoin="miter"/>
<text font-family="DejaVu Sans" font-size="13.89" fill="#000000" fill-opacity="1.00" text-anchor="end" dominant-baseline="central" transform="translate(90.28,108.16) scale(1,-1)">0</text>
<path d="M 100.50 172.50 L 95.50 172.50 " fill="none" fill-opacity="0.00" stroke="#000000" stroke-opacity="1.00" stroke-width="0.80" stroke-linecap="butt" stroke-linejoin="miter"/>
<text font-family="DejaVu Sans" font-size="13.89" fill="#000000" fill-opacity="1.00" text-anchor="end" dominant-baseline="central" transform="translate(90.28,172.91) scale(1,-1)">1</text>
<path d="M 100.50 237.50 L 95.50 237.50 " fill="none" fill-opacity="0.00" stroke="#000000" stroke-opacity="1.00" stroke-width="0.80" stroke-linecap="butt" stroke-linejoin="miter"/>
<text font-family="DejaVu Sans" font-size="13.89" fill="#000000" fill-opacity="1.00" text-anchor="end" dominant-baseline="central" transform="translate(90.28,237.66) scale(1,-1)">2</text>
<path d="M 100.50 301.50 L 95.50 301.50 " fill="none" fill-opacity="0.00" stroke="#000000" stroke-opacity="1.00" stroke-width="0.80" stroke-linecap="butt" stroke-linejoin="miter"/>
<text font-family="DejaVu Sans" font-size="13.89" fill="#000000" fill-opacity="1.00" text-anchor="end" dominant-baseline="central" transform="translate(90.28,302.42) scale(1,-1)">3</text>
<path d="M 100.50 366.50 L 95.50 366.50 " fill="none" fill-opacity="0.00" stroke="#000000" stroke-opacity="1.00" stroke-width="0.80" stroke-linecap="butt" stroke-linejoin="miter"/>
<text font-family="DejaVu Sans" font-size="13.89" fill="#000000" fill-opacity="1.00" text-anchor="end" dominant-baseline="central" transform="translate(90.28,367.17) scale(1,-1)">4</text>
<path d="M 100.50 431.50 L 95.50 431.50 " fill="none" fill-opacity="0.00" stroke="#000000" stroke-opacity="1.00" stroke-width="0.80" stroke-linecap="butt" stroke-linejoin="miter"/>
<text font-family="DejaVu Sans" font-size="13.89" fill="#000000" fill-opacity="1.00" text-anchor="end" dominant-baseline="central" transform="translate(90.28,431.92) scale(1,-1)">5</text>
<text font-family="DejaVu Sans" font-size="13.89" fill="#000000" fill-opacity="1.00" text-anchor="middle" transform="translate(69.26,247.50) rotate(90.00) scale(1,-1)">Value</text>
<path d="M 100.50 55.50 L 100.50 440.50 " fill="none" fill-opacity="0.00" stroke="#000000" stroke-opacity="1.00" stroke-width="0.80" stroke-linecap="square" stroke-linejoin="miter"/>
<path d="M 720.50 55.50 L 720.50 440.50 " fill="none" fill-opacity="0.00" stroke="#000000" stroke-opacity="1.00" stroke-width="0.80" stroke-linecap="square" stroke-linejoin="miter"/>
<path d="M 100.50 54.50 L 720.50 54.50 " fill="none" fill-opacity="0.00" stroke="#000000" stroke-opacity="1.00" stroke-width="0.80" stroke-linecap="square" stroke-linejoin="miter"/>
<path d="M 100.50 439.50 L 720.50 439.50 " fill="none" fill-opacity="0.00" stroke="#000000" stroke-opacity="1.00" stroke-width="0.80" stroke-linecap="square" stroke-linejoin="miter"/>
</g>
</svg>
