<?xml version="1.0" encoding="UTF-8"?>
<svg xmlns="http://www.w3.org/2000/svg"
     xmlns:xlink="http://www.w3.org/1999/xlink"
     width="800" height="600" viewBox="0 0 800 600">
<defs>
<clipPath id="clip-1">
<rect x="100.00" y="66.00" width="620.00" height="462.00"/>
</clipPath>
<clipPath id="clip-2">
<rect x="100.00" y="66.00" width="620.00" height="462.00"/>
</clipPath>
<clipPath id="clip-3">
<rect x="100.00" y="66.00" width="620.00" height="462.00"/>
</clipPath>
<clipPath id="clip-4">
<rect x="100.00" y="66.00" width="620.00" height="462.00"/>
</clipPath>
<clipPath id="clip-5">
<rect x="100.00" y="66.00" width="620.00" height="462.00"/>
</clipPath>
<clipPath id="clip-6">
<rect x="100.00" y="66.00" width="620.00" height="462.00"/>
</clipPath>
<clipPath id="clip-7">
<rect x="100.00" y="66.00" width="620.00" height="462.00"/>
</clipPath>
<clipPath id="clip-8">
<rect x="100.00" y="66.00" width="620.00" height="462.00"/>
</clipPath>
<clipPath id="clip-9">
<rect x="100.00" y="66.00" width="620.00" height="462.00"/>
</clipPath>
<clipPath id="clip-10">
<rect x="100.00" y="66.00" width="620.00" height="462.00"/>
</clipPath>
<clipPath id="clip-11">
<rect x="100.00" y="66.00" width="620.00" height="462.00"/>
</clipPath>
<clipPath id="clip-12">
<rect x="100.00" y="66.00" width="620.00" height="462.00"/>
</clipPath>
<clipPath id="clip-13">
<rect x="100.00" y="66.00" width="620.00" height="462.00"/>
</clipPath>
<clipPath id="clip-14">
<rect x="100.00" y="66.00" width="620.00" height="462.00"/>
</clipPath>
<clipPath id="clip-15">
<rect x="100.00" y="66.00" width="620.00" height="462.00"/>
</clipPath>
<clipPath id="clip-16">
<rect x="100.00" y="66.00" width="620.00" height="462.00"/>
</clipPath>
</defs>
<g transform="translate(0,600) scale(1,-1)">
<rect width="800" height="600" fill="white"/>
<path d="M 0.00 0.00 L 800.00 0.00 L 800.00 600.00 L 0.00 600.00 L 0.00 0.00 Z " fill="#FFFFFF" fill-opacity="1.00" stroke="#000000" stroke-opacity="1.00" stroke-width="0.00" stroke-linecap="butt" stroke-linejoin="miter"/>
<path d="M 100.00 66.00 L 720.00 66.00 L 720.00 528.00 L 100.00 528.00 L 100.00 66.00 Z " fill="#FFFFFF" fill-opacity="1.00" stroke="none" stroke-opacity="0.00" stroke-width="0.00" stroke-linecap="butt" stroke-linejoin="miter"/>
<path d="M 128.50 66.50 L 128.50 528.50 " fill="none" fill-opacity="0.00" stroke="#B0B0B0" stroke-opacity="1.00" stroke-width="0.80" stroke-linecap="butt" stroke-linejoin="miter" clip-path="url(#clip-1)"/>
<path d="M 219.50 66.50 L 219.50 528.50 " fill="none" fill-opacity="0.00" stroke="#B0B0B0" stroke-opacity="1.00" stroke-width="0.80" stroke-linecap="butt" stroke-linejoin="miter" clip-path="url(#clip-2)"/>
<path d="M 309.50 66.50 L 309.50 528.50 " fill="none" fill-opacity="0.00" stroke="#B0B0B0" stroke-opacity="1.00" stroke-width="0.80" stroke-linecap="butt" stroke-linejoin="miter" clip-path="url(#clip-3)"/>
<path d="M 399.50 66.50 L 399.50 528.50 " fill="none" fill-opacity="0.00" stroke="#B0B0B0" stroke-opacity="1.00" stroke-width="0.80" stroke-linecap="butt" stroke-linejoin="miter" clip-path="url(#clip-4)"/>
<path d="M 490.50 66.50 L 490.50 528.50 " fill="none" fill-opacity="0.00" stroke="#B0B0B0" stroke-opacity="1.00" stroke-width="0.80" stroke-linecap="butt" stroke-linejoin="miter" clip-path="url(#clip-5)"/>
<path d="M 580.50 66.50 L 580.50 528.50 " fill="none" fill-opacity="0.00" stroke="#B0B0B0" stroke-opacity="1.00" stroke-width="0.80" stroke-linecap="butt" stroke-linejoin="miter" clip-path="url(#clip-6)"/>
<path d="M 670.50 66.50 L 670.50 528.50 " fill="none" fill-opacity="0.00" stroke="#B0B0B0" stroke-opacity="1.00" stroke-width="0.80" stroke-linecap="butt" stroke-linejoin="miter" clip-path="url(#clip-7)"/>
<path d="M 100.50 86.50 L 720.50 86.50 " fill="none" fill-opacity="0.00" stroke="#B0B0B0" stroke-opacity="1.00" stroke-width="0.80" stroke-linecap="butt" stroke-linejoin="miter" clip-path="url(#clip-8)"/>
<path d="M 100.50 138.50 L 720.50 138.50 " fill="none" fill-opacity="0.00" stroke="#B0B0B0" stroke-opacity="1.00" stroke-width="0.80" stroke-linecap="butt" stroke-linejoin="miter" clip-path="url(#clip-9)"/>
<path d="M 100.50 191.50 L 720.50 191.50 " fill="none" fill-opacity="0.00" stroke="#B0B0B0" stroke-opacity="1.00" stroke-width="0.80" stroke-linecap="butt" stroke-linejoin="miter" clip-path="url(#clip-10)"/>
<path d="M 100.50 243.50 L 720.50 243.50 " fill="none" fill-opacity="0.00" stroke="#B0B0B0" stroke-opacity="1.00" stroke-width="0.80" stroke-linecap="butt" stroke-linejoin="miter" clip-path="url(#clip-11)"/>
<path d="M 100.50 296.50 L 720.50 296.50 " fill="none" fill-opacity="0.00" stroke="#B0B0B0" stroke-opacity="1.00" stroke-width="0.80" stroke-linecap="butt" stroke-linejoin="miter" clip-path="url(#clip-12)"/>
<path d="M 100.50 349.50 L 720.50 349.50 " fill="none" fill-opacity="0.00" stroke="#B0B0B0" stroke-opacity="1.00" stroke-width="0.80" stroke-linecap="butt" stroke-linejoin="miter" clip-path="url(#clip-13)"/>
<path d="M 100.50 401.50 L 720.50 401.50 " fill="none" fill-opacity="0.00" stroke="#B0B0B0" stroke-opacity="1.00" stroke-width="0.80" stroke-linecap="butt" stroke-linejoin="miter" clip-path="url(#clip-14)"/>
<path d="M 100.50 454.50 L 720.50 454.50 " fill="none" fill-opacity="0.00" stroke="#B0B0B0" stroke-opacity="1.00" stroke-width="0.80" stroke-linecap="butt" stroke-linejoin="miter" clip-path="url(#clip-15)"/>
<path d="M 100.50 506.50 L 720.50 506.50 " fill="none" fill-opacity="0.00" stroke="#B0B0B0" stroke-opacity="1.00" stroke-width="0.80" stroke-linecap="butt" stroke-linejoin="miter" clip-path="url(#clip-16)"/>
<path d="M 128.18 367.35 L 133.88 354.75 L 139.57 341.93 L 145.26 328.92 L 150.96 315.79 L 156.65 302.58 L 162.34 289.36 L 168.03 276.16 L 173.73 263.04 L 179.42 250.06 L 185.11 237.27 L 190.81 224.71 L 196.50 212.44 L 202.19 200.51 L 207.89 188.96 L 213.58 177.83 L 219.27 167.18 L 224.97 157.05 L 230.66 147.47 L 236.35 138.48 L 242.05 130.13 L 247.74 122.43 L 253.43 115.43 L 259.13 109.14 L 264.82 103.61 L 270.51 98.84 L 276.21 94.85 L 281.90 91.67 L 287.59 89.31 L 293.29 87.76 L 298.98 87.05 L 304.67 87.17 L 310.37 88.12 L 316.06 89.91 L 321.75 92.51 L 327.45 95.93 L 333.14 100.14 L 338.83 105.13 L 344.53 110.89 L 350.22 117.38 L 355.91 124.59 L 361.61 132.48 L 367.30 141.02 L 372.99 150.18 L 378.69 159.93 L 384.38 170.21 L 390.07 181.01 L 395.77 192.26 L 401.46 203.92 L 407.15 215.96 L 412.85 228.32 L 418.54 240.95 L 424.23 253.80 L 429.93 266.83 L 435.62 279.97 L 441.31 293.18 L 447.01 306.41 L 452.70 319.60 L 458.39 332.70 L 464.09 345.66 L 469.78 358.42 L 475.47 370.94 L 481.17 383.17 L 486.86 395.06 L 492.55 406.55 L 498.25 417.62 L 503.94 428.20 L 509.63 438.26 L 515.33 447.77 L 521.02 456.67 L 526.71 464.94 L 532.41 472.55 L 538.10 479.45 L 543.79 485.64 L 549.49 491.07 L 555.18 495.74 L 560.87 499.62 L 566.57 502.69 L 572.26 504.95 L 577.95 506.38 L 583.65 506.98 L 589.34 506.75 L 595.03 505.69 L 600.73 503.79 L 606.42 501.08 L 612.11 497.56 L 617.81 493.24 L 623.50 488.14 L 629.19 482.29 L 634.89 475.70 L 640.58 468.40 L 646.27 460.42 L 651.97 451.79 L 657.66 442.55 L 663.35 432.73 L 669.04 422.37 L 674.74 411.52 L 680.43 400.21 L 686.12 388.49 L 691.82 376.41 " fill="none" fill-opacity="0.00" stroke="#FF7F50" stroke-opacity="1.00" stroke-width="1.50" stroke-linecap="square" stroke-linejoin="round"/>
<path d="M 128.18 438.85 L 133.88 428.82 L 139.57 418.26 L 145.26 407.23 L 150.96 395.76 L 156.65 383.89 L 162.34 371.68 L 168.03 359.18 L 173.73 346.43 L 179.42 333.48 L 185.11 320.39 L 190.81 307.20 L 196.50 293.97 L 202.19 280.76 L 207.89 267.61 L 213.58 254.58 L 219.27 241.71 L 224.97 229.07 L 230.66 216.69 L 236.35 204.64 L 242.05 192.95 L 247.74 181.67 L 253.43 170.85 L 259.13 160.53 L 264.82 150.75 L 270.51 141.55 L 276.21 132.97 L 281.90 125.04 L 287.59 117.79 L 293.29 111.26 L 298.98 105.46 L 304.67 100.42 L 310.37 96.16 L 316.06 92.69 L 321.75 90.04 L 327.45 88.21 L 333.14 87.21 L 338.83 87.04 L 344.53 87.70 L 350.22 89.19 L 355.91 91.51 L 361.61 94.64 L 367.30 98.58 L 372.99 103.30 L 378.69 108.79 L 384.38 115.03 L 390.07 121.99 L 395.77 129.65 L 401.46 137.96 L 407.15 146.91 L 412.85 156.46 L 418.54 166.56 L 424.23 177.18 L 429.93 188.28 L 435.62 199.81 L 441.31 211.72 L 447.01 223.97 L 452.70 236.51 L 458.39 249.29 L 464.09 262.26 L 469.78 275.37 L 475.47 288.56 L 481.17 301.79 L 486.86 315.00 L 492.55 328.14 L 498.25 341.15 L 503.94 353.99 L 509.63 366.60 L 515.33 378.94 L 521.02 390.95 L 526.71 402.59 L 532.41 413.80 L 538.10 424.56 L 543.79 434.81 L 549.49 444.51 L 555.18 453.63 L 560.87 462.13 L 566.57 469.97 L 572.26 477.12 L 577.95 483.56 L 583.65 489.26 L 589.34 494.20 L 595.03 498.35 L 600.73 501.71 L 606.42 504.25 L 612.11 505.97 L 617.81 506.87 L 623.50 506.93 L 629.19 506.15 L 634.89 504.55 L 640.58 502.12 L 646.27 498.88 L 651.97 494.84 L 657.66 490.01 L 663.35 484.42 L 669.04 478.08 L 674.74 471.03 L 680.43 463.28 L 686.12 454.88 L 691.82 445.85 " fill="none" fill-opacity="0.00" stroke="#008080" stroke-opacity="1.00" stroke-width="1.50" stroke-linecap="square" stroke-linejoin="round"/>
<path d="M 128.18 487.95 L 133.88 482.07 L 139.57 475.46 L 145.26 468.13 L 150.96 460.13 L 156.65 451.48 L 162.34 442.22 L 168.03 432.38 L 173.73 422.01 L 179.42 411.13 L 185.11 399.81 L 190.81 388.08 L 196.50 375.98 L 202.19 363.58 L 207.89 350.90 L 213.58 338.02 L 219.27 324.97 L 224.97 311.81 L 230.66 298.59 L 236.35 285.37 L 242.05 272.19 L 247.74 259.11 L 253.43 246.18 L 259.13 233.46 L 264.82 220.98 L 270.51 208.81 L 276.21 196.98 L 281.90 185.56 L 287.59 174.57 L 293.29 164.07 L 298.98 154.10 L 304.67 144.70 L 310.37 135.89 L 316.06 127.73 L 321.75 120.24 L 327.45 113.46 L 333.14 107.40 L 338.83 102.09 L 344.53 97.55 L 350.22 93.81 L 355.91 90.87 L 361.61 88.75 L 367.30 87.46 L 372.99 87.00 L 378.69 87.37 L 384.38 88.58 L 390.07 90.61 L 395.77 93.46 L 401.46 97.11 L 407.15 101.56 L 412.85 106.79 L 418.54 112.77 L 424.23 119.48 L 429.93 126.89 L 435.62 134.99 L 441.31 143.72 L 447.01 153.06 L 452.70 162.97 L 458.39 173.42 L 464.09 184.35 L 469.78 195.73 L 475.47 207.52 L 481.17 219.66 L 486.86 232.10 L 492.55 244.80 L 498.25 257.71 L 503.94 270.78 L 509.63 283.95 L 515.33 297.17 L 521.02 310.39 L 526.71 323.56 L 532.41 336.62 L 538.10 349.53 L 543.79 362.22 L 549.49 374.66 L 555.18 386.79 L 560.87 398.57 L 566.57 409.94 L 572.26 420.86 L 577.95 431.29 L 583.65 441.19 L 589.34 450.52 L 595.03 459.23 L 600.73 467.31 L 606.42 474.70 L 612.11 481.40 L 617.81 487.36 L 623.50 492.56 L 629.19 496.99 L 634.89 500.63 L 640.58 503.46 L 646.27 505.47 L 651.97 506.65 L 657.66 507.00 L 663.35 506.52 L 669.04 505.20 L 674.74 503.06 L 680.43 500.10 L 686.12 496.34 L 691.82 491.79 " fill="none" fill-opacity="0.00" stroke="#FF1493" stroke-opacity="1.00" stroke-width="1.50" stroke-linecap="square" stroke-linejoin="round"/>
<path d="M 128.18 506.91 L 133.88 506.11 L 139.57 504.48 L 145.26 502.02 L 150.96 498.75 L 156.65 494.68 L 162.34 489.83 L 168.03 484.21 L 173.73 477.85 L 179.42 470.77 L 185.11 463.00 L 190.81 454.58 L 196.50 445.52 L 202.19 435.88 L 207.89 425.69 L 213.58 414.98 L 219.27 403.81 L 224.97 392.22 L 230.66 380.25 L 236.35 367.94 L 242.05 355.36 L 247.74 342.54 L 253.43 329.54 L 259.13 316.42 L 264.82 303.21 L 270.51 289.99 L 276.21 276.79 L 281.90 263.67 L 287.59 250.68 L 293.29 237.87 L 298.98 225.31 L 304.67 213.02 L 310.37 201.07 L 316.06 189.50 L 321.75 178.35 L 327.45 167.68 L 333.14 157.52 L 338.83 147.91 L 344.53 138.90 L 350.22 130.51 L 355.91 122.78 L 361.61 115.74 L 367.30 109.43 L 372.99 103.85 L 378.69 99.05 L 384.38 95.03 L 390.07 91.81 L 395.77 89.40 L 401.46 87.82 L 407.15 87.07 L 412.85 87.15 L 418.54 88.06 L 424.23 89.80 L 429.93 92.37 L 435.62 95.74 L 441.31 99.92 L 447.01 104.88 L 452.70 110.60 L 458.39 117.05 L 464.09 124.23 L 469.78 132.09 L 475.47 140.60 L 481.17 149.73 L 486.86 159.45 L 492.55 169.71 L 498.25 180.48 L 503.94 191.71 L 509.63 203.36 L 515.33 215.38 L 521.02 227.72 L 526.71 240.34 L 532.41 253.19 L 538.10 266.20 L 543.79 279.34 L 549.49 292.55 L 555.18 305.78 L 560.87 318.97 L 566.57 332.08 L 572.26 345.04 L 577.95 357.82 L 583.65 370.35 L 589.34 382.60 L 595.03 394.50 L 600.73 406.02 L 606.42 417.10 L 612.11 427.71 L 617.81 437.80 L 623.50 447.33 L 629.19 456.26 L 634.89 464.56 L 640.58 472.20 L 646.27 479.14 L 651.97 485.36 L 657.66 490.83 L 663.35 495.54 L 669.04 499.45 L 674.74 502.56 L 680.43 504.86 L 686.12 506.33 L 691.82 506.97 " fill="none" fill-opacity="0.00" stroke="#DAA520" stroke-opacity="1.00" stroke-width="1.50" stroke-linecap="square" stroke-linejoin="round"/>
<path d="M 128.18 492.73 L 133.88 497.13 L 139.57 500.74 L 145.26 503.54 L 150.96 505.52 L 156.65 506.68 L 162.34 507.00 L 168.03 506.48 L 173.73 505.14 L 179.42 502.97 L 185.11 499.99 L 190.81 496.20 L 196.50 491.61 L 202.19 486.26 L 207.89 480.15 L 213.58 473.32 L 219.27 465.79 L 224.97 457.59 L 230.66 448.75 L 236.35 439.31 L 242.05 429.31 L 247.74 418.78 L 253.43 407.76 L 259.13 396.31 L 264.82 384.47 L 270.51 372.27 L 276.21 359.78 L 281.90 347.04 L 287.59 334.10 L 293.29 321.01 L 298.98 307.83 L 304.67 294.60 L 310.37 281.39 L 316.06 268.24 L 321.75 255.20 L 327.45 242.32 L 333.14 229.66 L 338.83 217.28 L 344.53 205.20 L 350.22 193.49 L 355.91 182.19 L 361.61 171.35 L 367.30 161.01 L 372.99 151.20 L 378.69 141.98 L 384.38 133.36 L 390.07 125.40 L 395.77 118.12 L 401.46 111.55 L 407.15 105.71 L 412.85 100.64 L 418.54 96.34 L 424.23 92.84 L 429.93 90.15 L 435.62 88.28 L 441.31 87.23 L 447.01 87.02 L 452.70 87.65 L 458.39 89.10 L 464.09 91.38 L 469.78 94.47 L 475.47 98.37 L 481.17 103.06 L 486.86 108.51 L 492.55 114.72 L 498.25 121.64 L 503.94 129.27 L 509.63 137.55 L 515.33 146.47 L 521.02 155.99 L 526.71 166.07 L 532.41 176.67 L 538.10 187.74 L 543.79 199.25 L 549.49 211.14 L 555.18 223.38 L 560.87 235.91 L 566.57 248.68 L 572.26 261.64 L 577.95 274.74 L 583.65 287.93 L 589.34 301.16 L 595.03 314.37 L 600.73 327.51 L 606.42 340.53 L 612.11 353.38 L 617.81 366.01 L 623.50 378.36 L 629.19 390.38 L 634.89 402.04 L 640.58 413.28 L 646.27 424.06 L 651.97 434.33 L 657.66 444.06 L 663.35 453.21 L 669.04 461.74 L 674.74 469.61 L 680.43 476.80 L 686.12 483.27 L 691.82 489.01 " fill="none" fill-opacity="0.00" stroke="#9932CC" stroke-opacity="1.00" stroke-width="1.50" stroke-linecap="square" stroke-linejoin="round"/>
<path d="M 128.18 447.65 L 133.88 456.56 L 139.57 464.84 L 145.26 472.45 L 150.96 479.37 L 156.65 485.56 L 162.34 491.01 L 168.03 495.68 L 173.73 499.57 L 179.42 502.66 L 185.11 504.92 L 190.81 506.37 L 196.50 506.98 L 202.19 506.76 L 207.89 505.70 L 213.58 503.82 L 219.27 501.12 L 224.97 497.61 L 230.66 493.30 L 236.35 488.22 L 242.05 482.37 L 247.74 475.79 L 253.43 468.50 L 259.13 460.53 L 264.82 451.91 L 270.51 442.68 L 276.21 432.86 L 281.90 422.51 L 287.59 411.66 L 293.29 400.36 L 298.98 388.64 L 304.67 376.57 L 310.37 364.17 L 316.06 351.51 L 321.75 338.64 L 327.45 325.60 L 333.14 312.44 L 338.83 299.22 L 344.53 286.00 L 350.22 272.82 L 355.91 259.73 L 361.61 246.80 L 367.30 234.06 L 372.99 221.57 L 378.69 209.38 L 384.38 197.54 L 390.07 186.09 L 395.77 175.08 L 401.46 164.56 L 407.15 154.56 L 412.85 145.13 L 418.54 136.30 L 424.23 128.11 L 429.93 120.58 L 435.62 113.76 L 441.31 107.67 L 447.01 102.32 L 452.70 97.75 L 458.39 93.97 L 464.09 90.99 L 469.78 88.84 L 475.47 87.50 L 481.17 87.00 L 486.86 87.34 L 492.55 88.50 L 498.25 90.49 L 503.94 93.30 L 509.63 96.92 L 515.33 101.33 L 521.02 106.52 L 526.71 112.47 L 532.41 119.14 L 538.10 126.53 L 543.79 134.59 L 549.49 143.29 L 555.18 152.60 L 560.87 162.49 L 566.57 172.91 L 572.26 183.82 L 577.95 195.18 L 583.65 206.95 L 589.34 219.07 L 595.03 231.50 L 600.73 244.19 L 606.42 257.10 L 612.11 270.15 L 617.81 283.32 L 623.50 296.54 L 629.19 309.76 L 634.89 322.94 L 640.58 336.00 L 646.27 348.92 L 651.97 361.63 L 657.66 374.08 L 663.35 386.22 L 669.04 398.01 L 674.74 409.41 L 680.43 420.35 L 686.12 430.81 L 691.82 440.73 " fill="none" fill-opacity="0.00" stroke="#2E8B57" stroke-opacity="1.00" stroke-width="1.50" stroke-linecap="square" stroke-linejoin="round"/>
<path d="M 128.18 378.78 L 133.88 390.79 L 139.57 402.44 L 145.26 413.66 L 150.96 424.42 L 156.65 434.68 L 162.34 444.39 L 168.03 453.52 L 173.73 462.02 L 179.42 469.87 L 185.11 477.03 L 190.81 483.48 L 196.50 489.19 L 202.19 494.14 L 207.89 498.31 L 213.58 501.67 L 219.27 504.23 L 224.97 505.96 L 230.66 506.86 L 236.35 506.93 L 242.05 506.17 L 247.74 504.57 L 253.43 502.16 L 259.13 498.93 L 264.82 494.90 L 270.51 490.08 L 276.21 484.50 L 281.90 478.17 L 287.59 471.12 L 293.29 463.39 L 298.98 454.99 L 304.67 445.97 L 310.37 436.35 L 316.06 426.19 L 321.75 415.51 L 327.45 404.36 L 333.14 392.78 L 338.83 380.82 L 344.53 368.53 L 350.22 355.96 L 355.91 343.16 L 361.61 330.17 L 367.30 317.04 L 372.99 303.84 L 378.69 290.62 L 384.38 277.41 L 390.07 264.29 L 395.77 251.29 L 401.46 238.48 L 407.15 225.90 L 412.85 213.60 L 418.54 201.63 L 424.23 190.04 L 429.93 178.87 L 435.62 168.18 L 441.31 157.99 L 447.01 148.36 L 452.70 139.31 L 458.39 130.89 L 464.09 123.13 L 469.78 116.06 L 475.47 109.71 L 481.17 104.10 L 486.86 99.26 L 492.55 95.20 L 498.25 91.94 L 503.94 89.50 L 509.63 87.88 L 515.33 87.08 L 521.02 87.12 L 526.71 88.00 L 532.41 89.70 L 538.10 92.23 L 543.79 95.57 L 549.49 99.70 L 555.18 104.62 L 560.87 110.31 L 566.57 116.73 L 572.26 123.87 L 577.95 131.70 L 583.65 140.18 L 589.34 149.28 L 595.03 158.97 L 600.73 169.21 L 606.42 179.96 L 612.11 191.17 L 617.81 202.80 L 623.50 214.80 L 629.19 227.13 L 634.89 239.74 L 640.58 252.57 L 646.27 265.58 L 651.97 278.71 L 657.66 291.92 L 663.35 305.15 L 669.04 318.34 L 674.74 331.46 L 680.43 344.43 L 686.12 357.21 L 691.82 369.76 " fill="none" fill-opacity="0.00" stroke="#FF6347" stroke-opacity="1.00" stroke-width="1.50" stroke-linecap="square" stroke-linejoin="round"/>
<path d="M 128.18 297.00 L 133.88 310.22 L 139.57 323.39 L 145.26 336.45 L 150.96 349.36 L 156.65 362.06 L 162.34 374.50 L 168.03 386.64 L 173.73 398.42 L 179.42 409.79 L 185.11 420.72 L 190.81 431.16 L 196.50 441.06 L 202.19 450.40 L 207.89 459.12 L 213.58 467.21 L 219.27 474.61 L 224.97 481.31 L 230.66 487.29 L 236.35 492.50 L 242.05 496.94 L 247.74 500.59 L 253.43 503.43 L 259.13 505.45 L 264.82 506.64 L 270.51 507.00 L 276.21 506.53 L 281.90 505.22 L 287.59 503.09 L 293.29 500.15 L 298.98 496.39 L 304.67 491.85 L 310.37 486.53 L 316.06 480.46 L 321.75 473.66 L 327.45 466.17 L 333.14 458.00 L 338.83 449.19 L 344.53 439.78 L 350.22 429.80 L 355.91 419.29 L 361.61 408.30 L 367.30 396.87 L 372.99 385.04 L 378.69 372.86 L 384.38 360.38 L 390.07 347.65 L 395.77 334.72 L 401.46 321.64 L 407.15 308.46 L 412.85 295.23 L 418.54 282.02 L 424.23 268.86 L 429.93 255.81 L 435.62 242.93 L 441.31 230.26 L 447.01 217.86 L 452.70 205.77 L 458.39 194.04 L 464.09 182.72 L 469.78 171.86 L 475.47 161.49 L 481.17 151.66 L 486.86 142.40 L 492.55 133.76 L 498.25 125.77 L 503.94 118.45 L 509.63 111.85 L 515.33 105.98 L 521.02 100.86 L 526.71 96.53 L 532.41 92.99 L 538.10 90.26 L 543.79 88.35 L 549.49 87.27 L 555.18 87.02 L 560.87 87.60 L 566.57 89.01 L 572.26 91.25 L 577.95 94.31 L 583.65 98.17 L 589.34 102.82 L 595.03 108.24 L 600.73 114.40 L 606.42 121.30 L 612.11 128.89 L 617.81 137.14 L 623.50 146.04 L 629.19 155.53 L 634.89 165.58 L 640.58 176.15 L 646.27 187.20 L 651.97 198.69 L 657.66 210.57 L 663.35 222.79 L 669.04 235.30 L 674.74 248.07 L 680.43 261.02 L 686.12 274.12 L 691.82 287.30 " fill="none" fill-opacity="0.00" stroke="#4682B4" stroke-opacity="1.00" stroke-width="1.50" stroke-linecap="square" stroke-linejoin="round"/>
<text font-family="DejaVu Sans" font-size="16.67" fill="#000000" fill-opacity="1.00" text-anchor="middle" transform="translate(410.00,537.33) scale(1,-1)">Color Cycle — Phase-Shifted Sine Waves</text>
<path d="M 348.41 350.22 L 471.59 350.22 L 471.59 521.06 L 348.41 521.06 L 348.41 350.22 Z " fill="#FFFFFF" fill-opacity="0.80" stroke="#CCCCCC" stroke-opacity="1.00" stroke-width="0.80" stroke-linecap="butt" stroke-linejoin="miter"/>
<path d="M 354.50 509.50 L 382.50 509.50 " fill="none" fill-opacity="0.00" stroke="#4682B4" stroke-opacity="1.00" stroke-width="1.50" stroke-linecap="butt" stroke-linejoin="miter"/>
<text font-family="DejaVu Sans" font-size="13.89" fill="#000000" fill-opacity="1.00" text-anchor="start" dominant-baseline="central" transform="translate(392.85,508.56) scale(1,-1)">phi = 0.0</text>
<path d="M 354.50 488.50 L 382.50 488.50 " fill="none" fill-opacity="0.00" stroke="#FF6347" stroke-opacity="1.00" stroke-width="1.50" stroke-linecap="butt" stroke-linejoin="miter"/>
<text font-family="DejaVu Sans" font-size="13.89" fill="#000000" fill-opacity="1.00" text-anchor="start" dominant-baseline="central" transform="translate(392.85,487.72) scale(1,-1)">phi = 0.4</text>
<path d="M 354.50 467.50 L 382.50 467.50 " fill="none" fill-opacity="0.00" stroke="#2E8B57" stroke-opacity="1.00" stroke-width="1.50" stroke-linecap="butt" stroke-linejoin="miter"/>
<text font-family="DejaVu Sans" font-size="13.89" fill="#000000" fill-opacity="1.00" text-anchor="start" dominant-baseline="central" transform="translate(392.85,466.89) scale(1,-1)">phi = 0.8</text>
<path d="M 354.50 446.50 L 382.50 446.50 " fill="none" fill-opacity="0.00" stroke="#9932CC" stroke-opacity="1.00" stroke-width="1.50" stroke-linecap="butt" stroke-linejoin="miter"/>
<text font-family="DejaVu Sans" font-size="13.89" fill="#000000" fill-opacity="1.00" text-anchor="start" dominant-baseline="central" transform="translate(392.85,446.06) scale(1,-1)">phi = 1.2</text>
<path d="M 354.50 425.50 L 382.50 425.50 " fill="none" fill-opacity="0.00" stroke="#DAA520" stroke-opacity="1.00" stroke-width="1.50" stroke-linecap="butt" stroke-linejoin="miter"/>
<text font-family="DejaVu Sans" font-size="13.89" fill="#000000" fill-opacity="1.00" text-anchor="start" dominant-baseline="central" transform="translate(392.85,425.22) scale(1,-1)">phi = 1.6</text>
<path d="M 354.50 404.50 L 382.50 404.50 " fill="none" fill-opacity="0.00" stroke="#FF1493" stroke-opacity="1.00" stroke-width="1.50" stroke-linecap="butt" stroke-linejoin="miter"/>
<text font-family="DejaVu Sans" font-size="13.89" fill="#000000" fill-opacity="1.00" text-anchor="start" dominant-baseline="central" transform="translate(392.85,404.39) scale(1,-1)">phi = 2.0</text>
<path d="M 354.50 384.50 L 382.50 384.50 " fill="none" fill-opacity="0.00" stroke="#008080" stroke-opacity="1.00" stroke-width="1.50" stroke-linecap="butt" stroke-linejoin="miter"/>
<text font-family="DejaVu Sans" font-size="13.89" fill="#000000" fill-opacity="1.00" text-anchor="start" dominant-baseline="central" transform="translate(392.85,383.56) scale(1,-1)">phi = 2.4</text>
<path d="M 354.50 363.50 L 382.50 363.50 " fill="none" fill-opacity="0.00" stroke="#FF7F50" stroke-opacity="1.00" stroke-width="1.50" stroke-linecap="butt" stroke-linejoin="miter"/>
<text font-family="DejaVu Sans" font-size="13.89" fill="#000000" fill-opacity="1.00" text-anchor="start" dominant-baseline="central" transform="translate(392.85,362.72) scale(1,-1)">phi = 2.8</text>
<path d="M 128.50 66.50 L 128.50 61.50 " fill="none" fill-opacity="0.00" stroke="#000000" stroke-opacity="1.00" stroke-width="0.80" stroke-linecap="butt" stroke-linejoin="miter"/>
<text font-family="DejaVu Sans" font-size="13.89" fill="#000000" fill-opacity="1.00" text-anchor="middle" dominant-baseline="text-before-edge" transform="translate(128.18,56.28) scale(1,-1)">0</text>
<path d="M 219.50 66.50 L 219.50 61.50 " fill="none" fill-opacity="0.00" stroke="#000000" stroke-opacity="1.00" stroke-width="0.80" stroke-linecap="butt" stroke-linejoin="miter"/>
<text font-family="DejaVu Sans" font-size="13.89" fill="#000000" fill-opacity="1.00" text-anchor="middle" dominant-baseline="text-before-edge" transform="translate(218.55,56.28) scale(1,-1)">1</text>
<path d="M 309.50 66.50 L 309.50 61.50 " fill="none" fill-opacity="0.00" stroke="#000000" stroke-opacity="1.00" stroke-width="0.80" stroke-linecap="butt" stroke-linejoin="miter"/>
<text font-family="DejaVu Sans" font-size="13.89" fill="#000000" fill-opacity="1.00" text-anchor="middle" dominant-baseline="text-before-edge" transform="translate(308.92,56.28) scale(1,-1)">2</text>
<path d="M 399.50 66.50 L 399.50 61.50 " fill="none" fill-opacity="0.00" stroke="#000000" stroke-opacity="1.00" stroke-width="0.80" stroke-linecap="butt" stroke-linejoin="miter"/>
<text font-family="DejaVu Sans" font-size="13.89" fill="#000000" fill-opacity="1.00" text-anchor="middle" dominant-baseline="text-before-edge" transform="translate(399.29,56.28) scale(1,-1)">3</text>
<path d="M 490.50 66.50 L 490.50 61.50 " fill="none" fill-opacity="0.00" stroke="#000000" stroke-opacity="1.00" stroke-width="0.80" stroke-linecap="butt" stroke-linejoin="miter"/>
<text font-family="DejaVu Sans" font-size="13.89" fill="#000000" fill-opacity="1.00" text-anchor="middle" dominant-baseline="text-before-edge" transform="translate(489.66,56.28) scale(1,-1)">4</text>
<path d="M 580.50 66.50 L 580.50 61.50 " fill="none" fill-opacity="0.00" stroke="#000000" stroke-opacity="1.00" stroke-width="0.80" stroke-linecap="butt" stroke-linejoin="miter"/>
<text font-family="DejaVu Sans" font-size="13.89" fill="#000000" fill-opacity="1.00" text-anchor="middle" dominant-baseline="text-before-edge" transform="translate(580.03,56.28) scale(1,-1)">5</text>
<path d="M 670.50 66.50 L 670.50 61.50 " fill="none" fill-opacity="0.00" stroke="#000000" stroke-opacity="1.00" stroke-width="0.80" stroke-linecap="butt" stroke-linejoin="miter"/>
<text font-family="DejaVu Sans" font-size="13.89" fill="#000000" fill-opacity="1.00" text-anchor="middle" dominant-baseline="text-before-edge" transform="translate(670.40,56.28) scale(1,-1)">6</text>
<text font-family="DejaVu Sans" font-size="13.89" fill="#000000" fill-opacity="1.00" text-anchor="middle" dominant-baseline="text-before-edge" transform="translate(410.00,37.17) scale(1,-1)">x</text>
<path d="M 100.50 86.50 L 95.50 86.50 " fill="none" fill-opacity="0.00" stroke="#000000" stroke-opacity="1.00" stroke-width="0.80" stroke-linecap="butt" stroke-linejoin="miter"/>
<text font-family="DejaVu Sans" font-size="13.89" fill="#000000" fill-opacity="1.00" text-anchor="end" dominant-baseline="central" transform="translate(90.28,87.00) scale(1,-1)">-1.00</text>
<path d="M 100.50 138.50 L 95.50 138.50 " fill="none" fill-opacity="0.00" stroke="#000000" stroke-opacity="1.00" stroke-width="0.80" stroke-linecap="butt" stroke-linejoin="miter"/>
<text font-family="DejaVu Sans" font-size="13.89" fill="#000000" fill-opacity="1.00" text-anchor="end" dominant-baseline="central" transform="translate(90.28,139.50) scale(1,-1)">-0.75</text>
<path d="M 100.50 191.50 L 95.50 191.50 " fill="none" fill-opacity="0.00" stroke="#000000" stroke-opacity="1.00" stroke-width="0.80" stroke-linecap="butt" stroke-linejoin="miter"/>
<text font-family="DejaVu Sans" font-size="13.89" fill="#000000" fill-opacity="1.00" text-anchor="end" dominant-baseline="central" transform="translate(90.28,192.00) scale(1,-1)">-0.50</text>
<path d="M 100.50 243.50 L 95.50 243.50 " fill="none" fill-opacity="0.00" stroke="#000000" stroke-opacity="1.00" stroke-width="0.80" stroke-linecap="butt" stroke-linejoin="miter"/>
<text font-family="DejaVu Sans" font-size="13.89" fill="#000000" fill-opacity="1.00" text-anchor="end" dominant-baseline="central" transform="translate(90.28,244.50) scale(1,-1)">-0.25</text>
<path d="M 100.50 296.50 L 95.50 296.50 " fill="none" fill-opacity="0.00" stroke="#000000" stroke-opacity="1.00" stroke-width="0.80" stroke-linecap="butt" stroke-linejoin="miter"/>
<text font-family="DejaVu Sans" font-size="13.89" fill="#000000" fill-opacity="1.00" text-anchor="end" dominant-baseline="central" transform="translate(90.28,297.00) scale(1,-1)">0.00</text>
<path d="M 100.50 349.50 L 95.50 349.50 " fill="none" fill-opacity="0.00" stroke="#000000" stroke-opacity="1.00" stroke-width="0.80" stroke-linecap="butt" stroke-linejoin="miter"/>
<text font-family="DejaVu Sans" font-size="13.89" fill="#000000" fill-opacity="1.00" text-anchor="end" dominant-baseline="central" transform="translate(90.28,349.50) scale(1,-1)">0.25</text>
<path d="M 100.50 401.50 L 95.50 401.50 " fill="none" fill-opacity="0.00" stroke="#000000" stroke-opacity="1.00" stroke-width="0.80" stroke-linecap="butt" stroke-linejoin="miter"/>
<text font-family="DejaVu Sans" font-size="13.89" fill="#000000" fill-opacity="1.00" text-anchor="end" dominant-baseline="central" transform="translate(90.28,402.00) scale(1,-1)">0.50</text>
<path d="M 100.50 454.50 L 95.50 454.50 " fill="none" fill-opacity="0.00" stroke="#000000" stroke-opacity="1.00" stroke-width="0.80" stroke-linecap="butt" stroke-linejoin="miter"/>
<text font-family="DejaVu Sans" font-size="13.89" fill="#000000" fill-opacity="1.00" text-anchor="end" dominant-baseline="central" transform="translate(90.28,454.50) scale(1,-1)">0.75</text>
<path d="M 100.50 506.50 L 95.50 506.50 " fill="none" fill-opacity="0.00" stroke="#000000" stroke-opacity="1.00" stroke-width="0.80" stroke-linecap="butt" stroke-linejoin="miter"/>
<text font-family="DejaVu Sans" font-size="13.89" fill="#000000" fill-opacity="1.00" text-anchor="end" dominant-baseline="central" transform="translate(90.28,507.00) scale(1,-1)">1.00</text>
<text font-family="DejaVu Sans" font-size="13.89" fill="#000000" fill-opacity="1.00" text-anchor="middle" transform="translate(35.68,297.00) rotate(-90.00) scale(1,-1)">sin(x + phi)</text>
<path d="M 100.50 66.50 L 100.50 528.50 " fill="none" fill-opacity="0.00" stroke="#000000" stroke-opacity="1.00" stroke-width="0.80" stroke-linecap="square" stroke-linejoin="miter"/>
<path d="M 720.50 66.50 L 720.50 528.50 " fill="none" fill-opacity="0.00" stroke="#000000" stroke-opacity="1.00" stroke-width="0.80" stroke-linecap="square" stroke-linejoin="miter"/>
<path d="M 100.50 65.50 L 720.50 65.50 " fill="none" fill-opacity="0.00" stroke="#000000" stroke-opacity="1.00" stroke-width="0.80" stroke-linecap="square" stroke-linejoin="miter"/>
<path d="M 100.50 527.50 L 720.50 527.50 " fill="none" fill-opacity="0.00" stroke="#000000" stroke-opacity="1.00" stroke-width="0.80" stroke-linecap="square" stroke-linejoin="miter"/>
<path d="M 348.41 350.22 L 471.59 350.22 L 471.59 521.06 L 348.41 521.06 L 348.41 350.22 Z " fill="#FFFFFF" fill-opacity="0.80" stroke="#CCCCCC" stroke-opacity="1.00" stroke-width="0.80" stroke-linecap="butt" stroke-linejoin="miter"/>
<path d="M 354.50 509.50 L 382.50 509.50 " fill="none" fill-opacity="0.00" stroke="#4682B4" stroke-opacity="1.00" stroke-width="1.50" stroke-linecap="butt" stroke-linejoin="miter"/>
<text font-family="DejaVu Sans" font-size="13.89" fill="#000000" fill-opacity="1.00" text-anchor="start" dominant-baseline="central" transform="translate(392.85,508.56) scale(1,-1)">phi = 0.0</text>
<path d="M 354.50 488.50 L 382.50 488.50 " fill="none" fill-opacity="0.00" stroke="#FF6347" stroke-opacity="1.00" stroke-width="1.50" stroke-linecap="butt" stroke-linejoin="miter"/>
<text font-family="DejaVu Sans" font-size="13.89" fill="#000000" fill-opacity="1.00" text-anchor="start" dominant-baseline="central" transform="translate(392.85,487.72) scale(1,-1)">phi = 0.4</text>
<path d="M 354.50 467.50 L 382.50 467.50 " fill="none" fill-opacity="0.00" stroke="#2E8B57" stroke-opacity="1.00" stroke-width="1.50" stroke-linecap="butt" stroke-linejoin="miter"/>
<text font-family="DejaVu Sans" font-size="13.89" fill="#000000" fill-opacity="1.00" text-anchor="start" dominant-baseline="central" transform="translate(392.85,466.89) scale(1,-1)">phi = 0.8</text>
<path d="M 354.50 446.50 L 382.50 446.50 " fill="none" fill-opacity="0.00" stroke="#9932CC" stroke-opacity="1.00" stroke-width="1.50" stroke-linecap="butt" stroke-linejoin="miter"/>
<text font-family="DejaVu Sans" font-size="13.89" fill="#000000" fill-opacity="1.00" text-anchor="start" dominant-baseline="central" transform="translate(392.85,446.06) scale(1,-1)">phi = 1.2</text>
<path d="M 354.50 425.50 L 382.50 425.50 " fill="none" fill-opacity="0.00" stroke="#DAA520" stroke-opacity="1.00" stroke-width="1.50" stroke-linecap="butt" stroke-linejoin="miter"/>
<text font-family="DejaVu Sans" font-size="13.89" fill="#000000" fill-opacity="1.00" text-anchor="start" dominant-baseline="central" transform="translate(392.85,425.22) scale(1,-1)">phi = 1.6</text>
<path d="M 354.50 404.50 L 382.50 404.50 " fill="none" fill-opacity="0.00" stroke="#FF1493" stroke-opacity="1.00" stroke-width="1.50" stroke-linecap="butt" stroke-linejoin="miter"/>
<text font-family="DejaVu Sans" font-size="13.89" fill="#000000" fill-opacity="1.00" text-anchor="start" dominant-baseline="central" transform="translate(392.85,404.39) scale(1,-1)">phi = 2.0</text>
<path d="M 354.50 384.50 L 382.50 384.50 " fill="none" fill-opacity="0.00" stroke="#008080" stroke-opacity="1.00" stroke-width="1.50" stroke-linecap="butt" stroke-linejoin="miter"/>
<text font-family="DejaVu Sans" font-size="13.89" fill="#000000" fill-opacity="1.00" text-anchor="start" dominant-baseline="central" transform="translate(392.85,383.56) scale(1,-1)">phi = 2.4</text>
<path d="M 354.50 363.50 L 382.50 363.50 " fill="none" fill-opacity="0.00" stroke="#FF7F50" stroke-opacity="1.00" stroke-width="1.50" stroke-linecap="butt" stroke-linejoin="miter"/>
<text font-family="DejaVu Sans" font-size="13.89" fill="#000000" fill-opacity="1.00" text-anchor="start" dominant-baseline="central" transform="translate(392.85,362.72) scale(1,-1)">phi = 2.8</text>
</g>
</svg>
