<?xml version="1.0" encoding="UTF-8"?>
<svg xmlns="http://www.w3.org/2000/svg"
     xmlns:xlink="http://www.w3.org/1999/xlink"
     width="800" height="600" viewBox="0 0 800 600">
<defs>
<clipPath id="clip-1">
<rect x="100.00" y="66.00" width="620.00" height="462.00"/>
</clipPath>
<clipPath id="clip-2">
<rect x="100.00" y="66.00" width="620.00" height="462.00"/>
</clipPath>
<clipPath id="clip-3">
<rect x="100.00" y="66.00" width="620.00" height="462.00"/>
</clipPath>
<clipPath id="clip-4">
<rect x="100.00" y="66.00" width="620.00" height="462.00"/>
</clipPath>
<clipPath id="clip-5">
<rect x="100.00" y="66.00" width="620.00" height="462.00"/>
</clipPath>
<clipPath id="clip-6">
<rect x="100.00" y="66.00" width="620.00" height="462.00"/>
</clipPath>
<clipPath id="clip-7">
<rect x="100.00" y="66.00" width="620.00" height="462.00"/>
</clipPath>
<clipPath id="clip-8">
<rect x="100.00" y="66.00" width="620.00" height="462.00"/>
</clipPath>
<clipPath id="clip-9">
<rect x="100.00" y="66.00" width="620.00" height="462.00"/>
</clipPath>
<clipPath id="clip-10">
<rect x="100.00" y="66.00" width="620.00" height="462.00"/>
</clipPath>
<clipPath id="clip-11">
<rect x="100.00" y="66.00" width="620.00" height="462.00"/>
</clipPath>
<clipPath id="clip-12">
<rect x="100.00" y="66.00" width="620.00" height="462.00"/>
</clipPath>
<clipPath id="clip-13">
<rect x="100.00" y="66.00" width="620.00" height="462.00"/>
</clipPath>
<clipPath id="clip-14">
<rect x="100.00" y="66.00" width="620.00" height="462.00"/>
</clipPath>
</defs>
<g transform="translate(0,600) scale(1,-1)">
<rect width="800" height="600" fill="white"/>
<path d="M 0.00 0.00 L 800.00 0.00 L 800.00 600.00 L 0.00 600.00 L 0.00 0.00 Z " fill="#FFFFFF" fill-opacity="1.00" stroke="#000000" stroke-opacity="1.00" stroke-width="0.00" stroke-linecap="butt" stroke-linejoin="miter"/>
<path d="M 100.00 66.00 L 720.00 66.00 L 720.00 528.00 L 100.00 528.00 L 100.00 66.00 Z " fill="#FFFFFF" fill-opacity="1.00" stroke="none" stroke-opacity="0.00" stroke-width="0.00" stroke-linecap="butt" stroke-linejoin="miter"/>
<path d="M 100.50 66.50 L 100.50 528.50 " fill="none" fill-opacity="0.00" stroke="#B0B0B0" stroke-opacity="1.00" stroke-width="0.80" stroke-linecap="butt" stroke-linejoin="miter" clip-path="url(#clip-1)"/>
<path d="M 203.50 66.50 L 203.50 528.50 " fill="none" fill-opacity="0.00" stroke="#B0B0B0" stroke-opacity="1.00" stroke-width="0.80" stroke-linecap="butt" stroke-linejoin="miter" clip-path="url(#clip-2)"/>
<path d="M 307.50 66.50 L 307.50 528.50 " fill="none" fill-opacity="0.00" stroke="#B0B0B0" stroke-opacity="1.00" stroke-width="0.80" stroke-linecap="butt" stroke-linejoin="miter" clip-path="url(#clip-3)"/>
<path d="M 410.50 66.50 L 410.50 528.50 " fill="none" fill-opacity="0.00" stroke="#B0B0B0" stroke-opacity="1.00" stroke-width="0.80" stroke-linecap="butt" stroke-linejoin="miter" clip-path="url(#clip-4)"/>
<path d="M 513.50 66.50 L 513.50 528.50 " fill="none" fill-opacity="0.00" stroke="#B0B0B0" stroke-opacity="1.00" stroke-width="0.80" stroke-linecap="butt" stroke-linejoin="miter" clip-path="url(#clip-5)"/>
<path d="M 617.50 66.50 L 617.50 528.50 " fill="none" fill-opacity="0.00" stroke="#B0B0B0" stroke-opacity="1.00" stroke-width="0.80" stroke-linecap="butt" stroke-linejoin="miter" clip-path="url(#clip-6)"/>
<path d="M 720.50 66.50 L 720.50 528.50 " fill="none" fill-opacity="0.00" stroke="#B0B0B0" stroke-opacity="1.00" stroke-width="0.80" stroke-linecap="butt" stroke-linejoin="miter" clip-path="url(#clip-7)"/>
<path d="M 100.50 65.50 L 720.50 65.50 " fill="none" fill-opacity="0.00" stroke="#B0B0B0" stroke-opacity="1.00" stroke-width="0.80" stroke-linecap="butt" stroke-linejoin="miter" clip-path="url(#clip-8)"/>
<path d="M 100.50 142.50 L 720.50 142.50 " fill="none" fill-opacity="0.00" stroke="#B0B0B0" stroke-opacity="1.00" stroke-width="0.80" stroke-linecap="butt" stroke-linejoin="miter" clip-path="url(#clip-9)"/>
<path d="M 100.50 219.50 L 720.50 219.50 " fill="none" fill-opacity="0.00" stroke="#B0B0B0" stroke-opacity="1.00" stroke-width="0.80" stroke-linecap="butt" stroke-linejoin="miter" clip-path="url(#clip-10)"/>
<path d="M 100.50 296.50 L 720.50 296.50 " fill="none" fill-opacity="0.00" stroke="#B0B0B0" stroke-opacity="1.00" stroke-width="0.80" stroke-linecap="butt" stroke-linejoin="miter" clip-path="url(#clip-11)"/>
<path d="M 100.50 373.50 L 720.50 373.50 " fill="none" fill-opacity="0.00" stroke="#B0B0B0" stroke-opacity="1.00" stroke-width="0.80" stroke-linecap="butt" stroke-linejoin="miter" clip-path="url(#clip-12)"/>
<path d="M 100.50 450.50 L 720.50 450.50 " fill="none" fill-opacity="0.00" stroke="#B0B0B0" stroke-opacity="1.00" stroke-width="0.80" stroke-linecap="butt" stroke-linejoin="miter" clip-path="url(#clip-13)"/>
<path d="M 100.50 527.50 L 720.50 527.50 " fill="none" fill-opacity="0.00" stroke="#B0B0B0" stroke-opacity="1.00" stroke-width="0.80" stroke-linecap="butt" stroke-linejoin="miter" clip-path="url(#clip-14)"/>
<path d="M 460.85 396.00 L 466.94 394.35 L 479.59 389.72 L 486.23 386.57 L 492.24 383.72 L 503.27 377.14 L 504.90 376.10 L 516.15 367.71 L 517.55 366.50 L 526.38 358.29 L 530.20 353.80 L 534.42 348.86 L 540.64 339.43 L 542.86 334.89 L 545.50 330.00 L 549.14 320.57 L 551.40 311.14 L 552.48 301.71 L 552.48 292.29 L 551.40 282.86 L 549.14 273.43 L 545.50 264.00 L 542.86 259.11 L 540.64 254.57 L 534.42 245.14 L 530.20 240.20 L 526.38 235.71 L 517.55 227.50 L 516.15 226.29 L 504.90 217.90 L 503.27 216.86 L 492.24 210.28 L 486.23 207.43 L 479.59 204.28 L 466.94 199.65 L 460.85 198.00 L 454.29 196.03 L 441.63 193.32 L 428.98 191.64 L 416.33 190.83 L 403.67 190.83 L 391.02 191.64 L 378.37 193.32 L 365.71 196.03 L 359.15 198.00 L 353.06 199.65 L 340.41 204.28 L 333.77 207.43 L 327.76 210.28 L 316.73 216.86 L 315.10 217.90 L 303.85 226.29 L 302.45 227.50 L 293.62 235.71 L 289.80 240.20 L 285.58 245.14 L 279.36 254.57 L 277.14 259.11 L 274.50 264.00 L 270.86 273.43 L 268.60 282.86 L 267.52 292.29 L 267.52 301.71 L 268.60 311.14 L 270.86 320.57 L 274.50 330.00 L 277.14 334.89 L 279.36 339.43 L 285.58 348.86 L 289.80 353.80 L 293.62 358.29 L 302.45 366.50 L 303.85 367.71 L 315.10 376.10 L 316.73 377.14 L 327.76 383.72 L 333.77 386.57 L 340.41 389.72 L 353.06 394.35 L 359.15 396.00 L 365.71 397.97 L 378.37 400.68 L 391.02 402.36 L 403.67 403.17 L 416.33 403.17 L 428.98 402.36 L 441.63 400.68 L 454.29 397.97 L 460.85 396.00 " fill="none" fill-opacity="0.00" stroke="#440154" stroke-opacity="1.00" stroke-width="1.50" stroke-linecap="butt" stroke-linejoin="round"/>
<path d="M 445.55 377.14 L 454.29 374.88 L 466.94 370.16 L 471.97 367.71 L 479.59 363.78 L 488.07 358.29 L 492.24 355.18 L 499.62 348.86 L 504.90 343.18 L 508.18 339.43 L 514.52 330.00 L 517.55 323.49 L 518.97 320.57 L 522.01 311.14 L 523.45 301.71 L 523.45 292.29 L 522.01 282.86 L 518.97 273.43 L 517.55 270.51 L 514.52 264.00 L 508.18 254.57 L 504.90 250.82 L 499.62 245.14 L 492.24 238.82 L 488.07 235.71 L 479.59 230.22 L 471.97 226.29 L 466.94 223.84 L 454.29 219.12 L 445.55 216.86 L 441.63 215.80 L 428.98 213.54 L 416.33 212.46 L 403.67 212.46 L 391.02 213.54 L 378.37 215.80 L 374.45 216.86 L 365.71 219.12 L 353.06 223.84 L 348.03 226.29 L 340.41 230.22 L 331.93 235.71 L 327.76 238.82 L 320.38 245.14 L 315.10 250.82 L 311.82 254.57 L 305.48 264.00 L 302.45 270.51 L 301.03 273.43 L 297.99 282.86 L 296.55 292.29 L 296.55 301.71 L 297.99 311.14 L 301.03 320.57 L 302.45 323.49 L 305.48 330.00 L 311.82 339.43 L 315.10 343.18 L 320.38 348.86 L 327.76 355.18 L 331.93 358.29 L 340.41 363.78 L 348.03 367.71 L 353.06 370.16 L 365.71 374.88 L 374.45 377.14 L 378.37 378.20 L 391.02 380.46 L 403.67 381.54 L 416.33 381.54 L 428.98 380.46 L 441.63 378.20 L 445.55 377.14 " fill="none" fill-opacity="0.00" stroke="#443983" stroke-opacity="1.00" stroke-width="1.50" stroke-linecap="butt" stroke-linejoin="round"/>
<path d="M 451.76 358.29 L 454.29 357.39 L 466.94 351.18 L 470.62 348.86 L 479.59 342.17 L 482.70 339.43 L 491.04 330.00 L 492.24 328.11 L 496.84 320.57 L 500.47 311.14 L 502.20 301.71 L 502.20 292.29 L 500.47 282.86 L 496.84 273.43 L 492.24 265.89 L 491.04 264.00 L 482.70 254.57 L 479.59 251.83 L 470.62 245.14 L 466.94 242.82 L 454.29 236.61 L 451.76 235.71 L 441.63 232.29 L 428.98 229.59 L 416.33 228.30 L 403.67 228.30 L 391.02 229.59 L 378.37 232.29 L 368.24 235.71 L 365.71 236.61 L 353.06 242.82 L 349.38 245.14 L 340.41 251.83 L 337.30 254.57 L 328.96 264.00 L 327.76 265.89 L 323.16 273.43 L 319.53 282.86 L 317.80 292.29 L 317.80 301.71 L 319.53 311.14 L 323.16 320.57 L 327.76 328.11 L 328.96 330.00 L 337.30 339.43 L 340.41 342.17 L 349.38 348.86 L 353.06 351.18 L 365.71 357.39 L 368.24 358.29 L 378.37 361.71 L 391.02 364.41 L 403.67 365.70 L 416.33 365.70 L 428.98 364.41 L 441.63 361.71 L 451.76 358.29 " fill="none" fill-opacity="0.00" stroke="#31688E" stroke-opacity="1.00" stroke-width="1.50" stroke-linecap="butt" stroke-linejoin="round"/>
<path d="M 434.03 348.86 L 441.63 346.69 L 454.29 341.00 L 456.89 339.43 L 466.94 331.94 L 469.05 330.00 L 476.69 320.57 L 479.59 314.91 L 481.38 311.14 L 483.60 301.71 L 483.60 292.29 L 481.38 282.86 L 479.59 279.09 L 476.69 273.43 L 469.05 264.00 L 466.94 262.06 L 456.89 254.57 L 454.29 253.00 L 441.63 247.31 L 434.03 245.14 L 428.98 243.81 L 416.33 242.16 L 403.67 242.16 L 391.02 243.81 L 385.97 245.14 L 378.37 247.31 L 365.71 253.00 L 363.11 254.57 L 353.06 262.06 L 350.95 264.00 L 343.31 273.43 L 340.41 279.09 L 338.62 282.86 L 336.40 292.29 L 336.40 301.71 L 338.62 311.14 L 340.41 314.91 L 343.31 320.57 L 350.95 330.00 L 353.06 331.94 L 363.11 339.43 L 365.71 341.00 L 378.37 346.69 L 385.97 348.86 L 391.02 350.19 L 403.67 351.84 L 416.33 351.84 L 428.98 350.19 L 434.03 348.86 " fill="none" fill-opacity="0.00" stroke="#21908D" stroke-opacity="1.00" stroke-width="1.50" stroke-linecap="butt" stroke-linejoin="round"/>
<path d="M 443.14 330.00 L 454.29 321.69 L 455.43 320.57 L 461.88 311.14 L 464.96 301.71 L 464.96 292.29 L 461.88 282.86 L 455.43 273.43 L 454.29 272.31 L 443.14 264.00 L 441.63 263.15 L 428.98 258.34 L 416.33 256.04 L 403.67 256.04 L 391.02 258.34 L 378.37 263.15 L 376.86 264.00 L 365.71 272.31 L 364.57 273.43 L 358.12 282.86 L 355.04 292.29 L 355.04 301.71 L 358.12 311.14 L 364.57 320.57 L 365.71 321.69 L 376.86 330.00 L 378.37 330.85 L 391.02 335.66 L 403.67 337.96 L 416.33 337.96 L 428.98 335.66 L 441.63 330.85 L 443.14 330.00 " fill="none" fill-opacity="0.00" stroke="#35B779" stroke-opacity="1.00" stroke-width="1.50" stroke-linecap="butt" stroke-linejoin="round"/>
<path d="M 419.70 320.57 L 428.98 317.16 L 437.06 311.14 L 441.63 304.23 L 442.79 301.71 L 442.79 292.29 L 441.63 289.77 L 437.06 282.86 L 428.98 276.84 L 419.70 273.43 L 416.33 272.57 L 403.67 272.57 L 400.30 273.43 L 391.02 276.84 L 382.94 282.86 L 378.37 289.77 L 377.21 292.29 L 377.21 301.71 L 378.37 304.23 L 382.94 311.14 L 391.02 317.16 L 400.30 320.57 L 403.67 321.43 L 416.33 321.43 L 419.70 320.57 " fill="none" fill-opacity="0.00" stroke="#90D743" stroke-opacity="1.00" stroke-width="1.50" stroke-linecap="butt" stroke-linejoin="round"/>
<text font-family="DejaVu Sans" font-size="16.67" fill="#000000" fill-opacity="1.00" text-anchor="middle" transform="translate(410.00,537.33) scale(1,-1)">Contour Lines — Gaussian</text>
<path d="M 100.50 66.50 L 100.50 61.50 " fill="none" fill-opacity="0.00" stroke="#000000" stroke-opacity="1.00" stroke-width="0.80" stroke-linecap="butt" stroke-linejoin="miter"/>
<text font-family="DejaVu Sans" font-size="13.89" fill="#000000" fill-opacity="1.00" text-anchor="middle" dominant-baseline="text-before-edge" transform="translate(100.00,56.28) scale(1,-1)">-3</text>
<path d="M 203.50 66.50 L 203.50 61.50 " fill="none" fill-opacity="0.00" stroke="#000000" stroke-opacity="1.00" stroke-width="0.80" stroke-linecap="butt" stroke-linejoin="miter"/>
<text font-family="DejaVu Sans" font-size="13.89" fill="#000000" fill-opacity="1.00" text-anchor="middle" dominant-baseline="text-before-edge" transform="translate(203.33,56.28) scale(1,-1)">-2</text>
<path d="M 307.50 66.50 L 307.50 61.50 " fill="none" fill-opacity="0.00" stroke="#000000" stroke-opacity="1.00" stroke-width="0.80" stroke-linecap="butt" stroke-linejoin="miter"/>
<text font-family="DejaVu Sans" font-size="13.89" fill="#000000" fill-opacity="1.00" text-anchor="middle" dominant-baseline="text-before-edge" transform="translate(306.67,56.28) scale(1,-1)">-1</text>
<path d="M 410.50 66.50 L 410.50 61.50 " fill="none" fill-opacity="0.00" stroke="#000000" stroke-opacity="1.00" stroke-width="0.80" stroke-linecap="butt" stroke-linejoin="miter"/>
<text font-family="DejaVu Sans" font-size="13.89" fill="#000000" fill-opacity="1.00" text-anchor="middle" dominant-baseline="text-before-edge" transform="translate(410.00,56.28) scale(1,-1)">0</text>
<path d="M 513.50 66.50 L 513.50 61.50 " fill="none" fill-opacity="0.00" stroke="#000000" stroke-opacity="1.00" stroke-width="0.80" stroke-linecap="butt" stroke-linejoin="miter"/>
<text font-family="DejaVu Sans" font-size="13.89" fill="#000000" fill-opacity="1.00" text-anchor="middle" dominant-baseline="text-before-edge" transform="translate(513.33,56.28) scale(1,-1)">1</text>
<path d="M 617.50 66.50 L 617.50 61.50 " fill="none" fill-opacity="0.00" stroke="#000000" stroke-opacity="1.00" stroke-width="0.80" stroke-linecap="butt" stroke-linejoin="miter"/>
<text font-family="DejaVu Sans" font-size="13.89" fill="#000000" fill-opacity="1.00" text-anchor="middle" dominant-baseline="text-before-edge" transform="translate(616.67,56.28) scale(1,-1)">2</text>
<path d="M 720.50 66.50 L 720.50 61.50 " fill="none" fill-opacity="0.00" stroke="#000000" stroke-opacity="1.00" stroke-width="0.80" stroke-linecap="butt" stroke-linejoin="miter"/>
<text font-family="DejaVu Sans" font-size="13.89" fill="#000000" fill-opacity="1.00" text-anchor="middle" dominant-baseline="text-before-edge" transform="translate(720.00,56.28) scale(1,-1)">3</text>
<text font-family="DejaVu Sans" font-size="13.89" fill="#000000" fill-opacity="1.00" text-anchor="middle" dominant-baseline="text-before-edge" transform="translate(410.00,37.17) scale(1,-1)">x</text>
<path d="M 100.50 65.50 L 95.50 65.50 " fill="none" fill-opacity="0.00" stroke="#000000" stroke-opacity="1.00" stroke-width="0.80" stroke-linecap="butt" stroke-linejoin="miter"/>
<text font-family="DejaVu Sans" font-size="13.89" fill="#000000" fill-opacity="1.00" text-anchor="end" dominant-baseline="central" transform="translate(90.28,66.00) scale(1,-1)">-3</text>
<path d="M 100.50 142.50 L 95.50 142.50 " fill="none" fill-opacity="0.00" stroke="#000000" stroke-opacity="1.00" stroke-width="0.80" stroke-linecap="butt" stroke-linejoin="miter"/>
<text font-family="DejaVu Sans" font-size="13.89" fill="#000000" fill-opacity="1.00" text-anchor="end" dominant-baseline="central" transform="translate(90.28,143.00) scale(1,-1)">-2</text>
<path d="M 100.50 219.50 L 95.50 219.50 " fill="none" fill-opacity="0.00" stroke="#000000" stroke-opacity="1.00" stroke-width="0.80" stroke-linecap="butt" stroke-linejoin="miter"/>
<text font-family="DejaVu Sans" font-size="13.89" fill="#000000" fill-opacity="1.00" text-anchor="end" dominant-baseline="central" transform="translate(90.28,220.00) scale(1,-1)">-1</text>
<path d="M 100.50 296.50 L 95.50 296.50 " fill="none" fill-opacity="0.00" stroke="#000000" stroke-opacity="1.00" stroke-width="0.80" stroke-linecap="butt" stroke-linejoin="miter"/>
<text font-family="DejaVu Sans" font-size="13.89" fill="#000000" fill-opacity="1.00" text-anchor="end" dominant-baseline="central" transform="translate(90.28,297.00) scale(1,-1)">0</text>
<path d="M 100.50 373.50 L 95.50 373.50 " fill="none" fill-opacity="0.00" stroke="#000000" stroke-opacity="1.00" stroke-width="0.80" stroke-linecap="butt" stroke-linejoin="miter"/>
<text font-family="DejaVu Sans" font-size="13.89" fill="#000000" fill-opacity="1.00" text-anchor="end" dominant-baseline="central" transform="translate(90.28,374.00) scale(1,-1)">1</text>
<path d="M 100.50 450.50 L 95.50 450.50 " fill="none" fill-opacity="0.00" stroke="#000000" stroke-opacity="1.00" stroke-width="0.80" stroke-linecap="butt" stroke-linejoin="miter"/>
<text font-family="DejaVu Sans" font-size="13.89" fill="#000000" fill-opacity="1.00" text-anchor="end" dominant-baseline="central" transform="translate(90.28,451.00) scale(1,-1)">2</text>
<path d="M 100.50 527.50 L 95.50 527.50 " fill="none" fill-opacity="0.00" stroke="#000000" stroke-opacity="1.00" stroke-width="0.80" stroke-linecap="butt" stroke-linejoin="miter"/>
<text font-family="DejaVu Sans" font-size="13.89" fill="#000000" fill-opacity="1.00" text-anchor="end" dominant-baseline="central" transform="translate(90.28,528.00) scale(1,-1)">3</text>
<text font-family="DejaVu Sans" font-size="13.89" fill="#000000" fill-opacity="1.00" text-anchor="middle" transform="translate(57.95,297.00) rotate(-90.00) scale(1,-1)">y</text>
<path d="M 100.50 66.50 L 100.50 528.50 " fill="none" fill-opacity="0.00" stroke="#000000" stroke-opacity="1.00" stroke-width="0.80" stroke-linecap="square" stroke-linejoin="miter"/>
<path d="M 720.50 66.50 L 720.50 528.50 " fill="none" fill-opacity="0.00" stroke="#000000" stroke-opacity="1.00" stroke-width="0.80" stroke-linecap="square" stroke-linejoin="miter"/>
<path d="M 100.50 65.50 L 720.50 65.50 " fill="none" fill-opacity="0.00" stroke="#000000" stroke-opacity="1.00" stroke-width="0.80" stroke-linecap="square" stroke-linejoin="miter"/>
<path d="M 100.50 527.50 L 720.50 527.50 " fill="none" fill-opacity="0.00" stroke="#000000" stroke-opacity="1.00" stroke-width="0.80" stroke-linecap="square" stroke-linejoin="miter"/>
</g>
</svg>
