<?xml version="1.0" encoding="UTF-8"?>
<svg xmlns="http://www.w3.org/2000/svg"
     xmlns:xlink="http://www.w3.org/1999/xlink"
     width="800" height="500" viewBox="0 0 800 500">
<defs>
</defs>
<g transform="translate(0,500) scale(1,-1)">
<rect width="800" height="500" fill="white"/>
<path d="M 0.00 0.00 L 800.00 0.00 L 800.00 500.00 L 0.00 500.00 L 0.00 0.00 Z " fill="#FFFFFF" fill-opacity="1.00" stroke="#000000" stroke-opacity="1.00" stroke-width="0.00" stroke-linecap="butt" stroke-linejoin="miter"/>
<path d="M 100.00 55.00 L 720.00 55.00 L 720.00 440.00 L 100.00 440.00 L 100.00 55.00 Z " fill="#FFFFFF" fill-opacity="1.00" stroke="none" stroke-opacity="0.00" stroke-width="0.00" stroke-linecap="butt" stroke-linejoin="miter"/>
<path d="M 128.18 247.50 L 131.01 253.02 L 133.85 258.54 L 136.68 264.05 L 139.51 269.54 L 142.34 275.01 L 145.18 280.46 L 148.01 285.86 L 150.84 291.24 L 153.67 296.56 L 156.51 301.84 L 159.34 307.07 L 162.17 312.23 L 165.00 317.33 L 167.83 322.36 L 170.67 327.32 L 173.50 332.20 L 176.33 336.99 L 179.16 341.69 L 182.00 346.30 L 184.83 350.81 L 187.66 355.22 L 190.49 359.52 L 193.33 363.71 L 196.16 367.78 L 198.99 371.73 L 201.82 375.56 L 204.66 379.27 L 207.49 382.84 L 210.32 386.27 L 213.15 389.57 L 215.98 392.72 L 218.82 395.73 L 221.65 398.60 L 224.48 401.31 L 227.31 403.87 L 230.15 406.27 L 232.98 408.52 L 235.81 410.60 L 238.64 412.52 L 241.48 414.28 L 244.31 415.87 L 247.14 417.29 L 249.97 418.55 L 252.80 419.63 L 255.64 420.54 L 258.47 421.28 L 261.30 421.85 L 264.13 422.24 L 266.97 422.46 L 269.80 422.50 L 272.63 422.37 L 275.46 422.06 L 278.30 421.58 L 281.13 420.93 L 283.96 420.11 L 286.79 419.11 L 289.63 417.94 L 292.46 416.60 L 295.29 415.09 L 298.12 413.42 L 300.95 411.58 L 303.79 409.58 L 306.62 407.41 L 309.45 405.09 L 312.28 402.61 L 315.12 399.97 L 317.95 397.18 L 320.78 394.25 L 323.61 391.16 L 326.45 387.94 L 329.28 384.57 L 332.11 381.07 L 334.94 377.43 L 337.78 373.67 L 340.61 369.77 L 343.44 365.76 L 346.27 361.63 L 349.10 357.38 L 351.94 353.03 L 354.77 348.57 L 357.60 344.01 L 360.43 339.35 L 363.27 334.60 L 366.10 329.77 L 368.93 324.85 L 371.76 319.86 L 374.60 314.79 L 377.43 309.66 L 380.26 304.46 L 383.09 299.21 L 385.93 293.91 L 388.76 288.56 L 391.59 283.16 L 394.42 277.74 L 397.25 272.28 L 400.09 266.80 L 402.92 261.30 L 405.75 255.79 L 408.58 250.26 L 411.42 244.74 L 414.25 239.21 L 417.08 233.70 L 419.91 228.20 L 422.75 222.72 L 425.58 217.26 L 428.41 211.84 L 431.24 206.44 L 434.07 201.09 L 436.91 195.79 L 439.74 190.54 L 442.57 185.34 L 445.40 180.21 L 448.24 175.14 L 451.07 170.15 L 453.90 165.23 L 456.73 160.40 L 459.57 155.65 L 462.40 150.99 L 465.23 146.43 L 468.06 141.97 L 470.90 137.62 L 473.73 133.37 L 476.56 129.24 L 479.39 125.23 L 482.22 121.33 L 485.06 117.57 L 487.89 113.93 L 490.72 110.43 L 493.55 107.06 L 496.39 103.84 L 499.22 100.75 L 502.05 97.82 L 504.88 95.03 L 507.72 92.39 L 510.55 89.91 L 513.38 87.59 L 516.21 85.42 L 519.05 83.42 L 521.88 81.58 L 524.71 79.91 L 527.54 78.40 L 530.37 77.06 L 533.21 75.89 L 536.04 74.89 L 538.87 74.07 L 541.70 73.42 L 544.54 72.94 L 547.37 72.63 L 550.20 72.50 L 553.03 72.54 L 555.87 72.76 L 558.70 73.15 L 561.53 73.72 L 564.36 74.46 L 567.20 75.37 L 570.03 76.45 L 572.86 77.71 L 575.69 79.13 L 578.52 80.72 L 581.36 82.48 L 584.19 84.40 L 587.02 86.48 L 589.85 88.73 L 592.69 91.13 L 595.52 93.69 L 598.35 96.40 L 601.18 99.27 L 604.02 102.28 L 606.85 105.43 L 609.68 108.73 L 612.51 112.16 L 615.34 115.73 L 618.18 119.44 L 621.01 123.27 L 623.84 127.22 L 626.67 131.29 L 629.51 135.48 L 632.34 139.78 L 635.17 144.19 L 638.00 148.70 L 640.84 153.31 L 643.67 158.01 L 646.50 162.80 L 649.33 167.68 L 652.17 172.64 L 655.00 177.67 L 657.83 182.77 L 660.66 187.93 L 663.49 193.16 L 666.33 198.44 L 669.16 203.76 L 671.99 209.14 L 674.82 214.54 L 677.66 219.99 L 680.49 225.46 L 683.32 230.95 L 686.15 236.46 L 688.99 241.98 L 691.82 247.50 " fill="none" fill-opacity="0.00" stroke="#4682B4" stroke-opacity="1.00" stroke-width="2.00" stroke-linecap="square" stroke-linejoin="round"/>
<text font-family="DejaVu Sans" font-size="16.67" fill="#000000" fill-opacity="1.00" text-anchor="middle" transform="translate(410.00,449.33) scale(1,-1)">Sine Wave with Custom Tick Labels</text>
<path d="M 128.50 55.00 L 128.50 50.14 " fill="none" fill-opacity="0.00" stroke="#000000" stroke-opacity="1.00" stroke-width="0.80" stroke-linecap="butt" stroke-linejoin="miter"/>
<text font-family="DejaVu Sans" font-size="13.89" fill="#000000" fill-opacity="1.00" text-anchor="middle" dominant-baseline="text-before-edge" transform="translate(128.18,45.28) scale(1,-1)">0</text>
<path d="M 269.50 55.00 L 269.50 50.14 " fill="none" fill-opacity="0.00" stroke="#000000" stroke-opacity="1.00" stroke-width="0.80" stroke-linecap="butt" stroke-linejoin="miter"/>
<text font-family="DejaVu Sans" font-size="13.89" fill="#000000" fill-opacity="1.00" text-anchor="middle" dominant-baseline="text-before-edge" transform="translate(269.09,45.28) scale(1,-1)">pi/2</text>
<path d="M 410.50 55.00 L 410.50 50.14 " fill="none" fill-opacity="0.00" stroke="#000000" stroke-opacity="1.00" stroke-width="0.80" stroke-linecap="butt" stroke-linejoin="miter"/>
<text font-family="DejaVu Sans" font-size="13.89" fill="#000000" fill-opacity="1.00" text-anchor="middle" dominant-baseline="text-before-edge" transform="translate(410.00,45.28) scale(1,-1)">pi</text>
<path d="M 551.50 55.00 L 551.50 50.14 " fill="none" fill-opacity="0.00" stroke="#000000" stroke-opacity="1.00" stroke-width="0.80" stroke-linecap="butt" stroke-linejoin="miter"/>
<text font-family="DejaVu Sans" font-size="13.89" fill="#000000" fill-opacity="1.00" text-anchor="middle" dominant-baseline="text-before-edge" transform="translate(550.91,45.28) scale(1,-1)">3pi/2</text>
<path d="M 692.50 55.00 L 692.50 50.14 " fill="none" fill-opacity="0.00" stroke="#000000" stroke-opacity="1.00" stroke-width="0.80" stroke-linecap="butt" stroke-linejoin="miter"/>
<text font-family="DejaVu Sans" font-size="13.89" fill="#000000" fill-opacity="1.00" text-anchor="middle" dominant-baseline="text-before-edge" transform="translate(691.82,45.28) scale(1,-1)">2pi</text>
<text font-family="DejaVu Sans" font-size="13.89" fill="#000000" fill-opacity="1.00" text-anchor="middle" dominant-baseline="text-before-edge" transform="translate(410.00,26.17) scale(1,-1)">Angle</text>
<path d="M 100.00 71.50 L 95.14 71.50 " fill="none" fill-opacity="0.00" stroke="#000000" stroke-opacity="1.00" stroke-width="0.80" stroke-linecap="butt" stroke-linejoin="miter"/>
<text font-family="DejaVu Sans" font-size="13.89" fill="#000000" fill-opacity="1.00" text-anchor="end" dominant-baseline="central" transform="translate(90.28,72.49) scale(1,-1)">-1.00</text>
<path d="M 100.00 115.50 L 95.14 115.50 " fill="none" fill-opacity="0.00" stroke="#000000" stroke-opacity="1.00" stroke-width="0.80" stroke-linecap="butt" stroke-linejoin="miter"/>
<text font-family="DejaVu Sans" font-size="13.89" fill="#000000" fill-opacity="1.00" text-anchor="end" dominant-baseline="central" transform="translate(90.28,116.25) scale(1,-1)">-0.75</text>
<path d="M 100.00 159.50 L 95.14 159.50 " fill="none" fill-opacity="0.00" stroke="#000000" stroke-opacity="1.00" stroke-width="0.80" stroke-linecap="butt" stroke-linejoin="miter"/>
<text font-family="DejaVu Sans" font-size="13.89" fill="#000000" fill-opacity="1.00" text-anchor="end" dominant-baseline="central" transform="translate(90.28,160.00) scale(1,-1)">-0.50</text>
<path d="M 100.00 203.50 L 95.14 203.50 " fill="none" fill-opacity="0.00" stroke="#000000" stroke-opacity="1.00" stroke-width="0.80" stroke-linecap="butt" stroke-linejoin="miter"/>
<text font-family="DejaVu Sans" font-size="13.89" fill="#000000" fill-opacity="1.00" text-anchor="end" dominant-baseline="central" transform="translate(90.28,203.75) scale(1,-1)">-0.25</text>
<path d="M 100.00 247.50 L 95.14 247.50 " fill="none" fill-opacity="0.00" stroke="#000000" stroke-opacity="1.00" stroke-width="0.80" stroke-linecap="butt" stroke-linejoin="miter"/>
<text font-family="DejaVu Sans" font-size="13.89" fill="#000000" fill-opacity="1.00" text-anchor="end" dominant-baseline="central" transform="translate(90.28,247.50) scale(1,-1)">0.00</text>
<path d="M 100.00 290.50 L 95.14 290.50 " fill="none" fill-opacity="0.00" stroke="#000000" stroke-opacity="1.00" stroke-width="0.80" stroke-linecap="butt" stroke-linejoin="miter"/>
<text font-family="DejaVu Sans" font-size="13.89" fill="#000000" fill-opacity="1.00" text-anchor="end" dominant-baseline="central" transform="translate(90.28,291.25) scale(1,-1)">0.25</text>
<path d="M 100.00 334.50 L 95.14 334.50 " fill="none" fill-opacity="0.00" stroke="#000000" stroke-opacity="1.00" stroke-width="0.80" stroke-linecap="butt" stroke-linejoin="miter"/>
<text font-family="DejaVu Sans" font-size="13.89" fill="#000000" fill-opacity="1.00" text-anchor="end" dominant-baseline="central" transform="translate(90.28,335.00) scale(1,-1)">0.50</text>
<path d="M 100.00 378.50 L 95.14 378.50 " fill="none" fill-opacity="0.00" stroke="#000000" stroke-opacity="1.00" stroke-width="0.80" stroke-linecap="butt" stroke-linejoin="miter"/>
<text font-family="DejaVu Sans" font-size="13.89" fill="#000000" fill-opacity="1.00" text-anchor="end" dominant-baseline="central" transform="translate(90.28,378.75) scale(1,-1)">0.75</text>
<path d="M 100.00 422.50 L 95.14 422.50 " fill="none" fill-opacity="0.00" stroke="#000000" stroke-opacity="1.00" stroke-width="0.80" stroke-linecap="butt" stroke-linejoin="miter"/>
<text font-family="DejaVu Sans" font-size="13.89" fill="#000000" fill-opacity="1.00" text-anchor="end" dominant-baseline="central" transform="translate(90.28,422.51) scale(1,-1)">1.00</text>
<text font-family="DejaVu Sans" font-size="13.89" fill="#000000" fill-opacity="1.00" text-anchor="middle" transform="translate(35.68,247.50) rotate(-90.00) scale(1,-1)">sin(x)</text>
<path d="M 100.50 55.00 L 100.50 440.00 " fill="none" fill-opacity="0.00" stroke="#000000" stroke-opacity="1.00" stroke-width="0.80" stroke-linecap="square" stroke-linejoin="miter"/>
<path d="M 720.50 55.00 L 720.50 440.00 " fill="none" fill-opacity="0.00" stroke="#000000" stroke-opacity="1.00" stroke-width="0.80" stroke-linecap="square" stroke-linejoin="miter"/>
<path d="M 100.00 54.50 L 720.00 54.50 " fill="none" fill-opacity="0.00" stroke="#000000" stroke-opacity="1.00" stroke-width="0.80" stroke-linecap="square" stroke-linejoin="miter"/>
<path d="M 100.00 439.50 L 720.00 439.50 " fill="none" fill-opacity="0.00" stroke="#000000" stroke-opacity="1.00" stroke-width="0.80" stroke-linecap="square" stroke-linejoin="miter"/>
</g>
</svg>
