<?xml version="1.0" encoding="UTF-8"?>
<svg xmlns="http://www.w3.org/2000/svg"
     xmlns:xlink="http://www.w3.org/1999/xlink"
     width="800" height="600" viewBox="0 0 800 600">
<defs>
<clipPath id="clip-1">
<rect x="100.00" y="66.00" width="620.00" height="462.00"/>
</clipPath>
<clipPath id="clip-2">
<rect x="100.00" y="66.00" width="620.00" height="462.00"/>
</clipPath>
<clipPath id="clip-3">
<rect x="100.00" y="66.00" width="620.00" height="462.00"/>
</clipPath>
<clipPath id="clip-4">
<rect x="100.00" y="66.00" width="620.00" height="462.00"/>
</clipPath>
<clipPath id="clip-5">
<rect x="100.00" y="66.00" width="620.00" height="462.00"/>
</clipPath>
<clipPath id="clip-6">
<rect x="100.00" y="66.00" width="620.00" height="462.00"/>
</clipPath>
<clipPath id="clip-7">
<rect x="100.00" y="66.00" width="620.00" height="462.00"/>
</clipPath>
<clipPath id="clip-8">
<rect x="100.00" y="66.00" width="620.00" height="462.00"/>
</clipPath>
<clipPath id="clip-9">
<rect x="100.00" y="66.00" width="620.00" height="462.00"/>
</clipPath>
<clipPath id="clip-10">
<rect x="100.00" y="66.00" width="620.00" height="462.00"/>
</clipPath>
<clipPath id="clip-11">
<rect x="100.00" y="66.00" width="620.00" height="462.00"/>
</clipPath>
<clipPath id="clip-12">
<rect x="100.00" y="66.00" width="620.00" height="462.00"/>
</clipPath>
<symbol id="marker-13" overflow="visible">
<path d="M 0.00 -4.17 C 1.11 -4.17 2.16 -3.73 2.95 -2.95 C 3.73 -2.16 4.17 -1.11 4.17 0.00 C 4.17 1.11 3.73 2.16 2.95 2.95 C 2.16 3.73 1.11 4.17 0.00 4.17 C -1.11 4.17 -2.16 3.73 -2.95 2.95 C -3.73 2.16 -4.17 1.11 -4.17 0.00 C -4.17 -1.11 -3.73 -2.16 -2.95 -2.95 C -2.16 -3.73 -1.11 -4.17 0.00 -4.17 Z " fill="#4682B4" fill-opacity="1.00" stroke="#4682B4" stroke-opacity="1.00" stroke-width="1.00" stroke-linecap="butt" stroke-linejoin="miter"/>
</symbol>
</defs>
<g transform="translate(0,600) scale(1,-1)">
<rect width="800" height="600" fill="white"/>
<path d="M 0.00 0.00 L 800.00 0.00 L 800.00 600.00 L 0.00 600.00 L 0.00 0.00 Z " fill="#FFFFFF" fill-opacity="1.00" stroke="#000000" stroke-opacity="1.00" stroke-width="0.00" stroke-linecap="butt" stroke-linejoin="miter"/>
<path d="M 100.00 66.00 L 720.00 66.00 L 720.00 528.00 L 100.00 528.00 L 100.00 66.00 Z " fill="#FFFFFF" fill-opacity="1.00" stroke="none" stroke-opacity="0.00" stroke-width="0.00" stroke-linecap="butt" stroke-linejoin="miter"/>
<path d="M 147.50 87.50 L 156.50 87.50 " fill="none" fill-opacity="0.00" stroke="#FF6347" stroke-opacity="1.00" stroke-width="1.00" stroke-linecap="butt" stroke-linejoin="round"/>
<path d="M 147.50 101.50 L 156.50 101.50 " fill="none" fill-opacity="0.00" stroke="#FF6347" stroke-opacity="1.00" stroke-width="1.00" stroke-linecap="butt" stroke-linejoin="round"/>
<path d="M 128.50 93.50 L 128.50 94.50 " fill="none" fill-opacity="0.00" stroke="#FF6347" stroke-opacity="1.00" stroke-width="1.00" stroke-linecap="butt" stroke-linejoin="round"/>
<path d="M 174.50 93.50 L 174.50 94.50 " fill="none" fill-opacity="0.00" stroke="#FF6347" stroke-opacity="1.00" stroke-width="1.00" stroke-linecap="butt" stroke-linejoin="round"/>
<path d="M 204.50 90.50 L 213.50 90.50 " fill="none" fill-opacity="0.00" stroke="#FF6347" stroke-opacity="1.00" stroke-width="1.00" stroke-linecap="butt" stroke-linejoin="round"/>
<path d="M 204.50 118.50 L 213.50 118.50 " fill="none" fill-opacity="0.00" stroke="#FF6347" stroke-opacity="1.00" stroke-width="1.00" stroke-linecap="butt" stroke-linejoin="round"/>
<path d="M 186.50 104.50 L 186.50 105.50 " fill="none" fill-opacity="0.00" stroke="#FF6347" stroke-opacity="1.00" stroke-width="1.00" stroke-linecap="butt" stroke-linejoin="round"/>
<path d="M 232.50 104.50 L 232.50 105.50 " fill="none" fill-opacity="0.00" stroke="#FF6347" stroke-opacity="1.00" stroke-width="1.00" stroke-linecap="butt" stroke-linejoin="round"/>
<path d="M 262.50 101.50 L 271.50 101.50 " fill="none" fill-opacity="0.00" stroke="#FF6347" stroke-opacity="1.00" stroke-width="1.00" stroke-linecap="butt" stroke-linejoin="round"/>
<path d="M 262.50 143.50 L 271.50 143.50 " fill="none" fill-opacity="0.00" stroke="#FF6347" stroke-opacity="1.00" stroke-width="1.00" stroke-linecap="butt" stroke-linejoin="round"/>
<path d="M 243.50 121.50 L 243.50 122.50 " fill="none" fill-opacity="0.00" stroke="#FF6347" stroke-opacity="1.00" stroke-width="1.00" stroke-linecap="butt" stroke-linejoin="round"/>
<path d="M 289.50 121.50 L 289.50 122.50 " fill="none" fill-opacity="0.00" stroke="#FF6347" stroke-opacity="1.00" stroke-width="1.00" stroke-linecap="butt" stroke-linejoin="round"/>
<path d="M 319.50 118.50 L 328.50 118.50 " fill="none" fill-opacity="0.00" stroke="#FF6347" stroke-opacity="1.00" stroke-width="1.00" stroke-linecap="butt" stroke-linejoin="round"/>
<path d="M 319.50 174.50 L 328.50 174.50 " fill="none" fill-opacity="0.00" stroke="#FF6347" stroke-opacity="1.00" stroke-width="1.00" stroke-linecap="butt" stroke-linejoin="round"/>
<path d="M 301.50 145.50 L 301.50 147.50 " fill="none" fill-opacity="0.00" stroke="#FF6347" stroke-opacity="1.00" stroke-width="1.00" stroke-linecap="butt" stroke-linejoin="round"/>
<path d="M 347.50 145.50 L 347.50 147.50 " fill="none" fill-opacity="0.00" stroke="#FF6347" stroke-opacity="1.00" stroke-width="1.00" stroke-linecap="butt" stroke-linejoin="round"/>
<path d="M 377.50 143.50 L 386.50 143.50 " fill="none" fill-opacity="0.00" stroke="#FF6347" stroke-opacity="1.00" stroke-width="1.00" stroke-linecap="butt" stroke-linejoin="round"/>
<path d="M 377.50 212.50 L 386.50 212.50 " fill="none" fill-opacity="0.00" stroke="#FF6347" stroke-opacity="1.00" stroke-width="1.00" stroke-linecap="butt" stroke-linejoin="round"/>
<path d="M 358.50 177.50 L 358.50 178.50 " fill="none" fill-opacity="0.00" stroke="#FF6347" stroke-opacity="1.00" stroke-width="1.00" stroke-linecap="butt" stroke-linejoin="round"/>
<path d="M 404.50 177.50 L 404.50 178.50 " fill="none" fill-opacity="0.00" stroke="#FF6347" stroke-opacity="1.00" stroke-width="1.00" stroke-linecap="butt" stroke-linejoin="round"/>
<path d="M 434.50 174.50 L 443.50 174.50 " fill="none" fill-opacity="0.00" stroke="#FF6347" stroke-opacity="1.00" stroke-width="1.00" stroke-linecap="butt" stroke-linejoin="round"/>
<path d="M 434.50 257.50 L 443.50 257.50 " fill="none" fill-opacity="0.00" stroke="#FF6347" stroke-opacity="1.00" stroke-width="1.00" stroke-linecap="butt" stroke-linejoin="round"/>
<path d="M 416.50 215.50 L 416.50 216.50 " fill="none" fill-opacity="0.00" stroke="#FF6347" stroke-opacity="1.00" stroke-width="1.00" stroke-linecap="butt" stroke-linejoin="round"/>
<path d="M 462.50 215.50 L 462.50 216.50 " fill="none" fill-opacity="0.00" stroke="#FF6347" stroke-opacity="1.00" stroke-width="1.00" stroke-linecap="butt" stroke-linejoin="round"/>
<path d="M 492.50 212.50 L 501.50 212.50 " fill="none" fill-opacity="0.00" stroke="#FF6347" stroke-opacity="1.00" stroke-width="1.00" stroke-linecap="butt" stroke-linejoin="round"/>
<path d="M 492.50 309.50 L 501.50 309.50 " fill="none" fill-opacity="0.00" stroke="#FF6347" stroke-opacity="1.00" stroke-width="1.00" stroke-linecap="butt" stroke-linejoin="round"/>
<path d="M 473.50 260.50 L 473.50 261.50 " fill="none" fill-opacity="0.00" stroke="#FF6347" stroke-opacity="1.00" stroke-width="1.00" stroke-linecap="butt" stroke-linejoin="round"/>
<path d="M 519.50 260.50 L 519.50 261.50 " fill="none" fill-opacity="0.00" stroke="#FF6347" stroke-opacity="1.00" stroke-width="1.00" stroke-linecap="butt" stroke-linejoin="round"/>
<path d="M 549.50 257.50 L 558.50 257.50 " fill="none" fill-opacity="0.00" stroke="#FF6347" stroke-opacity="1.00" stroke-width="1.00" stroke-linecap="butt" stroke-linejoin="round"/>
<path d="M 549.50 368.50 L 558.50 368.50 " fill="none" fill-opacity="0.00" stroke="#FF6347" stroke-opacity="1.00" stroke-width="1.00" stroke-linecap="butt" stroke-linejoin="round"/>
<path d="M 531.50 312.50 L 531.50 313.50 " fill="none" fill-opacity="0.00" stroke="#FF6347" stroke-opacity="1.00" stroke-width="1.00" stroke-linecap="butt" stroke-linejoin="round"/>
<path d="M 577.50 312.50 L 577.50 313.50 " fill="none" fill-opacity="0.00" stroke="#FF6347" stroke-opacity="1.00" stroke-width="1.00" stroke-linecap="butt" stroke-linejoin="round"/>
<path d="M 607.50 309.50 L 616.50 309.50 " fill="none" fill-opacity="0.00" stroke="#FF6347" stroke-opacity="1.00" stroke-width="1.00" stroke-linecap="butt" stroke-linejoin="round"/>
<path d="M 607.50 434.50 L 616.50 434.50 " fill="none" fill-opacity="0.00" stroke="#FF6347" stroke-opacity="1.00" stroke-width="1.00" stroke-linecap="butt" stroke-linejoin="round"/>
<path d="M 588.50 371.50 L 588.50 372.50 " fill="none" fill-opacity="0.00" stroke="#FF6347" stroke-opacity="1.00" stroke-width="1.00" stroke-linecap="butt" stroke-linejoin="round"/>
<path d="M 634.50 371.50 L 634.50 372.50 " fill="none" fill-opacity="0.00" stroke="#FF6347" stroke-opacity="1.00" stroke-width="1.00" stroke-linecap="butt" stroke-linejoin="round"/>
<path d="M 664.50 368.50 L 673.50 368.50 " fill="none" fill-opacity="0.00" stroke="#FF6347" stroke-opacity="1.00" stroke-width="1.00" stroke-linecap="butt" stroke-linejoin="round"/>
<path d="M 664.50 507.50 L 673.50 507.50 " fill="none" fill-opacity="0.00" stroke="#FF6347" stroke-opacity="1.00" stroke-width="1.00" stroke-linecap="butt" stroke-linejoin="round"/>
<path d="M 646.50 437.50 L 646.50 438.50 " fill="none" fill-opacity="0.00" stroke="#FF6347" stroke-opacity="1.00" stroke-width="1.00" stroke-linecap="butt" stroke-linejoin="round"/>
<path d="M 692.50 437.50 L 692.50 438.50 " fill="none" fill-opacity="0.00" stroke="#FF6347" stroke-opacity="1.00" stroke-width="1.00" stroke-linecap="butt" stroke-linejoin="round"/>
<path d="M 151.50 87.50 L 151.50 101.50 " fill="none" fill-opacity="0.00" stroke="#FF6347" stroke-opacity="1.00" stroke-width="1.00" stroke-linecap="butt" stroke-linejoin="round"/>
<path d="M 128.50 94.50 L 174.50 94.50 " fill="none" fill-opacity="0.00" stroke="#FF6347" stroke-opacity="1.00" stroke-width="1.00" stroke-linecap="butt" stroke-linejoin="round"/>
<path d="M 209.50 90.50 L 209.50 118.50 " fill="none" fill-opacity="0.00" stroke="#FF6347" stroke-opacity="1.00" stroke-width="1.00" stroke-linecap="butt" stroke-linejoin="round"/>
<path d="M 186.50 104.50 L 232.50 104.50 " fill="none" fill-opacity="0.00" stroke="#FF6347" stroke-opacity="1.00" stroke-width="1.00" stroke-linecap="butt" stroke-linejoin="round"/>
<path d="M 266.50 101.50 L 266.50 143.50 " fill="none" fill-opacity="0.00" stroke="#FF6347" stroke-opacity="1.00" stroke-width="1.00" stroke-linecap="butt" stroke-linejoin="round"/>
<path d="M 243.50 122.50 L 289.50 122.50 " fill="none" fill-opacity="0.00" stroke="#FF6347" stroke-opacity="1.00" stroke-width="1.00" stroke-linecap="butt" stroke-linejoin="round"/>
<path d="M 324.50 118.50 L 324.50 174.50 " fill="none" fill-opacity="0.00" stroke="#FF6347" stroke-opacity="1.00" stroke-width="1.00" stroke-linecap="butt" stroke-linejoin="round"/>
<path d="M 301.50 146.50 L 347.50 146.50 " fill="none" fill-opacity="0.00" stroke="#FF6347" stroke-opacity="1.00" stroke-width="1.00" stroke-linecap="butt" stroke-linejoin="round"/>
<path d="M 381.50 143.50 L 381.50 212.50 " fill="none" fill-opacity="0.00" stroke="#FF6347" stroke-opacity="1.00" stroke-width="1.00" stroke-linecap="butt" stroke-linejoin="round"/>
<path d="M 358.50 177.50 L 404.50 177.50 " fill="none" fill-opacity="0.00" stroke="#FF6347" stroke-opacity="1.00" stroke-width="1.00" stroke-linecap="butt" stroke-linejoin="round"/>
<path d="M 439.50 174.50 L 439.50 257.50 " fill="none" fill-opacity="0.00" stroke="#FF6347" stroke-opacity="1.00" stroke-width="1.00" stroke-linecap="butt" stroke-linejoin="round"/>
<path d="M 416.50 215.50 L 462.50 215.50 " fill="none" fill-opacity="0.00" stroke="#FF6347" stroke-opacity="1.00" stroke-width="1.00" stroke-linecap="butt" stroke-linejoin="round"/>
<path d="M 496.50 212.50 L 496.50 309.50 " fill="none" fill-opacity="0.00" stroke="#FF6347" stroke-opacity="1.00" stroke-width="1.00" stroke-linecap="butt" stroke-linejoin="round"/>
<path d="M 473.50 261.50 L 519.50 261.50 " fill="none" fill-opacity="0.00" stroke="#FF6347" stroke-opacity="1.00" stroke-width="1.00" stroke-linecap="butt" stroke-linejoin="round"/>
<path d="M 554.50 257.50 L 554.50 368.50 " fill="none" fill-opacity="0.00" stroke="#FF6347" stroke-opacity="1.00" stroke-width="1.00" stroke-linecap="butt" stroke-linejoin="round"/>
<path d="M 531.50 313.50 L 577.50 313.50 " fill="none" fill-opacity="0.00" stroke="#FF6347" stroke-opacity="1.00" stroke-width="1.00" stroke-linecap="butt" stroke-linejoin="round"/>
<path d="M 611.50 309.50 L 611.50 434.50 " fill="none" fill-opacity="0.00" stroke="#FF6347" stroke-opacity="1.00" stroke-width="1.00" stroke-linecap="butt" stroke-linejoin="round"/>
<path d="M 588.50 372.50 L 634.50 372.50 " fill="none" fill-opacity="0.00" stroke="#FF6347" stroke-opacity="1.00" stroke-width="1.00" stroke-linecap="butt" stroke-linejoin="round"/>
<path d="M 669.50 368.50 L 669.50 507.50 " fill="none" fill-opacity="0.00" stroke="#FF6347" stroke-opacity="1.00" stroke-width="1.00" stroke-linecap="butt" stroke-linejoin="round"/>
<path d="M 646.50 438.50 L 692.50 438.50 " fill="none" fill-opacity="0.00" stroke="#FF6347" stroke-opacity="1.00" stroke-width="1.00" stroke-linecap="butt" stroke-linejoin="round"/>
<path d="M 209.50 66.50 L 209.50 528.50 " fill="none" fill-opacity="0.00" stroke="#B0B0B0" stroke-opacity="1.00" stroke-width="0.80" stroke-linecap="butt" stroke-linejoin="miter" clip-path="url(#clip-1)"/>
<path d="M 324.50 66.50 L 324.50 528.50 " fill="none" fill-opacity="0.00" stroke="#B0B0B0" stroke-opacity="1.00" stroke-width="0.80" stroke-linecap="butt" stroke-linejoin="miter" clip-path="url(#clip-2)"/>
<path d="M 439.50 66.50 L 439.50 528.50 " fill="none" fill-opacity="0.00" stroke="#B0B0B0" stroke-opacity="1.00" stroke-width="0.80" stroke-linecap="butt" stroke-linejoin="miter" clip-path="url(#clip-3)"/>
<path d="M 554.50 66.50 L 554.50 528.50 " fill="none" fill-opacity="0.00" stroke="#B0B0B0" stroke-opacity="1.00" stroke-width="0.80" stroke-linecap="butt" stroke-linejoin="miter" clip-path="url(#clip-4)"/>
<path d="M 669.50 66.50 L 669.50 528.50 " fill="none" fill-opacity="0.00" stroke="#B0B0B0" stroke-opacity="1.00" stroke-width="0.80" stroke-linecap="butt" stroke-linejoin="miter" clip-path="url(#clip-5)"/>
<path d="M 100.50 89.50 L 720.50 89.50 " fill="none" fill-opacity="0.00" stroke="#B0B0B0" stroke-opacity="1.00" stroke-width="0.80" stroke-linecap="butt" stroke-linejoin="miter" clip-path="url(#clip-6)"/>
<path d="M 100.50 159.50 L 720.50 159.50 " fill="none" fill-opacity="0.00" stroke="#B0B0B0" stroke-opacity="1.00" stroke-width="0.80" stroke-linecap="butt" stroke-linejoin="miter" clip-path="url(#clip-7)"/>
<path d="M 100.50 228.50 L 720.50 228.50 " fill="none" fill-opacity="0.00" stroke="#B0B0B0" stroke-opacity="1.00" stroke-width="0.80" stroke-linecap="butt" stroke-linejoin="miter" clip-path="url(#clip-8)"/>
<path d="M 100.50 298.50 L 720.50 298.50 " fill="none" fill-opacity="0.00" stroke="#B0B0B0" stroke-opacity="1.00" stroke-width="0.80" stroke-linecap="butt" stroke-linejoin="miter" clip-path="url(#clip-9)"/>
<path d="M 100.50 367.50 L 720.50 367.50 " fill="none" fill-opacity="0.00" stroke="#B0B0B0" stroke-opacity="1.00" stroke-width="0.80" stroke-linecap="butt" stroke-linejoin="miter" clip-path="url(#clip-10)"/>
<path d="M 100.50 437.50 L 720.50 437.50 " fill="none" fill-opacity="0.00" stroke="#B0B0B0" stroke-opacity="1.00" stroke-width="0.80" stroke-linecap="butt" stroke-linejoin="miter" clip-path="url(#clip-11)"/>
<path d="M 100.50 506.50 L 720.50 506.50 " fill="none" fill-opacity="0.00" stroke="#B0B0B0" stroke-opacity="1.00" stroke-width="0.80" stroke-linecap="butt" stroke-linejoin="miter" clip-path="url(#clip-12)"/>
<path d="M 151.19 93.94 L 208.70 104.36 L 266.22 121.71 L 323.73 146.01 L 381.24 177.25 L 438.76 215.43 L 496.27 260.55 L 553.78 312.62 L 611.30 371.63 L 668.81 437.58 " fill="none" fill-opacity="0.00" stroke="#4682B4" stroke-opacity="1.00" stroke-width="1.50" stroke-linecap="square" stroke-linejoin="round"/>
<use xlink:href="#marker-13" x="151.19" y="93.94"/>
<use xlink:href="#marker-13" x="208.70" y="104.36"/>
<use xlink:href="#marker-13" x="266.22" y="121.71"/>
<use xlink:href="#marker-13" x="323.73" y="146.01"/>
<use xlink:href="#marker-13" x="381.24" y="177.25"/>
<use xlink:href="#marker-13" x="438.76" y="215.43"/>
<use xlink:href="#marker-13" x="496.27" y="260.55"/>
<use xlink:href="#marker-13" x="553.78" y="312.62"/>
<use xlink:href="#marker-13" x="611.30" y="371.63"/>
<use xlink:href="#marker-13" x="668.81" y="437.58"/>
<text font-family="DejaVu Sans" font-size="16.67" fill="#000000" fill-opacity="1.00" text-anchor="middle" transform="translate(410.00,537.33) scale(1,-1)">Error Bar Plot</text>
<path d="M 552.18 496.06 L 713.06 496.06 L 713.06 521.06 L 552.18 521.06 L 552.18 496.06 Z " fill="#FFFFFF" fill-opacity="0.80" stroke="#CCCCCC" stroke-opacity="1.00" stroke-width="0.80" stroke-linecap="butt" stroke-linejoin="miter"/>
<path d="M 558.50 509.50 L 585.52 509.50 " fill="none" fill-opacity="0.00" stroke="#4682B4" stroke-opacity="1.00" stroke-width="1.50" stroke-linecap="butt" stroke-linejoin="miter"/>
<text font-family="DejaVu Sans" font-size="13.89" fill="#000000" fill-opacity="1.00" text-anchor="start" dominant-baseline="central" transform="translate(596.63,508.56) scale(1,-1)">y = x² ± errors</text>
<path d="M 209.50 66.50 L 209.50 61.50 " fill="none" fill-opacity="0.00" stroke="#000000" stroke-opacity="1.00" stroke-width="0.80" stroke-linecap="butt" stroke-linejoin="miter"/>
<text font-family="DejaVu Sans" font-size="13.89" fill="#000000" fill-opacity="1.00" text-anchor="middle" dominant-baseline="text-before-edge" transform="translate(208.70,56.28) scale(1,-1)">1</text>
<path d="M 324.50 66.50 L 324.50 61.50 " fill="none" fill-opacity="0.00" stroke="#000000" stroke-opacity="1.00" stroke-width="0.80" stroke-linecap="butt" stroke-linejoin="miter"/>
<text font-family="DejaVu Sans" font-size="13.89" fill="#000000" fill-opacity="1.00" text-anchor="middle" dominant-baseline="text-before-edge" transform="translate(323.73,56.28) scale(1,-1)">2</text>
<path d="M 439.50 66.50 L 439.50 61.50 " fill="none" fill-opacity="0.00" stroke="#000000" stroke-opacity="1.00" stroke-width="0.80" stroke-linecap="butt" stroke-linejoin="miter"/>
<text font-family="DejaVu Sans" font-size="13.89" fill="#000000" fill-opacity="1.00" text-anchor="middle" dominant-baseline="text-before-edge" transform="translate(438.76,56.28) scale(1,-1)">3</text>
<path d="M 554.50 66.50 L 554.50 61.50 " fill="none" fill-opacity="0.00" stroke="#000000" stroke-opacity="1.00" stroke-width="0.80" stroke-linecap="butt" stroke-linejoin="miter"/>
<text font-family="DejaVu Sans" font-size="13.89" fill="#000000" fill-opacity="1.00" text-anchor="middle" dominant-baseline="text-before-edge" transform="translate(553.78,56.28) scale(1,-1)">4</text>
<path d="M 669.50 66.50 L 669.50 61.50 " fill="none" fill-opacity="0.00" stroke="#000000" stroke-opacity="1.00" stroke-width="0.80" stroke-linecap="butt" stroke-linejoin="miter"/>
<text font-family="DejaVu Sans" font-size="13.89" fill="#000000" fill-opacity="1.00" text-anchor="middle" dominant-baseline="text-before-edge" transform="translate(668.81,56.28) scale(1,-1)">5</text>
<text font-family="DejaVu Sans" font-size="13.89" fill="#000000" fill-opacity="1.00" text-anchor="middle" dominant-baseline="text-before-edge" transform="translate(410.00,37.17) scale(1,-1)">x</text>
<path d="M 100.50 89.50 L 95.50 89.50 " fill="none" fill-opacity="0.00" stroke="#000000" stroke-opacity="1.00" stroke-width="0.80" stroke-linecap="butt" stroke-linejoin="miter"/>
<text font-family="DejaVu Sans" font-size="13.89" fill="#000000" fill-opacity="1.00" text-anchor="end" dominant-baseline="central" transform="translate(90.28,90.47) scale(1,-1)">0</text>
<path d="M 100.50 159.50 L 95.50 159.50 " fill="none" fill-opacity="0.00" stroke="#000000" stroke-opacity="1.00" stroke-width="0.80" stroke-linecap="butt" stroke-linejoin="miter"/>
<text font-family="DejaVu Sans" font-size="13.89" fill="#000000" fill-opacity="1.00" text-anchor="end" dominant-baseline="central" transform="translate(90.28,159.89) scale(1,-1)">5</text>
<path d="M 100.50 228.50 L 95.50 228.50 " fill="none" fill-opacity="0.00" stroke="#000000" stroke-opacity="1.00" stroke-width="0.80" stroke-linecap="butt" stroke-linejoin="miter"/>
<text font-family="DejaVu Sans" font-size="13.89" fill="#000000" fill-opacity="1.00" text-anchor="end" dominant-baseline="central" transform="translate(90.28,229.31) scale(1,-1)">10</text>
<path d="M 100.50 298.50 L 95.50 298.50 " fill="none" fill-opacity="0.00" stroke="#000000" stroke-opacity="1.00" stroke-width="0.80" stroke-linecap="butt" stroke-linejoin="miter"/>
<text font-family="DejaVu Sans" font-size="13.89" fill="#000000" fill-opacity="1.00" text-anchor="end" dominant-baseline="central" transform="translate(90.28,298.74) scale(1,-1)">15</text>
<path d="M 100.50 367.50 L 95.50 367.50 " fill="none" fill-opacity="0.00" stroke="#000000" stroke-opacity="1.00" stroke-width="0.80" stroke-linecap="butt" stroke-linejoin="miter"/>
<text font-family="DejaVu Sans" font-size="13.89" fill="#000000" fill-opacity="1.00" text-anchor="end" dominant-baseline="central" transform="translate(90.28,368.16) scale(1,-1)">20</text>
<path d="M 100.50 437.50 L 95.50 437.50 " fill="none" fill-opacity="0.00" stroke="#000000" stroke-opacity="1.00" stroke-width="0.80" stroke-linecap="butt" stroke-linejoin="miter"/>
<text font-family="DejaVu Sans" font-size="13.89" fill="#000000" fill-opacity="1.00" text-anchor="end" dominant-baseline="central" transform="translate(90.28,437.58) scale(1,-1)">25</text>
<path d="M 100.50 506.50 L 95.50 506.50 " fill="none" fill-opacity="0.00" stroke="#000000" stroke-opacity="1.00" stroke-width="0.80" stroke-linecap="butt" stroke-linejoin="miter"/>
<text font-family="DejaVu Sans" font-size="13.89" fill="#000000" fill-opacity="1.00" text-anchor="end" dominant-baseline="central" transform="translate(90.28,507.00) scale(1,-1)">30</text>
<text font-family="DejaVu Sans" font-size="13.89" fill="#000000" fill-opacity="1.00" text-anchor="middle" transform="translate(60.90,297.00) rotate(-90.00) scale(1,-1)">y</text>
<path d="M 100.50 66.50 L 100.50 528.50 " fill="none" fill-opacity="0.00" stroke="#000000" stroke-opacity="1.00" stroke-width="0.80" stroke-linecap="square" stroke-linejoin="miter"/>
<path d="M 720.50 66.50 L 720.50 528.50 " fill="none" fill-opacity="0.00" stroke="#000000" stroke-opacity="1.00" stroke-width="0.80" stroke-linecap="square" stroke-linejoin="miter"/>
<path d="M 100.50 65.50 L 720.50 65.50 " fill="none" fill-opacity="0.00" stroke="#000000" stroke-opacity="1.00" stroke-width="0.80" stroke-linecap="square" stroke-linejoin="miter"/>
<path d="M 100.50 527.50 L 720.50 527.50 " fill="none" fill-opacity="0.00" stroke="#000000" stroke-opacity="1.00" stroke-width="0.80" stroke-linecap="square" stroke-linejoin="miter"/>
<path d="M 552.18 496.06 L 713.06 496.06 L 713.06 521.06 L 552.18 521.06 L 552.18 496.06 Z " fill="#FFFFFF" fill-opacity="0.80" stroke="#CCCCCC" stroke-opacity="1.00" stroke-width="0.80" stroke-linecap="butt" stroke-linejoin="miter"/>
<path d="M 558.50 509.50 L 585.52 509.50 " fill="none" fill-opacity="0.00" stroke="#4682B4" stroke-opacity="1.00" stroke-width="1.50" stroke-linecap="butt" stroke-linejoin="miter"/>
<text font-family="DejaVu Sans" font-size="13.89" fill="#000000" fill-opacity="1.00" text-anchor="start" dominant-baseline="central" transform="translate(596.63,508.56) scale(1,-1)">y = x² ± errors</text>
</g>
</svg>
