<?xml version="1.0" encoding="UTF-8"?>
<svg xmlns="http://www.w3.org/2000/svg"
     xmlns:xlink="http://www.w3.org/1999/xlink"
     width="1600" height="400" viewBox="0 0 1600 400">
<defs>
<clipPath id="clip-1">
<rect x="200.00" y="44.00" width="1240.00" height="308.00"/>
</clipPath>
<clipPath id="clip-2">
<rect x="200.00" y="44.00" width="1240.00" height="308.00"/>
</clipPath>
<clipPath id="clip-3">
<rect x="200.00" y="44.00" width="1240.00" height="308.00"/>
</clipPath>
<clipPath id="clip-4">
<rect x="200.00" y="44.00" width="1240.00" height="308.00"/>
</clipPath>
<clipPath id="clip-5">
<rect x="200.00" y="44.00" width="1240.00" height="308.00"/>
</clipPath>
<clipPath id="clip-6">
<rect x="200.00" y="44.00" width="1240.00" height="308.00"/>
</clipPath>
<clipPath id="clip-7">
<rect x="200.00" y="44.00" width="1240.00" height="308.00"/>
</clipPath>
<clipPath id="clip-8">
<rect x="200.00" y="44.00" width="1240.00" height="308.00"/>
</clipPath>
<clipPath id="clip-9">
<rect x="200.00" y="44.00" width="1240.00" height="308.00"/>
</clipPath>
<clipPath id="clip-10">
<rect x="200.00" y="44.00" width="1240.00" height="308.00"/>
</clipPath>
<clipPath id="clip-11">
<rect x="200.00" y="44.00" width="1240.00" height="308.00"/>
</clipPath>
<clipPath id="clip-12">
<rect x="200.00" y="44.00" width="1240.00" height="308.00"/>
</clipPath>
<clipPath id="clip-13">
<rect x="200.00" y="44.00" width="1240.00" height="308.00"/>
</clipPath>
</defs>
<g transform="translate(0,400) scale(1,-1)">
<rect width="1600" height="400" fill="white"/>
<path d="M 0.00 0.00 L 1600.00 0.00 L 1600.00 400.00 L 0.00 400.00 L 0.00 0.00 Z " fill="#FFFFFF" fill-opacity="1.00" stroke="#000000" stroke-opacity="1.00" stroke-width="0.00" stroke-linecap="butt" stroke-linejoin="miter"/>
<path d="M 200.00 44.00 L 1440.00 44.00 L 1440.00 352.00 L 200.00 352.00 L 200.00 44.00 Z " fill="#FFFFFF" fill-opacity="1.00" stroke="none" stroke-opacity="0.00" stroke-width="0.00" stroke-linecap="butt" stroke-linejoin="miter"/>
<path d="M 256.50 44.50 L 256.50 352.50 " fill="none" fill-opacity="0.00" stroke="#B0B0B0" stroke-opacity="1.00" stroke-width="0.80" stroke-linecap="butt" stroke-linejoin="miter" clip-path="url(#clip-1)"/>
<path d="M 483.50 44.50 L 483.50 352.50 " fill="none" fill-opacity="0.00" stroke="#B0B0B0" stroke-opacity="1.00" stroke-width="0.80" stroke-linecap="butt" stroke-linejoin="miter" clip-path="url(#clip-2)"/>
<path d="M 710.50 44.50 L 710.50 352.50 " fill="none" fill-opacity="0.00" stroke="#B0B0B0" stroke-opacity="1.00" stroke-width="0.80" stroke-linecap="butt" stroke-linejoin="miter" clip-path="url(#clip-3)"/>
<path d="M 936.50 44.50 L 936.50 352.50 " fill="none" fill-opacity="0.00" stroke="#B0B0B0" stroke-opacity="1.00" stroke-width="0.80" stroke-linecap="butt" stroke-linejoin="miter" clip-path="url(#clip-4)"/>
<path d="M 1163.50 44.50 L 1163.50 352.50 " fill="none" fill-opacity="0.00" stroke="#B0B0B0" stroke-opacity="1.00" stroke-width="0.80" stroke-linecap="butt" stroke-linejoin="miter" clip-path="url(#clip-5)"/>
<path d="M 1389.50 44.50 L 1389.50 352.50 " fill="none" fill-opacity="0.00" stroke="#B0B0B0" stroke-opacity="1.00" stroke-width="0.80" stroke-linecap="butt" stroke-linejoin="miter" clip-path="url(#clip-6)"/>
<path d="M 200.50 76.50 L 1440.50 76.50 " fill="none" fill-opacity="0.00" stroke="#B0B0B0" stroke-opacity="1.00" stroke-width="0.80" stroke-linecap="butt" stroke-linejoin="miter" clip-path="url(#clip-7)"/>
<path d="M 200.50 116.50 L 1440.50 116.50 " fill="none" fill-opacity="0.00" stroke="#B0B0B0" stroke-opacity="1.00" stroke-width="0.80" stroke-linecap="butt" stroke-linejoin="miter" clip-path="url(#clip-8)"/>
<path d="M 200.50 156.50 L 1440.50 156.50 " fill="none" fill-opacity="0.00" stroke="#B0B0B0" stroke-opacity="1.00" stroke-width="0.80" stroke-linecap="butt" stroke-linejoin="miter" clip-path="url(#clip-9)"/>
<path d="M 200.50 197.50 L 1440.50 197.50 " fill="none" fill-opacity="0.00" stroke="#B0B0B0" stroke-opacity="1.00" stroke-width="0.80" stroke-linecap="butt" stroke-linejoin="miter" clip-path="url(#clip-10)"/>
<path d="M 200.50 237.50 L 1440.50 237.50 " fill="none" fill-opacity="0.00" stroke="#B0B0B0" stroke-opacity="1.00" stroke-width="0.80" stroke-linecap="butt" stroke-linejoin="miter" clip-path="url(#clip-11)"/>
<path d="M 200.50 277.50 L 1440.50 277.50 " fill="none" fill-opacity="0.00" stroke="#B0B0B0" stroke-opacity="1.00" stroke-width="0.80" stroke-linecap="butt" stroke-linejoin="miter" clip-path="url(#clip-12)"/>
<path d="M 200.50 318.50 L 1440.50 318.50 " fill="none" fill-opacity="0.00" stroke="#B0B0B0" stroke-opacity="1.00" stroke-width="0.80" stroke-linecap="butt" stroke-linejoin="miter" clip-path="url(#clip-13)"/>
<path d="M 256.36 197.71 L 262.03 230.34 L 267.69 256.30 L 273.36 271.41 L 279.02 275.42 L 284.69 271.93 L 290.35 266.74 L 296.02 265.38 L 301.68 270.76 L 307.35 281.99 L 313.01 294.78 L 318.68 303.28 L 324.34 302.59 L 330.00 290.96 L 335.67 270.67 L 341.33 247.31 L 347.00 227.74 L 352.66 217.41 L 358.33 218.37 L 363.99 228.50 L 369.66 242.48 L 375.32 254.00 L 380.99 258.26 L 386.65 253.91 L 392.32 243.47 L 397.98 232.11 L 403.65 225.44 L 409.31 226.98 L 414.97 236.54 L 420.64 250.14 L 426.30 261.48 L 431.97 264.40 L 437.63 255.29 L 443.30 234.61 L 448.96 206.66 L 454.63 177.99 L 460.29 154.82 L 465.96 140.70 L 471.62 135.27 L 477.29 134.66 L 482.95 133.28 L 488.62 126.35 L 494.28 112.08 L 499.95 92.56 L 505.61 73.07 L 511.27 60.00 L 516.94 58.30 L 522.60 69.43 L 528.27 90.70 L 533.93 116.22 L 539.60 139.17 L 545.26 154.34 L 550.93 160.08 L 556.59 158.71 L 562.26 155.37 L 567.92 155.72 L 573.59 163.49 L 579.25 178.77 L 584.92 197.96 L 590.58 215.18 L 596.24 224.68 L 601.91 223.28 L 607.57 211.77 L 613.24 194.74 L 618.90 178.87 L 624.57 170.42 L 630.23 172.80 L 635.90 185.43 L 641.56 204.01 L 647.23 222.48 L 652.89 235.47 L 658.56 240.53 L 664.22 239.08 L 669.89 235.74 L 675.55 236.29 L 681.22 245.13 L 686.88 263.31 L 692.54 287.83 L 698.21 312.69 L 703.87 331.09 L 709.54 338.00 L 715.20 332.11 L 720.87 316.20 L 726.53 295.99 L 732.20 277.78 L 737.86 265.94 L 743.53 261.26 L 749.19 260.76 L 754.86 259.11 L 760.52 251.05 L 766.19 233.72 L 771.85 208.13 L 777.51 178.94 L 783.18 152.77 L 788.84 135.66 L 794.51 130.77 L 800.17 137.09 L 805.84 149.95 L 811.50 162.82 L 817.17 169.95 L 822.83 168.54 L 828.50 159.76 L 834.16 148.05 L 839.83 139.17 L 845.49 137.62 L 851.16 144.67 L 856.82 157.67 L 862.49 171.07 L 868.15 178.59 L 873.81 175.78 L 879.48 161.92 L 885.14 140.34 L 890.81 117.27 L 896.47 99.39 L 902.14 91.39 L 907.80 94.17 L 913.47 104.76 L 919.13 117.65 L 924.80 127.25 L 930.46 130.27 L 936.13 127.13 L 941.79 121.83 L 947.46 120.27 L 953.12 127.78 L 958.78 146.78 L 964.45 175.62 L 970.11 209.04 L 975.78 240.09 L 981.44 262.69 L 987.11 273.89 L 992.77 274.82 L 998.44 270.07 L 1004.10 265.64 L 1009.77 266.40 L 1015.43 274.04 L 1021.10 286.40 L 1026.76 298.41 L 1032.43 304.24 L 1038.09 299.87 L 1043.76 284.87 L 1049.42 262.81 L 1055.08 239.99 L 1060.75 223.05 L 1066.41 216.50 L 1072.08 220.97 L 1077.74 233.09 L 1083.41 246.92 L 1089.07 256.39 L 1094.74 257.71 L 1100.40 250.86 L 1106.07 239.45 L 1111.73 229.11 L 1117.40 224.97 L 1123.06 229.42 L 1128.73 240.95 L 1134.39 254.54 L 1140.05 263.66 L 1145.72 262.75 L 1151.38 249.49 L 1157.05 225.72 L 1162.71 196.76 L 1168.38 169.34 L 1174.04 149.00 L 1179.71 138.04 L 1185.37 134.80 L 1191.04 134.56 L 1196.70 131.73 L 1202.37 122.35 L 1208.03 105.89 L 1213.70 85.68 L 1219.36 67.66 L 1225.03 58.00 L 1230.69 60.66 L 1236.35 75.69 L 1242.02 99.15 L 1247.68 124.54 L 1253.35 145.30 L 1259.01 157.29 L 1264.68 160.20 L 1270.34 157.51 L 1276.01 154.83 L 1281.67 157.42 L 1287.34 167.90 L 1293.00 185.05 L 1298.67 204.29 L 1304.33 219.47 L 1310.00 225.48 L 1315.66 220.38 L 1321.32 206.35 L 1326.99 188.93 L 1332.65 174.95 L 1338.32 169.95 L 1343.98 176.06 L 1349.65 191.30 L 1355.31 210.54 L 1360.98 227.66 L 1366.64 238.06 L 1372.31 240.59 L 1377.97 237.88 L 1383.64 235.22 " fill="none" fill-opacity="0.00" stroke="#4682B4" stroke-opacity="1.00" stroke-width="1.00" stroke-linecap="square" stroke-linejoin="round"/>
<text font-family="DejaVu Sans" font-size="16.67" fill="#000000" fill-opacity="1.00" text-anchor="middle" transform="translate(820.00,361.33) scale(1,-1)">Wide Aspect Ratio — Panoramic Time Series</text>
<path d="M 1253.35 320.06 L 1433.06 320.06 L 1433.06 345.06 L 1253.35 345.06 L 1253.35 320.06 Z " fill="#FFFFFF" fill-opacity="0.80" stroke="#CCCCCC" stroke-opacity="1.00" stroke-width="0.80" stroke-linecap="butt" stroke-linejoin="miter"/>
<path d="M 1259.50 333.50 L 1287.50 333.50 " fill="none" fill-opacity="0.00" stroke="#4682B4" stroke-opacity="1.00" stroke-width="1.00" stroke-linecap="butt" stroke-linejoin="miter"/>
<text font-family="DejaVu Sans" font-size="13.89" fill="#000000" fill-opacity="1.00" text-anchor="start" dominant-baseline="central" transform="translate(1297.80,332.56) scale(1,-1)">composite signal</text>
<path d="M 256.50 44.50 L 256.50 39.50 " fill="none" fill-opacity="0.00" stroke="#000000" stroke-opacity="1.00" stroke-width="0.80" stroke-linecap="butt" stroke-linejoin="miter"/>
<text font-family="DejaVu Sans" font-size="13.89" fill="#000000" fill-opacity="1.00" text-anchor="middle" dominant-baseline="text-before-edge" transform="translate(256.36,34.28) scale(1,-1)">0</text>
<path d="M 483.50 44.50 L 483.50 39.50 " fill="none" fill-opacity="0.00" stroke="#000000" stroke-opacity="1.00" stroke-width="0.80" stroke-linecap="butt" stroke-linejoin="miter"/>
<text font-family="DejaVu Sans" font-size="13.89" fill="#000000" fill-opacity="1.00" text-anchor="middle" dominant-baseline="text-before-edge" transform="translate(482.95,34.28) scale(1,-1)">2</text>
<path d="M 710.50 44.50 L 710.50 39.50 " fill="none" fill-opacity="0.00" stroke="#000000" stroke-opacity="1.00" stroke-width="0.80" stroke-linecap="butt" stroke-linejoin="miter"/>
<text font-family="DejaVu Sans" font-size="13.89" fill="#000000" fill-opacity="1.00" text-anchor="middle" dominant-baseline="text-before-edge" transform="translate(709.54,34.28) scale(1,-1)">4</text>
<path d="M 936.50 44.50 L 936.50 39.50 " fill="none" fill-opacity="0.00" stroke="#000000" stroke-opacity="1.00" stroke-width="0.80" stroke-linecap="butt" stroke-linejoin="miter"/>
<text font-family="DejaVu Sans" font-size="13.89" fill="#000000" fill-opacity="1.00" text-anchor="middle" dominant-baseline="text-before-edge" transform="translate(936.13,34.28) scale(1,-1)">6</text>
<path d="M 1163.50 44.50 L 1163.50 39.50 " fill="none" fill-opacity="0.00" stroke="#000000" stroke-opacity="1.00" stroke-width="0.80" stroke-linecap="butt" stroke-linejoin="miter"/>
<text font-family="DejaVu Sans" font-size="13.89" fill="#000000" fill-opacity="1.00" text-anchor="middle" dominant-baseline="text-before-edge" transform="translate(1162.71,34.28) scale(1,-1)">8</text>
<path d="M 1389.50 44.50 L 1389.50 39.50 " fill="none" fill-opacity="0.00" stroke="#000000" stroke-opacity="1.00" stroke-width="0.80" stroke-linecap="butt" stroke-linejoin="miter"/>
<text font-family="DejaVu Sans" font-size="13.89" fill="#000000" fill-opacity="1.00" text-anchor="middle" dominant-baseline="text-before-edge" transform="translate(1389.30,34.28) scale(1,-1)">10</text>
<text font-family="DejaVu Sans" font-size="13.89" fill="#000000" fill-opacity="1.00" text-anchor="middle" dominant-baseline="text-before-edge" transform="translate(820.00,15.17) scale(1,-1)">Time (s)</text>
<path d="M 200.50 76.50 L 195.50 76.50 " fill="none" fill-opacity="0.00" stroke="#000000" stroke-opacity="1.00" stroke-width="0.80" stroke-linecap="butt" stroke-linejoin="miter"/>
<text font-family="DejaVu Sans" font-size="13.89" fill="#000000" fill-opacity="1.00" text-anchor="end" dominant-baseline="central" transform="translate(190.28,76.90) scale(1,-1)">-1.5</text>
<path d="M 200.50 116.50 L 195.50 116.50 " fill="none" fill-opacity="0.00" stroke="#000000" stroke-opacity="1.00" stroke-width="0.80" stroke-linecap="butt" stroke-linejoin="miter"/>
<text font-family="DejaVu Sans" font-size="13.89" fill="#000000" fill-opacity="1.00" text-anchor="end" dominant-baseline="central" transform="translate(190.28,117.17) scale(1,-1)">-1.0</text>
<path d="M 200.50 156.50 L 195.50 156.50 " fill="none" fill-opacity="0.00" stroke="#000000" stroke-opacity="1.00" stroke-width="0.80" stroke-linecap="butt" stroke-linejoin="miter"/>
<text font-family="DejaVu Sans" font-size="13.89" fill="#000000" fill-opacity="1.00" text-anchor="end" dominant-baseline="central" transform="translate(190.28,157.44) scale(1,-1)">-0.5</text>
<path d="M 200.50 197.50 L 195.50 197.50 " fill="none" fill-opacity="0.00" stroke="#000000" stroke-opacity="1.00" stroke-width="0.80" stroke-linecap="butt" stroke-linejoin="miter"/>
<text font-family="DejaVu Sans" font-size="13.89" fill="#000000" fill-opacity="1.00" text-anchor="end" dominant-baseline="central" transform="translate(190.28,197.71) scale(1,-1)">0.0</text>
<path d="M 200.50 237.50 L 195.50 237.50 " fill="none" fill-opacity="0.00" stroke="#000000" stroke-opacity="1.00" stroke-width="0.80" stroke-linecap="butt" stroke-linejoin="miter"/>
<text font-family="DejaVu Sans" font-size="13.89" fill="#000000" fill-opacity="1.00" text-anchor="end" dominant-baseline="central" transform="translate(190.28,237.98) scale(1,-1)">0.5</text>
<path d="M 200.50 277.50 L 195.50 277.50 " fill="none" fill-opacity="0.00" stroke="#000000" stroke-opacity="1.00" stroke-width="0.80" stroke-linecap="butt" stroke-linejoin="miter"/>
<text font-family="DejaVu Sans" font-size="13.89" fill="#000000" fill-opacity="1.00" text-anchor="end" dominant-baseline="central" transform="translate(190.28,278.25) scale(1,-1)">1.0</text>
<path d="M 200.50 318.50 L 195.50 318.50 " fill="none" fill-opacity="0.00" stroke="#000000" stroke-opacity="1.00" stroke-width="0.80" stroke-linecap="butt" stroke-linejoin="miter"/>
<text font-family="DejaVu Sans" font-size="13.89" fill="#000000" fill-opacity="1.00" text-anchor="end" dominant-baseline="central" transform="translate(190.28,318.52) scale(1,-1)">1.5</text>
<text font-family="DejaVu Sans" font-size="13.89" fill="#000000" fill-opacity="1.00" text-anchor="middle" transform="translate(144.51,198.00) rotate(-90.00) scale(1,-1)">Amplitude</text>
<path d="M 200.50 44.50 L 200.50 352.50 " fill="none" fill-opacity="0.00" stroke="#000000" stroke-opacity="1.00" stroke-width="0.80" stroke-linecap="square" stroke-linejoin="miter"/>
<path d="M 1440.50 44.50 L 1440.50 352.50 " fill="none" fill-opacity="0.00" stroke="#000000" stroke-opacity="1.00" stroke-width="0.80" stroke-linecap="square" stroke-linejoin="miter"/>
<path d="M 200.50 43.50 L 1440.50 43.50 " fill="none" fill-opacity="0.00" stroke="#000000" stroke-opacity="1.00" stroke-width="0.80" stroke-linecap="square" stroke-linejoin="miter"/>
<path d="M 200.50 351.50 L 1440.50 351.50 " fill="none" fill-opacity="0.00" stroke="#000000" stroke-opacity="1.00" stroke-width="0.80" stroke-linecap="square" stroke-linejoin="miter"/>
<path d="M 1253.35 320.06 L 1433.06 320.06 L 1433.06 345.06 L 1253.35 345.06 L 1253.35 320.06 Z " fill="#FFFFFF" fill-opacity="0.80" stroke="#CCCCCC" stroke-opacity="1.00" stroke-width="0.80" stroke-linecap="butt" stroke-linejoin="miter"/>
<path d="M 1259.50 333.50 L 1287.50 333.50 " fill="none" fill-opacity="0.00" stroke="#4682B4" stroke-opacity="1.00" stroke-width="1.00" stroke-linecap="butt" stroke-linejoin="miter"/>
<text font-family="DejaVu Sans" font-size="13.89" fill="#000000" fill-opacity="1.00" text-anchor="start" dominant-baseline="central" transform="translate(1297.80,332.56) scale(1,-1)">composite signal</text>
</g>
</svg>
