<?xml version="1.0" encoding="UTF-8"?>
<svg xmlns="http://www.w3.org/2000/svg"
     xmlns:xlink="http://www.w3.org/1999/xlink"
     width="800" height="500" viewBox="0 0 800 500">
<defs>
</defs>
<g transform="translate(0,500) scale(1,-1)">
<rect width="800" height="500" fill="white"/>
<path d="M 0.00 0.00 L 800.00 0.00 L 800.00 500.00 L 0.00 500.00 L 0.00 0.00 Z " fill="#FFFFFF" fill-opacity="1.00" stroke="#000000" stroke-opacity="1.00" stroke-width="0.00" stroke-linecap="butt" stroke-linejoin="miter"/>
<path d="M 100.00 55.00 L 720.00 55.00 L 720.00 440.00 L 100.00 440.00 L 100.00 55.00 Z " fill="#FFFFFF" fill-opacity="1.00" stroke="none" stroke-opacity="0.00" stroke-width="0.00" stroke-linecap="butt" stroke-linejoin="miter"/>
<path d="M 131.01 258.52 L 133.85 269.37 L 136.68 279.87 L 139.51 289.85 L 142.34 299.16 L 145.18 307.64 L 148.01 315.17 L 150.84 321.62 L 153.67 326.89 L 156.51 330.89 L 159.34 333.56 L 162.17 334.87 L 165.00 334.78 L 167.83 333.30 L 170.67 330.46 L 173.50 326.29 L 176.33 320.87 L 179.16 314.28 L 182.00 306.63 L 184.83 298.03 L 187.66 288.63 L 190.49 278.58 L 193.33 268.03 L 196.16 257.15 L 198.99 246.12 L 201.82 235.11 L 204.66 224.30 L 207.49 213.85 L 210.32 203.95 L 213.15 194.74 L 215.98 186.36 L 218.82 178.96 L 221.65 172.66 L 224.48 167.54 L 227.31 163.70 L 230.15 161.20 L 232.98 160.07 L 235.81 160.33 L 238.64 161.98 L 241.48 164.99 L 244.31 169.32 L 247.14 174.89 L 249.97 181.62 L 252.80 189.40 L 255.64 198.10 L 258.47 207.59 L 261.30 217.72 L 264.13 228.32 L 266.97 239.22 L 266.97 255.79 L 264.13 266.80 L 261.30 277.74 L 258.47 288.56 L 255.64 299.21 L 252.80 309.66 L 249.97 319.86 L 247.14 329.77 L 244.31 339.35 L 241.48 348.57 L 238.64 357.38 L 235.81 365.76 L 232.98 373.67 L 230.15 381.07 L 227.31 387.94 L 224.48 394.25 L 221.65 399.97 L 218.82 405.09 L 215.98 409.58 L 213.15 413.42 L 210.32 416.60 L 207.49 419.11 L 204.66 420.93 L 201.82 422.06 L 198.99 422.50 L 196.16 422.24 L 193.33 421.28 L 190.49 419.63 L 187.66 417.29 L 184.83 414.28 L 182.00 410.60 L 179.16 406.27 L 176.33 401.31 L 173.50 395.73 L 170.67 389.57 L 167.83 382.84 L 165.00 375.56 L 162.17 367.78 L 159.34 359.52 L 156.51 350.81 L 153.67 341.69 L 150.84 332.20 L 148.01 322.36 L 145.18 312.23 L 142.34 301.84 L 139.51 291.24 L 136.68 280.46 L 133.85 269.54 L 131.01 258.54 Z " fill="#008000" fill-opacity="0.40" stroke="#000000" stroke-opacity="0.00" stroke-width="0.00" stroke-linecap="butt" stroke-linejoin="miter"/>
<path d="M 411.42 253.02 L 414.25 263.98 L 417.08 274.67 L 419.91 284.93 L 422.75 294.60 L 425.58 303.51 L 428.41 311.53 L 431.24 318.53 L 434.07 324.40 L 436.91 329.05 L 439.74 332.40 L 442.57 334.39 L 445.40 335.00 L 448.24 334.22 L 451.07 332.05 L 453.90 328.54 L 456.73 323.74 L 459.57 317.72 L 462.40 310.58 L 465.23 302.44 L 468.06 293.43 L 470.90 283.68 L 473.73 273.35 L 476.56 262.62 L 479.39 251.64 L 482.22 240.60 L 485.06 229.67 L 487.89 219.02 L 490.72 208.82 L 493.55 199.25 L 496.39 190.44 L 499.22 182.53 L 502.05 175.67 L 504.88 169.95 L 507.72 165.46 L 510.55 162.28 L 513.38 160.46 L 516.21 160.02 L 519.05 160.98 L 521.88 163.32 L 524.71 166.99 L 527.54 171.95 L 530.37 178.11 L 533.21 185.38 L 536.04 193.64 L 538.87 202.76 L 541.70 212.58 L 544.54 222.97 L 547.37 233.74 L 550.20 244.74 L 550.20 250.26 L 547.37 261.30 L 544.54 272.28 L 541.70 283.16 L 538.87 293.91 L 536.04 304.46 L 533.21 314.79 L 530.37 324.85 L 527.54 334.60 L 524.71 344.01 L 521.88 353.03 L 519.05 361.63 L 516.21 369.77 L 513.38 377.43 L 510.55 384.57 L 507.72 391.16 L 504.88 397.18 L 502.05 402.61 L 499.22 407.41 L 496.39 411.58 L 493.55 415.09 L 490.72 417.94 L 487.89 420.11 L 485.06 421.58 L 482.22 422.37 L 479.39 422.46 L 476.56 421.85 L 473.73 420.54 L 470.90 418.55 L 468.06 415.87 L 465.23 412.52 L 462.40 408.52 L 459.57 403.87 L 456.73 398.60 L 453.90 392.72 L 451.07 386.27 L 448.24 379.27 L 445.40 371.73 L 442.57 363.71 L 439.74 355.22 L 436.91 346.30 L 434.07 336.99 L 431.24 327.32 L 428.41 317.33 L 425.58 307.07 L 422.75 296.56 L 419.91 285.86 L 417.08 275.01 L 414.25 264.05 L 411.42 253.02 Z " fill="#008000" fill-opacity="0.40" stroke="#000000" stroke-opacity="0.00" stroke-width="0.00" stroke-linecap="butt" stroke-linejoin="miter"/>
<path d="M 128.18 247.50 L 128.18 247.50 Z " fill="#FF0000" fill-opacity="0.40" stroke="#000000" stroke-opacity="0.00" stroke-width="0.00" stroke-linecap="butt" stroke-linejoin="miter"/>
<path d="M 269.80 250.26 L 272.63 261.26 L 275.46 272.03 L 278.30 282.42 L 281.13 292.24 L 283.96 301.36 L 286.79 309.62 L 289.63 316.89 L 292.46 323.05 L 295.29 328.01 L 298.12 331.68 L 300.95 334.02 L 303.79 334.98 L 306.62 334.54 L 309.45 332.72 L 312.28 329.54 L 315.12 325.05 L 317.95 319.33 L 320.78 312.47 L 323.61 304.56 L 326.45 295.75 L 329.28 286.18 L 332.11 275.98 L 334.94 265.33 L 337.78 254.40 L 340.61 243.36 L 343.44 232.38 L 346.27 221.65 L 349.10 211.32 L 351.94 201.57 L 354.77 192.56 L 357.60 184.42 L 360.43 177.28 L 363.27 171.26 L 366.10 166.46 L 368.93 162.95 L 371.76 160.78 L 374.60 160.00 L 377.43 160.61 L 380.26 162.60 L 383.09 165.95 L 385.93 170.60 L 388.76 176.47 L 391.59 183.47 L 394.42 191.49 L 397.25 200.40 L 400.09 210.07 L 402.92 220.33 L 405.75 231.02 L 408.58 241.98 L 408.58 241.98 L 405.75 230.95 L 402.92 219.99 L 400.09 209.14 L 397.25 198.44 L 394.42 187.93 L 391.59 177.67 L 388.76 167.68 L 385.93 158.01 L 383.09 148.70 L 380.26 139.78 L 377.43 131.29 L 374.60 123.27 L 371.76 115.73 L 368.93 108.73 L 366.10 102.28 L 363.27 96.40 L 360.43 91.13 L 357.60 86.48 L 354.77 82.48 L 351.94 79.13 L 349.10 76.45 L 346.27 74.46 L 343.44 73.15 L 340.61 72.54 L 337.78 72.63 L 334.94 73.42 L 332.11 74.89 L 329.28 77.06 L 326.45 79.91 L 323.61 83.42 L 320.78 87.59 L 317.95 92.39 L 315.12 97.82 L 312.28 103.84 L 309.45 110.43 L 306.62 117.57 L 303.79 125.23 L 300.95 133.37 L 298.12 141.97 L 295.29 150.99 L 292.46 160.40 L 289.63 170.15 L 286.79 180.21 L 283.96 190.54 L 281.13 201.09 L 278.30 211.84 L 275.46 222.72 L 272.63 233.70 L 269.80 244.74 Z " fill="#FF0000" fill-opacity="0.40" stroke="#000000" stroke-opacity="0.00" stroke-width="0.00" stroke-linecap="butt" stroke-linejoin="miter"/>
<path d="M 553.03 255.78 L 555.87 266.68 L 558.70 277.28 L 561.53 287.41 L 564.36 296.90 L 567.20 305.60 L 570.03 313.38 L 572.86 320.11 L 575.69 325.68 L 578.52 330.01 L 581.36 333.02 L 584.19 334.67 L 587.02 334.93 L 589.85 333.80 L 592.69 331.30 L 595.52 327.46 L 598.35 322.34 L 601.18 316.04 L 604.02 308.64 L 606.85 300.26 L 609.68 291.05 L 612.51 281.15 L 615.34 270.70 L 618.18 259.89 L 621.01 248.88 L 623.84 237.85 L 626.67 226.97 L 629.51 216.42 L 632.34 206.37 L 635.17 196.97 L 638.00 188.37 L 640.84 180.72 L 643.67 174.13 L 646.50 168.71 L 649.33 164.54 L 652.17 161.70 L 655.00 160.22 L 657.83 160.13 L 660.66 161.44 L 663.49 164.11 L 666.33 168.11 L 669.16 173.38 L 671.99 179.83 L 674.82 187.36 L 677.66 195.84 L 680.49 205.15 L 683.32 215.13 L 686.15 225.63 L 688.99 236.48 L 691.82 247.50 L 691.82 247.50 L 688.99 236.46 L 686.15 225.46 L 683.32 214.54 L 680.49 203.76 L 677.66 193.16 L 674.82 182.77 L 671.99 172.64 L 669.16 162.80 L 666.33 153.31 L 663.49 144.19 L 660.66 135.48 L 657.83 127.22 L 655.00 119.44 L 652.17 112.16 L 649.33 105.43 L 646.50 99.27 L 643.67 93.69 L 640.84 88.73 L 638.00 84.40 L 635.17 80.72 L 632.34 77.71 L 629.51 75.37 L 626.67 73.72 L 623.84 72.76 L 621.01 72.50 L 618.18 72.94 L 615.34 74.07 L 612.51 75.89 L 609.68 78.40 L 606.85 81.58 L 604.02 85.42 L 601.18 89.91 L 598.35 95.03 L 595.52 100.75 L 592.69 107.06 L 589.85 113.93 L 587.02 121.33 L 584.19 129.24 L 581.36 137.62 L 578.52 146.43 L 575.69 155.65 L 572.86 165.23 L 570.03 175.14 L 567.20 185.34 L 564.36 195.79 L 561.53 206.44 L 558.70 217.26 L 555.87 228.20 L 553.03 239.21 Z " fill="#FF0000" fill-opacity="0.40" stroke="#000000" stroke-opacity="0.00" stroke-width="0.00" stroke-linecap="butt" stroke-linejoin="miter"/>
<path d="M 128.18 247.50 L 131.01 258.52 L 133.85 269.37 L 136.68 279.87 L 139.51 289.85 L 142.34 299.16 L 145.18 307.64 L 148.01 315.17 L 150.84 321.62 L 153.67 326.89 L 156.51 330.89 L 159.34 333.56 L 162.17 334.87 L 165.00 334.78 L 167.83 333.30 L 170.67 330.46 L 173.50 326.29 L 176.33 320.87 L 179.16 314.28 L 182.00 306.63 L 184.83 298.03 L 187.66 288.63 L 190.49 278.58 L 193.33 268.03 L 196.16 257.15 L 198.99 246.12 L 201.82 235.11 L 204.66 224.30 L 207.49 213.85 L 210.32 203.95 L 213.15 194.74 L 215.98 186.36 L 218.82 178.96 L 221.65 172.66 L 224.48 167.54 L 227.31 163.70 L 230.15 161.20 L 232.98 160.07 L 235.81 160.33 L 238.64 161.98 L 241.48 164.99 L 244.31 169.32 L 247.14 174.89 L 249.97 181.62 L 252.80 189.40 L 255.64 198.10 L 258.47 207.59 L 261.30 217.72 L 264.13 228.32 L 266.97 239.22 L 269.80 250.26 L 272.63 261.26 L 275.46 272.03 L 278.30 282.42 L 281.13 292.24 L 283.96 301.36 L 286.79 309.62 L 289.63 316.89 L 292.46 323.05 L 295.29 328.01 L 298.12 331.68 L 300.95 334.02 L 303.79 334.98 L 306.62 334.54 L 309.45 332.72 L 312.28 329.54 L 315.12 325.05 L 317.95 319.33 L 320.78 312.47 L 323.61 304.56 L 326.45 295.75 L 329.28 286.18 L 332.11 275.98 L 334.94 265.33 L 337.78 254.40 L 340.61 243.36 L 343.44 232.38 L 346.27 221.65 L 349.10 211.32 L 351.94 201.57 L 354.77 192.56 L 357.60 184.42 L 360.43 177.28 L 363.27 171.26 L 366.10 166.46 L 368.93 162.95 L 371.76 160.78 L 374.60 160.00 L 377.43 160.61 L 380.26 162.60 L 383.09 165.95 L 385.93 170.60 L 388.76 176.47 L 391.59 183.47 L 394.42 191.49 L 397.25 200.40 L 400.09 210.07 L 402.92 220.33 L 405.75 231.02 L 408.58 241.98 L 411.42 253.02 L 414.25 263.98 L 417.08 274.67 L 419.91 284.93 L 422.75 294.60 L 425.58 303.51 L 428.41 311.53 L 431.24 318.53 L 434.07 324.40 L 436.91 329.05 L 439.74 332.40 L 442.57 334.39 L 445.40 335.00 L 448.24 334.22 L 451.07 332.05 L 453.90 328.54 L 456.73 323.74 L 459.57 317.72 L 462.40 310.58 L 465.23 302.44 L 468.06 293.43 L 470.90 283.68 L 473.73 273.35 L 476.56 262.62 L 479.39 251.64 L 482.22 240.60 L 485.06 229.67 L 487.89 219.02 L 490.72 208.82 L 493.55 199.25 L 496.39 190.44 L 499.22 182.53 L 502.05 175.67 L 504.88 169.95 L 507.72 165.46 L 510.55 162.28 L 513.38 160.46 L 516.21 160.02 L 519.05 160.98 L 521.88 163.32 L 524.71 166.99 L 527.54 171.95 L 530.37 178.11 L 533.21 185.38 L 536.04 193.64 L 538.87 202.76 L 541.70 212.58 L 544.54 222.97 L 547.37 233.74 L 550.20 244.74 L 553.03 255.78 L 555.87 266.68 L 558.70 277.28 L 561.53 287.41 L 564.36 296.90 L 567.20 305.60 L 570.03 313.38 L 572.86 320.11 L 575.69 325.68 L 578.52 330.01 L 581.36 333.02 L 584.19 334.67 L 587.02 334.93 L 589.85 333.80 L 592.69 331.30 L 595.52 327.46 L 598.35 322.34 L 601.18 316.04 L 604.02 308.64 L 606.85 300.26 L 609.68 291.05 L 612.51 281.15 L 615.34 270.70 L 618.18 259.89 L 621.01 248.88 L 623.84 237.85 L 626.67 226.97 L 629.51 216.42 L 632.34 206.37 L 635.17 196.97 L 638.00 188.37 L 640.84 180.72 L 643.67 174.13 L 646.50 168.71 L 649.33 164.54 L 652.17 161.70 L 655.00 160.22 L 657.83 160.13 L 660.66 161.44 L 663.49 164.11 L 666.33 168.11 L 669.16 173.38 L 671.99 179.83 L 674.82 187.36 L 677.66 195.84 L 680.49 205.15 L 683.32 215.13 L 686.15 225.63 L 688.99 236.48 L 691.82 247.50 " fill="none" fill-opacity="0.00" stroke="#FF0000" stroke-opacity="1.00" stroke-width="1.50" stroke-linecap="square" stroke-linejoin="round"/>
<path d="M 128.18 247.50 L 131.01 258.54 L 133.85 269.54 L 136.68 280.46 L 139.51 291.24 L 142.34 301.84 L 145.18 312.23 L 148.01 322.36 L 150.84 332.20 L 153.67 341.69 L 156.51 350.81 L 159.34 359.52 L 162.17 367.78 L 165.00 375.56 L 167.83 382.84 L 170.67 389.57 L 173.50 395.73 L 176.33 401.31 L 179.16 406.27 L 182.00 410.60 L 184.83 414.28 L 187.66 417.29 L 190.49 419.63 L 193.33 421.28 L 196.16 422.24 L 198.99 422.50 L 201.82 422.06 L 204.66 420.93 L 207.49 419.11 L 210.32 416.60 L 213.15 413.42 L 215.98 409.58 L 218.82 405.09 L 221.65 399.97 L 224.48 394.25 L 227.31 387.94 L 230.15 381.07 L 232.98 373.67 L 235.81 365.76 L 238.64 357.38 L 241.48 348.57 L 244.31 339.35 L 247.14 329.77 L 249.97 319.86 L 252.80 309.66 L 255.64 299.21 L 258.47 288.56 L 261.30 277.74 L 264.13 266.80 L 266.97 255.79 L 269.80 244.74 L 272.63 233.70 L 275.46 222.72 L 278.30 211.84 L 281.13 201.09 L 283.96 190.54 L 286.79 180.21 L 289.63 170.15 L 292.46 160.40 L 295.29 150.99 L 298.12 141.97 L 300.95 133.37 L 303.79 125.23 L 306.62 117.57 L 309.45 110.43 L 312.28 103.84 L 315.12 97.82 L 317.95 92.39 L 320.78 87.59 L 323.61 83.42 L 326.45 79.91 L 329.28 77.06 L 332.11 74.89 L 334.94 73.42 L 337.78 72.63 L 340.61 72.54 L 343.44 73.15 L 346.27 74.46 L 349.10 76.45 L 351.94 79.13 L 354.77 82.48 L 357.60 86.48 L 360.43 91.13 L 363.27 96.40 L 366.10 102.28 L 368.93 108.73 L 371.76 115.73 L 374.60 123.27 L 377.43 131.29 L 380.26 139.78 L 383.09 148.70 L 385.93 158.01 L 388.76 167.68 L 391.59 177.67 L 394.42 187.93 L 397.25 198.44 L 400.09 209.14 L 402.92 219.99 L 405.75 230.95 L 408.58 241.98 L 411.42 253.02 L 414.25 264.05 L 417.08 275.01 L 419.91 285.86 L 422.75 296.56 L 425.58 307.07 L 428.41 317.33 L 431.24 327.32 L 434.07 336.99 L 436.91 346.30 L 439.74 355.22 L 442.57 363.71 L 445.40 371.73 L 448.24 379.27 L 451.07 386.27 L 453.90 392.72 L 456.73 398.60 L 459.57 403.87 L 462.40 408.52 L 465.23 412.52 L 468.06 415.87 L 470.90 418.55 L 473.73 420.54 L 476.56 421.85 L 479.39 422.46 L 482.22 422.37 L 485.06 421.58 L 487.89 420.11 L 490.72 417.94 L 493.55 415.09 L 496.39 411.58 L 499.22 407.41 L 502.05 402.61 L 504.88 397.18 L 507.72 391.16 L 510.55 384.57 L 513.38 377.43 L 516.21 369.77 L 519.05 361.63 L 521.88 353.03 L 524.71 344.01 L 527.54 334.60 L 530.37 324.85 L 533.21 314.79 L 536.04 304.46 L 538.87 293.91 L 541.70 283.16 L 544.54 272.28 L 547.37 261.30 L 550.20 250.26 L 553.03 239.21 L 555.87 228.20 L 558.70 217.26 L 561.53 206.44 L 564.36 195.79 L 567.20 185.34 L 570.03 175.14 L 572.86 165.23 L 575.69 155.65 L 578.52 146.43 L 581.36 137.62 L 584.19 129.24 L 587.02 121.33 L 589.85 113.93 L 592.69 107.06 L 595.52 100.75 L 598.35 95.03 L 601.18 89.91 L 604.02 85.42 L 606.85 81.58 L 609.68 78.40 L 612.51 75.89 L 615.34 74.07 L 618.18 72.94 L 621.01 72.50 L 623.84 72.76 L 626.67 73.72 L 629.51 75.37 L 632.34 77.71 L 635.17 80.72 L 638.00 84.40 L 640.84 88.73 L 643.67 93.69 L 646.50 99.27 L 649.33 105.43 L 652.17 112.16 L 655.00 119.44 L 657.83 127.22 L 660.66 135.48 L 663.49 144.19 L 666.33 153.31 L 669.16 162.80 L 671.99 172.64 L 674.82 182.77 L 677.66 193.16 L 680.49 203.76 L 683.32 214.54 L 686.15 225.46 L 688.99 236.46 L 691.82 247.50 " fill="none" fill-opacity="0.00" stroke="#0000FF" stroke-opacity="1.00" stroke-width="1.50" stroke-linecap="square" stroke-linejoin="round"/>
<text font-family="DejaVu Sans" font-size="16.67" fill="#000000" fill-opacity="1.00" text-anchor="middle" transform="translate(410.00,449.33) scale(1,-1)">fill_between with where condition</text>
<path d="M 579.81 283.06 L 713.06 283.06 L 713.06 433.06 L 579.81 433.06 L 579.81 283.06 Z " fill="#FFFFFF" fill-opacity="0.80" stroke="#CCCCCC" stroke-opacity="1.00" stroke-width="0.80" stroke-linecap="butt" stroke-linejoin="miter"/>
<path d="M 585.50 421.50 L 613.50 421.50 " fill="none" fill-opacity="0.00" stroke="#0000FF" stroke-opacity="1.00" stroke-width="1.50" stroke-linecap="butt" stroke-linejoin="miter"/>
<text font-family="DejaVu Sans" font-size="13.89" fill="#000000" fill-opacity="1.00" text-anchor="start" dominant-baseline="central" transform="translate(624.26,420.56) scale(1,-1)">sin(x)</text>
<path d="M 585.50 400.50 L 613.50 400.50 " fill="none" fill-opacity="0.00" stroke="#FF0000" stroke-opacity="1.00" stroke-width="1.50" stroke-linecap="butt" stroke-linejoin="miter"/>
<text font-family="DejaVu Sans" font-size="13.89" fill="#000000" fill-opacity="1.00" text-anchor="start" dominant-baseline="central" transform="translate(624.26,399.72) scale(1,-1)">0.5·sin(2x)</text>
<path d="M 585.37 374.03 L 613.15 374.03 L 613.15 383.75 L 585.37 383.75 L 585.37 374.03 Z " fill="#FF0000" fill-opacity="0.40" stroke="none" stroke-opacity="0.00" stroke-width="0.50" stroke-linecap="butt" stroke-linejoin="miter"/>
<text font-family="DejaVu Sans" font-size="13.89" fill="#000000" fill-opacity="1.00" text-anchor="start" dominant-baseline="central" transform="translate(624.26,378.89) scale(1,-1)">y1 &lt;= y2</text>
<path d="M 585.37 353.19 L 613.15 353.19 L 613.15 362.92 L 585.37 362.92 L 585.37 353.19 Z " fill="#FF0000" fill-opacity="0.40" stroke="none" stroke-opacity="0.00" stroke-width="0.50" stroke-linecap="butt" stroke-linejoin="miter"/>
<text font-family="DejaVu Sans" font-size="13.89" fill="#000000" fill-opacity="1.00" text-anchor="start" dominant-baseline="central" transform="translate(624.26,358.06) scale(1,-1)">y1 &lt;= y2</text>
<path d="M 585.37 332.36 L 613.15 332.36 L 613.15 342.08 L 585.37 342.08 L 585.37 332.36 Z " fill="#FF0000" fill-opacity="0.40" stroke="none" stroke-opacity="0.00" stroke-width="0.50" stroke-linecap="butt" stroke-linejoin="miter"/>
<text font-family="DejaVu Sans" font-size="13.89" fill="#000000" fill-opacity="1.00" text-anchor="start" dominant-baseline="central" transform="translate(624.26,337.22) scale(1,-1)">y1 &lt;= y2</text>
<path d="M 585.37 311.53 L 613.15 311.53 L 613.15 321.25 L 585.37 321.25 L 585.37 311.53 Z " fill="#008000" fill-opacity="0.40" stroke="none" stroke-opacity="0.00" stroke-width="0.50" stroke-linecap="butt" stroke-linejoin="miter"/>
<text font-family="DejaVu Sans" font-size="13.89" fill="#000000" fill-opacity="1.00" text-anchor="start" dominant-baseline="central" transform="translate(624.26,316.39) scale(1,-1)">y1 &gt; y2</text>
<path d="M 585.37 290.69 L 613.15 290.69 L 613.15 300.42 L 585.37 300.42 L 585.37 290.69 Z " fill="#008000" fill-opacity="0.40" stroke="none" stroke-opacity="0.00" stroke-width="0.50" stroke-linecap="butt" stroke-linejoin="miter"/>
<text font-family="DejaVu Sans" font-size="13.89" fill="#000000" fill-opacity="1.00" text-anchor="start" dominant-baseline="central" transform="translate(624.26,295.56) scale(1,-1)">y1 &gt; y2</text>
<path d="M 128.50 55.50 L 128.50 50.50 " fill="none" fill-opacity="0.00" stroke="#000000" stroke-opacity="1.00" stroke-width="0.80" stroke-linecap="butt" stroke-linejoin="miter"/>
<text font-family="DejaVu Sans" font-size="13.89" fill="#000000" fill-opacity="1.00" text-anchor="middle" dominant-baseline="text-before-edge" transform="translate(128.18,45.28) scale(1,-1)">0</text>
<path d="M 218.50 55.50 L 218.50 50.50 " fill="none" fill-opacity="0.00" stroke="#000000" stroke-opacity="1.00" stroke-width="0.80" stroke-linecap="butt" stroke-linejoin="miter"/>
<text font-family="DejaVu Sans" font-size="13.89" fill="#000000" fill-opacity="1.00" text-anchor="middle" dominant-baseline="text-before-edge" transform="translate(217.89,45.28) scale(1,-1)">2</text>
<path d="M 308.50 55.50 L 308.50 50.50 " fill="none" fill-opacity="0.00" stroke="#000000" stroke-opacity="1.00" stroke-width="0.80" stroke-linecap="butt" stroke-linejoin="miter"/>
<text font-family="DejaVu Sans" font-size="13.89" fill="#000000" fill-opacity="1.00" text-anchor="middle" dominant-baseline="text-before-edge" transform="translate(307.59,45.28) scale(1,-1)">4</text>
<path d="M 397.50 55.50 L 397.50 50.50 " fill="none" fill-opacity="0.00" stroke="#000000" stroke-opacity="1.00" stroke-width="0.80" stroke-linecap="butt" stroke-linejoin="miter"/>
<text font-family="DejaVu Sans" font-size="13.89" fill="#000000" fill-opacity="1.00" text-anchor="middle" dominant-baseline="text-before-edge" transform="translate(397.30,45.28) scale(1,-1)">6</text>
<path d="M 487.50 55.50 L 487.50 50.50 " fill="none" fill-opacity="0.00" stroke="#000000" stroke-opacity="1.00" stroke-width="0.80" stroke-linecap="butt" stroke-linejoin="miter"/>
<text font-family="DejaVu Sans" font-size="13.89" fill="#000000" fill-opacity="1.00" text-anchor="middle" dominant-baseline="text-before-edge" transform="translate(487.00,45.28) scale(1,-1)">8</text>
<path d="M 577.50 55.50 L 577.50 50.50 " fill="none" fill-opacity="0.00" stroke="#000000" stroke-opacity="1.00" stroke-width="0.80" stroke-linecap="butt" stroke-linejoin="miter"/>
<text font-family="DejaVu Sans" font-size="13.89" fill="#000000" fill-opacity="1.00" text-anchor="middle" dominant-baseline="text-before-edge" transform="translate(576.71,45.28) scale(1,-1)">10</text>
<path d="M 666.50 55.50 L 666.50 50.50 " fill="none" fill-opacity="0.00" stroke="#000000" stroke-opacity="1.00" stroke-width="0.80" stroke-linecap="butt" stroke-linejoin="miter"/>
<text font-family="DejaVu Sans" font-size="13.89" fill="#000000" fill-opacity="1.00" text-anchor="middle" dominant-baseline="text-before-edge" transform="translate(666.41,45.28) scale(1,-1)">12</text>
<text font-family="DejaVu Sans" font-size="13.89" fill="#000000" fill-opacity="1.00" text-anchor="middle" dominant-baseline="text-before-edge" transform="translate(410.00,26.17) scale(1,-1)">x</text>
<path d="M 100.50 71.50 L 95.50 71.50 " fill="none" fill-opacity="0.00" stroke="#000000" stroke-opacity="1.00" stroke-width="0.80" stroke-linecap="butt" stroke-linejoin="miter"/>
<text font-family="DejaVu Sans" font-size="13.89" fill="#000000" fill-opacity="1.00" text-anchor="end" dominant-baseline="central" transform="translate(90.28,72.49) scale(1,-1)">-1.00</text>
<path d="M 100.50 115.50 L 95.50 115.50 " fill="none" fill-opacity="0.00" stroke="#000000" stroke-opacity="1.00" stroke-width="0.80" stroke-linecap="butt" stroke-linejoin="miter"/>
<text font-family="DejaVu Sans" font-size="13.89" fill="#000000" fill-opacity="1.00" text-anchor="end" dominant-baseline="central" transform="translate(90.28,116.25) scale(1,-1)">-0.75</text>
<path d="M 100.50 159.50 L 95.50 159.50 " fill="none" fill-opacity="0.00" stroke="#000000" stroke-opacity="1.00" stroke-width="0.80" stroke-linecap="butt" stroke-linejoin="miter"/>
<text font-family="DejaVu Sans" font-size="13.89" fill="#000000" fill-opacity="1.00" text-anchor="end" dominant-baseline="central" transform="translate(90.28,160.00) scale(1,-1)">-0.50</text>
<path d="M 100.50 203.50 L 95.50 203.50 " fill="none" fill-opacity="0.00" stroke="#000000" stroke-opacity="1.00" stroke-width="0.80" stroke-linecap="butt" stroke-linejoin="miter"/>
<text font-family="DejaVu Sans" font-size="13.89" fill="#000000" fill-opacity="1.00" text-anchor="end" dominant-baseline="central" transform="translate(90.28,203.75) scale(1,-1)">-0.25</text>
<path d="M 100.50 247.50 L 95.50 247.50 " fill="none" fill-opacity="0.00" stroke="#000000" stroke-opacity="1.00" stroke-width="0.80" stroke-linecap="butt" stroke-linejoin="miter"/>
<text font-family="DejaVu Sans" font-size="13.89" fill="#000000" fill-opacity="1.00" text-anchor="end" dominant-baseline="central" transform="translate(90.28,247.50) scale(1,-1)">0.00</text>
<path d="M 100.50 290.50 L 95.50 290.50 " fill="none" fill-opacity="0.00" stroke="#000000" stroke-opacity="1.00" stroke-width="0.80" stroke-linecap="butt" stroke-linejoin="miter"/>
<text font-family="DejaVu Sans" font-size="13.89" fill="#000000" fill-opacity="1.00" text-anchor="end" dominant-baseline="central" transform="translate(90.28,291.25) scale(1,-1)">0.25</text>
<path d="M 100.50 334.50 L 95.50 334.50 " fill="none" fill-opacity="0.00" stroke="#000000" stroke-opacity="1.00" stroke-width="0.80" stroke-linecap="butt" stroke-linejoin="miter"/>
<text font-family="DejaVu Sans" font-size="13.89" fill="#000000" fill-opacity="1.00" text-anchor="end" dominant-baseline="central" transform="translate(90.28,335.00) scale(1,-1)">0.50</text>
<path d="M 100.50 378.50 L 95.50 378.50 " fill="none" fill-opacity="0.00" stroke="#000000" stroke-opacity="1.00" stroke-width="0.80" stroke-linecap="butt" stroke-linejoin="miter"/>
<text font-family="DejaVu Sans" font-size="13.89" fill="#000000" fill-opacity="1.00" text-anchor="end" dominant-baseline="central" transform="translate(90.28,378.75) scale(1,-1)">0.75</text>
<path d="M 100.50 422.50 L 95.50 422.50 " fill="none" fill-opacity="0.00" stroke="#000000" stroke-opacity="1.00" stroke-width="0.80" stroke-linecap="butt" stroke-linejoin="miter"/>
<text font-family="DejaVu Sans" font-size="13.89" fill="#000000" fill-opacity="1.00" text-anchor="end" dominant-baseline="central" transform="translate(90.28,422.51) scale(1,-1)">1.00</text>
<text font-family="DejaVu Sans" font-size="13.89" fill="#000000" fill-opacity="1.00" text-anchor="middle" transform="translate(35.68,247.50) rotate(90.00) scale(1,-1)">y</text>
<path d="M 100.50 55.50 L 100.50 440.50 " fill="none" fill-opacity="0.00" stroke="#000000" stroke-opacity="1.00" stroke-width="0.80" stroke-linecap="square" stroke-linejoin="miter"/>
<path d="M 720.50 55.50 L 720.50 440.50 " fill="none" fill-opacity="0.00" stroke="#000000" stroke-opacity="1.00" stroke-width="0.80" stroke-linecap="square" stroke-linejoin="miter"/>
<path d="M 100.50 54.50 L 720.50 54.50 " fill="none" fill-opacity="0.00" stroke="#000000" stroke-opacity="1.00" stroke-width="0.80" stroke-linecap="square" stroke-linejoin="miter"/>
<path d="M 100.50 439.50 L 720.50 439.50 " fill="none" fill-opacity="0.00" stroke="#000000" stroke-opacity="1.00" stroke-width="0.80" stroke-linecap="square" stroke-linejoin="miter"/>
<path d="M 579.81 283.06 L 713.06 283.06 L 713.06 433.06 L 579.81 433.06 L 579.81 283.06 Z " fill="#FFFFFF" fill-opacity="0.80" stroke="#CCCCCC" stroke-opacity="1.00" stroke-width="0.80" stroke-linecap="butt" stroke-linejoin="miter"/>
<path d="M 585.50 421.50 L 613.50 421.50 " fill="none" fill-opacity="0.00" stroke="#0000FF" stroke-opacity="1.00" stroke-width="1.50" stroke-linecap="butt" stroke-linejoin="miter"/>
<text font-family="DejaVu Sans" font-size="13.89" fill="#000000" fill-opacity="1.00" text-anchor="start" dominant-baseline="central" transform="translate(624.26,420.56) scale(1,-1)">sin(x)</text>
<path d="M 585.50 400.50 L 613.50 400.50 " fill="none" fill-opacity="0.00" stroke="#FF0000" stroke-opacity="1.00" stroke-width="1.50" stroke-linecap="butt" stroke-linejoin="miter"/>
<text font-family="DejaVu Sans" font-size="13.89" fill="#000000" fill-opacity="1.00" text-anchor="start" dominant-baseline="central" transform="translate(624.26,399.72) scale(1,-1)">0.5·sin(2x)</text>
<path d="M 585.37 374.03 L 613.15 374.03 L 613.15 383.75 L 585.37 383.75 L 585.37 374.03 Z " fill="#FF0000" fill-opacity="0.40" stroke="none" stroke-opacity="0.00" stroke-width="0.50" stroke-linecap="butt" stroke-linejoin="miter"/>
<text font-family="DejaVu Sans" font-size="13.89" fill="#000000" fill-opacity="1.00" text-anchor="start" dominant-baseline="central" transform="translate(624.26,378.89) scale(1,-1)">y1 &lt;= y2</text>
<path d="M 585.37 353.19 L 613.15 353.19 L 613.15 362.92 L 585.37 362.92 L 585.37 353.19 Z " fill="#FF0000" fill-opacity="0.40" stroke="none" stroke-opacity="0.00" stroke-width="0.50" stroke-linecap="butt" stroke-linejoin="miter"/>
<text font-family="DejaVu Sans" font-size="13.89" fill="#000000" fill-opacity="1.00" text-anchor="start" dominant-baseline="central" transform="translate(624.26,358.06) scale(1,-1)">y1 &lt;= y2</text>
<path d="M 585.37 332.36 L 613.15 332.36 L 613.15 342.08 L 585.37 342.08 L 585.37 332.36 Z " fill="#FF0000" fill-opacity="0.40" stroke="none" stroke-opacity="0.00" stroke-width="0.50" stroke-linecap="butt" stroke-linejoin="miter"/>
<text font-family="DejaVu Sans" font-size="13.89" fill="#000000" fill-opacity="1.00" text-anchor="start" dominant-baseline="central" transform="translate(624.26,337.22) scale(1,-1)">y1 &lt;= y2</text>
<path d="M 585.37 311.53 L 613.15 311.53 L 613.15 321.25 L 585.37 321.25 L 585.37 311.53 Z " fill="#008000" fill-opacity="0.40" stroke="none" stroke-opacity="0.00" stroke-width="0.50" stroke-linecap="butt" stroke-linejoin="miter"/>
<text font-family="DejaVu Sans" font-size="13.89" fill="#000000" fill-opacity="1.00" text-anchor="start" dominant-baseline="central" transform="translate(624.26,316.39) scale(1,-1)">y1 &gt; y2</text>
<path d="M 585.37 290.69 L 613.15 290.69 L 613.15 300.42 L 585.37 300.42 L 585.37 290.69 Z " fill="#008000" fill-opacity="0.40" stroke="none" stroke-opacity="0.00" stroke-width="0.50" stroke-linecap="butt" stroke-linejoin="miter"/>
<text font-family="DejaVu Sans" font-size="13.89" fill="#000000" fill-opacity="1.00" text-anchor="start" dominant-baseline="central" transform="translate(624.26,295.56) scale(1,-1)">y1 &gt; y2</text>
</g>
</svg>
