<?xml version="1.0" encoding="UTF-8"?>
<svg xmlns="http://www.w3.org/2000/svg"
     xmlns:xlink="http://www.w3.org/1999/xlink"
     width="1000" height="600" viewBox="0 0 1000 600">
<defs>
<clipPath id="clip-1">
<rect x="125.00" y="66.00" width="775.00" height="462.00"/>
</clipPath>
<clipPath id="clip-2">
<rect x="125.00" y="66.00" width="775.00" height="462.00"/>
</clipPath>
<clipPath id="clip-3">
<rect x="125.00" y="66.00" width="775.00" height="462.00"/>
</clipPath>
<clipPath id="clip-4">
<rect x="125.00" y="66.00" width="775.00" height="462.00"/>
</clipPath>
<clipPath id="clip-5">
<rect x="125.00" y="66.00" width="775.00" height="462.00"/>
</clipPath>
<clipPath id="clip-6">
<rect x="125.00" y="66.00" width="775.00" height="462.00"/>
</clipPath>
<clipPath id="clip-7">
<rect x="125.00" y="66.00" width="775.00" height="462.00"/>
</clipPath>
<clipPath id="clip-8">
<rect x="125.00" y="66.00" width="775.00" height="462.00"/>
</clipPath>
<clipPath id="clip-9">
<rect x="125.00" y="66.00" width="775.00" height="462.00"/>
</clipPath>
<clipPath id="clip-10">
<rect x="125.00" y="66.00" width="775.00" height="462.00"/>
</clipPath>
<clipPath id="clip-11">
<rect x="125.00" y="66.00" width="775.00" height="462.00"/>
</clipPath>
<clipPath id="clip-12">
<rect x="125.00" y="66.00" width="775.00" height="462.00"/>
</clipPath>
<clipPath id="clip-13">
<rect x="125.00" y="66.00" width="775.00" height="462.00"/>
</clipPath>
<clipPath id="clip-14">
<rect x="125.00" y="66.00" width="775.00" height="462.00"/>
</clipPath>
<clipPath id="clip-15">
<rect x="125.00" y="66.00" width="775.00" height="462.00"/>
</clipPath>
<clipPath id="clip-16">
<rect x="125.00" y="66.00" width="775.00" height="462.00"/>
</clipPath>
</defs>
<g transform="translate(0,600) scale(1,-1)">
<rect width="1000" height="600" fill="white"/>
<path d="M 0.00 0.00 L 1000.00 0.00 L 1000.00 600.00 L 0.00 600.00 L 0.00 0.00 Z " fill="#FFFFFF" fill-opacity="1.00" stroke="#000000" stroke-opacity="1.00" stroke-width="0.00" stroke-linecap="butt" stroke-linejoin="miter"/>
<path d="M 125.00 66.00 L 900.00 66.00 L 900.00 528.00 L 125.00 528.00 L 125.00 66.00 Z " fill="#FFFFFF" fill-opacity="1.00" stroke="none" stroke-opacity="0.00" stroke-width="0.00" stroke-linecap="butt" stroke-linejoin="miter"/>
<path d="M 160.23 507.00 L 171.59 505.95 L 182.95 502.81 L 194.32 497.62 L 205.68 490.42 L 217.05 481.29 L 228.41 470.32 L 239.77 457.61 L 251.14 443.31 L 262.50 427.54 L 273.86 410.46 L 285.23 392.25 L 296.59 373.09 L 307.95 353.17 L 319.32 332.69 L 330.68 311.85 L 342.05 290.86 L 353.41 269.93 L 364.77 249.28 L 376.14 229.10 L 387.50 209.60 L 398.86 190.97 L 410.23 173.40 L 421.59 157.07 L 432.95 142.13 L 444.32 128.75 L 455.68 117.04 L 467.05 107.13 L 478.41 99.12 L 489.77 93.08 L 501.14 89.09 L 512.50 87.17 L 523.86 87.34 L 535.23 89.61 L 546.59 93.96 L 557.95 100.33 L 569.32 108.67 L 580.68 118.88 L 592.05 130.88 L 603.41 144.54 L 614.77 159.72 L 626.14 176.27 L 637.50 194.03 L 648.86 212.82 L 660.23 232.45 L 671.59 252.72 L 682.95 273.44 L 694.32 294.39 L 705.68 315.37 L 717.05 336.16 L 728.41 356.56 L 739.77 376.37 L 751.14 395.38 L 762.50 413.42 L 773.86 430.28 L 785.23 445.82 L 796.59 459.87 L 807.95 472.29 L 819.32 482.96 L 830.68 491.77 L 842.05 498.64 L 853.41 503.49 L 864.77 506.27 L 864.77 279.54 L 853.41 258.74 L 842.05 238.31 L 830.68 218.47 L 819.32 199.42 L 807.95 181.34 L 796.59 164.42 L 785.23 148.82 L 773.86 134.71 L 762.50 122.21 L 751.14 111.46 L 739.77 102.56 L 728.41 95.61 L 717.05 90.67 L 705.68 87.79 L 694.32 87.00 L 682.95 88.31 L 671.59 91.70 L 660.23 97.15 L 648.86 104.59 L 637.50 113.95 L 626.14 125.15 L 614.77 138.06 L 603.41 152.56 L 592.05 168.50 L 580.68 185.72 L 569.32 204.06 L 557.95 223.32 L 546.59 243.33 L 535.23 263.86 L 523.86 284.73 L 512.50 305.72 L 501.14 326.63 L 489.77 347.24 L 478.41 367.34 L 467.05 386.75 L 455.68 405.25 L 444.32 422.68 L 432.95 438.84 L 421.59 453.60 L 410.23 466.78 L 398.86 478.27 L 387.50 487.95 L 376.14 495.72 L 364.77 501.51 L 353.41 505.25 L 342.05 506.91 L 330.68 506.47 L 319.32 503.94 L 307.95 499.35 L 296.59 492.73 L 285.23 484.15 L 273.86 473.71 L 262.50 461.50 L 251.14 447.64 L 239.77 432.28 L 228.41 415.57 L 217.05 397.68 L 205.68 378.77 L 194.32 359.05 L 182.95 338.71 L 171.59 317.96 L 160.23 296.99 Z " fill="#9370DB" fill-opacity="0.30" stroke="#000000" stroke-opacity="0.00" stroke-width="0.00" stroke-linecap="butt" stroke-linejoin="miter"/>
<path d="M 160.50 66.50 L 160.50 528.50 " fill="none" fill-opacity="0.00" stroke="#B0B0B0" stroke-opacity="1.00" stroke-width="0.80" stroke-linecap="butt" stroke-linejoin="miter" clip-path="url(#clip-1)"/>
<path d="M 274.50 66.50 L 274.50 528.50 " fill="none" fill-opacity="0.00" stroke="#B0B0B0" stroke-opacity="1.00" stroke-width="0.80" stroke-linecap="butt" stroke-linejoin="miter" clip-path="url(#clip-2)"/>
<path d="M 388.50 66.50 L 388.50 528.50 " fill="none" fill-opacity="0.00" stroke="#B0B0B0" stroke-opacity="1.00" stroke-width="0.80" stroke-linecap="butt" stroke-linejoin="miter" clip-path="url(#clip-3)"/>
<path d="M 501.50 66.50 L 501.50 528.50 " fill="none" fill-opacity="0.00" stroke="#B0B0B0" stroke-opacity="1.00" stroke-width="0.80" stroke-linecap="butt" stroke-linejoin="miter" clip-path="url(#clip-4)"/>
<path d="M 615.50 66.50 L 615.50 528.50 " fill="none" fill-opacity="0.00" stroke="#B0B0B0" stroke-opacity="1.00" stroke-width="0.80" stroke-linecap="butt" stroke-linejoin="miter" clip-path="url(#clip-5)"/>
<path d="M 728.50 66.50 L 728.50 528.50 " fill="none" fill-opacity="0.00" stroke="#B0B0B0" stroke-opacity="1.00" stroke-width="0.80" stroke-linecap="butt" stroke-linejoin="miter" clip-path="url(#clip-6)"/>
<path d="M 842.50 66.50 L 842.50 528.50 " fill="none" fill-opacity="0.00" stroke="#B0B0B0" stroke-opacity="1.00" stroke-width="0.80" stroke-linecap="butt" stroke-linejoin="miter" clip-path="url(#clip-7)"/>
<path d="M 125.50 86.50 L 900.50 86.50 " fill="none" fill-opacity="0.00" stroke="#B0B0B0" stroke-opacity="1.00" stroke-width="0.80" stroke-linecap="butt" stroke-linejoin="miter" clip-path="url(#clip-8)"/>
<path d="M 125.50 138.50 L 900.50 138.50 " fill="none" fill-opacity="0.00" stroke="#B0B0B0" stroke-opacity="1.00" stroke-width="0.80" stroke-linecap="butt" stroke-linejoin="miter" clip-path="url(#clip-9)"/>
<path d="M 125.50 191.50 L 900.50 191.50 " fill="none" fill-opacity="0.00" stroke="#B0B0B0" stroke-opacity="1.00" stroke-width="0.80" stroke-linecap="butt" stroke-linejoin="miter" clip-path="url(#clip-10)"/>
<path d="M 125.50 243.50 L 900.50 243.50 " fill="none" fill-opacity="0.00" stroke="#B0B0B0" stroke-opacity="1.00" stroke-width="0.80" stroke-linecap="butt" stroke-linejoin="miter" clip-path="url(#clip-11)"/>
<path d="M 125.50 296.50 L 900.50 296.50 " fill="none" fill-opacity="0.00" stroke="#B0B0B0" stroke-opacity="1.00" stroke-width="0.80" stroke-linecap="butt" stroke-linejoin="miter" clip-path="url(#clip-12)"/>
<path d="M 125.50 348.50 L 900.50 348.50 " fill="none" fill-opacity="0.00" stroke="#B0B0B0" stroke-opacity="1.00" stroke-width="0.80" stroke-linecap="butt" stroke-linejoin="miter" clip-path="url(#clip-13)"/>
<path d="M 125.50 401.50 L 900.50 401.50 " fill="none" fill-opacity="0.00" stroke="#B0B0B0" stroke-opacity="1.00" stroke-width="0.80" stroke-linecap="butt" stroke-linejoin="miter" clip-path="url(#clip-14)"/>
<path d="M 125.50 453.50 L 900.50 453.50 " fill="none" fill-opacity="0.00" stroke="#B0B0B0" stroke-opacity="1.00" stroke-width="0.80" stroke-linecap="butt" stroke-linejoin="miter" clip-path="url(#clip-15)"/>
<path d="M 125.50 506.50 L 900.50 506.50 " fill="none" fill-opacity="0.00" stroke="#B0B0B0" stroke-opacity="1.00" stroke-width="0.80" stroke-linecap="butt" stroke-linejoin="miter" clip-path="url(#clip-16)"/>
<path d="M 160.23 507.00 L 171.59 505.95 L 182.95 502.81 L 194.32 497.62 L 205.68 490.42 L 217.05 481.29 L 228.41 470.32 L 239.77 457.61 L 251.14 443.31 L 262.50 427.54 L 273.86 410.46 L 285.23 392.25 L 296.59 373.09 L 307.95 353.17 L 319.32 332.69 L 330.68 311.85 L 342.05 290.86 L 353.41 269.93 L 364.77 249.28 L 376.14 229.10 L 387.50 209.60 L 398.86 190.97 L 410.23 173.40 L 421.59 157.07 L 432.95 142.13 L 444.32 128.75 L 455.68 117.04 L 467.05 107.13 L 478.41 99.12 L 489.77 93.08 L 501.14 89.09 L 512.50 87.17 L 523.86 87.34 L 535.23 89.61 L 546.59 93.96 L 557.95 100.33 L 569.32 108.67 L 580.68 118.88 L 592.05 130.88 L 603.41 144.54 L 614.77 159.72 L 626.14 176.27 L 637.50 194.03 L 648.86 212.82 L 660.23 232.45 L 671.59 252.72 L 682.95 273.44 L 694.32 294.39 L 705.68 315.37 L 717.05 336.16 L 728.41 356.56 L 739.77 376.37 L 751.14 395.38 L 762.50 413.42 L 773.86 430.28 L 785.23 445.82 L 796.59 459.87 L 807.95 472.29 L 819.32 482.96 L 830.68 491.77 L 842.05 498.64 L 853.41 503.49 L 864.77 506.27 " fill="none" fill-opacity="0.00" stroke="#FF6347" stroke-opacity="1.00" stroke-width="2.00" stroke-linecap="square" stroke-linejoin="round"/>
<path d="M 160.23 296.99 L 171.59 317.96 L 182.95 338.71 L 194.32 359.05 L 205.68 378.77 L 217.05 397.68 L 228.41 415.57 L 239.77 432.28 L 251.14 447.64 L 262.50 461.50 L 273.86 473.71 L 285.23 484.15 L 296.59 492.73 L 307.95 499.35 L 319.32 503.94 L 330.68 506.47 L 342.05 506.91 L 353.41 505.25 L 364.77 501.51 L 376.14 495.72 L 387.50 487.95 L 398.86 478.27 L 410.23 466.78 L 421.59 453.60 L 432.95 438.84 L 444.32 422.68 L 455.68 405.25 L 467.05 386.75 L 478.41 367.34 L 489.77 347.24 L 501.14 326.63 L 512.50 305.72 L 523.86 284.73 L 535.23 263.86 L 546.59 243.33 L 557.95 223.32 L 569.32 204.06 L 580.68 185.72 L 592.05 168.50 L 603.41 152.56 L 614.77 138.06 L 626.14 125.15 L 637.50 113.95 L 648.86 104.59 L 660.23 97.15 L 671.59 91.70 L 682.95 88.31 L 694.32 87.00 L 705.68 87.79 L 717.05 90.67 L 728.41 95.61 L 739.77 102.56 L 751.14 111.46 L 762.50 122.21 L 773.86 134.71 L 785.23 148.82 L 796.59 164.42 L 807.95 181.34 L 819.32 199.42 L 830.68 218.47 L 842.05 238.31 L 853.41 258.74 L 864.77 279.54 " fill="none" fill-opacity="0.00" stroke="#4682B4" stroke-opacity="1.00" stroke-width="2.00" stroke-linecap="square" stroke-linejoin="round"/>
<text font-family="DejaVu Sans" font-size="16.67" fill="#000000" fill-opacity="1.00" text-anchor="middle" transform="translate(512.50,537.33) scale(1,-1)">Fill Between sin(x) and cos(x)</text>
<path d="M 131.94 72.94 L 262.38 72.94 L 262.38 139.61 L 131.94 139.61 L 131.94 72.94 Z " fill="#FFFFFF" fill-opacity="0.80" stroke="#CCCCCC" stroke-opacity="1.00" stroke-width="0.80" stroke-linecap="butt" stroke-linejoin="miter"/>
<path d="M 137.50 127.50 L 165.50 127.50 " fill="none" fill-opacity="0.00" stroke="#4682B4" stroke-opacity="1.00" stroke-width="2.00" stroke-linecap="butt" stroke-linejoin="miter"/>
<text font-family="DejaVu Sans" font-size="13.89" fill="#000000" fill-opacity="1.00" text-anchor="start" dominant-baseline="central" transform="translate(176.39,127.11) scale(1,-1)">sin(x)</text>
<path d="M 137.50 106.50 L 165.50 106.50 " fill="none" fill-opacity="0.00" stroke="#FF6347" stroke-opacity="1.00" stroke-width="2.00" stroke-linecap="butt" stroke-linejoin="miter"/>
<text font-family="DejaVu Sans" font-size="13.89" fill="#000000" fill-opacity="1.00" text-anchor="start" dominant-baseline="central" transform="translate(176.39,106.28) scale(1,-1)">cos(x)</text>
<path d="M 137.50 80.58 L 165.28 80.58 L 165.28 90.31 L 137.50 90.31 L 137.50 80.58 Z " fill="#9370DB" fill-opacity="0.30" stroke="none" stroke-opacity="0.00" stroke-width="0.50" stroke-linecap="butt" stroke-linejoin="miter"/>
<text font-family="DejaVu Sans" font-size="13.89" fill="#000000" fill-opacity="1.00" text-anchor="start" dominant-baseline="central" transform="translate(176.39,85.44) scale(1,-1)">Fill region</text>
<path d="M 160.50 66.50 L 160.50 61.50 " fill="none" fill-opacity="0.00" stroke="#000000" stroke-opacity="1.00" stroke-width="0.80" stroke-linecap="butt" stroke-linejoin="miter"/>
<text font-family="DejaVu Sans" font-size="13.89" fill="#000000" fill-opacity="1.00" text-anchor="middle" dominant-baseline="text-before-edge" transform="translate(160.23,56.28) scale(1,-1)">0</text>
<path d="M 274.50 66.50 L 274.50 61.50 " fill="none" fill-opacity="0.00" stroke="#000000" stroke-opacity="1.00" stroke-width="0.80" stroke-linecap="butt" stroke-linejoin="miter"/>
<text font-family="DejaVu Sans" font-size="13.89" fill="#000000" fill-opacity="1.00" text-anchor="middle" dominant-baseline="text-before-edge" transform="translate(273.86,56.28) scale(1,-1)">1</text>
<path d="M 388.50 66.50 L 388.50 61.50 " fill="none" fill-opacity="0.00" stroke="#000000" stroke-opacity="1.00" stroke-width="0.80" stroke-linecap="butt" stroke-linejoin="miter"/>
<text font-family="DejaVu Sans" font-size="13.89" fill="#000000" fill-opacity="1.00" text-anchor="middle" dominant-baseline="text-before-edge" transform="translate(387.50,56.28) scale(1,-1)">2</text>
<path d="M 501.50 66.50 L 501.50 61.50 " fill="none" fill-opacity="0.00" stroke="#000000" stroke-opacity="1.00" stroke-width="0.80" stroke-linecap="butt" stroke-linejoin="miter"/>
<text font-family="DejaVu Sans" font-size="13.89" fill="#000000" fill-opacity="1.00" text-anchor="middle" dominant-baseline="text-before-edge" transform="translate(501.14,56.28) scale(1,-1)">3</text>
<path d="M 615.50 66.50 L 615.50 61.50 " fill="none" fill-opacity="0.00" stroke="#000000" stroke-opacity="1.00" stroke-width="0.80" stroke-linecap="butt" stroke-linejoin="miter"/>
<text font-family="DejaVu Sans" font-size="13.89" fill="#000000" fill-opacity="1.00" text-anchor="middle" dominant-baseline="text-before-edge" transform="translate(614.77,56.28) scale(1,-1)">4</text>
<path d="M 728.50 66.50 L 728.50 61.50 " fill="none" fill-opacity="0.00" stroke="#000000" stroke-opacity="1.00" stroke-width="0.80" stroke-linecap="butt" stroke-linejoin="miter"/>
<text font-family="DejaVu Sans" font-size="13.89" fill="#000000" fill-opacity="1.00" text-anchor="middle" dominant-baseline="text-before-edge" transform="translate(728.41,56.28) scale(1,-1)">5</text>
<path d="M 842.50 66.50 L 842.50 61.50 " fill="none" fill-opacity="0.00" stroke="#000000" stroke-opacity="1.00" stroke-width="0.80" stroke-linecap="butt" stroke-linejoin="miter"/>
<text font-family="DejaVu Sans" font-size="13.89" fill="#000000" fill-opacity="1.00" text-anchor="middle" dominant-baseline="text-before-edge" transform="translate(842.05,56.28) scale(1,-1)">6</text>
<text font-family="DejaVu Sans" font-size="13.89" fill="#000000" fill-opacity="1.00" text-anchor="middle" dominant-baseline="text-before-edge" transform="translate(512.50,37.17) scale(1,-1)">x (radians)</text>
<path d="M 125.50 86.50 L 120.50 86.50 " fill="none" fill-opacity="0.00" stroke="#000000" stroke-opacity="1.00" stroke-width="0.80" stroke-linecap="butt" stroke-linejoin="miter"/>
<text font-family="DejaVu Sans" font-size="13.89" fill="#000000" fill-opacity="1.00" text-anchor="end" dominant-baseline="central" transform="translate(115.28,86.98) scale(1,-1)">-1.00</text>
<path d="M 125.50 138.50 L 120.50 138.50 " fill="none" fill-opacity="0.00" stroke="#000000" stroke-opacity="1.00" stroke-width="0.80" stroke-linecap="butt" stroke-linejoin="miter"/>
<text font-family="DejaVu Sans" font-size="13.89" fill="#000000" fill-opacity="1.00" text-anchor="end" dominant-baseline="central" transform="translate(115.28,139.49) scale(1,-1)">-0.75</text>
<path d="M 125.50 191.50 L 120.50 191.50 " fill="none" fill-opacity="0.00" stroke="#000000" stroke-opacity="1.00" stroke-width="0.80" stroke-linecap="butt" stroke-linejoin="miter"/>
<text font-family="DejaVu Sans" font-size="13.89" fill="#000000" fill-opacity="1.00" text-anchor="end" dominant-baseline="central" transform="translate(115.28,191.99) scale(1,-1)">-0.50</text>
<path d="M 125.50 243.50 L 120.50 243.50 " fill="none" fill-opacity="0.00" stroke="#000000" stroke-opacity="1.00" stroke-width="0.80" stroke-linecap="butt" stroke-linejoin="miter"/>
<text font-family="DejaVu Sans" font-size="13.89" fill="#000000" fill-opacity="1.00" text-anchor="end" dominant-baseline="central" transform="translate(115.28,244.49) scale(1,-1)">-0.25</text>
<path d="M 125.50 296.50 L 120.50 296.50 " fill="none" fill-opacity="0.00" stroke="#000000" stroke-opacity="1.00" stroke-width="0.80" stroke-linecap="butt" stroke-linejoin="miter"/>
<text font-family="DejaVu Sans" font-size="13.89" fill="#000000" fill-opacity="1.00" text-anchor="end" dominant-baseline="central" transform="translate(115.28,296.99) scale(1,-1)">0.00</text>
<path d="M 125.50 348.50 L 120.50 348.50 " fill="none" fill-opacity="0.00" stroke="#000000" stroke-opacity="1.00" stroke-width="0.80" stroke-linecap="butt" stroke-linejoin="miter"/>
<text font-family="DejaVu Sans" font-size="13.89" fill="#000000" fill-opacity="1.00" text-anchor="end" dominant-baseline="central" transform="translate(115.28,349.49) scale(1,-1)">0.25</text>
<path d="M 125.50 401.50 L 120.50 401.50 " fill="none" fill-opacity="0.00" stroke="#000000" stroke-opacity="1.00" stroke-width="0.80" stroke-linecap="butt" stroke-linejoin="miter"/>
<text font-family="DejaVu Sans" font-size="13.89" fill="#000000" fill-opacity="1.00" text-anchor="end" dominant-baseline="central" transform="translate(115.28,402.00) scale(1,-1)">0.50</text>
<path d="M 125.50 453.50 L 120.50 453.50 " fill="none" fill-opacity="0.00" stroke="#000000" stroke-opacity="1.00" stroke-width="0.80" stroke-linecap="butt" stroke-linejoin="miter"/>
<text font-family="DejaVu Sans" font-size="13.89" fill="#000000" fill-opacity="1.00" text-anchor="end" dominant-baseline="central" transform="translate(115.28,454.50) scale(1,-1)">0.75</text>
<path d="M 125.50 506.50 L 120.50 506.50 " fill="none" fill-opacity="0.00" stroke="#000000" stroke-opacity="1.00" stroke-width="0.80" stroke-linecap="butt" stroke-linejoin="miter"/>
<text font-family="DejaVu Sans" font-size="13.89" fill="#000000" fill-opacity="1.00" text-anchor="end" dominant-baseline="central" transform="translate(115.28,507.00) scale(1,-1)">1.00</text>
<text font-family="DejaVu Sans" font-size="13.89" fill="#000000" fill-opacity="1.00" text-anchor="middle" transform="translate(60.68,297.00) rotate(-90.00) scale(1,-1)">y</text>
<path d="M 125.50 66.50 L 125.50 528.50 " fill="none" fill-opacity="0.00" stroke="#000000" stroke-opacity="1.00" stroke-width="0.80" stroke-linecap="square" stroke-linejoin="miter"/>
<path d="M 900.50 66.50 L 900.50 528.50 " fill="none" fill-opacity="0.00" stroke="#000000" stroke-opacity="1.00" stroke-width="0.80" stroke-linecap="square" stroke-linejoin="miter"/>
<path d="M 125.50 65.50 L 900.50 65.50 " fill="none" fill-opacity="0.00" stroke="#000000" stroke-opacity="1.00" stroke-width="0.80" stroke-linecap="square" stroke-linejoin="miter"/>
<path d="M 125.50 527.50 L 900.50 527.50 " fill="none" fill-opacity="0.00" stroke="#000000" stroke-opacity="1.00" stroke-width="0.80" stroke-linecap="square" stroke-linejoin="miter"/>
<path d="M 131.94 72.94 L 262.38 72.94 L 262.38 139.61 L 131.94 139.61 L 131.94 72.94 Z " fill="#FFFFFF" fill-opacity="0.80" stroke="#CCCCCC" stroke-opacity="1.00" stroke-width="0.80" stroke-linecap="butt" stroke-linejoin="miter"/>
<path d="M 137.50 127.50 L 165.50 127.50 " fill="none" fill-opacity="0.00" stroke="#4682B4" stroke-opacity="1.00" stroke-width="2.00" stroke-linecap="butt" stroke-linejoin="miter"/>
<text font-family="DejaVu Sans" font-size="13.89" fill="#000000" fill-opacity="1.00" text-anchor="start" dominant-baseline="central" transform="translate(176.39,127.11) scale(1,-1)">sin(x)</text>
<path d="M 137.50 106.50 L 165.50 106.50 " fill="none" fill-opacity="0.00" stroke="#FF6347" stroke-opacity="1.00" stroke-width="2.00" stroke-linecap="butt" stroke-linejoin="miter"/>
<text font-family="DejaVu Sans" font-size="13.89" fill="#000000" fill-opacity="1.00" text-anchor="start" dominant-baseline="central" transform="translate(176.39,106.28) scale(1,-1)">cos(x)</text>
<path d="M 137.50 80.58 L 165.28 80.58 L 165.28 90.31 L 137.50 90.31 L 137.50 80.58 Z " fill="#9370DB" fill-opacity="0.30" stroke="none" stroke-opacity="0.00" stroke-width="0.50" stroke-linecap="butt" stroke-linejoin="miter"/>
<text font-family="DejaVu Sans" font-size="13.89" fill="#000000" fill-opacity="1.00" text-anchor="start" dominant-baseline="central" transform="translate(176.39,85.44) scale(1,-1)">Fill region</text>
</g>
</svg>
