<?xml version="1.0" encoding="UTF-8"?>
<svg xmlns="http://www.w3.org/2000/svg"
     xmlns:xlink="http://www.w3.org/1999/xlink"
     width="1000" height="800" viewBox="0 0 1000 800">
<defs>
<clipPath id="clip-1">
<rect x="547.73" y="88.00" width="352.27" height="280.00"/>
</clipPath>
<clipPath id="clip-2">
<rect x="547.73" y="88.00" width="352.27" height="280.00"/>
</clipPath>
<clipPath id="clip-3">
<rect x="547.73" y="88.00" width="352.27" height="280.00"/>
</clipPath>
<clipPath id="clip-4">
<rect x="547.73" y="88.00" width="352.27" height="280.00"/>
</clipPath>
<clipPath id="clip-5">
<rect x="547.73" y="88.00" width="352.27" height="280.00"/>
</clipPath>
<clipPath id="clip-6">
<rect x="547.73" y="88.00" width="352.27" height="280.00"/>
</clipPath>
<clipPath id="clip-7">
<rect x="547.73" y="88.00" width="352.27" height="280.00"/>
</clipPath>
<clipPath id="clip-8">
<rect x="547.73" y="88.00" width="352.27" height="280.00"/>
</clipPath>
<clipPath id="clip-9">
<rect x="547.73" y="88.00" width="352.27" height="280.00"/>
</clipPath>
<clipPath id="clip-10">
<rect x="547.73" y="88.00" width="352.27" height="280.00"/>
</clipPath>
<clipPath id="clip-11">
<rect x="547.73" y="88.00" width="352.27" height="280.00"/>
</clipPath>
<clipPath id="clip-12">
<rect x="547.73" y="88.00" width="352.27" height="280.00"/>
</clipPath>
<clipPath id="clip-13">
<rect x="547.73" y="88.00" width="352.27" height="280.00"/>
</clipPath>
<clipPath id="clip-14">
<rect x="547.73" y="88.00" width="352.27" height="280.00"/>
</clipPath>
<clipPath id="clip-15">
<rect x="125.00" y="88.00" width="352.27" height="280.00"/>
</clipPath>
<clipPath id="clip-16">
<rect x="125.00" y="88.00" width="352.27" height="280.00"/>
</clipPath>
<clipPath id="clip-17">
<rect x="125.00" y="88.00" width="352.27" height="280.00"/>
</clipPath>
<clipPath id="clip-18">
<rect x="125.00" y="88.00" width="352.27" height="280.00"/>
</clipPath>
<clipPath id="clip-19">
<rect x="125.00" y="88.00" width="352.27" height="280.00"/>
</clipPath>
<clipPath id="clip-20">
<rect x="125.00" y="88.00" width="352.27" height="280.00"/>
</clipPath>
<clipPath id="clip-21">
<rect x="125.00" y="88.00" width="352.27" height="280.00"/>
</clipPath>
<clipPath id="clip-22">
<rect x="125.00" y="88.00" width="352.27" height="280.00"/>
</clipPath>
<clipPath id="clip-23">
<rect x="125.00" y="88.00" width="352.27" height="280.00"/>
</clipPath>
<clipPath id="clip-24">
<rect x="125.00" y="88.00" width="352.27" height="280.00"/>
</clipPath>
<clipPath id="clip-25">
<rect x="125.00" y="88.00" width="352.27" height="280.00"/>
</clipPath>
<clipPath id="clip-26">
<rect x="125.00" y="88.00" width="352.27" height="280.00"/>
</clipPath>
<clipPath id="clip-27">
<rect x="125.00" y="88.00" width="352.27" height="280.00"/>
</clipPath>
<clipPath id="clip-28">
<rect x="125.00" y="88.00" width="352.27" height="280.00"/>
</clipPath>
<clipPath id="clip-29">
<rect x="125.00" y="88.00" width="352.27" height="280.00"/>
</clipPath>
<clipPath id="clip-30">
<rect x="547.73" y="424.00" width="352.27" height="280.00"/>
</clipPath>
<clipPath id="clip-31">
<rect x="547.73" y="424.00" width="352.27" height="280.00"/>
</clipPath>
<clipPath id="clip-32">
<rect x="547.73" y="424.00" width="352.27" height="280.00"/>
</clipPath>
<clipPath id="clip-33">
<rect x="547.73" y="424.00" width="352.27" height="280.00"/>
</clipPath>
<clipPath id="clip-34">
<rect x="547.73" y="424.00" width="352.27" height="280.00"/>
</clipPath>
<clipPath id="clip-35">
<rect x="547.73" y="424.00" width="352.27" height="280.00"/>
</clipPath>
<clipPath id="clip-36">
<rect x="547.73" y="424.00" width="352.27" height="280.00"/>
</clipPath>
<clipPath id="clip-37">
<rect x="547.73" y="424.00" width="352.27" height="280.00"/>
</clipPath>
<clipPath id="clip-38">
<rect x="547.73" y="424.00" width="352.27" height="280.00"/>
</clipPath>
<clipPath id="clip-39">
<rect x="547.73" y="424.00" width="352.27" height="280.00"/>
</clipPath>
<clipPath id="clip-40">
<rect x="547.73" y="424.00" width="352.27" height="280.00"/>
</clipPath>
<clipPath id="clip-41">
<rect x="125.00" y="424.00" width="352.27" height="280.00"/>
</clipPath>
<clipPath id="clip-42">
<rect x="125.00" y="424.00" width="352.27" height="280.00"/>
</clipPath>
<clipPath id="clip-43">
<rect x="125.00" y="424.00" width="352.27" height="280.00"/>
</clipPath>
<clipPath id="clip-44">
<rect x="125.00" y="424.00" width="352.27" height="280.00"/>
</clipPath>
<clipPath id="clip-45">
<rect x="125.00" y="424.00" width="352.27" height="280.00"/>
</clipPath>
<clipPath id="clip-46">
<rect x="125.00" y="424.00" width="352.27" height="280.00"/>
</clipPath>
<clipPath id="clip-47">
<rect x="125.00" y="424.00" width="352.27" height="280.00"/>
</clipPath>
<clipPath id="clip-48">
<rect x="125.00" y="424.00" width="352.27" height="280.00"/>
</clipPath>
<clipPath id="clip-49">
<rect x="125.00" y="424.00" width="352.27" height="280.00"/>
</clipPath>
<clipPath id="clip-50">
<rect x="125.00" y="424.00" width="352.27" height="280.00"/>
</clipPath>
<clipPath id="clip-51">
<rect x="125.00" y="424.00" width="352.27" height="280.00"/>
</clipPath>
<clipPath id="clip-52">
<rect x="125.00" y="424.00" width="352.27" height="280.00"/>
</clipPath>
</defs>
<g transform="translate(0,800) scale(1,-1)">
<rect width="1000" height="800" fill="white"/>
<path d="M 0.00 0.00 L 1000.00 0.00 L 1000.00 800.00 L 0.00 800.00 L 0.00 0.00 Z " fill="#FFFFFF" fill-opacity="1.00" stroke="#000000" stroke-opacity="1.00" stroke-width="0.00" stroke-linecap="butt" stroke-linejoin="miter"/>
<path d="M 547.73 88.00 L 900.00 88.00 L 900.00 368.00 L 547.73 368.00 L 547.73 88.00 Z " fill="#FFFFFF" fill-opacity="1.00" stroke="none" stroke-opacity="0.00" stroke-width="0.00" stroke-linecap="butt" stroke-linejoin="miter"/>
<path d="M 564.50 88.00 L 564.50 368.00 " fill="none" fill-opacity="0.00" stroke="#B0B0B0" stroke-opacity="1.00" stroke-width="0.80" stroke-linecap="butt" stroke-linejoin="miter" clip-path="url(#clip-1)"/>
<path d="M 629.50 88.00 L 629.50 368.00 " fill="none" fill-opacity="0.00" stroke="#B0B0B0" stroke-opacity="1.00" stroke-width="0.80" stroke-linecap="butt" stroke-linejoin="miter" clip-path="url(#clip-2)"/>
<path d="M 694.50 88.00 L 694.50 368.00 " fill="none" fill-opacity="0.00" stroke="#B0B0B0" stroke-opacity="1.00" stroke-width="0.80" stroke-linecap="butt" stroke-linejoin="miter" clip-path="url(#clip-3)"/>
<path d="M 760.50 88.00 L 760.50 368.00 " fill="none" fill-opacity="0.00" stroke="#B0B0B0" stroke-opacity="1.00" stroke-width="0.80" stroke-linecap="butt" stroke-linejoin="miter" clip-path="url(#clip-4)"/>
<path d="M 825.50 88.00 L 825.50 368.00 " fill="none" fill-opacity="0.00" stroke="#B0B0B0" stroke-opacity="1.00" stroke-width="0.80" stroke-linecap="butt" stroke-linejoin="miter" clip-path="url(#clip-5)"/>
<path d="M 891.50 88.00 L 891.50 368.00 " fill="none" fill-opacity="0.00" stroke="#B0B0B0" stroke-opacity="1.00" stroke-width="0.80" stroke-linecap="butt" stroke-linejoin="miter" clip-path="url(#clip-6)"/>
<path d="M 547.73 103.50 L 900.00 103.50 " fill="none" fill-opacity="0.00" stroke="#B0B0B0" stroke-opacity="1.00" stroke-width="0.80" stroke-linecap="butt" stroke-linejoin="miter" clip-path="url(#clip-7)"/>
<path d="M 547.73 137.50 L 900.00 137.50 " fill="none" fill-opacity="0.00" stroke="#B0B0B0" stroke-opacity="1.00" stroke-width="0.80" stroke-linecap="butt" stroke-linejoin="miter" clip-path="url(#clip-8)"/>
<path d="M 547.73 172.50 L 900.00 172.50 " fill="none" fill-opacity="0.00" stroke="#B0B0B0" stroke-opacity="1.00" stroke-width="0.80" stroke-linecap="butt" stroke-linejoin="miter" clip-path="url(#clip-9)"/>
<path d="M 547.73 207.50 L 900.00 207.50 " fill="none" fill-opacity="0.00" stroke="#B0B0B0" stroke-opacity="1.00" stroke-width="0.80" stroke-linecap="butt" stroke-linejoin="miter" clip-path="url(#clip-10)"/>
<path d="M 547.73 241.50 L 900.00 241.50 " fill="none" fill-opacity="0.00" stroke="#B0B0B0" stroke-opacity="1.00" stroke-width="0.80" stroke-linecap="butt" stroke-linejoin="miter" clip-path="url(#clip-11)"/>
<path d="M 547.73 276.50 L 900.00 276.50 " fill="none" fill-opacity="0.00" stroke="#B0B0B0" stroke-opacity="1.00" stroke-width="0.80" stroke-linecap="butt" stroke-linejoin="miter" clip-path="url(#clip-12)"/>
<path d="M 547.73 311.50 L 900.00 311.50 " fill="none" fill-opacity="0.00" stroke="#B0B0B0" stroke-opacity="1.00" stroke-width="0.80" stroke-linecap="butt" stroke-linejoin="miter" clip-path="url(#clip-13)"/>
<path d="M 547.73 345.50 L 900.00 345.50 " fill="none" fill-opacity="0.00" stroke="#B0B0B0" stroke-opacity="1.00" stroke-width="0.80" stroke-linecap="butt" stroke-linejoin="miter" clip-path="url(#clip-14)"/>
<path d="M 563.74 207.60 L 570.28 272.46 L 576.81 322.41 L 583.35 350.91 L 589.88 355.27 L 596.42 336.67 L 602.95 299.72 L 609.49 251.49 L 616.03 200.25 L 622.56 154.07 L 629.10 119.64 L 635.63 101.34 L 642.17 100.73 L 648.70 116.54 L 655.24 145.08 L 661.77 181.01 L 668.31 218.25 L 674.85 251.00 L 681.38 274.57 L 687.92 286.08 L 694.45 284.67 L 700.99 271.56 L 707.52 249.66 L 714.06 223.00 L 720.60 196.02 L 727.13 172.90 L 733.67 156.87 L 740.20 149.84 L 746.74 152.21 L 753.27 162.88 L 759.81 179.58 L 766.35 199.29 L 772.88 218.76 L 779.42 235.02 L 785.95 245.83 L 792.49 249.95 L 799.02 247.26 L 805.56 238.71 L 812.10 226.04 L 818.63 211.52 L 825.17 197.52 L 831.70 186.14 L 838.24 178.92 L 844.77 176.65 L 851.31 179.29 L 857.84 186.07 L 864.38 195.63 L 870.92 206.29 L 877.45 216.32 L 883.99 224.25 " fill="none" fill-opacity="0.00" stroke="#9932CC" stroke-opacity="1.00" stroke-width="2.00" stroke-linecap="square" stroke-linejoin="round"/>
<path d="M 564.50 88.00 L 564.50 83.14 " fill="none" fill-opacity="0.00" stroke="#000000" stroke-opacity="1.00" stroke-width="0.80" stroke-linecap="butt" stroke-linejoin="miter"/>
<text font-family="DejaVu Sans" font-size="13.89" fill="#000000" fill-opacity="1.00" text-anchor="middle" dominant-baseline="text-before-edge" transform="translate(563.74,78.28) scale(1,-1)">0</text>
<path d="M 629.50 88.00 L 629.50 83.14 " fill="none" fill-opacity="0.00" stroke="#000000" stroke-opacity="1.00" stroke-width="0.80" stroke-linecap="butt" stroke-linejoin="miter"/>
<text font-family="DejaVu Sans" font-size="13.89" fill="#000000" fill-opacity="1.00" text-anchor="middle" dominant-baseline="text-before-edge" transform="translate(629.10,78.28) scale(1,-1)">2</text>
<path d="M 694.50 88.00 L 694.50 83.14 " fill="none" fill-opacity="0.00" stroke="#000000" stroke-opacity="1.00" stroke-width="0.80" stroke-linecap="butt" stroke-linejoin="miter"/>
<text font-family="DejaVu Sans" font-size="13.89" fill="#000000" fill-opacity="1.00" text-anchor="middle" dominant-baseline="text-before-edge" transform="translate(694.45,78.28) scale(1,-1)">4</text>
<path d="M 760.50 88.00 L 760.50 83.14 " fill="none" fill-opacity="0.00" stroke="#000000" stroke-opacity="1.00" stroke-width="0.80" stroke-linecap="butt" stroke-linejoin="miter"/>
<text font-family="DejaVu Sans" font-size="13.89" fill="#000000" fill-opacity="1.00" text-anchor="middle" dominant-baseline="text-before-edge" transform="translate(759.81,78.28) scale(1,-1)">6</text>
<path d="M 825.50 88.00 L 825.50 83.14 " fill="none" fill-opacity="0.00" stroke="#000000" stroke-opacity="1.00" stroke-width="0.80" stroke-linecap="butt" stroke-linejoin="miter"/>
<text font-family="DejaVu Sans" font-size="13.89" fill="#000000" fill-opacity="1.00" text-anchor="middle" dominant-baseline="text-before-edge" transform="translate(825.17,78.28) scale(1,-1)">8</text>
<path d="M 891.50 88.00 L 891.50 83.14 " fill="none" fill-opacity="0.00" stroke="#000000" stroke-opacity="1.00" stroke-width="0.80" stroke-linecap="butt" stroke-linejoin="miter"/>
<text font-family="DejaVu Sans" font-size="13.89" fill="#000000" fill-opacity="1.00" text-anchor="middle" dominant-baseline="text-before-edge" transform="translate(890.52,78.28) scale(1,-1)">10</text>
<path d="M 547.73 103.50 L 542.87 103.50 " fill="none" fill-opacity="0.00" stroke="#000000" stroke-opacity="1.00" stroke-width="0.80" stroke-linecap="butt" stroke-linejoin="miter"/>
<text font-family="DejaVu Sans" font-size="13.89" fill="#000000" fill-opacity="1.00" text-anchor="end" dominant-baseline="central" transform="translate(538.01,103.57) scale(1,-1)">-0.6</text>
<path d="M 547.73 137.50 L 542.87 137.50 " fill="none" fill-opacity="0.00" stroke="#000000" stroke-opacity="1.00" stroke-width="0.80" stroke-linecap="butt" stroke-linejoin="miter"/>
<text font-family="DejaVu Sans" font-size="13.89" fill="#000000" fill-opacity="1.00" text-anchor="end" dominant-baseline="central" transform="translate(538.01,138.25) scale(1,-1)">-0.4</text>
<path d="M 547.73 172.50 L 542.87 172.50 " fill="none" fill-opacity="0.00" stroke="#000000" stroke-opacity="1.00" stroke-width="0.80" stroke-linecap="butt" stroke-linejoin="miter"/>
<text font-family="DejaVu Sans" font-size="13.89" fill="#000000" fill-opacity="1.00" text-anchor="end" dominant-baseline="central" transform="translate(538.01,172.92) scale(1,-1)">-0.2</text>
<path d="M 547.73 207.50 L 542.87 207.50 " fill="none" fill-opacity="0.00" stroke="#000000" stroke-opacity="1.00" stroke-width="0.80" stroke-linecap="butt" stroke-linejoin="miter"/>
<text font-family="DejaVu Sans" font-size="13.89" fill="#000000" fill-opacity="1.00" text-anchor="end" dominant-baseline="central" transform="translate(538.01,207.60) scale(1,-1)">0.0</text>
<path d="M 547.73 241.50 L 542.87 241.50 " fill="none" fill-opacity="0.00" stroke="#000000" stroke-opacity="1.00" stroke-width="0.80" stroke-linecap="butt" stroke-linejoin="miter"/>
<text font-family="DejaVu Sans" font-size="13.89" fill="#000000" fill-opacity="1.00" text-anchor="end" dominant-baseline="central" transform="translate(538.01,242.27) scale(1,-1)">0.2</text>
<path d="M 547.73 276.50 L 542.87 276.50 " fill="none" fill-opacity="0.00" stroke="#000000" stroke-opacity="1.00" stroke-width="0.80" stroke-linecap="butt" stroke-linejoin="miter"/>
<text font-family="DejaVu Sans" font-size="13.89" fill="#000000" fill-opacity="1.00" text-anchor="end" dominant-baseline="central" transform="translate(538.01,276.95) scale(1,-1)">0.4</text>
<path d="M 547.73 311.50 L 542.87 311.50 " fill="none" fill-opacity="0.00" stroke="#000000" stroke-opacity="1.00" stroke-width="0.80" stroke-linecap="butt" stroke-linejoin="miter"/>
<text font-family="DejaVu Sans" font-size="13.89" fill="#000000" fill-opacity="1.00" text-anchor="end" dominant-baseline="central" transform="translate(538.01,311.62) scale(1,-1)">0.6</text>
<path d="M 547.73 345.50 L 542.87 345.50 " fill="none" fill-opacity="0.00" stroke="#000000" stroke-opacity="1.00" stroke-width="0.80" stroke-linecap="butt" stroke-linejoin="miter"/>
<text font-family="DejaVu Sans" font-size="13.89" fill="#000000" fill-opacity="1.00" text-anchor="end" dominant-baseline="central" transform="translate(538.01,346.30) scale(1,-1)">0.8</text>
<path d="M 547.50 88.00 L 547.50 368.00 " fill="none" fill-opacity="0.00" stroke="#000000" stroke-opacity="1.00" stroke-width="0.80" stroke-linecap="square" stroke-linejoin="miter"/>
<path d="M 900.50 88.00 L 900.50 368.00 " fill="none" fill-opacity="0.00" stroke="#000000" stroke-opacity="1.00" stroke-width="0.80" stroke-linecap="square" stroke-linejoin="miter"/>
<path d="M 547.73 87.50 L 900.00 87.50 " fill="none" fill-opacity="0.00" stroke="#000000" stroke-opacity="1.00" stroke-width="0.80" stroke-linecap="square" stroke-linejoin="miter"/>
<path d="M 547.73 367.50 L 900.00 367.50 " fill="none" fill-opacity="0.00" stroke="#000000" stroke-opacity="1.00" stroke-width="0.80" stroke-linecap="square" stroke-linejoin="miter"/>
<path d="M 125.00 88.00 L 477.27 88.00 L 477.27 368.00 L 125.00 368.00 L 125.00 88.00 Z " fill="#FFFFFF" fill-opacity="1.00" stroke="none" stroke-opacity="0.00" stroke-width="0.00" stroke-linecap="butt" stroke-linejoin="miter"/>
<path d="M 141.50 88.00 L 141.50 368.00 " fill="none" fill-opacity="0.00" stroke="#B0B0B0" stroke-opacity="1.00" stroke-width="0.80" stroke-linecap="butt" stroke-linejoin="miter" clip-path="url(#clip-15)"/>
<path d="M 206.50 88.00 L 206.50 368.00 " fill="none" fill-opacity="0.00" stroke="#B0B0B0" stroke-opacity="1.00" stroke-width="0.80" stroke-linecap="butt" stroke-linejoin="miter" clip-path="url(#clip-16)"/>
<path d="M 272.50 88.00 L 272.50 368.00 " fill="none" fill-opacity="0.00" stroke="#B0B0B0" stroke-opacity="1.00" stroke-width="0.80" stroke-linecap="butt" stroke-linejoin="miter" clip-path="url(#clip-17)"/>
<path d="M 337.50 88.00 L 337.50 368.00 " fill="none" fill-opacity="0.00" stroke="#B0B0B0" stroke-opacity="1.00" stroke-width="0.80" stroke-linecap="butt" stroke-linejoin="miter" clip-path="url(#clip-18)"/>
<path d="M 402.50 88.00 L 402.50 368.00 " fill="none" fill-opacity="0.00" stroke="#B0B0B0" stroke-opacity="1.00" stroke-width="0.80" stroke-linecap="butt" stroke-linejoin="miter" clip-path="url(#clip-19)"/>
<path d="M 468.50 88.00 L 468.50 368.00 " fill="none" fill-opacity="0.00" stroke="#B0B0B0" stroke-opacity="1.00" stroke-width="0.80" stroke-linecap="butt" stroke-linejoin="miter" clip-path="url(#clip-20)"/>
<path d="M 125.00 99.50 L 477.27 99.50 " fill="none" fill-opacity="0.00" stroke="#B0B0B0" stroke-opacity="1.00" stroke-width="0.80" stroke-linecap="butt" stroke-linejoin="miter" clip-path="url(#clip-21)"/>
<path d="M 125.00 131.50 L 477.27 131.50 " fill="none" fill-opacity="0.00" stroke="#B0B0B0" stroke-opacity="1.00" stroke-width="0.80" stroke-linecap="butt" stroke-linejoin="miter" clip-path="url(#clip-22)"/>
<path d="M 125.00 163.50 L 477.27 163.50 " fill="none" fill-opacity="0.00" stroke="#B0B0B0" stroke-opacity="1.00" stroke-width="0.80" stroke-linecap="butt" stroke-linejoin="miter" clip-path="url(#clip-23)"/>
<path d="M 125.00 195.50 L 477.27 195.50 " fill="none" fill-opacity="0.00" stroke="#B0B0B0" stroke-opacity="1.00" stroke-width="0.80" stroke-linecap="butt" stroke-linejoin="miter" clip-path="url(#clip-24)"/>
<path d="M 125.00 227.50 L 477.27 227.50 " fill="none" fill-opacity="0.00" stroke="#B0B0B0" stroke-opacity="1.00" stroke-width="0.80" stroke-linecap="butt" stroke-linejoin="miter" clip-path="url(#clip-25)"/>
<path d="M 125.00 259.50 L 477.27 259.50 " fill="none" fill-opacity="0.00" stroke="#B0B0B0" stroke-opacity="1.00" stroke-width="0.80" stroke-linecap="butt" stroke-linejoin="miter" clip-path="url(#clip-26)"/>
<path d="M 125.00 291.50 L 477.27 291.50 " fill="none" fill-opacity="0.00" stroke="#B0B0B0" stroke-opacity="1.00" stroke-width="0.80" stroke-linecap="butt" stroke-linejoin="miter" clip-path="url(#clip-27)"/>
<path d="M 125.00 322.50 L 477.27 322.50 " fill="none" fill-opacity="0.00" stroke="#B0B0B0" stroke-opacity="1.00" stroke-width="0.80" stroke-linecap="butt" stroke-linejoin="miter" clip-path="url(#clip-28)"/>
<path d="M 125.00 354.50 L 477.27 354.50 " fill="none" fill-opacity="0.00" stroke="#B0B0B0" stroke-opacity="1.00" stroke-width="0.80" stroke-linecap="butt" stroke-linejoin="miter" clip-path="url(#clip-29)"/>
<path d="M 141.01 227.78 L 147.55 253.12 L 154.08 277.45 L 160.62 299.80 L 167.16 319.28 L 173.69 335.11 L 180.23 346.66 L 186.76 353.47 L 193.30 355.27 L 199.83 351.99 L 206.37 343.76 L 212.90 330.90 L 219.44 313.93 L 225.98 293.53 L 232.51 270.51 L 239.05 245.78 L 245.58 220.34 L 252.12 195.19 L 258.65 171.34 L 265.19 149.74 L 271.73 131.26 L 278.26 116.62 L 284.80 106.41 L 291.33 101.04 L 297.87 100.73 L 304.40 105.48 L 310.94 115.10 L 317.48 129.22 L 324.01 147.27 L 330.55 168.53 L 337.08 192.14 L 343.62 217.19 L 350.15 242.65 L 356.69 267.52 L 363.23 290.80 L 369.76 311.58 L 376.30 329.01 L 382.83 342.41 L 389.37 351.24 L 395.90 355.14 L 402.44 353.97 L 408.97 347.77 L 415.51 336.78 L 422.05 321.45 L 428.58 302.39 L 435.12 280.35 L 441.65 256.21 L 448.19 230.94 L 454.72 205.55 L 461.26 181.04 " fill="none" fill-opacity="0.00" stroke="#2E8B57" stroke-opacity="1.00" stroke-width="2.00" stroke-linecap="square" stroke-linejoin="round"/>
<path d="M 141.50 88.00 L 141.50 83.14 " fill="none" fill-opacity="0.00" stroke="#000000" stroke-opacity="1.00" stroke-width="0.80" stroke-linecap="butt" stroke-linejoin="miter"/>
<text font-family="DejaVu Sans" font-size="13.89" fill="#000000" fill-opacity="1.00" text-anchor="middle" dominant-baseline="text-before-edge" transform="translate(141.01,78.28) scale(1,-1)">0</text>
<path d="M 206.50 88.00 L 206.50 83.14 " fill="none" fill-opacity="0.00" stroke="#000000" stroke-opacity="1.00" stroke-width="0.80" stroke-linecap="butt" stroke-linejoin="miter"/>
<text font-family="DejaVu Sans" font-size="13.89" fill="#000000" fill-opacity="1.00" text-anchor="middle" dominant-baseline="text-before-edge" transform="translate(206.37,78.28) scale(1,-1)">2</text>
<path d="M 272.50 88.00 L 272.50 83.14 " fill="none" fill-opacity="0.00" stroke="#000000" stroke-opacity="1.00" stroke-width="0.80" stroke-linecap="butt" stroke-linejoin="miter"/>
<text font-family="DejaVu Sans" font-size="13.89" fill="#000000" fill-opacity="1.00" text-anchor="middle" dominant-baseline="text-before-edge" transform="translate(271.73,78.28) scale(1,-1)">4</text>
<path d="M 337.50 88.00 L 337.50 83.14 " fill="none" fill-opacity="0.00" stroke="#000000" stroke-opacity="1.00" stroke-width="0.80" stroke-linecap="butt" stroke-linejoin="miter"/>
<text font-family="DejaVu Sans" font-size="13.89" fill="#000000" fill-opacity="1.00" text-anchor="middle" dominant-baseline="text-before-edge" transform="translate(337.08,78.28) scale(1,-1)">6</text>
<path d="M 402.50 88.00 L 402.50 83.14 " fill="none" fill-opacity="0.00" stroke="#000000" stroke-opacity="1.00" stroke-width="0.80" stroke-linecap="butt" stroke-linejoin="miter"/>
<text font-family="DejaVu Sans" font-size="13.89" fill="#000000" fill-opacity="1.00" text-anchor="middle" dominant-baseline="text-before-edge" transform="translate(402.44,78.28) scale(1,-1)">8</text>
<path d="M 468.50 88.00 L 468.50 83.14 " fill="none" fill-opacity="0.00" stroke="#000000" stroke-opacity="1.00" stroke-width="0.80" stroke-linecap="butt" stroke-linejoin="miter"/>
<text font-family="DejaVu Sans" font-size="13.89" fill="#000000" fill-opacity="1.00" text-anchor="middle" dominant-baseline="text-before-edge" transform="translate(467.80,78.28) scale(1,-1)">10</text>
<path d="M 125.00 99.50 L 120.14 99.50 " fill="none" fill-opacity="0.00" stroke="#000000" stroke-opacity="1.00" stroke-width="0.80" stroke-linecap="butt" stroke-linejoin="miter"/>
<text font-family="DejaVu Sans" font-size="13.89" fill="#000000" fill-opacity="1.00" text-anchor="end" dominant-baseline="central" transform="translate(115.28,100.24) scale(1,-1)">-1.00</text>
<path d="M 125.00 131.50 L 120.14 131.50 " fill="none" fill-opacity="0.00" stroke="#000000" stroke-opacity="1.00" stroke-width="0.80" stroke-linecap="butt" stroke-linejoin="miter"/>
<text font-family="DejaVu Sans" font-size="13.89" fill="#000000" fill-opacity="1.00" text-anchor="end" dominant-baseline="central" transform="translate(115.28,132.12) scale(1,-1)">-0.75</text>
<path d="M 125.00 163.50 L 120.14 163.50 " fill="none" fill-opacity="0.00" stroke="#000000" stroke-opacity="1.00" stroke-width="0.80" stroke-linecap="butt" stroke-linejoin="miter"/>
<text font-family="DejaVu Sans" font-size="13.89" fill="#000000" fill-opacity="1.00" text-anchor="end" dominant-baseline="central" transform="translate(115.28,164.01) scale(1,-1)">-0.50</text>
<path d="M 125.00 195.50 L 120.14 195.50 " fill="none" fill-opacity="0.00" stroke="#000000" stroke-opacity="1.00" stroke-width="0.80" stroke-linecap="butt" stroke-linejoin="miter"/>
<text font-family="DejaVu Sans" font-size="13.89" fill="#000000" fill-opacity="1.00" text-anchor="end" dominant-baseline="central" transform="translate(115.28,195.90) scale(1,-1)">-0.25</text>
<path d="M 125.00 227.50 L 120.14 227.50 " fill="none" fill-opacity="0.00" stroke="#000000" stroke-opacity="1.00" stroke-width="0.80" stroke-linecap="butt" stroke-linejoin="miter"/>
<text font-family="DejaVu Sans" font-size="13.89" fill="#000000" fill-opacity="1.00" text-anchor="end" dominant-baseline="central" transform="translate(115.28,227.78) scale(1,-1)">0.00</text>
<path d="M 125.00 259.50 L 120.14 259.50 " fill="none" fill-opacity="0.00" stroke="#000000" stroke-opacity="1.00" stroke-width="0.80" stroke-linecap="butt" stroke-linejoin="miter"/>
<text font-family="DejaVu Sans" font-size="13.89" fill="#000000" fill-opacity="1.00" text-anchor="end" dominant-baseline="central" transform="translate(115.28,259.67) scale(1,-1)">0.25</text>
<path d="M 125.00 291.50 L 120.14 291.50 " fill="none" fill-opacity="0.00" stroke="#000000" stroke-opacity="1.00" stroke-width="0.80" stroke-linecap="butt" stroke-linejoin="miter"/>
<text font-family="DejaVu Sans" font-size="13.89" fill="#000000" fill-opacity="1.00" text-anchor="end" dominant-baseline="central" transform="translate(115.28,291.55) scale(1,-1)">0.50</text>
<path d="M 125.00 322.50 L 120.14 322.50 " fill="none" fill-opacity="0.00" stroke="#000000" stroke-opacity="1.00" stroke-width="0.80" stroke-linecap="butt" stroke-linejoin="miter"/>
<text font-family="DejaVu Sans" font-size="13.89" fill="#000000" fill-opacity="1.00" text-anchor="end" dominant-baseline="central" transform="translate(115.28,323.44) scale(1,-1)">0.75</text>
<path d="M 125.00 354.50 L 120.14 354.50 " fill="none" fill-opacity="0.00" stroke="#000000" stroke-opacity="1.00" stroke-width="0.80" stroke-linecap="butt" stroke-linejoin="miter"/>
<text font-family="DejaVu Sans" font-size="13.89" fill="#000000" fill-opacity="1.00" text-anchor="end" dominant-baseline="central" transform="translate(115.28,355.33) scale(1,-1)">1.00</text>
<path d="M 125.50 88.00 L 125.50 368.00 " fill="none" fill-opacity="0.00" stroke="#000000" stroke-opacity="1.00" stroke-width="0.80" stroke-linecap="square" stroke-linejoin="miter"/>
<path d="M 477.50 88.00 L 477.50 368.00 " fill="none" fill-opacity="0.00" stroke="#000000" stroke-opacity="1.00" stroke-width="0.80" stroke-linecap="square" stroke-linejoin="miter"/>
<path d="M 125.00 87.50 L 477.27 87.50 " fill="none" fill-opacity="0.00" stroke="#000000" stroke-opacity="1.00" stroke-width="0.80" stroke-linecap="square" stroke-linejoin="miter"/>
<path d="M 125.00 367.50 L 477.27 367.50 " fill="none" fill-opacity="0.00" stroke="#000000" stroke-opacity="1.00" stroke-width="0.80" stroke-linecap="square" stroke-linejoin="miter"/>
<path d="M 547.73 424.00 L 900.00 424.00 L 900.00 704.00 L 547.73 704.00 L 547.73 424.00 Z " fill="#FFFFFF" fill-opacity="1.00" stroke="none" stroke-opacity="0.00" stroke-width="0.00" stroke-linecap="butt" stroke-linejoin="miter"/>
<path d="M 564.50 424.00 L 564.50 704.00 " fill="none" fill-opacity="0.00" stroke="#B0B0B0" stroke-opacity="1.00" stroke-width="0.80" stroke-linecap="butt" stroke-linejoin="miter" clip-path="url(#clip-30)"/>
<path d="M 629.50 424.00 L 629.50 704.00 " fill="none" fill-opacity="0.00" stroke="#B0B0B0" stroke-opacity="1.00" stroke-width="0.80" stroke-linecap="butt" stroke-linejoin="miter" clip-path="url(#clip-31)"/>
<path d="M 694.50 424.00 L 694.50 704.00 " fill="none" fill-opacity="0.00" stroke="#B0B0B0" stroke-opacity="1.00" stroke-width="0.80" stroke-linecap="butt" stroke-linejoin="miter" clip-path="url(#clip-32)"/>
<path d="M 760.50 424.00 L 760.50 704.00 " fill="none" fill-opacity="0.00" stroke="#B0B0B0" stroke-opacity="1.00" stroke-width="0.80" stroke-linecap="butt" stroke-linejoin="miter" clip-path="url(#clip-33)"/>
<path d="M 825.50 424.00 L 825.50 704.00 " fill="none" fill-opacity="0.00" stroke="#B0B0B0" stroke-opacity="1.00" stroke-width="0.80" stroke-linecap="butt" stroke-linejoin="miter" clip-path="url(#clip-34)"/>
<path d="M 891.50 424.00 L 891.50 704.00 " fill="none" fill-opacity="0.00" stroke="#B0B0B0" stroke-opacity="1.00" stroke-width="0.80" stroke-linecap="butt" stroke-linejoin="miter" clip-path="url(#clip-35)"/>
<path d="M 547.73 475.50 L 900.00 475.50 " fill="none" fill-opacity="0.00" stroke="#B0B0B0" stroke-opacity="1.00" stroke-width="0.80" stroke-linecap="butt" stroke-linejoin="miter" clip-path="url(#clip-36)"/>
<path d="M 547.73 529.50 L 900.00 529.50 " fill="none" fill-opacity="0.00" stroke="#B0B0B0" stroke-opacity="1.00" stroke-width="0.80" stroke-linecap="butt" stroke-linejoin="miter" clip-path="url(#clip-37)"/>
<path d="M 547.73 583.50 L 900.00 583.50 " fill="none" fill-opacity="0.00" stroke="#B0B0B0" stroke-opacity="1.00" stroke-width="0.80" stroke-linecap="butt" stroke-linejoin="miter" clip-path="url(#clip-38)"/>
<path d="M 547.73 637.50 L 900.00 637.50 " fill="none" fill-opacity="0.00" stroke="#B0B0B0" stroke-opacity="1.00" stroke-width="0.80" stroke-linecap="butt" stroke-linejoin="miter" clip-path="url(#clip-39)"/>
<path d="M 547.73 690.50 L 900.00 690.50 " fill="none" fill-opacity="0.00" stroke="#B0B0B0" stroke-opacity="1.00" stroke-width="0.80" stroke-linecap="butt" stroke-linejoin="miter" clip-path="url(#clip-40)"/>
<path d="M 563.74 691.27 L 570.28 675.62 L 576.81 660.88 L 583.35 647.00 L 589.88 633.93 L 596.42 621.62 L 602.95 610.02 L 609.49 599.10 L 616.03 588.82 L 622.56 579.13 L 629.10 570.01 L 635.63 561.42 L 642.17 553.34 L 648.70 545.72 L 655.24 538.54 L 661.77 531.79 L 668.31 525.42 L 674.85 519.43 L 681.38 513.79 L 687.92 508.47 L 694.45 503.47 L 700.99 498.75 L 707.52 494.31 L 714.06 490.13 L 720.60 486.19 L 727.13 482.49 L 733.67 478.99 L 740.20 475.71 L 746.74 472.61 L 753.27 469.69 L 759.81 466.94 L 766.35 464.36 L 772.88 461.92 L 779.42 459.63 L 785.95 457.47 L 792.49 455.43 L 799.02 453.51 L 805.56 451.71 L 812.10 450.01 L 818.63 448.41 L 825.17 446.90 L 831.70 445.48 L 838.24 444.14 L 844.77 442.88 L 851.31 441.70 L 857.84 440.58 L 864.38 439.53 L 870.92 438.54 L 877.45 437.61 L 883.99 436.73 " fill="none" fill-opacity="0.00" stroke="#FF6347" stroke-opacity="1.00" stroke-width="2.00" stroke-linecap="square" stroke-linejoin="round"/>
<path d="M 564.50 424.00 L 564.50 419.14 " fill="none" fill-opacity="0.00" stroke="#000000" stroke-opacity="1.00" stroke-width="0.80" stroke-linecap="butt" stroke-linejoin="miter"/>
<text font-family="DejaVu Sans" font-size="13.89" fill="#000000" fill-opacity="1.00" text-anchor="middle" dominant-baseline="text-before-edge" transform="translate(563.74,414.28) scale(1,-1)">0</text>
<path d="M 629.50 424.00 L 629.50 419.14 " fill="none" fill-opacity="0.00" stroke="#000000" stroke-opacity="1.00" stroke-width="0.80" stroke-linecap="butt" stroke-linejoin="miter"/>
<text font-family="DejaVu Sans" font-size="13.89" fill="#000000" fill-opacity="1.00" text-anchor="middle" dominant-baseline="text-before-edge" transform="translate(629.10,414.28) scale(1,-1)">2</text>
<path d="M 694.50 424.00 L 694.50 419.14 " fill="none" fill-opacity="0.00" stroke="#000000" stroke-opacity="1.00" stroke-width="0.80" stroke-linecap="butt" stroke-linejoin="miter"/>
<text font-family="DejaVu Sans" font-size="13.89" fill="#000000" fill-opacity="1.00" text-anchor="middle" dominant-baseline="text-before-edge" transform="translate(694.45,414.28) scale(1,-1)">4</text>
<path d="M 760.50 424.00 L 760.50 419.14 " fill="none" fill-opacity="0.00" stroke="#000000" stroke-opacity="1.00" stroke-width="0.80" stroke-linecap="butt" stroke-linejoin="miter"/>
<text font-family="DejaVu Sans" font-size="13.89" fill="#000000" fill-opacity="1.00" text-anchor="middle" dominant-baseline="text-before-edge" transform="translate(759.81,414.28) scale(1,-1)">6</text>
<path d="M 825.50 424.00 L 825.50 419.14 " fill="none" fill-opacity="0.00" stroke="#000000" stroke-opacity="1.00" stroke-width="0.80" stroke-linecap="butt" stroke-linejoin="miter"/>
<text font-family="DejaVu Sans" font-size="13.89" fill="#000000" fill-opacity="1.00" text-anchor="middle" dominant-baseline="text-before-edge" transform="translate(825.17,414.28) scale(1,-1)">8</text>
<path d="M 891.50 424.00 L 891.50 419.14 " fill="none" fill-opacity="0.00" stroke="#000000" stroke-opacity="1.00" stroke-width="0.80" stroke-linecap="butt" stroke-linejoin="miter"/>
<text font-family="DejaVu Sans" font-size="13.89" fill="#000000" fill-opacity="1.00" text-anchor="middle" dominant-baseline="text-before-edge" transform="translate(890.52,414.28) scale(1,-1)">10</text>
<path d="M 547.73 475.50 L 542.87 475.50 " fill="none" fill-opacity="0.00" stroke="#000000" stroke-opacity="1.00" stroke-width="0.80" stroke-linecap="butt" stroke-linejoin="miter"/>
<text font-family="DejaVu Sans" font-size="13.89" fill="#000000" fill-opacity="1.00" text-anchor="end" dominant-baseline="central" transform="translate(538.01,476.27) scale(1,-1)">0.2</text>
<path d="M 547.73 529.50 L 542.87 529.50 " fill="none" fill-opacity="0.00" stroke="#000000" stroke-opacity="1.00" stroke-width="0.80" stroke-linecap="butt" stroke-linejoin="miter"/>
<text font-family="DejaVu Sans" font-size="13.89" fill="#000000" fill-opacity="1.00" text-anchor="end" dominant-baseline="central" transform="translate(538.01,530.02) scale(1,-1)">0.4</text>
<path d="M 547.73 583.50 L 542.87 583.50 " fill="none" fill-opacity="0.00" stroke="#000000" stroke-opacity="1.00" stroke-width="0.80" stroke-linecap="butt" stroke-linejoin="miter"/>
<text font-family="DejaVu Sans" font-size="13.89" fill="#000000" fill-opacity="1.00" text-anchor="end" dominant-baseline="central" transform="translate(538.01,583.77) scale(1,-1)">0.6</text>
<path d="M 547.73 637.50 L 542.87 637.50 " fill="none" fill-opacity="0.00" stroke="#000000" stroke-opacity="1.00" stroke-width="0.80" stroke-linecap="butt" stroke-linejoin="miter"/>
<text font-family="DejaVu Sans" font-size="13.89" fill="#000000" fill-opacity="1.00" text-anchor="end" dominant-baseline="central" transform="translate(538.01,637.52) scale(1,-1)">0.8</text>
<path d="M 547.73 690.50 L 542.87 690.50 " fill="none" fill-opacity="0.00" stroke="#000000" stroke-opacity="1.00" stroke-width="0.80" stroke-linecap="butt" stroke-linejoin="miter"/>
<text font-family="DejaVu Sans" font-size="13.89" fill="#000000" fill-opacity="1.00" text-anchor="end" dominant-baseline="central" transform="translate(538.01,691.27) scale(1,-1)">1.0</text>
<path d="M 547.50 424.00 L 547.50 704.00 " fill="none" fill-opacity="0.00" stroke="#000000" stroke-opacity="1.00" stroke-width="0.80" stroke-linecap="square" stroke-linejoin="miter"/>
<path d="M 900.50 424.00 L 900.50 704.00 " fill="none" fill-opacity="0.00" stroke="#000000" stroke-opacity="1.00" stroke-width="0.80" stroke-linecap="square" stroke-linejoin="miter"/>
<path d="M 547.73 423.50 L 900.00 423.50 " fill="none" fill-opacity="0.00" stroke="#000000" stroke-opacity="1.00" stroke-width="0.80" stroke-linecap="square" stroke-linejoin="miter"/>
<path d="M 547.73 703.50 L 900.00 703.50 " fill="none" fill-opacity="0.00" stroke="#000000" stroke-opacity="1.00" stroke-width="0.80" stroke-linecap="square" stroke-linejoin="miter"/>
<path d="M 125.00 424.00 L 477.27 424.00 L 477.27 704.00 L 125.00 704.00 L 125.00 424.00 Z " fill="#FFFFFF" fill-opacity="1.00" stroke="none" stroke-opacity="0.00" stroke-width="0.00" stroke-linecap="butt" stroke-linejoin="miter"/>
<path d="M 141.50 424.00 L 141.50 704.00 " fill="none" fill-opacity="0.00" stroke="#B0B0B0" stroke-opacity="1.00" stroke-width="0.80" stroke-linecap="butt" stroke-linejoin="miter" clip-path="url(#clip-41)"/>
<path d="M 206.50 424.00 L 206.50 704.00 " fill="none" fill-opacity="0.00" stroke="#B0B0B0" stroke-opacity="1.00" stroke-width="0.80" stroke-linecap="butt" stroke-linejoin="miter" clip-path="url(#clip-42)"/>
<path d="M 272.50 424.00 L 272.50 704.00 " fill="none" fill-opacity="0.00" stroke="#B0B0B0" stroke-opacity="1.00" stroke-width="0.80" stroke-linecap="butt" stroke-linejoin="miter" clip-path="url(#clip-43)"/>
<path d="M 337.50 424.00 L 337.50 704.00 " fill="none" fill-opacity="0.00" stroke="#B0B0B0" stroke-opacity="1.00" stroke-width="0.80" stroke-linecap="butt" stroke-linejoin="miter" clip-path="url(#clip-44)"/>
<path d="M 402.50 424.00 L 402.50 704.00 " fill="none" fill-opacity="0.00" stroke="#B0B0B0" stroke-opacity="1.00" stroke-width="0.80" stroke-linecap="butt" stroke-linejoin="miter" clip-path="url(#clip-45)"/>
<path d="M 468.50 424.00 L 468.50 704.00 " fill="none" fill-opacity="0.00" stroke="#B0B0B0" stroke-opacity="1.00" stroke-width="0.80" stroke-linecap="butt" stroke-linejoin="miter" clip-path="url(#clip-46)"/>
<path d="M 125.00 436.50 L 477.27 436.50 " fill="none" fill-opacity="0.00" stroke="#B0B0B0" stroke-opacity="1.00" stroke-width="0.80" stroke-linecap="butt" stroke-linejoin="miter" clip-path="url(#clip-47)"/>
<path d="M 125.00 489.50 L 477.27 489.50 " fill="none" fill-opacity="0.00" stroke="#B0B0B0" stroke-opacity="1.00" stroke-width="0.80" stroke-linecap="butt" stroke-linejoin="miter" clip-path="url(#clip-48)"/>
<path d="M 125.00 542.50 L 477.27 542.50 " fill="none" fill-opacity="0.00" stroke="#B0B0B0" stroke-opacity="1.00" stroke-width="0.80" stroke-linecap="butt" stroke-linejoin="miter" clip-path="url(#clip-49)"/>
<path d="M 125.00 595.50 L 477.27 595.50 " fill="none" fill-opacity="0.00" stroke="#B0B0B0" stroke-opacity="1.00" stroke-width="0.80" stroke-linecap="butt" stroke-linejoin="miter" clip-path="url(#clip-50)"/>
<path d="M 125.00 648.50 L 477.27 648.50 " fill="none" fill-opacity="0.00" stroke="#B0B0B0" stroke-opacity="1.00" stroke-width="0.80" stroke-linecap="butt" stroke-linejoin="miter" clip-path="url(#clip-51)"/>
<path d="M 125.00 701.50 L 477.27 701.50 " fill="none" fill-opacity="0.00" stroke="#B0B0B0" stroke-opacity="1.00" stroke-width="0.80" stroke-linecap="butt" stroke-linejoin="miter" clip-path="url(#clip-52)"/>
<path d="M 141.01 436.73 L 147.55 436.83 L 154.08 437.15 L 160.62 437.68 L 167.16 438.42 L 173.69 439.38 L 180.23 440.54 L 186.76 441.92 L 193.30 443.51 L 199.83 445.31 L 206.37 447.33 L 212.90 449.56 L 219.44 451.99 L 225.98 454.64 L 232.51 457.51 L 239.05 460.58 L 245.58 463.87 L 252.12 467.37 L 258.65 471.08 L 265.19 475.00 L 271.73 479.13 L 278.26 483.48 L 284.80 488.04 L 291.33 492.81 L 297.87 497.79 L 304.40 502.99 L 310.94 508.39 L 317.48 514.01 L 324.01 519.84 L 330.55 525.89 L 337.08 532.14 L 343.62 538.61 L 350.15 545.29 L 356.69 552.18 L 363.23 559.28 L 369.76 566.60 L 376.30 574.12 L 382.83 581.86 L 389.37 589.82 L 395.90 597.98 L 402.44 606.35 L 408.97 614.94 L 415.51 623.74 L 422.05 632.75 L 428.58 641.98 L 435.12 651.41 L 441.65 661.06 L 448.19 670.92 L 454.72 680.99 L 461.26 691.27 " fill="none" fill-opacity="0.00" stroke="#4682B4" stroke-opacity="1.00" stroke-width="2.00" stroke-linecap="square" stroke-linejoin="round"/>
<path d="M 141.50 424.00 L 141.50 419.14 " fill="none" fill-opacity="0.00" stroke="#000000" stroke-opacity="1.00" stroke-width="0.80" stroke-linecap="butt" stroke-linejoin="miter"/>
<text font-family="DejaVu Sans" font-size="13.89" fill="#000000" fill-opacity="1.00" text-anchor="middle" dominant-baseline="text-before-edge" transform="translate(141.01,414.28) scale(1,-1)">0</text>
<path d="M 206.50 424.00 L 206.50 419.14 " fill="none" fill-opacity="0.00" stroke="#000000" stroke-opacity="1.00" stroke-width="0.80" stroke-linecap="butt" stroke-linejoin="miter"/>
<text font-family="DejaVu Sans" font-size="13.89" fill="#000000" fill-opacity="1.00" text-anchor="middle" dominant-baseline="text-before-edge" transform="translate(206.37,414.28) scale(1,-1)">2</text>
<path d="M 272.50 424.00 L 272.50 419.14 " fill="none" fill-opacity="0.00" stroke="#000000" stroke-opacity="1.00" stroke-width="0.80" stroke-linecap="butt" stroke-linejoin="miter"/>
<text font-family="DejaVu Sans" font-size="13.89" fill="#000000" fill-opacity="1.00" text-anchor="middle" dominant-baseline="text-before-edge" transform="translate(271.73,414.28) scale(1,-1)">4</text>
<path d="M 337.50 424.00 L 337.50 419.14 " fill="none" fill-opacity="0.00" stroke="#000000" stroke-opacity="1.00" stroke-width="0.80" stroke-linecap="butt" stroke-linejoin="miter"/>
<text font-family="DejaVu Sans" font-size="13.89" fill="#000000" fill-opacity="1.00" text-anchor="middle" dominant-baseline="text-before-edge" transform="translate(337.08,414.28) scale(1,-1)">6</text>
<path d="M 402.50 424.00 L 402.50 419.14 " fill="none" fill-opacity="0.00" stroke="#000000" stroke-opacity="1.00" stroke-width="0.80" stroke-linecap="butt" stroke-linejoin="miter"/>
<text font-family="DejaVu Sans" font-size="13.89" fill="#000000" fill-opacity="1.00" text-anchor="middle" dominant-baseline="text-before-edge" transform="translate(402.44,414.28) scale(1,-1)">8</text>
<path d="M 468.50 424.00 L 468.50 419.14 " fill="none" fill-opacity="0.00" stroke="#000000" stroke-opacity="1.00" stroke-width="0.80" stroke-linecap="butt" stroke-linejoin="miter"/>
<text font-family="DejaVu Sans" font-size="13.89" fill="#000000" fill-opacity="1.00" text-anchor="middle" dominant-baseline="text-before-edge" transform="translate(467.80,414.28) scale(1,-1)">10</text>
<path d="M 125.00 436.50 L 120.14 436.50 " fill="none" fill-opacity="0.00" stroke="#000000" stroke-opacity="1.00" stroke-width="0.80" stroke-linecap="butt" stroke-linejoin="miter"/>
<text font-family="DejaVu Sans" font-size="13.89" fill="#000000" fill-opacity="1.00" text-anchor="end" dominant-baseline="central" transform="translate(115.28,436.73) scale(1,-1)">0</text>
<path d="M 125.00 489.50 L 120.14 489.50 " fill="none" fill-opacity="0.00" stroke="#000000" stroke-opacity="1.00" stroke-width="0.80" stroke-linecap="butt" stroke-linejoin="miter"/>
<text font-family="DejaVu Sans" font-size="13.89" fill="#000000" fill-opacity="1.00" text-anchor="end" dominant-baseline="central" transform="translate(115.28,489.74) scale(1,-1)">2</text>
<path d="M 125.00 542.50 L 120.14 542.50 " fill="none" fill-opacity="0.00" stroke="#000000" stroke-opacity="1.00" stroke-width="0.80" stroke-linecap="butt" stroke-linejoin="miter"/>
<text font-family="DejaVu Sans" font-size="13.89" fill="#000000" fill-opacity="1.00" text-anchor="end" dominant-baseline="central" transform="translate(115.28,542.74) scale(1,-1)">4</text>
<path d="M 125.00 595.50 L 120.14 595.50 " fill="none" fill-opacity="0.00" stroke="#000000" stroke-opacity="1.00" stroke-width="0.80" stroke-linecap="butt" stroke-linejoin="miter"/>
<text font-family="DejaVu Sans" font-size="13.89" fill="#000000" fill-opacity="1.00" text-anchor="end" dominant-baseline="central" transform="translate(115.28,595.75) scale(1,-1)">6</text>
<path d="M 125.00 648.50 L 120.14 648.50 " fill="none" fill-opacity="0.00" stroke="#000000" stroke-opacity="1.00" stroke-width="0.80" stroke-linecap="butt" stroke-linejoin="miter"/>
<text font-family="DejaVu Sans" font-size="13.89" fill="#000000" fill-opacity="1.00" text-anchor="end" dominant-baseline="central" transform="translate(115.28,648.76) scale(1,-1)">8</text>
<path d="M 125.00 701.50 L 120.14 701.50 " fill="none" fill-opacity="0.00" stroke="#000000" stroke-opacity="1.00" stroke-width="0.80" stroke-linecap="butt" stroke-linejoin="miter"/>
<text font-family="DejaVu Sans" font-size="13.89" fill="#000000" fill-opacity="1.00" text-anchor="end" dominant-baseline="central" transform="translate(115.28,701.77) scale(1,-1)">10</text>
<path d="M 125.50 424.00 L 125.50 704.00 " fill="none" fill-opacity="0.00" stroke="#000000" stroke-opacity="1.00" stroke-width="0.80" stroke-linecap="square" stroke-linejoin="miter"/>
<path d="M 477.50 424.00 L 477.50 704.00 " fill="none" fill-opacity="0.00" stroke="#000000" stroke-opacity="1.00" stroke-width="0.80" stroke-linecap="square" stroke-linejoin="miter"/>
<path d="M 125.00 423.50 L 477.27 423.50 " fill="none" fill-opacity="0.00" stroke="#000000" stroke-opacity="1.00" stroke-width="0.80" stroke-linecap="square" stroke-linejoin="miter"/>
<path d="M 125.00 703.50 L 477.27 703.50 " fill="none" fill-opacity="0.00" stroke="#000000" stroke-opacity="1.00" stroke-width="0.80" stroke-linecap="square" stroke-linejoin="miter"/>
</g>
</svg>
