<?xml version="1.0" encoding="UTF-8"?>
<svg xmlns="http://www.w3.org/2000/svg"
     xmlns:xlink="http://www.w3.org/1999/xlink"
     width="1200" height="400" viewBox="0 0 1200 400">
<defs>
<clipPath id="clip-1">
<rect x="806.47" y="44.00" width="273.53" height="308.00"/>
</clipPath>
<clipPath id="clip-2">
<rect x="806.47" y="44.00" width="273.53" height="308.00"/>
</clipPath>
<clipPath id="clip-3">
<rect x="806.47" y="44.00" width="273.53" height="308.00"/>
</clipPath>
<clipPath id="clip-4">
<rect x="806.47" y="44.00" width="273.53" height="308.00"/>
</clipPath>
<clipPath id="clip-5">
<rect x="806.47" y="44.00" width="273.53" height="308.00"/>
</clipPath>
<clipPath id="clip-6">
<rect x="806.47" y="44.00" width="273.53" height="308.00"/>
</clipPath>
<clipPath id="clip-7">
<rect x="806.47" y="44.00" width="273.53" height="308.00"/>
</clipPath>
<clipPath id="clip-8">
<rect x="806.47" y="44.00" width="273.53" height="308.00"/>
</clipPath>
<clipPath id="clip-9">
<rect x="806.47" y="44.00" width="273.53" height="308.00"/>
</clipPath>
<clipPath id="clip-10">
<rect x="806.47" y="44.00" width="273.53" height="308.00"/>
</clipPath>
<clipPath id="clip-11">
<rect x="806.47" y="44.00" width="273.53" height="308.00"/>
</clipPath>
<clipPath id="clip-12">
<rect x="478.24" y="44.00" width="273.53" height="308.00"/>
</clipPath>
<clipPath id="clip-13">
<rect x="478.24" y="44.00" width="273.53" height="308.00"/>
</clipPath>
<clipPath id="clip-14">
<rect x="478.24" y="44.00" width="273.53" height="308.00"/>
</clipPath>
<clipPath id="clip-15">
<rect x="478.24" y="44.00" width="273.53" height="308.00"/>
</clipPath>
<clipPath id="clip-16">
<rect x="478.24" y="44.00" width="273.53" height="308.00"/>
</clipPath>
<clipPath id="clip-17">
<rect x="478.24" y="44.00" width="273.53" height="308.00"/>
</clipPath>
<clipPath id="clip-18">
<rect x="478.24" y="44.00" width="273.53" height="308.00"/>
</clipPath>
<clipPath id="clip-19">
<rect x="478.24" y="44.00" width="273.53" height="308.00"/>
</clipPath>
<clipPath id="clip-20">
<rect x="478.24" y="44.00" width="273.53" height="308.00"/>
</clipPath>
<clipPath id="clip-21">
<rect x="478.24" y="44.00" width="273.53" height="308.00"/>
</clipPath>
<clipPath id="clip-22">
<rect x="478.24" y="44.00" width="273.53" height="308.00"/>
</clipPath>
<clipPath id="clip-23">
<rect x="478.24" y="44.00" width="273.53" height="308.00"/>
</clipPath>
<clipPath id="clip-24">
<rect x="478.24" y="44.00" width="273.53" height="308.00"/>
</clipPath>
<clipPath id="clip-25">
<rect x="150.00" y="44.00" width="273.53" height="308.00"/>
</clipPath>
<clipPath id="clip-26">
<rect x="150.00" y="44.00" width="273.53" height="308.00"/>
</clipPath>
<clipPath id="clip-27">
<rect x="150.00" y="44.00" width="273.53" height="308.00"/>
</clipPath>
<clipPath id="clip-28">
<rect x="150.00" y="44.00" width="273.53" height="308.00"/>
</clipPath>
<clipPath id="clip-29">
<rect x="150.00" y="44.00" width="273.53" height="308.00"/>
</clipPath>
<clipPath id="clip-30">
<rect x="150.00" y="44.00" width="273.53" height="308.00"/>
</clipPath>
<clipPath id="clip-31">
<rect x="150.00" y="44.00" width="273.53" height="308.00"/>
</clipPath>
<clipPath id="clip-32">
<rect x="150.00" y="44.00" width="273.53" height="308.00"/>
</clipPath>
<clipPath id="clip-33">
<rect x="150.00" y="44.00" width="273.53" height="308.00"/>
</clipPath>
<clipPath id="clip-34">
<rect x="150.00" y="44.00" width="273.53" height="308.00"/>
</clipPath>
<clipPath id="clip-35">
<rect x="150.00" y="44.00" width="273.53" height="308.00"/>
</clipPath>
<clipPath id="clip-36">
<rect x="150.00" y="44.00" width="273.53" height="308.00"/>
</clipPath>
</defs>
<g transform="translate(0,400) scale(1,-1)">
<rect width="1200" height="400" fill="white"/>
<path d="M 0.00 0.00 L 1200.00 0.00 L 1200.00 400.00 L 0.00 400.00 L 0.00 0.00 Z " fill="#FFFFFF" fill-opacity="1.00" stroke="#000000" stroke-opacity="1.00" stroke-width="0.00" stroke-linecap="butt" stroke-linejoin="miter"/>
<path d="M 806.47 44.00 L 1080.00 44.00 L 1080.00 352.00 L 806.47 352.00 L 806.47 44.00 Z " fill="#FFFFFF" fill-opacity="1.00" stroke="none" stroke-opacity="0.00" stroke-width="0.00" stroke-linecap="butt" stroke-linejoin="miter"/>
<path d="M 1035.13 44.00 L 1067.57 44.00 L 1067.57 255.20 L 1035.13 255.20 L 1035.13 44.00 Z " fill="#2E8B57" fill-opacity="1.00" stroke="#000000" stroke-opacity="1.00" stroke-width="0.00" stroke-linecap="butt" stroke-linejoin="miter"/>
<path d="M 981.08 44.00 L 1013.51 44.00 L 1013.51 337.33 L 981.08 337.33 L 981.08 44.00 Z " fill="#2E8B57" fill-opacity="1.00" stroke="#000000" stroke-opacity="1.00" stroke-width="0.00" stroke-linecap="butt" stroke-linejoin="miter"/>
<path d="M 927.02 44.00 L 959.45 44.00 L 959.45 220.00 L 927.02 220.00 L 927.02 44.00 Z " fill="#2E8B57" fill-opacity="1.00" stroke="#000000" stroke-opacity="1.00" stroke-width="0.00" stroke-linecap="butt" stroke-linejoin="miter"/>
<path d="M 872.96 44.00 L 905.40 44.00 L 905.40 278.67 L 872.96 278.67 L 872.96 44.00 Z " fill="#2E8B57" fill-opacity="1.00" stroke="#000000" stroke-opacity="1.00" stroke-width="0.00" stroke-linecap="butt" stroke-linejoin="miter"/>
<path d="M 818.90 44.00 L 851.34 44.00 L 851.34 161.33 L 818.90 161.33 L 818.90 44.00 Z " fill="#2E8B57" fill-opacity="1.00" stroke="#000000" stroke-opacity="1.00" stroke-width="0.00" stroke-linecap="butt" stroke-linejoin="miter"/>
<path d="M 835.50 44.00 L 835.50 352.00 " fill="none" fill-opacity="0.00" stroke="#B0B0B0" stroke-opacity="1.00" stroke-width="0.80" stroke-linecap="butt" stroke-linejoin="miter" clip-path="url(#clip-1)"/>
<path d="M 889.50 44.00 L 889.50 352.00 " fill="none" fill-opacity="0.00" stroke="#B0B0B0" stroke-opacity="1.00" stroke-width="0.80" stroke-linecap="butt" stroke-linejoin="miter" clip-path="url(#clip-2)"/>
<path d="M 943.50 44.00 L 943.50 352.00 " fill="none" fill-opacity="0.00" stroke="#B0B0B0" stroke-opacity="1.00" stroke-width="0.80" stroke-linecap="butt" stroke-linejoin="miter" clip-path="url(#clip-3)"/>
<path d="M 997.50 44.00 L 997.50 352.00 " fill="none" fill-opacity="0.00" stroke="#B0B0B0" stroke-opacity="1.00" stroke-width="0.80" stroke-linecap="butt" stroke-linejoin="miter" clip-path="url(#clip-4)"/>
<path d="M 1051.50 44.00 L 1051.50 352.00 " fill="none" fill-opacity="0.00" stroke="#B0B0B0" stroke-opacity="1.00" stroke-width="0.80" stroke-linecap="butt" stroke-linejoin="miter" clip-path="url(#clip-5)"/>
<path d="M 806.47 43.50 L 1080.00 43.50 " fill="none" fill-opacity="0.00" stroke="#B0B0B0" stroke-opacity="1.00" stroke-width="0.80" stroke-linecap="butt" stroke-linejoin="miter" clip-path="url(#clip-6)"/>
<path d="M 806.47 102.50 L 1080.00 102.50 " fill="none" fill-opacity="0.00" stroke="#B0B0B0" stroke-opacity="1.00" stroke-width="0.80" stroke-linecap="butt" stroke-linejoin="miter" clip-path="url(#clip-7)"/>
<path d="M 806.47 160.50 L 1080.00 160.50 " fill="none" fill-opacity="0.00" stroke="#B0B0B0" stroke-opacity="1.00" stroke-width="0.80" stroke-linecap="butt" stroke-linejoin="miter" clip-path="url(#clip-8)"/>
<path d="M 806.47 219.50 L 1080.00 219.50 " fill="none" fill-opacity="0.00" stroke="#B0B0B0" stroke-opacity="1.00" stroke-width="0.80" stroke-linecap="butt" stroke-linejoin="miter" clip-path="url(#clip-9)"/>
<path d="M 806.47 278.50 L 1080.00 278.50 " fill="none" fill-opacity="0.00" stroke="#B0B0B0" stroke-opacity="1.00" stroke-width="0.80" stroke-linecap="butt" stroke-linejoin="miter" clip-path="url(#clip-10)"/>
<path d="M 806.47 336.50 L 1080.00 336.50 " fill="none" fill-opacity="0.00" stroke="#B0B0B0" stroke-opacity="1.00" stroke-width="0.80" stroke-linecap="butt" stroke-linejoin="miter" clip-path="url(#clip-11)"/>
<path d="M 835.50 44.00 L 835.50 39.14 " fill="none" fill-opacity="0.00" stroke="#000000" stroke-opacity="1.00" stroke-width="0.80" stroke-linecap="butt" stroke-linejoin="miter"/>
<text font-family="DejaVu Sans" font-size="13.89" fill="#000000" fill-opacity="1.00" text-anchor="middle" dominant-baseline="text-before-edge" transform="translate(835.12,34.28) scale(1,-1)">1</text>
<path d="M 889.50 44.00 L 889.50 39.14 " fill="none" fill-opacity="0.00" stroke="#000000" stroke-opacity="1.00" stroke-width="0.80" stroke-linecap="butt" stroke-linejoin="miter"/>
<text font-family="DejaVu Sans" font-size="13.89" fill="#000000" fill-opacity="1.00" text-anchor="middle" dominant-baseline="text-before-edge" transform="translate(889.18,34.28) scale(1,-1)">2</text>
<path d="M 943.50 44.00 L 943.50 39.14 " fill="none" fill-opacity="0.00" stroke="#000000" stroke-opacity="1.00" stroke-width="0.80" stroke-linecap="butt" stroke-linejoin="miter"/>
<text font-family="DejaVu Sans" font-size="13.89" fill="#000000" fill-opacity="1.00" text-anchor="middle" dominant-baseline="text-before-edge" transform="translate(943.24,34.28) scale(1,-1)">3</text>
<path d="M 997.50 44.00 L 997.50 39.14 " fill="none" fill-opacity="0.00" stroke="#000000" stroke-opacity="1.00" stroke-width="0.80" stroke-linecap="butt" stroke-linejoin="miter"/>
<text font-family="DejaVu Sans" font-size="13.89" fill="#000000" fill-opacity="1.00" text-anchor="middle" dominant-baseline="text-before-edge" transform="translate(997.29,34.28) scale(1,-1)">4</text>
<path d="M 1051.50 44.00 L 1051.50 39.14 " fill="none" fill-opacity="0.00" stroke="#000000" stroke-opacity="1.00" stroke-width="0.80" stroke-linecap="butt" stroke-linejoin="miter"/>
<text font-family="DejaVu Sans" font-size="13.89" fill="#000000" fill-opacity="1.00" text-anchor="middle" dominant-baseline="text-before-edge" transform="translate(1051.35,34.28) scale(1,-1)">5</text>
<path d="M 806.47 43.50 L 801.61 43.50 " fill="none" fill-opacity="0.00" stroke="#000000" stroke-opacity="1.00" stroke-width="0.80" stroke-linecap="butt" stroke-linejoin="miter"/>
<text font-family="DejaVu Sans" font-size="13.89" fill="#000000" fill-opacity="1.00" text-anchor="end" dominant-baseline="central" transform="translate(796.75,44.00) scale(1,-1)">0</text>
<path d="M 806.47 102.50 L 801.61 102.50 " fill="none" fill-opacity="0.00" stroke="#000000" stroke-opacity="1.00" stroke-width="0.80" stroke-linecap="butt" stroke-linejoin="miter"/>
<text font-family="DejaVu Sans" font-size="13.89" fill="#000000" fill-opacity="1.00" text-anchor="end" dominant-baseline="central" transform="translate(796.75,102.67) scale(1,-1)">5</text>
<path d="M 806.47 160.50 L 801.61 160.50 " fill="none" fill-opacity="0.00" stroke="#000000" stroke-opacity="1.00" stroke-width="0.80" stroke-linecap="butt" stroke-linejoin="miter"/>
<text font-family="DejaVu Sans" font-size="13.89" fill="#000000" fill-opacity="1.00" text-anchor="end" dominant-baseline="central" transform="translate(796.75,161.33) scale(1,-1)">10</text>
<path d="M 806.47 219.50 L 801.61 219.50 " fill="none" fill-opacity="0.00" stroke="#000000" stroke-opacity="1.00" stroke-width="0.80" stroke-linecap="butt" stroke-linejoin="miter"/>
<text font-family="DejaVu Sans" font-size="13.89" fill="#000000" fill-opacity="1.00" text-anchor="end" dominant-baseline="central" transform="translate(796.75,220.00) scale(1,-1)">15</text>
<path d="M 806.47 278.50 L 801.61 278.50 " fill="none" fill-opacity="0.00" stroke="#000000" stroke-opacity="1.00" stroke-width="0.80" stroke-linecap="butt" stroke-linejoin="miter"/>
<text font-family="DejaVu Sans" font-size="13.89" fill="#000000" fill-opacity="1.00" text-anchor="end" dominant-baseline="central" transform="translate(796.75,278.67) scale(1,-1)">20</text>
<path d="M 806.47 336.50 L 801.61 336.50 " fill="none" fill-opacity="0.00" stroke="#000000" stroke-opacity="1.00" stroke-width="0.80" stroke-linecap="butt" stroke-linejoin="miter"/>
<text font-family="DejaVu Sans" font-size="13.89" fill="#000000" fill-opacity="1.00" text-anchor="end" dominant-baseline="central" transform="translate(796.75,337.33) scale(1,-1)">25</text>
<path d="M 806.50 44.00 L 806.50 352.00 " fill="none" fill-opacity="0.00" stroke="#000000" stroke-opacity="1.00" stroke-width="0.80" stroke-linecap="square" stroke-linejoin="miter"/>
<path d="M 1080.50 44.00 L 1080.50 352.00 " fill="none" fill-opacity="0.00" stroke="#000000" stroke-opacity="1.00" stroke-width="0.80" stroke-linecap="square" stroke-linejoin="miter"/>
<path d="M 806.47 43.50 L 1080.00 43.50 " fill="none" fill-opacity="0.00" stroke="#000000" stroke-opacity="1.00" stroke-width="0.80" stroke-linecap="square" stroke-linejoin="miter"/>
<path d="M 806.47 351.50 L 1080.00 351.50 " fill="none" fill-opacity="0.00" stroke="#000000" stroke-opacity="1.00" stroke-width="0.80" stroke-linecap="square" stroke-linejoin="miter"/>
<path d="M 478.24 44.00 L 751.76 44.00 L 751.76 352.00 L 478.24 352.00 L 478.24 44.00 Z " fill="#FFFFFF" fill-opacity="1.00" stroke="none" stroke-opacity="0.00" stroke-width="0.00" stroke-linecap="butt" stroke-linejoin="miter"/>
<path d="M 491.50 44.00 L 491.50 352.00 " fill="none" fill-opacity="0.00" stroke="#B0B0B0" stroke-opacity="1.00" stroke-width="0.80" stroke-linecap="butt" stroke-linejoin="miter" clip-path="url(#clip-12)"/>
<path d="M 540.50 44.00 L 540.50 352.00 " fill="none" fill-opacity="0.00" stroke="#B0B0B0" stroke-opacity="1.00" stroke-width="0.80" stroke-linecap="butt" stroke-linejoin="miter" clip-path="url(#clip-13)"/>
<path d="M 590.50 44.00 L 590.50 352.00 " fill="none" fill-opacity="0.00" stroke="#B0B0B0" stroke-opacity="1.00" stroke-width="0.80" stroke-linecap="butt" stroke-linejoin="miter" clip-path="url(#clip-14)"/>
<path d="M 640.50 44.00 L 640.50 352.00 " fill="none" fill-opacity="0.00" stroke="#B0B0B0" stroke-opacity="1.00" stroke-width="0.80" stroke-linecap="butt" stroke-linejoin="miter" clip-path="url(#clip-15)"/>
<path d="M 690.50 44.00 L 690.50 352.00 " fill="none" fill-opacity="0.00" stroke="#B0B0B0" stroke-opacity="1.00" stroke-width="0.80" stroke-linecap="butt" stroke-linejoin="miter" clip-path="url(#clip-16)"/>
<path d="M 739.50 44.00 L 739.50 352.00 " fill="none" fill-opacity="0.00" stroke="#B0B0B0" stroke-opacity="1.00" stroke-width="0.80" stroke-linecap="butt" stroke-linejoin="miter" clip-path="url(#clip-17)"/>
<path d="M 478.24 57.50 L 751.76 57.50 " fill="none" fill-opacity="0.00" stroke="#B0B0B0" stroke-opacity="1.00" stroke-width="0.80" stroke-linecap="butt" stroke-linejoin="miter" clip-path="url(#clip-18)"/>
<path d="M 478.24 101.50 L 751.76 101.50 " fill="none" fill-opacity="0.00" stroke="#B0B0B0" stroke-opacity="1.00" stroke-width="0.80" stroke-linecap="butt" stroke-linejoin="miter" clip-path="url(#clip-19)"/>
<path d="M 478.24 146.50 L 751.76 146.50 " fill="none" fill-opacity="0.00" stroke="#B0B0B0" stroke-opacity="1.00" stroke-width="0.80" stroke-linecap="butt" stroke-linejoin="miter" clip-path="url(#clip-20)"/>
<path d="M 478.24 190.50 L 751.76 190.50 " fill="none" fill-opacity="0.00" stroke="#B0B0B0" stroke-opacity="1.00" stroke-width="0.80" stroke-linecap="butt" stroke-linejoin="miter" clip-path="url(#clip-21)"/>
<path d="M 478.24 234.50 L 751.76 234.50 " fill="none" fill-opacity="0.00" stroke="#B0B0B0" stroke-opacity="1.00" stroke-width="0.80" stroke-linecap="butt" stroke-linejoin="miter" clip-path="url(#clip-22)"/>
<path d="M 478.24 278.50 L 751.76 278.50 " fill="none" fill-opacity="0.00" stroke="#B0B0B0" stroke-opacity="1.00" stroke-width="0.80" stroke-linecap="butt" stroke-linejoin="miter" clip-path="url(#clip-23)"/>
<path d="M 478.24 323.50 L 751.76 323.50 " fill="none" fill-opacity="0.00" stroke="#B0B0B0" stroke-opacity="1.00" stroke-width="0.80" stroke-linecap="butt" stroke-linejoin="miter" clip-path="url(#clip-24)"/>
<path d="M 490.67 58.00 L 515.53 146.54 L 540.40 183.22 L 565.27 211.36 L 590.13 235.09 L 615.00 255.99 L 639.87 274.89 L 664.73 292.26 L 689.60 308.44 L 714.47 323.63 L 739.33 338.00 " fill="none" fill-opacity="0.00" stroke="#FF6347" stroke-opacity="1.00" stroke-width="2.00" stroke-linecap="square" stroke-linejoin="round"/>
<path d="M 491.50 44.00 L 491.50 39.14 " fill="none" fill-opacity="0.00" stroke="#000000" stroke-opacity="1.00" stroke-width="0.80" stroke-linecap="butt" stroke-linejoin="miter"/>
<text font-family="DejaVu Sans" font-size="13.89" fill="#000000" fill-opacity="1.00" text-anchor="middle" dominant-baseline="text-before-edge" transform="translate(490.67,34.28) scale(1,-1)">0</text>
<path d="M 540.50 44.00 L 540.50 39.14 " fill="none" fill-opacity="0.00" stroke="#000000" stroke-opacity="1.00" stroke-width="0.80" stroke-linecap="butt" stroke-linejoin="miter"/>
<text font-family="DejaVu Sans" font-size="13.89" fill="#000000" fill-opacity="1.00" text-anchor="middle" dominant-baseline="text-before-edge" transform="translate(540.40,34.28) scale(1,-1)">2</text>
<path d="M 590.50 44.00 L 590.50 39.14 " fill="none" fill-opacity="0.00" stroke="#000000" stroke-opacity="1.00" stroke-width="0.80" stroke-linecap="butt" stroke-linejoin="miter"/>
<text font-family="DejaVu Sans" font-size="13.89" fill="#000000" fill-opacity="1.00" text-anchor="middle" dominant-baseline="text-before-edge" transform="translate(590.13,34.28) scale(1,-1)">4</text>
<path d="M 640.50 44.00 L 640.50 39.14 " fill="none" fill-opacity="0.00" stroke="#000000" stroke-opacity="1.00" stroke-width="0.80" stroke-linecap="butt" stroke-linejoin="miter"/>
<text font-family="DejaVu Sans" font-size="13.89" fill="#000000" fill-opacity="1.00" text-anchor="middle" dominant-baseline="text-before-edge" transform="translate(639.87,34.28) scale(1,-1)">6</text>
<path d="M 690.50 44.00 L 690.50 39.14 " fill="none" fill-opacity="0.00" stroke="#000000" stroke-opacity="1.00" stroke-width="0.80" stroke-linecap="butt" stroke-linejoin="miter"/>
<text font-family="DejaVu Sans" font-size="13.89" fill="#000000" fill-opacity="1.00" text-anchor="middle" dominant-baseline="text-before-edge" transform="translate(689.60,34.28) scale(1,-1)">8</text>
<path d="M 739.50 44.00 L 739.50 39.14 " fill="none" fill-opacity="0.00" stroke="#000000" stroke-opacity="1.00" stroke-width="0.80" stroke-linecap="butt" stroke-linejoin="miter"/>
<text font-family="DejaVu Sans" font-size="13.89" fill="#000000" fill-opacity="1.00" text-anchor="middle" dominant-baseline="text-before-edge" transform="translate(739.33,34.28) scale(1,-1)">10</text>
<path d="M 478.24 57.50 L 473.37 57.50 " fill="none" fill-opacity="0.00" stroke="#000000" stroke-opacity="1.00" stroke-width="0.80" stroke-linecap="butt" stroke-linejoin="miter"/>
<text font-family="DejaVu Sans" font-size="13.89" fill="#000000" fill-opacity="1.00" text-anchor="end" dominant-baseline="central" transform="translate(468.51,58.00) scale(1,-1)">0.0</text>
<path d="M 478.24 101.50 L 473.37 101.50 " fill="none" fill-opacity="0.00" stroke="#000000" stroke-opacity="1.00" stroke-width="0.80" stroke-linecap="butt" stroke-linejoin="miter"/>
<text font-family="DejaVu Sans" font-size="13.89" fill="#000000" fill-opacity="1.00" text-anchor="end" dominant-baseline="central" transform="translate(468.51,102.27) scale(1,-1)">0.5</text>
<path d="M 478.24 146.50 L 473.37 146.50 " fill="none" fill-opacity="0.00" stroke="#000000" stroke-opacity="1.00" stroke-width="0.80" stroke-linecap="butt" stroke-linejoin="miter"/>
<text font-family="DejaVu Sans" font-size="13.89" fill="#000000" fill-opacity="1.00" text-anchor="end" dominant-baseline="central" transform="translate(468.51,146.54) scale(1,-1)">1.0</text>
<path d="M 478.24 190.50 L 473.37 190.50 " fill="none" fill-opacity="0.00" stroke="#000000" stroke-opacity="1.00" stroke-width="0.80" stroke-linecap="butt" stroke-linejoin="miter"/>
<text font-family="DejaVu Sans" font-size="13.89" fill="#000000" fill-opacity="1.00" text-anchor="end" dominant-baseline="central" transform="translate(468.51,190.82) scale(1,-1)">1.5</text>
<path d="M 478.24 234.50 L 473.37 234.50 " fill="none" fill-opacity="0.00" stroke="#000000" stroke-opacity="1.00" stroke-width="0.80" stroke-linecap="butt" stroke-linejoin="miter"/>
<text font-family="DejaVu Sans" font-size="13.89" fill="#000000" fill-opacity="1.00" text-anchor="end" dominant-baseline="central" transform="translate(468.51,235.09) scale(1,-1)">2.0</text>
<path d="M 478.24 278.50 L 473.37 278.50 " fill="none" fill-opacity="0.00" stroke="#000000" stroke-opacity="1.00" stroke-width="0.80" stroke-linecap="butt" stroke-linejoin="miter"/>
<text font-family="DejaVu Sans" font-size="13.89" fill="#000000" fill-opacity="1.00" text-anchor="end" dominant-baseline="central" transform="translate(468.51,279.36) scale(1,-1)">2.5</text>
<path d="M 478.24 323.50 L 473.37 323.50 " fill="none" fill-opacity="0.00" stroke="#000000" stroke-opacity="1.00" stroke-width="0.80" stroke-linecap="butt" stroke-linejoin="miter"/>
<text font-family="DejaVu Sans" font-size="13.89" fill="#000000" fill-opacity="1.00" text-anchor="end" dominant-baseline="central" transform="translate(468.51,323.63) scale(1,-1)">3.0</text>
<path d="M 478.50 44.00 L 478.50 352.00 " fill="none" fill-opacity="0.00" stroke="#000000" stroke-opacity="1.00" stroke-width="0.80" stroke-linecap="square" stroke-linejoin="miter"/>
<path d="M 751.50 44.00 L 751.50 352.00 " fill="none" fill-opacity="0.00" stroke="#000000" stroke-opacity="1.00" stroke-width="0.80" stroke-linecap="square" stroke-linejoin="miter"/>
<path d="M 478.24 43.50 L 751.76 43.50 " fill="none" fill-opacity="0.00" stroke="#000000" stroke-opacity="1.00" stroke-width="0.80" stroke-linecap="square" stroke-linejoin="miter"/>
<path d="M 478.24 351.50 L 751.76 351.50 " fill="none" fill-opacity="0.00" stroke="#000000" stroke-opacity="1.00" stroke-width="0.80" stroke-linecap="square" stroke-linejoin="miter"/>
<path d="M 150.00 44.00 L 423.53 44.00 L 423.53 352.00 L 150.00 352.00 L 150.00 44.00 Z " fill="#FFFFFF" fill-opacity="1.00" stroke="none" stroke-opacity="0.00" stroke-width="0.00" stroke-linecap="butt" stroke-linejoin="miter"/>
<path d="M 162.50 44.00 L 162.50 352.00 " fill="none" fill-opacity="0.00" stroke="#B0B0B0" stroke-opacity="1.00" stroke-width="0.80" stroke-linecap="butt" stroke-linejoin="miter" clip-path="url(#clip-25)"/>
<path d="M 212.50 44.00 L 212.50 352.00 " fill="none" fill-opacity="0.00" stroke="#B0B0B0" stroke-opacity="1.00" stroke-width="0.80" stroke-linecap="butt" stroke-linejoin="miter" clip-path="url(#clip-26)"/>
<path d="M 262.50 44.00 L 262.50 352.00 " fill="none" fill-opacity="0.00" stroke="#B0B0B0" stroke-opacity="1.00" stroke-width="0.80" stroke-linecap="butt" stroke-linejoin="miter" clip-path="url(#clip-27)"/>
<path d="M 312.50 44.00 L 312.50 352.00 " fill="none" fill-opacity="0.00" stroke="#B0B0B0" stroke-opacity="1.00" stroke-width="0.80" stroke-linecap="butt" stroke-linejoin="miter" clip-path="url(#clip-28)"/>
<path d="M 361.50 44.00 L 361.50 352.00 " fill="none" fill-opacity="0.00" stroke="#B0B0B0" stroke-opacity="1.00" stroke-width="0.80" stroke-linecap="butt" stroke-linejoin="miter" clip-path="url(#clip-29)"/>
<path d="M 411.50 44.00 L 411.50 352.00 " fill="none" fill-opacity="0.00" stroke="#B0B0B0" stroke-opacity="1.00" stroke-width="0.80" stroke-linecap="butt" stroke-linejoin="miter" clip-path="url(#clip-30)"/>
<path d="M 150.00 57.50 L 423.53 57.50 " fill="none" fill-opacity="0.00" stroke="#B0B0B0" stroke-opacity="1.00" stroke-width="0.80" stroke-linecap="butt" stroke-linejoin="miter" clip-path="url(#clip-31)"/>
<path d="M 150.00 113.50 L 423.53 113.50 " fill="none" fill-opacity="0.00" stroke="#B0B0B0" stroke-opacity="1.00" stroke-width="0.80" stroke-linecap="butt" stroke-linejoin="miter" clip-path="url(#clip-32)"/>
<path d="M 150.00 169.50 L 423.53 169.50 " fill="none" fill-opacity="0.00" stroke="#B0B0B0" stroke-opacity="1.00" stroke-width="0.80" stroke-linecap="butt" stroke-linejoin="miter" clip-path="url(#clip-33)"/>
<path d="M 150.00 225.50 L 423.53 225.50 " fill="none" fill-opacity="0.00" stroke="#B0B0B0" stroke-opacity="1.00" stroke-width="0.80" stroke-linecap="butt" stroke-linejoin="miter" clip-path="url(#clip-34)"/>
<path d="M 150.00 281.50 L 423.53 281.50 " fill="none" fill-opacity="0.00" stroke="#B0B0B0" stroke-opacity="1.00" stroke-width="0.80" stroke-linecap="butt" stroke-linejoin="miter" clip-path="url(#clip-35)"/>
<path d="M 150.00 337.50 L 423.53 337.50 " fill="none" fill-opacity="0.00" stroke="#B0B0B0" stroke-opacity="1.00" stroke-width="0.80" stroke-linecap="butt" stroke-linejoin="miter" clip-path="url(#clip-36)"/>
<path d="M 162.43 58.00 L 187.30 60.80 L 212.17 69.20 L 237.03 83.20 L 261.90 102.80 L 286.76 128.00 L 311.63 158.80 L 336.50 195.20 L 361.36 237.20 L 386.23 284.80 L 411.10 338.00 " fill="none" fill-opacity="0.00" stroke="#4682B4" stroke-opacity="1.00" stroke-width="2.00" stroke-linecap="square" stroke-linejoin="round"/>
<path d="M 162.50 44.00 L 162.50 39.14 " fill="none" fill-opacity="0.00" stroke="#000000" stroke-opacity="1.00" stroke-width="0.80" stroke-linecap="butt" stroke-linejoin="miter"/>
<text font-family="DejaVu Sans" font-size="13.89" fill="#000000" fill-opacity="1.00" text-anchor="middle" dominant-baseline="text-before-edge" transform="translate(162.43,34.28) scale(1,-1)">0</text>
<path d="M 212.50 44.00 L 212.50 39.14 " fill="none" fill-opacity="0.00" stroke="#000000" stroke-opacity="1.00" stroke-width="0.80" stroke-linecap="butt" stroke-linejoin="miter"/>
<text font-family="DejaVu Sans" font-size="13.89" fill="#000000" fill-opacity="1.00" text-anchor="middle" dominant-baseline="text-before-edge" transform="translate(212.17,34.28) scale(1,-1)">2</text>
<path d="M 262.50 44.00 L 262.50 39.14 " fill="none" fill-opacity="0.00" stroke="#000000" stroke-opacity="1.00" stroke-width="0.80" stroke-linecap="butt" stroke-linejoin="miter"/>
<text font-family="DejaVu Sans" font-size="13.89" fill="#000000" fill-opacity="1.00" text-anchor="middle" dominant-baseline="text-before-edge" transform="translate(261.90,34.28) scale(1,-1)">4</text>
<path d="M 312.50 44.00 L 312.50 39.14 " fill="none" fill-opacity="0.00" stroke="#000000" stroke-opacity="1.00" stroke-width="0.80" stroke-linecap="butt" stroke-linejoin="miter"/>
<text font-family="DejaVu Sans" font-size="13.89" fill="#000000" fill-opacity="1.00" text-anchor="middle" dominant-baseline="text-before-edge" transform="translate(311.63,34.28) scale(1,-1)">6</text>
<path d="M 361.50 44.00 L 361.50 39.14 " fill="none" fill-opacity="0.00" stroke="#000000" stroke-opacity="1.00" stroke-width="0.80" stroke-linecap="butt" stroke-linejoin="miter"/>
<text font-family="DejaVu Sans" font-size="13.89" fill="#000000" fill-opacity="1.00" text-anchor="middle" dominant-baseline="text-before-edge" transform="translate(361.36,34.28) scale(1,-1)">8</text>
<path d="M 411.50 44.00 L 411.50 39.14 " fill="none" fill-opacity="0.00" stroke="#000000" stroke-opacity="1.00" stroke-width="0.80" stroke-linecap="butt" stroke-linejoin="miter"/>
<text font-family="DejaVu Sans" font-size="13.89" fill="#000000" fill-opacity="1.00" text-anchor="middle" dominant-baseline="text-before-edge" transform="translate(411.10,34.28) scale(1,-1)">10</text>
<path d="M 150.00 57.50 L 145.14 57.50 " fill="none" fill-opacity="0.00" stroke="#000000" stroke-opacity="1.00" stroke-width="0.80" stroke-linecap="butt" stroke-linejoin="miter"/>
<text font-family="DejaVu Sans" font-size="13.89" fill="#000000" fill-opacity="1.00" text-anchor="end" dominant-baseline="central" transform="translate(140.28,58.00) scale(1,-1)">0</text>
<path d="M 150.00 113.50 L 145.14 113.50 " fill="none" fill-opacity="0.00" stroke="#000000" stroke-opacity="1.00" stroke-width="0.80" stroke-linecap="butt" stroke-linejoin="miter"/>
<text font-family="DejaVu Sans" font-size="13.89" fill="#000000" fill-opacity="1.00" text-anchor="end" dominant-baseline="central" transform="translate(140.28,114.00) scale(1,-1)">20</text>
<path d="M 150.00 169.50 L 145.14 169.50 " fill="none" fill-opacity="0.00" stroke="#000000" stroke-opacity="1.00" stroke-width="0.80" stroke-linecap="butt" stroke-linejoin="miter"/>
<text font-family="DejaVu Sans" font-size="13.89" fill="#000000" fill-opacity="1.00" text-anchor="end" dominant-baseline="central" transform="translate(140.28,170.00) scale(1,-1)">40</text>
<path d="M 150.00 225.50 L 145.14 225.50 " fill="none" fill-opacity="0.00" stroke="#000000" stroke-opacity="1.00" stroke-width="0.80" stroke-linecap="butt" stroke-linejoin="miter"/>
<text font-family="DejaVu Sans" font-size="13.89" fill="#000000" fill-opacity="1.00" text-anchor="end" dominant-baseline="central" transform="translate(140.28,226.00) scale(1,-1)">60</text>
<path d="M 150.00 281.50 L 145.14 281.50 " fill="none" fill-opacity="0.00" stroke="#000000" stroke-opacity="1.00" stroke-width="0.80" stroke-linecap="butt" stroke-linejoin="miter"/>
<text font-family="DejaVu Sans" font-size="13.89" fill="#000000" fill-opacity="1.00" text-anchor="end" dominant-baseline="central" transform="translate(140.28,282.00) scale(1,-1)">80</text>
<path d="M 150.00 337.50 L 145.14 337.50 " fill="none" fill-opacity="0.00" stroke="#000000" stroke-opacity="1.00" stroke-width="0.80" stroke-linecap="butt" stroke-linejoin="miter"/>
<text font-family="DejaVu Sans" font-size="13.89" fill="#000000" fill-opacity="1.00" text-anchor="end" dominant-baseline="central" transform="translate(140.28,338.00) scale(1,-1)">100</text>
<path d="M 150.50 44.00 L 150.50 352.00 " fill="none" fill-opacity="0.00" stroke="#000000" stroke-opacity="1.00" stroke-width="0.80" stroke-linecap="square" stroke-linejoin="miter"/>
<path d="M 423.50 44.00 L 423.50 352.00 " fill="none" fill-opacity="0.00" stroke="#000000" stroke-opacity="1.00" stroke-width="0.80" stroke-linecap="square" stroke-linejoin="miter"/>
<path d="M 150.00 43.50 L 423.53 43.50 " fill="none" fill-opacity="0.00" stroke="#000000" stroke-opacity="1.00" stroke-width="0.80" stroke-linecap="square" stroke-linejoin="miter"/>
<path d="M 150.00 351.50 L 423.53 351.50 " fill="none" fill-opacity="0.00" stroke="#000000" stroke-opacity="1.00" stroke-width="0.80" stroke-linecap="square" stroke-linejoin="miter"/>
</g>
</svg>
