<?xml version="1.0" encoding="UTF-8"?>
<svg xmlns="http://www.w3.org/2000/svg"
     xmlns:xlink="http://www.w3.org/1999/xlink"
     width="1000" height="600" viewBox="0 0 1000 600">
<defs>
<clipPath id="clip-1">
<rect x="125.00" y="66.00" width="775.00" height="462.00"/>
</clipPath>
<clipPath id="clip-2">
<rect x="125.00" y="66.00" width="775.00" height="462.00"/>
</clipPath>
<clipPath id="clip-3">
<rect x="125.00" y="66.00" width="775.00" height="462.00"/>
</clipPath>
<clipPath id="clip-4">
<rect x="125.00" y="66.00" width="775.00" height="462.00"/>
</clipPath>
<clipPath id="clip-5">
<rect x="125.00" y="66.00" width="775.00" height="462.00"/>
</clipPath>
<clipPath id="clip-6">
<rect x="125.00" y="66.00" width="775.00" height="462.00"/>
</clipPath>
<clipPath id="clip-7">
<rect x="125.00" y="66.00" width="775.00" height="462.00"/>
</clipPath>
</defs>
<g transform="translate(0,600) scale(1,-1)">
<rect width="1000" height="600" fill="white"/>
<path d="M 0.00 0.00 L 1000.00 0.00 L 1000.00 600.00 L 0.00 600.00 L 0.00 0.00 Z " fill="#FFFFFF" fill-opacity="1.00" stroke="#000000" stroke-opacity="1.00" stroke-width="0.00" stroke-linecap="butt" stroke-linejoin="miter"/>
<path d="M 125.00 66.00 L 900.00 66.00 L 900.00 528.00 L 125.00 528.00 L 125.00 66.00 Z " fill="#FFFFFF" fill-opacity="1.00" stroke="none" stroke-opacity="0.00" stroke-width="0.00" stroke-linecap="butt" stroke-linejoin="miter"/>
<path d="M 838.68 66.00 L 864.77 66.00 L 864.77 359.33 L 838.68 359.33 L 838.68 66.00 Z " fill="#2E8B57" fill-opacity="1.00" stroke="#000000" stroke-opacity="1.00" stroke-width="0.50" stroke-linecap="butt" stroke-linejoin="miter"/>
<path d="M 734.30 66.00 L 760.40 66.00 L 760.40 432.67 L 734.30 432.67 L 734.30 66.00 Z " fill="#2E8B57" fill-opacity="1.00" stroke="#000000" stroke-opacity="1.00" stroke-width="0.50" stroke-linecap="butt" stroke-linejoin="miter"/>
<path d="M 629.92 66.00 L 656.02 66.00 L 656.02 432.67 L 629.92 432.67 L 629.92 66.00 Z " fill="#2E8B57" fill-opacity="1.00" stroke="#000000" stroke-opacity="1.00" stroke-width="0.50" stroke-linecap="butt" stroke-linejoin="miter"/>
<path d="M 525.55 66.00 L 551.64 66.00 L 551.64 286.00 L 525.55 286.00 L 525.55 66.00 Z " fill="#2E8B57" fill-opacity="1.00" stroke="#000000" stroke-opacity="1.00" stroke-width="0.50" stroke-linecap="butt" stroke-linejoin="miter"/>
<path d="M 421.17 66.00 L 447.26 66.00 L 447.26 212.67 L 421.17 212.67 L 421.17 66.00 Z " fill="#2E8B57" fill-opacity="1.00" stroke="#000000" stroke-opacity="1.00" stroke-width="0.50" stroke-linecap="butt" stroke-linejoin="miter"/>
<path d="M 316.79 66.00 L 342.89 66.00 L 342.89 139.33 L 316.79 139.33 L 316.79 66.00 Z " fill="#2E8B57" fill-opacity="1.00" stroke="#000000" stroke-opacity="1.00" stroke-width="0.50" stroke-linecap="butt" stroke-linejoin="miter"/>
<path d="M 212.42 66.00 L 238.51 66.00 L 238.51 66.00 L 212.42 66.00 L 212.42 66.00 Z " fill="#2E8B57" fill-opacity="1.00" stroke="#000000" stroke-opacity="1.00" stroke-width="0.50" stroke-linecap="butt" stroke-linejoin="miter"/>
<path d="M 812.58 66.00 L 838.68 66.00 L 838.68 212.67 L 812.58 212.67 L 812.58 66.00 Z " fill="#FF6347" fill-opacity="1.00" stroke="#000000" stroke-opacity="1.00" stroke-width="0.50" stroke-linecap="butt" stroke-linejoin="miter"/>
<path d="M 708.21 66.00 L 734.30 66.00 L 734.30 286.00 L 708.21 286.00 L 708.21 66.00 Z " fill="#FF6347" fill-opacity="1.00" stroke="#000000" stroke-opacity="1.00" stroke-width="0.50" stroke-linecap="butt" stroke-linejoin="miter"/>
<path d="M 603.83 66.00 L 629.92 66.00 L 629.92 506.00 L 603.83 506.00 L 603.83 66.00 Z " fill="#FF6347" fill-opacity="1.00" stroke="#000000" stroke-opacity="1.00" stroke-width="0.50" stroke-linecap="butt" stroke-linejoin="miter"/>
<path d="M 499.45 66.00 L 525.55 66.00 L 525.55 432.67 L 499.45 432.67 L 499.45 66.00 Z " fill="#FF6347" fill-opacity="1.00" stroke="#000000" stroke-opacity="1.00" stroke-width="0.50" stroke-linecap="butt" stroke-linejoin="miter"/>
<path d="M 395.08 66.00 L 421.17 66.00 L 421.17 359.33 L 395.08 359.33 L 395.08 66.00 Z " fill="#FF6347" fill-opacity="1.00" stroke="#000000" stroke-opacity="1.00" stroke-width="0.50" stroke-linecap="butt" stroke-linejoin="miter"/>
<path d="M 290.70 66.00 L 316.79 66.00 L 316.79 212.67 L 290.70 212.67 L 290.70 66.00 Z " fill="#FF6347" fill-opacity="1.00" stroke="#000000" stroke-opacity="1.00" stroke-width="0.50" stroke-linecap="butt" stroke-linejoin="miter"/>
<path d="M 186.32 66.00 L 212.42 66.00 L 212.42 139.33 L 186.32 139.33 L 186.32 66.00 Z " fill="#FF6347" fill-opacity="1.00" stroke="#000000" stroke-opacity="1.00" stroke-width="0.50" stroke-linecap="butt" stroke-linejoin="miter"/>
<path d="M 786.49 66.00 L 812.58 66.00 L 812.58 139.33 L 786.49 139.33 L 786.49 66.00 Z " fill="#4682B4" fill-opacity="1.00" stroke="#000000" stroke-opacity="1.00" stroke-width="0.50" stroke-linecap="butt" stroke-linejoin="miter"/>
<path d="M 682.11 66.00 L 708.21 66.00 L 708.21 212.67 L 682.11 212.67 L 682.11 66.00 Z " fill="#4682B4" fill-opacity="1.00" stroke="#000000" stroke-opacity="1.00" stroke-width="0.50" stroke-linecap="butt" stroke-linejoin="miter"/>
<path d="M 577.74 66.00 L 603.83 66.00 L 603.83 286.00 L 577.74 286.00 L 577.74 66.00 Z " fill="#4682B4" fill-opacity="1.00" stroke="#000000" stroke-opacity="1.00" stroke-width="0.50" stroke-linecap="butt" stroke-linejoin="miter"/>
<path d="M 473.36 66.00 L 499.45 66.00 L 499.45 506.00 L 473.36 506.00 L 473.36 66.00 Z " fill="#4682B4" fill-opacity="1.00" stroke="#000000" stroke-opacity="1.00" stroke-width="0.50" stroke-linecap="butt" stroke-linejoin="miter"/>
<path d="M 368.98 66.00 L 395.08 66.00 L 395.08 359.33 L 368.98 359.33 L 368.98 66.00 Z " fill="#4682B4" fill-opacity="1.00" stroke="#000000" stroke-opacity="1.00" stroke-width="0.50" stroke-linecap="butt" stroke-linejoin="miter"/>
<path d="M 264.60 66.00 L 290.70 66.00 L 290.70 432.67 L 264.60 432.67 L 264.60 66.00 Z " fill="#4682B4" fill-opacity="1.00" stroke="#000000" stroke-opacity="1.00" stroke-width="0.50" stroke-linecap="butt" stroke-linejoin="miter"/>
<path d="M 160.23 66.00 L 186.32 66.00 L 186.32 286.00 L 160.23 286.00 L 160.23 66.00 Z " fill="#4682B4" fill-opacity="1.00" stroke="#000000" stroke-opacity="1.00" stroke-width="0.50" stroke-linecap="butt" stroke-linejoin="miter"/>
<path d="M 125.50 65.50 L 900.50 65.50 " fill="none" fill-opacity="0.00" stroke="#B0B0B0" stroke-opacity="1.00" stroke-width="0.80" stroke-linecap="butt" stroke-linejoin="miter" clip-path="url(#clip-1)"/>
<path d="M 125.50 138.50 L 900.50 138.50 " fill="none" fill-opacity="0.00" stroke="#B0B0B0" stroke-opacity="1.00" stroke-width="0.80" stroke-linecap="butt" stroke-linejoin="miter" clip-path="url(#clip-2)"/>
<path d="M 125.50 212.50 L 900.50 212.50 " fill="none" fill-opacity="0.00" stroke="#B0B0B0" stroke-opacity="1.00" stroke-width="0.80" stroke-linecap="butt" stroke-linejoin="miter" clip-path="url(#clip-3)"/>
<path d="M 125.50 285.50 L 900.50 285.50 " fill="none" fill-opacity="0.00" stroke="#B0B0B0" stroke-opacity="1.00" stroke-width="0.80" stroke-linecap="butt" stroke-linejoin="miter" clip-path="url(#clip-4)"/>
<path d="M 125.50 358.50 L 900.50 358.50 " fill="none" fill-opacity="0.00" stroke="#B0B0B0" stroke-opacity="1.00" stroke-width="0.80" stroke-linecap="butt" stroke-linejoin="miter" clip-path="url(#clip-5)"/>
<path d="M 125.50 432.50 L 900.50 432.50 " fill="none" fill-opacity="0.00" stroke="#B0B0B0" stroke-opacity="1.00" stroke-width="0.80" stroke-linecap="butt" stroke-linejoin="miter" clip-path="url(#clip-6)"/>
<path d="M 125.50 505.50 L 900.50 505.50 " fill="none" fill-opacity="0.00" stroke="#B0B0B0" stroke-opacity="1.00" stroke-width="0.80" stroke-linecap="butt" stroke-linejoin="miter" clip-path="url(#clip-7)"/>
<text font-family="DejaVu Sans" font-size="16.67" fill="#000000" fill-opacity="1.00" text-anchor="middle" transform="translate(512.50,537.33) scale(1,-1)">Multiple Histogram Groups</text>
<path d="M 768.67 454.39 L 893.06 454.39 L 893.06 521.06 L 768.67 521.06 L 768.67 454.39 Z " fill="#FFFFFF" fill-opacity="0.80" stroke="#CCCCCC" stroke-opacity="1.00" stroke-width="0.80" stroke-linecap="butt" stroke-linejoin="miter"/>
<path d="M 774.22 503.69 L 802.00 503.69 L 802.00 513.42 L 774.22 513.42 L 774.22 503.69 Z " fill="#4682B4" fill-opacity="1.00" stroke="#000000" stroke-opacity="1.00" stroke-width="0.50" stroke-linecap="butt" stroke-linejoin="miter"/>
<text font-family="DejaVu Sans" font-size="13.89" fill="#000000" fill-opacity="1.00" text-anchor="start" dominant-baseline="central" transform="translate(813.11,508.56) scale(1,-1)">Group A</text>
<path d="M 774.22 482.86 L 802.00 482.86 L 802.00 492.58 L 774.22 492.58 L 774.22 482.86 Z " fill="#FF6347" fill-opacity="1.00" stroke="#000000" stroke-opacity="1.00" stroke-width="0.50" stroke-linecap="butt" stroke-linejoin="miter"/>
<text font-family="DejaVu Sans" font-size="13.89" fill="#000000" fill-opacity="1.00" text-anchor="start" dominant-baseline="central" transform="translate(813.11,487.72) scale(1,-1)">Group B</text>
<path d="M 774.22 462.03 L 802.00 462.03 L 802.00 471.75 L 774.22 471.75 L 774.22 462.03 Z " fill="#2E8B57" fill-opacity="1.00" stroke="#000000" stroke-opacity="1.00" stroke-width="0.50" stroke-linecap="butt" stroke-linejoin="miter"/>
<text font-family="DejaVu Sans" font-size="13.89" fill="#000000" fill-opacity="1.00" text-anchor="start" dominant-baseline="central" transform="translate(813.11,466.89) scale(1,-1)">Group C</text>
<path d="M 199.50 66.50 L 199.50 61.50 " fill="none" fill-opacity="0.00" stroke="#000000" stroke-opacity="1.00" stroke-width="0.80" stroke-linecap="butt" stroke-linejoin="miter"/>
<text font-family="DejaVu Sans" font-size="13.89" fill="#000000" fill-opacity="1.00" text-anchor="middle" dominant-baseline="text-before-edge" transform="translate(199.37,56.28) scale(1,-1)">1</text>
<path d="M 304.50 66.50 L 304.50 61.50 " fill="none" fill-opacity="0.00" stroke="#000000" stroke-opacity="1.00" stroke-width="0.80" stroke-linecap="butt" stroke-linejoin="miter"/>
<text font-family="DejaVu Sans" font-size="13.89" fill="#000000" fill-opacity="1.00" text-anchor="middle" dominant-baseline="text-before-edge" transform="translate(303.75,56.28) scale(1,-1)">2</text>
<path d="M 408.50 66.50 L 408.50 61.50 " fill="none" fill-opacity="0.00" stroke="#000000" stroke-opacity="1.00" stroke-width="0.80" stroke-linecap="butt" stroke-linejoin="miter"/>
<text font-family="DejaVu Sans" font-size="13.89" fill="#000000" fill-opacity="1.00" text-anchor="middle" dominant-baseline="text-before-edge" transform="translate(408.12,56.28) scale(1,-1)">3</text>
<path d="M 512.50 66.50 L 512.50 61.50 " fill="none" fill-opacity="0.00" stroke="#000000" stroke-opacity="1.00" stroke-width="0.80" stroke-linecap="butt" stroke-linejoin="miter"/>
<text font-family="DejaVu Sans" font-size="13.89" fill="#000000" fill-opacity="1.00" text-anchor="middle" dominant-baseline="text-before-edge" transform="translate(512.50,56.28) scale(1,-1)">4</text>
<path d="M 617.50 66.50 L 617.50 61.50 " fill="none" fill-opacity="0.00" stroke="#000000" stroke-opacity="1.00" stroke-width="0.80" stroke-linecap="butt" stroke-linejoin="miter"/>
<text font-family="DejaVu Sans" font-size="13.89" fill="#000000" fill-opacity="1.00" text-anchor="middle" dominant-baseline="text-before-edge" transform="translate(616.88,56.28) scale(1,-1)">5</text>
<path d="M 721.50 66.50 L 721.50 61.50 " fill="none" fill-opacity="0.00" stroke="#000000" stroke-opacity="1.00" stroke-width="0.80" stroke-linecap="butt" stroke-linejoin="miter"/>
<text font-family="DejaVu Sans" font-size="13.89" fill="#000000" fill-opacity="1.00" text-anchor="middle" dominant-baseline="text-before-edge" transform="translate(721.25,56.28) scale(1,-1)">6</text>
<path d="M 826.50 66.50 L 826.50 61.50 " fill="none" fill-opacity="0.00" stroke="#000000" stroke-opacity="1.00" stroke-width="0.80" stroke-linecap="butt" stroke-linejoin="miter"/>
<text font-family="DejaVu Sans" font-size="13.89" fill="#000000" fill-opacity="1.00" text-anchor="middle" dominant-baseline="text-before-edge" transform="translate(825.63,56.28) scale(1,-1)">7</text>
<text font-family="DejaVu Sans" font-size="13.89" fill="#000000" fill-opacity="1.00" text-anchor="middle" dominant-baseline="text-before-edge" transform="translate(512.50,37.17) scale(1,-1)">Bin</text>
<path d="M 125.50 65.50 L 120.50 65.50 " fill="none" fill-opacity="0.00" stroke="#000000" stroke-opacity="1.00" stroke-width="0.80" stroke-linecap="butt" stroke-linejoin="miter"/>
<text font-family="DejaVu Sans" font-size="13.89" fill="#000000" fill-opacity="1.00" text-anchor="end" dominant-baseline="central" transform="translate(115.28,66.00) scale(1,-1)">0</text>
<path d="M 125.50 138.50 L 120.50 138.50 " fill="none" fill-opacity="0.00" stroke="#000000" stroke-opacity="1.00" stroke-width="0.80" stroke-linecap="butt" stroke-linejoin="miter"/>
<text font-family="DejaVu Sans" font-size="13.89" fill="#000000" fill-opacity="1.00" text-anchor="end" dominant-baseline="central" transform="translate(115.28,139.33) scale(1,-1)">1</text>
<path d="M 125.50 212.50 L 120.50 212.50 " fill="none" fill-opacity="0.00" stroke="#000000" stroke-opacity="1.00" stroke-width="0.80" stroke-linecap="butt" stroke-linejoin="miter"/>
<text font-family="DejaVu Sans" font-size="13.89" fill="#000000" fill-opacity="1.00" text-anchor="end" dominant-baseline="central" transform="translate(115.28,212.67) scale(1,-1)">2</text>
<path d="M 125.50 285.50 L 120.50 285.50 " fill="none" fill-opacity="0.00" stroke="#000000" stroke-opacity="1.00" stroke-width="0.80" stroke-linecap="butt" stroke-linejoin="miter"/>
<text font-family="DejaVu Sans" font-size="13.89" fill="#000000" fill-opacity="1.00" text-anchor="end" dominant-baseline="central" transform="translate(115.28,286.00) scale(1,-1)">3</text>
<path d="M 125.50 358.50 L 120.50 358.50 " fill="none" fill-opacity="0.00" stroke="#000000" stroke-opacity="1.00" stroke-width="0.80" stroke-linecap="butt" stroke-linejoin="miter"/>
<text font-family="DejaVu Sans" font-size="13.89" fill="#000000" fill-opacity="1.00" text-anchor="end" dominant-baseline="central" transform="translate(115.28,359.33) scale(1,-1)">4</text>
<path d="M 125.50 432.50 L 120.50 432.50 " fill="none" fill-opacity="0.00" stroke="#000000" stroke-opacity="1.00" stroke-width="0.80" stroke-linecap="butt" stroke-linejoin="miter"/>
<text font-family="DejaVu Sans" font-size="13.89" fill="#000000" fill-opacity="1.00" text-anchor="end" dominant-baseline="central" transform="translate(115.28,432.67) scale(1,-1)">5</text>
<path d="M 125.50 505.50 L 120.50 505.50 " fill="none" fill-opacity="0.00" stroke="#000000" stroke-opacity="1.00" stroke-width="0.80" stroke-linecap="butt" stroke-linejoin="miter"/>
<text font-family="DejaVu Sans" font-size="13.89" fill="#000000" fill-opacity="1.00" text-anchor="end" dominant-baseline="central" transform="translate(115.28,506.00) scale(1,-1)">6</text>
<text font-family="DejaVu Sans" font-size="13.89" fill="#000000" fill-opacity="1.00" text-anchor="middle" transform="translate(94.26,297.00) rotate(90.00) scale(1,-1)">Count</text>
<path d="M 125.50 66.50 L 125.50 528.50 " fill="none" fill-opacity="0.00" stroke="#000000" stroke-opacity="1.00" stroke-width="0.80" stroke-linecap="square" stroke-linejoin="miter"/>
<path d="M 900.50 66.50 L 900.50 528.50 " fill="none" fill-opacity="0.00" stroke="#000000" stroke-opacity="1.00" stroke-width="0.80" stroke-linecap="square" stroke-linejoin="miter"/>
<path d="M 125.50 65.50 L 900.50 65.50 " fill="none" fill-opacity="0.00" stroke="#000000" stroke-opacity="1.00" stroke-width="0.80" stroke-linecap="square" stroke-linejoin="miter"/>
<path d="M 125.50 527.50 L 900.50 527.50 " fill="none" fill-opacity="0.00" stroke="#000000" stroke-opacity="1.00" stroke-width="0.80" stroke-linecap="square" stroke-linejoin="miter"/>
<path d="M 768.67 454.39 L 893.06 454.39 L 893.06 521.06 L 768.67 521.06 L 768.67 454.39 Z " fill="#FFFFFF" fill-opacity="0.80" stroke="#CCCCCC" stroke-opacity="1.00" stroke-width="0.80" stroke-linecap="butt" stroke-linejoin="miter"/>
<path d="M 774.22 503.69 L 802.00 503.69 L 802.00 513.42 L 774.22 513.42 L 774.22 503.69 Z " fill="#4682B4" fill-opacity="1.00" stroke="#000000" stroke-opacity="1.00" stroke-width="0.50" stroke-linecap="butt" stroke-linejoin="miter"/>
<text font-family="DejaVu Sans" font-size="13.89" fill="#000000" fill-opacity="1.00" text-anchor="start" dominant-baseline="central" transform="translate(813.11,508.56) scale(1,-1)">Group A</text>
<path d="M 774.22 482.86 L 802.00 482.86 L 802.00 492.58 L 774.22 492.58 L 774.22 482.86 Z " fill="#FF6347" fill-opacity="1.00" stroke="#000000" stroke-opacity="1.00" stroke-width="0.50" stroke-linecap="butt" stroke-linejoin="miter"/>
<text font-family="DejaVu Sans" font-size="13.89" fill="#000000" fill-opacity="1.00" text-anchor="start" dominant-baseline="central" transform="translate(813.11,487.72) scale(1,-1)">Group B</text>
<path d="M 774.22 462.03 L 802.00 462.03 L 802.00 471.75 L 774.22 471.75 L 774.22 462.03 Z " fill="#2E8B57" fill-opacity="1.00" stroke="#000000" stroke-opacity="1.00" stroke-width="0.50" stroke-linecap="butt" stroke-linejoin="miter"/>
<text font-family="DejaVu Sans" font-size="13.89" fill="#000000" fill-opacity="1.00" text-anchor="start" dominant-baseline="central" transform="translate(813.11,466.89) scale(1,-1)">Group C</text>
</g>
</svg>
