<?xml version="1.0" encoding="UTF-8"?>
<svg xmlns="http://www.w3.org/2000/svg"
     xmlns:xlink="http://www.w3.org/1999/xlink"
     width="600" height="700" viewBox="0 0 600 700">
<defs>
</defs>
<g transform="translate(0,700) scale(1,-1)">
<rect width="600" height="700" fill="white"/>
<path d="M 0.00 0.00 L 600.00 0.00 L 600.00 700.00 L 0.00 700.00 L 0.00 0.00 Z " fill="#FFFFFF" fill-opacity="1.00" stroke="#000000" stroke-opacity="1.00" stroke-width="0.00" stroke-linecap="butt" stroke-linejoin="miter"/>
<path d="M 75.00 77.00 L 540.00 77.00 L 540.00 616.00 L 75.00 616.00 L 75.00 77.00 Z " fill="#FFFFFF" fill-opacity="1.00" stroke="none" stroke-opacity="0.00" stroke-width="0.00" stroke-linecap="butt" stroke-linejoin="miter"/>
<path d="M 518.86 586.12 C 520.29 586.12 521.66 586.69 522.67 587.70 C 523.68 588.71 524.24 590.07 524.24 591.50 C 524.24 592.93 523.68 594.29 522.67 595.30 C 521.66 596.31 520.29 596.88 518.86 596.88 C 517.44 596.88 516.07 596.31 515.06 595.30 C 514.05 594.29 513.48 592.93 513.48 591.50 C 513.48 590.07 514.05 588.71 515.06 587.70 C 516.07 586.69 517.44 586.12 518.86 586.12 Z " fill="#4682B4" fill-opacity="1.00" stroke="none" stroke-opacity="0.00" stroke-width="0.00" stroke-linecap="butt" stroke-linejoin="round"/>
<path d="M 466.02 537.12 C 467.45 537.12 468.82 537.69 469.83 538.70 C 470.84 539.71 471.40 541.07 471.40 542.50 C 471.40 543.93 470.84 545.29 469.83 546.30 C 468.82 547.31 467.45 547.88 466.02 547.88 C 464.60 547.88 463.23 547.31 462.22 546.30 C 461.21 545.29 460.64 543.93 460.64 542.50 C 460.64 541.07 461.21 539.71 462.22 538.70 C 463.23 537.69 464.60 537.12 466.02 537.12 Z " fill="#4682B4" fill-opacity="1.00" stroke="none" stroke-opacity="0.00" stroke-width="0.00" stroke-linecap="butt" stroke-linejoin="round"/>
<path d="M 386.76 488.12 C 388.19 488.12 389.56 488.69 390.56 489.70 C 391.57 490.71 392.14 492.07 392.14 493.50 C 392.14 494.93 391.57 496.29 390.56 497.30 C 389.56 498.31 388.19 498.88 386.76 498.88 C 385.33 498.88 383.97 498.31 382.96 497.30 C 381.95 496.29 381.38 494.93 381.38 493.50 C 381.38 492.07 381.95 490.71 382.96 489.70 C 383.97 488.69 385.33 488.12 386.76 488.12 Z " fill="#4682B4" fill-opacity="1.00" stroke="none" stroke-opacity="0.00" stroke-width="0.00" stroke-linecap="butt" stroke-linejoin="round"/>
<path d="M 307.50 439.12 C 308.93 439.12 310.29 439.69 311.30 440.70 C 312.31 441.71 312.88 443.07 312.88 444.50 C 312.88 445.93 312.31 447.29 311.30 448.30 C 310.29 449.31 308.93 449.88 307.50 449.88 C 306.07 449.88 304.71 449.31 303.70 448.30 C 302.69 447.29 302.12 445.93 302.12 444.50 C 302.12 443.07 302.69 441.71 303.70 440.70 C 304.71 439.69 306.07 439.12 307.50 439.12 Z " fill="#4682B4" fill-opacity="1.00" stroke="none" stroke-opacity="0.00" stroke-width="0.00" stroke-linecap="butt" stroke-linejoin="round"/>
<path d="M 254.66 390.12 C 256.09 390.12 257.45 390.69 258.46 391.70 C 259.47 392.71 260.04 394.07 260.04 395.50 C 260.04 396.93 259.47 398.29 258.46 399.30 C 257.45 400.31 256.09 400.88 254.66 400.88 C 253.23 400.88 251.86 400.31 250.86 399.30 C 249.85 398.29 249.28 396.93 249.28 395.50 C 249.28 394.07 249.85 392.71 250.86 391.70 C 251.86 390.69 253.23 390.12 254.66 390.12 Z " fill="#4682B4" fill-opacity="1.00" stroke="none" stroke-opacity="0.00" stroke-width="0.00" stroke-linecap="butt" stroke-linejoin="round"/>
<path d="M 228.24 341.12 C 229.67 341.12 231.03 341.69 232.04 342.70 C 233.05 343.71 233.62 345.07 233.62 346.50 C 233.62 347.93 233.05 349.29 232.04 350.30 C 231.03 351.31 229.67 351.88 228.24 351.88 C 226.81 351.88 225.44 351.31 224.44 350.30 C 223.43 349.29 222.86 347.93 222.86 346.50 C 222.86 345.07 223.43 343.71 224.44 342.70 C 225.44 341.69 226.81 341.12 228.24 341.12 Z " fill="#4682B4" fill-opacity="1.00" stroke="none" stroke-opacity="0.00" stroke-width="0.00" stroke-linecap="butt" stroke-linejoin="round"/>
<path d="M 201.82 292.12 C 203.24 292.12 204.61 292.69 205.62 293.70 C 206.63 294.71 207.20 296.07 207.20 297.50 C 207.20 298.93 206.63 300.29 205.62 301.30 C 204.61 302.31 203.24 302.88 201.82 302.88 C 200.39 302.88 199.02 302.31 198.01 301.30 C 197.01 300.29 196.44 298.93 196.44 297.50 C 196.44 296.07 197.01 294.71 198.01 293.70 C 199.02 292.69 200.39 292.12 201.82 292.12 Z " fill="#4682B4" fill-opacity="1.00" stroke="none" stroke-opacity="0.00" stroke-width="0.00" stroke-linecap="butt" stroke-linejoin="round"/>
<path d="M 175.40 243.12 C 176.82 243.12 178.19 243.69 179.20 244.70 C 180.21 245.71 180.78 247.07 180.78 248.50 C 180.78 249.93 180.21 251.29 179.20 252.30 C 178.19 253.31 176.82 253.88 175.40 253.88 C 173.97 253.88 172.60 253.31 171.59 252.30 C 170.59 251.29 170.02 249.93 170.02 248.50 C 170.02 247.07 170.59 245.71 171.59 244.70 C 172.60 243.69 173.97 243.12 175.40 243.12 Z " fill="#4682B4" fill-opacity="1.00" stroke="none" stroke-opacity="0.00" stroke-width="0.00" stroke-linecap="butt" stroke-linejoin="round"/>
<path d="M 148.98 194.12 C 150.40 194.12 151.77 194.69 152.78 195.70 C 153.79 196.71 154.36 198.07 154.36 199.50 C 154.36 200.93 153.79 202.29 152.78 203.30 C 151.77 204.31 150.40 204.88 148.98 204.88 C 147.55 204.88 146.18 204.31 145.17 203.30 C 144.16 202.29 143.60 200.93 143.60 199.50 C 143.60 198.07 144.16 196.71 145.17 195.70 C 146.18 194.69 147.55 194.12 148.98 194.12 Z " fill="#4682B4" fill-opacity="1.00" stroke="none" stroke-opacity="0.00" stroke-width="0.00" stroke-linecap="butt" stroke-linejoin="round"/>
<path d="M 122.56 145.12 C 123.98 145.12 125.35 145.69 126.36 146.70 C 127.37 147.71 127.94 149.07 127.94 150.50 C 127.94 151.93 127.37 153.29 126.36 154.30 C 125.35 155.31 123.98 155.88 122.56 155.88 C 121.13 155.88 119.76 155.31 118.75 154.30 C 117.74 153.29 117.18 151.93 117.18 150.50 C 117.18 149.07 117.74 147.71 118.75 146.70 C 119.76 145.69 121.13 145.12 122.56 145.12 Z " fill="#4682B4" fill-opacity="1.00" stroke="none" stroke-opacity="0.00" stroke-width="0.00" stroke-linecap="butt" stroke-linejoin="round"/>
<path d="M 96.14 96.12 C 97.56 96.12 98.93 96.69 99.94 97.70 C 100.95 98.71 101.52 100.07 101.52 101.50 C 101.52 102.93 100.95 104.29 99.94 105.30 C 98.93 106.31 97.56 106.88 96.14 106.88 C 94.71 106.88 93.34 106.31 92.33 105.30 C 91.32 104.29 90.76 102.93 90.76 101.50 C 90.76 100.07 91.32 98.71 92.33 97.70 C 93.34 96.69 94.71 96.12 96.14 96.12 Z " fill="#4682B4" fill-opacity="1.00" stroke="none" stroke-opacity="0.00" stroke-width="0.00" stroke-linecap="butt" stroke-linejoin="round"/>
<path d="M 518.86 591.50 L 466.02 542.50 L 386.76 493.50 L 307.50 444.50 L 254.66 395.50 L 228.24 346.50 L 201.82 297.50 L 175.40 248.50 L 148.98 199.50 L 122.56 150.50 L 96.14 101.50 " fill="none" fill-opacity="0.00" stroke="#4682B4" stroke-opacity="1.00" stroke-width="1.50" stroke-linecap="square" stroke-linejoin="round"/>
<text font-family="DejaVu Sans" font-size="16.67" fill="#000000" fill-opacity="1.00" text-anchor="middle" transform="translate(307.50,625.33) scale(1,-1)">Ocean Depth Profile</text>
<path d="M 123.50 77.50 L 123.50 72.50 " fill="none" fill-opacity="0.00" stroke="#000000" stroke-opacity="1.00" stroke-width="0.80" stroke-linecap="butt" stroke-linejoin="miter"/>
<text font-family="DejaVu Sans" font-size="13.89" fill="#000000" fill-opacity="1.00" text-anchor="middle" dominant-baseline="text-before-edge" transform="translate(122.56,67.28) scale(1,-1)">10</text>
<path d="M 175.50 77.50 L 175.50 72.50 " fill="none" fill-opacity="0.00" stroke="#000000" stroke-opacity="1.00" stroke-width="0.80" stroke-linecap="butt" stroke-linejoin="miter"/>
<text font-family="DejaVu Sans" font-size="13.89" fill="#000000" fill-opacity="1.00" text-anchor="middle" dominant-baseline="text-before-edge" transform="translate(175.40,67.28) scale(1,-1)">12</text>
<path d="M 228.50 77.50 L 228.50 72.50 " fill="none" fill-opacity="0.00" stroke="#000000" stroke-opacity="1.00" stroke-width="0.80" stroke-linecap="butt" stroke-linejoin="miter"/>
<text font-family="DejaVu Sans" font-size="13.89" fill="#000000" fill-opacity="1.00" text-anchor="middle" dominant-baseline="text-before-edge" transform="translate(228.24,67.28) scale(1,-1)">14</text>
<path d="M 281.50 77.50 L 281.50 72.50 " fill="none" fill-opacity="0.00" stroke="#000000" stroke-opacity="1.00" stroke-width="0.80" stroke-linecap="butt" stroke-linejoin="miter"/>
<text font-family="DejaVu Sans" font-size="13.89" fill="#000000" fill-opacity="1.00" text-anchor="middle" dominant-baseline="text-before-edge" transform="translate(281.08,67.28) scale(1,-1)">16</text>
<path d="M 334.50 77.50 L 334.50 72.50 " fill="none" fill-opacity="0.00" stroke="#000000" stroke-opacity="1.00" stroke-width="0.80" stroke-linecap="butt" stroke-linejoin="miter"/>
<text font-family="DejaVu Sans" font-size="13.89" fill="#000000" fill-opacity="1.00" text-anchor="middle" dominant-baseline="text-before-edge" transform="translate(333.92,67.28) scale(1,-1)">18</text>
<path d="M 387.50 77.50 L 387.50 72.50 " fill="none" fill-opacity="0.00" stroke="#000000" stroke-opacity="1.00" stroke-width="0.80" stroke-linecap="butt" stroke-linejoin="miter"/>
<text font-family="DejaVu Sans" font-size="13.89" fill="#000000" fill-opacity="1.00" text-anchor="middle" dominant-baseline="text-before-edge" transform="translate(386.76,67.28) scale(1,-1)">20</text>
<path d="M 440.50 77.50 L 440.50 72.50 " fill="none" fill-opacity="0.00" stroke="#000000" stroke-opacity="1.00" stroke-width="0.80" stroke-linecap="butt" stroke-linejoin="miter"/>
<text font-family="DejaVu Sans" font-size="13.89" fill="#000000" fill-opacity="1.00" text-anchor="middle" dominant-baseline="text-before-edge" transform="translate(439.60,67.28) scale(1,-1)">22</text>
<path d="M 492.50 77.50 L 492.50 72.50 " fill="none" fill-opacity="0.00" stroke="#000000" stroke-opacity="1.00" stroke-width="0.80" stroke-linecap="butt" stroke-linejoin="miter"/>
<text font-family="DejaVu Sans" font-size="13.89" fill="#000000" fill-opacity="1.00" text-anchor="middle" dominant-baseline="text-before-edge" transform="translate(492.44,67.28) scale(1,-1)">24</text>
<text font-family="DejaVu Sans" font-size="13.89" fill="#000000" fill-opacity="1.00" text-anchor="middle" dominant-baseline="text-before-edge" transform="translate(307.50,48.17) scale(1,-1)">Temperature (C)</text>
<path d="M 75.50 591.50 L 70.50 591.50 " fill="none" fill-opacity="0.00" stroke="#000000" stroke-opacity="1.00" stroke-width="0.80" stroke-linecap="butt" stroke-linejoin="miter"/>
<text font-family="DejaVu Sans" font-size="13.89" fill="#000000" fill-opacity="1.00" text-anchor="end" dominant-baseline="central" transform="translate(65.28,591.50) scale(1,-1)">0</text>
<path d="M 75.50 493.50 L 70.50 493.50 " fill="none" fill-opacity="0.00" stroke="#000000" stroke-opacity="1.00" stroke-width="0.80" stroke-linecap="butt" stroke-linejoin="miter"/>
<text font-family="DejaVu Sans" font-size="13.89" fill="#000000" fill-opacity="1.00" text-anchor="end" dominant-baseline="central" transform="translate(65.28,493.50) scale(1,-1)">20</text>
<path d="M 75.50 395.50 L 70.50 395.50 " fill="none" fill-opacity="0.00" stroke="#000000" stroke-opacity="1.00" stroke-width="0.80" stroke-linecap="butt" stroke-linejoin="miter"/>
<text font-family="DejaVu Sans" font-size="13.89" fill="#000000" fill-opacity="1.00" text-anchor="end" dominant-baseline="central" transform="translate(65.28,395.50) scale(1,-1)">40</text>
<path d="M 75.50 297.50 L 70.50 297.50 " fill="none" fill-opacity="0.00" stroke="#000000" stroke-opacity="1.00" stroke-width="0.80" stroke-linecap="butt" stroke-linejoin="miter"/>
<text font-family="DejaVu Sans" font-size="13.89" fill="#000000" fill-opacity="1.00" text-anchor="end" dominant-baseline="central" transform="translate(65.28,297.50) scale(1,-1)">60</text>
<path d="M 75.50 199.50 L 70.50 199.50 " fill="none" fill-opacity="0.00" stroke="#000000" stroke-opacity="1.00" stroke-width="0.80" stroke-linecap="butt" stroke-linejoin="miter"/>
<text font-family="DejaVu Sans" font-size="13.89" fill="#000000" fill-opacity="1.00" text-anchor="end" dominant-baseline="central" transform="translate(65.28,199.50) scale(1,-1)">80</text>
<path d="M 75.50 101.50 L 70.50 101.50 " fill="none" fill-opacity="0.00" stroke="#000000" stroke-opacity="1.00" stroke-width="0.80" stroke-linecap="butt" stroke-linejoin="miter"/>
<text font-family="DejaVu Sans" font-size="13.89" fill="#000000" fill-opacity="1.00" text-anchor="end" dominant-baseline="central" transform="translate(65.28,101.50) scale(1,-1)">100</text>
<text font-family="DejaVu Sans" font-size="13.89" fill="#000000" fill-opacity="1.00" text-anchor="middle" transform="translate(27.58,346.50) rotate(-90.00) scale(1,-1)">Depth (m)</text>
<path d="M 75.50 77.50 L 75.50 616.50 " fill="none" fill-opacity="0.00" stroke="#000000" stroke-opacity="1.00" stroke-width="0.80" stroke-linecap="square" stroke-linejoin="miter"/>
<path d="M 540.50 77.50 L 540.50 616.50 " fill="none" fill-opacity="0.00" stroke="#000000" stroke-opacity="1.00" stroke-width="0.80" stroke-linecap="square" stroke-linejoin="miter"/>
<path d="M 75.50 76.50 L 540.50 76.50 " fill="none" fill-opacity="0.00" stroke="#000000" stroke-opacity="1.00" stroke-width="0.80" stroke-linecap="square" stroke-linejoin="miter"/>
<path d="M 75.50 615.50 L 540.50 615.50 " fill="none" fill-opacity="0.00" stroke="#000000" stroke-opacity="1.00" stroke-width="0.80" stroke-linecap="square" stroke-linejoin="miter"/>
</g>
</svg>
