<?xml version="1.0" encoding="UTF-8"?>
<svg xmlns="http://www.w3.org/2000/svg"
     xmlns:xlink="http://www.w3.org/1999/xlink"
     width="1000" height="600" viewBox="0 0 1000 600">
<defs>
<clipPath id="clip-1">
<rect x="125.00" y="66.00" width="775.00" height="462.00"/>
</clipPath>
<clipPath id="clip-2">
<rect x="125.00" y="66.00" width="775.00" height="462.00"/>
</clipPath>
<clipPath id="clip-3">
<rect x="125.00" y="66.00" width="775.00" height="462.00"/>
</clipPath>
<clipPath id="clip-4">
<rect x="125.00" y="66.00" width="775.00" height="462.00"/>
</clipPath>
<clipPath id="clip-5">
<rect x="125.00" y="66.00" width="775.00" height="462.00"/>
</clipPath>
<clipPath id="clip-6">
<rect x="125.00" y="66.00" width="775.00" height="462.00"/>
</clipPath>
<clipPath id="clip-7">
<rect x="125.00" y="66.00" width="775.00" height="462.00"/>
</clipPath>
<clipPath id="clip-8">
<rect x="125.00" y="66.00" width="775.00" height="462.00"/>
</clipPath>
<clipPath id="clip-9">
<rect x="125.00" y="66.00" width="775.00" height="462.00"/>
</clipPath>
<clipPath id="clip-10">
<rect x="125.00" y="66.00" width="775.00" height="462.00"/>
</clipPath>
<clipPath id="clip-11">
<rect x="125.00" y="66.00" width="775.00" height="462.00"/>
</clipPath>
<clipPath id="clip-12">
<rect x="125.00" y="66.00" width="775.00" height="462.00"/>
</clipPath>
</defs>
<g transform="translate(0,600) scale(1,-1)">
<rect width="1000" height="600" fill="white"/>
<path d="M 0.00 0.00 L 1000.00 0.00 L 1000.00 600.00 L 0.00 600.00 L 0.00 0.00 Z " fill="#FFFFFF" fill-opacity="1.00" stroke="#000000" stroke-opacity="1.00" stroke-width="0.00" stroke-linecap="butt" stroke-linejoin="miter"/>
<path d="M 125.00 66.00 L 900.00 66.00 L 900.00 528.00 L 125.00 528.00 L 125.00 66.00 Z " fill="#FFFFFF" fill-opacity="1.00" stroke="none" stroke-opacity="0.00" stroke-width="0.00" stroke-linecap="butt" stroke-linejoin="miter"/>
<path d="M 160.50 66.00 L 160.50 528.00 " fill="none" fill-opacity="0.00" stroke="#B0B0B0" stroke-opacity="1.00" stroke-width="0.80" stroke-linecap="butt" stroke-linejoin="miter" clip-path="url(#clip-1)"/>
<path d="M 301.50 66.00 L 301.50 528.00 " fill="none" fill-opacity="0.00" stroke="#B0B0B0" stroke-opacity="1.00" stroke-width="0.80" stroke-linecap="butt" stroke-linejoin="miter" clip-path="url(#clip-2)"/>
<path d="M 442.50 66.00 L 442.50 528.00 " fill="none" fill-opacity="0.00" stroke="#B0B0B0" stroke-opacity="1.00" stroke-width="0.80" stroke-linecap="butt" stroke-linejoin="miter" clip-path="url(#clip-3)"/>
<path d="M 583.50 66.00 L 583.50 528.00 " fill="none" fill-opacity="0.00" stroke="#B0B0B0" stroke-opacity="1.00" stroke-width="0.80" stroke-linecap="butt" stroke-linejoin="miter" clip-path="url(#clip-4)"/>
<path d="M 724.50 66.00 L 724.50 528.00 " fill="none" fill-opacity="0.00" stroke="#B0B0B0" stroke-opacity="1.00" stroke-width="0.80" stroke-linecap="butt" stroke-linejoin="miter" clip-path="url(#clip-5)"/>
<path d="M 865.50 66.00 L 865.50 528.00 " fill="none" fill-opacity="0.00" stroke="#B0B0B0" stroke-opacity="1.00" stroke-width="0.80" stroke-linecap="butt" stroke-linejoin="miter" clip-path="url(#clip-6)"/>
<path d="M 125.00 86.50 L 900.00 86.50 " fill="none" fill-opacity="0.00" stroke="#B0B0B0" stroke-opacity="1.00" stroke-width="0.80" stroke-linecap="butt" stroke-linejoin="miter" clip-path="url(#clip-7)"/>
<path d="M 125.00 170.50 L 900.00 170.50 " fill="none" fill-opacity="0.00" stroke="#B0B0B0" stroke-opacity="1.00" stroke-width="0.80" stroke-linecap="butt" stroke-linejoin="miter" clip-path="url(#clip-8)"/>
<path d="M 125.00 254.50 L 900.00 254.50 " fill="none" fill-opacity="0.00" stroke="#B0B0B0" stroke-opacity="1.00" stroke-width="0.80" stroke-linecap="butt" stroke-linejoin="miter" clip-path="url(#clip-9)"/>
<path d="M 125.00 338.50 L 900.00 338.50 " fill="none" fill-opacity="0.00" stroke="#B0B0B0" stroke-opacity="1.00" stroke-width="0.80" stroke-linecap="butt" stroke-linejoin="miter" clip-path="url(#clip-10)"/>
<path d="M 125.00 422.50 L 900.00 422.50 " fill="none" fill-opacity="0.00" stroke="#B0B0B0" stroke-opacity="1.00" stroke-width="0.80" stroke-linecap="butt" stroke-linejoin="miter" clip-path="url(#clip-11)"/>
<path d="M 125.00 506.50 L 900.00 506.50 " fill="none" fill-opacity="0.00" stroke="#B0B0B0" stroke-opacity="1.00" stroke-width="0.80" stroke-linecap="butt" stroke-linejoin="miter" clip-path="url(#clip-12)"/>
<path d="M 160.23 87.00 L 174.32 129.00 L 188.41 146.40 L 202.50 159.75 L 216.59 171.00 L 230.68 180.91 L 244.77 189.88 L 258.86 198.12 L 272.95 205.79 L 287.05 213.00 L 301.14 219.82 L 315.23 226.30 L 329.32 232.49 L 343.41 238.43 L 357.50 244.15 L 371.59 249.67 L 385.68 255.00 L 399.77 260.17 L 413.86 265.19 L 427.95 270.07 L 442.05 274.83 L 456.14 279.47 L 470.23 284.00 L 484.32 288.42 L 498.41 292.76 L 512.50 297.00 L 526.59 301.16 L 540.68 305.24 L 554.77 309.24 L 568.86 313.18 L 582.95 317.04 L 597.05 320.85 L 611.14 324.59 L 625.23 328.27 L 639.32 331.90 L 653.41 335.48 L 667.50 339.00 L 681.59 342.48 L 695.68 345.91 L 709.77 349.29 L 723.86 352.63 L 737.95 355.93 L 752.05 359.19 L 766.14 362.41 L 780.23 365.60 L 794.32 368.74 L 808.41 371.86 L 822.50 374.94 L 836.59 377.98 L 850.68 381.00 L 864.77 383.98 " fill="none" fill-opacity="0.00" stroke="#228B22" stroke-opacity="1.00" stroke-width="2.00" stroke-linecap="butt" stroke-linejoin="round" stroke-dasharray="2.00 3.30"/>
<path d="M 160.23 87.00 L 174.32 87.17 L 188.41 87.67 L 202.50 88.51 L 216.59 89.69 L 230.68 91.20 L 244.77 93.05 L 258.86 95.23 L 272.95 97.75 L 287.05 100.61 L 301.14 103.80 L 315.23 107.33 L 329.32 111.19 L 343.41 115.39 L 357.50 119.93 L 371.59 124.80 L 385.68 130.01 L 399.77 135.55 L 413.86 141.43 L 427.95 147.65 L 442.05 154.20 L 456.14 161.09 L 470.23 168.31 L 484.32 175.87 L 498.41 183.77 L 512.50 192.00 L 526.59 200.57 L 540.68 209.47 L 554.77 218.71 L 568.86 228.29 L 582.95 238.20 L 597.05 248.45 L 611.14 259.03 L 625.23 269.95 L 639.32 281.21 L 653.41 292.80 L 667.50 304.73 L 681.59 316.99 L 695.68 329.59 L 709.77 342.53 L 723.86 355.80 L 737.95 369.41 L 752.05 383.35 L 766.14 397.63 L 780.23 412.25 L 794.32 427.20 L 808.41 442.49 L 822.50 458.11 L 836.59 474.07 L 850.68 490.37 L 864.77 507.00 " fill="none" fill-opacity="0.00" stroke="#FF6347" stroke-opacity="1.00" stroke-width="2.00" stroke-linecap="butt" stroke-linejoin="round" stroke-dasharray="7.40 3.20"/>
<path d="M 160.23 87.00 L 174.32 95.40 L 188.41 103.80 L 202.50 112.20 L 216.59 120.60 L 230.68 129.00 L 244.77 137.40 L 258.86 145.80 L 272.95 154.20 L 287.05 162.60 L 301.14 171.00 L 315.23 179.40 L 329.32 187.80 L 343.41 196.20 L 357.50 204.60 L 371.59 213.00 L 385.68 221.40 L 399.77 229.80 L 413.86 238.20 L 427.95 246.60 L 442.05 255.00 L 456.14 263.40 L 470.23 271.80 L 484.32 280.20 L 498.41 288.60 L 512.50 297.00 L 526.59 305.40 L 540.68 313.80 L 554.77 322.20 L 568.86 330.60 L 582.95 339.00 L 597.05 347.40 L 611.14 355.80 L 625.23 364.20 L 639.32 372.60 L 653.41 381.00 L 667.50 389.40 L 681.59 397.80 L 695.68 406.20 L 709.77 414.60 L 723.86 423.00 L 737.95 431.40 L 752.05 439.80 L 766.14 448.20 L 780.23 456.60 L 794.32 465.00 L 808.41 473.40 L 822.50 481.80 L 836.59 490.20 L 850.68 498.60 L 864.77 507.00 " fill="none" fill-opacity="0.00" stroke="#4682B4" stroke-opacity="1.00" stroke-width="2.00" stroke-linecap="square" stroke-linejoin="round"/>
<text font-family="DejaVu Sans" font-size="16.67" fill="#000000" fill-opacity="1.00" text-anchor="middle" transform="translate(512.50,537.33) scale(1,-1)">Legend Styles — Multiple Functions</text>
<path d="M 132.64 424.11 L 380.29 424.11 L 380.29 520.36 L 132.64 520.36 L 132.64 424.11 Z " fill="#F0F0F0" fill-opacity="0.80" stroke="#808080" stroke-opacity="1.00" stroke-width="0.80" stroke-linecap="butt" stroke-linejoin="miter"/>
<text font-family="DejaVu Sans" font-size="15.28" fill="#000000" fill-opacity="1.00" text-anchor="start" transform="translate(138.75,502.03) scale(1,-1)">Function Comparison</text>
<path d="M 138.75 483.69 L 169.31 483.69 " fill="none" fill-opacity="0.00" stroke="#4682B4" stroke-opacity="1.00" stroke-width="2.00" stroke-linecap="butt" stroke-linejoin="miter"/>
<text font-family="DejaVu Sans" font-size="15.28" fill="#000000" fill-opacity="1.00" text-anchor="start" dominant-baseline="central" transform="translate(181.53,483.69) scale(1,-1)">Linear: y = 2x</text>
<path d="M 138.75 460.78 L 169.31 460.78 " fill="none" fill-opacity="0.00" stroke="#FF6347" stroke-opacity="1.00" stroke-width="2.00" stroke-linecap="butt" stroke-linejoin="miter" stroke-dasharray="7.40 3.20"/>
<text font-family="DejaVu Sans" font-size="15.28" fill="#000000" fill-opacity="1.00" text-anchor="start" dominant-baseline="central" transform="translate(181.53,460.78) scale(1,-1)">Quadratic: y = 0.04x^2</text>
<path d="M 138.75 437.86 L 169.31 437.86 " fill="none" fill-opacity="0.00" stroke="#228B22" stroke-opacity="1.00" stroke-width="2.00" stroke-linecap="butt" stroke-linejoin="miter" stroke-dasharray="2.00 3.30"/>
<text font-family="DejaVu Sans" font-size="15.28" fill="#000000" fill-opacity="1.00" text-anchor="start" dominant-baseline="central" transform="translate(181.53,437.86) scale(1,-1)">Root: y = 10*sqrt(x)</text>
<path d="M 160.50 66.00 L 160.50 61.14 " fill="none" fill-opacity="0.00" stroke="#000000" stroke-opacity="1.00" stroke-width="0.80" stroke-linecap="butt" stroke-linejoin="miter"/>
<text font-family="DejaVu Sans" font-size="13.89" fill="#000000" fill-opacity="1.00" text-anchor="middle" dominant-baseline="text-before-edge" transform="translate(160.23,56.28) scale(1,-1)">0</text>
<path d="M 301.50 66.00 L 301.50 61.14 " fill="none" fill-opacity="0.00" stroke="#000000" stroke-opacity="1.00" stroke-width="0.80" stroke-linecap="butt" stroke-linejoin="miter"/>
<text font-family="DejaVu Sans" font-size="13.89" fill="#000000" fill-opacity="1.00" text-anchor="middle" dominant-baseline="text-before-edge" transform="translate(301.14,56.28) scale(1,-1)">10</text>
<path d="M 442.50 66.00 L 442.50 61.14 " fill="none" fill-opacity="0.00" stroke="#000000" stroke-opacity="1.00" stroke-width="0.80" stroke-linecap="butt" stroke-linejoin="miter"/>
<text font-family="DejaVu Sans" font-size="13.89" fill="#000000" fill-opacity="1.00" text-anchor="middle" dominant-baseline="text-before-edge" transform="translate(442.05,56.28) scale(1,-1)">20</text>
<path d="M 583.50 66.00 L 583.50 61.14 " fill="none" fill-opacity="0.00" stroke="#000000" stroke-opacity="1.00" stroke-width="0.80" stroke-linecap="butt" stroke-linejoin="miter"/>
<text font-family="DejaVu Sans" font-size="13.89" fill="#000000" fill-opacity="1.00" text-anchor="middle" dominant-baseline="text-before-edge" transform="translate(582.95,56.28) scale(1,-1)">30</text>
<path d="M 724.50 66.00 L 724.50 61.14 " fill="none" fill-opacity="0.00" stroke="#000000" stroke-opacity="1.00" stroke-width="0.80" stroke-linecap="butt" stroke-linejoin="miter"/>
<text font-family="DejaVu Sans" font-size="13.89" fill="#000000" fill-opacity="1.00" text-anchor="middle" dominant-baseline="text-before-edge" transform="translate(723.86,56.28) scale(1,-1)">40</text>
<path d="M 865.50 66.00 L 865.50 61.14 " fill="none" fill-opacity="0.00" stroke="#000000" stroke-opacity="1.00" stroke-width="0.80" stroke-linecap="butt" stroke-linejoin="miter"/>
<text font-family="DejaVu Sans" font-size="13.89" fill="#000000" fill-opacity="1.00" text-anchor="middle" dominant-baseline="text-before-edge" transform="translate(864.77,56.28) scale(1,-1)">50</text>
<text font-family="DejaVu Sans" font-size="13.89" fill="#000000" fill-opacity="1.00" text-anchor="middle" dominant-baseline="text-before-edge" transform="translate(512.50,37.17) scale(1,-1)">x</text>
<path d="M 125.00 86.50 L 120.14 86.50 " fill="none" fill-opacity="0.00" stroke="#000000" stroke-opacity="1.00" stroke-width="0.80" stroke-linecap="butt" stroke-linejoin="miter"/>
<text font-family="DejaVu Sans" font-size="13.89" fill="#000000" fill-opacity="1.00" text-anchor="end" dominant-baseline="central" transform="translate(115.28,87.00) scale(1,-1)">0</text>
<path d="M 125.00 170.50 L 120.14 170.50 " fill="none" fill-opacity="0.00" stroke="#000000" stroke-opacity="1.00" stroke-width="0.80" stroke-linecap="butt" stroke-linejoin="miter"/>
<text font-family="DejaVu Sans" font-size="13.89" fill="#000000" fill-opacity="1.00" text-anchor="end" dominant-baseline="central" transform="translate(115.28,171.00) scale(1,-1)">20</text>
<path d="M 125.00 254.50 L 120.14 254.50 " fill="none" fill-opacity="0.00" stroke="#000000" stroke-opacity="1.00" stroke-width="0.80" stroke-linecap="butt" stroke-linejoin="miter"/>
<text font-family="DejaVu Sans" font-size="13.89" fill="#000000" fill-opacity="1.00" text-anchor="end" dominant-baseline="central" transform="translate(115.28,255.00) scale(1,-1)">40</text>
<path d="M 125.00 338.50 L 120.14 338.50 " fill="none" fill-opacity="0.00" stroke="#000000" stroke-opacity="1.00" stroke-width="0.80" stroke-linecap="butt" stroke-linejoin="miter"/>
<text font-family="DejaVu Sans" font-size="13.89" fill="#000000" fill-opacity="1.00" text-anchor="end" dominant-baseline="central" transform="translate(115.28,339.00) scale(1,-1)">60</text>
<path d="M 125.00 422.50 L 120.14 422.50 " fill="none" fill-opacity="0.00" stroke="#000000" stroke-opacity="1.00" stroke-width="0.80" stroke-linecap="butt" stroke-linejoin="miter"/>
<text font-family="DejaVu Sans" font-size="13.89" fill="#000000" fill-opacity="1.00" text-anchor="end" dominant-baseline="central" transform="translate(115.28,423.00) scale(1,-1)">80</text>
<path d="M 125.00 506.50 L 120.14 506.50 " fill="none" fill-opacity="0.00" stroke="#000000" stroke-opacity="1.00" stroke-width="0.80" stroke-linecap="butt" stroke-linejoin="miter"/>
<text font-family="DejaVu Sans" font-size="13.89" fill="#000000" fill-opacity="1.00" text-anchor="end" dominant-baseline="central" transform="translate(115.28,507.00) scale(1,-1)">100</text>
<text font-family="DejaVu Sans" font-size="13.89" fill="#000000" fill-opacity="1.00" text-anchor="middle" transform="translate(77.58,297.00) rotate(-90.00) scale(1,-1)">y</text>
<path d="M 125.50 66.00 L 125.50 528.00 " fill="none" fill-opacity="0.00" stroke="#000000" stroke-opacity="1.00" stroke-width="0.80" stroke-linecap="square" stroke-linejoin="miter"/>
<path d="M 900.50 66.00 L 900.50 528.00 " fill="none" fill-opacity="0.00" stroke="#000000" stroke-opacity="1.00" stroke-width="0.80" stroke-linecap="square" stroke-linejoin="miter"/>
<path d="M 125.00 65.50 L 900.00 65.50 " fill="none" fill-opacity="0.00" stroke="#000000" stroke-opacity="1.00" stroke-width="0.80" stroke-linecap="square" stroke-linejoin="miter"/>
<path d="M 125.00 527.50 L 900.00 527.50 " fill="none" fill-opacity="0.00" stroke="#000000" stroke-opacity="1.00" stroke-width="0.80" stroke-linecap="square" stroke-linejoin="miter"/>
<path d="M 132.64 424.11 L 380.29 424.11 L 380.29 520.36 L 132.64 520.36 L 132.64 424.11 Z " fill="#F0F0F0" fill-opacity="0.80" stroke="#808080" stroke-opacity="1.00" stroke-width="0.80" stroke-linecap="butt" stroke-linejoin="miter"/>
<text font-family="DejaVu Sans" font-size="15.28" fill="#000000" fill-opacity="1.00" text-anchor="start" transform="translate(138.75,502.03) scale(1,-1)">Function Comparison</text>
<path d="M 138.75 483.69 L 169.31 483.69 " fill="none" fill-opacity="0.00" stroke="#4682B4" stroke-opacity="1.00" stroke-width="2.00" stroke-linecap="butt" stroke-linejoin="miter"/>
<text font-family="DejaVu Sans" font-size="15.28" fill="#000000" fill-opacity="1.00" text-anchor="start" dominant-baseline="central" transform="translate(181.53,483.69) scale(1,-1)">Linear: y = 2x</text>
<path d="M 138.75 460.78 L 169.31 460.78 " fill="none" fill-opacity="0.00" stroke="#FF6347" stroke-opacity="1.00" stroke-width="2.00" stroke-linecap="butt" stroke-linejoin="miter" stroke-dasharray="7.40 3.20"/>
<text font-family="DejaVu Sans" font-size="15.28" fill="#000000" fill-opacity="1.00" text-anchor="start" dominant-baseline="central" transform="translate(181.53,460.78) scale(1,-1)">Quadratic: y = 0.04x^2</text>
<path d="M 138.75 437.86 L 169.31 437.86 " fill="none" fill-opacity="0.00" stroke="#228B22" stroke-opacity="1.00" stroke-width="2.00" stroke-linecap="butt" stroke-linejoin="miter" stroke-dasharray="2.00 3.30"/>
<text font-family="DejaVu Sans" font-size="15.28" fill="#000000" fill-opacity="1.00" text-anchor="start" dominant-baseline="central" transform="translate(181.53,437.86) scale(1,-1)">Root: y = 10*sqrt(x)</text>
</g>
</svg>
