<?xml version="1.0" encoding="UTF-8"?>
<svg xmlns="http://www.w3.org/2000/svg"
     xmlns:xlink="http://www.w3.org/1999/xlink"
     width="800" height="600" viewBox="0 0 800 600">
<defs>
<clipPath id="clip-1">
<rect x="100.00" y="66.00" width="620.00" height="462.00"/>
</clipPath>
<clipPath id="clip-2">
<rect x="100.00" y="66.00" width="620.00" height="462.00"/>
</clipPath>
<clipPath id="clip-3">
<rect x="100.00" y="66.00" width="620.00" height="462.00"/>
</clipPath>
<clipPath id="clip-4">
<rect x="100.00" y="66.00" width="620.00" height="462.00"/>
</clipPath>
<clipPath id="clip-5">
<rect x="100.00" y="66.00" width="620.00" height="462.00"/>
</clipPath>
<clipPath id="clip-6">
<rect x="100.00" y="66.00" width="620.00" height="462.00"/>
</clipPath>
<clipPath id="clip-7">
<rect x="100.00" y="66.00" width="620.00" height="462.00"/>
</clipPath>
<clipPath id="clip-8">
<rect x="100.00" y="66.00" width="620.00" height="462.00"/>
</clipPath>
<clipPath id="clip-9">
<rect x="100.00" y="66.00" width="620.00" height="462.00"/>
</clipPath>
</defs>
<g transform="translate(0,600) scale(1,-1)">
<rect width="800" height="600" fill="white"/>
<path d="M 0.00 0.00 L 800.00 0.00 L 800.00 600.00 L 0.00 600.00 L 0.00 0.00 Z " fill="#FFFFFF" fill-opacity="1.00" stroke="#000000" stroke-opacity="1.00" stroke-width="0.00" stroke-linecap="butt" stroke-linejoin="miter"/>
<path d="M 100.00 66.00 L 720.00 66.00 L 720.00 528.00 L 100.00 528.00 L 100.00 66.00 Z " fill="#FFFFFF" fill-opacity="1.00" stroke="none" stroke-opacity="0.00" stroke-width="0.00" stroke-linecap="butt" stroke-linejoin="miter"/>
<path d="M 128.50 66.50 L 128.50 528.50 " fill="none" fill-opacity="0.00" stroke="#B0B0B0" stroke-opacity="1.00" stroke-width="0.80" stroke-linecap="butt" stroke-linejoin="miter" clip-path="url(#clip-1)"/>
<path d="M 241.50 66.50 L 241.50 528.50 " fill="none" fill-opacity="0.00" stroke="#B0B0B0" stroke-opacity="1.00" stroke-width="0.80" stroke-linecap="butt" stroke-linejoin="miter" clip-path="url(#clip-2)"/>
<path d="M 354.50 66.50 L 354.50 528.50 " fill="none" fill-opacity="0.00" stroke="#B0B0B0" stroke-opacity="1.00" stroke-width="0.80" stroke-linecap="butt" stroke-linejoin="miter" clip-path="url(#clip-3)"/>
<path d="M 466.50 66.50 L 466.50 528.50 " fill="none" fill-opacity="0.00" stroke="#B0B0B0" stroke-opacity="1.00" stroke-width="0.80" stroke-linecap="butt" stroke-linejoin="miter" clip-path="url(#clip-4)"/>
<path d="M 579.50 66.50 L 579.50 528.50 " fill="none" fill-opacity="0.00" stroke="#B0B0B0" stroke-opacity="1.00" stroke-width="0.80" stroke-linecap="butt" stroke-linejoin="miter" clip-path="url(#clip-5)"/>
<path d="M 692.50 66.50 L 692.50 528.50 " fill="none" fill-opacity="0.00" stroke="#B0B0B0" stroke-opacity="1.00" stroke-width="0.80" stroke-linecap="butt" stroke-linejoin="miter" clip-path="url(#clip-6)"/>
<path d="M 100.50 86.50 L 720.50 86.50 " fill="none" fill-opacity="0.00" stroke="#B0B0B0" stroke-opacity="1.00" stroke-width="0.80" stroke-linecap="butt" stroke-linejoin="miter" clip-path="url(#clip-7)"/>
<path d="M 100.50 279.50 L 720.50 279.50 " fill="none" fill-opacity="0.00" stroke="#B0B0B0" stroke-opacity="1.00" stroke-width="0.80" stroke-linecap="butt" stroke-linejoin="miter" clip-path="url(#clip-8)"/>
<path d="M 100.50 473.50 L 720.50 473.50 " fill="none" fill-opacity="0.00" stroke="#B0B0B0" stroke-opacity="1.00" stroke-width="0.80" stroke-linecap="butt" stroke-linejoin="miter" clip-path="url(#clip-9)"/>
<path d="M 128.18 87.00 L 139.45 95.40 L 150.73 103.80 L 162.00 112.20 L 173.27 120.60 L 184.55 129.00 L 195.82 137.40 L 207.09 145.80 L 218.36 154.20 L 229.64 162.60 L 240.91 171.00 L 252.18 179.40 L 263.45 187.80 L 274.73 196.20 L 286.00 204.60 L 297.27 213.00 L 308.55 221.40 L 319.82 229.80 L 331.09 238.20 L 342.36 246.60 L 353.64 255.00 L 364.91 263.40 L 376.18 271.80 L 387.45 280.20 L 398.73 288.60 L 410.00 297.00 L 421.27 305.40 L 432.55 313.80 L 443.82 322.20 L 455.09 330.60 L 466.36 339.00 L 477.64 347.40 L 488.91 355.80 L 500.18 364.20 L 511.45 372.60 L 522.73 381.00 L 534.00 389.40 L 545.27 397.80 L 556.55 406.20 L 567.82 414.60 L 579.09 423.00 L 590.36 431.40 L 601.64 439.80 L 612.91 448.20 L 624.18 456.60 L 635.45 465.00 L 646.73 473.40 L 658.00 481.80 L 669.27 490.20 L 680.55 498.60 L 691.82 507.00 " fill="none" fill-opacity="0.00" stroke="#4682B4" stroke-opacity="1.00" stroke-width="2.00" stroke-linecap="square" stroke-linejoin="round"/>
<text font-family="DejaVu Sans" font-size="16.67" fill="#000000" fill-opacity="1.00" text-anchor="middle" transform="translate(410.00,537.33) scale(1,-1)">Logarithmic Scale Demo</text>
<path d="M 106.94 496.06 L 235.09 496.06 L 235.09 521.06 L 106.94 521.06 L 106.94 496.06 Z " fill="#FFFFFF" fill-opacity="0.80" stroke="#CCCCCC" stroke-opacity="1.00" stroke-width="0.80" stroke-linecap="butt" stroke-linejoin="miter"/>
<path d="M 112.50 509.50 L 140.50 509.50 " fill="none" fill-opacity="0.00" stroke="#4682B4" stroke-opacity="1.00" stroke-width="2.00" stroke-linecap="butt" stroke-linejoin="miter"/>
<text font-family="DejaVu Sans" font-size="13.89" fill="#000000" fill-opacity="1.00" text-anchor="start" dominant-baseline="central" transform="translate(151.39,508.56) scale(1,-1)">y = exp(x)</text>
<path d="M 128.50 66.50 L 128.50 61.50 " fill="none" fill-opacity="0.00" stroke="#000000" stroke-opacity="1.00" stroke-width="0.80" stroke-linecap="butt" stroke-linejoin="miter"/>
<text font-family="DejaVu Sans" font-size="13.89" fill="#000000" fill-opacity="1.00" text-anchor="middle" dominant-baseline="text-before-edge" transform="translate(128.18,56.28) scale(1,-1)">0</text>
<path d="M 241.50 66.50 L 241.50 61.50 " fill="none" fill-opacity="0.00" stroke="#000000" stroke-opacity="1.00" stroke-width="0.80" stroke-linecap="butt" stroke-linejoin="miter"/>
<text font-family="DejaVu Sans" font-size="13.89" fill="#000000" fill-opacity="1.00" text-anchor="middle" dominant-baseline="text-before-edge" transform="translate(240.91,56.28) scale(1,-1)">1</text>
<path d="M 354.50 66.50 L 354.50 61.50 " fill="none" fill-opacity="0.00" stroke="#000000" stroke-opacity="1.00" stroke-width="0.80" stroke-linecap="butt" stroke-linejoin="miter"/>
<text font-family="DejaVu Sans" font-size="13.89" fill="#000000" fill-opacity="1.00" text-anchor="middle" dominant-baseline="text-before-edge" transform="translate(353.64,56.28) scale(1,-1)">2</text>
<path d="M 466.50 66.50 L 466.50 61.50 " fill="none" fill-opacity="0.00" stroke="#000000" stroke-opacity="1.00" stroke-width="0.80" stroke-linecap="butt" stroke-linejoin="miter"/>
<text font-family="DejaVu Sans" font-size="13.89" fill="#000000" fill-opacity="1.00" text-anchor="middle" dominant-baseline="text-before-edge" transform="translate(466.36,56.28) scale(1,-1)">3</text>
<path d="M 579.50 66.50 L 579.50 61.50 " fill="none" fill-opacity="0.00" stroke="#000000" stroke-opacity="1.00" stroke-width="0.80" stroke-linecap="butt" stroke-linejoin="miter"/>
<text font-family="DejaVu Sans" font-size="13.89" fill="#000000" fill-opacity="1.00" text-anchor="middle" dominant-baseline="text-before-edge" transform="translate(579.09,56.28) scale(1,-1)">4</text>
<path d="M 692.50 66.50 L 692.50 61.50 " fill="none" fill-opacity="0.00" stroke="#000000" stroke-opacity="1.00" stroke-width="0.80" stroke-linecap="butt" stroke-linejoin="miter"/>
<text font-family="DejaVu Sans" font-size="13.89" fill="#000000" fill-opacity="1.00" text-anchor="middle" dominant-baseline="text-before-edge" transform="translate(691.82,56.28) scale(1,-1)">5</text>
<text font-family="DejaVu Sans" font-size="13.89" fill="#000000" fill-opacity="1.00" text-anchor="middle" dominant-baseline="text-before-edge" transform="translate(410.00,37.17) scale(1,-1)">x</text>
<path d="M 100.50 86.50 L 95.50 86.50 " fill="none" fill-opacity="0.00" stroke="#000000" stroke-opacity="1.00" stroke-width="0.80" stroke-linecap="butt" stroke-linejoin="miter"/>
<text font-family="DejaVu Sans" font-size="13.89" fill="#000000" fill-opacity="1.00" text-anchor="end" dominant-baseline="central" transform="translate(90.28,87.00) scale(1,-1)">10^0</text>
<path d="M 100.50 279.50 L 95.50 279.50 " fill="none" fill-opacity="0.00" stroke="#000000" stroke-opacity="1.00" stroke-width="0.80" stroke-linecap="butt" stroke-linejoin="miter"/>
<text font-family="DejaVu Sans" font-size="13.89" fill="#000000" fill-opacity="1.00" text-anchor="end" dominant-baseline="central" transform="translate(90.28,280.42) scale(1,-1)">10^1</text>
<path d="M 100.50 473.50 L 95.50 473.50 " fill="none" fill-opacity="0.00" stroke="#000000" stroke-opacity="1.00" stroke-width="0.80" stroke-linecap="butt" stroke-linejoin="miter"/>
<text font-family="DejaVu Sans" font-size="13.89" fill="#000000" fill-opacity="1.00" text-anchor="end" dominant-baseline="central" transform="translate(90.28,473.83) scale(1,-1)">10^2</text>
<path d="M 100.50 86.50 L 97.50 86.50 " fill="none" fill-opacity="0.00" stroke="#000000" stroke-opacity="1.00" stroke-width="0.60" stroke-linecap="butt" stroke-linejoin="miter"/>
<path d="M 100.50 279.50 L 97.50 279.50 " fill="none" fill-opacity="0.00" stroke="#000000" stroke-opacity="1.00" stroke-width="0.60" stroke-linecap="butt" stroke-linejoin="miter"/>
<path d="M 100.50 473.50 L 97.50 473.50 " fill="none" fill-opacity="0.00" stroke="#000000" stroke-opacity="1.00" stroke-width="0.60" stroke-linecap="butt" stroke-linejoin="miter"/>
<text font-family="DejaVu Sans" font-size="13.89" fill="#000000" fill-opacity="1.00" text-anchor="middle" transform="translate(40.94,297.00) rotate(-90.00) scale(1,-1)">exp(x)</text>
<path d="M 100.50 66.50 L 100.50 528.50 " fill="none" fill-opacity="0.00" stroke="#000000" stroke-opacity="1.00" stroke-width="0.80" stroke-linecap="square" stroke-linejoin="miter"/>
<path d="M 720.50 66.50 L 720.50 528.50 " fill="none" fill-opacity="0.00" stroke="#000000" stroke-opacity="1.00" stroke-width="0.80" stroke-linecap="square" stroke-linejoin="miter"/>
<path d="M 100.50 65.50 L 720.50 65.50 " fill="none" fill-opacity="0.00" stroke="#000000" stroke-opacity="1.00" stroke-width="0.80" stroke-linecap="square" stroke-linejoin="miter"/>
<path d="M 100.50 527.50 L 720.50 527.50 " fill="none" fill-opacity="0.00" stroke="#000000" stroke-opacity="1.00" stroke-width="0.80" stroke-linecap="square" stroke-linejoin="miter"/>
<path d="M 106.94 496.06 L 235.09 496.06 L 235.09 521.06 L 106.94 521.06 L 106.94 496.06 Z " fill="#FFFFFF" fill-opacity="0.80" stroke="#CCCCCC" stroke-opacity="1.00" stroke-width="0.80" stroke-linecap="butt" stroke-linejoin="miter"/>
<path d="M 112.50 509.50 L 140.50 509.50 " fill="none" fill-opacity="0.00" stroke="#4682B4" stroke-opacity="1.00" stroke-width="2.00" stroke-linecap="butt" stroke-linejoin="miter"/>
<text font-family="DejaVu Sans" font-size="13.89" fill="#000000" fill-opacity="1.00" text-anchor="start" dominant-baseline="central" transform="translate(151.39,508.56) scale(1,-1)">y = exp(x)</text>
</g>
</svg>
