<?xml version="1.0" encoding="UTF-8"?>
<svg xmlns="http://www.w3.org/2000/svg"
     xmlns:xlink="http://www.w3.org/1999/xlink"
     width="800" height="500" viewBox="0 0 800 500">
<defs>
<clipPath id="clip-1">
<rect x="100.00" y="55.00" width="620.00" height="385.00"/>
</clipPath>
<clipPath id="clip-2">
<rect x="100.00" y="55.00" width="620.00" height="385.00"/>
</clipPath>
<clipPath id="clip-3">
<rect x="100.00" y="55.00" width="620.00" height="385.00"/>
</clipPath>
<clipPath id="clip-4">
<rect x="100.00" y="55.00" width="620.00" height="385.00"/>
</clipPath>
<clipPath id="clip-5">
<rect x="100.00" y="55.00" width="620.00" height="385.00"/>
</clipPath>
<clipPath id="clip-6">
<rect x="100.00" y="55.00" width="620.00" height="385.00"/>
</clipPath>
<clipPath id="clip-7">
<rect x="100.00" y="55.00" width="620.00" height="385.00"/>
</clipPath>
<clipPath id="clip-8">
<rect x="100.00" y="55.00" width="620.00" height="385.00"/>
</clipPath>
<clipPath id="clip-9">
<rect x="100.00" y="55.00" width="620.00" height="385.00"/>
</clipPath>
<clipPath id="clip-10">
<rect x="100.00" y="55.00" width="620.00" height="385.00"/>
</clipPath>
<clipPath id="clip-11">
<rect x="100.00" y="55.00" width="620.00" height="385.00"/>
</clipPath>
<clipPath id="clip-12">
<rect x="100.00" y="55.00" width="620.00" height="385.00"/>
</clipPath>
<clipPath id="clip-13">
<rect x="100.00" y="55.00" width="620.00" height="385.00"/>
</clipPath>
<clipPath id="clip-14">
<rect x="100.00" y="55.00" width="620.00" height="385.00"/>
</clipPath>
<clipPath id="clip-15">
<rect x="100.00" y="55.00" width="620.00" height="385.00"/>
</clipPath>
</defs>
<g transform="translate(0,500) scale(1,-1)">
<rect width="800" height="500" fill="white"/>
<path d="M 0.00 0.00 L 800.00 0.00 L 800.00 500.00 L 0.00 500.00 L 0.00 0.00 Z " fill="#FFFFFF" fill-opacity="1.00" stroke="#000000" stroke-opacity="1.00" stroke-width="0.00" stroke-linecap="butt" stroke-linejoin="miter"/>
<path d="M 100.00 55.00 L 720.00 55.00 L 720.00 440.00 L 100.00 440.00 L 100.00 55.00 Z " fill="#FFFFFF" fill-opacity="1.00" stroke="none" stroke-opacity="0.00" stroke-width="0.00" stroke-linecap="butt" stroke-linejoin="miter"/>
<path d="M 128.50 55.50 L 128.50 440.50 " fill="none" fill-opacity="0.00" stroke="#B0B0B0" stroke-opacity="1.00" stroke-width="0.80" stroke-linecap="butt" stroke-linejoin="miter" clip-path="url(#clip-1)"/>
<path d="M 241.50 55.50 L 241.50 440.50 " fill="none" fill-opacity="0.00" stroke="#B0B0B0" stroke-opacity="1.00" stroke-width="0.80" stroke-linecap="butt" stroke-linejoin="miter" clip-path="url(#clip-2)"/>
<path d="M 354.50 55.50 L 354.50 440.50 " fill="none" fill-opacity="0.00" stroke="#B0B0B0" stroke-opacity="1.00" stroke-width="0.80" stroke-linecap="butt" stroke-linejoin="miter" clip-path="url(#clip-3)"/>
<path d="M 466.50 55.50 L 466.50 440.50 " fill="none" fill-opacity="0.00" stroke="#B0B0B0" stroke-opacity="1.00" stroke-width="0.80" stroke-linecap="butt" stroke-linejoin="miter" clip-path="url(#clip-4)"/>
<path d="M 579.50 55.50 L 579.50 440.50 " fill="none" fill-opacity="0.00" stroke="#B0B0B0" stroke-opacity="1.00" stroke-width="0.80" stroke-linecap="butt" stroke-linejoin="miter" clip-path="url(#clip-5)"/>
<path d="M 692.50 55.50 L 692.50 440.50 " fill="none" fill-opacity="0.00" stroke="#B0B0B0" stroke-opacity="1.00" stroke-width="0.80" stroke-linecap="butt" stroke-linejoin="miter" clip-path="url(#clip-6)"/>
<path d="M 100.50 71.50 L 720.50 71.50 " fill="none" fill-opacity="0.00" stroke="#B0B0B0" stroke-opacity="1.00" stroke-width="0.80" stroke-linecap="butt" stroke-linejoin="miter" clip-path="url(#clip-7)"/>
<path d="M 100.50 115.50 L 720.50 115.50 " fill="none" fill-opacity="0.00" stroke="#B0B0B0" stroke-opacity="1.00" stroke-width="0.80" stroke-linecap="butt" stroke-linejoin="miter" clip-path="url(#clip-8)"/>
<path d="M 100.50 159.50 L 720.50 159.50 " fill="none" fill-opacity="0.00" stroke="#B0B0B0" stroke-opacity="1.00" stroke-width="0.80" stroke-linecap="butt" stroke-linejoin="miter" clip-path="url(#clip-9)"/>
<path d="M 100.50 203.50 L 720.50 203.50 " fill="none" fill-opacity="0.00" stroke="#B0B0B0" stroke-opacity="1.00" stroke-width="0.80" stroke-linecap="butt" stroke-linejoin="miter" clip-path="url(#clip-10)"/>
<path d="M 100.50 247.50 L 720.50 247.50 " fill="none" fill-opacity="0.00" stroke="#B0B0B0" stroke-opacity="1.00" stroke-width="0.80" stroke-linecap="butt" stroke-linejoin="miter" clip-path="url(#clip-11)"/>
<path d="M 100.50 290.50 L 720.50 290.50 " fill="none" fill-opacity="0.00" stroke="#B0B0B0" stroke-opacity="1.00" stroke-width="0.80" stroke-linecap="butt" stroke-linejoin="miter" clip-path="url(#clip-12)"/>
<path d="M 100.50 334.50 L 720.50 334.50 " fill="none" fill-opacity="0.00" stroke="#B0B0B0" stroke-opacity="1.00" stroke-width="0.80" stroke-linecap="butt" stroke-linejoin="miter" clip-path="url(#clip-13)"/>
<path d="M 100.50 378.50 L 720.50 378.50 " fill="none" fill-opacity="0.00" stroke="#B0B0B0" stroke-opacity="1.00" stroke-width="0.80" stroke-linecap="butt" stroke-linejoin="miter" clip-path="url(#clip-14)"/>
<path d="M 100.50 422.50 L 720.50 422.50 " fill="none" fill-opacity="0.00" stroke="#B0B0B0" stroke-opacity="1.00" stroke-width="0.80" stroke-linecap="butt" stroke-linejoin="miter" clip-path="url(#clip-15)"/>
<path d="M 128.18 422.14 L 133.82 422.50 L 139.45 421.12 L 145.09 418.00 L 150.73 413.18 L 156.36 406.70 L 162.00 398.63 L 167.64 389.05 L 173.27 378.06 L 178.91 365.77 L 184.55 352.29 L 190.18 337.77 L 195.82 322.34 L 201.45 306.17 L 207.09 289.41 L 212.73 272.24 L 218.36 254.81 L 224.00 237.32 L 229.64 219.92 L 235.27 202.81 L 240.91 186.14 L 246.55 170.08 L 252.18 154.79 L 257.82 140.44 L 263.45 127.15 L 269.09 115.07 L 274.73 104.31 L 280.36 94.98 L 286.00 87.17 L 291.64 80.97 L 297.27 76.43 L 302.91 73.60 L 308.55 72.51 L 314.18 73.17 L 319.82 75.57 L 325.45 79.69 L 331.09 85.48 L 336.73 92.90 L 342.36 101.86 L 348.00 112.27 L 353.64 124.04 L 359.27 137.04 L 364.91 151.15 L 370.55 166.21 L 376.18 182.09 L 381.82 198.63 L 387.45 215.65 L 393.09 232.99 L 398.73 250.48 L 404.36 267.94 L 410.00 285.19 L 415.64 302.07 L 421.27 318.40 L 426.91 334.03 L 432.55 348.79 L 438.18 362.53 L 443.82 375.13 L 449.45 386.46 L 455.09 396.40 L 460.73 404.84 L 466.36 411.72 L 472.00 416.96 L 477.64 420.50 L 483.27 422.32 L 488.91 422.39 L 494.55 420.71 L 500.18 417.30 L 505.82 412.20 L 511.45 405.45 L 517.09 397.12 L 522.73 387.30 L 528.36 376.08 L 534.00 363.58 L 539.64 349.92 L 545.27 335.23 L 550.91 319.67 L 556.55 303.39 L 562.18 286.55 L 567.82 269.32 L 573.45 251.87 L 579.09 234.38 L 584.73 217.02 L 590.36 199.97 L 596.00 183.39 L 601.64 167.45 L 607.27 152.31 L 612.91 138.13 L 618.55 125.03 L 624.18 113.16 L 629.82 102.64 L 635.45 93.56 L 641.09 86.02 L 646.73 80.09 L 652.36 75.84 L 658.00 73.30 L 663.64 72.50 L 669.27 73.45 L 674.91 76.14 L 680.55 80.55 L 686.18 86.62 L 691.82 94.30 " fill="none" fill-opacity="0.00" stroke="#FFA500" stroke-opacity="1.00" stroke-width="2.00" stroke-linecap="butt" stroke-linejoin="round" stroke-dasharray="12.80 3.20 2.00 3.20"/>
<path d="M 128.18 394.83 L 133.82 403.53 L 139.45 410.68 L 145.09 416.20 L 150.73 420.03 L 156.36 422.14 L 162.00 422.50 L 167.64 421.12 L 173.27 418.00 L 178.91 413.18 L 184.55 406.70 L 190.18 398.63 L 195.82 389.05 L 201.45 378.06 L 207.09 365.77 L 212.73 352.29 L 218.36 337.77 L 224.00 322.34 L 229.64 306.17 L 235.27 289.41 L 240.91 272.24 L 246.55 254.81 L 252.18 237.32 L 257.82 219.92 L 263.45 202.81 L 269.09 186.14 L 274.73 170.08 L 280.36 154.79 L 286.00 140.44 L 291.64 127.15 L 297.27 115.07 L 302.91 104.31 L 308.55 94.98 L 314.18 87.17 L 319.82 80.97 L 325.45 76.43 L 331.09 73.60 L 336.73 72.51 L 342.36 73.17 L 348.00 75.57 L 353.64 79.69 L 359.27 85.48 L 364.91 92.90 L 370.55 101.86 L 376.18 112.27 L 381.82 124.04 L 387.45 137.04 L 393.09 151.15 L 398.73 166.21 L 404.36 182.09 L 410.00 198.63 L 415.64 215.65 L 421.27 232.99 L 426.91 250.48 L 432.55 267.94 L 438.18 285.19 L 443.82 302.07 L 449.45 318.40 L 455.09 334.03 L 460.73 348.79 L 466.36 362.53 L 472.00 375.13 L 477.64 386.46 L 483.27 396.40 L 488.91 404.84 L 494.55 411.72 L 500.18 416.96 L 505.82 420.50 L 511.45 422.32 L 517.09 422.39 L 522.73 420.71 L 528.36 417.30 L 534.00 412.20 L 539.64 405.45 L 545.27 397.12 L 550.91 387.30 L 556.55 376.08 L 562.18 363.58 L 567.82 349.92 L 573.45 335.23 L 579.09 319.67 L 584.73 303.39 L 590.36 286.55 L 596.00 269.32 L 601.64 251.87 L 607.27 234.38 L 612.91 217.02 L 618.55 199.97 L 624.18 183.39 L 629.82 167.45 L 635.45 152.31 L 641.09 138.13 L 646.73 125.03 L 652.36 113.16 L 658.00 102.64 L 663.64 93.56 L 669.27 86.02 L 674.91 80.09 L 680.55 75.84 L 686.18 73.30 L 691.82 72.50 " fill="none" fill-opacity="0.00" stroke="#008000" stroke-opacity="1.00" stroke-width="2.00" stroke-linecap="butt" stroke-linejoin="round" stroke-dasharray="2.00 3.30"/>
<path d="M 128.18 331.45 L 133.82 346.37 L 139.45 360.30 L 145.09 373.10 L 150.73 384.65 L 156.36 394.83 L 162.00 403.53 L 167.64 410.68 L 173.27 416.20 L 178.91 420.03 L 184.55 422.14 L 190.18 422.50 L 195.82 421.12 L 201.45 418.00 L 207.09 413.18 L 212.73 406.70 L 218.36 398.63 L 224.00 389.05 L 229.64 378.06 L 235.27 365.77 L 240.91 352.29 L 246.55 337.77 L 252.18 322.34 L 257.82 306.17 L 263.45 289.41 L 269.09 272.24 L 274.73 254.81 L 280.36 237.32 L 286.00 219.92 L 291.64 202.81 L 297.27 186.14 L 302.91 170.08 L 308.55 154.79 L 314.18 140.44 L 319.82 127.15 L 325.45 115.07 L 331.09 104.31 L 336.73 94.98 L 342.36 87.17 L 348.00 80.97 L 353.64 76.43 L 359.27 73.60 L 364.91 72.51 L 370.55 73.17 L 376.18 75.57 L 381.82 79.69 L 387.45 85.48 L 393.09 92.90 L 398.73 101.86 L 404.36 112.27 L 410.00 124.04 L 415.64 137.04 L 421.27 151.15 L 426.91 166.21 L 432.55 182.09 L 438.18 198.63 L 443.82 215.65 L 449.45 232.99 L 455.09 250.48 L 460.73 267.94 L 466.36 285.19 L 472.00 302.07 L 477.64 318.40 L 483.27 334.03 L 488.91 348.79 L 494.55 362.53 L 500.18 375.13 L 505.82 386.46 L 511.45 396.40 L 517.09 404.84 L 522.73 411.72 L 528.36 416.96 L 534.00 420.50 L 539.64 422.32 L 545.27 422.39 L 550.91 420.71 L 556.55 417.30 L 562.18 412.20 L 567.82 405.45 L 573.45 397.12 L 579.09 387.30 L 584.73 376.08 L 590.36 363.58 L 596.00 349.92 L 601.64 335.23 L 607.27 319.67 L 612.91 303.39 L 618.55 286.55 L 624.18 269.32 L 629.82 251.87 L 635.45 234.38 L 641.09 217.02 L 646.73 199.97 L 652.36 183.39 L 658.00 167.45 L 663.64 152.31 L 669.27 138.13 L 674.91 125.03 L 680.55 113.16 L 686.18 102.64 L 691.82 93.56 " fill="none" fill-opacity="0.00" stroke="#FF0000" stroke-opacity="1.00" stroke-width="2.00" stroke-linecap="butt" stroke-linejoin="round" stroke-dasharray="7.40 3.20"/>
<path d="M 128.18 247.54 L 133.82 265.01 L 139.45 282.31 L 145.09 299.26 L 150.73 315.70 L 156.36 331.45 L 162.00 346.37 L 167.64 360.30 L 173.27 373.10 L 178.91 384.65 L 184.55 394.83 L 190.18 403.53 L 195.82 410.68 L 201.45 416.20 L 207.09 420.03 L 212.73 422.14 L 218.36 422.50 L 224.00 421.12 L 229.64 418.00 L 235.27 413.18 L 240.91 406.70 L 246.55 398.63 L 252.18 389.05 L 257.82 378.06 L 263.45 365.77 L 269.09 352.29 L 274.73 337.77 L 280.36 322.34 L 286.00 306.17 L 291.64 289.41 L 297.27 272.24 L 302.91 254.81 L 308.55 237.32 L 314.18 219.92 L 319.82 202.81 L 325.45 186.14 L 331.09 170.08 L 336.73 154.79 L 342.36 140.44 L 348.00 127.15 L 353.64 115.07 L 359.27 104.31 L 364.91 94.98 L 370.55 87.17 L 376.18 80.97 L 381.82 76.43 L 387.45 73.60 L 393.09 72.51 L 398.73 73.17 L 404.36 75.57 L 410.00 79.69 L 415.64 85.48 L 421.27 92.90 L 426.91 101.86 L 432.55 112.27 L 438.18 124.04 L 443.82 137.04 L 449.45 151.15 L 455.09 166.21 L 460.73 182.09 L 466.36 198.63 L 472.00 215.65 L 477.64 232.99 L 483.27 250.48 L 488.91 267.94 L 494.55 285.19 L 500.18 302.07 L 505.82 318.40 L 511.45 334.03 L 517.09 348.79 L 522.73 362.53 L 528.36 375.13 L 534.00 386.46 L 539.64 396.40 L 545.27 404.84 L 550.91 411.72 L 556.55 416.96 L 562.18 420.50 L 567.82 422.32 L 573.45 422.39 L 579.09 420.71 L 584.73 417.30 L 590.36 412.20 L 596.00 405.45 L 601.64 397.12 L 607.27 387.30 L 612.91 376.08 L 618.55 363.58 L 624.18 349.92 L 629.82 335.23 L 635.45 319.67 L 641.09 303.39 L 646.73 286.55 L 652.36 269.32 L 658.00 251.87 L 663.64 234.38 L 669.27 217.02 L 674.91 199.97 L 680.55 183.39 L 686.18 167.45 L 691.82 152.31 " fill="none" fill-opacity="0.00" stroke="#0000FF" stroke-opacity="1.00" stroke-width="2.00" stroke-linecap="square" stroke-linejoin="round"/>
<text font-family="DejaVu Sans" font-size="16.67" fill="#000000" fill-opacity="1.00" text-anchor="middle" transform="translate(410.00,449.33) scale(1,-1)">Line Styles</text>
<path d="M 106.94 61.94 L 226.31 61.94 L 226.31 149.44 L 106.94 149.44 L 106.94 61.94 Z " fill="#FFFFFF" fill-opacity="0.80" stroke="#CCCCCC" stroke-opacity="1.00" stroke-width="0.80" stroke-linecap="butt" stroke-linejoin="miter"/>
<path d="M 112.50 137.50 L 140.50 137.50 " fill="none" fill-opacity="0.00" stroke="#0000FF" stroke-opacity="1.00" stroke-width="2.00" stroke-linecap="butt" stroke-linejoin="miter"/>
<text font-family="DejaVu Sans" font-size="13.89" fill="#000000" fill-opacity="1.00" text-anchor="start" dominant-baseline="central" transform="translate(151.39,136.94) scale(1,-1)">solid</text>
<path d="M 112.50 116.50 L 140.50 116.50 " fill="none" fill-opacity="0.00" stroke="#FF0000" stroke-opacity="1.00" stroke-width="2.00" stroke-linecap="butt" stroke-linejoin="miter" stroke-dasharray="7.40 3.20"/>
<text font-family="DejaVu Sans" font-size="13.89" fill="#000000" fill-opacity="1.00" text-anchor="start" dominant-baseline="central" transform="translate(151.39,116.11) scale(1,-1)">dashed</text>
<path d="M 112.50 95.50 L 140.50 95.50 " fill="none" fill-opacity="0.00" stroke="#008000" stroke-opacity="1.00" stroke-width="2.00" stroke-linecap="butt" stroke-linejoin="miter" stroke-dasharray="2.00 3.30"/>
<text font-family="DejaVu Sans" font-size="13.89" fill="#000000" fill-opacity="1.00" text-anchor="start" dominant-baseline="central" transform="translate(151.39,95.28) scale(1,-1)">dotted</text>
<path d="M 112.50 74.50 L 140.50 74.50 " fill="none" fill-opacity="0.00" stroke="#FFA500" stroke-opacity="1.00" stroke-width="2.00" stroke-linecap="butt" stroke-linejoin="miter" stroke-dasharray="12.80 3.20 2.00 3.20"/>
<text font-family="DejaVu Sans" font-size="13.89" fill="#000000" fill-opacity="1.00" text-anchor="start" dominant-baseline="central" transform="translate(151.39,74.44) scale(1,-1)">dash-dot</text>
<path d="M 128.50 55.50 L 128.50 50.50 " fill="none" fill-opacity="0.00" stroke="#000000" stroke-opacity="1.00" stroke-width="0.80" stroke-linecap="butt" stroke-linejoin="miter"/>
<text font-family="DejaVu Sans" font-size="13.89" fill="#000000" fill-opacity="1.00" text-anchor="middle" dominant-baseline="text-before-edge" transform="translate(128.18,45.28) scale(1,-1)">0</text>
<path d="M 241.50 55.50 L 241.50 50.50 " fill="none" fill-opacity="0.00" stroke="#000000" stroke-opacity="1.00" stroke-width="0.80" stroke-linecap="butt" stroke-linejoin="miter"/>
<text font-family="DejaVu Sans" font-size="13.89" fill="#000000" fill-opacity="1.00" text-anchor="middle" dominant-baseline="text-before-edge" transform="translate(240.91,45.28) scale(1,-1)">2</text>
<path d="M 354.50 55.50 L 354.50 50.50 " fill="none" fill-opacity="0.00" stroke="#000000" stroke-opacity="1.00" stroke-width="0.80" stroke-linecap="butt" stroke-linejoin="miter"/>
<text font-family="DejaVu Sans" font-size="13.89" fill="#000000" fill-opacity="1.00" text-anchor="middle" dominant-baseline="text-before-edge" transform="translate(353.64,45.28) scale(1,-1)">4</text>
<path d="M 466.50 55.50 L 466.50 50.50 " fill="none" fill-opacity="0.00" stroke="#000000" stroke-opacity="1.00" stroke-width="0.80" stroke-linecap="butt" stroke-linejoin="miter"/>
<text font-family="DejaVu Sans" font-size="13.89" fill="#000000" fill-opacity="1.00" text-anchor="middle" dominant-baseline="text-before-edge" transform="translate(466.36,45.28) scale(1,-1)">6</text>
<path d="M 579.50 55.50 L 579.50 50.50 " fill="none" fill-opacity="0.00" stroke="#000000" stroke-opacity="1.00" stroke-width="0.80" stroke-linecap="butt" stroke-linejoin="miter"/>
<text font-family="DejaVu Sans" font-size="13.89" fill="#000000" fill-opacity="1.00" text-anchor="middle" dominant-baseline="text-before-edge" transform="translate(579.09,45.28) scale(1,-1)">8</text>
<path d="M 692.50 55.50 L 692.50 50.50 " fill="none" fill-opacity="0.00" stroke="#000000" stroke-opacity="1.00" stroke-width="0.80" stroke-linecap="butt" stroke-linejoin="miter"/>
<text font-family="DejaVu Sans" font-size="13.89" fill="#000000" fill-opacity="1.00" text-anchor="middle" dominant-baseline="text-before-edge" transform="translate(691.82,45.28) scale(1,-1)">10</text>
<text font-family="DejaVu Sans" font-size="13.89" fill="#000000" fill-opacity="1.00" text-anchor="middle" dominant-baseline="text-before-edge" transform="translate(410.00,26.17) scale(1,-1)">x</text>
<path d="M 100.50 71.50 L 95.50 71.50 " fill="none" fill-opacity="0.00" stroke="#000000" stroke-opacity="1.00" stroke-width="0.80" stroke-linecap="butt" stroke-linejoin="miter"/>
<text font-family="DejaVu Sans" font-size="13.89" fill="#000000" fill-opacity="1.00" text-anchor="end" dominant-baseline="central" transform="translate(90.28,72.50) scale(1,-1)">-1.00</text>
<path d="M 100.50 115.50 L 95.50 115.50 " fill="none" fill-opacity="0.00" stroke="#000000" stroke-opacity="1.00" stroke-width="0.80" stroke-linecap="butt" stroke-linejoin="miter"/>
<text font-family="DejaVu Sans" font-size="13.89" fill="#000000" fill-opacity="1.00" text-anchor="end" dominant-baseline="central" transform="translate(90.28,116.26) scale(1,-1)">-0.75</text>
<path d="M 100.50 159.50 L 95.50 159.50 " fill="none" fill-opacity="0.00" stroke="#000000" stroke-opacity="1.00" stroke-width="0.80" stroke-linecap="butt" stroke-linejoin="miter"/>
<text font-family="DejaVu Sans" font-size="13.89" fill="#000000" fill-opacity="1.00" text-anchor="end" dominant-baseline="central" transform="translate(90.28,160.02) scale(1,-1)">-0.50</text>
<path d="M 100.50 203.50 L 95.50 203.50 " fill="none" fill-opacity="0.00" stroke="#000000" stroke-opacity="1.00" stroke-width="0.80" stroke-linecap="butt" stroke-linejoin="miter"/>
<text font-family="DejaVu Sans" font-size="13.89" fill="#000000" fill-opacity="1.00" text-anchor="end" dominant-baseline="central" transform="translate(90.28,203.78) scale(1,-1)">-0.25</text>
<path d="M 100.50 247.50 L 95.50 247.50 " fill="none" fill-opacity="0.00" stroke="#000000" stroke-opacity="1.00" stroke-width="0.80" stroke-linecap="butt" stroke-linejoin="miter"/>
<text font-family="DejaVu Sans" font-size="13.89" fill="#000000" fill-opacity="1.00" text-anchor="end" dominant-baseline="central" transform="translate(90.28,247.54) scale(1,-1)">0.00</text>
<path d="M 100.50 290.50 L 95.50 290.50 " fill="none" fill-opacity="0.00" stroke="#000000" stroke-opacity="1.00" stroke-width="0.80" stroke-linecap="butt" stroke-linejoin="miter"/>
<text font-family="DejaVu Sans" font-size="13.89" fill="#000000" fill-opacity="1.00" text-anchor="end" dominant-baseline="central" transform="translate(90.28,291.30) scale(1,-1)">0.25</text>
<path d="M 100.50 334.50 L 95.50 334.50 " fill="none" fill-opacity="0.00" stroke="#000000" stroke-opacity="1.00" stroke-width="0.80" stroke-linecap="butt" stroke-linejoin="miter"/>
<text font-family="DejaVu Sans" font-size="13.89" fill="#000000" fill-opacity="1.00" text-anchor="end" dominant-baseline="central" transform="translate(90.28,335.06) scale(1,-1)">0.50</text>
<path d="M 100.50 378.50 L 95.50 378.50 " fill="none" fill-opacity="0.00" stroke="#000000" stroke-opacity="1.00" stroke-width="0.80" stroke-linecap="butt" stroke-linejoin="miter"/>
<text font-family="DejaVu Sans" font-size="13.89" fill="#000000" fill-opacity="1.00" text-anchor="end" dominant-baseline="central" transform="translate(90.28,378.82) scale(1,-1)">0.75</text>
<path d="M 100.50 422.50 L 95.50 422.50 " fill="none" fill-opacity="0.00" stroke="#000000" stroke-opacity="1.00" stroke-width="0.80" stroke-linecap="butt" stroke-linejoin="miter"/>
<text font-family="DejaVu Sans" font-size="13.89" fill="#000000" fill-opacity="1.00" text-anchor="end" dominant-baseline="central" transform="translate(90.28,422.57) scale(1,-1)">1.00</text>
<text font-family="DejaVu Sans" font-size="13.89" fill="#000000" fill-opacity="1.00" text-anchor="middle" transform="translate(35.68,247.50) rotate(-90.00) scale(1,-1)">y</text>
<path d="M 100.50 55.50 L 100.50 440.50 " fill="none" fill-opacity="0.00" stroke="#000000" stroke-opacity="1.00" stroke-width="0.80" stroke-linecap="square" stroke-linejoin="miter"/>
<path d="M 720.50 55.50 L 720.50 440.50 " fill="none" fill-opacity="0.00" stroke="#000000" stroke-opacity="1.00" stroke-width="0.80" stroke-linecap="square" stroke-linejoin="miter"/>
<path d="M 100.50 54.50 L 720.50 54.50 " fill="none" fill-opacity="0.00" stroke="#000000" stroke-opacity="1.00" stroke-width="0.80" stroke-linecap="square" stroke-linejoin="miter"/>
<path d="M 100.50 439.50 L 720.50 439.50 " fill="none" fill-opacity="0.00" stroke="#000000" stroke-opacity="1.00" stroke-width="0.80" stroke-linecap="square" stroke-linejoin="miter"/>
<path d="M 106.94 61.94 L 226.31 61.94 L 226.31 149.44 L 106.94 149.44 L 106.94 61.94 Z " fill="#FFFFFF" fill-opacity="0.80" stroke="#CCCCCC" stroke-opacity="1.00" stroke-width="0.80" stroke-linecap="butt" stroke-linejoin="miter"/>
<path d="M 112.50 137.50 L 140.50 137.50 " fill="none" fill-opacity="0.00" stroke="#0000FF" stroke-opacity="1.00" stroke-width="2.00" stroke-linecap="butt" stroke-linejoin="miter"/>
<text font-family="DejaVu Sans" font-size="13.89" fill="#000000" fill-opacity="1.00" text-anchor="start" dominant-baseline="central" transform="translate(151.39,136.94) scale(1,-1)">solid</text>
<path d="M 112.50 116.50 L 140.50 116.50 " fill="none" fill-opacity="0.00" stroke="#FF0000" stroke-opacity="1.00" stroke-width="2.00" stroke-linecap="butt" stroke-linejoin="miter" stroke-dasharray="7.40 3.20"/>
<text font-family="DejaVu Sans" font-size="13.89" fill="#000000" fill-opacity="1.00" text-anchor="start" dominant-baseline="central" transform="translate(151.39,116.11) scale(1,-1)">dashed</text>
<path d="M 112.50 95.50 L 140.50 95.50 " fill="none" fill-opacity="0.00" stroke="#008000" stroke-opacity="1.00" stroke-width="2.00" stroke-linecap="butt" stroke-linejoin="miter" stroke-dasharray="2.00 3.30"/>
<text font-family="DejaVu Sans" font-size="13.89" fill="#000000" fill-opacity="1.00" text-anchor="start" dominant-baseline="central" transform="translate(151.39,95.28) scale(1,-1)">dotted</text>
<path d="M 112.50 74.50 L 140.50 74.50 " fill="none" fill-opacity="0.00" stroke="#FFA500" stroke-opacity="1.00" stroke-width="2.00" stroke-linecap="butt" stroke-linejoin="miter" stroke-dasharray="12.80 3.20 2.00 3.20"/>
<text font-family="DejaVu Sans" font-size="13.89" fill="#000000" fill-opacity="1.00" text-anchor="start" dominant-baseline="central" transform="translate(151.39,74.44) scale(1,-1)">dash-dot</text>
</g>
</svg>
