<?xml version="1.0" encoding="UTF-8"?>
<svg xmlns="http://www.w3.org/2000/svg"
     xmlns:xlink="http://www.w3.org/1999/xlink"
     width="1000" height="600" viewBox="0 0 1000 600">
<defs>
<clipPath id="clip-1">
<rect x="125.00" y="66.00" width="775.00" height="462.00"/>
</clipPath>
<clipPath id="clip-2">
<rect x="125.00" y="66.00" width="775.00" height="462.00"/>
</clipPath>
<clipPath id="clip-3">
<rect x="125.00" y="66.00" width="775.00" height="462.00"/>
</clipPath>
<clipPath id="clip-4">
<rect x="125.00" y="66.00" width="775.00" height="462.00"/>
</clipPath>
<clipPath id="clip-5">
<rect x="125.00" y="66.00" width="775.00" height="462.00"/>
</clipPath>
<clipPath id="clip-6">
<rect x="125.00" y="66.00" width="775.00" height="462.00"/>
</clipPath>
<clipPath id="clip-7">
<rect x="125.00" y="66.00" width="775.00" height="462.00"/>
</clipPath>
<clipPath id="clip-8">
<rect x="125.00" y="66.00" width="775.00" height="462.00"/>
</clipPath>
<clipPath id="clip-9">
<rect x="125.00" y="66.00" width="775.00" height="462.00"/>
</clipPath>
<clipPath id="clip-10">
<rect x="125.00" y="66.00" width="775.00" height="462.00"/>
</clipPath>
<clipPath id="clip-11">
<rect x="125.00" y="66.00" width="775.00" height="462.00"/>
</clipPath>
<clipPath id="clip-12">
<rect x="125.00" y="66.00" width="775.00" height="462.00"/>
</clipPath>
<clipPath id="clip-13">
<rect x="125.00" y="66.00" width="775.00" height="462.00"/>
</clipPath>
<clipPath id="clip-14">
<rect x="125.00" y="66.00" width="775.00" height="462.00"/>
</clipPath>
<clipPath id="clip-15">
<rect x="125.00" y="66.00" width="775.00" height="462.00"/>
</clipPath>
</defs>
<g transform="translate(0,600) scale(1,-1)">
<rect width="1000" height="600" fill="white"/>
<path d="M 0.00 0.00 L 1000.00 0.00 L 1000.00 600.00 L 0.00 600.00 L 0.00 0.00 Z " fill="#FFFFFF" fill-opacity="1.00" stroke="#000000" stroke-opacity="1.00" stroke-width="0.00" stroke-linecap="butt" stroke-linejoin="miter"/>
<path d="M 125.00 66.00 L 900.00 66.00 L 900.00 528.00 L 125.00 528.00 L 125.00 66.00 Z " fill="#FFFFFF" fill-opacity="1.00" stroke="none" stroke-opacity="0.00" stroke-width="0.00" stroke-linecap="butt" stroke-linejoin="miter"/>
<path d="M 160.50 66.00 L 160.50 528.00 " fill="none" fill-opacity="0.00" stroke="#B0B0B0" stroke-opacity="1.00" stroke-width="0.80" stroke-linecap="butt" stroke-linejoin="miter" clip-path="url(#clip-1)"/>
<path d="M 301.50 66.00 L 301.50 528.00 " fill="none" fill-opacity="0.00" stroke="#B0B0B0" stroke-opacity="1.00" stroke-width="0.80" stroke-linecap="butt" stroke-linejoin="miter" clip-path="url(#clip-2)"/>
<path d="M 442.50 66.00 L 442.50 528.00 " fill="none" fill-opacity="0.00" stroke="#B0B0B0" stroke-opacity="1.00" stroke-width="0.80" stroke-linecap="butt" stroke-linejoin="miter" clip-path="url(#clip-3)"/>
<path d="M 583.50 66.00 L 583.50 528.00 " fill="none" fill-opacity="0.00" stroke="#B0B0B0" stroke-opacity="1.00" stroke-width="0.80" stroke-linecap="butt" stroke-linejoin="miter" clip-path="url(#clip-4)"/>
<path d="M 724.50 66.00 L 724.50 528.00 " fill="none" fill-opacity="0.00" stroke="#B0B0B0" stroke-opacity="1.00" stroke-width="0.80" stroke-linecap="butt" stroke-linejoin="miter" clip-path="url(#clip-5)"/>
<path d="M 865.50 66.00 L 865.50 528.00 " fill="none" fill-opacity="0.00" stroke="#B0B0B0" stroke-opacity="1.00" stroke-width="0.80" stroke-linecap="butt" stroke-linejoin="miter" clip-path="url(#clip-6)"/>
<path d="M 125.00 86.50 L 900.00 86.50 " fill="none" fill-opacity="0.00" stroke="#B0B0B0" stroke-opacity="1.00" stroke-width="0.80" stroke-linecap="butt" stroke-linejoin="miter" clip-path="url(#clip-7)"/>
<path d="M 125.00 138.50 L 900.00 138.50 " fill="none" fill-opacity="0.00" stroke="#B0B0B0" stroke-opacity="1.00" stroke-width="0.80" stroke-linecap="butt" stroke-linejoin="miter" clip-path="url(#clip-8)"/>
<path d="M 125.00 191.50 L 900.00 191.50 " fill="none" fill-opacity="0.00" stroke="#B0B0B0" stroke-opacity="1.00" stroke-width="0.80" stroke-linecap="butt" stroke-linejoin="miter" clip-path="url(#clip-9)"/>
<path d="M 125.00 243.50 L 900.00 243.50 " fill="none" fill-opacity="0.00" stroke="#B0B0B0" stroke-opacity="1.00" stroke-width="0.80" stroke-linecap="butt" stroke-linejoin="miter" clip-path="url(#clip-10)"/>
<path d="M 125.00 296.50 L 900.00 296.50 " fill="none" fill-opacity="0.00" stroke="#B0B0B0" stroke-opacity="1.00" stroke-width="0.80" stroke-linecap="butt" stroke-linejoin="miter" clip-path="url(#clip-11)"/>
<path d="M 125.00 348.50 L 900.00 348.50 " fill="none" fill-opacity="0.00" stroke="#B0B0B0" stroke-opacity="1.00" stroke-width="0.80" stroke-linecap="butt" stroke-linejoin="miter" clip-path="url(#clip-12)"/>
<path d="M 125.00 401.50 L 900.00 401.50 " fill="none" fill-opacity="0.00" stroke="#B0B0B0" stroke-opacity="1.00" stroke-width="0.80" stroke-linecap="butt" stroke-linejoin="miter" clip-path="url(#clip-13)"/>
<path d="M 125.00 453.50 L 900.00 453.50 " fill="none" fill-opacity="0.00" stroke="#B0B0B0" stroke-opacity="1.00" stroke-width="0.80" stroke-linecap="butt" stroke-linejoin="miter" clip-path="url(#clip-14)"/>
<path d="M 125.00 506.50 L 900.00 506.50 " fill="none" fill-opacity="0.00" stroke="#B0B0B0" stroke-opacity="1.00" stroke-width="0.80" stroke-linecap="butt" stroke-linejoin="miter" clip-path="url(#clip-15)"/>
<path d="M 160.23 402.00 L 167.27 399.90 L 174.32 393.71 L 181.36 383.66 L 188.41 370.15 L 195.45 353.73 L 202.50 335.04 L 209.55 314.84 L 216.59 293.93 L 223.64 273.13 L 230.68 253.29 L 237.73 235.20 L 244.77 219.56 L 251.82 207.02 L 258.86 198.05 L 265.91 193.04 L 272.95 192.17 L 280.00 195.47 L 287.05 202.83 L 294.09 213.94 L 301.14 228.36 L 308.18 245.51 L 315.23 264.72 L 322.27 285.22 L 329.32 306.18 L 336.36 326.78 L 343.41 346.19 L 350.45 363.64 L 357.50 378.43 L 364.55 389.98 L 371.59 397.81 L 378.64 401.63 L 385.68 401.28 L 392.73 396.77 L 399.77 388.28 L 406.82 376.15 L 413.86 360.87 L 420.91 343.04 L 427.95 323.38 L 435.00 302.66 L 442.05 281.71 L 449.09 261.38 L 456.14 242.46 L 463.18 225.72 L 470.23 211.82 L 477.27 201.32 L 484.32 194.63 L 491.36 192.02 L 498.41 193.60 L 505.45 199.29 L 512.50 208.89 L 519.55 221.99 L 526.59 238.09 L 533.64 256.53 L 540.68 276.59 L 547.73 297.46 L 554.77 318.31 L 561.82 338.31 L 568.86 356.66 L 575.91 372.64 L 582.95 385.60 L 590.00 395.03 L 597.05 400.55 L 604.09 401.94 L 611.14 399.14 L 618.18 392.28 L 625.23 381.61 L 632.27 367.57 L 639.32 350.72 L 646.36 331.73 L 653.41 311.35 L 660.45 290.40 L 667.50 269.71 L 674.55 250.11 L 681.59 232.38 L 688.64 217.22 L 695.68 205.25 L 702.73 196.93 L 709.77 192.60 L 716.82 192.43 L 723.86 196.43 L 730.91 204.44 L 737.95 216.14 L 745.00 231.07 L 752.05 248.62 L 759.09 268.10 L 766.14 288.73 L 773.18 309.69 L 780.23 330.15 L 787.27 349.28 L 794.32 366.33 L 801.36 380.61 L 808.41 391.56 L 815.45 398.74 L 822.50 401.87 L 829.55 400.81 L 836.59 395.61 L 843.64 386.49 L 850.68 373.79 L 857.73 358.03 L 864.77 339.84 " fill="none" fill-opacity="0.00" stroke="#FF8C00" stroke-opacity="1.00" stroke-width="2.00" stroke-linecap="butt" stroke-linejoin="round" stroke-dasharray="12.80 3.20 2.00 3.20"/>
<path d="M 160.23 296.99 L 167.27 317.85 L 174.32 337.88 L 181.36 356.28 L 188.41 372.32 L 195.45 385.35 L 202.50 394.86 L 209.55 400.47 L 216.59 401.95 L 223.64 399.25 L 230.68 392.47 L 237.73 381.89 L 244.77 367.92 L 251.82 351.12 L 258.86 332.17 L 265.91 311.81 L 272.95 290.86 L 280.00 270.16 L 287.05 250.53 L 294.09 232.74 L 301.14 217.52 L 308.18 205.47 L 315.23 197.07 L 322.27 192.65 L 329.32 192.39 L 336.36 196.30 L 343.41 204.23 L 350.45 215.85 L 357.50 230.71 L 364.55 248.21 L 371.59 267.65 L 378.64 288.27 L 385.68 309.23 L 392.73 329.71 L 399.77 348.88 L 406.82 365.98 L 413.86 380.33 L 420.91 391.36 L 427.95 398.63 L 435.00 401.84 L 442.05 400.88 L 449.09 395.77 L 456.14 386.73 L 463.18 374.11 L 470.23 358.41 L 477.27 340.27 L 484.32 320.40 L 491.36 299.59 L 498.41 278.69 L 505.45 258.51 L 512.50 239.87 L 519.55 223.50 L 526.59 210.07 L 533.64 200.10 L 540.68 193.99 L 547.73 191.99 L 554.77 194.17 L 561.82 200.46 L 568.86 210.59 L 575.91 224.17 L 582.95 240.65 L 590.00 259.38 L 597.05 279.60 L 604.09 300.52 L 611.14 321.30 L 618.18 341.11 L 625.23 359.16 L 632.27 374.73 L 639.32 387.21 L 646.36 396.08 L 653.41 401.01 L 660.45 401.79 L 667.50 398.39 L 674.55 390.95 L 681.59 379.76 L 688.64 365.27 L 695.68 348.07 L 702.73 328.82 L 709.77 308.31 L 716.82 287.34 L 723.86 266.76 L 730.91 247.39 L 737.95 229.99 L 745.00 215.26 L 752.05 203.79 L 759.09 196.04 L 766.14 192.31 L 773.18 192.76 L 780.23 197.36 L 787.27 205.93 L 794.32 218.14 L 801.36 233.48 L 808.41 251.36 L 815.45 271.06 L 822.50 291.79 L 829.55 312.73 L 836.59 333.04 L 843.64 351.92 L 850.68 368.60 L 857.73 382.43 L 864.77 392.85 " fill="none" fill-opacity="0.00" stroke="#228B22" stroke-opacity="1.00" stroke-width="2.50" stroke-linecap="butt" stroke-linejoin="round" stroke-dasharray="2.50 4.13"/>
<path d="M 160.23 507.00 L 167.27 505.95 L 174.32 502.81 L 181.36 497.62 L 188.41 490.42 L 195.45 481.29 L 202.50 470.32 L 209.55 457.61 L 216.59 443.31 L 223.64 427.54 L 230.68 410.46 L 237.73 392.25 L 244.77 373.09 L 251.82 353.17 L 258.86 332.69 L 265.91 311.85 L 272.95 290.86 L 280.00 269.93 L 287.05 249.28 L 294.09 229.10 L 301.14 209.60 L 308.18 190.97 L 315.23 173.40 L 322.27 157.07 L 329.32 142.13 L 336.36 128.75 L 343.41 117.04 L 350.45 107.13 L 357.50 99.12 L 364.55 93.08 L 371.59 89.09 L 378.64 87.17 L 385.68 87.34 L 392.73 89.61 L 399.77 93.96 L 406.82 100.33 L 413.86 108.67 L 420.91 118.88 L 427.95 130.88 L 435.00 144.54 L 442.05 159.72 L 449.09 176.27 L 456.14 194.03 L 463.18 212.82 L 470.23 232.45 L 477.27 252.72 L 484.32 273.44 L 491.36 294.39 L 498.41 315.37 L 505.45 336.16 L 512.50 356.56 L 519.55 376.37 L 526.59 395.38 L 533.64 413.42 L 540.68 430.28 L 547.73 445.82 L 554.77 459.87 L 561.82 472.29 L 568.86 482.96 L 575.91 491.77 L 582.95 498.64 L 590.00 503.49 L 597.05 506.27 L 604.09 506.97 L 611.14 505.57 L 618.18 502.08 L 625.23 496.55 L 632.27 489.02 L 639.32 479.57 L 646.36 468.30 L 653.41 455.32 L 660.45 440.75 L 667.50 424.75 L 674.55 407.47 L 681.59 389.09 L 688.64 369.79 L 695.68 349.76 L 702.73 329.20 L 709.77 308.32 L 716.82 287.33 L 723.86 266.44 L 730.91 245.85 L 737.95 225.77 L 745.00 206.40 L 752.05 187.94 L 759.09 170.56 L 766.14 154.46 L 773.18 139.77 L 780.23 126.66 L 787.27 115.24 L 794.32 105.65 L 801.36 97.96 L 808.41 92.27 L 815.45 88.62 L 822.50 87.05 L 829.55 87.58 L 836.59 90.20 L 843.64 94.89 L 850.68 101.59 L 857.73 110.25 L 864.77 120.78 " fill="none" fill-opacity="0.00" stroke="#FF6347" stroke-opacity="1.00" stroke-width="2.00" stroke-linecap="butt" stroke-linejoin="round" stroke-dasharray="7.40 3.20"/>
<path d="M 160.23 296.99 L 167.27 317.96 L 174.32 338.71 L 181.36 359.05 L 188.41 378.77 L 195.45 397.68 L 202.50 415.57 L 209.55 432.28 L 216.59 447.64 L 223.64 461.50 L 230.68 473.71 L 237.73 484.15 L 244.77 492.73 L 251.82 499.35 L 258.86 503.94 L 265.91 506.47 L 272.95 506.91 L 280.00 505.25 L 287.05 501.51 L 294.09 495.72 L 301.14 487.95 L 308.18 478.27 L 315.23 466.78 L 322.27 453.60 L 329.32 438.84 L 336.36 422.68 L 343.41 405.25 L 350.45 386.75 L 357.50 367.34 L 364.55 347.24 L 371.59 326.63 L 378.64 305.72 L 385.68 284.73 L 392.73 263.86 L 399.77 243.33 L 406.82 223.32 L 413.86 204.06 L 420.91 185.72 L 427.95 168.50 L 435.00 152.56 L 442.05 138.06 L 449.09 125.15 L 456.14 113.95 L 463.18 104.59 L 470.23 97.15 L 477.27 91.70 L 484.32 88.31 L 491.36 87.00 L 498.41 87.79 L 505.45 90.67 L 512.50 95.61 L 519.55 102.56 L 526.59 111.46 L 533.64 122.21 L 540.68 134.71 L 547.73 148.82 L 554.77 164.42 L 561.82 181.34 L 568.86 199.42 L 575.91 218.47 L 582.95 238.31 L 590.00 258.74 L 597.05 279.54 L 604.09 300.52 L 611.14 321.47 L 618.18 342.17 L 625.23 362.42 L 632.27 382.01 L 639.32 400.76 L 646.36 418.47 L 653.41 434.96 L 660.45 450.08 L 667.50 463.67 L 674.55 475.59 L 681.59 485.73 L 688.64 493.98 L 695.68 500.26 L 702.73 504.52 L 709.77 506.69 L 716.82 506.78 L 723.86 504.77 L 730.91 500.68 L 737.95 494.55 L 745.00 486.46 L 752.05 476.46 L 759.09 464.68 L 766.14 451.22 L 773.18 436.22 L 780.23 419.83 L 787.27 402.21 L 794.32 383.54 L 801.36 364.01 L 808.41 343.80 L 815.45 323.13 L 822.50 302.19 L 829.55 281.21 L 836.59 260.38 L 843.64 239.92 L 850.68 220.03 L 857.73 200.91 L 864.77 182.74 " fill="none" fill-opacity="0.00" stroke="#4682B4" stroke-opacity="1.00" stroke-width="2.00" stroke-linecap="square" stroke-linejoin="round"/>
<text font-family="DejaVu Sans" font-size="16.67" fill="#000000" fill-opacity="1.00" text-anchor="middle" transform="translate(512.50,537.33) scale(1,-1)">Multiple Lines — Different Styles</text>
<path d="M 754.25 433.56 L 893.06 433.56 L 893.06 521.06 L 754.25 521.06 L 754.25 433.56 Z " fill="#FFFFFF" fill-opacity="0.80" stroke="#CCCCCC" stroke-opacity="1.00" stroke-width="0.80" stroke-linecap="butt" stroke-linejoin="miter"/>
<path d="M 759.80 508.56 L 787.58 508.56 " fill="none" fill-opacity="0.00" stroke="#4682B4" stroke-opacity="1.00" stroke-width="2.00" stroke-linecap="butt" stroke-linejoin="miter"/>
<text font-family="DejaVu Sans" font-size="13.89" fill="#000000" fill-opacity="1.00" text-anchor="start" dominant-baseline="central" transform="translate(798.69,508.56) scale(1,-1)">sin(x)</text>
<path d="M 759.80 487.72 L 787.58 487.72 " fill="none" fill-opacity="0.00" stroke="#FF6347" stroke-opacity="1.00" stroke-width="2.00" stroke-linecap="butt" stroke-linejoin="miter" stroke-dasharray="7.40 3.20"/>
<text font-family="DejaVu Sans" font-size="13.89" fill="#000000" fill-opacity="1.00" text-anchor="start" dominant-baseline="central" transform="translate(798.69,487.72) scale(1,-1)">cos(x)</text>
<path d="M 759.80 466.89 L 787.58 466.89 " fill="none" fill-opacity="0.00" stroke="#228B22" stroke-opacity="1.00" stroke-width="2.50" stroke-linecap="butt" stroke-linejoin="miter" stroke-dasharray="2.50 4.13"/>
<text font-family="DejaVu Sans" font-size="13.89" fill="#000000" fill-opacity="1.00" text-anchor="start" dominant-baseline="central" transform="translate(798.69,466.89) scale(1,-1)">0.5*sin(2x)</text>
<path d="M 759.80 446.06 L 787.58 446.06 " fill="none" fill-opacity="0.00" stroke="#FF8C00" stroke-opacity="1.00" stroke-width="2.00" stroke-linecap="butt" stroke-linejoin="miter" stroke-dasharray="12.80 3.20 2.00 3.20"/>
<text font-family="DejaVu Sans" font-size="13.89" fill="#000000" fill-opacity="1.00" text-anchor="start" dominant-baseline="central" transform="translate(798.69,446.06) scale(1,-1)">0.5*cos(2x)</text>
<path d="M 160.50 66.00 L 160.50 61.14 " fill="none" fill-opacity="0.00" stroke="#000000" stroke-opacity="1.00" stroke-width="0.80" stroke-linecap="butt" stroke-linejoin="miter"/>
<text font-family="DejaVu Sans" font-size="13.89" fill="#000000" fill-opacity="1.00" text-anchor="middle" dominant-baseline="text-before-edge" transform="translate(160.23,56.28) scale(1,-1)">0</text>
<path d="M 301.50 66.00 L 301.50 61.14 " fill="none" fill-opacity="0.00" stroke="#000000" stroke-opacity="1.00" stroke-width="0.80" stroke-linecap="butt" stroke-linejoin="miter"/>
<text font-family="DejaVu Sans" font-size="13.89" fill="#000000" fill-opacity="1.00" text-anchor="middle" dominant-baseline="text-before-edge" transform="translate(301.14,56.28) scale(1,-1)">2</text>
<path d="M 442.50 66.00 L 442.50 61.14 " fill="none" fill-opacity="0.00" stroke="#000000" stroke-opacity="1.00" stroke-width="0.80" stroke-linecap="butt" stroke-linejoin="miter"/>
<text font-family="DejaVu Sans" font-size="13.89" fill="#000000" fill-opacity="1.00" text-anchor="middle" dominant-baseline="text-before-edge" transform="translate(442.05,56.28) scale(1,-1)">4</text>
<path d="M 583.50 66.00 L 583.50 61.14 " fill="none" fill-opacity="0.00" stroke="#000000" stroke-opacity="1.00" stroke-width="0.80" stroke-linecap="butt" stroke-linejoin="miter"/>
<text font-family="DejaVu Sans" font-size="13.89" fill="#000000" fill-opacity="1.00" text-anchor="middle" dominant-baseline="text-before-edge" transform="translate(582.95,56.28) scale(1,-1)">6</text>
<path d="M 724.50 66.00 L 724.50 61.14 " fill="none" fill-opacity="0.00" stroke="#000000" stroke-opacity="1.00" stroke-width="0.80" stroke-linecap="butt" stroke-linejoin="miter"/>
<text font-family="DejaVu Sans" font-size="13.89" fill="#000000" fill-opacity="1.00" text-anchor="middle" dominant-baseline="text-before-edge" transform="translate(723.86,56.28) scale(1,-1)">8</text>
<path d="M 865.50 66.00 L 865.50 61.14 " fill="none" fill-opacity="0.00" stroke="#000000" stroke-opacity="1.00" stroke-width="0.80" stroke-linecap="butt" stroke-linejoin="miter"/>
<text font-family="DejaVu Sans" font-size="13.89" fill="#000000" fill-opacity="1.00" text-anchor="middle" dominant-baseline="text-before-edge" transform="translate(864.77,56.28) scale(1,-1)">10</text>
<text font-family="DejaVu Sans" font-size="13.89" fill="#000000" fill-opacity="1.00" text-anchor="middle" dominant-baseline="text-before-edge" transform="translate(512.50,37.17) scale(1,-1)">x</text>
<path d="M 125.00 86.50 L 120.14 86.50 " fill="none" fill-opacity="0.00" stroke="#000000" stroke-opacity="1.00" stroke-width="0.80" stroke-linecap="butt" stroke-linejoin="miter"/>
<text font-family="DejaVu Sans" font-size="13.89" fill="#000000" fill-opacity="1.00" text-anchor="end" dominant-baseline="central" transform="translate(115.28,86.98) scale(1,-1)">-1.00</text>
<path d="M 125.00 138.50 L 120.14 138.50 " fill="none" fill-opacity="0.00" stroke="#000000" stroke-opacity="1.00" stroke-width="0.80" stroke-linecap="butt" stroke-linejoin="miter"/>
<text font-family="DejaVu Sans" font-size="13.89" fill="#000000" fill-opacity="1.00" text-anchor="end" dominant-baseline="central" transform="translate(115.28,139.49) scale(1,-1)">-0.75</text>
<path d="M 125.00 191.50 L 120.14 191.50 " fill="none" fill-opacity="0.00" stroke="#000000" stroke-opacity="1.00" stroke-width="0.80" stroke-linecap="butt" stroke-linejoin="miter"/>
<text font-family="DejaVu Sans" font-size="13.89" fill="#000000" fill-opacity="1.00" text-anchor="end" dominant-baseline="central" transform="translate(115.28,191.99) scale(1,-1)">-0.50</text>
<path d="M 125.00 243.50 L 120.14 243.50 " fill="none" fill-opacity="0.00" stroke="#000000" stroke-opacity="1.00" stroke-width="0.80" stroke-linecap="butt" stroke-linejoin="miter"/>
<text font-family="DejaVu Sans" font-size="13.89" fill="#000000" fill-opacity="1.00" text-anchor="end" dominant-baseline="central" transform="translate(115.28,244.49) scale(1,-1)">-0.25</text>
<path d="M 125.00 296.50 L 120.14 296.50 " fill="none" fill-opacity="0.00" stroke="#000000" stroke-opacity="1.00" stroke-width="0.80" stroke-linecap="butt" stroke-linejoin="miter"/>
<text font-family="DejaVu Sans" font-size="13.89" fill="#000000" fill-opacity="1.00" text-anchor="end" dominant-baseline="central" transform="translate(115.28,296.99) scale(1,-1)">0.00</text>
<path d="M 125.00 348.50 L 120.14 348.50 " fill="none" fill-opacity="0.00" stroke="#000000" stroke-opacity="1.00" stroke-width="0.80" stroke-linecap="butt" stroke-linejoin="miter"/>
<text font-family="DejaVu Sans" font-size="13.89" fill="#000000" fill-opacity="1.00" text-anchor="end" dominant-baseline="central" transform="translate(115.28,349.49) scale(1,-1)">0.25</text>
<path d="M 125.00 401.50 L 120.14 401.50 " fill="none" fill-opacity="0.00" stroke="#000000" stroke-opacity="1.00" stroke-width="0.80" stroke-linecap="butt" stroke-linejoin="miter"/>
<text font-family="DejaVu Sans" font-size="13.89" fill="#000000" fill-opacity="1.00" text-anchor="end" dominant-baseline="central" transform="translate(115.28,402.00) scale(1,-1)">0.50</text>
<path d="M 125.00 453.50 L 120.14 453.50 " fill="none" fill-opacity="0.00" stroke="#000000" stroke-opacity="1.00" stroke-width="0.80" stroke-linecap="butt" stroke-linejoin="miter"/>
<text font-family="DejaVu Sans" font-size="13.89" fill="#000000" fill-opacity="1.00" text-anchor="end" dominant-baseline="central" transform="translate(115.28,454.50) scale(1,-1)">0.75</text>
<path d="M 125.00 506.50 L 120.14 506.50 " fill="none" fill-opacity="0.00" stroke="#000000" stroke-opacity="1.00" stroke-width="0.80" stroke-linecap="butt" stroke-linejoin="miter"/>
<text font-family="DejaVu Sans" font-size="13.89" fill="#000000" fill-opacity="1.00" text-anchor="end" dominant-baseline="central" transform="translate(115.28,507.00) scale(1,-1)">1.00</text>
<text font-family="DejaVu Sans" font-size="13.89" fill="#000000" fill-opacity="1.00" text-anchor="middle" transform="translate(60.68,297.00) rotate(-90.00) scale(1,-1)">y</text>
<path d="M 125.50 66.00 L 125.50 528.00 " fill="none" fill-opacity="0.00" stroke="#000000" stroke-opacity="1.00" stroke-width="0.80" stroke-linecap="square" stroke-linejoin="miter"/>
<path d="M 900.50 66.00 L 900.50 528.00 " fill="none" fill-opacity="0.00" stroke="#000000" stroke-opacity="1.00" stroke-width="0.80" stroke-linecap="square" stroke-linejoin="miter"/>
<path d="M 125.00 65.50 L 900.00 65.50 " fill="none" fill-opacity="0.00" stroke="#000000" stroke-opacity="1.00" stroke-width="0.80" stroke-linecap="square" stroke-linejoin="miter"/>
<path d="M 125.00 527.50 L 900.00 527.50 " fill="none" fill-opacity="0.00" stroke="#000000" stroke-opacity="1.00" stroke-width="0.80" stroke-linecap="square" stroke-linejoin="miter"/>
<path d="M 754.25 433.56 L 893.06 433.56 L 893.06 521.06 L 754.25 521.06 L 754.25 433.56 Z " fill="#FFFFFF" fill-opacity="0.80" stroke="#CCCCCC" stroke-opacity="1.00" stroke-width="0.80" stroke-linecap="butt" stroke-linejoin="miter"/>
<path d="M 759.80 508.56 L 787.58 508.56 " fill="none" fill-opacity="0.00" stroke="#4682B4" stroke-opacity="1.00" stroke-width="2.00" stroke-linecap="butt" stroke-linejoin="miter"/>
<text font-family="DejaVu Sans" font-size="13.89" fill="#000000" fill-opacity="1.00" text-anchor="start" dominant-baseline="central" transform="translate(798.69,508.56) scale(1,-1)">sin(x)</text>
<path d="M 759.80 487.72 L 787.58 487.72 " fill="none" fill-opacity="0.00" stroke="#FF6347" stroke-opacity="1.00" stroke-width="2.00" stroke-linecap="butt" stroke-linejoin="miter" stroke-dasharray="7.40 3.20"/>
<text font-family="DejaVu Sans" font-size="13.89" fill="#000000" fill-opacity="1.00" text-anchor="start" dominant-baseline="central" transform="translate(798.69,487.72) scale(1,-1)">cos(x)</text>
<path d="M 759.80 466.89 L 787.58 466.89 " fill="none" fill-opacity="0.00" stroke="#228B22" stroke-opacity="1.00" stroke-width="2.50" stroke-linecap="butt" stroke-linejoin="miter" stroke-dasharray="2.50 4.13"/>
<text font-family="DejaVu Sans" font-size="13.89" fill="#000000" fill-opacity="1.00" text-anchor="start" dominant-baseline="central" transform="translate(798.69,466.89) scale(1,-1)">0.5*sin(2x)</text>
<path d="M 759.80 446.06 L 787.58 446.06 " fill="none" fill-opacity="0.00" stroke="#FF8C00" stroke-opacity="1.00" stroke-width="2.00" stroke-linecap="butt" stroke-linejoin="miter" stroke-dasharray="12.80 3.20 2.00 3.20"/>
<text font-family="DejaVu Sans" font-size="13.89" fill="#000000" fill-opacity="1.00" text-anchor="start" dominant-baseline="central" transform="translate(798.69,446.06) scale(1,-1)">0.5*cos(2x)</text>
</g>
</svg>
