<?xml version="1.0" encoding="UTF-8"?>
<svg xmlns="http://www.w3.org/2000/svg"
     xmlns:xlink="http://www.w3.org/1999/xlink"
     width="700" height="700" viewBox="0 0 700 700">
<defs>
</defs>
<g transform="translate(0,700) scale(1,-1)">
<rect width="700" height="700" fill="white"/>
<path d="M 0.00 0.00 L 700.00 0.00 L 700.00 700.00 L 0.00 700.00 L 0.00 0.00 Z " fill="#FFFFFF" fill-opacity="1.00" stroke="#000000" stroke-opacity="1.00" stroke-width="0.00" stroke-linecap="butt" stroke-linejoin="miter"/>
<path d="M 358.75 346.50 L 425.37 551.55 C 414.63 555.04 403.63 557.68 392.48 559.45 C 381.32 561.21 370.04 562.10 358.75 562.10 L 358.75 346.50 Z " fill="#9370DB" fill-opacity="1.00" stroke="#000000" stroke-opacity="1.00" stroke-width="0.00" stroke-linecap="butt" stroke-linejoin="miter"/>
<path d="M 358.75 346.50 L 563.80 413.12 C 553.28 445.48 535.26 474.89 511.20 498.95 C 487.14 523.01 457.73 541.03 425.37 551.55 L 358.75 346.50 Z " fill="#DAA520" fill-opacity="1.00" stroke="#000000" stroke-opacity="1.00" stroke-width="0.00" stroke-linecap="butt" stroke-linejoin="miter"/>
<path d="M 358.75 346.50 L 485.48 172.08 C 522.31 198.83 549.73 236.58 563.80 279.88 C 577.87 323.17 577.87 369.83 563.80 413.12 L 358.75 346.50 Z " fill="#2E8B57" fill-opacity="1.00" stroke="#000000" stroke-opacity="1.00" stroke-width="0.00" stroke-linecap="butt" stroke-linejoin="miter"/>
<path d="M 358.75 346.50 L 184.33 219.77 C 217.92 173.53 268.57 142.50 325.02 133.55 C 381.48 124.61 439.23 138.48 485.48 172.08 L 358.75 346.50 Z " fill="#FF6347" fill-opacity="1.00" stroke="#000000" stroke-opacity="1.00" stroke-width="0.00" stroke-linecap="butt" stroke-linejoin="miter"/>
<path d="M 358.75 346.50 L 358.75 562.10 C 318.99 562.10 280.00 551.10 246.10 530.33 C 212.20 509.56 184.70 479.80 166.65 444.38 C 148.60 408.96 140.70 369.22 143.81 329.58 C 146.93 289.95 160.96 251.94 184.33 219.77 L 358.75 346.50 Z " fill="#4682B4" fill-opacity="1.00" stroke="#000000" stroke-opacity="1.00" stroke-width="0.00" stroke-linecap="butt" stroke-linejoin="miter"/>
<text font-family="DejaVu Sans" font-size="13.89" fill="#000000" fill-opacity="1.00" text-anchor="middle" dominant-baseline="central" transform="translate(395.85,580.74) scale(1,-1)">Other</text>
<text font-family="DejaVu Sans" font-size="13.89" fill="#000000" fill-opacity="1.00" text-anchor="middle" dominant-baseline="central" transform="translate(526.45,514.20) scale(1,-1)">C++</text>
<text font-family="DejaVu Sans" font-size="13.89" fill="#000000" fill-opacity="1.00" text-anchor="middle" dominant-baseline="central" transform="translate(584.30,273.21) scale(1,-1)">Java</text>
<text font-family="DejaVu Sans" font-size="13.89" fill="#000000" fill-opacity="1.00" text-anchor="middle" dominant-baseline="central" transform="translate(321.65,112.26) scale(1,-1)">JavaScript</text>
<text font-family="DejaVu Sans" font-size="13.89" fill="#000000" fill-opacity="1.00" text-anchor="middle" dominant-baseline="central" transform="translate(147.44,454.17) scale(1,-1)">Python</text>
<text font-family="DejaVu Sans" font-size="16.67" fill="#000000" fill-opacity="1.00" text-anchor="middle" transform="translate(358.75,625.33) scale(1,-1)">Market Share</text>
</g>
</svg>
