<?xml version="1.0" encoding="UTF-8"?>
<svg xmlns="http://www.w3.org/2000/svg"
     xmlns:xlink="http://www.w3.org/1999/xlink"
     width="640" height="480" viewBox="0 0 640 480">
<defs>
</defs>
<g transform="translate(0,480) scale(1,-1)">
<rect width="640" height="480" fill="white"/>
<path d="M 0.00 0.00 L 640.00 0.00 L 640.00 480.00 L 0.00 480.00 L 0.00 0.00 Z " fill="#FFFFFF" fill-opacity="1.00" stroke="#000000" stroke-opacity="1.00" stroke-width="0.00" stroke-linecap="butt" stroke-linejoin="miter"/>
<path d="M 512.80 237.60 C 512.80 261.87 508.02 285.90 498.73 308.32 C 489.45 330.74 475.83 351.11 458.67 368.27 C 441.51 385.43 421.14 399.05 398.72 408.33 C 376.30 417.62 352.27 422.40 328.00 422.40 C 303.73 422.40 279.70 417.62 257.28 408.33 C 234.86 399.05 214.49 385.43 197.33 368.27 C 180.17 351.11 166.55 330.74 157.27 308.32 C 147.98 285.90 143.20 261.87 143.20 237.60 C 143.20 213.33 147.98 189.30 157.27 166.88 C 166.55 144.46 180.17 124.09 197.33 106.93 C 214.49 89.77 234.86 76.15 257.28 66.87 C 279.70 57.58 303.73 52.80 328.00 52.80 C 352.27 52.80 376.30 57.58 398.72 66.87 C 421.14 76.15 441.51 89.77 458.67 106.93 C 475.83 124.09 489.45 144.46 498.73 166.88 C 508.02 189.30 512.80 213.33 512.80 237.60 " fill="#FFFFFF" fill-opacity="1.00" stroke="none" stroke-opacity="0.00" stroke-width="0.00" stroke-linecap="butt" stroke-linejoin="miter"/>
<path d="M 374.20 237.60 C 374.20 243.67 373.00 249.67 370.68 255.28 C 368.36 260.89 364.96 265.98 360.67 270.27 C 356.38 274.56 351.29 277.96 345.68 280.28 C 340.07 282.60 334.07 283.80 328.00 283.80 C 321.93 283.80 315.93 282.60 310.32 280.28 C 304.71 277.96 299.62 274.56 295.33 270.27 C 291.04 265.98 287.64 260.89 285.32 255.28 C 283.00 249.67 281.80 243.67 281.80 237.60 C 281.80 231.53 283.00 225.53 285.32 219.92 C 287.64 214.31 291.04 209.22 295.33 204.93 C 299.62 200.64 304.71 197.24 310.32 194.92 C 315.93 192.60 321.93 191.40 328.00 191.40 C 334.07 191.40 340.07 192.60 345.68 194.92 C 351.29 197.24 356.38 200.64 360.67 204.93 C 364.96 209.22 368.36 214.31 370.68 219.92 C 373.00 225.53 374.20 231.53 374.20 237.60 " fill="none" fill-opacity="0.00" stroke="#CCCCCC" stroke-opacity="1.00" stroke-width="0.50" stroke-linecap="butt" stroke-linejoin="miter"/>
<path d="M 420.40 237.60 C 420.40 249.73 418.01 261.75 413.37 272.96 C 408.72 284.17 401.92 294.36 393.34 302.94 C 384.76 311.52 374.57 318.32 363.36 322.97 C 352.15 327.61 340.13 330.00 328.00 330.00 C 315.87 330.00 303.85 327.61 292.64 322.97 C 281.43 318.32 271.24 311.52 262.66 302.94 C 254.08 294.36 247.28 284.17 242.63 272.96 C 237.99 261.75 235.60 249.73 235.60 237.60 C 235.60 225.47 237.99 213.45 242.63 202.24 C 247.28 191.03 254.08 180.84 262.66 172.26 C 271.24 163.68 281.43 156.88 292.64 152.23 C 303.85 147.59 315.87 145.20 328.00 145.20 C 340.13 145.20 352.15 147.59 363.36 152.23 C 374.57 156.88 384.76 163.68 393.34 172.26 C 401.92 180.84 408.72 191.03 413.37 202.24 C 418.01 213.45 420.40 225.47 420.40 237.60 " fill="none" fill-opacity="0.00" stroke="#CCCCCC" stroke-opacity="1.00" stroke-width="0.50" stroke-linecap="butt" stroke-linejoin="miter"/>
<path d="M 466.60 237.60 C 466.60 255.80 463.01 273.82 456.05 290.64 C 449.08 307.46 438.87 322.74 426.00 335.60 C 413.14 348.47 397.86 358.68 381.04 365.65 C 364.22 372.61 346.20 376.20 328.00 376.20 C 309.80 376.20 291.78 372.61 274.96 365.65 C 258.14 358.68 242.86 348.47 230.00 335.60 C 217.13 322.74 206.92 307.46 199.95 290.64 C 192.99 273.82 189.40 255.80 189.40 237.60 C 189.40 219.40 192.99 201.38 199.95 184.56 C 206.92 167.74 217.13 152.46 230.00 139.60 C 242.86 126.73 258.14 116.52 274.96 109.55 C 291.78 102.59 309.80 99.00 328.00 99.00 C 346.20 99.00 364.22 102.59 381.04 109.55 C 397.86 116.52 413.14 126.73 426.00 139.60 C 438.87 152.46 449.08 167.74 456.05 184.56 C 463.01 201.38 466.60 219.40 466.60 237.60 " fill="none" fill-opacity="0.00" stroke="#CCCCCC" stroke-opacity="1.00" stroke-width="0.50" stroke-linecap="butt" stroke-linejoin="miter"/>
<path d="M 512.80 237.60 C 512.80 261.87 508.02 285.90 498.73 308.32 C 489.45 330.74 475.83 351.11 458.67 368.27 C 441.51 385.43 421.14 399.05 398.72 408.33 C 376.30 417.62 352.27 422.40 328.00 422.40 C 303.73 422.40 279.70 417.62 257.28 408.33 C 234.86 399.05 214.49 385.43 197.33 368.27 C 180.17 351.11 166.55 330.74 157.27 308.32 C 147.98 285.90 143.20 261.87 143.20 237.60 C 143.20 213.33 147.98 189.30 157.27 166.88 C 166.55 144.46 180.17 124.09 197.33 106.93 C 214.49 89.77 234.86 76.15 257.28 66.87 C 279.70 57.58 303.73 52.80 328.00 52.80 C 352.27 52.80 376.30 57.58 398.72 66.87 C 421.14 76.15 441.51 89.77 458.67 106.93 C 475.83 124.09 489.45 144.46 498.73 166.88 C 508.02 189.30 512.80 213.33 512.80 237.60 " fill="none" fill-opacity="0.00" stroke="#CCCCCC" stroke-opacity="1.00" stroke-width="0.50" stroke-linecap="butt" stroke-linejoin="miter"/>
<path d="M 328.50 238.50 L 513.50 238.50 " fill="none" fill-opacity="0.00" stroke="#CCCCCC" stroke-opacity="1.00" stroke-width="0.50" stroke-linecap="butt" stroke-linejoin="miter"/>
<path d="M 328.00 237.60 L 458.67 368.27 " fill="none" fill-opacity="0.00" stroke="#CCCCCC" stroke-opacity="1.00" stroke-width="0.50" stroke-linecap="butt" stroke-linejoin="miter"/>
<path d="M 328.50 238.50 L 328.50 422.50 " fill="none" fill-opacity="0.00" stroke="#CCCCCC" stroke-opacity="1.00" stroke-width="0.50" stroke-linecap="butt" stroke-linejoin="miter"/>
<path d="M 328.00 237.60 L 197.33 368.27 " fill="none" fill-opacity="0.00" stroke="#CCCCCC" stroke-opacity="1.00" stroke-width="0.50" stroke-linecap="butt" stroke-linejoin="miter"/>
<path d="M 328.50 238.50 L 143.50 238.50 " fill="none" fill-opacity="0.00" stroke="#CCCCCC" stroke-opacity="1.00" stroke-width="0.50" stroke-linecap="butt" stroke-linejoin="miter"/>
<path d="M 328.00 237.60 L 197.33 106.93 " fill="none" fill-opacity="0.00" stroke="#CCCCCC" stroke-opacity="1.00" stroke-width="0.50" stroke-linecap="butt" stroke-linejoin="miter"/>
<path d="M 328.50 238.50 L 328.50 53.50 " fill="none" fill-opacity="0.00" stroke="#CCCCCC" stroke-opacity="1.00" stroke-width="0.50" stroke-linecap="butt" stroke-linejoin="miter"/>
<path d="M 328.00 237.60 L 458.67 106.93 " fill="none" fill-opacity="0.00" stroke="#CCCCCC" stroke-opacity="1.00" stroke-width="0.50" stroke-linecap="butt" stroke-linejoin="miter"/>
<path d="M 564.19 237.60 L 563.70 240.36 L 562.21 243.08 L 559.75 245.74 L 556.32 248.30 L 551.94 250.73 L 546.63 253.00 L 540.42 255.08 L 533.34 256.93 L 525.43 258.54 L 516.73 259.87 L 507.28 260.92 L 497.13 261.64 L 486.32 262.03 L 474.93 262.07 L 462.99 261.75 L 450.58 261.05 L 437.75 259.97 L 424.57 258.51 L 411.10 256.65 L 397.41 254.41 L 383.57 251.78 L 369.64 248.77 L 355.69 245.40 L 341.79 241.67 L 328.00 237.60 L 341.61 241.99 L 354.98 246.68 L 368.05 251.64 L 380.75 256.86 L 393.03 262.29 L 404.84 267.92 L 416.13 273.70 L 426.84 279.61 L 436.93 285.61 L 446.37 291.65 L 455.12 297.71 L 463.14 303.75 L 470.40 309.71 L 476.89 315.58 L 482.59 321.29 L 487.47 326.82 L 491.54 332.13 L 494.79 337.17 L 497.21 341.91 L 498.81 346.31 L 499.60 350.33 L 499.60 353.95 L 498.82 357.13 L 497.28 359.84 L 495.01 362.05 L 492.04 363.74 L 488.41 364.89 L 484.14 365.47 L 479.29 365.47 L 473.89 364.88 L 467.98 363.69 L 461.62 361.88 L 454.86 359.47 L 447.74 356.43 L 440.32 352.79 L 432.64 348.55 L 424.78 343.71 L 416.77 338.30 L 408.67 332.32 L 400.54 325.81 L 392.42 318.77 L 384.38 311.25 L 376.45 303.27 L 368.69 294.86 L 361.14 286.06 L 353.84 276.91 L 346.84 267.44 L 340.18 257.70 L 333.89 247.74 L 328.00 237.60 L 333.46 247.88 L 338.46 258.23 L 342.99 268.63 L 347.03 279.01 L 350.55 289.33 L 353.57 299.53 L 356.06 309.56 L 358.02 319.38 L 359.47 328.94 L 360.41 338.19 L 360.84 347.08 L 360.79 355.58 L 360.26 363.63 L 359.29 371.19 L 357.89 378.23 L 356.10 384.72 L 353.94 390.61 L 351.45 395.89 L 348.67 400.51 L 345.62 404.47 L 342.36 407.73 L 338.93 410.29 L 335.36 412.13 L 331.70 413.23 L 328.00 413.60 L 324.30 413.23 L 320.64 412.13 L 317.07 410.29 L 313.64 407.73 L 310.38 404.47 L 307.33 400.51 L 304.55 395.89 L 302.06 390.61 L 299.90 384.72 L 298.11 378.23 L 296.71 371.19 L 295.74 363.63 L 295.21 355.58 L 295.16 347.08 L 295.59 338.19 L 296.53 328.94 L 297.98 319.38 L 299.94 309.56 L 302.43 299.53 L 305.45 289.33 L 308.97 279.01 L 313.01 268.63 L 317.54 258.23 L 322.54 247.88 L 328.00 237.60 L 322.11 247.74 L 315.82 257.70 L 309.16 267.44 L 302.16 276.91 L 294.86 286.06 L 287.31 294.86 L 279.55 303.27 L 271.62 311.25 L 263.58 318.77 L 255.46 325.81 L 247.33 332.32 L 239.23 338.30 L 231.22 343.71 L 223.36 348.55 L 215.68 352.79 L 208.26 356.43 L 201.14 359.47 L 194.38 361.88 L 188.02 363.69 L 182.11 364.88 L 176.71 365.47 L 171.86 365.47 L 167.59 364.89 L 163.96 363.74 L 160.99 362.05 L 158.72 359.84 L 157.18 357.13 L 156.40 353.95 L 156.40 350.33 L 157.19 346.31 L 158.79 341.91 L 161.21 337.17 L 164.46 332.13 L 168.53 326.82 L 173.41 321.29 L 179.11 315.58 L 185.60 309.71 L 192.86 303.75 L 200.88 297.71 L 209.63 291.65 L 219.07 285.61 L 229.16 279.61 L 239.87 273.70 L 251.16 267.92 L 262.97 262.29 L 275.25 256.86 L 287.95 251.64 L 301.02 246.68 L 314.39 241.99 L 328.00 237.60 L 314.21 241.67 L 300.31 245.40 L 286.36 248.77 L 272.43 251.78 L 258.59 254.41 L 244.90 256.65 L 231.43 258.51 L 218.25 259.97 L 205.42 261.05 L 193.01 261.75 L 181.07 262.07 L 169.68 262.03 L 158.87 261.64 L 148.72 260.92 L 139.27 259.87 L 130.57 258.54 L 122.66 256.93 L 115.58 255.08 L 109.37 253.00 L 104.06 250.73 L 99.68 248.30 L 96.25 245.74 L 93.79 243.08 L 92.30 240.36 L 91.81 237.60 L 92.30 234.84 L 93.79 232.12 L 96.25 229.46 L 99.68 226.90 L 104.06 224.47 L 109.37 222.20 L 115.58 220.12 L 122.66 218.27 L 130.57 216.66 L 139.27 215.33 L 148.72 214.28 L 158.87 213.56 L 169.68 213.17 L 181.07 213.13 L 193.01 213.45 L 205.42 214.15 L 218.25 215.23 L 231.43 216.69 L 244.90 218.55 L 258.59 220.79 L 272.43 223.42 L 286.36 226.43 L 300.31 229.80 L 314.21 233.53 L 328.00 237.60 L 314.39 233.21 L 301.02 228.52 L 287.95 223.56 L 275.25 218.34 L 262.97 212.91 L 251.16 207.28 L 239.87 201.50 L 229.16 195.59 L 219.07 189.59 L 209.63 183.55 L 200.88 177.49 L 192.86 171.45 L 185.60 165.49 L 179.11 159.62 L 173.41 153.91 L 168.53 148.38 L 164.46 143.07 L 161.21 138.03 L 158.79 133.29 L 157.19 128.89 L 156.40 124.87 L 156.40 121.25 L 157.18 118.07 L 158.72 115.36 L 160.99 113.15 L 163.96 111.46 L 167.59 110.31 L 171.86 109.73 L 176.71 109.73 L 182.11 110.32 L 188.02 111.51 L 194.38 113.32 L 201.14 115.73 L 208.26 118.77 L 215.68 122.41 L 223.36 126.65 L 231.22 131.49 L 239.23 136.90 L 247.33 142.88 L 255.46 149.39 L 263.58 156.43 L 271.62 163.95 L 279.55 171.93 L 287.31 180.34 L 294.86 189.14 L 302.16 198.29 L 309.16 207.76 L 315.82 217.50 L 322.11 227.46 L 328.00 237.60 L 322.54 227.32 L 317.54 216.97 L 313.01 206.57 L 308.97 196.19 L 305.45 185.87 L 302.43 175.67 L 299.94 165.64 L 297.98 155.82 L 296.53 146.26 L 295.59 137.01 L 295.16 128.12 L 295.21 119.62 L 295.74 111.57 L 296.71 104.01 L 298.11 96.97 L 299.90 90.48 L 302.06 84.59 L 304.55 79.31 L 307.33 74.69 L 310.38 70.73 L 313.64 67.47 L 317.07 64.91 L 320.64 63.07 L 324.30 61.97 L 328.00 61.60 L 331.70 61.97 L 335.36 63.07 L 338.93 64.91 L 342.36 67.47 L 345.62 70.73 L 348.67 74.69 L 351.45 79.31 L 353.94 84.59 L 356.10 90.48 L 357.89 96.97 L 359.29 104.01 L 360.26 111.57 L 360.79 119.62 L 360.84 128.12 L 360.41 137.01 L 359.47 146.26 L 358.02 155.82 L 356.06 165.64 L 353.57 175.67 L 350.55 185.87 L 347.03 196.19 L 342.99 206.57 L 338.46 216.97 L 333.46 227.32 L 328.00 237.60 L 333.89 227.46 L 340.18 217.50 L 346.84 207.76 L 353.84 198.29 L 361.14 189.14 L 368.69 180.34 L 376.45 171.93 L 384.38 163.95 L 392.42 156.43 L 400.54 149.39 L 408.67 142.88 L 416.77 136.90 L 424.78 131.49 L 432.64 126.65 L 440.32 122.41 L 447.74 118.77 L 454.86 115.73 L 461.62 113.32 L 467.98 111.51 L 473.89 110.32 L 479.29 109.73 L 484.14 109.73 L 488.41 110.31 L 492.04 111.46 L 495.01 113.15 L 497.28 115.36 L 498.82 118.07 L 499.60 121.25 L 499.60 124.87 L 498.81 128.89 L 497.21 133.29 L 494.79 138.03 L 491.54 143.07 L 487.47 148.38 L 482.59 153.91 L 476.89 159.62 L 470.40 165.49 L 463.14 171.45 L 455.12 177.49 L 446.37 183.55 L 436.93 189.59 L 426.84 195.59 L 416.13 201.50 L 404.84 207.28 L 393.03 212.91 L 380.75 218.34 L 368.05 223.56 L 354.98 228.52 L 341.61 233.21 L 328.00 237.60 L 341.79 233.53 L 355.69 229.80 L 369.64 226.43 L 383.57 223.42 L 397.41 220.79 L 411.10 218.55 L 424.57 216.69 L 437.75 215.23 L 450.58 214.15 L 462.99 213.45 L 474.93 213.13 L 486.32 213.17 L 497.13 213.56 L 507.28 214.28 L 516.73 215.33 L 525.43 216.66 L 533.34 218.27 L 540.42 220.12 L 546.63 222.20 L 551.94 224.47 L 556.32 226.90 L 559.75 229.46 L 562.21 232.12 L 563.70 234.84 L 564.19 237.60 " fill="none" fill-opacity="0.00" stroke="#FF7F0E" stroke-opacity="1.00" stroke-width="1.50" stroke-linecap="square" stroke-linejoin="round"/>
<text font-family="DejaVu Sans" font-size="16.67" fill="#000000" fill-opacity="1.00" text-anchor="middle" transform="translate(328.00,431.73) scale(1,-1)">Rose Curve: r = |cos(4θ)|</text>
<path d="M 512.80 237.60 C 512.80 261.87 508.02 285.90 498.73 308.32 C 489.45 330.74 475.83 351.11 458.67 368.27 C 441.51 385.43 421.14 399.05 398.72 408.33 C 376.30 417.62 352.27 422.40 328.00 422.40 C 303.73 422.40 279.70 417.62 257.28 408.33 C 234.86 399.05 214.49 385.43 197.33 368.27 C 180.17 351.11 166.55 330.74 157.27 308.32 C 147.98 285.90 143.20 261.87 143.20 237.60 C 143.20 213.33 147.98 189.30 157.27 166.88 C 166.55 144.46 180.17 124.09 197.33 106.93 C 214.49 89.77 234.86 76.15 257.28 66.87 C 279.70 57.58 303.73 52.80 328.00 52.80 C 352.27 52.80 376.30 57.58 398.72 66.87 C 421.14 76.15 441.51 89.77 458.67 106.93 C 475.83 124.09 489.45 144.46 498.73 166.88 C 508.02 189.30 512.80 213.33 512.80 237.60 " fill="none" fill-opacity="0.00" stroke="#000000" stroke-opacity="1.00" stroke-width="1.00" stroke-linecap="butt" stroke-linejoin="miter"/>
<text font-family="DejaVu Sans" font-size="11.11" fill="#000000" fill-opacity="1.00" text-anchor="middle" dominant-baseline="central" transform="translate(527.58,237.60) scale(1,-1)">0°</text>
<text font-family="DejaVu Sans" font-size="11.11" fill="#000000" fill-opacity="1.00" text-anchor="middle" dominant-baseline="central" transform="translate(469.13,378.73) scale(1,-1)">45°</text>
<text font-family="DejaVu Sans" font-size="11.11" fill="#000000" fill-opacity="1.00" text-anchor="middle" dominant-baseline="central" transform="translate(328.00,437.18) scale(1,-1)">90°</text>
<text font-family="DejaVu Sans" font-size="11.11" fill="#000000" fill-opacity="1.00" text-anchor="middle" dominant-baseline="central" transform="translate(186.87,378.73) scale(1,-1)">135°</text>
<text font-family="DejaVu Sans" font-size="11.11" fill="#000000" fill-opacity="1.00" text-anchor="middle" dominant-baseline="central" transform="translate(128.42,237.60) scale(1,-1)">180°</text>
<text font-family="DejaVu Sans" font-size="11.11" fill="#000000" fill-opacity="1.00" text-anchor="middle" dominant-baseline="central" transform="translate(186.87,96.47) scale(1,-1)">225°</text>
<text font-family="DejaVu Sans" font-size="11.11" fill="#000000" fill-opacity="1.00" text-anchor="middle" dominant-baseline="central" transform="translate(328.00,38.02) scale(1,-1)">270°</text>
<text font-family="DejaVu Sans" font-size="11.11" fill="#000000" fill-opacity="1.00" text-anchor="middle" dominant-baseline="central" transform="translate(469.13,96.47) scale(1,-1)">315°</text>
<text font-family="DejaVu Sans" font-size="9.72" fill="#000000" fill-opacity="1.00" text-anchor="middle" dominant-baseline="text-after-edge" transform="translate(374.20,242.60) scale(1,-1)">0.26    </text>
<text font-family="DejaVu Sans" font-size="9.72" fill="#000000" fill-opacity="1.00" text-anchor="middle" dominant-baseline="text-after-edge" transform="translate(420.40,242.60) scale(1,-1)">0.53    </text>
<text font-family="DejaVu Sans" font-size="9.72" fill="#000000" fill-opacity="1.00" text-anchor="middle" dominant-baseline="text-after-edge" transform="translate(466.60,242.60) scale(1,-1)">0.79    </text>
<text font-family="DejaVu Sans" font-size="9.72" fill="#000000" fill-opacity="1.00" text-anchor="middle" dominant-baseline="text-after-edge" transform="translate(512.80,242.60) scale(1,-1)">1.1    </text>
</g>
</svg>
