<?xml version="1.0" encoding="UTF-8"?>
<svg xmlns="http://www.w3.org/2000/svg"
     xmlns:xlink="http://www.w3.org/1999/xlink"
     width="640" height="480" viewBox="0 0 640 480">
<defs>
</defs>
<g transform="translate(0,480) scale(1,-1)">
<rect width="640" height="480" fill="white"/>
<path d="M 0.00 0.00 L 640.00 0.00 L 640.00 480.00 L 0.00 480.00 L 0.00 0.00 Z " fill="#FFFFFF" fill-opacity="1.00" stroke="#000000" stroke-opacity="1.00" stroke-width="0.00" stroke-linecap="butt" stroke-linejoin="miter"/>
<path d="M 512.80 237.60 C 512.80 261.87 508.02 285.90 498.73 308.32 C 489.45 330.74 475.83 351.11 458.67 368.27 C 441.51 385.43 421.14 399.05 398.72 408.33 C 376.30 417.62 352.27 422.40 328.00 422.40 C 303.73 422.40 279.70 417.62 257.28 408.33 C 234.86 399.05 214.49 385.43 197.33 368.27 C 180.17 351.11 166.55 330.74 157.27 308.32 C 147.98 285.90 143.20 261.87 143.20 237.60 C 143.20 213.33 147.98 189.30 157.27 166.88 C 166.55 144.46 180.17 124.09 197.33 106.93 C 214.49 89.77 234.86 76.15 257.28 66.87 C 279.70 57.58 303.73 52.80 328.00 52.80 C 352.27 52.80 376.30 57.58 398.72 66.87 C 421.14 76.15 441.51 89.77 458.67 106.93 C 475.83 124.09 489.45 144.46 498.73 166.88 C 508.02 189.30 512.80 213.33 512.80 237.60 " fill="#FFFFFF" fill-opacity="1.00" stroke="none" stroke-opacity="0.00" stroke-width="0.00" stroke-linecap="butt" stroke-linejoin="miter"/>
<path d="M 374.20 237.60 C 374.20 243.67 373.00 249.67 370.68 255.28 C 368.36 260.89 364.96 265.98 360.67 270.27 C 356.38 274.56 351.29 277.96 345.68 280.28 C 340.07 282.60 334.07 283.80 328.00 283.80 C 321.93 283.80 315.93 282.60 310.32 280.28 C 304.71 277.96 299.62 274.56 295.33 270.27 C 291.04 265.98 287.64 260.89 285.32 255.28 C 283.00 249.67 281.80 243.67 281.80 237.60 C 281.80 231.53 283.00 225.53 285.32 219.92 C 287.64 214.31 291.04 209.22 295.33 204.93 C 299.62 200.64 304.71 197.24 310.32 194.92 C 315.93 192.60 321.93 191.40 328.00 191.40 C 334.07 191.40 340.07 192.60 345.68 194.92 C 351.29 197.24 356.38 200.64 360.67 204.93 C 364.96 209.22 368.36 214.31 370.68 219.92 C 373.00 225.53 374.20 231.53 374.20 237.60 " fill="none" fill-opacity="0.00" stroke="#CCCCCC" stroke-opacity="1.00" stroke-width="0.50" stroke-linecap="butt" stroke-linejoin="miter"/>
<path d="M 420.40 237.60 C 420.40 249.73 418.01 261.75 413.37 272.96 C 408.72 284.17 401.92 294.36 393.34 302.94 C 384.76 311.52 374.57 318.32 363.36 322.97 C 352.15 327.61 340.13 330.00 328.00 330.00 C 315.87 330.00 303.85 327.61 292.64 322.97 C 281.43 318.32 271.24 311.52 262.66 302.94 C 254.08 294.36 247.28 284.17 242.63 272.96 C 237.99 261.75 235.60 249.73 235.60 237.60 C 235.60 225.47 237.99 213.45 242.63 202.24 C 247.28 191.03 254.08 180.84 262.66 172.26 C 271.24 163.68 281.43 156.88 292.64 152.23 C 303.85 147.59 315.87 145.20 328.00 145.20 C 340.13 145.20 352.15 147.59 363.36 152.23 C 374.57 156.88 384.76 163.68 393.34 172.26 C 401.92 180.84 408.72 191.03 413.37 202.24 C 418.01 213.45 420.40 225.47 420.40 237.60 " fill="none" fill-opacity="0.00" stroke="#CCCCCC" stroke-opacity="1.00" stroke-width="0.50" stroke-linecap="butt" stroke-linejoin="miter"/>
<path d="M 466.60 237.60 C 466.60 255.80 463.01 273.82 456.05 290.64 C 449.08 307.46 438.87 322.74 426.00 335.60 C 413.14 348.47 397.86 358.68 381.04 365.65 C 364.22 372.61 346.20 376.20 328.00 376.20 C 309.80 376.20 291.78 372.61 274.96 365.65 C 258.14 358.68 242.86 348.47 230.00 335.60 C 217.13 322.74 206.92 307.46 199.95 290.64 C 192.99 273.82 189.40 255.80 189.40 237.60 C 189.40 219.40 192.99 201.38 199.95 184.56 C 206.92 167.74 217.13 152.46 230.00 139.60 C 242.86 126.73 258.14 116.52 274.96 109.55 C 291.78 102.59 309.80 99.00 328.00 99.00 C 346.20 99.00 364.22 102.59 381.04 109.55 C 397.86 116.52 413.14 126.73 426.00 139.60 C 438.87 152.46 449.08 167.74 456.05 184.56 C 463.01 201.38 466.60 219.40 466.60 237.60 " fill="none" fill-opacity="0.00" stroke="#CCCCCC" stroke-opacity="1.00" stroke-width="0.50" stroke-linecap="butt" stroke-linejoin="miter"/>
<path d="M 512.80 237.60 C 512.80 261.87 508.02 285.90 498.73 308.32 C 489.45 330.74 475.83 351.11 458.67 368.27 C 441.51 385.43 421.14 399.05 398.72 408.33 C 376.30 417.62 352.27 422.40 328.00 422.40 C 303.73 422.40 279.70 417.62 257.28 408.33 C 234.86 399.05 214.49 385.43 197.33 368.27 C 180.17 351.11 166.55 330.74 157.27 308.32 C 147.98 285.90 143.20 261.87 143.20 237.60 C 143.20 213.33 147.98 189.30 157.27 166.88 C 166.55 144.46 180.17 124.09 197.33 106.93 C 214.49 89.77 234.86 76.15 257.28 66.87 C 279.70 57.58 303.73 52.80 328.00 52.80 C 352.27 52.80 376.30 57.58 398.72 66.87 C 421.14 76.15 441.51 89.77 458.67 106.93 C 475.83 124.09 489.45 144.46 498.73 166.88 C 508.02 189.30 512.80 213.33 512.80 237.60 " fill="none" fill-opacity="0.00" stroke="#CCCCCC" stroke-opacity="1.00" stroke-width="0.50" stroke-linecap="butt" stroke-linejoin="miter"/>
<path d="M 328.00 237.60 L 512.80 237.60 " fill="none" fill-opacity="0.00" stroke="#CCCCCC" stroke-opacity="1.00" stroke-width="0.50" stroke-linecap="butt" stroke-linejoin="miter"/>
<path d="M 328.00 237.60 L 458.67 368.27 " fill="none" fill-opacity="0.00" stroke="#CCCCCC" stroke-opacity="1.00" stroke-width="0.50" stroke-linecap="butt" stroke-linejoin="miter"/>
<path d="M 328.00 237.60 L 328.00 422.40 " fill="none" fill-opacity="0.00" stroke="#CCCCCC" stroke-opacity="1.00" stroke-width="0.50" stroke-linecap="butt" stroke-linejoin="miter"/>
<path d="M 328.00 237.60 L 197.33 368.27 " fill="none" fill-opacity="0.00" stroke="#CCCCCC" stroke-opacity="1.00" stroke-width="0.50" stroke-linecap="butt" stroke-linejoin="miter"/>
<path d="M 328.00 237.60 L 143.20 237.60 " fill="none" fill-opacity="0.00" stroke="#CCCCCC" stroke-opacity="1.00" stroke-width="0.50" stroke-linecap="butt" stroke-linejoin="miter"/>
<path d="M 328.00 237.60 L 197.33 106.93 " fill="none" fill-opacity="0.00" stroke="#CCCCCC" stroke-opacity="1.00" stroke-width="0.50" stroke-linecap="butt" stroke-linejoin="miter"/>
<path d="M 328.00 237.60 L 328.00 52.80 " fill="none" fill-opacity="0.00" stroke="#CCCCCC" stroke-opacity="1.00" stroke-width="0.50" stroke-linecap="butt" stroke-linejoin="miter"/>
<path d="M 328.00 237.60 L 458.67 106.93 " fill="none" fill-opacity="0.00" stroke="#CCCCCC" stroke-opacity="1.00" stroke-width="0.50" stroke-linecap="butt" stroke-linejoin="miter"/>
<path d="M 505.14 237.60 L 505.00 241.74 L 504.56 245.88 L 503.83 249.99 L 502.82 254.06 L 501.53 258.08 L 499.95 262.04 L 498.10 265.93 L 495.98 269.74 L 493.61 273.45 L 490.98 277.06 L 488.10 280.55 L 484.99 283.92 L 481.66 287.15 L 478.11 290.24 L 474.37 293.17 L 470.43 295.95 L 466.32 298.56 L 462.04 300.99 L 457.62 303.24 L 453.06 305.31 L 448.39 307.19 L 443.61 308.87 L 438.74 310.35 L 433.80 311.63 L 428.80 312.71 L 423.76 313.59 L 418.70 314.26 L 413.62 314.72 L 408.55 314.98 L 403.51 315.04 L 398.50 314.90 L 393.55 314.56 L 388.66 314.03 L 383.85 313.31 L 379.15 312.40 L 374.55 311.31 L 370.08 310.06 L 365.74 308.63 L 361.55 307.05 L 357.52 305.31 L 353.67 303.43 L 349.99 301.41 L 346.50 299.27 L 343.21 297.02 L 340.13 294.66 L 337.26 292.20 L 334.60 289.65 L 332.17 287.03 L 329.97 284.34 L 328.00 281.60 L 326.26 278.82 L 324.76 276.00 L 323.49 273.16 L 322.45 270.31 L 321.65 267.46 L 321.08 264.62 L 320.74 261.81 L 320.62 259.02 L 320.72 256.28 L 321.03 253.58 L 321.55 250.95 L 322.27 248.39 L 323.18 245.91 L 324.27 243.51 L 325.53 241.21 L 326.96 239.01 L 328.54 236.92 L 330.27 234.94 L 332.12 233.08 L 334.09 231.35 L 336.17 229.75 L 338.34 228.28 L 340.60 226.95 L 342.92 225.76 L 345.29 224.71 L 347.71 223.81 L 350.16 223.04 L 352.62 222.43 L 355.08 221.95 L 357.52 221.62 L 359.95 221.42 L 362.33 221.36 L 364.67 221.44 L 366.94 221.65 L 369.14 221.98 L 371.26 222.43 L 373.28 223.00 L 375.19 223.68 L 376.99 224.46 L 378.66 225.33 L 380.20 226.30 L 381.60 227.35 L 382.85 228.46 L 383.95 229.65 L 384.88 230.89 L 385.66 232.17 L 386.26 233.50 L 386.70 234.85 L 386.96 236.22 L 387.05 237.60 L 386.96 238.98 L 386.70 240.35 L 386.26 241.70 L 385.66 243.03 L 384.88 244.31 L 383.95 245.55 L 382.85 246.74 L 381.60 247.85 L 380.20 248.90 L 378.66 249.87 L 376.99 250.74 L 375.19 251.52 L 373.28 252.20 L 371.26 252.77 L 369.14 253.22 L 366.94 253.55 L 364.67 253.76 L 362.33 253.84 L 359.95 253.78 L 357.52 253.58 L 355.08 253.25 L 352.62 252.77 L 350.16 252.16 L 347.71 251.39 L 345.29 250.49 L 342.92 249.44 L 340.60 248.25 L 338.34 246.92 L 336.17 245.45 L 334.09 243.85 L 332.12 242.12 L 330.27 240.26 L 328.54 238.28 L 326.96 236.19 L 325.53 233.99 L 324.27 231.69 L 323.18 229.29 L 322.27 226.81 L 321.55 224.25 L 321.03 221.62 L 320.72 218.92 L 320.62 216.18 L 320.74 213.39 L 321.08 210.58 L 321.65 207.74 L 322.45 204.89 L 323.49 202.04 L 324.76 199.20 L 326.26 196.38 L 328.00 193.60 L 329.97 190.86 L 332.17 188.17 L 334.60 185.55 L 337.26 183.00 L 340.13 180.54 L 343.21 178.18 L 346.50 175.93 L 349.99 173.79 L 353.67 171.77 L 357.52 169.89 L 361.55 168.15 L 365.74 166.57 L 370.08 165.14 L 374.55 163.89 L 379.15 162.80 L 383.85 161.89 L 388.66 161.17 L 393.55 160.64 L 398.50 160.30 L 403.51 160.16 L 408.55 160.22 L 413.62 160.48 L 418.70 160.94 L 423.76 161.61 L 428.80 162.49 L 433.80 163.57 L 438.74 164.85 L 443.61 166.33 L 448.39 168.01 L 453.06 169.89 L 457.62 171.96 L 462.04 174.21 L 466.32 176.64 L 470.43 179.25 L 474.37 182.03 L 478.11 184.96 L 481.66 188.05 L 484.99 191.28 L 488.10 194.65 L 490.98 198.14 L 493.61 201.75 L 495.98 205.46 L 498.10 209.27 L 499.95 213.16 L 501.53 217.12 L 502.82 221.14 L 503.83 225.21 L 504.56 229.32 L 505.00 233.46 L 505.14 237.60 " fill="none" fill-opacity="0.00" stroke="#2CA02C" stroke-opacity="1.00" stroke-width="1.50" stroke-linecap="square" stroke-linejoin="round"/>
<path d="M 446.10 237.60 L 446.04 240.36 L 445.86 243.13 L 445.57 245.88 L 445.16 248.63 L 444.64 251.37 L 444.00 254.09 L 443.25 256.80 L 442.39 259.48 L 441.41 262.15 L 440.32 264.79 L 439.11 267.41 L 437.80 269.99 L 436.38 272.55 L 434.86 275.07 L 433.22 277.55 L 431.49 279.99 L 429.65 282.40 L 427.71 284.75 L 425.67 287.06 L 423.54 289.33 L 421.31 291.54 L 418.99 293.69 L 416.58 295.80 L 414.09 297.84 L 411.51 299.83 L 408.84 301.75 L 406.10 303.61 L 403.28 305.41 L 400.38 307.13 L 397.41 308.79 L 394.38 310.38 L 391.28 311.90 L 388.12 313.35 L 384.89 314.71 L 381.61 316.01 L 378.28 317.22 L 374.90 318.36 L 371.47 319.42 L 368.00 320.40 L 364.49 321.29 L 360.95 322.11 L 357.37 322.84 L 353.76 323.48 L 350.13 324.04 L 346.47 324.52 L 342.80 324.91 L 339.11 325.21 L 335.42 325.43 L 331.71 325.56 L 328.00 325.60 L 324.29 325.56 L 320.58 325.43 L 316.89 325.21 L 313.20 324.91 L 309.53 324.52 L 305.87 324.04 L 302.24 323.48 L 298.63 322.84 L 295.05 322.11 L 291.51 321.29 L 288.00 320.40 L 284.53 319.42 L 281.10 318.36 L 277.72 317.22 L 274.39 316.01 L 271.11 314.71 L 267.88 313.35 L 264.72 311.90 L 261.62 310.38 L 258.59 308.79 L 255.62 307.13 L 252.72 305.41 L 249.90 303.61 L 247.16 301.75 L 244.49 299.83 L 241.91 297.84 L 239.42 295.80 L 237.01 293.69 L 234.69 291.54 L 232.46 289.33 L 230.33 287.06 L 228.29 284.75 L 226.35 282.40 L 224.51 279.99 L 222.78 277.55 L 221.14 275.07 L 219.62 272.55 L 218.20 269.99 L 216.89 267.41 L 215.68 264.79 L 214.59 262.15 L 213.61 259.48 L 212.75 256.80 L 212.00 254.09 L 211.36 251.37 L 210.84 248.63 L 210.43 245.88 L 210.14 243.13 L 209.96 240.36 L 209.90 237.60 L 209.96 234.84 L 210.14 232.07 L 210.43 229.32 L 210.84 226.57 L 211.36 223.83 L 212.00 221.11 L 212.75 218.40 L 213.61 215.72 L 214.59 213.05 L 215.68 210.41 L 216.89 207.79 L 218.20 205.21 L 219.62 202.65 L 221.14 200.13 L 222.78 197.65 L 224.51 195.21 L 226.35 192.80 L 228.29 190.45 L 230.33 188.14 L 232.46 185.87 L 234.69 183.66 L 237.01 181.51 L 239.42 179.40 L 241.91 177.36 L 244.49 175.37 L 247.16 173.45 L 249.90 171.59 L 252.72 169.79 L 255.62 168.07 L 258.59 166.41 L 261.62 164.82 L 264.72 163.30 L 267.88 161.85 L 271.11 160.49 L 274.39 159.19 L 277.72 157.98 L 281.10 156.84 L 284.53 155.78 L 288.00 154.80 L 291.51 153.91 L 295.05 153.09 L 298.63 152.36 L 302.24 151.72 L 305.87 151.16 L 309.53 150.68 L 313.20 150.29 L 316.89 149.99 L 320.58 149.77 L 324.29 149.64 L 328.00 149.60 L 331.71 149.64 L 335.42 149.77 L 339.11 149.99 L 342.80 150.29 L 346.47 150.68 L 350.13 151.16 L 353.76 151.72 L 357.37 152.36 L 360.95 153.09 L 364.49 153.91 L 368.00 154.80 L 371.47 155.78 L 374.90 156.84 L 378.28 157.98 L 381.61 159.19 L 384.89 160.49 L 388.12 161.85 L 391.28 163.30 L 394.38 164.82 L 397.41 166.41 L 400.38 168.07 L 403.28 169.79 L 406.10 171.59 L 408.84 173.45 L 411.51 175.37 L 414.09 177.36 L 416.58 179.40 L 418.99 181.51 L 421.31 183.66 L 423.54 185.87 L 425.67 188.14 L 427.71 190.45 L 429.65 192.80 L 431.49 195.21 L 433.22 197.65 L 434.86 200.13 L 436.38 202.65 L 437.80 205.21 L 439.11 207.79 L 440.32 210.41 L 441.41 213.05 L 442.39 215.72 L 443.25 218.40 L 444.00 221.11 L 444.64 223.83 L 445.16 226.57 L 445.57 229.32 L 445.86 232.07 L 446.04 234.84 L 446.10 237.60 " fill="none" fill-opacity="0.00" stroke="#FF7F0E" stroke-opacity="1.00" stroke-width="1.50" stroke-linecap="square" stroke-linejoin="round"/>
<path d="M 564.19 237.60 L 564.02 243.13 L 563.49 248.64 L 562.62 254.13 L 561.40 259.57 L 559.85 264.96 L 557.95 270.29 L 555.73 275.53 L 553.18 280.68 L 550.31 285.73 L 547.13 290.66 L 543.66 295.46 L 539.89 300.12 L 535.85 304.62 L 531.54 308.97 L 526.98 313.15 L 522.17 317.14 L 517.14 320.95 L 511.90 324.57 L 506.46 327.97 L 500.84 331.17 L 495.05 334.15 L 489.11 336.91 L 483.03 339.45 L 476.84 341.75 L 470.55 343.83 L 464.18 345.66 L 457.74 347.26 L 451.26 348.63 L 444.74 349.75 L 438.22 350.64 L 431.69 351.29 L 425.18 351.71 L 418.72 351.90 L 412.30 351.87 L 405.95 351.61 L 399.69 351.13 L 393.53 350.44 L 387.48 349.54 L 381.55 348.44 L 375.77 347.16 L 370.14 345.68 L 364.67 344.03 L 359.38 342.21 L 354.28 340.24 L 349.36 338.11 L 344.66 335.85 L 340.16 333.45 L 335.88 330.94 L 331.83 328.32 L 328.00 325.60 L 324.41 322.79 L 321.05 319.91 L 317.93 316.96 L 315.05 313.96 L 312.42 310.92 L 310.02 307.84 L 307.86 304.75 L 305.93 301.64 L 304.24 298.53 L 302.78 295.43 L 301.55 292.35 L 300.53 289.30 L 299.73 286.29 L 299.13 283.32 L 298.73 280.41 L 298.52 277.56 L 298.49 274.79 L 298.63 272.09 L 298.93 269.47 L 299.39 266.95 L 299.98 264.52 L 300.71 262.18 L 301.55 259.96 L 302.50 257.84 L 303.54 255.83 L 304.67 253.93 L 305.86 252.14 L 307.12 250.47 L 308.42 248.92 L 309.75 247.48 L 311.11 246.15 L 312.48 244.94 L 313.84 243.84 L 315.20 242.84 L 316.53 241.95 L 317.83 241.17 L 319.09 240.47 L 320.29 239.87 L 321.43 239.36 L 322.50 238.93 L 323.50 238.57 L 324.41 238.29 L 325.22 238.06 L 325.95 237.89 L 326.56 237.77 L 327.08 237.69 L 327.48 237.64 L 327.77 237.61 L 327.94 237.60 L 328.00 237.60 L 327.94 237.60 L 327.77 237.59 L 327.48 237.56 L 327.08 237.51 L 326.56 237.43 L 325.95 237.31 L 325.22 237.14 L 324.41 236.91 L 323.50 236.63 L 322.50 236.27 L 321.43 235.84 L 320.29 235.33 L 319.09 234.73 L 317.83 234.03 L 316.53 233.25 L 315.20 232.36 L 313.84 231.36 L 312.48 230.26 L 311.11 229.05 L 309.75 227.72 L 308.42 226.28 L 307.12 224.73 L 305.86 223.06 L 304.67 221.27 L 303.54 219.37 L 302.50 217.36 L 301.55 215.24 L 300.71 213.02 L 299.98 210.68 L 299.39 208.25 L 298.93 205.73 L 298.63 203.11 L 298.49 200.41 L 298.52 197.64 L 298.73 194.79 L 299.13 191.88 L 299.73 188.91 L 300.53 185.90 L 301.55 182.85 L 302.78 179.77 L 304.24 176.67 L 305.93 173.56 L 307.86 170.45 L 310.02 167.36 L 312.42 164.28 L 315.05 161.24 L 317.93 158.24 L 321.05 155.29 L 324.41 152.41 L 328.00 149.60 L 331.83 146.88 L 335.88 144.26 L 340.16 141.75 L 344.66 139.35 L 349.36 137.09 L 354.28 134.96 L 359.38 132.99 L 364.67 131.17 L 370.14 129.52 L 375.77 128.04 L 381.55 126.76 L 387.48 125.66 L 393.53 124.76 L 399.69 124.07 L 405.95 123.59 L 412.30 123.33 L 418.72 123.30 L 425.18 123.49 L 431.69 123.91 L 438.22 124.56 L 444.74 125.45 L 451.26 126.57 L 457.74 127.94 L 464.18 129.54 L 470.55 131.37 L 476.84 133.45 L 483.03 135.75 L 489.11 138.29 L 495.05 141.05 L 500.84 144.03 L 506.46 147.23 L 511.90 150.63 L 517.14 154.25 L 522.17 158.06 L 526.98 162.05 L 531.54 166.23 L 535.85 170.58 L 539.89 175.08 L 543.66 179.74 L 547.13 184.54 L 550.31 189.47 L 553.18 194.52 L 555.73 199.67 L 557.95 204.91 L 559.85 210.24 L 561.40 215.63 L 562.62 221.07 L 563.49 226.56 L 564.02 232.07 L 564.19 237.60 " fill="none" fill-opacity="0.00" stroke="#1F77B4" stroke-opacity="1.00" stroke-width="1.50" stroke-linecap="square" stroke-linejoin="round"/>
<text font-family="DejaVu Sans" font-size="16.67" fill="#000000" fill-opacity="1.00" text-anchor="middle" transform="translate(328.00,431.73) scale(1,-1)">Multiple Polar Curves</text>
<path d="M 512.80 237.60 C 512.80 261.87 508.02 285.90 498.73 308.32 C 489.45 330.74 475.83 351.11 458.67 368.27 C 441.51 385.43 421.14 399.05 398.72 408.33 C 376.30 417.62 352.27 422.40 328.00 422.40 C 303.73 422.40 279.70 417.62 257.28 408.33 C 234.86 399.05 214.49 385.43 197.33 368.27 C 180.17 351.11 166.55 330.74 157.27 308.32 C 147.98 285.90 143.20 261.87 143.20 237.60 C 143.20 213.33 147.98 189.30 157.27 166.88 C 166.55 144.46 180.17 124.09 197.33 106.93 C 214.49 89.77 234.86 76.15 257.28 66.87 C 279.70 57.58 303.73 52.80 328.00 52.80 C 352.27 52.80 376.30 57.58 398.72 66.87 C 421.14 76.15 441.51 89.77 458.67 106.93 C 475.83 124.09 489.45 144.46 498.73 166.88 C 508.02 189.30 512.80 213.33 512.80 237.60 " fill="none" fill-opacity="0.00" stroke="#000000" stroke-opacity="1.00" stroke-width="1.00" stroke-linecap="butt" stroke-linejoin="miter"/>
<text font-family="DejaVu Sans" font-size="11.11" fill="#000000" fill-opacity="1.00" text-anchor="middle" dominant-baseline="central" transform="translate(527.58,237.60) scale(1,-1)">0°</text>
<text font-family="DejaVu Sans" font-size="11.11" fill="#000000" fill-opacity="1.00" text-anchor="middle" dominant-baseline="central" transform="translate(469.13,378.73) scale(1,-1)">45°</text>
<text font-family="DejaVu Sans" font-size="11.11" fill="#000000" fill-opacity="1.00" text-anchor="middle" dominant-baseline="central" transform="translate(328.00,437.18) scale(1,-1)">90°</text>
<text font-family="DejaVu Sans" font-size="11.11" fill="#000000" fill-opacity="1.00" text-anchor="middle" dominant-baseline="central" transform="translate(186.87,378.73) scale(1,-1)">135°</text>
<text font-family="DejaVu Sans" font-size="11.11" fill="#000000" fill-opacity="1.00" text-anchor="middle" dominant-baseline="central" transform="translate(128.42,237.60) scale(1,-1)">180°</text>
<text font-family="DejaVu Sans" font-size="11.11" fill="#000000" fill-opacity="1.00" text-anchor="middle" dominant-baseline="central" transform="translate(186.87,96.47) scale(1,-1)">225°</text>
<text font-family="DejaVu Sans" font-size="11.11" fill="#000000" fill-opacity="1.00" text-anchor="middle" dominant-baseline="central" transform="translate(328.00,38.02) scale(1,-1)">270°</text>
<text font-family="DejaVu Sans" font-size="11.11" fill="#000000" fill-opacity="1.00" text-anchor="middle" dominant-baseline="central" transform="translate(469.13,96.47) scale(1,-1)">315°</text>
<text font-family="DejaVu Sans" font-size="9.72" fill="#000000" fill-opacity="1.00" text-anchor="middle" dominant-baseline="text-after-edge" transform="translate(374.20,242.60) scale(1,-1)">0.53    </text>
<text font-family="DejaVu Sans" font-size="9.72" fill="#000000" fill-opacity="1.00" text-anchor="middle" dominant-baseline="text-after-edge" transform="translate(420.40,242.60) scale(1,-1)">1.1    </text>
<text font-family="DejaVu Sans" font-size="9.72" fill="#000000" fill-opacity="1.00" text-anchor="middle" dominant-baseline="text-after-edge" transform="translate(466.60,242.60) scale(1,-1)">1.6    </text>
<text font-family="DejaVu Sans" font-size="9.72" fill="#000000" fill-opacity="1.00" text-anchor="middle" dominant-baseline="text-after-edge" transform="translate(512.80,242.60) scale(1,-1)">2.1    </text>
</g>
</svg>
