<?xml version="1.0" encoding="UTF-8"?>
<svg xmlns="http://www.w3.org/2000/svg"
     xmlns:xlink="http://www.w3.org/1999/xlink"
     width="640" height="480" viewBox="0 0 640 480">
<defs>
</defs>
<g transform="translate(0,480) scale(1,-1)">
<rect width="640" height="480" fill="white"/>
<path d="M 0.00 0.00 L 640.00 0.00 L 640.00 480.00 L 0.00 480.00 L 0.00 0.00 Z " fill="#FFFFFF" fill-opacity="1.00" stroke="#000000" stroke-opacity="1.00" stroke-width="0.00" stroke-linecap="butt" stroke-linejoin="miter"/>
<path d="M 512.80 237.60 C 512.80 261.87 508.02 285.90 498.73 308.32 C 489.45 330.74 475.83 351.11 458.67 368.27 C 441.51 385.43 421.14 399.05 398.72 408.33 C 376.30 417.62 352.27 422.40 328.00 422.40 C 303.73 422.40 279.70 417.62 257.28 408.33 C 234.86 399.05 214.49 385.43 197.33 368.27 C 180.17 351.11 166.55 330.74 157.27 308.32 C 147.98 285.90 143.20 261.87 143.20 237.60 C 143.20 213.33 147.98 189.30 157.27 166.88 C 166.55 144.46 180.17 124.09 197.33 106.93 C 214.49 89.77 234.86 76.15 257.28 66.87 C 279.70 57.58 303.73 52.80 328.00 52.80 C 352.27 52.80 376.30 57.58 398.72 66.87 C 421.14 76.15 441.51 89.77 458.67 106.93 C 475.83 124.09 489.45 144.46 498.73 166.88 C 508.02 189.30 512.80 213.33 512.80 237.60 " fill="#FFFFFF" fill-opacity="1.00" stroke="none" stroke-opacity="0.00" stroke-width="0.00" stroke-linecap="butt" stroke-linejoin="miter"/>
<path d="M 374.20 237.60 C 374.20 243.67 373.00 249.67 370.68 255.28 C 368.36 260.89 364.96 265.98 360.67 270.27 C 356.38 274.56 351.29 277.96 345.68 280.28 C 340.07 282.60 334.07 283.80 328.00 283.80 C 321.93 283.80 315.93 282.60 310.32 280.28 C 304.71 277.96 299.62 274.56 295.33 270.27 C 291.04 265.98 287.64 260.89 285.32 255.28 C 283.00 249.67 281.80 243.67 281.80 237.60 C 281.80 231.53 283.00 225.53 285.32 219.92 C 287.64 214.31 291.04 209.22 295.33 204.93 C 299.62 200.64 304.71 197.24 310.32 194.92 C 315.93 192.60 321.93 191.40 328.00 191.40 C 334.07 191.40 340.07 192.60 345.68 194.92 C 351.29 197.24 356.38 200.64 360.67 204.93 C 364.96 209.22 368.36 214.31 370.68 219.92 C 373.00 225.53 374.20 231.53 374.20 237.60 " fill="none" fill-opacity="0.00" stroke="#CCCCCC" stroke-opacity="1.00" stroke-width="0.50" stroke-linecap="butt" stroke-linejoin="miter"/>
<path d="M 420.40 237.60 C 420.40 249.73 418.01 261.75 413.37 272.96 C 408.72 284.17 401.92 294.36 393.34 302.94 C 384.76 311.52 374.57 318.32 363.36 322.97 C 352.15 327.61 340.13 330.00 328.00 330.00 C 315.87 330.00 303.85 327.61 292.64 322.97 C 281.43 318.32 271.24 311.52 262.66 302.94 C 254.08 294.36 247.28 284.17 242.63 272.96 C 237.99 261.75 235.60 249.73 235.60 237.60 C 235.60 225.47 237.99 213.45 242.63 202.24 C 247.28 191.03 254.08 180.84 262.66 172.26 C 271.24 163.68 281.43 156.88 292.64 152.23 C 303.85 147.59 315.87 145.20 328.00 145.20 C 340.13 145.20 352.15 147.59 363.36 152.23 C 374.57 156.88 384.76 163.68 393.34 172.26 C 401.92 180.84 408.72 191.03 413.37 202.24 C 418.01 213.45 420.40 225.47 420.40 237.60 " fill="none" fill-opacity="0.00" stroke="#CCCCCC" stroke-opacity="1.00" stroke-width="0.50" stroke-linecap="butt" stroke-linejoin="miter"/>
<path d="M 466.60 237.60 C 466.60 255.80 463.01 273.82 456.05 290.64 C 449.08 307.46 438.87 322.74 426.00 335.60 C 413.14 348.47 397.86 358.68 381.04 365.65 C 364.22 372.61 346.20 376.20 328.00 376.20 C 309.80 376.20 291.78 372.61 274.96 365.65 C 258.14 358.68 242.86 348.47 230.00 335.60 C 217.13 322.74 206.92 307.46 199.95 290.64 C 192.99 273.82 189.40 255.80 189.40 237.60 C 189.40 219.40 192.99 201.38 199.95 184.56 C 206.92 167.74 217.13 152.46 230.00 139.60 C 242.86 126.73 258.14 116.52 274.96 109.55 C 291.78 102.59 309.80 99.00 328.00 99.00 C 346.20 99.00 364.22 102.59 381.04 109.55 C 397.86 116.52 413.14 126.73 426.00 139.60 C 438.87 152.46 449.08 167.74 456.05 184.56 C 463.01 201.38 466.60 219.40 466.60 237.60 " fill="none" fill-opacity="0.00" stroke="#CCCCCC" stroke-opacity="1.00" stroke-width="0.50" stroke-linecap="butt" stroke-linejoin="miter"/>
<path d="M 512.80 237.60 C 512.80 261.87 508.02 285.90 498.73 308.32 C 489.45 330.74 475.83 351.11 458.67 368.27 C 441.51 385.43 421.14 399.05 398.72 408.33 C 376.30 417.62 352.27 422.40 328.00 422.40 C 303.73 422.40 279.70 417.62 257.28 408.33 C 234.86 399.05 214.49 385.43 197.33 368.27 C 180.17 351.11 166.55 330.74 157.27 308.32 C 147.98 285.90 143.20 261.87 143.20 237.60 C 143.20 213.33 147.98 189.30 157.27 166.88 C 166.55 144.46 180.17 124.09 197.33 106.93 C 214.49 89.77 234.86 76.15 257.28 66.87 C 279.70 57.58 303.73 52.80 328.00 52.80 C 352.27 52.80 376.30 57.58 398.72 66.87 C 421.14 76.15 441.51 89.77 458.67 106.93 C 475.83 124.09 489.45 144.46 498.73 166.88 C 508.02 189.30 512.80 213.33 512.80 237.60 " fill="none" fill-opacity="0.00" stroke="#CCCCCC" stroke-opacity="1.00" stroke-width="0.50" stroke-linecap="butt" stroke-linejoin="miter"/>
<path d="M 328.00 237.60 L 512.80 237.60 " fill="none" fill-opacity="0.00" stroke="#CCCCCC" stroke-opacity="1.00" stroke-width="0.50" stroke-linecap="butt" stroke-linejoin="miter"/>
<path d="M 328.00 237.60 L 458.67 368.27 " fill="none" fill-opacity="0.00" stroke="#CCCCCC" stroke-opacity="1.00" stroke-width="0.50" stroke-linecap="butt" stroke-linejoin="miter"/>
<path d="M 328.00 237.60 L 328.00 422.40 " fill="none" fill-opacity="0.00" stroke="#CCCCCC" stroke-opacity="1.00" stroke-width="0.50" stroke-linecap="butt" stroke-linejoin="miter"/>
<path d="M 328.00 237.60 L 197.33 368.27 " fill="none" fill-opacity="0.00" stroke="#CCCCCC" stroke-opacity="1.00" stroke-width="0.50" stroke-linecap="butt" stroke-linejoin="miter"/>
<path d="M 328.00 237.60 L 143.20 237.60 " fill="none" fill-opacity="0.00" stroke="#CCCCCC" stroke-opacity="1.00" stroke-width="0.50" stroke-linecap="butt" stroke-linejoin="miter"/>
<path d="M 328.00 237.60 L 197.33 106.93 " fill="none" fill-opacity="0.00" stroke="#CCCCCC" stroke-opacity="1.00" stroke-width="0.50" stroke-linecap="butt" stroke-linejoin="miter"/>
<path d="M 328.00 237.60 L 328.00 52.80 " fill="none" fill-opacity="0.00" stroke="#CCCCCC" stroke-opacity="1.00" stroke-width="0.50" stroke-linecap="butt" stroke-linejoin="miter"/>
<path d="M 328.00 237.60 L 458.67 106.93 " fill="none" fill-opacity="0.00" stroke="#CCCCCC" stroke-opacity="1.00" stroke-width="0.50" stroke-linecap="butt" stroke-linejoin="miter"/>
<path d="M 328.00 237.60 L 328.79 237.62 L 329.57 237.70 L 330.34 237.82 L 331.11 237.99 L 331.85 238.21 L 332.58 238.48 L 333.28 238.79 L 333.95 239.14 L 334.59 239.54 L 335.19 239.99 L 335.76 240.47 L 336.28 240.99 L 336.75 241.55 L 337.18 242.15 L 337.55 242.77 L 337.87 243.43 L 338.13 244.12 L 338.33 244.83 L 338.47 245.56 L 338.54 246.32 L 338.54 247.09 L 338.47 247.88 L 338.33 248.68 L 338.12 249.49 L 337.84 250.30 L 337.48 251.12 L 337.05 251.93 L 336.54 252.74 L 335.96 253.55 L 335.30 254.34 L 334.56 255.12 L 333.75 255.88 L 332.87 256.62 L 331.91 257.33 L 330.88 258.02 L 329.78 258.68 L 328.61 259.30 L 327.37 259.89 L 326.07 260.43 L 324.71 260.94 L 323.28 261.40 L 321.80 261.80 L 320.27 262.16 L 318.68 262.46 L 317.05 262.71 L 315.38 262.89 L 313.66 263.02 L 311.91 263.08 L 310.13 263.08 L 308.32 263.00 L 306.49 262.86 L 304.64 262.65 L 302.77 262.37 L 300.90 262.01 L 299.03 261.58 L 297.15 261.07 L 295.29 260.49 L 293.43 259.83 L 291.60 259.10 L 289.78 258.29 L 288.00 257.40 L 286.25 256.44 L 284.54 255.41 L 282.87 254.29 L 281.25 253.11 L 279.69 251.85 L 278.18 250.53 L 276.75 249.13 L 275.38 247.67 L 274.09 246.14 L 272.88 244.55 L 271.76 242.89 L 270.73 241.18 L 269.79 239.42 L 268.95 237.60 L 268.22 235.73 L 267.59 233.82 L 267.07 231.86 L 266.67 229.87 L 266.39 227.84 L 266.23 225.78 L 266.20 223.70 L 266.29 221.59 L 266.51 219.46 L 266.86 217.32 L 267.35 215.17 L 267.98 213.01 L 268.74 210.86 L 269.64 208.71 L 270.68 206.56 L 271.85 204.44 L 273.17 202.33 L 274.63 200.25 L 276.22 198.20 L 277.95 196.18 L 279.82 194.20 L 281.83 192.27 L 283.97 190.39 L 286.24 188.56 L 288.63 186.79 L 291.16 185.09 L 293.81 183.46 L 296.58 181.89 L 299.46 180.41 L 302.45 179.01 L 305.56 177.70 L 308.76 176.49 L 312.07 175.36 L 315.46 174.34 L 318.95 173.42 L 322.51 172.61 L 326.15 171.91 L 329.86 171.32 L 333.64 170.85 L 337.46 170.50 L 341.34 170.28 L 345.26 170.18 L 349.21 170.20 L 353.19 170.36 L 357.19 170.65 L 361.21 171.07 L 365.22 171.62 L 369.23 172.31 L 373.23 173.13 L 377.21 174.09 L 381.15 175.19 L 385.06 176.42 L 388.93 177.79 L 392.74 179.29 L 396.48 180.92 L 400.16 182.69 L 403.76 184.59 L 407.27 186.62 L 410.68 188.77 L 413.99 191.05 L 417.18 193.45 L 420.26 195.96 L 423.21 198.60 L 426.02 201.34 L 428.69 204.19 L 431.21 207.15 L 433.58 210.20 L 435.78 213.35 L 437.81 216.59 L 439.66 219.91 L 441.34 223.32 L 442.82 226.79 L 444.11 230.33 L 445.21 233.94 L 446.10 237.60 L 446.78 241.31 L 447.25 245.06 L 447.51 248.85 L 447.55 252.67 L 447.37 256.51 L 446.96 260.36 L 446.33 264.22 L 445.47 268.08 L 444.39 271.94 L 443.08 275.78 L 441.54 279.60 L 439.77 283.39 L 437.77 287.14 L 435.54 290.84 L 433.10 294.50 L 430.42 298.09 L 427.53 301.62 L 424.42 305.07 L 421.09 308.44 L 417.56 311.72 L 413.82 314.90 L 409.87 317.98 L 405.73 320.94 L 401.40 323.79 L 396.89 326.51 L 392.20 329.10 L 387.33 331.56 L 382.31 333.87 L 377.12 336.03 L 371.79 338.03 L 366.32 339.88 L 360.72 341.55 L 355.00 343.06 L 349.16 344.39 L 343.22 345.54 L 337.19 346.50 L 331.08 347.28 L 324.90 347.87 L 318.66 348.26 L 312.36 348.46 L 306.03 348.45 L 299.68 348.24 L 293.30 347.84 L 286.93 347.22 L 280.56 346.40 L 274.21 345.37 L 267.90 344.14 L 261.63 342.70 L 255.41 341.06 L 249.27 339.21 L 243.21 337.16 L 237.24 334.91 L 231.37 332.46 L 225.62 329.82 L 220.00 326.98 L 214.53 323.95 L 209.20 320.73 L 204.04 317.33 L 199.05 313.76 L 194.24 310.02 L 189.63 306.10 L 185.23 302.03 L 181.05 297.80 L 177.09 293.42 L 173.36 288.90 L 169.88 284.25 L 166.66 279.47 L 163.69 274.57 L 161.00 269.55 L 158.58 264.43 L 156.44 259.22 L 154.60 253.92 L 153.05 248.55 L 151.80 243.10 L 150.86 237.60 L 150.23 232.05 L 149.91 226.46 L 149.91 220.84 L 150.23 215.20 L 150.88 209.55 L 151.85 203.90 L 153.14 198.26 L 154.76 192.65 L 156.71 187.06 L 158.98 181.52 L 161.57 176.04 L 164.49 170.62 L 167.72 165.27 L 171.27 160.01 L 175.13 154.84 L 179.30 149.78 L 183.77 144.83 L 188.54 140.01 L 193.59 135.33 L 198.93 130.79 L 204.55 126.40 L 210.43 122.18 L 216.57 118.13 L 222.96 114.26 L 229.59 110.58 L 236.45 107.10 L 243.53 103.83 L 250.81 100.77 L 258.29 97.93 L 265.96 95.32 L 273.80 92.95 L 281.80 90.81 L 289.94 88.92 L 298.21 87.28 L 306.60 85.90 L 315.10 84.78 L 323.68 83.93 L 332.34 83.34 L 341.05 83.03 L 349.81 82.98 L 358.59 83.22 L 367.39 83.73 L 376.18 84.53 L 384.95 85.60 L 393.69 86.95 L 402.37 88.58 L 410.98 90.50 L 419.51 92.68 L 427.94 95.15 L 436.25 97.88 L 444.43 100.89 L 452.46 104.16 L 460.33 107.69 L 468.01 111.48 L 475.51 115.53 L 482.79 119.82 L 489.84 124.35 L 496.66 129.11 L 503.23 134.11 L 509.53 139.32 L 515.55 144.75 L 521.27 150.38 L 526.70 156.20 L 531.80 162.21 L 536.58 168.40 L 541.02 174.75 L 545.10 181.26 L 548.83 187.92 L 552.19 194.71 L 555.18 201.62 L 557.78 208.64 L 559.98 215.76 L 561.79 222.97 L 563.20 230.25 L 564.19 237.60 " fill="none" fill-opacity="0.00" stroke="#2CA02C" stroke-opacity="1.00" stroke-width="1.50" stroke-linecap="square" stroke-linejoin="round"/>
<text font-family="DejaVu Sans" font-size="16.67" fill="#000000" fill-opacity="1.00" text-anchor="middle" transform="translate(328.00,431.73) scale(1,-1)">Archimedean Spiral: r = θ/(2π)</text>
<path d="M 512.80 237.60 C 512.80 261.87 508.02 285.90 498.73 308.32 C 489.45 330.74 475.83 351.11 458.67 368.27 C 441.51 385.43 421.14 399.05 398.72 408.33 C 376.30 417.62 352.27 422.40 328.00 422.40 C 303.73 422.40 279.70 417.62 257.28 408.33 C 234.86 399.05 214.49 385.43 197.33 368.27 C 180.17 351.11 166.55 330.74 157.27 308.32 C 147.98 285.90 143.20 261.87 143.20 237.60 C 143.20 213.33 147.98 189.30 157.27 166.88 C 166.55 144.46 180.17 124.09 197.33 106.93 C 214.49 89.77 234.86 76.15 257.28 66.87 C 279.70 57.58 303.73 52.80 328.00 52.80 C 352.27 52.80 376.30 57.58 398.72 66.87 C 421.14 76.15 441.51 89.77 458.67 106.93 C 475.83 124.09 489.45 144.46 498.73 166.88 C 508.02 189.30 512.80 213.33 512.80 237.60 " fill="none" fill-opacity="0.00" stroke="#000000" stroke-opacity="1.00" stroke-width="1.00" stroke-linecap="butt" stroke-linejoin="miter"/>
<text font-family="DejaVu Sans" font-size="11.11" fill="#000000" fill-opacity="1.00" text-anchor="middle" dominant-baseline="central" transform="translate(527.58,237.60) scale(1,-1)">0°</text>
<text font-family="DejaVu Sans" font-size="11.11" fill="#000000" fill-opacity="1.00" text-anchor="middle" dominant-baseline="central" transform="translate(469.13,378.73) scale(1,-1)">45°</text>
<text font-family="DejaVu Sans" font-size="11.11" fill="#000000" fill-opacity="1.00" text-anchor="middle" dominant-baseline="central" transform="translate(328.00,437.18) scale(1,-1)">90°</text>
<text font-family="DejaVu Sans" font-size="11.11" fill="#000000" fill-opacity="1.00" text-anchor="middle" dominant-baseline="central" transform="translate(186.87,378.73) scale(1,-1)">135°</text>
<text font-family="DejaVu Sans" font-size="11.11" fill="#000000" fill-opacity="1.00" text-anchor="middle" dominant-baseline="central" transform="translate(128.42,237.60) scale(1,-1)">180°</text>
<text font-family="DejaVu Sans" font-size="11.11" fill="#000000" fill-opacity="1.00" text-anchor="middle" dominant-baseline="central" transform="translate(186.87,96.47) scale(1,-1)">225°</text>
<text font-family="DejaVu Sans" font-size="11.11" fill="#000000" fill-opacity="1.00" text-anchor="middle" dominant-baseline="central" transform="translate(328.00,38.02) scale(1,-1)">270°</text>
<text font-family="DejaVu Sans" font-size="11.11" fill="#000000" fill-opacity="1.00" text-anchor="middle" dominant-baseline="central" transform="translate(469.13,96.47) scale(1,-1)">315°</text>
<text font-family="DejaVu Sans" font-size="9.72" fill="#000000" fill-opacity="1.00" text-anchor="middle" dominant-baseline="text-after-edge" transform="translate(374.20,242.60) scale(1,-1)">0.52    </text>
<text font-family="DejaVu Sans" font-size="9.72" fill="#000000" fill-opacity="1.00" text-anchor="middle" dominant-baseline="text-after-edge" transform="translate(420.40,242.60) scale(1,-1)">1.0    </text>
<text font-family="DejaVu Sans" font-size="9.72" fill="#000000" fill-opacity="1.00" text-anchor="middle" dominant-baseline="text-after-edge" transform="translate(466.60,242.60) scale(1,-1)">1.6    </text>
<text font-family="DejaVu Sans" font-size="9.72" fill="#000000" fill-opacity="1.00" text-anchor="middle" dominant-baseline="text-after-edge" transform="translate(512.80,242.60) scale(1,-1)">2.1    </text>
</g>
</svg>
