<?xml version="1.0" encoding="UTF-8"?>
<svg xmlns="http://www.w3.org/2000/svg"
     xmlns:xlink="http://www.w3.org/1999/xlink"
     width="800" height="600" viewBox="0 0 800 600">
<defs>
<clipPath id="clip-1">
<rect x="100.00" y="66.00" width="620.00" height="462.00"/>
</clipPath>
<clipPath id="clip-2">
<rect x="100.00" y="66.00" width="620.00" height="462.00"/>
</clipPath>
<clipPath id="clip-3">
<rect x="100.00" y="66.00" width="620.00" height="462.00"/>
</clipPath>
<clipPath id="clip-4">
<rect x="100.00" y="66.00" width="620.00" height="462.00"/>
</clipPath>
<clipPath id="clip-5">
<rect x="100.00" y="66.00" width="620.00" height="462.00"/>
</clipPath>
<clipPath id="clip-6">
<rect x="100.00" y="66.00" width="620.00" height="462.00"/>
</clipPath>
<clipPath id="clip-7">
<rect x="100.00" y="66.00" width="620.00" height="462.00"/>
</clipPath>
<clipPath id="clip-8">
<rect x="100.00" y="66.00" width="620.00" height="462.00"/>
</clipPath>
<clipPath id="clip-9">
<rect x="100.00" y="66.00" width="620.00" height="462.00"/>
</clipPath>
<clipPath id="clip-10">
<rect x="100.00" y="66.00" width="620.00" height="462.00"/>
</clipPath>
<clipPath id="clip-11">
<rect x="100.00" y="66.00" width="620.00" height="462.00"/>
</clipPath>
<clipPath id="clip-12">
<rect x="100.00" y="66.00" width="620.00" height="462.00"/>
</clipPath>
<clipPath id="clip-13">
<rect x="100.00" y="66.00" width="620.00" height="462.00"/>
</clipPath>
<clipPath id="clip-14">
<rect x="100.00" y="66.00" width="620.00" height="462.00"/>
</clipPath>
</defs>
<g transform="translate(0,600) scale(1,-1)">
<rect width="800" height="600" fill="white"/>
<path d="M 0.00 0.00 L 800.00 0.00 L 800.00 600.00 L 0.00 600.00 L 0.00 0.00 Z " fill="#FFFFFF" fill-opacity="1.00" stroke="#000000" stroke-opacity="1.00" stroke-width="0.00" stroke-linecap="butt" stroke-linejoin="miter"/>
<path d="M 100.00 66.00 L 720.00 66.00 L 720.00 528.00 L 100.00 528.00 L 100.00 66.00 Z " fill="#FFFFFF" fill-opacity="1.00" stroke="none" stroke-opacity="0.00" stroke-width="0.00" stroke-linecap="butt" stroke-linejoin="miter"/>
<path d="M 128.50 66.50 L 128.50 528.50 " fill="none" fill-opacity="0.00" stroke="#B0B0B0" stroke-opacity="1.00" stroke-width="0.80" stroke-linecap="butt" stroke-linejoin="miter" clip-path="url(#clip-1)"/>
<path d="M 222.50 66.50 L 222.50 528.50 " fill="none" fill-opacity="0.00" stroke="#B0B0B0" stroke-opacity="1.00" stroke-width="0.80" stroke-linecap="butt" stroke-linejoin="miter" clip-path="url(#clip-2)"/>
<path d="M 316.50 66.50 L 316.50 528.50 " fill="none" fill-opacity="0.00" stroke="#B0B0B0" stroke-opacity="1.00" stroke-width="0.80" stroke-linecap="butt" stroke-linejoin="miter" clip-path="url(#clip-3)"/>
<path d="M 410.50 66.50 L 410.50 528.50 " fill="none" fill-opacity="0.00" stroke="#B0B0B0" stroke-opacity="1.00" stroke-width="0.80" stroke-linecap="butt" stroke-linejoin="miter" clip-path="url(#clip-4)"/>
<path d="M 504.50 66.50 L 504.50 528.50 " fill="none" fill-opacity="0.00" stroke="#B0B0B0" stroke-opacity="1.00" stroke-width="0.80" stroke-linecap="butt" stroke-linejoin="miter" clip-path="url(#clip-5)"/>
<path d="M 598.50 66.50 L 598.50 528.50 " fill="none" fill-opacity="0.00" stroke="#B0B0B0" stroke-opacity="1.00" stroke-width="0.80" stroke-linecap="butt" stroke-linejoin="miter" clip-path="url(#clip-6)"/>
<path d="M 692.50 66.50 L 692.50 528.50 " fill="none" fill-opacity="0.00" stroke="#B0B0B0" stroke-opacity="1.00" stroke-width="0.80" stroke-linecap="butt" stroke-linejoin="miter" clip-path="url(#clip-7)"/>
<path d="M 100.50 86.50 L 720.50 86.50 " fill="none" fill-opacity="0.00" stroke="#B0B0B0" stroke-opacity="1.00" stroke-width="0.80" stroke-linecap="butt" stroke-linejoin="miter" clip-path="url(#clip-8)"/>
<path d="M 100.50 156.50 L 720.50 156.50 " fill="none" fill-opacity="0.00" stroke="#B0B0B0" stroke-opacity="1.00" stroke-width="0.80" stroke-linecap="butt" stroke-linejoin="miter" clip-path="url(#clip-9)"/>
<path d="M 100.50 226.50 L 720.50 226.50 " fill="none" fill-opacity="0.00" stroke="#B0B0B0" stroke-opacity="1.00" stroke-width="0.80" stroke-linecap="butt" stroke-linejoin="miter" clip-path="url(#clip-10)"/>
<path d="M 100.50 296.50 L 720.50 296.50 " fill="none" fill-opacity="0.00" stroke="#B0B0B0" stroke-opacity="1.00" stroke-width="0.80" stroke-linecap="butt" stroke-linejoin="miter" clip-path="url(#clip-11)"/>
<path d="M 100.50 366.50 L 720.50 366.50 " fill="none" fill-opacity="0.00" stroke="#B0B0B0" stroke-opacity="1.00" stroke-width="0.80" stroke-linecap="butt" stroke-linejoin="miter" clip-path="url(#clip-12)"/>
<path d="M 100.50 436.50 L 720.50 436.50 " fill="none" fill-opacity="0.00" stroke="#B0B0B0" stroke-opacity="1.00" stroke-width="0.80" stroke-linecap="butt" stroke-linejoin="miter" clip-path="url(#clip-13)"/>
<path d="M 100.50 506.50 L 720.50 506.50 " fill="none" fill-opacity="0.00" stroke="#B0B0B0" stroke-opacity="1.00" stroke-width="0.80" stroke-linecap="butt" stroke-linejoin="miter" clip-path="url(#clip-14)"/>
<path d="M 127.19 87.74 L 75.15 48.97 L 70.17 52.68 L 66.19 40.80 L 82.13 43.77 L 77.15 47.49 L 129.18 86.26 Z " fill="#1F77B4" fill-opacity="1.00" stroke="#1F77B4" stroke-opacity="1.00" stroke-width="0.00" stroke-linecap="butt" stroke-linejoin="round"/>
<path d="M 239.70 87.54 L 209.75 50.35 L 203.71 53.05 L 203.71 40.80 L 218.21 46.57 L 212.17 49.27 L 242.12 86.46 Z " fill="#1F77B4" fill-opacity="1.00" stroke="#1F77B4" stroke-opacity="1.00" stroke-width="0.00" stroke-linecap="butt" stroke-linejoin="round"/>
<path d="M 352.25 87.21 L 342.62 51.31 L 335.71 52.34 L 341.24 40.80 L 352.29 49.86 L 345.38 50.89 L 355.02 86.79 Z " fill="#1F77B4" fill-opacity="1.00" stroke="#1F77B4" stroke-opacity="1.00" stroke-width="0.00" stroke-linecap="butt" stroke-linejoin="round"/>
<path d="M 464.98 86.79 L 474.62 50.89 L 467.71 49.86 L 478.76 40.80 L 484.29 52.34 L 477.38 51.31 L 467.75 87.21 Z " fill="#1F77B4" fill-opacity="1.00" stroke="#1F77B4" stroke-opacity="1.00" stroke-width="0.00" stroke-linecap="butt" stroke-linejoin="round"/>
<path d="M 577.88 86.46 L 607.83 49.27 L 601.79 46.57 L 616.29 40.80 L 616.29 53.05 L 610.25 50.35 L 580.30 87.54 Z " fill="#1F77B4" fill-opacity="1.00" stroke="#1F77B4" stroke-opacity="1.00" stroke-width="0.00" stroke-linecap="butt" stroke-linejoin="round"/>
<path d="M 690.82 86.26 L 742.85 47.49 L 737.87 43.77 L 753.81 40.80 L 749.83 52.68 L 744.85 48.97 L 692.81 87.74 Z " fill="#1F77B4" fill-opacity="1.00" stroke="#1F77B4" stroke-opacity="1.00" stroke-width="0.00" stroke-linecap="butt" stroke-linejoin="round"/>
<path d="M 127.46 171.90 L 77.54 149.58 L 73.92 154.09 L 66.19 143.28 L 82.62 143.28 L 78.99 147.78 L 128.91 170.10 Z " fill="#1F77B4" fill-opacity="1.00" stroke="#1F77B4" stroke-opacity="1.00" stroke-width="0.00" stroke-linecap="butt" stroke-linejoin="round"/>
<path d="M 239.91 171.74 L 212.68 151.45 L 207.70 155.16 L 203.71 143.28 L 219.65 146.25 L 214.67 149.96 L 241.91 170.26 Z " fill="#1F77B4" fill-opacity="1.00" stroke="#1F77B4" stroke-opacity="1.00" stroke-width="0.00" stroke-linecap="butt" stroke-linejoin="round"/>
<path d="M 352.30 171.33 L 344.36 153.58 L 337.67 155.24 L 341.24 143.28 L 353.71 151.25 L 347.03 152.91 L 354.97 170.67 Z " fill="#1F77B4" fill-opacity="1.00" stroke="#1F77B4" stroke-opacity="1.00" stroke-width="0.00" stroke-linecap="butt" stroke-linejoin="round"/>
<path d="M 465.03 170.67 L 472.97 152.91 L 466.29 151.25 L 478.76 143.28 L 482.33 155.24 L 475.64 153.58 L 467.70 171.33 Z " fill="#1F77B4" fill-opacity="1.00" stroke="#1F77B4" stroke-opacity="1.00" stroke-width="0.00" stroke-linecap="butt" stroke-linejoin="round"/>
<path d="M 578.09 170.26 L 605.33 149.96 L 600.35 146.25 L 616.29 143.28 L 612.30 155.16 L 607.32 151.45 L 580.09 171.74 Z " fill="#1F77B4" fill-opacity="1.00" stroke="#1F77B4" stroke-opacity="1.00" stroke-width="0.00" stroke-linecap="butt" stroke-linejoin="round"/>
<path d="M 691.09 170.10 L 741.01 147.78 L 737.38 143.28 L 753.81 143.28 L 746.08 154.09 L 742.46 149.58 L 692.54 171.90 Z " fill="#1F77B4" fill-opacity="1.00" stroke="#1F77B4" stroke-opacity="1.00" stroke-width="0.00" stroke-linecap="butt" stroke-linejoin="round"/>
<path d="M 127.91 256.03 L 79.73 248.85 L 78.35 254.00 L 66.19 245.76 L 81.66 241.64 L 80.28 246.79 L 128.46 253.97 Z " fill="#1F77B4" fill-opacity="1.00" stroke="#1F77B4" stroke-opacity="1.00" stroke-width="0.00" stroke-linecap="butt" stroke-linejoin="round"/>
<path d="M 240.46 256.00 L 216.63 250.08 L 214.41 255.06 L 203.71 245.76 L 219.75 243.10 L 217.53 248.09 L 241.35 254.00 Z " fill="#1F77B4" fill-opacity="1.00" stroke="#1F77B4" stroke-opacity="1.00" stroke-width="0.00" stroke-linecap="butt" stroke-linejoin="round"/>
<path d="M 352.64 255.74 L 350.20 253.93 L 345.22 257.64 L 341.24 245.76 L 357.18 248.73 L 352.20 252.44 L 354.63 254.26 Z " fill="#1F77B4" fill-opacity="1.00" stroke="#1F77B4" stroke-opacity="1.00" stroke-width="0.00" stroke-linecap="butt" stroke-linejoin="round"/>
<path d="M 465.37 254.26 L 467.80 252.44 L 462.82 248.73 L 478.76 245.76 L 474.78 257.64 L 469.80 253.93 L 467.36 255.74 Z " fill="#1F77B4" fill-opacity="1.00" stroke="#1F77B4" stroke-opacity="1.00" stroke-width="0.00" stroke-linecap="butt" stroke-linejoin="round"/>
<path d="M 578.65 254.00 L 602.47 248.09 L 600.25 243.10 L 616.29 245.76 L 605.59 255.06 L 603.37 250.08 L 579.54 256.00 Z " fill="#1F77B4" fill-opacity="1.00" stroke="#1F77B4" stroke-opacity="1.00" stroke-width="0.00" stroke-linecap="butt" stroke-linejoin="round"/>
<path d="M 691.54 253.97 L 739.72 246.79 L 738.34 241.64 L 753.81 245.76 L 741.65 254.00 L 740.27 248.85 L 692.09 256.03 Z " fill="#1F77B4" fill-opacity="1.00" stroke="#1F77B4" stroke-opacity="1.00" stroke-width="0.00" stroke-linecap="butt" stroke-linejoin="round"/>
<path d="M 128.46 340.03 L 80.28 347.21 L 81.66 352.36 L 66.19 348.24 L 78.35 340.00 L 79.73 345.15 L 127.91 337.97 Z " fill="#1F77B4" fill-opacity="1.00" stroke="#1F77B4" stroke-opacity="1.00" stroke-width="0.00" stroke-linecap="butt" stroke-linejoin="round"/>
<path d="M 241.35 340.00 L 217.53 345.91 L 219.75 350.90 L 203.71 348.24 L 214.41 338.94 L 216.63 343.92 L 240.46 338.00 Z " fill="#1F77B4" fill-opacity="1.00" stroke="#1F77B4" stroke-opacity="1.00" stroke-width="0.00" stroke-linecap="butt" stroke-linejoin="round"/>
<path d="M 354.63 339.74 L 352.20 341.56 L 357.18 345.27 L 341.24 348.24 L 345.22 336.36 L 350.20 340.07 L 352.64 338.26 Z " fill="#1F77B4" fill-opacity="1.00" stroke="#1F77B4" stroke-opacity="1.00" stroke-width="0.00" stroke-linecap="butt" stroke-linejoin="round"/>
<path d="M 467.36 338.26 L 469.80 340.07 L 474.78 336.36 L 478.76 348.24 L 462.82 345.27 L 467.80 341.56 L 465.37 339.74 Z " fill="#1F77B4" fill-opacity="1.00" stroke="#1F77B4" stroke-opacity="1.00" stroke-width="0.00" stroke-linecap="butt" stroke-linejoin="round"/>
<path d="M 579.54 338.00 L 603.37 343.92 L 605.59 338.94 L 616.29 348.24 L 600.25 350.90 L 602.47 345.91 L 578.65 340.00 Z " fill="#1F77B4" fill-opacity="1.00" stroke="#1F77B4" stroke-opacity="1.00" stroke-width="0.00" stroke-linecap="butt" stroke-linejoin="round"/>
<path d="M 692.09 337.97 L 740.27 345.15 L 741.65 340.00 L 753.81 348.24 L 738.34 352.36 L 739.72 347.21 L 691.54 340.03 Z " fill="#1F77B4" fill-opacity="1.00" stroke="#1F77B4" stroke-opacity="1.00" stroke-width="0.00" stroke-linecap="butt" stroke-linejoin="round"/>
<path d="M 128.91 423.90 L 78.99 446.22 L 82.62 450.72 L 66.19 450.72 L 73.92 439.91 L 77.54 444.42 L 127.46 422.10 Z " fill="#1F77B4" fill-opacity="1.00" stroke="#1F77B4" stroke-opacity="1.00" stroke-width="0.00" stroke-linecap="butt" stroke-linejoin="round"/>
<path d="M 241.91 423.74 L 214.67 444.04 L 219.65 447.75 L 203.71 450.72 L 207.70 438.84 L 212.68 442.55 L 239.91 422.26 Z " fill="#1F77B4" fill-opacity="1.00" stroke="#1F77B4" stroke-opacity="1.00" stroke-width="0.00" stroke-linecap="butt" stroke-linejoin="round"/>
<path d="M 354.97 423.33 L 347.03 441.09 L 353.71 442.75 L 341.24 450.72 L 337.67 438.76 L 344.36 440.42 L 352.30 422.67 Z " fill="#1F77B4" fill-opacity="1.00" stroke="#1F77B4" stroke-opacity="1.00" stroke-width="0.00" stroke-linecap="butt" stroke-linejoin="round"/>
<path d="M 467.70 422.67 L 475.64 440.42 L 482.33 438.76 L 478.76 450.72 L 466.29 442.75 L 472.97 441.09 L 465.03 423.33 Z " fill="#1F77B4" fill-opacity="1.00" stroke="#1F77B4" stroke-opacity="1.00" stroke-width="0.00" stroke-linecap="butt" stroke-linejoin="round"/>
<path d="M 580.09 422.26 L 607.32 442.55 L 612.30 438.84 L 616.29 450.72 L 600.35 447.75 L 605.33 444.04 L 578.09 423.74 Z " fill="#1F77B4" fill-opacity="1.00" stroke="#1F77B4" stroke-opacity="1.00" stroke-width="0.00" stroke-linecap="butt" stroke-linejoin="round"/>
<path d="M 692.54 422.10 L 742.46 444.42 L 746.08 439.91 L 753.81 450.72 L 737.38 450.72 L 741.01 446.22 L 691.09 423.90 Z " fill="#1F77B4" fill-opacity="1.00" stroke="#1F77B4" stroke-opacity="1.00" stroke-width="0.00" stroke-linecap="butt" stroke-linejoin="round"/>
<path d="M 129.18 507.74 L 77.15 546.51 L 82.13 550.23 L 66.19 553.20 L 70.17 541.32 L 75.15 545.03 L 127.19 506.26 Z " fill="#1F77B4" fill-opacity="1.00" stroke="#1F77B4" stroke-opacity="1.00" stroke-width="0.00" stroke-linecap="butt" stroke-linejoin="round"/>
<path d="M 242.12 507.54 L 212.17 544.73 L 218.21 547.43 L 203.71 553.20 L 203.71 540.95 L 209.75 543.65 L 239.70 506.46 Z " fill="#1F77B4" fill-opacity="1.00" stroke="#1F77B4" stroke-opacity="1.00" stroke-width="0.00" stroke-linecap="butt" stroke-linejoin="round"/>
<path d="M 355.02 507.21 L 345.38 543.11 L 352.29 544.14 L 341.24 553.20 L 335.71 541.66 L 342.62 542.69 L 352.25 506.79 Z " fill="#1F77B4" fill-opacity="1.00" stroke="#1F77B4" stroke-opacity="1.00" stroke-width="0.00" stroke-linecap="butt" stroke-linejoin="round"/>
<path d="M 467.75 506.79 L 477.38 542.69 L 484.29 541.66 L 478.76 553.20 L 467.71 544.14 L 474.62 543.11 L 464.98 507.21 Z " fill="#1F77B4" fill-opacity="1.00" stroke="#1F77B4" stroke-opacity="1.00" stroke-width="0.00" stroke-linecap="butt" stroke-linejoin="round"/>
<path d="M 580.30 506.46 L 610.25 543.65 L 616.29 540.95 L 616.29 553.20 L 601.79 547.43 L 607.83 544.73 L 577.88 507.54 Z " fill="#1F77B4" fill-opacity="1.00" stroke="#1F77B4" stroke-opacity="1.00" stroke-width="0.00" stroke-linecap="butt" stroke-linejoin="round"/>
<path d="M 692.81 506.26 L 744.85 545.03 L 749.83 541.32 L 753.81 553.20 L 737.87 550.23 L 742.85 546.51 L 690.82 507.74 Z " fill="#1F77B4" fill-opacity="1.00" stroke="#1F77B4" stroke-opacity="1.00" stroke-width="0.00" stroke-linecap="butt" stroke-linejoin="round"/>
<text font-family="DejaVu Sans" font-size="16.67" fill="#000000" fill-opacity="1.00" text-anchor="middle" transform="translate(410.00,537.33) scale(1,-1)">Quiver Plot — Gradient Field</text>
<path d="M 128.50 66.50 L 128.50 61.50 " fill="none" fill-opacity="0.00" stroke="#000000" stroke-opacity="1.00" stroke-width="0.80" stroke-linecap="butt" stroke-linejoin="miter"/>
<text font-family="DejaVu Sans" font-size="13.89" fill="#000000" fill-opacity="1.00" text-anchor="middle" dominant-baseline="text-before-edge" transform="translate(128.18,56.28) scale(1,-1)">-3</text>
<path d="M 222.50 66.50 L 222.50 61.50 " fill="none" fill-opacity="0.00" stroke="#000000" stroke-opacity="1.00" stroke-width="0.80" stroke-linecap="butt" stroke-linejoin="miter"/>
<text font-family="DejaVu Sans" font-size="13.89" fill="#000000" fill-opacity="1.00" text-anchor="middle" dominant-baseline="text-before-edge" transform="translate(222.12,56.28) scale(1,-1)">-2</text>
<path d="M 316.50 66.50 L 316.50 61.50 " fill="none" fill-opacity="0.00" stroke="#000000" stroke-opacity="1.00" stroke-width="0.80" stroke-linecap="butt" stroke-linejoin="miter"/>
<text font-family="DejaVu Sans" font-size="13.89" fill="#000000" fill-opacity="1.00" text-anchor="middle" dominant-baseline="text-before-edge" transform="translate(316.06,56.28) scale(1,-1)">-1</text>
<path d="M 410.50 66.50 L 410.50 61.50 " fill="none" fill-opacity="0.00" stroke="#000000" stroke-opacity="1.00" stroke-width="0.80" stroke-linecap="butt" stroke-linejoin="miter"/>
<text font-family="DejaVu Sans" font-size="13.89" fill="#000000" fill-opacity="1.00" text-anchor="middle" dominant-baseline="text-before-edge" transform="translate(410.00,56.28) scale(1,-1)">0</text>
<path d="M 504.50 66.50 L 504.50 61.50 " fill="none" fill-opacity="0.00" stroke="#000000" stroke-opacity="1.00" stroke-width="0.80" stroke-linecap="butt" stroke-linejoin="miter"/>
<text font-family="DejaVu Sans" font-size="13.89" fill="#000000" fill-opacity="1.00" text-anchor="middle" dominant-baseline="text-before-edge" transform="translate(503.94,56.28) scale(1,-1)">1</text>
<path d="M 598.50 66.50 L 598.50 61.50 " fill="none" fill-opacity="0.00" stroke="#000000" stroke-opacity="1.00" stroke-width="0.80" stroke-linecap="butt" stroke-linejoin="miter"/>
<text font-family="DejaVu Sans" font-size="13.89" fill="#000000" fill-opacity="1.00" text-anchor="middle" dominant-baseline="text-before-edge" transform="translate(597.88,56.28) scale(1,-1)">2</text>
<path d="M 692.50 66.50 L 692.50 61.50 " fill="none" fill-opacity="0.00" stroke="#000000" stroke-opacity="1.00" stroke-width="0.80" stroke-linecap="butt" stroke-linejoin="miter"/>
<text font-family="DejaVu Sans" font-size="13.89" fill="#000000" fill-opacity="1.00" text-anchor="middle" dominant-baseline="text-before-edge" transform="translate(691.82,56.28) scale(1,-1)">3</text>
<text font-family="DejaVu Sans" font-size="13.89" fill="#000000" fill-opacity="1.00" text-anchor="middle" dominant-baseline="text-before-edge" transform="translate(410.00,37.17) scale(1,-1)">X</text>
<path d="M 100.50 86.50 L 95.50 86.50 " fill="none" fill-opacity="0.00" stroke="#000000" stroke-opacity="1.00" stroke-width="0.80" stroke-linecap="butt" stroke-linejoin="miter"/>
<text font-family="DejaVu Sans" font-size="13.89" fill="#000000" fill-opacity="1.00" text-anchor="end" dominant-baseline="central" transform="translate(90.28,87.00) scale(1,-1)">-3</text>
<path d="M 100.50 156.50 L 95.50 156.50 " fill="none" fill-opacity="0.00" stroke="#000000" stroke-opacity="1.00" stroke-width="0.80" stroke-linecap="butt" stroke-linejoin="miter"/>
<text font-family="DejaVu Sans" font-size="13.89" fill="#000000" fill-opacity="1.00" text-anchor="end" dominant-baseline="central" transform="translate(90.28,157.00) scale(1,-1)">-2</text>
<path d="M 100.50 226.50 L 95.50 226.50 " fill="none" fill-opacity="0.00" stroke="#000000" stroke-opacity="1.00" stroke-width="0.80" stroke-linecap="butt" stroke-linejoin="miter"/>
<text font-family="DejaVu Sans" font-size="13.89" fill="#000000" fill-opacity="1.00" text-anchor="end" dominant-baseline="central" transform="translate(90.28,227.00) scale(1,-1)">-1</text>
<path d="M 100.50 296.50 L 95.50 296.50 " fill="none" fill-opacity="0.00" stroke="#000000" stroke-opacity="1.00" stroke-width="0.80" stroke-linecap="butt" stroke-linejoin="miter"/>
<text font-family="DejaVu Sans" font-size="13.89" fill="#000000" fill-opacity="1.00" text-anchor="end" dominant-baseline="central" transform="translate(90.28,297.00) scale(1,-1)">0</text>
<path d="M 100.50 366.50 L 95.50 366.50 " fill="none" fill-opacity="0.00" stroke="#000000" stroke-opacity="1.00" stroke-width="0.80" stroke-linecap="butt" stroke-linejoin="miter"/>
<text font-family="DejaVu Sans" font-size="13.89" fill="#000000" fill-opacity="1.00" text-anchor="end" dominant-baseline="central" transform="translate(90.28,367.00) scale(1,-1)">1</text>
<path d="M 100.50 436.50 L 95.50 436.50 " fill="none" fill-opacity="0.00" stroke="#000000" stroke-opacity="1.00" stroke-width="0.80" stroke-linecap="butt" stroke-linejoin="miter"/>
<text font-family="DejaVu Sans" font-size="13.89" fill="#000000" fill-opacity="1.00" text-anchor="end" dominant-baseline="central" transform="translate(90.28,437.00) scale(1,-1)">2</text>
<path d="M 100.50 506.50 L 95.50 506.50 " fill="none" fill-opacity="0.00" stroke="#000000" stroke-opacity="1.00" stroke-width="0.80" stroke-linecap="butt" stroke-linejoin="miter"/>
<text font-family="DejaVu Sans" font-size="13.89" fill="#000000" fill-opacity="1.00" text-anchor="end" dominant-baseline="central" transform="translate(90.28,507.00) scale(1,-1)">3</text>
<text font-family="DejaVu Sans" font-size="13.89" fill="#000000" fill-opacity="1.00" text-anchor="middle" transform="translate(57.95,297.00) rotate(-90.00) scale(1,-1)">Y</text>
<path d="M 100.50 66.50 L 100.50 528.50 " fill="none" fill-opacity="0.00" stroke="#000000" stroke-opacity="1.00" stroke-width="0.80" stroke-linecap="square" stroke-linejoin="miter"/>
<path d="M 720.50 66.50 L 720.50 528.50 " fill="none" fill-opacity="0.00" stroke="#000000" stroke-opacity="1.00" stroke-width="0.80" stroke-linecap="square" stroke-linejoin="miter"/>
<path d="M 100.50 65.50 L 720.50 65.50 " fill="none" fill-opacity="0.00" stroke="#000000" stroke-opacity="1.00" stroke-width="0.80" stroke-linecap="square" stroke-linejoin="miter"/>
<path d="M 100.50 527.50 L 720.50 527.50 " fill="none" fill-opacity="0.00" stroke="#000000" stroke-opacity="1.00" stroke-width="0.80" stroke-linecap="square" stroke-linejoin="miter"/>
</g>
</svg>
