<?xml version="1.0" encoding="UTF-8"?>
<svg xmlns="http://www.w3.org/2000/svg"
     xmlns:xlink="http://www.w3.org/1999/xlink"
     width="800" height="600" viewBox="0 0 800 600">
<defs>
<clipPath id="clip-1">
<rect x="100.00" y="66.00" width="620.00" height="462.00"/>
</clipPath>
<clipPath id="clip-2">
<rect x="100.00" y="66.00" width="620.00" height="462.00"/>
</clipPath>
<clipPath id="clip-3">
<rect x="100.00" y="66.00" width="620.00" height="462.00"/>
</clipPath>
<clipPath id="clip-4">
<rect x="100.00" y="66.00" width="620.00" height="462.00"/>
</clipPath>
<clipPath id="clip-5">
<rect x="100.00" y="66.00" width="620.00" height="462.00"/>
</clipPath>
<clipPath id="clip-6">
<rect x="100.00" y="66.00" width="620.00" height="462.00"/>
</clipPath>
<clipPath id="clip-7">
<rect x="100.00" y="66.00" width="620.00" height="462.00"/>
</clipPath>
<clipPath id="clip-8">
<rect x="100.00" y="66.00" width="620.00" height="462.00"/>
</clipPath>
<clipPath id="clip-9">
<rect x="100.00" y="66.00" width="620.00" height="462.00"/>
</clipPath>
<clipPath id="clip-10">
<rect x="100.00" y="66.00" width="620.00" height="462.00"/>
</clipPath>
<clipPath id="clip-11">
<rect x="100.00" y="66.00" width="620.00" height="462.00"/>
</clipPath>
<clipPath id="clip-12">
<rect x="100.00" y="66.00" width="620.00" height="462.00"/>
</clipPath>
<clipPath id="clip-13">
<rect x="100.00" y="66.00" width="620.00" height="462.00"/>
</clipPath>
<clipPath id="clip-14">
<rect x="100.00" y="66.00" width="620.00" height="462.00"/>
</clipPath>
<clipPath id="clip-15">
<rect x="100.00" y="66.00" width="620.00" height="462.00"/>
</clipPath>
<clipPath id="clip-16">
<rect x="100.00" y="66.00" width="620.00" height="462.00"/>
</clipPath>
<clipPath id="clip-17">
<rect x="100.00" y="66.00" width="620.00" height="462.00"/>
</clipPath>
<clipPath id="clip-18">
<rect x="100.00" y="66.00" width="620.00" height="462.00"/>
</clipPath>
</defs>
<g transform="translate(0,600) scale(1,-1)">
<rect width="800" height="600" fill="white"/>
<path d="M 0.00 0.00 L 800.00 0.00 L 800.00 600.00 L 0.00 600.00 L 0.00 0.00 Z " fill="#FFFFFF" fill-opacity="1.00" stroke="#000000" stroke-opacity="1.00" stroke-width="0.00" stroke-linecap="butt" stroke-linejoin="miter"/>
<path d="M 100.00 66.00 L 720.00 66.00 L 720.00 528.00 L 100.00 528.00 L 100.00 66.00 Z " fill="#FFFFFF" fill-opacity="1.00" stroke="none" stroke-opacity="0.00" stroke-width="0.00" stroke-linecap="butt" stroke-linejoin="miter"/>
<path d="M 128.50 66.50 L 128.50 528.50 " fill="none" fill-opacity="0.00" stroke="#B0B0B0" stroke-opacity="1.00" stroke-width="0.80" stroke-linecap="butt" stroke-linejoin="miter" clip-path="url(#clip-1)"/>
<path d="M 199.50 66.50 L 199.50 528.50 " fill="none" fill-opacity="0.00" stroke="#B0B0B0" stroke-opacity="1.00" stroke-width="0.80" stroke-linecap="butt" stroke-linejoin="miter" clip-path="url(#clip-2)"/>
<path d="M 269.50 66.50 L 269.50 528.50 " fill="none" fill-opacity="0.00" stroke="#B0B0B0" stroke-opacity="1.00" stroke-width="0.80" stroke-linecap="butt" stroke-linejoin="miter" clip-path="url(#clip-3)"/>
<path d="M 340.50 66.50 L 340.50 528.50 " fill="none" fill-opacity="0.00" stroke="#B0B0B0" stroke-opacity="1.00" stroke-width="0.80" stroke-linecap="butt" stroke-linejoin="miter" clip-path="url(#clip-4)"/>
<path d="M 410.50 66.50 L 410.50 528.50 " fill="none" fill-opacity="0.00" stroke="#B0B0B0" stroke-opacity="1.00" stroke-width="0.80" stroke-linecap="butt" stroke-linejoin="miter" clip-path="url(#clip-5)"/>
<path d="M 480.50 66.50 L 480.50 528.50 " fill="none" fill-opacity="0.00" stroke="#B0B0B0" stroke-opacity="1.00" stroke-width="0.80" stroke-linecap="butt" stroke-linejoin="miter" clip-path="url(#clip-6)"/>
<path d="M 551.50 66.50 L 551.50 528.50 " fill="none" fill-opacity="0.00" stroke="#B0B0B0" stroke-opacity="1.00" stroke-width="0.80" stroke-linecap="butt" stroke-linejoin="miter" clip-path="url(#clip-7)"/>
<path d="M 621.50 66.50 L 621.50 528.50 " fill="none" fill-opacity="0.00" stroke="#B0B0B0" stroke-opacity="1.00" stroke-width="0.80" stroke-linecap="butt" stroke-linejoin="miter" clip-path="url(#clip-8)"/>
<path d="M 692.50 66.50 L 692.50 528.50 " fill="none" fill-opacity="0.00" stroke="#B0B0B0" stroke-opacity="1.00" stroke-width="0.80" stroke-linecap="butt" stroke-linejoin="miter" clip-path="url(#clip-9)"/>
<path d="M 100.50 86.50 L 720.50 86.50 " fill="none" fill-opacity="0.00" stroke="#B0B0B0" stroke-opacity="1.00" stroke-width="0.80" stroke-linecap="butt" stroke-linejoin="miter" clip-path="url(#clip-10)"/>
<path d="M 100.50 139.50 L 720.50 139.50 " fill="none" fill-opacity="0.00" stroke="#B0B0B0" stroke-opacity="1.00" stroke-width="0.80" stroke-linecap="butt" stroke-linejoin="miter" clip-path="url(#clip-11)"/>
<path d="M 100.50 191.50 L 720.50 191.50 " fill="none" fill-opacity="0.00" stroke="#B0B0B0" stroke-opacity="1.00" stroke-width="0.80" stroke-linecap="butt" stroke-linejoin="miter" clip-path="url(#clip-12)"/>
<path d="M 100.50 243.50 L 720.50 243.50 " fill="none" fill-opacity="0.00" stroke="#B0B0B0" stroke-opacity="1.00" stroke-width="0.80" stroke-linecap="butt" stroke-linejoin="miter" clip-path="url(#clip-13)"/>
<path d="M 100.50 296.50 L 720.50 296.50 " fill="none" fill-opacity="0.00" stroke="#B0B0B0" stroke-opacity="1.00" stroke-width="0.80" stroke-linecap="butt" stroke-linejoin="miter" clip-path="url(#clip-14)"/>
<path d="M 100.50 349.50 L 720.50 349.50 " fill="none" fill-opacity="0.00" stroke="#B0B0B0" stroke-opacity="1.00" stroke-width="0.80" stroke-linecap="butt" stroke-linejoin="miter" clip-path="url(#clip-15)"/>
<path d="M 100.50 401.50 L 720.50 401.50 " fill="none" fill-opacity="0.00" stroke="#B0B0B0" stroke-opacity="1.00" stroke-width="0.80" stroke-linecap="butt" stroke-linejoin="miter" clip-path="url(#clip-16)"/>
<path d="M 100.50 453.50 L 720.50 453.50 " fill="none" fill-opacity="0.00" stroke="#B0B0B0" stroke-opacity="1.00" stroke-width="0.80" stroke-linecap="butt" stroke-linejoin="miter" clip-path="url(#clip-17)"/>
<path d="M 100.50 506.50 L 720.50 506.50 " fill="none" fill-opacity="0.00" stroke="#B0B0B0" stroke-opacity="1.00" stroke-width="0.80" stroke-linecap="butt" stroke-linejoin="miter" clip-path="url(#clip-18)"/>
<path d="M 128.18 85.95 L 170.45 85.95 L 170.45 80.70 L 184.55 87.00 L 170.45 93.30 L 170.45 88.05 L 128.18 88.05 Z " fill="#1F77B4" fill-opacity="1.00" stroke="#1F77B4" stroke-opacity="1.00" stroke-width="0.00" stroke-linecap="butt" stroke-linejoin="round"/>
<path d="M 269.09 85.95 L 311.36 85.95 L 311.36 80.70 L 325.45 87.00 L 311.36 93.30 L 311.36 88.05 L 269.09 88.05 Z " fill="#1F77B4" fill-opacity="1.00" stroke="#1F77B4" stroke-opacity="1.00" stroke-width="0.00" stroke-linecap="butt" stroke-linejoin="round"/>
<path d="M 410.00 85.95 L 452.27 85.95 L 452.27 80.70 L 466.36 87.00 L 452.27 93.30 L 452.27 88.05 L 410.00 88.05 Z " fill="#1F77B4" fill-opacity="1.00" stroke="#1F77B4" stroke-opacity="1.00" stroke-width="0.00" stroke-linecap="butt" stroke-linejoin="round"/>
<path d="M 550.91 85.95 L 593.18 85.95 L 593.18 80.70 L 607.27 87.00 L 593.18 93.30 L 593.18 88.05 L 550.91 88.05 Z " fill="#1F77B4" fill-opacity="1.00" stroke="#1F77B4" stroke-opacity="1.00" stroke-width="0.00" stroke-linecap="butt" stroke-linejoin="round"/>
<path d="M 691.82 85.95 L 734.09 85.95 L 734.09 80.70 L 748.18 87.00 L 734.09 93.30 L 734.09 88.05 L 691.82 88.05 Z " fill="#1F77B4" fill-opacity="1.00" stroke="#1F77B4" stroke-opacity="1.00" stroke-width="0.00" stroke-linecap="butt" stroke-linejoin="round"/>
<path d="M 128.18 190.95 L 170.45 190.95 L 170.45 185.70 L 184.55 192.00 L 170.45 198.30 L 170.45 193.05 L 128.18 193.05 Z " fill="#1F77B4" fill-opacity="1.00" stroke="#1F77B4" stroke-opacity="1.00" stroke-width="0.00" stroke-linecap="butt" stroke-linejoin="round"/>
<path d="M 269.09 190.95 L 311.36 190.95 L 311.36 185.70 L 325.45 192.00 L 311.36 198.30 L 311.36 193.05 L 269.09 193.05 Z " fill="#1F77B4" fill-opacity="1.00" stroke="#1F77B4" stroke-opacity="1.00" stroke-width="0.00" stroke-linecap="butt" stroke-linejoin="round"/>
<path d="M 410.00 190.95 L 452.27 190.95 L 452.27 185.70 L 466.36 192.00 L 452.27 198.30 L 452.27 193.05 L 410.00 193.05 Z " fill="#1F77B4" fill-opacity="1.00" stroke="#1F77B4" stroke-opacity="1.00" stroke-width="0.00" stroke-linecap="butt" stroke-linejoin="round"/>
<path d="M 550.91 190.95 L 593.18 190.95 L 593.18 185.70 L 607.27 192.00 L 593.18 198.30 L 593.18 193.05 L 550.91 193.05 Z " fill="#1F77B4" fill-opacity="1.00" stroke="#1F77B4" stroke-opacity="1.00" stroke-width="0.00" stroke-linecap="butt" stroke-linejoin="round"/>
<path d="M 691.82 190.95 L 734.09 190.95 L 734.09 185.70 L 748.18 192.00 L 734.09 198.30 L 734.09 193.05 L 691.82 193.05 Z " fill="#1F77B4" fill-opacity="1.00" stroke="#1F77B4" stroke-opacity="1.00" stroke-width="0.00" stroke-linecap="butt" stroke-linejoin="round"/>
<path d="M 128.18 295.95 L 170.45 295.95 L 170.45 290.70 L 184.55 297.00 L 170.45 303.30 L 170.45 298.05 L 128.18 298.05 Z " fill="#1F77B4" fill-opacity="1.00" stroke="#1F77B4" stroke-opacity="1.00" stroke-width="0.00" stroke-linecap="butt" stroke-linejoin="round"/>
<path d="M 269.09 295.95 L 311.36 295.95 L 311.36 290.70 L 325.45 297.00 L 311.36 303.30 L 311.36 298.05 L 269.09 298.05 Z " fill="#1F77B4" fill-opacity="1.00" stroke="#1F77B4" stroke-opacity="1.00" stroke-width="0.00" stroke-linecap="butt" stroke-linejoin="round"/>
<path d="M 410.00 295.95 L 452.27 295.95 L 452.27 290.70 L 466.36 297.00 L 452.27 303.30 L 452.27 298.05 L 410.00 298.05 Z " fill="#1F77B4" fill-opacity="1.00" stroke="#1F77B4" stroke-opacity="1.00" stroke-width="0.00" stroke-linecap="butt" stroke-linejoin="round"/>
<path d="M 550.91 295.95 L 593.18 295.95 L 593.18 290.70 L 607.27 297.00 L 593.18 303.30 L 593.18 298.05 L 550.91 298.05 Z " fill="#1F77B4" fill-opacity="1.00" stroke="#1F77B4" stroke-opacity="1.00" stroke-width="0.00" stroke-linecap="butt" stroke-linejoin="round"/>
<path d="M 691.82 295.95 L 734.09 295.95 L 734.09 290.70 L 748.18 297.00 L 734.09 303.30 L 734.09 298.05 L 691.82 298.05 Z " fill="#1F77B4" fill-opacity="1.00" stroke="#1F77B4" stroke-opacity="1.00" stroke-width="0.00" stroke-linecap="butt" stroke-linejoin="round"/>
<path d="M 128.18 400.95 L 170.45 400.95 L 170.45 395.70 L 184.55 402.00 L 170.45 408.30 L 170.45 403.05 L 128.18 403.05 Z " fill="#1F77B4" fill-opacity="1.00" stroke="#1F77B4" stroke-opacity="1.00" stroke-width="0.00" stroke-linecap="butt" stroke-linejoin="round"/>
<path d="M 269.09 400.95 L 311.36 400.95 L 311.36 395.70 L 325.45 402.00 L 311.36 408.30 L 311.36 403.05 L 269.09 403.05 Z " fill="#1F77B4" fill-opacity="1.00" stroke="#1F77B4" stroke-opacity="1.00" stroke-width="0.00" stroke-linecap="butt" stroke-linejoin="round"/>
<path d="M 410.00 400.95 L 452.27 400.95 L 452.27 395.70 L 466.36 402.00 L 452.27 408.30 L 452.27 403.05 L 410.00 403.05 Z " fill="#1F77B4" fill-opacity="1.00" stroke="#1F77B4" stroke-opacity="1.00" stroke-width="0.00" stroke-linecap="butt" stroke-linejoin="round"/>
<path d="M 550.91 400.95 L 593.18 400.95 L 593.18 395.70 L 607.27 402.00 L 593.18 408.30 L 593.18 403.05 L 550.91 403.05 Z " fill="#1F77B4" fill-opacity="1.00" stroke="#1F77B4" stroke-opacity="1.00" stroke-width="0.00" stroke-linecap="butt" stroke-linejoin="round"/>
<path d="M 691.82 400.95 L 734.09 400.95 L 734.09 395.70 L 748.18 402.00 L 734.09 408.30 L 734.09 403.05 L 691.82 403.05 Z " fill="#1F77B4" fill-opacity="1.00" stroke="#1F77B4" stroke-opacity="1.00" stroke-width="0.00" stroke-linecap="butt" stroke-linejoin="round"/>
<path d="M 128.18 505.95 L 170.45 505.95 L 170.45 500.70 L 184.55 507.00 L 170.45 513.30 L 170.45 508.05 L 128.18 508.05 Z " fill="#1F77B4" fill-opacity="1.00" stroke="#1F77B4" stroke-opacity="1.00" stroke-width="0.00" stroke-linecap="butt" stroke-linejoin="round"/>
<path d="M 269.09 505.95 L 311.36 505.95 L 311.36 500.70 L 325.45 507.00 L 311.36 513.30 L 311.36 508.05 L 269.09 508.05 Z " fill="#1F77B4" fill-opacity="1.00" stroke="#1F77B4" stroke-opacity="1.00" stroke-width="0.00" stroke-linecap="butt" stroke-linejoin="round"/>
<path d="M 410.00 505.95 L 452.27 505.95 L 452.27 500.70 L 466.36 507.00 L 452.27 513.30 L 452.27 508.05 L 410.00 508.05 Z " fill="#1F77B4" fill-opacity="1.00" stroke="#1F77B4" stroke-opacity="1.00" stroke-width="0.00" stroke-linecap="butt" stroke-linejoin="round"/>
<path d="M 550.91 505.95 L 593.18 505.95 L 593.18 500.70 L 607.27 507.00 L 593.18 513.30 L 593.18 508.05 L 550.91 508.05 Z " fill="#1F77B4" fill-opacity="1.00" stroke="#1F77B4" stroke-opacity="1.00" stroke-width="0.00" stroke-linecap="butt" stroke-linejoin="round"/>
<path d="M 691.82 505.95 L 734.09 505.95 L 734.09 500.70 L 748.18 507.00 L 734.09 513.30 L 734.09 508.05 L 691.82 508.05 Z " fill="#1F77B4" fill-opacity="1.00" stroke="#1F77B4" stroke-opacity="1.00" stroke-width="0.00" stroke-linecap="butt" stroke-linejoin="round"/>
<text font-family="DejaVu Sans" font-size="16.67" fill="#000000" fill-opacity="1.00" text-anchor="middle" transform="translate(410.00,537.33) scale(1,-1)">Quiver Plot — Uniform Flow</text>
<path d="M 128.50 66.50 L 128.50 61.50 " fill="none" fill-opacity="0.00" stroke="#000000" stroke-opacity="1.00" stroke-width="0.80" stroke-linecap="butt" stroke-linejoin="miter"/>
<text font-family="DejaVu Sans" font-size="13.89" fill="#000000" fill-opacity="1.00" text-anchor="middle" dominant-baseline="text-before-edge" transform="translate(128.18,56.28) scale(1,-1)">0.0</text>
<path d="M 199.50 66.50 L 199.50 61.50 " fill="none" fill-opacity="0.00" stroke="#000000" stroke-opacity="1.00" stroke-width="0.80" stroke-linecap="butt" stroke-linejoin="miter"/>
<text font-family="DejaVu Sans" font-size="13.89" fill="#000000" fill-opacity="1.00" text-anchor="middle" dominant-baseline="text-before-edge" transform="translate(198.64,56.28) scale(1,-1)">0.5</text>
<path d="M 269.50 66.50 L 269.50 61.50 " fill="none" fill-opacity="0.00" stroke="#000000" stroke-opacity="1.00" stroke-width="0.80" stroke-linecap="butt" stroke-linejoin="miter"/>
<text font-family="DejaVu Sans" font-size="13.89" fill="#000000" fill-opacity="1.00" text-anchor="middle" dominant-baseline="text-before-edge" transform="translate(269.09,56.28) scale(1,-1)">1.0</text>
<path d="M 340.50 66.50 L 340.50 61.50 " fill="none" fill-opacity="0.00" stroke="#000000" stroke-opacity="1.00" stroke-width="0.80" stroke-linecap="butt" stroke-linejoin="miter"/>
<text font-family="DejaVu Sans" font-size="13.89" fill="#000000" fill-opacity="1.00" text-anchor="middle" dominant-baseline="text-before-edge" transform="translate(339.55,56.28) scale(1,-1)">1.5</text>
<path d="M 410.50 66.50 L 410.50 61.50 " fill="none" fill-opacity="0.00" stroke="#000000" stroke-opacity="1.00" stroke-width="0.80" stroke-linecap="butt" stroke-linejoin="miter"/>
<text font-family="DejaVu Sans" font-size="13.89" fill="#000000" fill-opacity="1.00" text-anchor="middle" dominant-baseline="text-before-edge" transform="translate(410.00,56.28) scale(1,-1)">2.0</text>
<path d="M 480.50 66.50 L 480.50 61.50 " fill="none" fill-opacity="0.00" stroke="#000000" stroke-opacity="1.00" stroke-width="0.80" stroke-linecap="butt" stroke-linejoin="miter"/>
<text font-family="DejaVu Sans" font-size="13.89" fill="#000000" fill-opacity="1.00" text-anchor="middle" dominant-baseline="text-before-edge" transform="translate(480.45,56.28) scale(1,-1)">2.5</text>
<path d="M 551.50 66.50 L 551.50 61.50 " fill="none" fill-opacity="0.00" stroke="#000000" stroke-opacity="1.00" stroke-width="0.80" stroke-linecap="butt" stroke-linejoin="miter"/>
<text font-family="DejaVu Sans" font-size="13.89" fill="#000000" fill-opacity="1.00" text-anchor="middle" dominant-baseline="text-before-edge" transform="translate(550.91,56.28) scale(1,-1)">3.0</text>
<path d="M 621.50 66.50 L 621.50 61.50 " fill="none" fill-opacity="0.00" stroke="#000000" stroke-opacity="1.00" stroke-width="0.80" stroke-linecap="butt" stroke-linejoin="miter"/>
<text font-family="DejaVu Sans" font-size="13.89" fill="#000000" fill-opacity="1.00" text-anchor="middle" dominant-baseline="text-before-edge" transform="translate(621.36,56.28) scale(1,-1)">3.5</text>
<path d="M 692.50 66.50 L 692.50 61.50 " fill="none" fill-opacity="0.00" stroke="#000000" stroke-opacity="1.00" stroke-width="0.80" stroke-linecap="butt" stroke-linejoin="miter"/>
<text font-family="DejaVu Sans" font-size="13.89" fill="#000000" fill-opacity="1.00" text-anchor="middle" dominant-baseline="text-before-edge" transform="translate(691.82,56.28) scale(1,-1)">4.0</text>
<text font-family="DejaVu Sans" font-size="13.89" fill="#000000" fill-opacity="1.00" text-anchor="middle" dominant-baseline="text-before-edge" transform="translate(410.00,37.17) scale(1,-1)">X</text>
<path d="M 100.50 86.50 L 95.50 86.50 " fill="none" fill-opacity="0.00" stroke="#000000" stroke-opacity="1.00" stroke-width="0.80" stroke-linecap="butt" stroke-linejoin="miter"/>
<text font-family="DejaVu Sans" font-size="13.89" fill="#000000" fill-opacity="1.00" text-anchor="end" dominant-baseline="central" transform="translate(90.28,87.00) scale(1,-1)">0.0</text>
<path d="M 100.50 139.50 L 95.50 139.50 " fill="none" fill-opacity="0.00" stroke="#000000" stroke-opacity="1.00" stroke-width="0.80" stroke-linecap="butt" stroke-linejoin="miter"/>
<text font-family="DejaVu Sans" font-size="13.89" fill="#000000" fill-opacity="1.00" text-anchor="end" dominant-baseline="central" transform="translate(90.28,139.50) scale(1,-1)">0.5</text>
<path d="M 100.50 191.50 L 95.50 191.50 " fill="none" fill-opacity="0.00" stroke="#000000" stroke-opacity="1.00" stroke-width="0.80" stroke-linecap="butt" stroke-linejoin="miter"/>
<text font-family="DejaVu Sans" font-size="13.89" fill="#000000" fill-opacity="1.00" text-anchor="end" dominant-baseline="central" transform="translate(90.28,192.00) scale(1,-1)">1.0</text>
<path d="M 100.50 243.50 L 95.50 243.50 " fill="none" fill-opacity="0.00" stroke="#000000" stroke-opacity="1.00" stroke-width="0.80" stroke-linecap="butt" stroke-linejoin="miter"/>
<text font-family="DejaVu Sans" font-size="13.89" fill="#000000" fill-opacity="1.00" text-anchor="end" dominant-baseline="central" transform="translate(90.28,244.50) scale(1,-1)">1.5</text>
<path d="M 100.50 296.50 L 95.50 296.50 " fill="none" fill-opacity="0.00" stroke="#000000" stroke-opacity="1.00" stroke-width="0.80" stroke-linecap="butt" stroke-linejoin="miter"/>
<text font-family="DejaVu Sans" font-size="13.89" fill="#000000" fill-opacity="1.00" text-anchor="end" dominant-baseline="central" transform="translate(90.28,297.00) scale(1,-1)">2.0</text>
<path d="M 100.50 349.50 L 95.50 349.50 " fill="none" fill-opacity="0.00" stroke="#000000" stroke-opacity="1.00" stroke-width="0.80" stroke-linecap="butt" stroke-linejoin="miter"/>
<text font-family="DejaVu Sans" font-size="13.89" fill="#000000" fill-opacity="1.00" text-anchor="end" dominant-baseline="central" transform="translate(90.28,349.50) scale(1,-1)">2.5</text>
<path d="M 100.50 401.50 L 95.50 401.50 " fill="none" fill-opacity="0.00" stroke="#000000" stroke-opacity="1.00" stroke-width="0.80" stroke-linecap="butt" stroke-linejoin="miter"/>
<text font-family="DejaVu Sans" font-size="13.89" fill="#000000" fill-opacity="1.00" text-anchor="end" dominant-baseline="central" transform="translate(90.28,402.00) scale(1,-1)">3.0</text>
<path d="M 100.50 453.50 L 95.50 453.50 " fill="none" fill-opacity="0.00" stroke="#000000" stroke-opacity="1.00" stroke-width="0.80" stroke-linecap="butt" stroke-linejoin="miter"/>
<text font-family="DejaVu Sans" font-size="13.89" fill="#000000" fill-opacity="1.00" text-anchor="end" dominant-baseline="central" transform="translate(90.28,454.50) scale(1,-1)">3.5</text>
<path d="M 100.50 506.50 L 95.50 506.50 " fill="none" fill-opacity="0.00" stroke="#000000" stroke-opacity="1.00" stroke-width="0.80" stroke-linecap="butt" stroke-linejoin="miter"/>
<text font-family="DejaVu Sans" font-size="13.89" fill="#000000" fill-opacity="1.00" text-anchor="end" dominant-baseline="central" transform="translate(90.28,507.00) scale(1,-1)">4.0</text>
<text font-family="DejaVu Sans" font-size="13.89" fill="#000000" fill-opacity="1.00" text-anchor="middle" transform="translate(56.15,297.00) rotate(-90.00) scale(1,-1)">Y</text>
<path d="M 100.50 66.50 L 100.50 528.50 " fill="none" fill-opacity="0.00" stroke="#000000" stroke-opacity="1.00" stroke-width="0.80" stroke-linecap="square" stroke-linejoin="miter"/>
<path d="M 720.50 66.50 L 720.50 528.50 " fill="none" fill-opacity="0.00" stroke="#000000" stroke-opacity="1.00" stroke-width="0.80" stroke-linecap="square" stroke-linejoin="miter"/>
<path d="M 100.50 65.50 L 720.50 65.50 " fill="none" fill-opacity="0.00" stroke="#000000" stroke-opacity="1.00" stroke-width="0.80" stroke-linecap="square" stroke-linejoin="miter"/>
<path d="M 100.50 527.50 L 720.50 527.50 " fill="none" fill-opacity="0.00" stroke="#000000" stroke-opacity="1.00" stroke-width="0.80" stroke-linecap="square" stroke-linejoin="miter"/>
</g>
</svg>
