<?xml version="1.0" encoding="UTF-8"?>
<svg xmlns="http://www.w3.org/2000/svg"
     xmlns:xlink="http://www.w3.org/1999/xlink"
     width="700" height="500" viewBox="0 0 700 500">
<defs>
</defs>
<g transform="translate(0,500) scale(1,-1)">
<rect width="700" height="500" fill="white"/>
<path d="M 0.00 0.00 L 700.00 0.00 L 700.00 500.00 L 0.00 500.00 L 0.00 0.00 Z " fill="#FFFFFF" fill-opacity="1.00" stroke="#000000" stroke-opacity="1.00" stroke-width="0.00" stroke-linecap="butt" stroke-linejoin="miter"/>
<path d="M 87.50 55.00 L 630.00 55.00 L 630.00 440.00 L 87.50 440.00 L 87.50 55.00 Z " fill="#FFFFFF" fill-opacity="1.00" stroke="none" stroke-opacity="0.00" stroke-width="0.00" stroke-linecap="butt" stroke-linejoin="miter"/>
<path d="M 87.50 385.50 L 630.50 385.50 " fill="none" fill-opacity="0.00" stroke="#FF0000" stroke-opacity="0.70" stroke-width="1.00" stroke-linecap="butt" stroke-linejoin="round" stroke-dasharray="3.70 1.60"/>
<path d="M 87.50 247.50 L 630.50 247.50 " fill="none" fill-opacity="0.00" stroke="#FFA500" stroke-opacity="0.70" stroke-width="1.00" stroke-linecap="butt" stroke-linejoin="round" stroke-dasharray="3.70 1.60"/>
<path d="M 87.50 110.50 L 630.50 110.50 " fill="none" fill-opacity="0.00" stroke="#008000" stroke-opacity="0.70" stroke-width="1.00" stroke-linecap="butt" stroke-linejoin="round" stroke-dasharray="3.70 1.60"/>
<path d="M 114.63 143.12 C 116.05 143.12 117.42 143.69 118.43 144.70 C 119.44 145.71 120.00 147.07 120.00 148.50 C 120.00 149.93 119.44 151.29 118.43 152.30 C 117.42 153.31 116.05 153.88 114.63 153.88 C 113.20 153.88 111.83 153.31 110.82 152.30 C 109.81 151.29 109.25 149.93 109.25 148.50 C 109.25 147.07 109.81 145.71 110.82 144.70 C 111.83 143.69 113.20 143.12 114.63 143.12 Z " fill="#4682B4" fill-opacity="1.00" stroke="none" stroke-opacity="0.00" stroke-width="0.00" stroke-linecap="butt" stroke-linejoin="round"/>
<path d="M 168.88 247.62 C 170.30 247.62 171.67 248.19 172.68 249.20 C 173.69 250.21 174.25 251.57 174.25 253.00 C 174.25 254.43 173.69 255.79 172.68 256.80 C 171.67 257.81 170.30 258.38 168.88 258.38 C 167.45 258.38 166.08 257.81 165.07 256.80 C 164.06 255.79 163.50 254.43 163.50 253.00 C 163.50 251.57 164.06 250.21 165.07 249.20 C 166.08 248.19 167.45 247.62 168.88 247.62 Z " fill="#4682B4" fill-opacity="1.00" stroke="none" stroke-opacity="0.00" stroke-width="0.00" stroke-linecap="butt" stroke-linejoin="round"/>
<path d="M 223.13 121.12 C 224.55 121.12 225.92 121.69 226.93 122.70 C 227.94 123.71 228.50 125.07 228.50 126.50 C 228.50 127.93 227.94 129.29 226.93 130.30 C 225.92 131.31 224.55 131.88 223.13 131.88 C 221.70 131.88 220.33 131.31 219.32 130.30 C 218.31 129.29 217.75 127.93 217.75 126.50 C 217.75 125.07 218.31 123.71 219.32 122.70 C 220.33 121.69 221.70 121.12 223.13 121.12 Z " fill="#4682B4" fill-opacity="1.00" stroke="none" stroke-opacity="0.00" stroke-width="0.00" stroke-linecap="butt" stroke-linejoin="round"/>
<path d="M 277.38 319.12 C 278.80 319.12 280.17 319.69 281.18 320.70 C 282.19 321.71 282.75 323.07 282.75 324.50 C 282.75 325.93 282.19 327.29 281.18 328.30 C 280.17 329.31 278.80 329.88 277.38 329.88 C 275.95 329.88 274.58 329.31 273.57 328.30 C 272.56 327.29 272.00 325.93 272.00 324.50 C 272.00 323.07 272.56 321.71 273.57 320.70 C 274.58 319.69 275.95 319.12 277.38 319.12 Z " fill="#4682B4" fill-opacity="1.00" stroke="none" stroke-opacity="0.00" stroke-width="0.00" stroke-linecap="butt" stroke-linejoin="round"/>
<path d="M 331.63 236.62 C 333.05 236.62 334.42 237.19 335.43 238.20 C 336.44 239.21 337.00 240.57 337.00 242.00 C 337.00 243.43 336.44 244.79 335.43 245.80 C 334.42 246.81 333.05 247.38 331.63 247.38 C 330.20 247.38 328.83 246.81 327.82 245.80 C 326.81 244.79 326.25 243.43 326.25 242.00 C 326.25 240.57 326.81 239.21 327.82 238.20 C 328.83 237.19 330.20 236.62 331.63 236.62 Z " fill="#4682B4" fill-opacity="1.00" stroke="none" stroke-opacity="0.00" stroke-width="0.00" stroke-linecap="butt" stroke-linejoin="round"/>
<path d="M 385.88 363.12 C 387.30 363.12 388.67 363.69 389.68 364.70 C 390.69 365.71 391.25 367.07 391.25 368.50 C 391.25 369.93 390.69 371.29 389.68 372.30 C 388.67 373.31 387.30 373.88 385.88 373.88 C 384.45 373.88 383.08 373.31 382.07 372.30 C 381.06 371.29 380.50 369.93 380.50 368.50 C 380.50 367.07 381.06 365.71 382.07 364.70 C 383.08 363.69 384.45 363.12 385.88 363.12 Z " fill="#4682B4" fill-opacity="1.00" stroke="none" stroke-opacity="0.00" stroke-width="0.00" stroke-linecap="butt" stroke-linejoin="round"/>
<path d="M 440.13 159.62 C 441.55 159.62 442.92 160.19 443.93 161.20 C 444.94 162.21 445.50 163.57 445.50 165.00 C 445.50 166.43 444.94 167.79 443.93 168.80 C 442.92 169.81 441.55 170.38 440.13 170.38 C 438.70 170.38 437.33 169.81 436.32 168.80 C 435.31 167.79 434.75 166.43 434.75 165.00 C 434.75 163.57 435.31 162.21 436.32 161.20 C 437.33 160.19 438.70 159.62 440.13 159.62 Z " fill="#4682B4" fill-opacity="1.00" stroke="none" stroke-opacity="0.00" stroke-width="0.00" stroke-linecap="butt" stroke-linejoin="round"/>
<path d="M 494.38 286.12 C 495.80 286.12 497.17 286.69 498.18 287.70 C 499.19 288.71 499.75 290.07 499.75 291.50 C 499.75 292.93 499.19 294.29 498.18 295.30 C 497.17 296.31 495.80 296.88 494.38 296.88 C 492.95 296.88 491.58 296.31 490.57 295.30 C 489.56 294.29 489.00 292.93 489.00 291.50 C 489.00 290.07 489.56 288.71 490.57 287.70 C 491.58 286.69 492.95 286.12 494.38 286.12 Z " fill="#4682B4" fill-opacity="1.00" stroke="none" stroke-opacity="0.00" stroke-width="0.00" stroke-linecap="butt" stroke-linejoin="round"/>
<path d="M 548.63 192.62 C 550.05 192.62 551.42 193.19 552.43 194.20 C 553.44 195.21 554.00 196.57 554.00 198.00 C 554.00 199.43 553.44 200.79 552.43 201.80 C 551.42 202.81 550.05 203.38 548.63 203.38 C 547.20 203.38 545.83 202.81 544.82 201.80 C 543.81 200.79 543.25 199.43 543.25 198.00 C 543.25 196.57 543.81 195.21 544.82 194.20 C 545.83 193.19 547.20 192.62 548.63 192.62 Z " fill="#4682B4" fill-opacity="1.00" stroke="none" stroke-opacity="0.00" stroke-width="0.00" stroke-linecap="butt" stroke-linejoin="round"/>
<path d="M 602.88 335.62 C 604.30 335.62 605.67 336.19 606.68 337.20 C 607.69 338.21 608.25 339.57 608.25 341.00 C 608.25 342.43 607.69 343.79 606.68 344.80 C 605.67 345.81 604.30 346.38 602.88 346.38 C 601.45 346.38 600.08 345.81 599.07 344.80 C 598.06 343.79 597.50 342.43 597.50 341.00 C 597.50 339.57 598.06 338.21 599.07 337.20 C 600.08 336.19 601.45 335.62 602.88 335.62 Z " fill="#4682B4" fill-opacity="1.00" stroke="none" stroke-opacity="0.00" stroke-width="0.00" stroke-linecap="butt" stroke-linejoin="round"/>
<text font-family="DejaVu Sans" font-size="16.67" fill="#000000" fill-opacity="1.00" text-anchor="middle" transform="translate(358.75,449.33) scale(1,-1)">Scatter with Reference Lines</text>
<path d="M 169.50 55.50 L 169.50 50.50 " fill="none" fill-opacity="0.00" stroke="#000000" stroke-opacity="1.00" stroke-width="0.80" stroke-linecap="butt" stroke-linejoin="miter"/>
<text font-family="DejaVu Sans" font-size="13.89" fill="#000000" fill-opacity="1.00" text-anchor="middle" dominant-baseline="text-before-edge" transform="translate(168.88,45.28) scale(1,-1)">2</text>
<path d="M 277.50 55.50 L 277.50 50.50 " fill="none" fill-opacity="0.00" stroke="#000000" stroke-opacity="1.00" stroke-width="0.80" stroke-linecap="butt" stroke-linejoin="miter"/>
<text font-family="DejaVu Sans" font-size="13.89" fill="#000000" fill-opacity="1.00" text-anchor="middle" dominant-baseline="text-before-edge" transform="translate(277.38,45.28) scale(1,-1)">4</text>
<path d="M 386.50 55.50 L 386.50 50.50 " fill="none" fill-opacity="0.00" stroke="#000000" stroke-opacity="1.00" stroke-width="0.80" stroke-linecap="butt" stroke-linejoin="miter"/>
<text font-family="DejaVu Sans" font-size="13.89" fill="#000000" fill-opacity="1.00" text-anchor="middle" dominant-baseline="text-before-edge" transform="translate(385.88,45.28) scale(1,-1)">6</text>
<path d="M 494.50 55.50 L 494.50 50.50 " fill="none" fill-opacity="0.00" stroke="#000000" stroke-opacity="1.00" stroke-width="0.80" stroke-linecap="butt" stroke-linejoin="miter"/>
<text font-family="DejaVu Sans" font-size="13.89" fill="#000000" fill-opacity="1.00" text-anchor="middle" dominant-baseline="text-before-edge" transform="translate(494.38,45.28) scale(1,-1)">8</text>
<path d="M 603.50 55.50 L 603.50 50.50 " fill="none" fill-opacity="0.00" stroke="#000000" stroke-opacity="1.00" stroke-width="0.80" stroke-linecap="butt" stroke-linejoin="miter"/>
<text font-family="DejaVu Sans" font-size="13.89" fill="#000000" fill-opacity="1.00" text-anchor="middle" dominant-baseline="text-before-edge" transform="translate(602.88,45.28) scale(1,-1)">10</text>
<text font-family="DejaVu Sans" font-size="13.89" fill="#000000" fill-opacity="1.00" text-anchor="middle" dominant-baseline="text-before-edge" transform="translate(358.75,26.17) scale(1,-1)">X</text>
<path d="M 87.50 81.50 L 83.50 81.50 " fill="none" fill-opacity="0.00" stroke="#000000" stroke-opacity="1.00" stroke-width="0.80" stroke-linecap="butt" stroke-linejoin="miter"/>
<text font-family="DejaVu Sans" font-size="13.89" fill="#000000" fill-opacity="1.00" text-anchor="end" dominant-baseline="central" transform="translate(77.78,82.50) scale(1,-1)">2</text>
<path d="M 87.50 137.50 L 83.50 137.50 " fill="none" fill-opacity="0.00" stroke="#000000" stroke-opacity="1.00" stroke-width="0.80" stroke-linecap="butt" stroke-linejoin="miter"/>
<text font-family="DejaVu Sans" font-size="13.89" fill="#000000" fill-opacity="1.00" text-anchor="end" dominant-baseline="central" transform="translate(77.78,137.50) scale(1,-1)">3</text>
<path d="M 87.50 191.50 L 83.50 191.50 " fill="none" fill-opacity="0.00" stroke="#000000" stroke-opacity="1.00" stroke-width="0.80" stroke-linecap="butt" stroke-linejoin="miter"/>
<text font-family="DejaVu Sans" font-size="13.89" fill="#000000" fill-opacity="1.00" text-anchor="end" dominant-baseline="central" transform="translate(77.78,192.50) scale(1,-1)">4</text>
<path d="M 87.50 247.50 L 83.50 247.50 " fill="none" fill-opacity="0.00" stroke="#000000" stroke-opacity="1.00" stroke-width="0.80" stroke-linecap="butt" stroke-linejoin="miter"/>
<text font-family="DejaVu Sans" font-size="13.89" fill="#000000" fill-opacity="1.00" text-anchor="end" dominant-baseline="central" transform="translate(77.78,247.50) scale(1,-1)">5</text>
<path d="M 87.50 301.50 L 83.50 301.50 " fill="none" fill-opacity="0.00" stroke="#000000" stroke-opacity="1.00" stroke-width="0.80" stroke-linecap="butt" stroke-linejoin="miter"/>
<text font-family="DejaVu Sans" font-size="13.89" fill="#000000" fill-opacity="1.00" text-anchor="end" dominant-baseline="central" transform="translate(77.78,302.50) scale(1,-1)">6</text>
<path d="M 87.50 357.50 L 83.50 357.50 " fill="none" fill-opacity="0.00" stroke="#000000" stroke-opacity="1.00" stroke-width="0.80" stroke-linecap="butt" stroke-linejoin="miter"/>
<text font-family="DejaVu Sans" font-size="13.89" fill="#000000" fill-opacity="1.00" text-anchor="end" dominant-baseline="central" transform="translate(77.78,357.50) scale(1,-1)">7</text>
<path d="M 87.50 411.50 L 83.50 411.50 " fill="none" fill-opacity="0.00" stroke="#000000" stroke-opacity="1.00" stroke-width="0.80" stroke-linecap="butt" stroke-linejoin="miter"/>
<text font-family="DejaVu Sans" font-size="13.89" fill="#000000" fill-opacity="1.00" text-anchor="end" dominant-baseline="central" transform="translate(77.78,412.50) scale(1,-1)">8</text>
<text font-family="DejaVu Sans" font-size="13.89" fill="#000000" fill-opacity="1.00" text-anchor="middle" transform="translate(56.76,247.50) rotate(90.00) scale(1,-1)">Y</text>
<path d="M 87.50 55.50 L 87.50 440.50 " fill="none" fill-opacity="0.00" stroke="#000000" stroke-opacity="1.00" stroke-width="0.80" stroke-linecap="square" stroke-linejoin="miter"/>
<path d="M 630.50 55.50 L 630.50 440.50 " fill="none" fill-opacity="0.00" stroke="#000000" stroke-opacity="1.00" stroke-width="0.80" stroke-linecap="square" stroke-linejoin="miter"/>
<path d="M 87.50 54.50 L 630.50 54.50 " fill="none" fill-opacity="0.00" stroke="#000000" stroke-opacity="1.00" stroke-width="0.80" stroke-linecap="square" stroke-linejoin="miter"/>
<path d="M 87.50 439.50 L 630.50 439.50 " fill="none" fill-opacity="0.00" stroke="#000000" stroke-opacity="1.00" stroke-width="0.80" stroke-linecap="square" stroke-linejoin="miter"/>
</g>
</svg>
