<?xml version="1.0" encoding="UTF-8"?>
<svg xmlns="http://www.w3.org/2000/svg"
     xmlns:xlink="http://www.w3.org/1999/xlink"
     width="800" height="600" viewBox="0 0 800 600">
<defs>
<clipPath id="clip-1">
<rect x="100.00" y="66.00" width="620.00" height="462.00"/>
</clipPath>
<clipPath id="clip-2">
<rect x="100.00" y="66.00" width="620.00" height="462.00"/>
</clipPath>
<clipPath id="clip-3">
<rect x="100.00" y="66.00" width="620.00" height="462.00"/>
</clipPath>
<clipPath id="clip-4">
<rect x="100.00" y="66.00" width="620.00" height="462.00"/>
</clipPath>
<clipPath id="clip-5">
<rect x="100.00" y="66.00" width="620.00" height="462.00"/>
</clipPath>
<clipPath id="clip-6">
<rect x="100.00" y="66.00" width="620.00" height="462.00"/>
</clipPath>
<clipPath id="clip-7">
<rect x="100.00" y="66.00" width="620.00" height="462.00"/>
</clipPath>
<clipPath id="clip-8">
<rect x="100.00" y="66.00" width="620.00" height="462.00"/>
</clipPath>
<clipPath id="clip-9">
<rect x="100.00" y="66.00" width="620.00" height="462.00"/>
</clipPath>
<clipPath id="clip-10">
<rect x="100.00" y="66.00" width="620.00" height="462.00"/>
</clipPath>
<clipPath id="clip-11">
<rect x="100.00" y="66.00" width="620.00" height="462.00"/>
</clipPath>
<clipPath id="clip-12">
<rect x="100.00" y="66.00" width="620.00" height="462.00"/>
</clipPath>
<clipPath id="clip-13">
<rect x="100.00" y="66.00" width="620.00" height="462.00"/>
</clipPath>
<clipPath id="clip-14">
<rect x="100.00" y="66.00" width="620.00" height="462.00"/>
</clipPath>
<clipPath id="clip-15">
<rect x="100.00" y="66.00" width="620.00" height="462.00"/>
</clipPath>
</defs>
<g transform="translate(0,600) scale(1,-1)">
<rect width="800" height="600" fill="white"/>
<path d="M 0.00 0.00 L 800.00 0.00 L 800.00 600.00 L 0.00 600.00 L 0.00 0.00 Z " fill="#FFFFFF" fill-opacity="1.00" stroke="#000000" stroke-opacity="1.00" stroke-width="0.00" stroke-linecap="butt" stroke-linejoin="miter"/>
<path d="M 100.00 66.00 L 720.00 66.00 L 720.00 528.00 L 100.00 528.00 L 100.00 66.00 Z " fill="#FFFFFF" fill-opacity="1.00" stroke="none" stroke-opacity="0.00" stroke-width="0.00" stroke-linecap="butt" stroke-linejoin="miter"/>
<path d="M 550.91 433.59 C 552.56 433.59 554.14 434.24 555.30 435.41 C 556.47 436.57 557.12 438.15 557.12 439.80 C 557.12 441.45 556.47 443.03 555.30 444.19 C 554.14 445.36 552.56 446.01 550.91 446.01 C 549.26 446.01 547.68 445.36 546.52 444.19 C 545.35 443.03 544.70 441.45 544.70 439.80 C 544.70 438.15 545.35 436.57 546.52 435.41 C 547.68 434.24 549.26 433.59 550.91 433.59 Z " fill="#008000" fill-opacity="0.70" stroke="none" stroke-opacity="0.00" stroke-width="0.00" stroke-linecap="butt" stroke-linejoin="round"/>
<path d="M 586.14 475.59 C 587.78 475.59 589.36 476.24 590.53 477.41 C 591.69 478.57 592.35 480.15 592.35 481.80 C 592.35 483.45 591.69 485.03 590.53 486.19 C 589.36 487.36 587.78 488.01 586.14 488.01 C 584.49 488.01 582.91 487.36 581.74 486.19 C 580.58 485.03 579.93 483.45 579.93 481.80 C 579.93 480.15 580.58 478.57 581.74 477.41 C 582.91 476.24 584.49 475.59 586.14 475.59 Z " fill="#008000" fill-opacity="0.70" stroke="none" stroke-opacity="0.00" stroke-width="0.00" stroke-linecap="butt" stroke-linejoin="round"/>
<path d="M 621.36 416.79 C 623.01 416.79 624.59 417.44 625.76 418.61 C 626.92 419.77 627.57 421.35 627.57 423.00 C 627.57 424.65 626.92 426.23 625.76 427.39 C 624.59 428.56 623.01 429.21 621.36 429.21 C 619.72 429.21 618.14 428.56 616.97 427.39 C 615.81 426.23 615.15 424.65 615.15 423.00 C 615.15 421.35 615.81 419.77 616.97 418.61 C 618.14 417.44 619.72 416.79 621.36 416.79 Z " fill="#008000" fill-opacity="0.70" stroke="none" stroke-opacity="0.00" stroke-width="0.00" stroke-linecap="butt" stroke-linejoin="round"/>
<path d="M 656.59 500.79 C 658.24 500.79 659.82 501.44 660.98 502.61 C 662.15 503.77 662.80 505.35 662.80 507.00 C 662.80 508.65 662.15 510.23 660.98 511.39 C 659.82 512.56 658.24 513.21 656.59 513.21 C 654.94 513.21 653.36 512.56 652.20 511.39 C 651.03 510.23 650.38 508.65 650.38 507.00 C 650.38 505.35 651.03 503.77 652.20 502.61 C 653.36 501.44 654.94 500.79 656.59 500.79 Z " fill="#008000" fill-opacity="0.70" stroke="none" stroke-opacity="0.00" stroke-width="0.00" stroke-linecap="butt" stroke-linejoin="round"/>
<path d="M 691.82 450.39 C 693.47 450.39 695.05 451.04 696.21 452.21 C 697.38 453.37 698.03 454.95 698.03 456.60 C 698.03 458.25 697.38 459.83 696.21 460.99 C 695.05 462.16 693.47 462.81 691.82 462.81 C 690.17 462.81 688.59 462.16 687.43 460.99 C 686.26 459.83 685.61 458.25 685.61 456.60 C 685.61 454.95 686.26 453.37 687.43 452.21 C 688.59 451.04 690.17 450.39 691.82 450.39 Z " fill="#008000" fill-opacity="0.70" stroke="none" stroke-opacity="0.00" stroke-width="0.00" stroke-linecap="butt" stroke-linejoin="round"/>
<path d="M 339.55 265.59 C 341.19 265.59 342.77 266.24 343.94 267.41 C 345.10 268.57 345.76 270.15 345.76 271.80 C 345.76 273.45 345.10 275.03 343.94 276.19 C 342.77 277.36 341.19 278.01 339.55 278.01 C 337.90 278.01 336.32 277.36 335.15 276.19 C 333.99 275.03 333.33 273.45 333.33 271.80 C 333.33 270.15 333.99 268.57 335.15 267.41 C 336.32 266.24 337.90 265.59 339.55 265.59 Z " fill="#FF0000" fill-opacity="0.70" stroke="none" stroke-opacity="0.00" stroke-width="0.00" stroke-linecap="butt" stroke-linejoin="round"/>
<path d="M 374.77 223.59 C 376.42 223.59 378.00 224.24 379.16 225.41 C 380.33 226.57 380.98 228.15 380.98 229.80 C 380.98 231.45 380.33 233.03 379.16 234.19 C 378.00 235.36 376.42 236.01 374.77 236.01 C 373.13 236.01 371.55 235.36 370.38 234.19 C 369.22 233.03 368.56 231.45 368.56 229.80 C 368.56 228.15 369.22 226.57 370.38 225.41 C 371.55 224.24 373.13 223.59 374.77 223.59 Z " fill="#FF0000" fill-opacity="0.70" stroke="none" stroke-opacity="0.00" stroke-width="0.00" stroke-linecap="butt" stroke-linejoin="round"/>
<path d="M 410.00 307.59 C 411.65 307.59 413.23 308.24 414.39 309.41 C 415.56 310.57 416.21 312.15 416.21 313.80 C 416.21 315.45 415.56 317.03 414.39 318.19 C 413.23 319.36 411.65 320.01 410.00 320.01 C 408.35 320.01 406.77 319.36 405.61 318.19 C 404.44 317.03 403.79 315.45 403.79 313.80 C 403.79 312.15 404.44 310.57 405.61 309.41 C 406.77 308.24 408.35 307.59 410.00 307.59 Z " fill="#FF0000" fill-opacity="0.70" stroke="none" stroke-opacity="0.00" stroke-width="0.00" stroke-linecap="butt" stroke-linejoin="round"/>
<path d="M 445.23 248.79 C 446.87 248.79 448.45 249.44 449.62 250.61 C 450.78 251.77 451.44 253.35 451.44 255.00 C 451.44 256.65 450.78 258.23 449.62 259.39 C 448.45 260.56 446.87 261.21 445.23 261.21 C 443.58 261.21 442.00 260.56 440.84 259.39 C 439.67 258.23 439.02 256.65 439.02 255.00 C 439.02 253.35 439.67 251.77 440.84 250.61 C 442.00 249.44 443.58 248.79 445.23 248.79 Z " fill="#FF0000" fill-opacity="0.70" stroke="none" stroke-opacity="0.00" stroke-width="0.00" stroke-linecap="butt" stroke-linejoin="round"/>
<path d="M 480.45 282.39 C 482.10 282.39 483.68 283.04 484.85 284.21 C 486.01 285.37 486.67 286.95 486.67 288.60 C 486.67 290.25 486.01 291.83 484.85 292.99 C 483.68 294.16 482.10 294.81 480.45 294.81 C 478.81 294.81 477.23 294.16 476.06 292.99 C 474.90 291.83 474.24 290.25 474.24 288.60 C 474.24 286.95 474.90 285.37 476.06 284.21 C 477.23 283.04 478.81 282.39 480.45 282.39 Z " fill="#FF0000" fill-opacity="0.70" stroke="none" stroke-opacity="0.00" stroke-width="0.00" stroke-linecap="butt" stroke-linejoin="round"/>
<path d="M 128.18 97.59 C 129.83 97.59 131.41 98.24 132.57 99.41 C 133.74 100.57 134.39 102.15 134.39 103.80 C 134.39 105.45 133.74 107.03 132.57 108.19 C 131.41 109.36 129.83 110.01 128.18 110.01 C 126.53 110.01 124.95 109.36 123.79 108.19 C 122.62 107.03 121.97 105.45 121.97 103.80 C 121.97 102.15 122.62 100.57 123.79 99.41 C 124.95 98.24 126.53 97.59 128.18 97.59 Z " fill="#0000FF" fill-opacity="0.70" stroke="none" stroke-opacity="0.00" stroke-width="0.00" stroke-linecap="butt" stroke-linejoin="round"/>
<path d="M 163.41 139.59 C 165.06 139.59 166.64 140.24 167.80 141.41 C 168.97 142.57 169.62 144.15 169.62 145.80 C 169.62 147.45 168.97 149.03 167.80 150.19 C 166.64 151.36 165.06 152.01 163.41 152.01 C 161.76 152.01 160.18 151.36 159.02 150.19 C 157.85 149.03 157.20 147.45 157.20 145.80 C 157.20 144.15 157.85 142.57 159.02 141.41 C 160.18 140.24 161.76 139.59 163.41 139.59 Z " fill="#0000FF" fill-opacity="0.70" stroke="none" stroke-opacity="0.00" stroke-width="0.00" stroke-linecap="butt" stroke-linejoin="round"/>
<path d="M 198.64 80.79 C 200.28 80.79 201.86 81.44 203.03 82.61 C 204.19 83.77 204.85 85.35 204.85 87.00 C 204.85 88.65 204.19 90.23 203.03 91.39 C 201.86 92.56 200.28 93.21 198.64 93.21 C 196.99 93.21 195.41 92.56 194.24 91.39 C 193.08 90.23 192.43 88.65 192.43 87.00 C 192.43 85.35 193.08 83.77 194.24 82.61 C 195.41 81.44 196.99 80.79 198.64 80.79 Z " fill="#0000FF" fill-opacity="0.70" stroke="none" stroke-opacity="0.00" stroke-width="0.00" stroke-linecap="butt" stroke-linejoin="round"/>
<path d="M 233.86 164.79 C 235.51 164.79 237.09 165.44 238.26 166.61 C 239.42 167.77 240.07 169.35 240.07 171.00 C 240.07 172.65 239.42 174.23 238.26 175.39 C 237.09 176.56 235.51 177.21 233.86 177.21 C 232.22 177.21 230.64 176.56 229.47 175.39 C 228.31 174.23 227.65 172.65 227.65 171.00 C 227.65 169.35 228.31 167.77 229.47 166.61 C 230.64 165.44 232.22 164.79 233.86 164.79 Z " fill="#0000FF" fill-opacity="0.70" stroke="none" stroke-opacity="0.00" stroke-width="0.00" stroke-linecap="butt" stroke-linejoin="round"/>
<path d="M 269.09 114.39 C 270.74 114.39 272.32 115.04 273.48 116.21 C 274.65 117.37 275.30 118.95 275.30 120.60 C 275.30 122.25 274.65 123.83 273.48 124.99 C 272.32 126.16 270.74 126.81 269.09 126.81 C 267.44 126.81 265.86 126.16 264.70 124.99 C 263.53 123.83 262.88 122.25 262.88 120.60 C 262.88 118.95 263.53 117.37 264.70 116.21 C 265.86 115.04 267.44 114.39 269.09 114.39 Z " fill="#0000FF" fill-opacity="0.70" stroke="none" stroke-opacity="0.00" stroke-width="0.00" stroke-linecap="butt" stroke-linejoin="round"/>
<path d="M 128.50 66.00 L 128.50 528.00 " fill="none" fill-opacity="0.00" stroke="#B0B0B0" stroke-opacity="1.00" stroke-width="0.80" stroke-linecap="butt" stroke-linejoin="miter" clip-path="url(#clip-1)"/>
<path d="M 199.50 66.00 L 199.50 528.00 " fill="none" fill-opacity="0.00" stroke="#B0B0B0" stroke-opacity="1.00" stroke-width="0.80" stroke-linecap="butt" stroke-linejoin="miter" clip-path="url(#clip-2)"/>
<path d="M 269.50 66.00 L 269.50 528.00 " fill="none" fill-opacity="0.00" stroke="#B0B0B0" stroke-opacity="1.00" stroke-width="0.80" stroke-linecap="butt" stroke-linejoin="miter" clip-path="url(#clip-3)"/>
<path d="M 340.50 66.00 L 340.50 528.00 " fill="none" fill-opacity="0.00" stroke="#B0B0B0" stroke-opacity="1.00" stroke-width="0.80" stroke-linecap="butt" stroke-linejoin="miter" clip-path="url(#clip-4)"/>
<path d="M 410.50 66.00 L 410.50 528.00 " fill="none" fill-opacity="0.00" stroke="#B0B0B0" stroke-opacity="1.00" stroke-width="0.80" stroke-linecap="butt" stroke-linejoin="miter" clip-path="url(#clip-5)"/>
<path d="M 480.50 66.00 L 480.50 528.00 " fill="none" fill-opacity="0.00" stroke="#B0B0B0" stroke-opacity="1.00" stroke-width="0.80" stroke-linecap="butt" stroke-linejoin="miter" clip-path="url(#clip-6)"/>
<path d="M 551.50 66.00 L 551.50 528.00 " fill="none" fill-opacity="0.00" stroke="#B0B0B0" stroke-opacity="1.00" stroke-width="0.80" stroke-linecap="butt" stroke-linejoin="miter" clip-path="url(#clip-7)"/>
<path d="M 621.50 66.00 L 621.50 528.00 " fill="none" fill-opacity="0.00" stroke="#B0B0B0" stroke-opacity="1.00" stroke-width="0.80" stroke-linecap="butt" stroke-linejoin="miter" clip-path="url(#clip-8)"/>
<path d="M 692.50 66.00 L 692.50 528.00 " fill="none" fill-opacity="0.00" stroke="#B0B0B0" stroke-opacity="1.00" stroke-width="0.80" stroke-linecap="butt" stroke-linejoin="miter" clip-path="url(#clip-9)"/>
<path d="M 100.00 103.50 L 720.00 103.50 " fill="none" fill-opacity="0.00" stroke="#B0B0B0" stroke-opacity="1.00" stroke-width="0.80" stroke-linecap="butt" stroke-linejoin="miter" clip-path="url(#clip-10)"/>
<path d="M 100.00 187.50 L 720.00 187.50 " fill="none" fill-opacity="0.00" stroke="#B0B0B0" stroke-opacity="1.00" stroke-width="0.80" stroke-linecap="butt" stroke-linejoin="miter" clip-path="url(#clip-11)"/>
<path d="M 100.00 271.50 L 720.00 271.50 " fill="none" fill-opacity="0.00" stroke="#B0B0B0" stroke-opacity="1.00" stroke-width="0.80" stroke-linecap="butt" stroke-linejoin="miter" clip-path="url(#clip-12)"/>
<path d="M 100.00 355.50 L 720.00 355.50 " fill="none" fill-opacity="0.00" stroke="#B0B0B0" stroke-opacity="1.00" stroke-width="0.80" stroke-linecap="butt" stroke-linejoin="miter" clip-path="url(#clip-13)"/>
<path d="M 100.00 439.50 L 720.00 439.50 " fill="none" fill-opacity="0.00" stroke="#B0B0B0" stroke-opacity="1.00" stroke-width="0.80" stroke-linecap="butt" stroke-linejoin="miter" clip-path="url(#clip-14)"/>
<path d="M 100.00 523.50 L 720.00 523.50 " fill="none" fill-opacity="0.00" stroke="#B0B0B0" stroke-opacity="1.00" stroke-width="0.80" stroke-linecap="butt" stroke-linejoin="miter" clip-path="url(#clip-15)"/>
<text font-family="DejaVu Sans" font-size="16.67" fill="#000000" fill-opacity="1.00" text-anchor="middle" transform="translate(410.00,537.33) scale(1,-1)">Scatter Plot with Legend</text>
<path d="M 106.94 454.39 L 231.33 454.39 L 231.33 521.06 L 106.94 521.06 L 106.94 454.39 Z " fill="#FFFFFF" fill-opacity="0.80" stroke="#CCCCCC" stroke-opacity="1.00" stroke-width="0.80" stroke-linecap="butt" stroke-linejoin="miter"/>
<path d="M 126.39 505.08 C 127.31 505.08 128.19 505.45 128.84 506.10 C 129.50 506.75 129.86 507.63 129.86 508.56 C 129.86 509.48 129.50 510.36 128.84 511.01 C 128.19 511.66 127.31 512.03 126.39 512.03 C 125.47 512.03 124.58 511.66 123.93 511.01 C 123.28 510.36 122.92 509.48 122.92 508.56 C 122.92 507.63 123.28 506.75 123.93 506.10 C 124.58 505.45 125.47 505.08 126.39 505.08 Z " fill="#0000FF" fill-opacity="1.00" stroke="#0000FF" stroke-opacity="1.00" stroke-width="0.50" stroke-linecap="butt" stroke-linejoin="miter"/>
<path d="M 126.39 505.08 C 127.31 505.08 128.19 505.45 128.84 506.10 C 129.50 506.75 129.86 507.63 129.86 508.56 C 129.86 509.48 129.50 510.36 128.84 511.01 C 128.19 511.66 127.31 512.03 126.39 512.03 C 125.47 512.03 124.58 511.66 123.93 511.01 C 123.28 510.36 122.92 509.48 122.92 508.56 C 122.92 507.63 123.28 506.75 123.93 506.10 C 124.58 505.45 125.47 505.08 126.39 505.08 Z " fill="#0000FF" fill-opacity="1.00" stroke="#0000FF" stroke-opacity="1.00" stroke-width="0.50" stroke-linecap="butt" stroke-linejoin="miter"/>
<path d="M 126.39 505.08 C 127.31 505.08 128.19 505.45 128.84 506.10 C 129.50 506.75 129.86 507.63 129.86 508.56 C 129.86 509.48 129.50 510.36 128.84 511.01 C 128.19 511.66 127.31 512.03 126.39 512.03 C 125.47 512.03 124.58 511.66 123.93 511.01 C 123.28 510.36 122.92 509.48 122.92 508.56 C 122.92 507.63 123.28 506.75 123.93 506.10 C 124.58 505.45 125.47 505.08 126.39 505.08 Z " fill="#0000FF" fill-opacity="1.00" stroke="#0000FF" stroke-opacity="1.00" stroke-width="0.50" stroke-linecap="butt" stroke-linejoin="miter"/>
<text font-family="DejaVu Sans" font-size="13.89" fill="#000000" fill-opacity="1.00" text-anchor="start" dominant-baseline="central" transform="translate(151.39,508.56) scale(1,-1)">Group A</text>
<path d="M 126.39 484.25 C 127.31 484.25 128.19 484.62 128.84 485.27 C 129.50 485.92 129.86 486.80 129.86 487.72 C 129.86 488.64 129.50 489.53 128.84 490.18 C 128.19 490.83 127.31 491.19 126.39 491.19 C 125.47 491.19 124.58 490.83 123.93 490.18 C 123.28 489.53 122.92 488.64 122.92 487.72 C 122.92 486.80 123.28 485.92 123.93 485.27 C 124.58 484.62 125.47 484.25 126.39 484.25 Z " fill="#FF0000" fill-opacity="1.00" stroke="#FF0000" stroke-opacity="1.00" stroke-width="0.50" stroke-linecap="butt" stroke-linejoin="miter"/>
<path d="M 126.39 484.25 C 127.31 484.25 128.19 484.62 128.84 485.27 C 129.50 485.92 129.86 486.80 129.86 487.72 C 129.86 488.64 129.50 489.53 128.84 490.18 C 128.19 490.83 127.31 491.19 126.39 491.19 C 125.47 491.19 124.58 490.83 123.93 490.18 C 123.28 489.53 122.92 488.64 122.92 487.72 C 122.92 486.80 123.28 485.92 123.93 485.27 C 124.58 484.62 125.47 484.25 126.39 484.25 Z " fill="#FF0000" fill-opacity="1.00" stroke="#FF0000" stroke-opacity="1.00" stroke-width="0.50" stroke-linecap="butt" stroke-linejoin="miter"/>
<path d="M 126.39 484.25 C 127.31 484.25 128.19 484.62 128.84 485.27 C 129.50 485.92 129.86 486.80 129.86 487.72 C 129.86 488.64 129.50 489.53 128.84 490.18 C 128.19 490.83 127.31 491.19 126.39 491.19 C 125.47 491.19 124.58 490.83 123.93 490.18 C 123.28 489.53 122.92 488.64 122.92 487.72 C 122.92 486.80 123.28 485.92 123.93 485.27 C 124.58 484.62 125.47 484.25 126.39 484.25 Z " fill="#FF0000" fill-opacity="1.00" stroke="#FF0000" stroke-opacity="1.00" stroke-width="0.50" stroke-linecap="butt" stroke-linejoin="miter"/>
<text font-family="DejaVu Sans" font-size="13.89" fill="#000000" fill-opacity="1.00" text-anchor="start" dominant-baseline="central" transform="translate(151.39,487.72) scale(1,-1)">Group B</text>
<path d="M 126.39 463.42 C 127.31 463.42 128.19 463.78 128.84 464.43 C 129.50 465.08 129.86 465.97 129.86 466.89 C 129.86 467.81 129.50 468.69 128.84 469.34 C 128.19 470.00 127.31 470.36 126.39 470.36 C 125.47 470.36 124.58 470.00 123.93 469.34 C 123.28 468.69 122.92 467.81 122.92 466.89 C 122.92 465.97 123.28 465.08 123.93 464.43 C 124.58 463.78 125.47 463.42 126.39 463.42 Z " fill="#008000" fill-opacity="1.00" stroke="#008000" stroke-opacity="1.00" stroke-width="0.50" stroke-linecap="butt" stroke-linejoin="miter"/>
<path d="M 126.39 463.42 C 127.31 463.42 128.19 463.78 128.84 464.43 C 129.50 465.08 129.86 465.97 129.86 466.89 C 129.86 467.81 129.50 468.69 128.84 469.34 C 128.19 470.00 127.31 470.36 126.39 470.36 C 125.47 470.36 124.58 470.00 123.93 469.34 C 123.28 468.69 122.92 467.81 122.92 466.89 C 122.92 465.97 123.28 465.08 123.93 464.43 C 124.58 463.78 125.47 463.42 126.39 463.42 Z " fill="#008000" fill-opacity="1.00" stroke="#008000" stroke-opacity="1.00" stroke-width="0.50" stroke-linecap="butt" stroke-linejoin="miter"/>
<path d="M 126.39 463.42 C 127.31 463.42 128.19 463.78 128.84 464.43 C 129.50 465.08 129.86 465.97 129.86 466.89 C 129.86 467.81 129.50 468.69 128.84 469.34 C 128.19 470.00 127.31 470.36 126.39 470.36 C 125.47 470.36 124.58 470.00 123.93 469.34 C 123.28 468.69 122.92 467.81 122.92 466.89 C 122.92 465.97 123.28 465.08 123.93 464.43 C 124.58 463.78 125.47 463.42 126.39 463.42 Z " fill="#008000" fill-opacity="1.00" stroke="#008000" stroke-opacity="1.00" stroke-width="0.50" stroke-linecap="butt" stroke-linejoin="miter"/>
<text font-family="DejaVu Sans" font-size="13.89" fill="#000000" fill-opacity="1.00" text-anchor="start" dominant-baseline="central" transform="translate(151.39,466.89) scale(1,-1)">Group C</text>
<path d="M 128.50 66.00 L 128.50 61.14 " fill="none" fill-opacity="0.00" stroke="#000000" stroke-opacity="1.00" stroke-width="0.80" stroke-linecap="butt" stroke-linejoin="miter"/>
<text font-family="DejaVu Sans" font-size="13.89" fill="#000000" fill-opacity="1.00" text-anchor="middle" dominant-baseline="text-before-edge" transform="translate(128.18,56.28) scale(1,-1)">1</text>
<path d="M 199.50 66.00 L 199.50 61.14 " fill="none" fill-opacity="0.00" stroke="#000000" stroke-opacity="1.00" stroke-width="0.80" stroke-linecap="butt" stroke-linejoin="miter"/>
<text font-family="DejaVu Sans" font-size="13.89" fill="#000000" fill-opacity="1.00" text-anchor="middle" dominant-baseline="text-before-edge" transform="translate(198.64,56.28) scale(1,-1)">2</text>
<path d="M 269.50 66.00 L 269.50 61.14 " fill="none" fill-opacity="0.00" stroke="#000000" stroke-opacity="1.00" stroke-width="0.80" stroke-linecap="butt" stroke-linejoin="miter"/>
<text font-family="DejaVu Sans" font-size="13.89" fill="#000000" fill-opacity="1.00" text-anchor="middle" dominant-baseline="text-before-edge" transform="translate(269.09,56.28) scale(1,-1)">3</text>
<path d="M 340.50 66.00 L 340.50 61.14 " fill="none" fill-opacity="0.00" stroke="#000000" stroke-opacity="1.00" stroke-width="0.80" stroke-linecap="butt" stroke-linejoin="miter"/>
<text font-family="DejaVu Sans" font-size="13.89" fill="#000000" fill-opacity="1.00" text-anchor="middle" dominant-baseline="text-before-edge" transform="translate(339.55,56.28) scale(1,-1)">4</text>
<path d="M 410.50 66.00 L 410.50 61.14 " fill="none" fill-opacity="0.00" stroke="#000000" stroke-opacity="1.00" stroke-width="0.80" stroke-linecap="butt" stroke-linejoin="miter"/>
<text font-family="DejaVu Sans" font-size="13.89" fill="#000000" fill-opacity="1.00" text-anchor="middle" dominant-baseline="text-before-edge" transform="translate(410.00,56.28) scale(1,-1)">5</text>
<path d="M 480.50 66.00 L 480.50 61.14 " fill="none" fill-opacity="0.00" stroke="#000000" stroke-opacity="1.00" stroke-width="0.80" stroke-linecap="butt" stroke-linejoin="miter"/>
<text font-family="DejaVu Sans" font-size="13.89" fill="#000000" fill-opacity="1.00" text-anchor="middle" dominant-baseline="text-before-edge" transform="translate(480.45,56.28) scale(1,-1)">6</text>
<path d="M 551.50 66.00 L 551.50 61.14 " fill="none" fill-opacity="0.00" stroke="#000000" stroke-opacity="1.00" stroke-width="0.80" stroke-linecap="butt" stroke-linejoin="miter"/>
<text font-family="DejaVu Sans" font-size="13.89" fill="#000000" fill-opacity="1.00" text-anchor="middle" dominant-baseline="text-before-edge" transform="translate(550.91,56.28) scale(1,-1)">7</text>
<path d="M 621.50 66.00 L 621.50 61.14 " fill="none" fill-opacity="0.00" stroke="#000000" stroke-opacity="1.00" stroke-width="0.80" stroke-linecap="butt" stroke-linejoin="miter"/>
<text font-family="DejaVu Sans" font-size="13.89" fill="#000000" fill-opacity="1.00" text-anchor="middle" dominant-baseline="text-before-edge" transform="translate(621.36,56.28) scale(1,-1)">8</text>
<path d="M 692.50 66.00 L 692.50 61.14 " fill="none" fill-opacity="0.00" stroke="#000000" stroke-opacity="1.00" stroke-width="0.80" stroke-linecap="butt" stroke-linejoin="miter"/>
<text font-family="DejaVu Sans" font-size="13.89" fill="#000000" fill-opacity="1.00" text-anchor="middle" dominant-baseline="text-before-edge" transform="translate(691.82,56.28) scale(1,-1)">9</text>
<text font-family="DejaVu Sans" font-size="13.89" fill="#000000" fill-opacity="1.00" text-anchor="middle" dominant-baseline="text-before-edge" transform="translate(410.00,37.17) scale(1,-1)">X</text>
<path d="M 100.00 103.50 L 95.14 103.50 " fill="none" fill-opacity="0.00" stroke="#000000" stroke-opacity="1.00" stroke-width="0.80" stroke-linecap="butt" stroke-linejoin="miter"/>
<text font-family="DejaVu Sans" font-size="13.89" fill="#000000" fill-opacity="1.00" text-anchor="end" dominant-baseline="central" transform="translate(90.28,103.80) scale(1,-1)">2</text>
<path d="M 100.00 187.50 L 95.14 187.50 " fill="none" fill-opacity="0.00" stroke="#000000" stroke-opacity="1.00" stroke-width="0.80" stroke-linecap="butt" stroke-linejoin="miter"/>
<text font-family="DejaVu Sans" font-size="13.89" fill="#000000" fill-opacity="1.00" text-anchor="end" dominant-baseline="central" transform="translate(90.28,187.80) scale(1,-1)">3</text>
<path d="M 100.00 271.50 L 95.14 271.50 " fill="none" fill-opacity="0.00" stroke="#000000" stroke-opacity="1.00" stroke-width="0.80" stroke-linecap="butt" stroke-linejoin="miter"/>
<text font-family="DejaVu Sans" font-size="13.89" fill="#000000" fill-opacity="1.00" text-anchor="end" dominant-baseline="central" transform="translate(90.28,271.80) scale(1,-1)">4</text>
<path d="M 100.00 355.50 L 95.14 355.50 " fill="none" fill-opacity="0.00" stroke="#000000" stroke-opacity="1.00" stroke-width="0.80" stroke-linecap="butt" stroke-linejoin="miter"/>
<text font-family="DejaVu Sans" font-size="13.89" fill="#000000" fill-opacity="1.00" text-anchor="end" dominant-baseline="central" transform="translate(90.28,355.80) scale(1,-1)">5</text>
<path d="M 100.00 439.50 L 95.14 439.50 " fill="none" fill-opacity="0.00" stroke="#000000" stroke-opacity="1.00" stroke-width="0.80" stroke-linecap="butt" stroke-linejoin="miter"/>
<text font-family="DejaVu Sans" font-size="13.89" fill="#000000" fill-opacity="1.00" text-anchor="end" dominant-baseline="central" transform="translate(90.28,439.80) scale(1,-1)">6</text>
<path d="M 100.00 523.50 L 95.14 523.50 " fill="none" fill-opacity="0.00" stroke="#000000" stroke-opacity="1.00" stroke-width="0.80" stroke-linecap="butt" stroke-linejoin="miter"/>
<text font-family="DejaVu Sans" font-size="13.89" fill="#000000" fill-opacity="1.00" text-anchor="end" dominant-baseline="central" transform="translate(90.28,523.80) scale(1,-1)">7</text>
<text font-family="DejaVu Sans" font-size="13.89" fill="#000000" fill-opacity="1.00" text-anchor="middle" transform="translate(69.26,297.00) rotate(-90.00) scale(1,-1)">Y</text>
<path d="M 100.50 66.00 L 100.50 528.00 " fill="none" fill-opacity="0.00" stroke="#000000" stroke-opacity="1.00" stroke-width="0.80" stroke-linecap="square" stroke-linejoin="miter"/>
<path d="M 720.50 66.00 L 720.50 528.00 " fill="none" fill-opacity="0.00" stroke="#000000" stroke-opacity="1.00" stroke-width="0.80" stroke-linecap="square" stroke-linejoin="miter"/>
<path d="M 100.00 65.50 L 720.00 65.50 " fill="none" fill-opacity="0.00" stroke="#000000" stroke-opacity="1.00" stroke-width="0.80" stroke-linecap="square" stroke-linejoin="miter"/>
<path d="M 100.00 527.50 L 720.00 527.50 " fill="none" fill-opacity="0.00" stroke="#000000" stroke-opacity="1.00" stroke-width="0.80" stroke-linecap="square" stroke-linejoin="miter"/>
<path d="M 106.94 454.39 L 231.33 454.39 L 231.33 521.06 L 106.94 521.06 L 106.94 454.39 Z " fill="#FFFFFF" fill-opacity="0.80" stroke="#CCCCCC" stroke-opacity="1.00" stroke-width="0.80" stroke-linecap="butt" stroke-linejoin="miter"/>
<path d="M 126.39 505.08 C 127.31 505.08 128.19 505.45 128.84 506.10 C 129.50 506.75 129.86 507.63 129.86 508.56 C 129.86 509.48 129.50 510.36 128.84 511.01 C 128.19 511.66 127.31 512.03 126.39 512.03 C 125.47 512.03 124.58 511.66 123.93 511.01 C 123.28 510.36 122.92 509.48 122.92 508.56 C 122.92 507.63 123.28 506.75 123.93 506.10 C 124.58 505.45 125.47 505.08 126.39 505.08 Z " fill="#0000FF" fill-opacity="1.00" stroke="#0000FF" stroke-opacity="1.00" stroke-width="0.50" stroke-linecap="butt" stroke-linejoin="miter"/>
<path d="M 126.39 505.08 C 127.31 505.08 128.19 505.45 128.84 506.10 C 129.50 506.75 129.86 507.63 129.86 508.56 C 129.86 509.48 129.50 510.36 128.84 511.01 C 128.19 511.66 127.31 512.03 126.39 512.03 C 125.47 512.03 124.58 511.66 123.93 511.01 C 123.28 510.36 122.92 509.48 122.92 508.56 C 122.92 507.63 123.28 506.75 123.93 506.10 C 124.58 505.45 125.47 505.08 126.39 505.08 Z " fill="#0000FF" fill-opacity="1.00" stroke="#0000FF" stroke-opacity="1.00" stroke-width="0.50" stroke-linecap="butt" stroke-linejoin="miter"/>
<path d="M 126.39 505.08 C 127.31 505.08 128.19 505.45 128.84 506.10 C 129.50 506.75 129.86 507.63 129.86 508.56 C 129.86 509.48 129.50 510.36 128.84 511.01 C 128.19 511.66 127.31 512.03 126.39 512.03 C 125.47 512.03 124.58 511.66 123.93 511.01 C 123.28 510.36 122.92 509.48 122.92 508.56 C 122.92 507.63 123.28 506.75 123.93 506.10 C 124.58 505.45 125.47 505.08 126.39 505.08 Z " fill="#0000FF" fill-opacity="1.00" stroke="#0000FF" stroke-opacity="1.00" stroke-width="0.50" stroke-linecap="butt" stroke-linejoin="miter"/>
<text font-family="DejaVu Sans" font-size="13.89" fill="#000000" fill-opacity="1.00" text-anchor="start" dominant-baseline="central" transform="translate(151.39,508.56) scale(1,-1)">Group A</text>
<path d="M 126.39 484.25 C 127.31 484.25 128.19 484.62 128.84 485.27 C 129.50 485.92 129.86 486.80 129.86 487.72 C 129.86 488.64 129.50 489.53 128.84 490.18 C 128.19 490.83 127.31 491.19 126.39 491.19 C 125.47 491.19 124.58 490.83 123.93 490.18 C 123.28 489.53 122.92 488.64 122.92 487.72 C 122.92 486.80 123.28 485.92 123.93 485.27 C 124.58 484.62 125.47 484.25 126.39 484.25 Z " fill="#FF0000" fill-opacity="1.00" stroke="#FF0000" stroke-opacity="1.00" stroke-width="0.50" stroke-linecap="butt" stroke-linejoin="miter"/>
<path d="M 126.39 484.25 C 127.31 484.25 128.19 484.62 128.84 485.27 C 129.50 485.92 129.86 486.80 129.86 487.72 C 129.86 488.64 129.50 489.53 128.84 490.18 C 128.19 490.83 127.31 491.19 126.39 491.19 C 125.47 491.19 124.58 490.83 123.93 490.18 C 123.28 489.53 122.92 488.64 122.92 487.72 C 122.92 486.80 123.28 485.92 123.93 485.27 C 124.58 484.62 125.47 484.25 126.39 484.25 Z " fill="#FF0000" fill-opacity="1.00" stroke="#FF0000" stroke-opacity="1.00" stroke-width="0.50" stroke-linecap="butt" stroke-linejoin="miter"/>
<path d="M 126.39 484.25 C 127.31 484.25 128.19 484.62 128.84 485.27 C 129.50 485.92 129.86 486.80 129.86 487.72 C 129.86 488.64 129.50 489.53 128.84 490.18 C 128.19 490.83 127.31 491.19 126.39 491.19 C 125.47 491.19 124.58 490.83 123.93 490.18 C 123.28 489.53 122.92 488.64 122.92 487.72 C 122.92 486.80 123.28 485.92 123.93 485.27 C 124.58 484.62 125.47 484.25 126.39 484.25 Z " fill="#FF0000" fill-opacity="1.00" stroke="#FF0000" stroke-opacity="1.00" stroke-width="0.50" stroke-linecap="butt" stroke-linejoin="miter"/>
<text font-family="DejaVu Sans" font-size="13.89" fill="#000000" fill-opacity="1.00" text-anchor="start" dominant-baseline="central" transform="translate(151.39,487.72) scale(1,-1)">Group B</text>
<path d="M 126.39 463.42 C 127.31 463.42 128.19 463.78 128.84 464.43 C 129.50 465.08 129.86 465.97 129.86 466.89 C 129.86 467.81 129.50 468.69 128.84 469.34 C 128.19 470.00 127.31 470.36 126.39 470.36 C 125.47 470.36 124.58 470.00 123.93 469.34 C 123.28 468.69 122.92 467.81 122.92 466.89 C 122.92 465.97 123.28 465.08 123.93 464.43 C 124.58 463.78 125.47 463.42 126.39 463.42 Z " fill="#008000" fill-opacity="1.00" stroke="#008000" stroke-opacity="1.00" stroke-width="0.50" stroke-linecap="butt" stroke-linejoin="miter"/>
<path d="M 126.39 463.42 C 127.31 463.42 128.19 463.78 128.84 464.43 C 129.50 465.08 129.86 465.97 129.86 466.89 C 129.86 467.81 129.50 468.69 128.84 469.34 C 128.19 470.00 127.31 470.36 126.39 470.36 C 125.47 470.36 124.58 470.00 123.93 469.34 C 123.28 468.69 122.92 467.81 122.92 466.89 C 122.92 465.97 123.28 465.08 123.93 464.43 C 124.58 463.78 125.47 463.42 126.39 463.42 Z " fill="#008000" fill-opacity="1.00" stroke="#008000" stroke-opacity="1.00" stroke-width="0.50" stroke-linecap="butt" stroke-linejoin="miter"/>
<path d="M 126.39 463.42 C 127.31 463.42 128.19 463.78 128.84 464.43 C 129.50 465.08 129.86 465.97 129.86 466.89 C 129.86 467.81 129.50 468.69 128.84 469.34 C 128.19 470.00 127.31 470.36 126.39 470.36 C 125.47 470.36 124.58 470.00 123.93 469.34 C 123.28 468.69 122.92 467.81 122.92 466.89 C 122.92 465.97 123.28 465.08 123.93 464.43 C 124.58 463.78 125.47 463.42 126.39 463.42 Z " fill="#008000" fill-opacity="1.00" stroke="#008000" stroke-opacity="1.00" stroke-width="0.50" stroke-linecap="butt" stroke-linejoin="miter"/>
<text font-family="DejaVu Sans" font-size="13.89" fill="#000000" fill-opacity="1.00" text-anchor="start" dominant-baseline="central" transform="translate(151.39,466.89) scale(1,-1)">Group C</text>
</g>
</svg>
