<?xml version="1.0" encoding="UTF-8"?>
<svg xmlns="http://www.w3.org/2000/svg"
     xmlns:xlink="http://www.w3.org/1999/xlink"
     width="1000" height="600" viewBox="0 0 1000 600">
<defs>
<clipPath id="clip-1">
<rect x="125.00" y="66.00" width="775.00" height="462.00"/>
</clipPath>
<clipPath id="clip-2">
<rect x="125.00" y="66.00" width="775.00" height="462.00"/>
</clipPath>
<clipPath id="clip-3">
<rect x="125.00" y="66.00" width="775.00" height="462.00"/>
</clipPath>
<clipPath id="clip-4">
<rect x="125.00" y="66.00" width="775.00" height="462.00"/>
</clipPath>
<clipPath id="clip-5">
<rect x="125.00" y="66.00" width="775.00" height="462.00"/>
</clipPath>
<clipPath id="clip-6">
<rect x="125.00" y="66.00" width="775.00" height="462.00"/>
</clipPath>
<clipPath id="clip-7">
<rect x="125.00" y="66.00" width="775.00" height="462.00"/>
</clipPath>
<clipPath id="clip-8">
<rect x="125.00" y="66.00" width="775.00" height="462.00"/>
</clipPath>
<clipPath id="clip-9">
<rect x="125.00" y="66.00" width="775.00" height="462.00"/>
</clipPath>
<clipPath id="clip-10">
<rect x="125.00" y="66.00" width="775.00" height="462.00"/>
</clipPath>
<clipPath id="clip-11">
<rect x="125.00" y="66.00" width="775.00" height="462.00"/>
</clipPath>
<clipPath id="clip-12">
<rect x="125.00" y="66.00" width="775.00" height="462.00"/>
</clipPath>
<clipPath id="clip-13">
<rect x="125.00" y="66.00" width="775.00" height="462.00"/>
</clipPath>
<clipPath id="clip-14">
<rect x="125.00" y="66.00" width="775.00" height="462.00"/>
</clipPath>
</defs>
<g transform="translate(0,600) scale(1,-1)">
<rect width="1000" height="600" fill="white"/>
<path d="M 0.00 0.00 L 1000.00 0.00 L 1000.00 600.00 L 0.00 600.00 L 0.00 0.00 Z " fill="#FFFFFF" fill-opacity="1.00" stroke="#000000" stroke-opacity="1.00" stroke-width="0.00" stroke-linecap="butt" stroke-linejoin="miter"/>
<path d="M 125.00 66.00 L 900.00 66.00 L 900.00 528.00 L 125.00 528.00 L 125.00 66.00 Z " fill="#FFFFFF" fill-opacity="1.00" stroke="none" stroke-opacity="0.00" stroke-width="0.00" stroke-linecap="butt" stroke-linejoin="miter"/>
<path d="M 772.88 341.00 L 864.77 341.00 L 864.77 506.00 L 772.88 506.00 L 772.88 341.00 Z " fill="#2E8B57" fill-opacity="1.00" stroke="#000000" stroke-opacity="1.00" stroke-width="0.50" stroke-linecap="butt" stroke-linejoin="miter"/>
<path d="M 619.71 368.50 L 711.61 368.50 L 711.61 506.00 L 619.71 506.00 L 619.71 368.50 Z " fill="#2E8B57" fill-opacity="1.00" stroke="#000000" stroke-opacity="1.00" stroke-width="0.50" stroke-linecap="butt" stroke-linejoin="miter"/>
<path d="M 466.55 368.50 L 558.45 368.50 L 558.45 478.50 L 466.55 478.50 L 466.55 368.50 Z " fill="#2E8B57" fill-opacity="1.00" stroke="#000000" stroke-opacity="1.00" stroke-width="0.50" stroke-linecap="butt" stroke-linejoin="miter"/>
<path d="M 313.39 368.50 L 405.29 368.50 L 405.29 451.00 L 313.39 451.00 L 313.39 368.50 Z " fill="#2E8B57" fill-opacity="1.00" stroke="#000000" stroke-opacity="1.00" stroke-width="0.50" stroke-linecap="butt" stroke-linejoin="miter"/>
<path d="M 160.23 258.50 L 252.12 258.50 L 252.12 313.50 L 160.23 313.50 L 160.23 258.50 Z " fill="#2E8B57" fill-opacity="1.00" stroke="#000000" stroke-opacity="1.00" stroke-width="0.50" stroke-linecap="butt" stroke-linejoin="miter"/>
<path d="M 772.88 148.50 L 864.77 148.50 L 864.77 341.00 L 772.88 341.00 L 772.88 148.50 Z " fill="#FF6347" fill-opacity="1.00" stroke="#000000" stroke-opacity="1.00" stroke-width="0.50" stroke-linecap="butt" stroke-linejoin="miter"/>
<path d="M 619.71 203.50 L 711.61 203.50 L 711.61 368.50 L 619.71 368.50 L 619.71 203.50 Z " fill="#FF6347" fill-opacity="1.00" stroke="#000000" stroke-opacity="1.00" stroke-width="0.50" stroke-linecap="butt" stroke-linejoin="miter"/>
<path d="M 466.55 231.00 L 558.45 231.00 L 558.45 368.50 L 466.55 368.50 L 466.55 231.00 Z " fill="#FF6347" fill-opacity="1.00" stroke="#000000" stroke-opacity="1.00" stroke-width="0.50" stroke-linecap="butt" stroke-linejoin="miter"/>
<path d="M 313.39 258.50 L 405.29 258.50 L 405.29 368.50 L 313.39 368.50 L 313.39 258.50 Z " fill="#FF6347" fill-opacity="1.00" stroke="#000000" stroke-opacity="1.00" stroke-width="0.50" stroke-linecap="butt" stroke-linejoin="miter"/>
<path d="M 160.23 176.00 L 252.12 176.00 L 252.12 258.50 L 160.23 258.50 L 160.23 176.00 Z " fill="#FF6347" fill-opacity="1.00" stroke="#000000" stroke-opacity="1.00" stroke-width="0.50" stroke-linecap="butt" stroke-linejoin="miter"/>
<path d="M 772.88 66.00 L 864.77 66.00 L 864.77 148.50 L 772.88 148.50 L 772.88 66.00 Z " fill="#4682B4" fill-opacity="1.00" stroke="#000000" stroke-opacity="1.00" stroke-width="0.50" stroke-linecap="butt" stroke-linejoin="miter"/>
<path d="M 619.71 66.00 L 711.61 66.00 L 711.61 203.50 L 619.71 203.50 L 619.71 66.00 Z " fill="#4682B4" fill-opacity="1.00" stroke="#000000" stroke-opacity="1.00" stroke-width="0.50" stroke-linecap="butt" stroke-linejoin="miter"/>
<path d="M 466.55 66.00 L 558.45 66.00 L 558.45 231.00 L 466.55 231.00 L 466.55 66.00 Z " fill="#4682B4" fill-opacity="1.00" stroke="#000000" stroke-opacity="1.00" stroke-width="0.50" stroke-linecap="butt" stroke-linejoin="miter"/>
<path d="M 313.39 66.00 L 405.29 66.00 L 405.29 258.50 L 313.39 258.50 L 313.39 66.00 Z " fill="#4682B4" fill-opacity="1.00" stroke="#000000" stroke-opacity="1.00" stroke-width="0.50" stroke-linecap="butt" stroke-linejoin="miter"/>
<path d="M 160.23 66.00 L 252.12 66.00 L 252.12 176.00 L 160.23 176.00 L 160.23 66.00 Z " fill="#4682B4" fill-opacity="1.00" stroke="#000000" stroke-opacity="1.00" stroke-width="0.50" stroke-linecap="butt" stroke-linejoin="miter"/>
<path d="M 206.50 66.50 L 206.50 528.50 " fill="none" fill-opacity="0.00" stroke="#B0B0B0" stroke-opacity="1.00" stroke-width="0.80" stroke-linecap="butt" stroke-linejoin="miter" clip-path="url(#clip-1)"/>
<path d="M 359.50 66.50 L 359.50 528.50 " fill="none" fill-opacity="0.00" stroke="#B0B0B0" stroke-opacity="1.00" stroke-width="0.80" stroke-linecap="butt" stroke-linejoin="miter" clip-path="url(#clip-2)"/>
<path d="M 512.50 66.50 L 512.50 528.50 " fill="none" fill-opacity="0.00" stroke="#B0B0B0" stroke-opacity="1.00" stroke-width="0.80" stroke-linecap="butt" stroke-linejoin="miter" clip-path="url(#clip-3)"/>
<path d="M 666.50 66.50 L 666.50 528.50 " fill="none" fill-opacity="0.00" stroke="#B0B0B0" stroke-opacity="1.00" stroke-width="0.80" stroke-linecap="butt" stroke-linejoin="miter" clip-path="url(#clip-4)"/>
<path d="M 819.50 66.50 L 819.50 528.50 " fill="none" fill-opacity="0.00" stroke="#B0B0B0" stroke-opacity="1.00" stroke-width="0.80" stroke-linecap="butt" stroke-linejoin="miter" clip-path="url(#clip-5)"/>
<path d="M 125.50 65.50 L 900.50 65.50 " fill="none" fill-opacity="0.00" stroke="#B0B0B0" stroke-opacity="1.00" stroke-width="0.80" stroke-linecap="butt" stroke-linejoin="miter" clip-path="url(#clip-6)"/>
<path d="M 125.50 120.50 L 900.50 120.50 " fill="none" fill-opacity="0.00" stroke="#B0B0B0" stroke-opacity="1.00" stroke-width="0.80" stroke-linecap="butt" stroke-linejoin="miter" clip-path="url(#clip-7)"/>
<path d="M 125.50 175.50 L 900.50 175.50 " fill="none" fill-opacity="0.00" stroke="#B0B0B0" stroke-opacity="1.00" stroke-width="0.80" stroke-linecap="butt" stroke-linejoin="miter" clip-path="url(#clip-8)"/>
<path d="M 125.50 230.50 L 900.50 230.50 " fill="none" fill-opacity="0.00" stroke="#B0B0B0" stroke-opacity="1.00" stroke-width="0.80" stroke-linecap="butt" stroke-linejoin="miter" clip-path="url(#clip-9)"/>
<path d="M 125.50 285.50 L 900.50 285.50 " fill="none" fill-opacity="0.00" stroke="#B0B0B0" stroke-opacity="1.00" stroke-width="0.80" stroke-linecap="butt" stroke-linejoin="miter" clip-path="url(#clip-10)"/>
<path d="M 125.50 340.50 L 900.50 340.50 " fill="none" fill-opacity="0.00" stroke="#B0B0B0" stroke-opacity="1.00" stroke-width="0.80" stroke-linecap="butt" stroke-linejoin="miter" clip-path="url(#clip-11)"/>
<path d="M 125.50 395.50 L 900.50 395.50 " fill="none" fill-opacity="0.00" stroke="#B0B0B0" stroke-opacity="1.00" stroke-width="0.80" stroke-linecap="butt" stroke-linejoin="miter" clip-path="url(#clip-12)"/>
<path d="M 125.50 450.50 L 900.50 450.50 " fill="none" fill-opacity="0.00" stroke="#B0B0B0" stroke-opacity="1.00" stroke-width="0.80" stroke-linecap="butt" stroke-linejoin="miter" clip-path="url(#clip-13)"/>
<path d="M 125.50 505.50 L 900.50 505.50 " fill="none" fill-opacity="0.00" stroke="#B0B0B0" stroke-opacity="1.00" stroke-width="0.80" stroke-linecap="butt" stroke-linejoin="miter" clip-path="url(#clip-14)"/>
<text font-family="DejaVu Sans" font-size="16.67" fill="#000000" fill-opacity="1.00" text-anchor="middle" transform="translate(512.50,537.33) scale(1,-1)">Stacked Bar Chart</text>
<path d="M 131.94 454.39 L 256.33 454.39 L 256.33 521.06 L 131.94 521.06 L 131.94 454.39 Z " fill="#FFFFFF" fill-opacity="0.80" stroke="#CCCCCC" stroke-opacity="1.00" stroke-width="0.80" stroke-linecap="butt" stroke-linejoin="miter"/>
<path d="M 137.50 503.69 L 165.28 503.69 L 165.28 513.42 L 137.50 513.42 L 137.50 503.69 Z " fill="#4682B4" fill-opacity="1.00" stroke="#000000" stroke-opacity="1.00" stroke-width="0.50" stroke-linecap="butt" stroke-linejoin="miter"/>
<text font-family="DejaVu Sans" font-size="13.89" fill="#000000" fill-opacity="1.00" text-anchor="start" dominant-baseline="central" transform="translate(176.39,508.56) scale(1,-1)">Group A</text>
<path d="M 137.50 482.86 L 165.28 482.86 L 165.28 492.58 L 137.50 492.58 L 137.50 482.86 Z " fill="#FF6347" fill-opacity="1.00" stroke="#000000" stroke-opacity="1.00" stroke-width="0.50" stroke-linecap="butt" stroke-linejoin="miter"/>
<text font-family="DejaVu Sans" font-size="13.89" fill="#000000" fill-opacity="1.00" text-anchor="start" dominant-baseline="central" transform="translate(176.39,487.72) scale(1,-1)">Group B</text>
<path d="M 137.50 462.03 L 165.28 462.03 L 165.28 471.75 L 137.50 471.75 L 137.50 462.03 Z " fill="#2E8B57" fill-opacity="1.00" stroke="#000000" stroke-opacity="1.00" stroke-width="0.50" stroke-linecap="butt" stroke-linejoin="miter"/>
<text font-family="DejaVu Sans" font-size="13.89" fill="#000000" fill-opacity="1.00" text-anchor="start" dominant-baseline="central" transform="translate(176.39,466.89) scale(1,-1)">Group C</text>
<path d="M 206.50 66.50 L 206.50 61.50 " fill="none" fill-opacity="0.00" stroke="#000000" stroke-opacity="1.00" stroke-width="0.80" stroke-linecap="butt" stroke-linejoin="miter"/>
<text font-family="DejaVu Sans" font-size="13.89" fill="#000000" fill-opacity="1.00" text-anchor="middle" dominant-baseline="text-before-edge" transform="translate(206.18,56.28) scale(1,-1)">1</text>
<path d="M 359.50 66.50 L 359.50 61.50 " fill="none" fill-opacity="0.00" stroke="#000000" stroke-opacity="1.00" stroke-width="0.80" stroke-linecap="butt" stroke-linejoin="miter"/>
<text font-family="DejaVu Sans" font-size="13.89" fill="#000000" fill-opacity="1.00" text-anchor="middle" dominant-baseline="text-before-edge" transform="translate(359.34,56.28) scale(1,-1)">2</text>
<path d="M 512.50 66.50 L 512.50 61.50 " fill="none" fill-opacity="0.00" stroke="#000000" stroke-opacity="1.00" stroke-width="0.80" stroke-linecap="butt" stroke-linejoin="miter"/>
<text font-family="DejaVu Sans" font-size="13.89" fill="#000000" fill-opacity="1.00" text-anchor="middle" dominant-baseline="text-before-edge" transform="translate(512.50,56.28) scale(1,-1)">3</text>
<path d="M 666.50 66.50 L 666.50 61.50 " fill="none" fill-opacity="0.00" stroke="#000000" stroke-opacity="1.00" stroke-width="0.80" stroke-linecap="butt" stroke-linejoin="miter"/>
<text font-family="DejaVu Sans" font-size="13.89" fill="#000000" fill-opacity="1.00" text-anchor="middle" dominant-baseline="text-before-edge" transform="translate(665.66,56.28) scale(1,-1)">4</text>
<path d="M 819.50 66.50 L 819.50 61.50 " fill="none" fill-opacity="0.00" stroke="#000000" stroke-opacity="1.00" stroke-width="0.80" stroke-linecap="butt" stroke-linejoin="miter"/>
<text font-family="DejaVu Sans" font-size="13.89" fill="#000000" fill-opacity="1.00" text-anchor="middle" dominant-baseline="text-before-edge" transform="translate(818.82,56.28) scale(1,-1)">5</text>
<text font-family="DejaVu Sans" font-size="13.89" fill="#000000" fill-opacity="1.00" text-anchor="middle" dominant-baseline="text-before-edge" transform="translate(512.50,37.17) scale(1,-1)">Category</text>
<path d="M 125.50 65.50 L 120.50 65.50 " fill="none" fill-opacity="0.00" stroke="#000000" stroke-opacity="1.00" stroke-width="0.80" stroke-linecap="butt" stroke-linejoin="miter"/>
<text font-family="DejaVu Sans" font-size="13.89" fill="#000000" fill-opacity="1.00" text-anchor="end" dominant-baseline="central" transform="translate(115.28,66.00) scale(1,-1)">0</text>
<path d="M 125.50 120.50 L 120.50 120.50 " fill="none" fill-opacity="0.00" stroke="#000000" stroke-opacity="1.00" stroke-width="0.80" stroke-linecap="butt" stroke-linejoin="miter"/>
<text font-family="DejaVu Sans" font-size="13.89" fill="#000000" fill-opacity="1.00" text-anchor="end" dominant-baseline="central" transform="translate(115.28,121.00) scale(1,-1)">10</text>
<path d="M 125.50 175.50 L 120.50 175.50 " fill="none" fill-opacity="0.00" stroke="#000000" stroke-opacity="1.00" stroke-width="0.80" stroke-linecap="butt" stroke-linejoin="miter"/>
<text font-family="DejaVu Sans" font-size="13.89" fill="#000000" fill-opacity="1.00" text-anchor="end" dominant-baseline="central" transform="translate(115.28,176.00) scale(1,-1)">20</text>
<path d="M 125.50 230.50 L 120.50 230.50 " fill="none" fill-opacity="0.00" stroke="#000000" stroke-opacity="1.00" stroke-width="0.80" stroke-linecap="butt" stroke-linejoin="miter"/>
<text font-family="DejaVu Sans" font-size="13.89" fill="#000000" fill-opacity="1.00" text-anchor="end" dominant-baseline="central" transform="translate(115.28,231.00) scale(1,-1)">30</text>
<path d="M 125.50 285.50 L 120.50 285.50 " fill="none" fill-opacity="0.00" stroke="#000000" stroke-opacity="1.00" stroke-width="0.80" stroke-linecap="butt" stroke-linejoin="miter"/>
<text font-family="DejaVu Sans" font-size="13.89" fill="#000000" fill-opacity="1.00" text-anchor="end" dominant-baseline="central" transform="translate(115.28,286.00) scale(1,-1)">40</text>
<path d="M 125.50 340.50 L 120.50 340.50 " fill="none" fill-opacity="0.00" stroke="#000000" stroke-opacity="1.00" stroke-width="0.80" stroke-linecap="butt" stroke-linejoin="miter"/>
<text font-family="DejaVu Sans" font-size="13.89" fill="#000000" fill-opacity="1.00" text-anchor="end" dominant-baseline="central" transform="translate(115.28,341.00) scale(1,-1)">50</text>
<path d="M 125.50 395.50 L 120.50 395.50 " fill="none" fill-opacity="0.00" stroke="#000000" stroke-opacity="1.00" stroke-width="0.80" stroke-linecap="butt" stroke-linejoin="miter"/>
<text font-family="DejaVu Sans" font-size="13.89" fill="#000000" fill-opacity="1.00" text-anchor="end" dominant-baseline="central" transform="translate(115.28,396.00) scale(1,-1)">60</text>
<path d="M 125.50 450.50 L 120.50 450.50 " fill="none" fill-opacity="0.00" stroke="#000000" stroke-opacity="1.00" stroke-width="0.80" stroke-linecap="butt" stroke-linejoin="miter"/>
<text font-family="DejaVu Sans" font-size="13.89" fill="#000000" fill-opacity="1.00" text-anchor="end" dominant-baseline="central" transform="translate(115.28,451.00) scale(1,-1)">70</text>
<path d="M 125.50 505.50 L 120.50 505.50 " fill="none" fill-opacity="0.00" stroke="#000000" stroke-opacity="1.00" stroke-width="0.80" stroke-linecap="butt" stroke-linejoin="miter"/>
<text font-family="DejaVu Sans" font-size="13.89" fill="#000000" fill-opacity="1.00" text-anchor="end" dominant-baseline="central" transform="translate(115.28,506.00) scale(1,-1)">80</text>
<text font-family="DejaVu Sans" font-size="13.89" fill="#000000" fill-opacity="1.00" text-anchor="middle" transform="translate(85.57,297.00) rotate(-90.00) scale(1,-1)">Value</text>
<path d="M 125.50 66.50 L 125.50 528.50 " fill="none" fill-opacity="0.00" stroke="#000000" stroke-opacity="1.00" stroke-width="0.80" stroke-linecap="square" stroke-linejoin="miter"/>
<path d="M 900.50 66.50 L 900.50 528.50 " fill="none" fill-opacity="0.00" stroke="#000000" stroke-opacity="1.00" stroke-width="0.80" stroke-linecap="square" stroke-linejoin="miter"/>
<path d="M 125.50 65.50 L 900.50 65.50 " fill="none" fill-opacity="0.00" stroke="#000000" stroke-opacity="1.00" stroke-width="0.80" stroke-linecap="square" stroke-linejoin="miter"/>
<path d="M 125.50 527.50 L 900.50 527.50 " fill="none" fill-opacity="0.00" stroke="#000000" stroke-opacity="1.00" stroke-width="0.80" stroke-linecap="square" stroke-linejoin="miter"/>
<path d="M 131.94 454.39 L 256.33 454.39 L 256.33 521.06 L 131.94 521.06 L 131.94 454.39 Z " fill="#FFFFFF" fill-opacity="0.80" stroke="#CCCCCC" stroke-opacity="1.00" stroke-width="0.80" stroke-linecap="butt" stroke-linejoin="miter"/>
<path d="M 137.50 503.69 L 165.28 503.69 L 165.28 513.42 L 137.50 513.42 L 137.50 503.69 Z " fill="#4682B4" fill-opacity="1.00" stroke="#000000" stroke-opacity="1.00" stroke-width="0.50" stroke-linecap="butt" stroke-linejoin="miter"/>
<text font-family="DejaVu Sans" font-size="13.89" fill="#000000" fill-opacity="1.00" text-anchor="start" dominant-baseline="central" transform="translate(176.39,508.56) scale(1,-1)">Group A</text>
<path d="M 137.50 482.86 L 165.28 482.86 L 165.28 492.58 L 137.50 492.58 L 137.50 482.86 Z " fill="#FF6347" fill-opacity="1.00" stroke="#000000" stroke-opacity="1.00" stroke-width="0.50" stroke-linecap="butt" stroke-linejoin="miter"/>
<text font-family="DejaVu Sans" font-size="13.89" fill="#000000" fill-opacity="1.00" text-anchor="start" dominant-baseline="central" transform="translate(176.39,487.72) scale(1,-1)">Group B</text>
<path d="M 137.50 462.03 L 165.28 462.03 L 165.28 471.75 L 137.50 471.75 L 137.50 462.03 Z " fill="#2E8B57" fill-opacity="1.00" stroke="#000000" stroke-opacity="1.00" stroke-width="0.50" stroke-linecap="butt" stroke-linejoin="miter"/>
<text font-family="DejaVu Sans" font-size="13.89" fill="#000000" fill-opacity="1.00" text-anchor="start" dominant-baseline="central" transform="translate(176.39,466.89) scale(1,-1)">Group C</text>
</g>
</svg>
