<?xml version="1.0" encoding="UTF-8"?>
<svg xmlns="http://www.w3.org/2000/svg"
     xmlns:xlink="http://www.w3.org/1999/xlink"
     width="640" height="480" viewBox="0 0 640 480">
<defs>
</defs>
<g transform="translate(0,480) scale(1,-1)">
<rect width="640" height="480" fill="white"/>
<path d="M 0.00 0.00 L 640.00 0.00 L 640.00 480.00 L 0.00 480.00 Z " fill="#FFFFFF" fill-opacity="1.00" stroke="#FFFFFF" stroke-opacity="1.00" stroke-width="0.00" stroke-linecap="butt" stroke-linejoin="miter"/>
<path d="M 80.00 52.80 L 576.00 52.80 L 576.00 422.40 L 80.00 422.40 Z " fill="#FFFFFF" fill-opacity="1.00" stroke="none" stroke-opacity="0.00" stroke-width="0.00" stroke-linecap="butt" stroke-linejoin="miter"/>
<path d="M 102.55 228.91 L 134.75 228.91 L 134.75 271.13 L 166.96 271.13 L 166.96 303.01 L 199.17 303.01 L 199.17 316.74 L 231.38 316.74 L 231.38 308.98 L 263.58 308.98 L 263.58 281.61 L 295.79 281.61 L 295.79 241.34 L 328.00 241.34 L 328.00 198.02 L 360.21 198.02 L 360.21 162.27 L 392.42 162.27 L 392.42 142.83 L 424.62 142.83 L 424.62 144.47 L 456.83 144.47 L 456.83 166.78 L 489.04 166.78 L 489.04 204.31 L 521.25 204.31 L 521.25 247.85 L 553.45 247.85 L 553.45 52.80 L 102.55 52.80 Z " fill="#1F77B4" fill-opacity="0.40" stroke="#1F77B4" stroke-opacity="0.40" stroke-width="1.39" stroke-linecap="butt" stroke-linejoin="miter"/>
<path d="M 103.50 317.50 L 135.50 317.50 L 135.50 359.50 L 167.50 359.50 L 167.50 391.50 L 199.50 391.50 L 199.50 405.50 L 231.50 405.50 L 231.50 397.50 L 264.50 397.50 L 264.50 370.50 L 296.50 370.50 L 296.50 329.50 L 328.50 329.50 L 328.50 286.50 L 360.50 286.50 L 360.50 250.50 L 392.50 250.50 L 392.50 231.50 L 425.50 231.50 L 425.50 233.50 L 457.50 233.50 L 457.50 255.50 L 489.50 255.50 L 489.50 292.50 L 521.50 292.50 L 521.50 336.50 L 553.50 336.50 " fill="none" fill-opacity="0.00" stroke="#FF7F0E" stroke-opacity="1.00" stroke-width="2.78" stroke-linecap="square" stroke-linejoin="round"/>
<path d="M 103.50 53.50 L 103.50 48.50 " fill="none" fill-opacity="0.00" stroke="#000000" stroke-opacity="1.00" stroke-width="1.11" stroke-linecap="butt" stroke-linejoin="miter"/>
<text font-family="DejaVu Sans" font-size="13.89" fill="#000000" fill-opacity="1.00" text-anchor="middle" dominant-baseline="text-before-edge" transform="translate(102.55,43.08) scale(1,-1)">0</text>
<path d="M 167.50 53.50 L 167.50 48.50 " fill="none" fill-opacity="0.00" stroke="#000000" stroke-opacity="1.00" stroke-width="1.11" stroke-linecap="butt" stroke-linejoin="miter"/>
<text font-family="DejaVu Sans" font-size="13.89" fill="#000000" fill-opacity="1.00" text-anchor="middle" dominant-baseline="text-before-edge" transform="translate(166.96,43.08) scale(1,-1)">1</text>
<path d="M 231.50 53.50 L 231.50 48.50 " fill="none" fill-opacity="0.00" stroke="#000000" stroke-opacity="1.00" stroke-width="1.11" stroke-linecap="butt" stroke-linejoin="miter"/>
<text font-family="DejaVu Sans" font-size="13.89" fill="#000000" fill-opacity="1.00" text-anchor="middle" dominant-baseline="text-before-edge" transform="translate(231.38,43.08) scale(1,-1)">2</text>
<path d="M 296.50 53.50 L 296.50 48.50 " fill="none" fill-opacity="0.00" stroke="#000000" stroke-opacity="1.00" stroke-width="1.11" stroke-linecap="butt" stroke-linejoin="miter"/>
<text font-family="DejaVu Sans" font-size="13.89" fill="#000000" fill-opacity="1.00" text-anchor="middle" dominant-baseline="text-before-edge" transform="translate(295.79,43.08) scale(1,-1)">3</text>
<path d="M 360.50 53.50 L 360.50 48.50 " fill="none" fill-opacity="0.00" stroke="#000000" stroke-opacity="1.00" stroke-width="1.11" stroke-linecap="butt" stroke-linejoin="miter"/>
<text font-family="DejaVu Sans" font-size="13.89" fill="#000000" fill-opacity="1.00" text-anchor="middle" dominant-baseline="text-before-edge" transform="translate(360.21,43.08) scale(1,-1)">4</text>
<path d="M 425.50 53.50 L 425.50 48.50 " fill="none" fill-opacity="0.00" stroke="#000000" stroke-opacity="1.00" stroke-width="1.11" stroke-linecap="butt" stroke-linejoin="miter"/>
<text font-family="DejaVu Sans" font-size="13.89" fill="#000000" fill-opacity="1.00" text-anchor="middle" dominant-baseline="text-before-edge" transform="translate(424.62,43.08) scale(1,-1)">5</text>
<path d="M 489.50 53.50 L 489.50 48.50 " fill="none" fill-opacity="0.00" stroke="#000000" stroke-opacity="1.00" stroke-width="1.11" stroke-linecap="butt" stroke-linejoin="miter"/>
<text font-family="DejaVu Sans" font-size="13.89" fill="#000000" fill-opacity="1.00" text-anchor="middle" dominant-baseline="text-before-edge" transform="translate(489.04,43.08) scale(1,-1)">6</text>
<path d="M 553.50 53.50 L 553.50 48.50 " fill="none" fill-opacity="0.00" stroke="#000000" stroke-opacity="1.00" stroke-width="1.11" stroke-linecap="butt" stroke-linejoin="miter"/>
<text font-family="DejaVu Sans" font-size="13.89" fill="#000000" fill-opacity="1.00" text-anchor="middle" dominant-baseline="text-before-edge" transform="translate(553.45,43.08) scale(1,-1)">7</text>
<path d="M 80.50 52.50 L 75.50 52.50 " fill="none" fill-opacity="0.00" stroke="#000000" stroke-opacity="1.00" stroke-width="1.11" stroke-linecap="butt" stroke-linejoin="miter"/>
<text font-family="DejaVu Sans" font-size="13.89" fill="#000000" fill-opacity="1.00" text-anchor="end" dominant-baseline="central" transform="translate(70.28,52.80) scale(1,-1)">0.0</text>
<path d="M 80.50 96.50 L 75.50 96.50 " fill="none" fill-opacity="0.00" stroke="#000000" stroke-opacity="1.00" stroke-width="1.11" stroke-linecap="butt" stroke-linejoin="miter"/>
<text font-family="DejaVu Sans" font-size="13.89" fill="#000000" fill-opacity="1.00" text-anchor="end" dominant-baseline="central" transform="translate(70.28,96.83) scale(1,-1)">0.5</text>
<path d="M 80.50 140.50 L 75.50 140.50 " fill="none" fill-opacity="0.00" stroke="#000000" stroke-opacity="1.00" stroke-width="1.11" stroke-linecap="butt" stroke-linejoin="miter"/>
<text font-family="DejaVu Sans" font-size="13.89" fill="#000000" fill-opacity="1.00" text-anchor="end" dominant-baseline="central" transform="translate(70.28,140.86) scale(1,-1)">1.0</text>
<path d="M 80.50 184.50 L 75.50 184.50 " fill="none" fill-opacity="0.00" stroke="#000000" stroke-opacity="1.00" stroke-width="1.11" stroke-linecap="butt" stroke-linejoin="miter"/>
<text font-family="DejaVu Sans" font-size="13.89" fill="#000000" fill-opacity="1.00" text-anchor="end" dominant-baseline="central" transform="translate(70.28,184.88) scale(1,-1)">1.5</text>
<path d="M 80.50 228.50 L 75.50 228.50 " fill="none" fill-opacity="0.00" stroke="#000000" stroke-opacity="1.00" stroke-width="1.11" stroke-linecap="butt" stroke-linejoin="miter"/>
<text font-family="DejaVu Sans" font-size="13.89" fill="#000000" fill-opacity="1.00" text-anchor="end" dominant-baseline="central" transform="translate(70.28,228.91) scale(1,-1)">2.0</text>
<path d="M 80.50 272.50 L 75.50 272.50 " fill="none" fill-opacity="0.00" stroke="#000000" stroke-opacity="1.00" stroke-width="1.11" stroke-linecap="butt" stroke-linejoin="miter"/>
<text font-family="DejaVu Sans" font-size="13.89" fill="#000000" fill-opacity="1.00" text-anchor="end" dominant-baseline="central" transform="translate(70.28,272.94) scale(1,-1)">2.5</text>
<path d="M 80.50 316.50 L 75.50 316.50 " fill="none" fill-opacity="0.00" stroke="#000000" stroke-opacity="1.00" stroke-width="1.11" stroke-linecap="butt" stroke-linejoin="miter"/>
<text font-family="DejaVu Sans" font-size="13.89" fill="#000000" fill-opacity="1.00" text-anchor="end" dominant-baseline="central" transform="translate(70.28,316.97) scale(1,-1)">3.0</text>
<path d="M 80.50 360.50 L 75.50 360.50 " fill="none" fill-opacity="0.00" stroke="#000000" stroke-opacity="1.00" stroke-width="1.11" stroke-linecap="butt" stroke-linejoin="miter"/>
<text font-family="DejaVu Sans" font-size="13.89" fill="#000000" fill-opacity="1.00" text-anchor="end" dominant-baseline="central" transform="translate(70.28,360.99) scale(1,-1)">3.5</text>
<path d="M 80.50 404.50 L 75.50 404.50 " fill="none" fill-opacity="0.00" stroke="#000000" stroke-opacity="1.00" stroke-width="1.11" stroke-linecap="butt" stroke-linejoin="miter"/>
<text font-family="DejaVu Sans" font-size="13.89" fill="#000000" fill-opacity="1.00" text-anchor="end" dominant-baseline="central" transform="translate(70.28,405.02) scale(1,-1)">4.0</text>
<path d="M 80.50 53.50 L 80.50 422.50 " fill="none" fill-opacity="0.00" stroke="#000000" stroke-opacity="1.00" stroke-width="1.11" stroke-linecap="square" stroke-linejoin="miter"/>
<path d="M 576.50 53.50 L 576.50 422.50 " fill="none" fill-opacity="0.00" stroke="#000000" stroke-opacity="1.00" stroke-width="1.11" stroke-linecap="square" stroke-linejoin="miter"/>
<path d="M 80.50 52.50 L 576.50 52.50 " fill="none" fill-opacity="0.00" stroke="#000000" stroke-opacity="1.00" stroke-width="1.11" stroke-linecap="square" stroke-linejoin="miter"/>
<path d="M 80.50 421.50 L 576.50 421.50 " fill="none" fill-opacity="0.00" stroke="#000000" stroke-opacity="1.00" stroke-width="1.11" stroke-linecap="square" stroke-linejoin="miter"/>
</g>
</svg>
