<?xml version="1.0" encoding="UTF-8"?>
<svg xmlns="http://www.w3.org/2000/svg"
     xmlns:xlink="http://www.w3.org/1999/xlink"
     width="800" height="500" viewBox="0 0 800 500">
<defs>
<clipPath id="clip-1">
<rect x="100.00" y="55.00" width="620.00" height="385.00"/>
</clipPath>
<clipPath id="clip-2">
<rect x="100.00" y="55.00" width="620.00" height="385.00"/>
</clipPath>
<clipPath id="clip-3">
<rect x="100.00" y="55.00" width="620.00" height="385.00"/>
</clipPath>
<clipPath id="clip-4">
<rect x="100.00" y="55.00" width="620.00" height="385.00"/>
</clipPath>
<clipPath id="clip-5">
<rect x="100.00" y="55.00" width="620.00" height="385.00"/>
</clipPath>
<clipPath id="clip-6">
<rect x="100.00" y="55.00" width="620.00" height="385.00"/>
</clipPath>
<clipPath id="clip-7">
<rect x="100.00" y="55.00" width="620.00" height="385.00"/>
</clipPath>
<clipPath id="clip-8">
<rect x="100.00" y="55.00" width="620.00" height="385.00"/>
</clipPath>
<clipPath id="clip-9">
<rect x="100.00" y="55.00" width="620.00" height="385.00"/>
</clipPath>
<clipPath id="clip-10">
<rect x="100.00" y="55.00" width="620.00" height="385.00"/>
</clipPath>
<clipPath id="clip-11">
<rect x="100.00" y="55.00" width="620.00" height="385.00"/>
</clipPath>
<symbol id="marker-12" overflow="visible">
<path d="M 0.00 -4.17 C 1.11 -4.17 2.16 -3.73 2.95 -2.95 C 3.73 -2.16 4.17 -1.11 4.17 0.00 C 4.17 1.11 3.73 2.16 2.95 2.95 C 2.16 3.73 1.11 4.17 0.00 4.17 C -1.11 4.17 -2.16 3.73 -2.95 2.95 C -3.73 2.16 -4.17 1.11 -4.17 0.00 C -4.17 -1.11 -3.73 -2.16 -2.95 -2.95 C -2.16 -3.73 -1.11 -4.17 0.00 -4.17 Z " fill="#1F77B4" fill-opacity="1.00" stroke="#1F77B4" stroke-opacity="1.00" stroke-width="1.00" stroke-linecap="butt" stroke-linejoin="miter"/>
</symbol>
</defs>
<g transform="translate(0,500) scale(1,-1)">
<rect width="800" height="500" fill="white"/>
<path d="M 0.00 0.00 L 800.00 0.00 L 800.00 500.00 L 0.00 500.00 L 0.00 0.00 Z " fill="#FFFFFF" fill-opacity="1.00" stroke="#000000" stroke-opacity="1.00" stroke-width="0.00" stroke-linecap="butt" stroke-linejoin="miter"/>
<path d="M 100.00 55.00 L 720.00 55.00 L 720.00 440.00 L 100.00 440.00 L 100.00 55.00 Z " fill="#FFFFFF" fill-opacity="1.00" stroke="none" stroke-opacity="0.00" stroke-width="0.00" stroke-linecap="butt" stroke-linejoin="miter"/>
<path d="M 191.50 55.50 L 191.50 440.50 " fill="none" fill-opacity="0.00" stroke="#B0B0B0" stroke-opacity="1.00" stroke-width="0.80" stroke-linecap="butt" stroke-linejoin="miter" clip-path="url(#clip-1)"/>
<path d="M 316.50 55.50 L 316.50 440.50 " fill="none" fill-opacity="0.00" stroke="#B0B0B0" stroke-opacity="1.00" stroke-width="0.80" stroke-linecap="butt" stroke-linejoin="miter" clip-path="url(#clip-2)"/>
<path d="M 441.50 55.50 L 441.50 440.50 " fill="none" fill-opacity="0.00" stroke="#B0B0B0" stroke-opacity="1.00" stroke-width="0.80" stroke-linecap="butt" stroke-linejoin="miter" clip-path="url(#clip-3)"/>
<path d="M 567.50 55.50 L 567.50 440.50 " fill="none" fill-opacity="0.00" stroke="#B0B0B0" stroke-opacity="1.00" stroke-width="0.80" stroke-linecap="butt" stroke-linejoin="miter" clip-path="url(#clip-4)"/>
<path d="M 692.50 55.50 L 692.50 440.50 " fill="none" fill-opacity="0.00" stroke="#B0B0B0" stroke-opacity="1.00" stroke-width="0.80" stroke-linecap="butt" stroke-linejoin="miter" clip-path="url(#clip-5)"/>
<path d="M 100.50 78.50 L 720.50 78.50 " fill="none" fill-opacity="0.00" stroke="#B0B0B0" stroke-opacity="1.00" stroke-width="0.80" stroke-linecap="butt" stroke-linejoin="miter" clip-path="url(#clip-6)"/>
<path d="M 100.50 147.50 L 720.50 147.50 " fill="none" fill-opacity="0.00" stroke="#B0B0B0" stroke-opacity="1.00" stroke-width="0.80" stroke-linecap="butt" stroke-linejoin="miter" clip-path="url(#clip-7)"/>
<path d="M 100.50 216.50 L 720.50 216.50 " fill="none" fill-opacity="0.00" stroke="#B0B0B0" stroke-opacity="1.00" stroke-width="0.80" stroke-linecap="butt" stroke-linejoin="miter" clip-path="url(#clip-8)"/>
<path d="M 100.50 284.50 L 720.50 284.50 " fill="none" fill-opacity="0.00" stroke="#B0B0B0" stroke-opacity="1.00" stroke-width="0.80" stroke-linecap="butt" stroke-linejoin="miter" clip-path="url(#clip-9)"/>
<path d="M 100.50 353.50 L 720.50 353.50 " fill="none" fill-opacity="0.00" stroke="#B0B0B0" stroke-opacity="1.00" stroke-width="0.80" stroke-linecap="butt" stroke-linejoin="miter" clip-path="url(#clip-10)"/>
<path d="M 100.50 422.50 L 720.50 422.50 " fill="none" fill-opacity="0.00" stroke="#B0B0B0" stroke-opacity="1.00" stroke-width="0.80" stroke-linecap="butt" stroke-linejoin="miter" clip-path="url(#clip-11)"/>
<path d="M 128.50 217.50 L 692.50 217.50 " fill="none" fill-opacity="0.00" stroke="#D62728" stroke-opacity="1.00" stroke-width="1.00" stroke-linecap="square" stroke-linejoin="round"/>
<path d="M 128.50 217.50 L 128.50 320.50 " fill="none" fill-opacity="0.00" stroke="#1F77B4" stroke-opacity="1.00" stroke-width="1.00" stroke-linecap="butt" stroke-linejoin="round"/>
<path d="M 191.50 217.50 L 191.50 182.50 " fill="none" fill-opacity="0.00" stroke="#1F77B4" stroke-opacity="1.00" stroke-width="1.00" stroke-linecap="butt" stroke-linejoin="round"/>
<path d="M 253.50 217.50 L 253.50 374.50 " fill="none" fill-opacity="0.00" stroke="#1F77B4" stroke-opacity="1.00" stroke-width="1.00" stroke-linecap="butt" stroke-linejoin="round"/>
<path d="M 316.50 217.50 L 316.50 134.50 " fill="none" fill-opacity="0.00" stroke="#1F77B4" stroke-opacity="1.00" stroke-width="1.00" stroke-linecap="butt" stroke-linejoin="round"/>
<path d="M 379.50 217.50 L 379.50 422.50 " fill="none" fill-opacity="0.00" stroke="#1F77B4" stroke-opacity="1.00" stroke-width="1.00" stroke-linecap="butt" stroke-linejoin="round"/>
<path d="M 441.50 217.50 L 441.50 72.50 " fill="none" fill-opacity="0.00" stroke="#1F77B4" stroke-opacity="1.00" stroke-width="1.00" stroke-linecap="butt" stroke-linejoin="round"/>
<path d="M 504.50 217.50 L 504.50 340.50 " fill="none" fill-opacity="0.00" stroke="#1F77B4" stroke-opacity="1.00" stroke-width="1.00" stroke-linecap="butt" stroke-linejoin="round"/>
<path d="M 567.50 217.50 L 567.50 162.50 " fill="none" fill-opacity="0.00" stroke="#1F77B4" stroke-opacity="1.00" stroke-width="1.00" stroke-linecap="butt" stroke-linejoin="round"/>
<path d="M 629.50 217.50 L 629.50 388.50 " fill="none" fill-opacity="0.00" stroke="#1F77B4" stroke-opacity="1.00" stroke-width="1.00" stroke-linecap="butt" stroke-linejoin="round"/>
<path d="M 692.50 217.50 L 692.50 114.50 " fill="none" fill-opacity="0.00" stroke="#1F77B4" stroke-opacity="1.00" stroke-width="1.00" stroke-linecap="butt" stroke-linejoin="round"/>
<path d="M 128.18 319.56 L 190.81 182.30 L 253.43 374.46 L 316.06 134.26 L 378.69 422.50 L 441.31 72.50 L 503.94 340.15 L 566.57 161.72 L 629.19 388.19 L 691.82 113.68 " fill="none" fill-opacity="0.00" stroke="#1F77B4" stroke-opacity="1.00" stroke-width="0.00" stroke-linecap="square" stroke-linejoin="round"/>
<use xlink:href="#marker-12" x="128.18" y="319.56"/>
<use xlink:href="#marker-12" x="190.81" y="182.30"/>
<use xlink:href="#marker-12" x="253.43" y="374.46"/>
<use xlink:href="#marker-12" x="316.06" y="134.26"/>
<use xlink:href="#marker-12" x="378.69" y="422.50"/>
<use xlink:href="#marker-12" x="441.31" y="72.50"/>
<use xlink:href="#marker-12" x="503.94" y="340.15"/>
<use xlink:href="#marker-12" x="566.57" y="161.72"/>
<use xlink:href="#marker-12" x="629.19" y="388.19"/>
<use xlink:href="#marker-12" x="691.82" y="113.68"/>
<text font-family="DejaVu Sans" font-size="16.67" fill="#000000" fill-opacity="1.00" text-anchor="middle" transform="translate(410.00,449.33) scale(1,-1)">Stem Plot</text>
<path d="M 191.50 55.50 L 191.50 50.50 " fill="none" fill-opacity="0.00" stroke="#000000" stroke-opacity="1.00" stroke-width="0.80" stroke-linecap="butt" stroke-linejoin="miter"/>
<text font-family="DejaVu Sans" font-size="13.89" fill="#000000" fill-opacity="1.00" text-anchor="middle" dominant-baseline="text-before-edge" transform="translate(190.81,45.28) scale(1,-1)">2</text>
<path d="M 316.50 55.50 L 316.50 50.50 " fill="none" fill-opacity="0.00" stroke="#000000" stroke-opacity="1.00" stroke-width="0.80" stroke-linecap="butt" stroke-linejoin="miter"/>
<text font-family="DejaVu Sans" font-size="13.89" fill="#000000" fill-opacity="1.00" text-anchor="middle" dominant-baseline="text-before-edge" transform="translate(316.06,45.28) scale(1,-1)">4</text>
<path d="M 441.50 55.50 L 441.50 50.50 " fill="none" fill-opacity="0.00" stroke="#000000" stroke-opacity="1.00" stroke-width="0.80" stroke-linecap="butt" stroke-linejoin="miter"/>
<text font-family="DejaVu Sans" font-size="13.89" fill="#000000" fill-opacity="1.00" text-anchor="middle" dominant-baseline="text-before-edge" transform="translate(441.31,45.28) scale(1,-1)">6</text>
<path d="M 567.50 55.50 L 567.50 50.50 " fill="none" fill-opacity="0.00" stroke="#000000" stroke-opacity="1.00" stroke-width="0.80" stroke-linecap="butt" stroke-linejoin="miter"/>
<text font-family="DejaVu Sans" font-size="13.89" fill="#000000" fill-opacity="1.00" text-anchor="middle" dominant-baseline="text-before-edge" transform="translate(566.57,45.28) scale(1,-1)">8</text>
<path d="M 692.50 55.50 L 692.50 50.50 " fill="none" fill-opacity="0.00" stroke="#000000" stroke-opacity="1.00" stroke-width="0.80" stroke-linecap="butt" stroke-linejoin="miter"/>
<text font-family="DejaVu Sans" font-size="13.89" fill="#000000" fill-opacity="1.00" text-anchor="middle" dominant-baseline="text-before-edge" transform="translate(691.82,45.28) scale(1,-1)">10</text>
<text font-family="DejaVu Sans" font-size="13.89" fill="#000000" fill-opacity="1.00" text-anchor="middle" dominant-baseline="text-before-edge" transform="translate(410.00,26.17) scale(1,-1)">x</text>
<path d="M 100.50 78.50 L 95.50 78.50 " fill="none" fill-opacity="0.00" stroke="#000000" stroke-opacity="1.00" stroke-width="0.80" stroke-linecap="butt" stroke-linejoin="miter"/>
<text font-family="DejaVu Sans" font-size="13.89" fill="#000000" fill-opacity="1.00" text-anchor="end" dominant-baseline="central" transform="translate(90.28,79.36) scale(1,-1)">-2</text>
<path d="M 100.50 147.50 L 95.50 147.50 " fill="none" fill-opacity="0.00" stroke="#000000" stroke-opacity="1.00" stroke-width="0.80" stroke-linecap="butt" stroke-linejoin="miter"/>
<text font-family="DejaVu Sans" font-size="13.89" fill="#000000" fill-opacity="1.00" text-anchor="end" dominant-baseline="central" transform="translate(90.28,147.99) scale(1,-1)">-1</text>
<path d="M 100.50 216.50 L 95.50 216.50 " fill="none" fill-opacity="0.00" stroke="#000000" stroke-opacity="1.00" stroke-width="0.80" stroke-linecap="butt" stroke-linejoin="miter"/>
<text font-family="DejaVu Sans" font-size="13.89" fill="#000000" fill-opacity="1.00" text-anchor="end" dominant-baseline="central" transform="translate(90.28,216.62) scale(1,-1)">0</text>
<path d="M 100.50 284.50 L 95.50 284.50 " fill="none" fill-opacity="0.00" stroke="#000000" stroke-opacity="1.00" stroke-width="0.80" stroke-linecap="butt" stroke-linejoin="miter"/>
<text font-family="DejaVu Sans" font-size="13.89" fill="#000000" fill-opacity="1.00" text-anchor="end" dominant-baseline="central" transform="translate(90.28,285.25) scale(1,-1)">1</text>
<path d="M 100.50 353.50 L 95.50 353.50 " fill="none" fill-opacity="0.00" stroke="#000000" stroke-opacity="1.00" stroke-width="0.80" stroke-linecap="butt" stroke-linejoin="miter"/>
<text font-family="DejaVu Sans" font-size="13.89" fill="#000000" fill-opacity="1.00" text-anchor="end" dominant-baseline="central" transform="translate(90.28,353.87) scale(1,-1)">2</text>
<path d="M 100.50 422.50 L 95.50 422.50 " fill="none" fill-opacity="0.00" stroke="#000000" stroke-opacity="1.00" stroke-width="0.80" stroke-linecap="butt" stroke-linejoin="miter"/>
<text font-family="DejaVu Sans" font-size="13.89" fill="#000000" fill-opacity="1.00" text-anchor="end" dominant-baseline="central" transform="translate(90.28,422.50) scale(1,-1)">3</text>
<text font-family="DejaVu Sans" font-size="13.89" fill="#000000" fill-opacity="1.00" text-anchor="middle" transform="translate(58.12,247.50) rotate(-90.00) scale(1,-1)">y</text>
<path d="M 100.50 55.50 L 100.50 440.50 " fill="none" fill-opacity="0.00" stroke="#000000" stroke-opacity="1.00" stroke-width="0.80" stroke-linecap="square" stroke-linejoin="miter"/>
<path d="M 720.50 55.50 L 720.50 440.50 " fill="none" fill-opacity="0.00" stroke="#000000" stroke-opacity="1.00" stroke-width="0.80" stroke-linecap="square" stroke-linejoin="miter"/>
<path d="M 100.50 54.50 L 720.50 54.50 " fill="none" fill-opacity="0.00" stroke="#000000" stroke-opacity="1.00" stroke-width="0.80" stroke-linecap="square" stroke-linejoin="miter"/>
<path d="M 100.50 439.50 L 720.50 439.50 " fill="none" fill-opacity="0.00" stroke="#000000" stroke-opacity="1.00" stroke-width="0.80" stroke-linecap="square" stroke-linejoin="miter"/>
</g>
</svg>
