<?xml version="1.0" encoding="UTF-8"?>
<svg xmlns="http://www.w3.org/2000/svg"
     xmlns:xlink="http://www.w3.org/1999/xlink"
     width="1000" height="800" viewBox="0 0 1000 800">
<defs>
<clipPath id="clip-1">
<rect x="547.73" y="88.00" width="352.27" height="280.00"/>
</clipPath>
<clipPath id="clip-2">
<rect x="547.73" y="88.00" width="352.27" height="280.00"/>
</clipPath>
<clipPath id="clip-3">
<rect x="547.73" y="88.00" width="352.27" height="280.00"/>
</clipPath>
<clipPath id="clip-4">
<rect x="547.73" y="88.00" width="352.27" height="280.00"/>
</clipPath>
<clipPath id="clip-5">
<rect x="547.73" y="88.00" width="352.27" height="280.00"/>
</clipPath>
<clipPath id="clip-6">
<rect x="547.73" y="88.00" width="352.27" height="280.00"/>
</clipPath>
<clipPath id="clip-7">
<rect x="547.73" y="88.00" width="352.27" height="280.00"/>
</clipPath>
<clipPath id="clip-8">
<rect x="547.73" y="88.00" width="352.27" height="280.00"/>
</clipPath>
<clipPath id="clip-9">
<rect x="547.73" y="88.00" width="352.27" height="280.00"/>
</clipPath>
<clipPath id="clip-10">
<rect x="547.73" y="88.00" width="352.27" height="280.00"/>
</clipPath>
<clipPath id="clip-11">
<rect x="547.73" y="88.00" width="352.27" height="280.00"/>
</clipPath>
<clipPath id="clip-12">
<rect x="547.73" y="88.00" width="352.27" height="280.00"/>
</clipPath>
<clipPath id="clip-13">
<rect x="125.00" y="88.00" width="352.27" height="280.00"/>
</clipPath>
<clipPath id="clip-14">
<rect x="125.00" y="88.00" width="352.27" height="280.00"/>
</clipPath>
<clipPath id="clip-15">
<rect x="125.00" y="88.00" width="352.27" height="280.00"/>
</clipPath>
<clipPath id="clip-16">
<rect x="125.00" y="88.00" width="352.27" height="280.00"/>
</clipPath>
<clipPath id="clip-17">
<rect x="125.00" y="88.00" width="352.27" height="280.00"/>
</clipPath>
<clipPath id="clip-18">
<rect x="125.00" y="88.00" width="352.27" height="280.00"/>
</clipPath>
<clipPath id="clip-19">
<rect x="125.00" y="88.00" width="352.27" height="280.00"/>
</clipPath>
<clipPath id="clip-20">
<rect x="125.00" y="88.00" width="352.27" height="280.00"/>
</clipPath>
<clipPath id="clip-21">
<rect x="125.00" y="88.00" width="352.27" height="280.00"/>
</clipPath>
<clipPath id="clip-22">
<rect x="125.00" y="88.00" width="352.27" height="280.00"/>
</clipPath>
<clipPath id="clip-23">
<rect x="125.00" y="88.00" width="352.27" height="280.00"/>
</clipPath>
<clipPath id="clip-24">
<rect x="547.73" y="424.00" width="352.27" height="280.00"/>
</clipPath>
<clipPath id="clip-25">
<rect x="547.73" y="424.00" width="352.27" height="280.00"/>
</clipPath>
<clipPath id="clip-26">
<rect x="547.73" y="424.00" width="352.27" height="280.00"/>
</clipPath>
<clipPath id="clip-27">
<rect x="547.73" y="424.00" width="352.27" height="280.00"/>
</clipPath>
<clipPath id="clip-28">
<rect x="547.73" y="424.00" width="352.27" height="280.00"/>
</clipPath>
<clipPath id="clip-29">
<rect x="547.73" y="424.00" width="352.27" height="280.00"/>
</clipPath>
<clipPath id="clip-30">
<rect x="547.73" y="424.00" width="352.27" height="280.00"/>
</clipPath>
<clipPath id="clip-31">
<rect x="547.73" y="424.00" width="352.27" height="280.00"/>
</clipPath>
<clipPath id="clip-32">
<rect x="547.73" y="424.00" width="352.27" height="280.00"/>
</clipPath>
<clipPath id="clip-33">
<rect x="547.73" y="424.00" width="352.27" height="280.00"/>
</clipPath>
<clipPath id="clip-34">
<rect x="547.73" y="424.00" width="352.27" height="280.00"/>
</clipPath>
<clipPath id="clip-35">
<rect x="547.73" y="424.00" width="352.27" height="280.00"/>
</clipPath>
<clipPath id="clip-36">
<rect x="547.73" y="424.00" width="352.27" height="280.00"/>
</clipPath>
<clipPath id="clip-37">
<rect x="547.73" y="424.00" width="352.27" height="280.00"/>
</clipPath>
<clipPath id="clip-38">
<rect x="547.73" y="424.00" width="352.27" height="280.00"/>
</clipPath>
<clipPath id="clip-39">
<rect x="125.00" y="424.00" width="352.27" height="280.00"/>
</clipPath>
<clipPath id="clip-40">
<rect x="125.00" y="424.00" width="352.27" height="280.00"/>
</clipPath>
<clipPath id="clip-41">
<rect x="125.00" y="424.00" width="352.27" height="280.00"/>
</clipPath>
<clipPath id="clip-42">
<rect x="125.00" y="424.00" width="352.27" height="280.00"/>
</clipPath>
<clipPath id="clip-43">
<rect x="125.00" y="424.00" width="352.27" height="280.00"/>
</clipPath>
<clipPath id="clip-44">
<rect x="125.00" y="424.00" width="352.27" height="280.00"/>
</clipPath>
<clipPath id="clip-45">
<rect x="125.00" y="424.00" width="352.27" height="280.00"/>
</clipPath>
<clipPath id="clip-46">
<rect x="125.00" y="424.00" width="352.27" height="280.00"/>
</clipPath>
<clipPath id="clip-47">
<rect x="125.00" y="424.00" width="352.27" height="280.00"/>
</clipPath>
<clipPath id="clip-48">
<rect x="125.00" y="424.00" width="352.27" height="280.00"/>
</clipPath>
<clipPath id="clip-49">
<rect x="125.00" y="424.00" width="352.27" height="280.00"/>
</clipPath>
<clipPath id="clip-50">
<rect x="125.00" y="424.00" width="352.27" height="280.00"/>
</clipPath>
<clipPath id="clip-51">
<rect x="125.00" y="424.00" width="352.27" height="280.00"/>
</clipPath>
<clipPath id="clip-52">
<rect x="125.00" y="424.00" width="352.27" height="280.00"/>
</clipPath>
<clipPath id="clip-53">
<rect x="125.00" y="424.00" width="352.27" height="280.00"/>
</clipPath>
</defs>
<g transform="translate(0,800) scale(1,-1)">
<rect width="1000" height="800" fill="white"/>
<path d="M 0.00 0.00 L 1000.00 0.00 L 1000.00 800.00 L 0.00 800.00 L 0.00 0.00 Z " fill="#FFFFFF" fill-opacity="1.00" stroke="#000000" stroke-opacity="1.00" stroke-width="0.00" stroke-linecap="butt" stroke-linejoin="miter"/>
<path d="M 547.73 88.00 L 900.00 88.00 L 900.00 368.00 L 547.73 368.00 L 547.73 88.00 Z " fill="#FFFFFF" fill-opacity="1.00" stroke="none" stroke-opacity="0.00" stroke-width="0.00" stroke-linecap="butt" stroke-linejoin="miter"/>
<path d="M 564.50 88.00 L 564.50 368.00 " fill="none" fill-opacity="0.00" stroke="#B0B0B0" stroke-opacity="1.00" stroke-width="0.80" stroke-linecap="butt" stroke-linejoin="miter" clip-path="url(#clip-1)"/>
<path d="M 629.50 88.00 L 629.50 368.00 " fill="none" fill-opacity="0.00" stroke="#B0B0B0" stroke-opacity="1.00" stroke-width="0.80" stroke-linecap="butt" stroke-linejoin="miter" clip-path="url(#clip-2)"/>
<path d="M 694.50 88.00 L 694.50 368.00 " fill="none" fill-opacity="0.00" stroke="#B0B0B0" stroke-opacity="1.00" stroke-width="0.80" stroke-linecap="butt" stroke-linejoin="miter" clip-path="url(#clip-3)"/>
<path d="M 760.50 88.00 L 760.50 368.00 " fill="none" fill-opacity="0.00" stroke="#B0B0B0" stroke-opacity="1.00" stroke-width="0.80" stroke-linecap="butt" stroke-linejoin="miter" clip-path="url(#clip-4)"/>
<path d="M 825.50 88.00 L 825.50 368.00 " fill="none" fill-opacity="0.00" stroke="#B0B0B0" stroke-opacity="1.00" stroke-width="0.80" stroke-linecap="butt" stroke-linejoin="miter" clip-path="url(#clip-5)"/>
<path d="M 891.50 88.00 L 891.50 368.00 " fill="none" fill-opacity="0.00" stroke="#B0B0B0" stroke-opacity="1.00" stroke-width="0.80" stroke-linecap="butt" stroke-linejoin="miter" clip-path="url(#clip-6)"/>
<path d="M 547.73 100.50 L 900.00 100.50 " fill="none" fill-opacity="0.00" stroke="#B0B0B0" stroke-opacity="1.00" stroke-width="0.80" stroke-linecap="butt" stroke-linejoin="miter" clip-path="url(#clip-7)"/>
<path d="M 547.73 151.50 L 900.00 151.50 " fill="none" fill-opacity="0.00" stroke="#B0B0B0" stroke-opacity="1.00" stroke-width="0.80" stroke-linecap="butt" stroke-linejoin="miter" clip-path="url(#clip-8)"/>
<path d="M 547.73 202.50 L 900.00 202.50 " fill="none" fill-opacity="0.00" stroke="#B0B0B0" stroke-opacity="1.00" stroke-width="0.80" stroke-linecap="butt" stroke-linejoin="miter" clip-path="url(#clip-9)"/>
<path d="M 547.73 253.50 L 900.00 253.50 " fill="none" fill-opacity="0.00" stroke="#B0B0B0" stroke-opacity="1.00" stroke-width="0.80" stroke-linecap="butt" stroke-linejoin="miter" clip-path="url(#clip-10)"/>
<path d="M 547.73 304.50 L 900.00 304.50 " fill="none" fill-opacity="0.00" stroke="#B0B0B0" stroke-opacity="1.00" stroke-width="0.80" stroke-linecap="butt" stroke-linejoin="miter" clip-path="url(#clip-11)"/>
<path d="M 547.73 354.50 L 900.00 354.50 " fill="none" fill-opacity="0.00" stroke="#B0B0B0" stroke-opacity="1.00" stroke-width="0.80" stroke-linecap="butt" stroke-linejoin="miter" clip-path="url(#clip-12)"/>
<path d="M 563.74 100.73 L 570.28 110.78 L 576.81 139.36 L 583.35 181.95 L 589.88 231.83 L 596.42 281.12 L 602.95 322.04 L 609.49 348.13 L 616.03 355.27 L 622.56 342.34 L 629.10 311.37 L 635.63 267.26 L 642.17 216.96 L 648.70 168.43 L 655.24 129.32 L 661.77 105.80 L 668.31 101.60 L 674.85 117.36 L 681.38 150.62 L 687.92 196.10 L 694.45 246.64 L 700.99 294.26 L 707.52 331.43 L 714.06 352.29 L 720.60 353.54 L 727.13 334.99 L 733.67 299.57 L 740.20 252.86 L 746.74 202.25 L 753.27 155.72 L 759.81 120.62 L 766.35 102.49 L 772.88 104.19 L 779.42 125.45 L 785.95 162.93 L 792.49 210.69 L 799.02 261.20 L 805.56 306.49 L 812.10 339.41 L 818.63 354.75 L 825.17 350.10 L 831.70 326.19 L 838.24 286.79 L 844.77 238.13 L 851.31 187.89 L 857.84 144.00 L 864.38 113.38 L 870.92 100.88 L 877.45 108.47 L 883.99 134.94 " fill="none" fill-opacity="0.00" stroke="#9932CC" stroke-opacity="1.00" stroke-width="1.50" stroke-linecap="square" stroke-linejoin="round"/>
<path d="M 564.50 88.00 L 564.50 83.14 " fill="none" fill-opacity="0.00" stroke="#000000" stroke-opacity="1.00" stroke-width="0.80" stroke-linecap="butt" stroke-linejoin="miter"/>
<text font-family="DejaVu Sans" font-size="13.89" fill="#000000" fill-opacity="1.00" text-anchor="middle" dominant-baseline="text-before-edge" transform="translate(563.74,78.28) scale(1,-1)">0</text>
<path d="M 629.50 88.00 L 629.50 83.14 " fill="none" fill-opacity="0.00" stroke="#000000" stroke-opacity="1.00" stroke-width="0.80" stroke-linecap="butt" stroke-linejoin="miter"/>
<text font-family="DejaVu Sans" font-size="13.89" fill="#000000" fill-opacity="1.00" text-anchor="middle" dominant-baseline="text-before-edge" transform="translate(629.10,78.28) scale(1,-1)">2</text>
<path d="M 694.50 88.00 L 694.50 83.14 " fill="none" fill-opacity="0.00" stroke="#000000" stroke-opacity="1.00" stroke-width="0.80" stroke-linecap="butt" stroke-linejoin="miter"/>
<text font-family="DejaVu Sans" font-size="13.89" fill="#000000" fill-opacity="1.00" text-anchor="middle" dominant-baseline="text-before-edge" transform="translate(694.45,78.28) scale(1,-1)">4</text>
<path d="M 760.50 88.00 L 760.50 83.14 " fill="none" fill-opacity="0.00" stroke="#000000" stroke-opacity="1.00" stroke-width="0.80" stroke-linecap="butt" stroke-linejoin="miter"/>
<text font-family="DejaVu Sans" font-size="13.89" fill="#000000" fill-opacity="1.00" text-anchor="middle" dominant-baseline="text-before-edge" transform="translate(759.81,78.28) scale(1,-1)">6</text>
<path d="M 825.50 88.00 L 825.50 83.14 " fill="none" fill-opacity="0.00" stroke="#000000" stroke-opacity="1.00" stroke-width="0.80" stroke-linecap="butt" stroke-linejoin="miter"/>
<text font-family="DejaVu Sans" font-size="13.89" fill="#000000" fill-opacity="1.00" text-anchor="middle" dominant-baseline="text-before-edge" transform="translate(825.17,78.28) scale(1,-1)">8</text>
<path d="M 891.50 88.00 L 891.50 83.14 " fill="none" fill-opacity="0.00" stroke="#000000" stroke-opacity="1.00" stroke-width="0.80" stroke-linecap="butt" stroke-linejoin="miter"/>
<text font-family="DejaVu Sans" font-size="13.89" fill="#000000" fill-opacity="1.00" text-anchor="middle" dominant-baseline="text-before-edge" transform="translate(890.52,78.28) scale(1,-1)">10</text>
<path d="M 547.73 100.50 L 542.87 100.50 " fill="none" fill-opacity="0.00" stroke="#000000" stroke-opacity="1.00" stroke-width="0.80" stroke-linecap="butt" stroke-linejoin="miter"/>
<text font-family="DejaVu Sans" font-size="13.89" fill="#000000" fill-opacity="1.00" text-anchor="end" dominant-baseline="central" transform="translate(538.01,100.73) scale(1,-1)">0.0</text>
<path d="M 547.73 151.50 L 542.87 151.50 " fill="none" fill-opacity="0.00" stroke="#000000" stroke-opacity="1.00" stroke-width="0.80" stroke-linecap="butt" stroke-linejoin="miter"/>
<text font-family="DejaVu Sans" font-size="13.89" fill="#000000" fill-opacity="1.00" text-anchor="end" dominant-baseline="central" transform="translate(538.01,151.68) scale(1,-1)">0.2</text>
<path d="M 547.73 202.50 L 542.87 202.50 " fill="none" fill-opacity="0.00" stroke="#000000" stroke-opacity="1.00" stroke-width="0.80" stroke-linecap="butt" stroke-linejoin="miter"/>
<text font-family="DejaVu Sans" font-size="13.89" fill="#000000" fill-opacity="1.00" text-anchor="end" dominant-baseline="central" transform="translate(538.01,202.63) scale(1,-1)">0.4</text>
<path d="M 547.73 253.50 L 542.87 253.50 " fill="none" fill-opacity="0.00" stroke="#000000" stroke-opacity="1.00" stroke-width="0.80" stroke-linecap="butt" stroke-linejoin="miter"/>
<text font-family="DejaVu Sans" font-size="13.89" fill="#000000" fill-opacity="1.00" text-anchor="end" dominant-baseline="central" transform="translate(538.01,253.58) scale(1,-1)">0.6</text>
<path d="M 547.73 304.50 L 542.87 304.50 " fill="none" fill-opacity="0.00" stroke="#000000" stroke-opacity="1.00" stroke-width="0.80" stroke-linecap="butt" stroke-linejoin="miter"/>
<text font-family="DejaVu Sans" font-size="13.89" fill="#000000" fill-opacity="1.00" text-anchor="end" dominant-baseline="central" transform="translate(538.01,304.54) scale(1,-1)">0.8</text>
<path d="M 547.73 354.50 L 542.87 354.50 " fill="none" fill-opacity="0.00" stroke="#000000" stroke-opacity="1.00" stroke-width="0.80" stroke-linecap="butt" stroke-linejoin="miter"/>
<text font-family="DejaVu Sans" font-size="13.89" fill="#000000" fill-opacity="1.00" text-anchor="end" dominant-baseline="central" transform="translate(538.01,355.49) scale(1,-1)">1.0</text>
<path d="M 547.50 88.00 L 547.50 368.00 " fill="none" fill-opacity="0.00" stroke="#000000" stroke-opacity="1.00" stroke-width="0.80" stroke-linecap="square" stroke-linejoin="miter"/>
<path d="M 900.50 88.00 L 900.50 368.00 " fill="none" fill-opacity="0.00" stroke="#000000" stroke-opacity="1.00" stroke-width="0.80" stroke-linecap="square" stroke-linejoin="miter"/>
<path d="M 547.73 87.50 L 900.00 87.50 " fill="none" fill-opacity="0.00" stroke="#000000" stroke-opacity="1.00" stroke-width="0.80" stroke-linecap="square" stroke-linejoin="miter"/>
<path d="M 547.73 367.50 L 900.00 367.50 " fill="none" fill-opacity="0.00" stroke="#000000" stroke-opacity="1.00" stroke-width="0.80" stroke-linecap="square" stroke-linejoin="miter"/>
<path d="M 125.00 88.00 L 477.27 88.00 L 477.27 368.00 L 125.00 368.00 L 125.00 88.00 Z " fill="#FFFFFF" fill-opacity="1.00" stroke="none" stroke-opacity="0.00" stroke-width="0.00" stroke-linecap="butt" stroke-linejoin="miter"/>
<path d="M 141.50 88.00 L 141.50 368.00 " fill="none" fill-opacity="0.00" stroke="#B0B0B0" stroke-opacity="1.00" stroke-width="0.80" stroke-linecap="butt" stroke-linejoin="miter" clip-path="url(#clip-13)"/>
<path d="M 206.50 88.00 L 206.50 368.00 " fill="none" fill-opacity="0.00" stroke="#B0B0B0" stroke-opacity="1.00" stroke-width="0.80" stroke-linecap="butt" stroke-linejoin="miter" clip-path="url(#clip-14)"/>
<path d="M 272.50 88.00 L 272.50 368.00 " fill="none" fill-opacity="0.00" stroke="#B0B0B0" stroke-opacity="1.00" stroke-width="0.80" stroke-linecap="butt" stroke-linejoin="miter" clip-path="url(#clip-15)"/>
<path d="M 337.50 88.00 L 337.50 368.00 " fill="none" fill-opacity="0.00" stroke="#B0B0B0" stroke-opacity="1.00" stroke-width="0.80" stroke-linecap="butt" stroke-linejoin="miter" clip-path="url(#clip-16)"/>
<path d="M 402.50 88.00 L 402.50 368.00 " fill="none" fill-opacity="0.00" stroke="#B0B0B0" stroke-opacity="1.00" stroke-width="0.80" stroke-linecap="butt" stroke-linejoin="miter" clip-path="url(#clip-17)"/>
<path d="M 468.50 88.00 L 468.50 368.00 " fill="none" fill-opacity="0.00" stroke="#B0B0B0" stroke-opacity="1.00" stroke-width="0.80" stroke-linecap="butt" stroke-linejoin="miter" clip-path="url(#clip-18)"/>
<path d="M 125.00 125.50 L 477.27 125.50 " fill="none" fill-opacity="0.00" stroke="#B0B0B0" stroke-opacity="1.00" stroke-width="0.80" stroke-linecap="butt" stroke-linejoin="miter" clip-path="url(#clip-19)"/>
<path d="M 125.00 176.50 L 477.27 176.50 " fill="none" fill-opacity="0.00" stroke="#B0B0B0" stroke-opacity="1.00" stroke-width="0.80" stroke-linecap="butt" stroke-linejoin="miter" clip-path="url(#clip-20)"/>
<path d="M 125.00 227.50 L 477.27 227.50 " fill="none" fill-opacity="0.00" stroke="#B0B0B0" stroke-opacity="1.00" stroke-width="0.80" stroke-linecap="butt" stroke-linejoin="miter" clip-path="url(#clip-21)"/>
<path d="M 125.00 278.50 L 477.27 278.50 " fill="none" fill-opacity="0.00" stroke="#B0B0B0" stroke-opacity="1.00" stroke-width="0.80" stroke-linecap="butt" stroke-linejoin="miter" clip-path="url(#clip-22)"/>
<path d="M 125.00 329.50 L 477.27 329.50 " fill="none" fill-opacity="0.00" stroke="#B0B0B0" stroke-opacity="1.00" stroke-width="0.80" stroke-linecap="butt" stroke-linejoin="miter" clip-path="url(#clip-23)"/>
<path d="M 141.01 227.83 L 147.55 277.48 L 154.08 319.29 L 160.62 346.66 L 167.16 355.27 L 173.69 343.76 L 180.23 313.95 L 186.76 270.54 L 193.30 220.39 L 199.83 171.41 L 206.37 131.34 L 212.90 106.50 L 219.44 100.82 L 225.98 115.19 L 232.51 147.34 L 239.05 192.20 L 245.58 242.69 L 252.12 290.83 L 258.65 329.02 L 265.19 351.24 L 271.73 353.97 L 278.26 336.79 L 284.80 302.41 L 291.33 256.25 L 297.87 205.60 L 304.40 158.47 L 310.94 122.28 L 317.48 102.76 L 324.01 102.99 L 330.55 122.92 L 337.08 159.42 L 343.62 206.72 L 350.15 257.35 L 356.69 303.32 L 363.23 337.37 L 369.76 354.13 L 376.30 350.95 L 382.83 328.33 L 389.37 289.84 L 395.90 241.57 L 402.44 191.12 L 408.97 146.47 L 415.51 114.67 L 422.05 100.73 L 428.58 106.85 L 435.12 132.08 L 441.65 172.42 L 448.19 221.51 L 454.72 271.60 L 461.26 314.78 " fill="none" fill-opacity="0.00" stroke="#2E8B57" stroke-opacity="1.00" stroke-width="1.50" stroke-linecap="square" stroke-linejoin="round"/>
<path d="M 141.50 88.00 L 141.50 83.14 " fill="none" fill-opacity="0.00" stroke="#000000" stroke-opacity="1.00" stroke-width="0.80" stroke-linecap="butt" stroke-linejoin="miter"/>
<text font-family="DejaVu Sans" font-size="13.89" fill="#000000" fill-opacity="1.00" text-anchor="middle" dominant-baseline="text-before-edge" transform="translate(141.01,78.28) scale(1,-1)">0</text>
<path d="M 206.50 88.00 L 206.50 83.14 " fill="none" fill-opacity="0.00" stroke="#000000" stroke-opacity="1.00" stroke-width="0.80" stroke-linecap="butt" stroke-linejoin="miter"/>
<text font-family="DejaVu Sans" font-size="13.89" fill="#000000" fill-opacity="1.00" text-anchor="middle" dominant-baseline="text-before-edge" transform="translate(206.37,78.28) scale(1,-1)">2</text>
<path d="M 272.50 88.00 L 272.50 83.14 " fill="none" fill-opacity="0.00" stroke="#000000" stroke-opacity="1.00" stroke-width="0.80" stroke-linecap="butt" stroke-linejoin="miter"/>
<text font-family="DejaVu Sans" font-size="13.89" fill="#000000" fill-opacity="1.00" text-anchor="middle" dominant-baseline="text-before-edge" transform="translate(271.73,78.28) scale(1,-1)">4</text>
<path d="M 337.50 88.00 L 337.50 83.14 " fill="none" fill-opacity="0.00" stroke="#000000" stroke-opacity="1.00" stroke-width="0.80" stroke-linecap="butt" stroke-linejoin="miter"/>
<text font-family="DejaVu Sans" font-size="13.89" fill="#000000" fill-opacity="1.00" text-anchor="middle" dominant-baseline="text-before-edge" transform="translate(337.08,78.28) scale(1,-1)">6</text>
<path d="M 402.50 88.00 L 402.50 83.14 " fill="none" fill-opacity="0.00" stroke="#000000" stroke-opacity="1.00" stroke-width="0.80" stroke-linecap="butt" stroke-linejoin="miter"/>
<text font-family="DejaVu Sans" font-size="13.89" fill="#000000" fill-opacity="1.00" text-anchor="middle" dominant-baseline="text-before-edge" transform="translate(402.44,78.28) scale(1,-1)">8</text>
<path d="M 468.50 88.00 L 468.50 83.14 " fill="none" fill-opacity="0.00" stroke="#000000" stroke-opacity="1.00" stroke-width="0.80" stroke-linecap="butt" stroke-linejoin="miter"/>
<text font-family="DejaVu Sans" font-size="13.89" fill="#000000" fill-opacity="1.00" text-anchor="middle" dominant-baseline="text-before-edge" transform="translate(467.80,78.28) scale(1,-1)">10</text>
<path d="M 125.00 125.50 L 120.14 125.50 " fill="none" fill-opacity="0.00" stroke="#000000" stroke-opacity="1.00" stroke-width="0.80" stroke-linecap="butt" stroke-linejoin="miter"/>
<text font-family="DejaVu Sans" font-size="13.89" fill="#000000" fill-opacity="1.00" text-anchor="end" dominant-baseline="central" transform="translate(115.28,125.83) scale(1,-1)">-0.4</text>
<path d="M 125.00 176.50 L 120.14 176.50 " fill="none" fill-opacity="0.00" stroke="#000000" stroke-opacity="1.00" stroke-width="0.80" stroke-linecap="butt" stroke-linejoin="miter"/>
<text font-family="DejaVu Sans" font-size="13.89" fill="#000000" fill-opacity="1.00" text-anchor="end" dominant-baseline="central" transform="translate(115.28,176.83) scale(1,-1)">-0.2</text>
<path d="M 125.00 227.50 L 120.14 227.50 " fill="none" fill-opacity="0.00" stroke="#000000" stroke-opacity="1.00" stroke-width="0.80" stroke-linecap="butt" stroke-linejoin="miter"/>
<text font-family="DejaVu Sans" font-size="13.89" fill="#000000" fill-opacity="1.00" text-anchor="end" dominant-baseline="central" transform="translate(115.28,227.83) scale(1,-1)">0.0</text>
<path d="M 125.00 278.50 L 120.14 278.50 " fill="none" fill-opacity="0.00" stroke="#000000" stroke-opacity="1.00" stroke-width="0.80" stroke-linecap="butt" stroke-linejoin="miter"/>
<text font-family="DejaVu Sans" font-size="13.89" fill="#000000" fill-opacity="1.00" text-anchor="end" dominant-baseline="central" transform="translate(115.28,278.83) scale(1,-1)">0.2</text>
<path d="M 125.00 329.50 L 120.14 329.50 " fill="none" fill-opacity="0.00" stroke="#000000" stroke-opacity="1.00" stroke-width="0.80" stroke-linecap="butt" stroke-linejoin="miter"/>
<text font-family="DejaVu Sans" font-size="13.89" fill="#000000" fill-opacity="1.00" text-anchor="end" dominant-baseline="central" transform="translate(115.28,329.83) scale(1,-1)">0.4</text>
<path d="M 125.50 88.00 L 125.50 368.00 " fill="none" fill-opacity="0.00" stroke="#000000" stroke-opacity="1.00" stroke-width="0.80" stroke-linecap="square" stroke-linejoin="miter"/>
<path d="M 477.50 88.00 L 477.50 368.00 " fill="none" fill-opacity="0.00" stroke="#000000" stroke-opacity="1.00" stroke-width="0.80" stroke-linecap="square" stroke-linejoin="miter"/>
<path d="M 125.00 87.50 L 477.27 87.50 " fill="none" fill-opacity="0.00" stroke="#000000" stroke-opacity="1.00" stroke-width="0.80" stroke-linecap="square" stroke-linejoin="miter"/>
<path d="M 125.00 367.50 L 477.27 367.50 " fill="none" fill-opacity="0.00" stroke="#000000" stroke-opacity="1.00" stroke-width="0.80" stroke-linecap="square" stroke-linejoin="miter"/>
<path d="M 547.73 424.00 L 900.00 424.00 L 900.00 704.00 L 547.73 704.00 L 547.73 424.00 Z " fill="#FFFFFF" fill-opacity="1.00" stroke="none" stroke-opacity="0.00" stroke-width="0.00" stroke-linecap="butt" stroke-linejoin="miter"/>
<path d="M 564.50 424.00 L 564.50 704.00 " fill="none" fill-opacity="0.00" stroke="#B0B0B0" stroke-opacity="1.00" stroke-width="0.80" stroke-linecap="butt" stroke-linejoin="miter" clip-path="url(#clip-24)"/>
<path d="M 629.50 424.00 L 629.50 704.00 " fill="none" fill-opacity="0.00" stroke="#B0B0B0" stroke-opacity="1.00" stroke-width="0.80" stroke-linecap="butt" stroke-linejoin="miter" clip-path="url(#clip-25)"/>
<path d="M 694.50 424.00 L 694.50 704.00 " fill="none" fill-opacity="0.00" stroke="#B0B0B0" stroke-opacity="1.00" stroke-width="0.80" stroke-linecap="butt" stroke-linejoin="miter" clip-path="url(#clip-26)"/>
<path d="M 760.50 424.00 L 760.50 704.00 " fill="none" fill-opacity="0.00" stroke="#B0B0B0" stroke-opacity="1.00" stroke-width="0.80" stroke-linecap="butt" stroke-linejoin="miter" clip-path="url(#clip-27)"/>
<path d="M 825.50 424.00 L 825.50 704.00 " fill="none" fill-opacity="0.00" stroke="#B0B0B0" stroke-opacity="1.00" stroke-width="0.80" stroke-linecap="butt" stroke-linejoin="miter" clip-path="url(#clip-28)"/>
<path d="M 891.50 424.00 L 891.50 704.00 " fill="none" fill-opacity="0.00" stroke="#B0B0B0" stroke-opacity="1.00" stroke-width="0.80" stroke-linecap="butt" stroke-linejoin="miter" clip-path="url(#clip-29)"/>
<path d="M 547.73 436.50 L 900.00 436.50 " fill="none" fill-opacity="0.00" stroke="#B0B0B0" stroke-opacity="1.00" stroke-width="0.80" stroke-linecap="butt" stroke-linejoin="miter" clip-path="url(#clip-30)"/>
<path d="M 547.73 468.50 L 900.00 468.50 " fill="none" fill-opacity="0.00" stroke="#B0B0B0" stroke-opacity="1.00" stroke-width="0.80" stroke-linecap="butt" stroke-linejoin="miter" clip-path="url(#clip-31)"/>
<path d="M 547.73 499.50 L 900.00 499.50 " fill="none" fill-opacity="0.00" stroke="#B0B0B0" stroke-opacity="1.00" stroke-width="0.80" stroke-linecap="butt" stroke-linejoin="miter" clip-path="url(#clip-32)"/>
<path d="M 547.73 531.50 L 900.00 531.50 " fill="none" fill-opacity="0.00" stroke="#B0B0B0" stroke-opacity="1.00" stroke-width="0.80" stroke-linecap="butt" stroke-linejoin="miter" clip-path="url(#clip-33)"/>
<path d="M 547.73 563.50 L 900.00 563.50 " fill="none" fill-opacity="0.00" stroke="#B0B0B0" stroke-opacity="1.00" stroke-width="0.80" stroke-linecap="butt" stroke-linejoin="miter" clip-path="url(#clip-34)"/>
<path d="M 547.73 595.50 L 900.00 595.50 " fill="none" fill-opacity="0.00" stroke="#B0B0B0" stroke-opacity="1.00" stroke-width="0.80" stroke-linecap="butt" stroke-linejoin="miter" clip-path="url(#clip-35)"/>
<path d="M 547.73 627.50 L 900.00 627.50 " fill="none" fill-opacity="0.00" stroke="#B0B0B0" stroke-opacity="1.00" stroke-width="0.80" stroke-linecap="butt" stroke-linejoin="miter" clip-path="url(#clip-36)"/>
<path d="M 547.73 658.50 L 900.00 658.50 " fill="none" fill-opacity="0.00" stroke="#B0B0B0" stroke-opacity="1.00" stroke-width="0.80" stroke-linecap="butt" stroke-linejoin="miter" clip-path="url(#clip-37)"/>
<path d="M 547.73 690.50 L 900.00 690.50 " fill="none" fill-opacity="0.00" stroke="#B0B0B0" stroke-opacity="1.00" stroke-width="0.80" stroke-linecap="butt" stroke-linejoin="miter" clip-path="url(#clip-38)"/>
<path d="M 563.74 691.27 L 570.28 688.74 L 576.81 681.22 L 583.35 669.04 L 589.88 652.67 L 596.42 632.76 L 602.95 610.11 L 609.49 585.62 L 616.03 560.26 L 622.56 535.06 L 629.10 511.01 L 635.63 489.07 L 642.17 470.12 L 648.70 454.91 L 655.24 444.04 L 661.77 437.96 L 668.31 436.91 L 674.85 440.91 L 681.38 449.83 L 687.92 463.30 L 694.45 480.78 L 700.99 501.57 L 707.52 524.86 L 714.06 549.70 L 720.60 575.12 L 727.13 600.09 L 733.67 623.62 L 740.20 644.77 L 746.74 662.70 L 753.27 676.70 L 759.81 686.20 L 766.35 690.83 L 772.88 690.41 L 779.42 684.94 L 785.95 674.65 L 792.49 659.95 L 799.02 641.42 L 805.56 619.80 L 812.10 595.96 L 818.63 570.85 L 825.17 545.46 L 831.70 520.81 L 838.24 497.88 L 844.77 477.58 L 851.31 460.73 L 857.84 448.00 L 864.38 439.89 L 870.92 436.73 L 877.45 438.64 L 883.99 445.54 " fill="none" fill-opacity="0.00" stroke="#FF6347" stroke-opacity="1.00" stroke-width="1.50" stroke-linecap="square" stroke-linejoin="round"/>
<path d="M 564.50 424.00 L 564.50 419.14 " fill="none" fill-opacity="0.00" stroke="#000000" stroke-opacity="1.00" stroke-width="0.80" stroke-linecap="butt" stroke-linejoin="miter"/>
<text font-family="DejaVu Sans" font-size="13.89" fill="#000000" fill-opacity="1.00" text-anchor="middle" dominant-baseline="text-before-edge" transform="translate(563.74,414.28) scale(1,-1)">0</text>
<path d="M 629.50 424.00 L 629.50 419.14 " fill="none" fill-opacity="0.00" stroke="#000000" stroke-opacity="1.00" stroke-width="0.80" stroke-linecap="butt" stroke-linejoin="miter"/>
<text font-family="DejaVu Sans" font-size="13.89" fill="#000000" fill-opacity="1.00" text-anchor="middle" dominant-baseline="text-before-edge" transform="translate(629.10,414.28) scale(1,-1)">2</text>
<path d="M 694.50 424.00 L 694.50 419.14 " fill="none" fill-opacity="0.00" stroke="#000000" stroke-opacity="1.00" stroke-width="0.80" stroke-linecap="butt" stroke-linejoin="miter"/>
<text font-family="DejaVu Sans" font-size="13.89" fill="#000000" fill-opacity="1.00" text-anchor="middle" dominant-baseline="text-before-edge" transform="translate(694.45,414.28) scale(1,-1)">4</text>
<path d="M 760.50 424.00 L 760.50 419.14 " fill="none" fill-opacity="0.00" stroke="#000000" stroke-opacity="1.00" stroke-width="0.80" stroke-linecap="butt" stroke-linejoin="miter"/>
<text font-family="DejaVu Sans" font-size="13.89" fill="#000000" fill-opacity="1.00" text-anchor="middle" dominant-baseline="text-before-edge" transform="translate(759.81,414.28) scale(1,-1)">6</text>
<path d="M 825.50 424.00 L 825.50 419.14 " fill="none" fill-opacity="0.00" stroke="#000000" stroke-opacity="1.00" stroke-width="0.80" stroke-linecap="butt" stroke-linejoin="miter"/>
<text font-family="DejaVu Sans" font-size="13.89" fill="#000000" fill-opacity="1.00" text-anchor="middle" dominant-baseline="text-before-edge" transform="translate(825.17,414.28) scale(1,-1)">8</text>
<path d="M 891.50 424.00 L 891.50 419.14 " fill="none" fill-opacity="0.00" stroke="#000000" stroke-opacity="1.00" stroke-width="0.80" stroke-linecap="butt" stroke-linejoin="miter"/>
<text font-family="DejaVu Sans" font-size="13.89" fill="#000000" fill-opacity="1.00" text-anchor="middle" dominant-baseline="text-before-edge" transform="translate(890.52,414.28) scale(1,-1)">10</text>
<path d="M 547.73 436.50 L 542.87 436.50 " fill="none" fill-opacity="0.00" stroke="#000000" stroke-opacity="1.00" stroke-width="0.80" stroke-linecap="butt" stroke-linejoin="miter"/>
<text font-family="DejaVu Sans" font-size="13.89" fill="#000000" fill-opacity="1.00" text-anchor="end" dominant-baseline="central" transform="translate(538.01,436.69) scale(1,-1)">-1.00</text>
<path d="M 547.73 468.50 L 542.87 468.50 " fill="none" fill-opacity="0.00" stroke="#000000" stroke-opacity="1.00" stroke-width="0.80" stroke-linecap="butt" stroke-linejoin="miter"/>
<text font-family="DejaVu Sans" font-size="13.89" fill="#000000" fill-opacity="1.00" text-anchor="end" dominant-baseline="central" transform="translate(538.01,468.51) scale(1,-1)">-0.75</text>
<path d="M 547.73 499.50 L 542.87 499.50 " fill="none" fill-opacity="0.00" stroke="#000000" stroke-opacity="1.00" stroke-width="0.80" stroke-linecap="butt" stroke-linejoin="miter"/>
<text font-family="DejaVu Sans" font-size="13.89" fill="#000000" fill-opacity="1.00" text-anchor="end" dominant-baseline="central" transform="translate(538.01,500.33) scale(1,-1)">-0.50</text>
<path d="M 547.73 531.50 L 542.87 531.50 " fill="none" fill-opacity="0.00" stroke="#000000" stroke-opacity="1.00" stroke-width="0.80" stroke-linecap="butt" stroke-linejoin="miter"/>
<text font-family="DejaVu Sans" font-size="13.89" fill="#000000" fill-opacity="1.00" text-anchor="end" dominant-baseline="central" transform="translate(538.01,532.16) scale(1,-1)">-0.25</text>
<path d="M 547.73 563.50 L 542.87 563.50 " fill="none" fill-opacity="0.00" stroke="#000000" stroke-opacity="1.00" stroke-width="0.80" stroke-linecap="butt" stroke-linejoin="miter"/>
<text font-family="DejaVu Sans" font-size="13.89" fill="#000000" fill-opacity="1.00" text-anchor="end" dominant-baseline="central" transform="translate(538.01,563.98) scale(1,-1)">0.00</text>
<path d="M 547.73 595.50 L 542.87 595.50 " fill="none" fill-opacity="0.00" stroke="#000000" stroke-opacity="1.00" stroke-width="0.80" stroke-linecap="butt" stroke-linejoin="miter"/>
<text font-family="DejaVu Sans" font-size="13.89" fill="#000000" fill-opacity="1.00" text-anchor="end" dominant-baseline="central" transform="translate(538.01,595.80) scale(1,-1)">0.25</text>
<path d="M 547.73 627.50 L 542.87 627.50 " fill="none" fill-opacity="0.00" stroke="#000000" stroke-opacity="1.00" stroke-width="0.80" stroke-linecap="butt" stroke-linejoin="miter"/>
<text font-family="DejaVu Sans" font-size="13.89" fill="#000000" fill-opacity="1.00" text-anchor="end" dominant-baseline="central" transform="translate(538.01,627.63) scale(1,-1)">0.50</text>
<path d="M 547.73 658.50 L 542.87 658.50 " fill="none" fill-opacity="0.00" stroke="#000000" stroke-opacity="1.00" stroke-width="0.80" stroke-linecap="butt" stroke-linejoin="miter"/>
<text font-family="DejaVu Sans" font-size="13.89" fill="#000000" fill-opacity="1.00" text-anchor="end" dominant-baseline="central" transform="translate(538.01,659.45) scale(1,-1)">0.75</text>
<path d="M 547.73 690.50 L 542.87 690.50 " fill="none" fill-opacity="0.00" stroke="#000000" stroke-opacity="1.00" stroke-width="0.80" stroke-linecap="butt" stroke-linejoin="miter"/>
<text font-family="DejaVu Sans" font-size="13.89" fill="#000000" fill-opacity="1.00" text-anchor="end" dominant-baseline="central" transform="translate(538.01,691.27) scale(1,-1)">1.00</text>
<path d="M 547.50 424.00 L 547.50 704.00 " fill="none" fill-opacity="0.00" stroke="#000000" stroke-opacity="1.00" stroke-width="0.80" stroke-linecap="square" stroke-linejoin="miter"/>
<path d="M 900.50 424.00 L 900.50 704.00 " fill="none" fill-opacity="0.00" stroke="#000000" stroke-opacity="1.00" stroke-width="0.80" stroke-linecap="square" stroke-linejoin="miter"/>
<path d="M 547.73 423.50 L 900.00 423.50 " fill="none" fill-opacity="0.00" stroke="#000000" stroke-opacity="1.00" stroke-width="0.80" stroke-linecap="square" stroke-linejoin="miter"/>
<path d="M 547.73 703.50 L 900.00 703.50 " fill="none" fill-opacity="0.00" stroke="#000000" stroke-opacity="1.00" stroke-width="0.80" stroke-linecap="square" stroke-linejoin="miter"/>
<path d="M 125.00 424.00 L 477.27 424.00 L 477.27 704.00 L 125.00 704.00 L 125.00 424.00 Z " fill="#FFFFFF" fill-opacity="1.00" stroke="none" stroke-opacity="0.00" stroke-width="0.00" stroke-linecap="butt" stroke-linejoin="miter"/>
<path d="M 141.50 424.00 L 141.50 704.00 " fill="none" fill-opacity="0.00" stroke="#B0B0B0" stroke-opacity="1.00" stroke-width="0.80" stroke-linecap="butt" stroke-linejoin="miter" clip-path="url(#clip-39)"/>
<path d="M 206.50 424.00 L 206.50 704.00 " fill="none" fill-opacity="0.00" stroke="#B0B0B0" stroke-opacity="1.00" stroke-width="0.80" stroke-linecap="butt" stroke-linejoin="miter" clip-path="url(#clip-40)"/>
<path d="M 272.50 424.00 L 272.50 704.00 " fill="none" fill-opacity="0.00" stroke="#B0B0B0" stroke-opacity="1.00" stroke-width="0.80" stroke-linecap="butt" stroke-linejoin="miter" clip-path="url(#clip-41)"/>
<path d="M 337.50 424.00 L 337.50 704.00 " fill="none" fill-opacity="0.00" stroke="#B0B0B0" stroke-opacity="1.00" stroke-width="0.80" stroke-linecap="butt" stroke-linejoin="miter" clip-path="url(#clip-42)"/>
<path d="M 402.50 424.00 L 402.50 704.00 " fill="none" fill-opacity="0.00" stroke="#B0B0B0" stroke-opacity="1.00" stroke-width="0.80" stroke-linecap="butt" stroke-linejoin="miter" clip-path="url(#clip-43)"/>
<path d="M 468.50 424.00 L 468.50 704.00 " fill="none" fill-opacity="0.00" stroke="#B0B0B0" stroke-opacity="1.00" stroke-width="0.80" stroke-linecap="butt" stroke-linejoin="miter" clip-path="url(#clip-44)"/>
<path d="M 125.00 435.50 L 477.27 435.50 " fill="none" fill-opacity="0.00" stroke="#B0B0B0" stroke-opacity="1.00" stroke-width="0.80" stroke-linecap="butt" stroke-linejoin="miter" clip-path="url(#clip-45)"/>
<path d="M 125.00 467.50 L 477.27 467.50 " fill="none" fill-opacity="0.00" stroke="#B0B0B0" stroke-opacity="1.00" stroke-width="0.80" stroke-linecap="butt" stroke-linejoin="miter" clip-path="url(#clip-46)"/>
<path d="M 125.00 499.50 L 477.27 499.50 " fill="none" fill-opacity="0.00" stroke="#B0B0B0" stroke-opacity="1.00" stroke-width="0.80" stroke-linecap="butt" stroke-linejoin="miter" clip-path="url(#clip-47)"/>
<path d="M 125.00 531.50 L 477.27 531.50 " fill="none" fill-opacity="0.00" stroke="#B0B0B0" stroke-opacity="1.00" stroke-width="0.80" stroke-linecap="butt" stroke-linejoin="miter" clip-path="url(#clip-48)"/>
<path d="M 125.00 563.50 L 477.27 563.50 " fill="none" fill-opacity="0.00" stroke="#B0B0B0" stroke-opacity="1.00" stroke-width="0.80" stroke-linecap="butt" stroke-linejoin="miter" clip-path="url(#clip-49)"/>
<path d="M 125.00 595.50 L 477.27 595.50 " fill="none" fill-opacity="0.00" stroke="#B0B0B0" stroke-opacity="1.00" stroke-width="0.80" stroke-linecap="butt" stroke-linejoin="miter" clip-path="url(#clip-50)"/>
<path d="M 125.00 627.50 L 477.27 627.50 " fill="none" fill-opacity="0.00" stroke="#B0B0B0" stroke-opacity="1.00" stroke-width="0.80" stroke-linecap="butt" stroke-linejoin="miter" clip-path="url(#clip-51)"/>
<path d="M 125.00 658.50 L 477.27 658.50 " fill="none" fill-opacity="0.00" stroke="#B0B0B0" stroke-opacity="1.00" stroke-width="0.80" stroke-linecap="butt" stroke-linejoin="miter" clip-path="url(#clip-52)"/>
<path d="M 125.00 690.50 L 477.27 690.50 " fill="none" fill-opacity="0.00" stroke="#B0B0B0" stroke-opacity="1.00" stroke-width="0.80" stroke-linecap="butt" stroke-linejoin="miter" clip-path="url(#clip-53)"/>
<path d="M 141.01 563.78 L 147.55 589.12 L 154.08 613.45 L 160.62 635.80 L 167.16 655.28 L 173.69 671.11 L 180.23 682.66 L 186.76 689.47 L 193.30 691.27 L 199.83 687.99 L 206.37 679.76 L 212.90 666.90 L 219.44 649.93 L 225.98 629.53 L 232.51 606.51 L 239.05 581.78 L 245.58 556.34 L 252.12 531.19 L 258.65 507.34 L 265.19 485.74 L 271.73 467.26 L 278.26 452.62 L 284.80 442.41 L 291.33 437.04 L 297.87 436.73 L 304.40 441.48 L 310.94 451.10 L 317.48 465.22 L 324.01 483.27 L 330.55 504.53 L 337.08 528.14 L 343.62 553.19 L 350.15 578.65 L 356.69 603.52 L 363.23 626.80 L 369.76 647.58 L 376.30 665.01 L 382.83 678.41 L 389.37 687.24 L 395.90 691.14 L 402.44 689.97 L 408.97 683.77 L 415.51 672.78 L 422.05 657.45 L 428.58 638.39 L 435.12 616.35 L 441.65 592.21 L 448.19 566.94 L 454.72 541.55 L 461.26 517.04 " fill="none" fill-opacity="0.00" stroke="#4682B4" stroke-opacity="1.00" stroke-width="1.50" stroke-linecap="square" stroke-linejoin="round"/>
<path d="M 141.50 424.00 L 141.50 419.14 " fill="none" fill-opacity="0.00" stroke="#000000" stroke-opacity="1.00" stroke-width="0.80" stroke-linecap="butt" stroke-linejoin="miter"/>
<text font-family="DejaVu Sans" font-size="13.89" fill="#000000" fill-opacity="1.00" text-anchor="middle" dominant-baseline="text-before-edge" transform="translate(141.01,414.28) scale(1,-1)">0</text>
<path d="M 206.50 424.00 L 206.50 419.14 " fill="none" fill-opacity="0.00" stroke="#000000" stroke-opacity="1.00" stroke-width="0.80" stroke-linecap="butt" stroke-linejoin="miter"/>
<text font-family="DejaVu Sans" font-size="13.89" fill="#000000" fill-opacity="1.00" text-anchor="middle" dominant-baseline="text-before-edge" transform="translate(206.37,414.28) scale(1,-1)">2</text>
<path d="M 272.50 424.00 L 272.50 419.14 " fill="none" fill-opacity="0.00" stroke="#000000" stroke-opacity="1.00" stroke-width="0.80" stroke-linecap="butt" stroke-linejoin="miter"/>
<text font-family="DejaVu Sans" font-size="13.89" fill="#000000" fill-opacity="1.00" text-anchor="middle" dominant-baseline="text-before-edge" transform="translate(271.73,414.28) scale(1,-1)">4</text>
<path d="M 337.50 424.00 L 337.50 419.14 " fill="none" fill-opacity="0.00" stroke="#000000" stroke-opacity="1.00" stroke-width="0.80" stroke-linecap="butt" stroke-linejoin="miter"/>
<text font-family="DejaVu Sans" font-size="13.89" fill="#000000" fill-opacity="1.00" text-anchor="middle" dominant-baseline="text-before-edge" transform="translate(337.08,414.28) scale(1,-1)">6</text>
<path d="M 402.50 424.00 L 402.50 419.14 " fill="none" fill-opacity="0.00" stroke="#000000" stroke-opacity="1.00" stroke-width="0.80" stroke-linecap="butt" stroke-linejoin="miter"/>
<text font-family="DejaVu Sans" font-size="13.89" fill="#000000" fill-opacity="1.00" text-anchor="middle" dominant-baseline="text-before-edge" transform="translate(402.44,414.28) scale(1,-1)">8</text>
<path d="M 468.50 424.00 L 468.50 419.14 " fill="none" fill-opacity="0.00" stroke="#000000" stroke-opacity="1.00" stroke-width="0.80" stroke-linecap="butt" stroke-linejoin="miter"/>
<text font-family="DejaVu Sans" font-size="13.89" fill="#000000" fill-opacity="1.00" text-anchor="middle" dominant-baseline="text-before-edge" transform="translate(467.80,414.28) scale(1,-1)">10</text>
<path d="M 125.00 435.50 L 120.14 435.50 " fill="none" fill-opacity="0.00" stroke="#000000" stroke-opacity="1.00" stroke-width="0.80" stroke-linecap="butt" stroke-linejoin="miter"/>
<text font-family="DejaVu Sans" font-size="13.89" fill="#000000" fill-opacity="1.00" text-anchor="end" dominant-baseline="central" transform="translate(115.28,436.24) scale(1,-1)">-1.00</text>
<path d="M 125.00 467.50 L 120.14 467.50 " fill="none" fill-opacity="0.00" stroke="#000000" stroke-opacity="1.00" stroke-width="0.80" stroke-linecap="butt" stroke-linejoin="miter"/>
<text font-family="DejaVu Sans" font-size="13.89" fill="#000000" fill-opacity="1.00" text-anchor="end" dominant-baseline="central" transform="translate(115.28,468.12) scale(1,-1)">-0.75</text>
<path d="M 125.00 499.50 L 120.14 499.50 " fill="none" fill-opacity="0.00" stroke="#000000" stroke-opacity="1.00" stroke-width="0.80" stroke-linecap="butt" stroke-linejoin="miter"/>
<text font-family="DejaVu Sans" font-size="13.89" fill="#000000" fill-opacity="1.00" text-anchor="end" dominant-baseline="central" transform="translate(115.28,500.01) scale(1,-1)">-0.50</text>
<path d="M 125.00 531.50 L 120.14 531.50 " fill="none" fill-opacity="0.00" stroke="#000000" stroke-opacity="1.00" stroke-width="0.80" stroke-linecap="butt" stroke-linejoin="miter"/>
<text font-family="DejaVu Sans" font-size="13.89" fill="#000000" fill-opacity="1.00" text-anchor="end" dominant-baseline="central" transform="translate(115.28,531.90) scale(1,-1)">-0.25</text>
<path d="M 125.00 563.50 L 120.14 563.50 " fill="none" fill-opacity="0.00" stroke="#000000" stroke-opacity="1.00" stroke-width="0.80" stroke-linecap="butt" stroke-linejoin="miter"/>
<text font-family="DejaVu Sans" font-size="13.89" fill="#000000" fill-opacity="1.00" text-anchor="end" dominant-baseline="central" transform="translate(115.28,563.78) scale(1,-1)">0.00</text>
<path d="M 125.00 595.50 L 120.14 595.50 " fill="none" fill-opacity="0.00" stroke="#000000" stroke-opacity="1.00" stroke-width="0.80" stroke-linecap="butt" stroke-linejoin="miter"/>
<text font-family="DejaVu Sans" font-size="13.89" fill="#000000" fill-opacity="1.00" text-anchor="end" dominant-baseline="central" transform="translate(115.28,595.67) scale(1,-1)">0.25</text>
<path d="M 125.00 627.50 L 120.14 627.50 " fill="none" fill-opacity="0.00" stroke="#000000" stroke-opacity="1.00" stroke-width="0.80" stroke-linecap="butt" stroke-linejoin="miter"/>
<text font-family="DejaVu Sans" font-size="13.89" fill="#000000" fill-opacity="1.00" text-anchor="end" dominant-baseline="central" transform="translate(115.28,627.55) scale(1,-1)">0.50</text>
<path d="M 125.00 658.50 L 120.14 658.50 " fill="none" fill-opacity="0.00" stroke="#000000" stroke-opacity="1.00" stroke-width="0.80" stroke-linecap="butt" stroke-linejoin="miter"/>
<text font-family="DejaVu Sans" font-size="13.89" fill="#000000" fill-opacity="1.00" text-anchor="end" dominant-baseline="central" transform="translate(115.28,659.44) scale(1,-1)">0.75</text>
<path d="M 125.00 690.50 L 120.14 690.50 " fill="none" fill-opacity="0.00" stroke="#000000" stroke-opacity="1.00" stroke-width="0.80" stroke-linecap="butt" stroke-linejoin="miter"/>
<text font-family="DejaVu Sans" font-size="13.89" fill="#000000" fill-opacity="1.00" text-anchor="end" dominant-baseline="central" transform="translate(115.28,691.33) scale(1,-1)">1.00</text>
<path d="M 125.50 424.00 L 125.50 704.00 " fill="none" fill-opacity="0.00" stroke="#000000" stroke-opacity="1.00" stroke-width="0.80" stroke-linecap="square" stroke-linejoin="miter"/>
<path d="M 477.50 424.00 L 477.50 704.00 " fill="none" fill-opacity="0.00" stroke="#000000" stroke-opacity="1.00" stroke-width="0.80" stroke-linecap="square" stroke-linejoin="miter"/>
<path d="M 125.00 423.50 L 477.27 423.50 " fill="none" fill-opacity="0.00" stroke="#000000" stroke-opacity="1.00" stroke-width="0.80" stroke-linecap="square" stroke-linejoin="miter"/>
<path d="M 125.00 703.50 L 477.27 703.50 " fill="none" fill-opacity="0.00" stroke="#000000" stroke-opacity="1.00" stroke-width="0.80" stroke-linecap="square" stroke-linejoin="miter"/>
</g>
</svg>
