<?xml version="1.0" encoding="UTF-8"?>
<svg xmlns="http://www.w3.org/2000/svg"
     xmlns:xlink="http://www.w3.org/1999/xlink"
     width="1200" height="500" viewBox="0 0 1200 500">
<defs>
<clipPath id="clip-1">
<rect x="657.27" y="55.00" width="422.73" height="385.00"/>
</clipPath>
<clipPath id="clip-2">
<rect x="657.27" y="55.00" width="422.73" height="385.00"/>
</clipPath>
<clipPath id="clip-3">
<rect x="657.27" y="55.00" width="422.73" height="385.00"/>
</clipPath>
<clipPath id="clip-4">
<rect x="657.27" y="55.00" width="422.73" height="385.00"/>
</clipPath>
<clipPath id="clip-5">
<rect x="657.27" y="55.00" width="422.73" height="385.00"/>
</clipPath>
<clipPath id="clip-6">
<rect x="657.27" y="55.00" width="422.73" height="385.00"/>
</clipPath>
<clipPath id="clip-7">
<rect x="657.27" y="55.00" width="422.73" height="385.00"/>
</clipPath>
<clipPath id="clip-8">
<rect x="657.27" y="55.00" width="422.73" height="385.00"/>
</clipPath>
<clipPath id="clip-9">
<rect x="657.27" y="55.00" width="422.73" height="385.00"/>
</clipPath>
<clipPath id="clip-10">
<rect x="657.27" y="55.00" width="422.73" height="385.00"/>
</clipPath>
<clipPath id="clip-11">
<rect x="657.27" y="55.00" width="422.73" height="385.00"/>
</clipPath>
<clipPath id="clip-12">
<rect x="657.27" y="55.00" width="422.73" height="385.00"/>
</clipPath>
<clipPath id="clip-13">
<rect x="657.27" y="55.00" width="422.73" height="385.00"/>
</clipPath>
<clipPath id="clip-14">
<rect x="657.27" y="55.00" width="422.73" height="385.00"/>
</clipPath>
<clipPath id="clip-15">
<rect x="150.00" y="55.00" width="422.73" height="385.00"/>
</clipPath>
<clipPath id="clip-16">
<rect x="150.00" y="55.00" width="422.73" height="385.00"/>
</clipPath>
<clipPath id="clip-17">
<rect x="150.00" y="55.00" width="422.73" height="385.00"/>
</clipPath>
<clipPath id="clip-18">
<rect x="150.00" y="55.00" width="422.73" height="385.00"/>
</clipPath>
<clipPath id="clip-19">
<rect x="150.00" y="55.00" width="422.73" height="385.00"/>
</clipPath>
<clipPath id="clip-20">
<rect x="150.00" y="55.00" width="422.73" height="385.00"/>
</clipPath>
<clipPath id="clip-21">
<rect x="150.00" y="55.00" width="422.73" height="385.00"/>
</clipPath>
<clipPath id="clip-22">
<rect x="150.00" y="55.00" width="422.73" height="385.00"/>
</clipPath>
<clipPath id="clip-23">
<rect x="150.00" y="55.00" width="422.73" height="385.00"/>
</clipPath>
<clipPath id="clip-24">
<rect x="150.00" y="55.00" width="422.73" height="385.00"/>
</clipPath>
<clipPath id="clip-25">
<rect x="150.00" y="55.00" width="422.73" height="385.00"/>
</clipPath>
</defs>
<g transform="translate(0,500) scale(1,-1)">
<rect width="1200" height="500" fill="white"/>
<path d="M 0.00 0.00 L 1200.00 0.00 L 1200.00 500.00 L 0.00 500.00 L 0.00 0.00 Z " fill="#FFFFFF" fill-opacity="1.00" stroke="#000000" stroke-opacity="1.00" stroke-width="0.00" stroke-linecap="butt" stroke-linejoin="miter"/>
<path d="M 657.27 55.00 L 1080.00 55.00 L 1080.00 440.00 L 657.27 440.00 L 657.27 55.00 Z " fill="#FFFFFF" fill-opacity="1.00" stroke="none" stroke-opacity="0.00" stroke-width="0.00" stroke-linecap="butt" stroke-linejoin="miter"/>
<path d="M 1040.91 55.00 L 1060.79 55.00 L 1060.79 343.10 L 1040.91 343.10 L 1040.91 55.00 Z " fill="#4682B4" fill-opacity="1.00" stroke="#000000" stroke-opacity="1.00" stroke-width="0.00" stroke-linecap="butt" stroke-linejoin="miter"/>
<path d="M 1007.78 55.00 L 1027.66 55.00 L 1027.66 395.48 L 1007.78 395.48 L 1007.78 55.00 Z " fill="#4682B4" fill-opacity="1.00" stroke="#000000" stroke-opacity="1.00" stroke-width="0.00" stroke-linecap="butt" stroke-linejoin="miter"/>
<path d="M 974.65 55.00 L 994.53 55.00 L 994.53 421.67 L 974.65 421.67 L 974.65 55.00 Z " fill="#4682B4" fill-opacity="1.00" stroke="#000000" stroke-opacity="1.00" stroke-width="0.00" stroke-linecap="butt" stroke-linejoin="miter"/>
<path d="M 941.52 55.00 L 961.40 55.00 L 961.40 343.10 L 941.52 343.10 L 941.52 55.00 Z " fill="#4682B4" fill-opacity="1.00" stroke="#000000" stroke-opacity="1.00" stroke-width="0.00" stroke-linecap="butt" stroke-linejoin="miter"/>
<path d="M 908.39 55.00 L 928.27 55.00 L 928.27 264.52 L 908.39 264.52 L 908.39 55.00 Z " fill="#4682B4" fill-opacity="1.00" stroke="#000000" stroke-opacity="1.00" stroke-width="0.00" stroke-linecap="butt" stroke-linejoin="miter"/>
<path d="M 875.26 55.00 L 895.14 55.00 L 895.14 238.33 L 875.26 238.33 L 875.26 55.00 Z " fill="#4682B4" fill-opacity="1.00" stroke="#000000" stroke-opacity="1.00" stroke-width="0.00" stroke-linecap="butt" stroke-linejoin="miter"/>
<path d="M 842.13 55.00 L 862.01 55.00 L 862.01 316.90 L 842.13 316.90 L 842.13 55.00 Z " fill="#4682B4" fill-opacity="1.00" stroke="#000000" stroke-opacity="1.00" stroke-width="0.00" stroke-linecap="butt" stroke-linejoin="miter"/>
<path d="M 809.00 55.00 L 828.88 55.00 L 828.88 395.48 L 809.00 395.48 L 809.00 55.00 Z " fill="#4682B4" fill-opacity="1.00" stroke="#000000" stroke-opacity="1.00" stroke-width="0.00" stroke-linecap="butt" stroke-linejoin="miter"/>
<path d="M 775.87 55.00 L 795.75 55.00 L 795.75 343.10 L 775.87 343.10 L 775.87 55.00 Z " fill="#4682B4" fill-opacity="1.00" stroke="#000000" stroke-opacity="1.00" stroke-width="0.00" stroke-linecap="butt" stroke-linejoin="miter"/>
<path d="M 742.75 55.00 L 762.62 55.00 L 762.62 290.71 L 742.75 290.71 L 742.75 55.00 Z " fill="#4682B4" fill-opacity="1.00" stroke="#000000" stroke-opacity="1.00" stroke-width="0.00" stroke-linecap="butt" stroke-linejoin="miter"/>
<path d="M 709.62 55.00 L 729.49 55.00 L 729.49 264.52 L 709.62 264.52 L 709.62 55.00 Z " fill="#4682B4" fill-opacity="1.00" stroke="#000000" stroke-opacity="1.00" stroke-width="0.00" stroke-linecap="butt" stroke-linejoin="miter"/>
<path d="M 676.49 55.00 L 696.37 55.00 L 696.37 316.90 L 676.49 316.90 L 676.49 55.00 Z " fill="#4682B4" fill-opacity="1.00" stroke="#000000" stroke-opacity="1.00" stroke-width="0.00" stroke-linecap="butt" stroke-linejoin="miter"/>
<path d="M 720.50 55.50 L 720.50 440.50 " fill="none" fill-opacity="0.00" stroke="#B0B0B0" stroke-opacity="1.00" stroke-width="0.80" stroke-linecap="butt" stroke-linejoin="miter" clip-path="url(#clip-1)"/>
<path d="M 786.50 55.50 L 786.50 440.50 " fill="none" fill-opacity="0.00" stroke="#B0B0B0" stroke-opacity="1.00" stroke-width="0.80" stroke-linecap="butt" stroke-linejoin="miter" clip-path="url(#clip-2)"/>
<path d="M 852.50 55.50 L 852.50 440.50 " fill="none" fill-opacity="0.00" stroke="#B0B0B0" stroke-opacity="1.00" stroke-width="0.80" stroke-linecap="butt" stroke-linejoin="miter" clip-path="url(#clip-3)"/>
<path d="M 918.50 55.50 L 918.50 440.50 " fill="none" fill-opacity="0.00" stroke="#B0B0B0" stroke-opacity="1.00" stroke-width="0.80" stroke-linecap="butt" stroke-linejoin="miter" clip-path="url(#clip-4)"/>
<path d="M 985.50 55.50 L 985.50 440.50 " fill="none" fill-opacity="0.00" stroke="#B0B0B0" stroke-opacity="1.00" stroke-width="0.80" stroke-linecap="butt" stroke-linejoin="miter" clip-path="url(#clip-5)"/>
<path d="M 1051.50 55.50 L 1051.50 440.50 " fill="none" fill-opacity="0.00" stroke="#B0B0B0" stroke-opacity="1.00" stroke-width="0.80" stroke-linecap="butt" stroke-linejoin="miter" clip-path="url(#clip-6)"/>
<path d="M 657.50 54.50 L 1080.50 54.50 " fill="none" fill-opacity="0.00" stroke="#B0B0B0" stroke-opacity="1.00" stroke-width="0.80" stroke-linecap="butt" stroke-linejoin="miter" clip-path="url(#clip-7)"/>
<path d="M 657.50 106.50 L 1080.50 106.50 " fill="none" fill-opacity="0.00" stroke="#B0B0B0" stroke-opacity="1.00" stroke-width="0.80" stroke-linecap="butt" stroke-linejoin="miter" clip-path="url(#clip-8)"/>
<path d="M 657.50 159.50 L 1080.50 159.50 " fill="none" fill-opacity="0.00" stroke="#B0B0B0" stroke-opacity="1.00" stroke-width="0.80" stroke-linecap="butt" stroke-linejoin="miter" clip-path="url(#clip-9)"/>
<path d="M 657.50 211.50 L 1080.50 211.50 " fill="none" fill-opacity="0.00" stroke="#B0B0B0" stroke-opacity="1.00" stroke-width="0.80" stroke-linecap="butt" stroke-linejoin="miter" clip-path="url(#clip-10)"/>
<path d="M 657.50 264.50 L 1080.50 264.50 " fill="none" fill-opacity="0.00" stroke="#B0B0B0" stroke-opacity="1.00" stroke-width="0.80" stroke-linecap="butt" stroke-linejoin="miter" clip-path="url(#clip-11)"/>
<path d="M 657.50 316.50 L 1080.50 316.50 " fill="none" fill-opacity="0.00" stroke="#B0B0B0" stroke-opacity="1.00" stroke-width="0.80" stroke-linecap="butt" stroke-linejoin="miter" clip-path="url(#clip-12)"/>
<path d="M 657.50 368.50 L 1080.50 368.50 " fill="none" fill-opacity="0.00" stroke="#B0B0B0" stroke-opacity="1.00" stroke-width="0.80" stroke-linecap="butt" stroke-linejoin="miter" clip-path="url(#clip-13)"/>
<path d="M 657.50 421.50 L 1080.50 421.50 " fill="none" fill-opacity="0.00" stroke="#B0B0B0" stroke-opacity="1.00" stroke-width="0.80" stroke-linecap="butt" stroke-linejoin="miter" clip-path="url(#clip-14)"/>
<path d="M 720.50 55.50 L 720.50 50.50 " fill="none" fill-opacity="0.00" stroke="#000000" stroke-opacity="1.00" stroke-width="0.80" stroke-linecap="butt" stroke-linejoin="miter"/>
<text font-family="DejaVu Sans" font-size="13.89" fill="#000000" fill-opacity="1.00" text-anchor="middle" dominant-baseline="text-before-edge" transform="translate(719.56,45.28) scale(1,-1)">2</text>
<path d="M 786.50 55.50 L 786.50 50.50 " fill="none" fill-opacity="0.00" stroke="#000000" stroke-opacity="1.00" stroke-width="0.80" stroke-linecap="butt" stroke-linejoin="miter"/>
<text font-family="DejaVu Sans" font-size="13.89" fill="#000000" fill-opacity="1.00" text-anchor="middle" dominant-baseline="text-before-edge" transform="translate(785.81,45.28) scale(1,-1)">4</text>
<path d="M 852.50 55.50 L 852.50 50.50 " fill="none" fill-opacity="0.00" stroke="#000000" stroke-opacity="1.00" stroke-width="0.80" stroke-linecap="butt" stroke-linejoin="miter"/>
<text font-family="DejaVu Sans" font-size="13.89" fill="#000000" fill-opacity="1.00" text-anchor="middle" dominant-baseline="text-before-edge" transform="translate(852.07,45.28) scale(1,-1)">6</text>
<path d="M 918.50 55.50 L 918.50 50.50 " fill="none" fill-opacity="0.00" stroke="#000000" stroke-opacity="1.00" stroke-width="0.80" stroke-linecap="butt" stroke-linejoin="miter"/>
<text font-family="DejaVu Sans" font-size="13.89" fill="#000000" fill-opacity="1.00" text-anchor="middle" dominant-baseline="text-before-edge" transform="translate(918.33,45.28) scale(1,-1)">8</text>
<path d="M 985.50 55.50 L 985.50 50.50 " fill="none" fill-opacity="0.00" stroke="#000000" stroke-opacity="1.00" stroke-width="0.80" stroke-linecap="butt" stroke-linejoin="miter"/>
<text font-family="DejaVu Sans" font-size="13.89" fill="#000000" fill-opacity="1.00" text-anchor="middle" dominant-baseline="text-before-edge" transform="translate(984.59,45.28) scale(1,-1)">10</text>
<path d="M 1051.50 55.50 L 1051.50 50.50 " fill="none" fill-opacity="0.00" stroke="#000000" stroke-opacity="1.00" stroke-width="0.80" stroke-linecap="butt" stroke-linejoin="miter"/>
<text font-family="DejaVu Sans" font-size="13.89" fill="#000000" fill-opacity="1.00" text-anchor="middle" dominant-baseline="text-before-edge" transform="translate(1050.85,45.28) scale(1,-1)">12</text>
<text font-family="DejaVu Sans" font-size="13.89" fill="#000000" fill-opacity="1.00" text-anchor="middle" dominant-baseline="text-before-edge" transform="translate(868.64,26.17) scale(1,-1)">Month</text>
<path d="M 657.50 54.50 L 652.50 54.50 " fill="none" fill-opacity="0.00" stroke="#000000" stroke-opacity="1.00" stroke-width="0.80" stroke-linecap="butt" stroke-linejoin="miter"/>
<text font-family="DejaVu Sans" font-size="13.89" fill="#000000" fill-opacity="1.00" text-anchor="end" dominant-baseline="central" transform="translate(647.55,55.00) scale(1,-1)">0</text>
<path d="M 657.50 106.50 L 652.50 106.50 " fill="none" fill-opacity="0.00" stroke="#000000" stroke-opacity="1.00" stroke-width="0.80" stroke-linecap="butt" stroke-linejoin="miter"/>
<text font-family="DejaVu Sans" font-size="13.89" fill="#000000" fill-opacity="1.00" text-anchor="end" dominant-baseline="central" transform="translate(647.55,107.38) scale(1,-1)">10</text>
<path d="M 657.50 159.50 L 652.50 159.50 " fill="none" fill-opacity="0.00" stroke="#000000" stroke-opacity="1.00" stroke-width="0.80" stroke-linecap="butt" stroke-linejoin="miter"/>
<text font-family="DejaVu Sans" font-size="13.89" fill="#000000" fill-opacity="1.00" text-anchor="end" dominant-baseline="central" transform="translate(647.55,159.76) scale(1,-1)">20</text>
<path d="M 657.50 211.50 L 652.50 211.50 " fill="none" fill-opacity="0.00" stroke="#000000" stroke-opacity="1.00" stroke-width="0.80" stroke-linecap="butt" stroke-linejoin="miter"/>
<text font-family="DejaVu Sans" font-size="13.89" fill="#000000" fill-opacity="1.00" text-anchor="end" dominant-baseline="central" transform="translate(647.55,212.14) scale(1,-1)">30</text>
<path d="M 657.50 264.50 L 652.50 264.50 " fill="none" fill-opacity="0.00" stroke="#000000" stroke-opacity="1.00" stroke-width="0.80" stroke-linecap="butt" stroke-linejoin="miter"/>
<text font-family="DejaVu Sans" font-size="13.89" fill="#000000" fill-opacity="1.00" text-anchor="end" dominant-baseline="central" transform="translate(647.55,264.52) scale(1,-1)">40</text>
<path d="M 657.50 316.50 L 652.50 316.50 " fill="none" fill-opacity="0.00" stroke="#000000" stroke-opacity="1.00" stroke-width="0.80" stroke-linecap="butt" stroke-linejoin="miter"/>
<text font-family="DejaVu Sans" font-size="13.89" fill="#000000" fill-opacity="1.00" text-anchor="end" dominant-baseline="central" transform="translate(647.55,316.90) scale(1,-1)">50</text>
<path d="M 657.50 368.50 L 652.50 368.50 " fill="none" fill-opacity="0.00" stroke="#000000" stroke-opacity="1.00" stroke-width="0.80" stroke-linecap="butt" stroke-linejoin="miter"/>
<text font-family="DejaVu Sans" font-size="13.89" fill="#000000" fill-opacity="1.00" text-anchor="end" dominant-baseline="central" transform="translate(647.55,369.29) scale(1,-1)">60</text>
<path d="M 657.50 421.50 L 652.50 421.50 " fill="none" fill-opacity="0.00" stroke="#000000" stroke-opacity="1.00" stroke-width="0.80" stroke-linecap="butt" stroke-linejoin="miter"/>
<text font-family="DejaVu Sans" font-size="13.89" fill="#000000" fill-opacity="1.00" text-anchor="end" dominant-baseline="central" transform="translate(647.55,421.67) scale(1,-1)">70</text>
<text font-family="DejaVu Sans" font-size="13.89" fill="#000000" fill-opacity="1.00" text-anchor="middle" transform="translate(617.84,247.50) rotate(90.00) scale(1,-1)">Precipitation (mm)</text>
<path d="M 657.50 55.50 L 657.50 440.50 " fill="none" fill-opacity="0.00" stroke="#000000" stroke-opacity="1.00" stroke-width="0.80" stroke-linecap="square" stroke-linejoin="miter"/>
<path d="M 1080.50 55.50 L 1080.50 440.50 " fill="none" fill-opacity="0.00" stroke="#000000" stroke-opacity="1.00" stroke-width="0.80" stroke-linecap="square" stroke-linejoin="miter"/>
<path d="M 657.50 54.50 L 1080.50 54.50 " fill="none" fill-opacity="0.00" stroke="#000000" stroke-opacity="1.00" stroke-width="0.80" stroke-linecap="square" stroke-linejoin="miter"/>
<path d="M 657.50 439.50 L 1080.50 439.50 " fill="none" fill-opacity="0.00" stroke="#000000" stroke-opacity="1.00" stroke-width="0.80" stroke-linecap="square" stroke-linejoin="miter"/>
<path d="M 150.00 55.00 L 572.73 55.00 L 572.73 440.00 L 150.00 440.00 L 150.00 55.00 Z " fill="#FFFFFF" fill-opacity="1.00" stroke="none" stroke-opacity="0.00" stroke-width="0.00" stroke-linecap="butt" stroke-linejoin="miter"/>
<path d="M 204.50 55.50 L 204.50 440.50 " fill="none" fill-opacity="0.00" stroke="#B0B0B0" stroke-opacity="1.00" stroke-width="0.80" stroke-linecap="butt" stroke-linejoin="miter" clip-path="url(#clip-15)"/>
<path d="M 274.50 55.50 L 274.50 440.50 " fill="none" fill-opacity="0.00" stroke="#B0B0B0" stroke-opacity="1.00" stroke-width="0.80" stroke-linecap="butt" stroke-linejoin="miter" clip-path="url(#clip-16)"/>
<path d="M 344.50 55.50 L 344.50 440.50 " fill="none" fill-opacity="0.00" stroke="#B0B0B0" stroke-opacity="1.00" stroke-width="0.80" stroke-linecap="butt" stroke-linejoin="miter" clip-path="url(#clip-17)"/>
<path d="M 414.50 55.50 L 414.50 440.50 " fill="none" fill-opacity="0.00" stroke="#B0B0B0" stroke-opacity="1.00" stroke-width="0.80" stroke-linecap="butt" stroke-linejoin="miter" clip-path="url(#clip-18)"/>
<path d="M 484.50 55.50 L 484.50 440.50 " fill="none" fill-opacity="0.00" stroke="#B0B0B0" stroke-opacity="1.00" stroke-width="0.80" stroke-linecap="butt" stroke-linejoin="miter" clip-path="url(#clip-19)"/>
<path d="M 554.50 55.50 L 554.50 440.50 " fill="none" fill-opacity="0.00" stroke="#B0B0B0" stroke-opacity="1.00" stroke-width="0.80" stroke-linecap="butt" stroke-linejoin="miter" clip-path="url(#clip-20)"/>
<path d="M 150.50 117.50 L 573.50 117.50 " fill="none" fill-opacity="0.00" stroke="#B0B0B0" stroke-opacity="1.00" stroke-width="0.80" stroke-linecap="butt" stroke-linejoin="miter" clip-path="url(#clip-21)"/>
<path d="M 150.50 193.50 L 573.50 193.50 " fill="none" fill-opacity="0.00" stroke="#B0B0B0" stroke-opacity="1.00" stroke-width="0.80" stroke-linecap="butt" stroke-linejoin="miter" clip-path="url(#clip-22)"/>
<path d="M 150.50 269.50 L 573.50 269.50 " fill="none" fill-opacity="0.00" stroke="#B0B0B0" stroke-opacity="1.00" stroke-width="0.80" stroke-linecap="butt" stroke-linejoin="miter" clip-path="url(#clip-23)"/>
<path d="M 150.50 345.50 L 573.50 345.50 " fill="none" fill-opacity="0.00" stroke="#B0B0B0" stroke-opacity="1.00" stroke-width="0.80" stroke-linecap="butt" stroke-linejoin="miter" clip-path="url(#clip-24)"/>
<path d="M 150.50 422.50 L 573.50 422.50 " fill="none" fill-opacity="0.00" stroke="#B0B0B0" stroke-opacity="1.00" stroke-width="0.80" stroke-linecap="butt" stroke-linejoin="miter" clip-path="url(#clip-25)"/>
<path d="M 169.21 72.50 L 204.15 102.93 L 239.09 163.80 L 274.02 239.89 L 308.96 315.98 L 343.90 376.85 L 378.83 422.50 L 413.77 407.28 L 448.70 346.41 L 483.64 255.11 L 518.58 163.80 L 553.51 87.72 " fill="none" fill-opacity="0.00" stroke="#FF6347" stroke-opacity="1.00" stroke-width="2.00" stroke-linecap="square" stroke-linejoin="round"/>
<path d="M 204.50 55.50 L 204.50 50.50 " fill="none" fill-opacity="0.00" stroke="#000000" stroke-opacity="1.00" stroke-width="0.80" stroke-linecap="butt" stroke-linejoin="miter"/>
<text font-family="DejaVu Sans" font-size="13.89" fill="#000000" fill-opacity="1.00" text-anchor="middle" dominant-baseline="text-before-edge" transform="translate(204.15,45.28) scale(1,-1)">2</text>
<path d="M 274.50 55.50 L 274.50 50.50 " fill="none" fill-opacity="0.00" stroke="#000000" stroke-opacity="1.00" stroke-width="0.80" stroke-linecap="butt" stroke-linejoin="miter"/>
<text font-family="DejaVu Sans" font-size="13.89" fill="#000000" fill-opacity="1.00" text-anchor="middle" dominant-baseline="text-before-edge" transform="translate(274.02,45.28) scale(1,-1)">4</text>
<path d="M 344.50 55.50 L 344.50 50.50 " fill="none" fill-opacity="0.00" stroke="#000000" stroke-opacity="1.00" stroke-width="0.80" stroke-linecap="butt" stroke-linejoin="miter"/>
<text font-family="DejaVu Sans" font-size="13.89" fill="#000000" fill-opacity="1.00" text-anchor="middle" dominant-baseline="text-before-edge" transform="translate(343.90,45.28) scale(1,-1)">6</text>
<path d="M 414.50 55.50 L 414.50 50.50 " fill="none" fill-opacity="0.00" stroke="#000000" stroke-opacity="1.00" stroke-width="0.80" stroke-linecap="butt" stroke-linejoin="miter"/>
<text font-family="DejaVu Sans" font-size="13.89" fill="#000000" fill-opacity="1.00" text-anchor="middle" dominant-baseline="text-before-edge" transform="translate(413.77,45.28) scale(1,-1)">8</text>
<path d="M 484.50 55.50 L 484.50 50.50 " fill="none" fill-opacity="0.00" stroke="#000000" stroke-opacity="1.00" stroke-width="0.80" stroke-linecap="butt" stroke-linejoin="miter"/>
<text font-family="DejaVu Sans" font-size="13.89" fill="#000000" fill-opacity="1.00" text-anchor="middle" dominant-baseline="text-before-edge" transform="translate(483.64,45.28) scale(1,-1)">10</text>
<path d="M 554.50 55.50 L 554.50 50.50 " fill="none" fill-opacity="0.00" stroke="#000000" stroke-opacity="1.00" stroke-width="0.80" stroke-linecap="butt" stroke-linejoin="miter"/>
<text font-family="DejaVu Sans" font-size="13.89" fill="#000000" fill-opacity="1.00" text-anchor="middle" dominant-baseline="text-before-edge" transform="translate(553.51,45.28) scale(1,-1)">12</text>
<text font-family="DejaVu Sans" font-size="13.89" fill="#000000" fill-opacity="1.00" text-anchor="middle" dominant-baseline="text-before-edge" transform="translate(361.36,26.17) scale(1,-1)">Month</text>
<path d="M 150.50 117.50 L 145.50 117.50 " fill="none" fill-opacity="0.00" stroke="#000000" stroke-opacity="1.00" stroke-width="0.80" stroke-linecap="butt" stroke-linejoin="miter"/>
<text font-family="DejaVu Sans" font-size="13.89" fill="#000000" fill-opacity="1.00" text-anchor="end" dominant-baseline="central" transform="translate(140.28,118.15) scale(1,-1)">5</text>
<path d="M 150.50 193.50 L 145.50 193.50 " fill="none" fill-opacity="0.00" stroke="#000000" stroke-opacity="1.00" stroke-width="0.80" stroke-linecap="butt" stroke-linejoin="miter"/>
<text font-family="DejaVu Sans" font-size="13.89" fill="#000000" fill-opacity="1.00" text-anchor="end" dominant-baseline="central" transform="translate(140.28,194.24) scale(1,-1)">10</text>
<path d="M 150.50 269.50 L 145.50 269.50 " fill="none" fill-opacity="0.00" stroke="#000000" stroke-opacity="1.00" stroke-width="0.80" stroke-linecap="butt" stroke-linejoin="miter"/>
<text font-family="DejaVu Sans" font-size="13.89" fill="#000000" fill-opacity="1.00" text-anchor="end" dominant-baseline="central" transform="translate(140.28,270.33) scale(1,-1)">15</text>
<path d="M 150.50 345.50 L 145.50 345.50 " fill="none" fill-opacity="0.00" stroke="#000000" stroke-opacity="1.00" stroke-width="0.80" stroke-linecap="butt" stroke-linejoin="miter"/>
<text font-family="DejaVu Sans" font-size="13.89" fill="#000000" fill-opacity="1.00" text-anchor="end" dominant-baseline="central" transform="translate(140.28,346.41) scale(1,-1)">20</text>
<path d="M 150.50 422.50 L 145.50 422.50 " fill="none" fill-opacity="0.00" stroke="#000000" stroke-opacity="1.00" stroke-width="0.80" stroke-linecap="butt" stroke-linejoin="miter"/>
<text font-family="DejaVu Sans" font-size="13.89" fill="#000000" fill-opacity="1.00" text-anchor="end" dominant-baseline="central" transform="translate(140.28,422.50) scale(1,-1)">25</text>
<text font-family="DejaVu Sans" font-size="13.89" fill="#000000" fill-opacity="1.00" text-anchor="middle" transform="translate(110.90,247.50) rotate(90.00) scale(1,-1)">Temperature (C)</text>
<path d="M 150.50 55.50 L 150.50 440.50 " fill="none" fill-opacity="0.00" stroke="#000000" stroke-opacity="1.00" stroke-width="0.80" stroke-linecap="square" stroke-linejoin="miter"/>
<path d="M 572.50 55.50 L 572.50 440.50 " fill="none" fill-opacity="0.00" stroke="#000000" stroke-opacity="1.00" stroke-width="0.80" stroke-linecap="square" stroke-linejoin="miter"/>
<path d="M 150.50 54.50 L 573.50 54.50 " fill="none" fill-opacity="0.00" stroke="#000000" stroke-opacity="1.00" stroke-width="0.80" stroke-linecap="square" stroke-linejoin="miter"/>
<path d="M 150.50 439.50 L 573.50 439.50 " fill="none" fill-opacity="0.00" stroke="#000000" stroke-opacity="1.00" stroke-width="0.80" stroke-linecap="square" stroke-linejoin="miter"/>
</g>
</svg>
