<?xml version="1.0" encoding="UTF-8"?>
<svg xmlns="http://www.w3.org/2000/svg"
     xmlns:xlink="http://www.w3.org/1999/xlink"
     width="800" height="600" viewBox="0 0 800 600">
<defs>
<clipPath id="clip-1">
<rect x="100.00" y="66.00" width="620.00" height="462.00"/>
</clipPath>
<clipPath id="clip-2">
<rect x="100.00" y="66.00" width="620.00" height="462.00"/>
</clipPath>
<clipPath id="clip-3">
<rect x="100.00" y="66.00" width="620.00" height="462.00"/>
</clipPath>
<clipPath id="clip-4">
<rect x="100.00" y="66.00" width="620.00" height="462.00"/>
</clipPath>
<clipPath id="clip-5">
<rect x="100.00" y="66.00" width="620.00" height="462.00"/>
</clipPath>
<clipPath id="clip-6">
<rect x="100.00" y="66.00" width="620.00" height="462.00"/>
</clipPath>
<clipPath id="clip-7">
<rect x="100.00" y="66.00" width="620.00" height="462.00"/>
</clipPath>
<clipPath id="clip-8">
<rect x="100.00" y="66.00" width="620.00" height="462.00"/>
</clipPath>
<clipPath id="clip-9">
<rect x="100.00" y="66.00" width="620.00" height="462.00"/>
</clipPath>
<clipPath id="clip-10">
<rect x="100.00" y="66.00" width="620.00" height="462.00"/>
</clipPath>
<clipPath id="clip-11">
<rect x="100.00" y="66.00" width="620.00" height="462.00"/>
</clipPath>
</defs>
<g transform="translate(0,600) scale(1,-1)">
<rect width="800" height="600" fill="white"/>
<path d="M 0.00 0.00 L 800.00 0.00 L 800.00 600.00 L 0.00 600.00 L 0.00 0.00 Z " fill="#FFFFFF" fill-opacity="1.00" stroke="#000000" stroke-opacity="1.00" stroke-width="0.00" stroke-linecap="butt" stroke-linejoin="miter"/>
<path d="M 100.00 66.00 L 720.00 66.00 L 720.00 528.00 L 100.00 528.00 L 100.00 66.00 Z " fill="#FFFFFF" fill-opacity="1.00" stroke="none" stroke-opacity="0.00" stroke-width="0.00" stroke-linecap="butt" stroke-linejoin="miter"/>
<path d="M 128.50 66.50 L 128.50 528.50 " fill="none" fill-opacity="0.00" stroke="#B0B0B0" stroke-opacity="1.00" stroke-width="0.80" stroke-linecap="butt" stroke-linejoin="miter" clip-path="url(#clip-1)"/>
<path d="M 204.50 66.50 L 204.50 528.50 " fill="none" fill-opacity="0.00" stroke="#B0B0B0" stroke-opacity="1.00" stroke-width="0.80" stroke-linecap="butt" stroke-linejoin="miter" clip-path="url(#clip-2)"/>
<path d="M 281.50 66.50 L 281.50 528.50 " fill="none" fill-opacity="0.00" stroke="#B0B0B0" stroke-opacity="1.00" stroke-width="0.80" stroke-linecap="butt" stroke-linejoin="miter" clip-path="url(#clip-3)"/>
<path d="M 357.50 66.50 L 357.50 528.50 " fill="none" fill-opacity="0.00" stroke="#B0B0B0" stroke-opacity="1.00" stroke-width="0.80" stroke-linecap="butt" stroke-linejoin="miter" clip-path="url(#clip-4)"/>
<path d="M 433.50 66.50 L 433.50 528.50 " fill="none" fill-opacity="0.00" stroke="#B0B0B0" stroke-opacity="1.00" stroke-width="0.80" stroke-linecap="butt" stroke-linejoin="miter" clip-path="url(#clip-5)"/>
<path d="M 509.50 66.50 L 509.50 528.50 " fill="none" fill-opacity="0.00" stroke="#B0B0B0" stroke-opacity="1.00" stroke-width="0.80" stroke-linecap="butt" stroke-linejoin="miter" clip-path="url(#clip-6)"/>
<path d="M 585.50 66.50 L 585.50 528.50 " fill="none" fill-opacity="0.00" stroke="#B0B0B0" stroke-opacity="1.00" stroke-width="0.80" stroke-linecap="butt" stroke-linejoin="miter" clip-path="url(#clip-7)"/>
<path d="M 661.50 66.50 L 661.50 528.50 " fill="none" fill-opacity="0.00" stroke="#B0B0B0" stroke-opacity="1.00" stroke-width="0.80" stroke-linecap="butt" stroke-linejoin="miter" clip-path="url(#clip-8)"/>
<path d="M 100.50 142.50 L 720.50 142.50 " fill="none" fill-opacity="0.00" stroke="#B0B0B0" stroke-opacity="1.00" stroke-width="0.80" stroke-linecap="butt" stroke-linejoin="miter" clip-path="url(#clip-9)"/>
<path d="M 100.50 296.50 L 720.50 296.50 " fill="none" fill-opacity="0.00" stroke="#B0B0B0" stroke-opacity="1.00" stroke-width="0.80" stroke-linecap="butt" stroke-linejoin="miter" clip-path="url(#clip-10)"/>
<path d="M 100.50 450.50 L 720.50 450.50 " fill="none" fill-opacity="0.00" stroke="#B0B0B0" stroke-opacity="1.00" stroke-width="0.80" stroke-linecap="butt" stroke-linejoin="miter" clip-path="url(#clip-11)"/>
<path d="M 345.26 466.85 L 347.80 467.72 L 350.34 468.60 L 352.87 469.49 L 355.41 470.38 L 357.95 471.28 L 360.49 472.17 L 363.03 473.07 L 365.57 473.97 L 368.11 474.87 L 370.65 475.78 L 373.19 476.68 L 375.72 477.58 L 378.26 478.48 L 380.80 479.38 L 383.34 480.28 L 385.88 481.18 L 388.42 482.08 L 390.96 482.98 L 393.50 483.88 L 396.04 484.78 L 398.57 485.68 L 401.11 486.58 L 403.65 487.47 L 406.19 488.36 L 408.73 489.25 L 411.27 490.13 L 413.81 491.00 L 416.35 491.86 L 418.89 492.71 L 421.43 493.54 L 423.96 494.36 L 426.50 495.15 L 429.04 495.93 L 431.58 496.68 L 434.12 497.41 L 436.66 498.11 L 439.20 498.78 L 441.74 499.42 L 444.28 500.03 L 446.81 500.61 L 449.35 501.15 L 451.89 501.66 L 454.43 502.13 L 456.97 502.56 L 459.51 502.96 L 462.05 503.32 L 464.59 503.64 L 467.13 503.93 L 469.66 504.17 L 472.20 504.39 L 474.74 504.56 L 477.28 504.70 L 479.82 504.80 L 482.36 504.87 L 484.90 504.90 L 487.44 504.89 L 489.98 504.85 L 492.51 504.77 L 495.05 504.65 L 497.59 504.49 L 500.13 504.29 L 502.67 504.06 L 505.21 503.78 L 507.75 503.47 L 510.29 503.11 L 512.83 502.70 L 515.36 502.26 L 517.90 501.77 L 520.44 501.23 L 522.98 500.65 L 525.52 500.03 L 528.06 499.36 L 530.60 498.64 L 533.14 497.88 L 535.68 497.08 L 538.21 496.23 L 540.75 495.34 L 543.29 494.41 L 545.83 493.43 L 548.37 492.42 L 550.91 491.38 L 553.45 490.30 L 555.99 489.19 L 558.53 488.05 L 561.06 486.89 L 563.60 485.70 L 566.14 484.50 L 568.68 483.28 L 571.22 482.04 L 573.76 480.80 L 576.30 479.55 L 578.84 478.30 L 581.38 477.05 L 583.91 475.81 L 586.45 474.58 L 588.99 473.36 L 591.53 472.15 L 594.07 470.96 L 596.61 469.80 L 596.61 432.20 L 594.07 431.04 L 591.53 429.85 L 588.99 428.64 L 586.45 427.42 L 583.91 426.19 L 581.38 424.95 L 578.84 423.70 L 576.30 422.45 L 573.76 421.20 L 571.22 419.96 L 568.68 418.72 L 566.14 417.50 L 563.60 416.30 L 561.06 415.11 L 558.53 413.95 L 555.99 412.81 L 553.45 411.70 L 550.91 410.62 L 548.37 409.58 L 545.83 408.57 L 543.29 407.59 L 540.75 406.66 L 538.21 405.77 L 535.68 404.92 L 533.14 404.12 L 530.60 403.36 L 528.06 402.64 L 525.52 401.97 L 522.98 401.35 L 520.44 400.77 L 517.90 400.23 L 515.36 399.74 L 512.83 399.30 L 510.29 398.89 L 507.75 398.53 L 505.21 398.22 L 502.67 397.94 L 500.13 397.71 L 497.59 397.51 L 495.05 397.35 L 492.51 397.23 L 489.98 397.15 L 487.44 397.11 L 484.90 397.10 L 482.36 397.13 L 479.82 397.20 L 477.28 397.30 L 474.74 397.44 L 472.20 397.61 L 469.66 397.83 L 467.13 398.07 L 464.59 398.36 L 462.05 398.68 L 459.51 399.04 L 456.97 399.44 L 454.43 399.87 L 451.89 400.34 L 449.35 400.85 L 446.81 401.39 L 444.28 401.97 L 441.74 402.58 L 439.20 403.22 L 436.66 403.89 L 434.12 404.59 L 431.58 405.32 L 429.04 406.07 L 426.50 406.85 L 423.96 407.64 L 421.43 408.46 L 418.89 409.29 L 416.35 410.14 L 413.81 411.00 L 411.27 411.87 L 408.73 412.75 L 406.19 413.64 L 403.65 414.53 L 401.11 415.42 L 398.57 416.32 L 396.04 417.22 L 393.50 418.12 L 390.96 419.02 L 388.42 419.92 L 385.88 420.82 L 383.34 421.72 L 380.80 422.62 L 378.26 423.52 L 375.72 424.42 L 373.19 425.32 L 370.65 426.22 L 368.11 427.13 L 365.57 428.03 L 363.03 428.93 L 360.49 429.83 L 357.95 430.72 L 355.41 431.62 L 352.87 432.51 L 350.34 433.40 L 347.80 434.28 L 345.26 435.15 Z " fill="#1F77B4" fill-opacity="0.70" stroke="#000000" stroke-opacity="0.70" stroke-width="1.00" stroke-linecap="butt" stroke-linejoin="miter"/>
<path d="M 100.00 312.49 L 106.26 313.49 L 112.53 314.52 L 118.79 315.57 L 125.05 316.64 L 131.31 317.72 L 137.58 318.82 L 143.84 319.92 L 150.10 321.04 L 156.36 322.17 L 162.63 323.30 L 168.89 324.43 L 175.15 325.57 L 181.41 326.70 L 187.68 327.84 L 193.94 328.97 L 200.20 330.10 L 206.46 331.22 L 212.73 332.33 L 218.99 333.43 L 225.25 334.52 L 231.52 335.60 L 237.78 336.66 L 244.04 337.70 L 250.30 338.73 L 256.57 339.73 L 262.83 340.71 L 269.09 341.66 L 275.35 342.58 L 281.62 343.47 L 287.88 344.33 L 294.14 345.15 L 300.40 345.93 L 306.67 346.66 L 312.93 347.35 L 319.19 347.99 L 325.45 348.57 L 331.72 349.09 L 337.98 349.56 L 344.24 349.96 L 350.51 350.29 L 356.77 350.55 L 363.03 350.75 L 369.29 350.86 L 375.56 350.90 L 381.82 350.86 L 388.08 350.74 L 394.34 350.55 L 400.61 350.27 L 406.87 349.91 L 413.13 349.48 L 419.39 348.97 L 425.66 348.39 L 431.92 347.74 L 438.18 347.03 L 444.44 346.25 L 450.71 345.41 L 456.97 344.52 L 463.23 343.58 L 469.49 342.59 L 475.76 341.57 L 482.02 340.52 L 488.28 339.44 L 494.55 338.33 L 500.81 337.22 L 507.07 336.09 L 513.33 334.95 L 519.60 333.82 L 525.86 332.69 L 532.12 331.57 L 538.38 330.47 L 544.65 329.38 L 550.91 328.31 L 557.17 327.26 L 563.43 326.24 L 569.70 325.24 L 575.96 324.28 L 582.22 323.34 L 588.48 322.44 L 594.75 321.56 L 601.01 320.71 L 607.27 319.90 L 613.54 319.11 L 619.80 318.34 L 626.06 317.61 L 632.32 316.89 L 638.59 316.20 L 644.85 315.52 L 651.11 314.86 L 657.37 314.21 L 663.64 313.58 L 669.90 312.95 L 676.16 312.34 L 682.42 311.73 L 688.69 311.12 L 694.95 310.52 L 701.21 309.92 L 707.47 309.33 L 713.74 308.74 L 720.00 308.15 L 720.00 285.85 L 713.74 285.26 L 707.47 284.67 L 701.21 284.08 L 694.95 283.48 L 688.69 282.88 L 682.42 282.27 L 676.16 281.66 L 669.90 281.05 L 663.64 280.42 L 657.37 279.79 L 651.11 279.14 L 644.85 278.48 L 638.59 277.80 L 632.32 277.11 L 626.06 276.39 L 619.80 275.66 L 613.54 274.89 L 607.27 274.10 L 601.01 273.29 L 594.75 272.44 L 588.48 271.56 L 582.22 270.66 L 575.96 269.72 L 569.70 268.76 L 563.43 267.76 L 557.17 266.74 L 550.91 265.69 L 544.65 264.62 L 538.38 263.53 L 532.12 262.43 L 525.86 261.31 L 519.60 260.18 L 513.33 259.05 L 507.07 257.91 L 500.81 256.78 L 494.55 255.67 L 488.28 254.56 L 482.02 253.48 L 475.76 252.43 L 469.49 251.41 L 463.23 250.42 L 456.97 249.48 L 450.71 248.59 L 444.44 247.75 L 438.18 246.97 L 431.92 246.26 L 425.66 245.61 L 419.39 245.03 L 413.13 244.52 L 406.87 244.09 L 400.61 243.73 L 394.34 243.45 L 388.08 243.26 L 381.82 243.14 L 375.56 243.10 L 369.29 243.14 L 363.03 243.25 L 356.77 243.45 L 350.51 243.71 L 344.24 244.04 L 337.98 244.44 L 331.72 244.91 L 325.45 245.43 L 319.19 246.01 L 312.93 246.65 L 306.67 247.34 L 300.40 248.07 L 294.14 248.85 L 287.88 249.67 L 281.62 250.53 L 275.35 251.42 L 269.09 252.34 L 262.83 253.29 L 256.57 254.27 L 250.30 255.27 L 244.04 256.30 L 237.78 257.34 L 231.52 258.40 L 225.25 259.48 L 218.99 260.57 L 212.73 261.67 L 206.46 262.78 L 200.20 263.90 L 193.94 265.03 L 187.68 266.16 L 181.41 267.30 L 175.15 268.43 L 168.89 269.57 L 162.63 270.70 L 156.36 271.83 L 150.10 272.96 L 143.84 274.08 L 137.58 275.18 L 131.31 276.28 L 125.05 277.36 L 118.79 278.43 L 112.53 279.48 L 106.26 280.51 L 100.00 281.51 Z " fill="#1F77B4" fill-opacity="0.70" stroke="#000000" stroke-opacity="0.70" stroke-width="1.00" stroke-linecap="butt" stroke-linejoin="miter"/>
<path d="M 181.50 155.19 L 186.58 155.80 L 191.65 156.42 L 196.73 157.03 L 201.81 157.64 L 206.89 158.25 L 211.97 158.86 L 217.04 159.48 L 222.12 160.09 L 227.20 160.70 L 232.28 161.32 L 237.35 161.95 L 242.43 162.58 L 247.51 163.23 L 252.59 163.89 L 257.67 164.56 L 262.74 165.26 L 267.82 165.98 L 272.90 166.72 L 277.98 167.50 L 283.05 168.30 L 288.13 169.14 L 293.21 170.01 L 298.29 170.91 L 303.37 171.86 L 308.44 172.83 L 313.52 173.84 L 318.60 174.89 L 323.68 175.96 L 328.76 177.06 L 333.83 178.19 L 338.91 179.33 L 343.99 180.49 L 349.07 181.66 L 354.14 182.83 L 359.22 184.00 L 364.30 185.16 L 369.38 186.30 L 374.46 187.41 L 379.53 188.49 L 384.61 189.53 L 389.69 190.53 L 394.77 191.47 L 399.84 192.35 L 404.92 193.17 L 410.00 193.91 L 415.08 194.58 L 420.16 195.16 L 425.23 195.67 L 430.31 196.09 L 435.39 196.42 L 440.47 196.67 L 445.54 196.83 L 450.62 196.90 L 455.70 196.89 L 460.78 196.80 L 465.86 196.63 L 470.93 196.39 L 476.01 196.08 L 481.09 195.70 L 486.17 195.27 L 491.24 194.78 L 496.32 194.24 L 501.40 193.66 L 506.48 193.04 L 511.56 192.39 L 516.63 191.72 L 521.71 191.01 L 526.79 190.30 L 531.87 189.56 L 536.95 188.82 L 542.02 188.06 L 547.10 187.30 L 552.18 186.54 L 557.26 185.77 L 562.33 184.99 L 567.41 184.22 L 572.49 183.44 L 577.57 182.65 L 582.65 181.86 L 587.72 181.06 L 592.80 180.25 L 597.88 179.44 L 602.96 178.61 L 608.03 177.76 L 613.11 176.90 L 618.19 176.02 L 623.27 175.12 L 628.35 174.19 L 633.42 173.25 L 638.50 172.29 L 643.58 171.31 L 648.66 170.31 L 653.73 169.28 L 658.81 168.25 L 663.89 167.19 L 668.97 166.13 L 674.05 165.06 L 679.12 163.98 L 684.20 162.90 L 684.20 123.10 L 679.12 122.02 L 674.05 120.94 L 668.97 119.87 L 663.89 118.81 L 658.81 117.75 L 653.73 116.72 L 648.66 115.69 L 643.58 114.69 L 638.50 113.71 L 633.42 112.75 L 628.35 111.81 L 623.27 110.88 L 618.19 109.98 L 613.11 109.10 L 608.03 108.24 L 602.96 107.39 L 597.88 106.56 L 592.80 105.75 L 587.72 104.94 L 582.65 104.14 L 577.57 103.35 L 572.49 102.56 L 567.41 101.78 L 562.33 101.01 L 557.26 100.23 L 552.18 99.46 L 547.10 98.70 L 542.02 97.94 L 536.95 97.18 L 531.87 96.44 L 526.79 95.70 L 521.71 94.99 L 516.63 94.28 L 511.56 93.61 L 506.48 92.96 L 501.40 92.34 L 496.32 91.76 L 491.24 91.22 L 486.17 90.73 L 481.09 90.30 L 476.01 89.92 L 470.93 89.61 L 465.86 89.37 L 460.78 89.20 L 455.70 89.11 L 450.62 89.10 L 445.54 89.17 L 440.47 89.33 L 435.39 89.58 L 430.31 89.91 L 425.23 90.33 L 420.16 90.84 L 415.08 91.42 L 410.00 92.09 L 404.92 92.83 L 399.84 93.65 L 394.77 94.53 L 389.69 95.47 L 384.61 96.47 L 379.53 97.51 L 374.46 98.59 L 369.38 99.70 L 364.30 100.84 L 359.22 102.00 L 354.14 103.17 L 349.07 104.34 L 343.99 105.51 L 338.91 106.67 L 333.83 107.81 L 328.76 108.94 L 323.68 110.04 L 318.60 111.11 L 313.52 112.16 L 308.44 113.17 L 303.37 114.14 L 298.29 115.09 L 293.21 115.99 L 288.13 116.86 L 283.05 117.70 L 277.98 118.50 L 272.90 119.28 L 267.82 120.02 L 262.74 120.74 L 257.67 121.44 L 252.59 122.11 L 247.51 122.77 L 242.43 123.42 L 237.35 124.05 L 232.28 124.68 L 227.20 125.30 L 222.12 125.91 L 217.04 126.52 L 211.97 127.14 L 206.89 127.75 L 201.81 128.36 L 196.73 128.97 L 191.65 129.58 L 186.58 130.20 L 181.50 130.81 Z " fill="#1F77B4" fill-opacity="0.70" stroke="#000000" stroke-opacity="0.70" stroke-width="1.00" stroke-linecap="butt" stroke-linejoin="miter"/>
<path d="M 585.50 424.50 L 585.50 478.50 " fill="none" fill-opacity="0.00" stroke="#000000" stroke-opacity="1.00" stroke-width="1.00" stroke-linecap="square" stroke-linejoin="round"/>
<path d="M 357.50 424.50 L 357.50 478.50 " fill="none" fill-opacity="0.00" stroke="#000000" stroke-opacity="1.00" stroke-width="1.00" stroke-linecap="square" stroke-linejoin="round"/>
<path d="M 479.50 397.50 L 479.50 505.50 " fill="none" fill-opacity="0.00" stroke="#FFFFFF" stroke-opacity="1.00" stroke-width="2.00" stroke-linecap="square" stroke-linejoin="round"/>
<path d="M 692.50 270.50 L 692.50 324.50 " fill="none" fill-opacity="0.00" stroke="#000000" stroke-opacity="1.00" stroke-width="1.00" stroke-linecap="square" stroke-linejoin="round"/>
<path d="M 128.50 270.50 L 128.50 324.50 " fill="none" fill-opacity="0.00" stroke="#000000" stroke-opacity="1.00" stroke-width="1.00" stroke-linecap="square" stroke-linejoin="round"/>
<path d="M 387.50 243.50 L 387.50 351.50 " fill="none" fill-opacity="0.00" stroke="#FFFFFF" stroke-opacity="1.00" stroke-width="2.00" stroke-linecap="square" stroke-linejoin="round"/>
<path d="M 661.50 116.50 L 661.50 170.50 " fill="none" fill-opacity="0.00" stroke="#000000" stroke-opacity="1.00" stroke-width="1.00" stroke-linecap="square" stroke-linejoin="round"/>
<path d="M 204.50 116.50 L 204.50 170.50 " fill="none" fill-opacity="0.00" stroke="#000000" stroke-opacity="1.00" stroke-width="1.00" stroke-linecap="square" stroke-linejoin="round"/>
<path d="M 448.50 89.50 L 448.50 197.50 " fill="none" fill-opacity="0.00" stroke="#FFFFFF" stroke-opacity="1.00" stroke-width="2.00" stroke-linecap="square" stroke-linejoin="round"/>
<text font-family="DejaVu Sans" font-size="16.67" fill="#000000" fill-opacity="1.00" text-anchor="middle" transform="translate(410.00,537.33) scale(1,-1)">Violin Plot — Horizontal Orientation</text>
<path d="M 128.50 66.50 L 128.50 61.50 " fill="none" fill-opacity="0.00" stroke="#000000" stroke-opacity="1.00" stroke-width="0.80" stroke-linecap="butt" stroke-linejoin="miter"/>
<text font-family="DejaVu Sans" font-size="13.89" fill="#000000" fill-opacity="1.00" text-anchor="middle" dominant-baseline="text-before-edge" transform="translate(128.18,56.28) scale(1,-1)">55</text>
<path d="M 204.50 66.50 L 204.50 61.50 " fill="none" fill-opacity="0.00" stroke="#000000" stroke-opacity="1.00" stroke-width="0.80" stroke-linecap="butt" stroke-linejoin="miter"/>
<text font-family="DejaVu Sans" font-size="13.89" fill="#000000" fill-opacity="1.00" text-anchor="middle" dominant-baseline="text-before-edge" transform="translate(204.35,56.28) scale(1,-1)">60</text>
<path d="M 281.50 66.50 L 281.50 61.50 " fill="none" fill-opacity="0.00" stroke="#000000" stroke-opacity="1.00" stroke-width="0.80" stroke-linecap="butt" stroke-linejoin="miter"/>
<text font-family="DejaVu Sans" font-size="13.89" fill="#000000" fill-opacity="1.00" text-anchor="middle" dominant-baseline="text-before-edge" transform="translate(280.52,56.28) scale(1,-1)">65</text>
<path d="M 357.50 66.50 L 357.50 61.50 " fill="none" fill-opacity="0.00" stroke="#000000" stroke-opacity="1.00" stroke-width="0.80" stroke-linecap="butt" stroke-linejoin="miter"/>
<text font-family="DejaVu Sans" font-size="13.89" fill="#000000" fill-opacity="1.00" text-anchor="middle" dominant-baseline="text-before-edge" transform="translate(356.68,56.28) scale(1,-1)">70</text>
<path d="M 433.50 66.50 L 433.50 61.50 " fill="none" fill-opacity="0.00" stroke="#000000" stroke-opacity="1.00" stroke-width="0.80" stroke-linecap="butt" stroke-linejoin="miter"/>
<text font-family="DejaVu Sans" font-size="13.89" fill="#000000" fill-opacity="1.00" text-anchor="middle" dominant-baseline="text-before-edge" transform="translate(432.85,56.28) scale(1,-1)">75</text>
<path d="M 509.50 66.50 L 509.50 61.50 " fill="none" fill-opacity="0.00" stroke="#000000" stroke-opacity="1.00" stroke-width="0.80" stroke-linecap="butt" stroke-linejoin="miter"/>
<text font-family="DejaVu Sans" font-size="13.89" fill="#000000" fill-opacity="1.00" text-anchor="middle" dominant-baseline="text-before-edge" transform="translate(509.02,56.28) scale(1,-1)">80</text>
<path d="M 585.50 66.50 L 585.50 61.50 " fill="none" fill-opacity="0.00" stroke="#000000" stroke-opacity="1.00" stroke-width="0.80" stroke-linecap="butt" stroke-linejoin="miter"/>
<text font-family="DejaVu Sans" font-size="13.89" fill="#000000" fill-opacity="1.00" text-anchor="middle" dominant-baseline="text-before-edge" transform="translate(585.18,56.28) scale(1,-1)">85</text>
<path d="M 661.50 66.50 L 661.50 61.50 " fill="none" fill-opacity="0.00" stroke="#000000" stroke-opacity="1.00" stroke-width="0.80" stroke-linecap="butt" stroke-linejoin="miter"/>
<text font-family="DejaVu Sans" font-size="13.89" fill="#000000" fill-opacity="1.00" text-anchor="middle" dominant-baseline="text-before-edge" transform="translate(661.35,56.28) scale(1,-1)">90</text>
<text font-family="DejaVu Sans" font-size="13.89" fill="#000000" fill-opacity="1.00" text-anchor="middle" dominant-baseline="text-before-edge" transform="translate(410.00,37.17) scale(1,-1)">Score</text>
<path d="M 100.50 142.50 L 95.50 142.50 " fill="none" fill-opacity="0.00" stroke="#000000" stroke-opacity="1.00" stroke-width="0.80" stroke-linecap="butt" stroke-linejoin="miter"/>
<text font-family="DejaVu Sans" font-size="13.89" fill="#000000" fill-opacity="1.00" text-anchor="end" dominant-baseline="central" transform="translate(90.28,143.00) scale(1,-1)">1</text>
<path d="M 100.50 296.50 L 95.50 296.50 " fill="none" fill-opacity="0.00" stroke="#000000" stroke-opacity="1.00" stroke-width="0.80" stroke-linecap="butt" stroke-linejoin="miter"/>
<text font-family="DejaVu Sans" font-size="13.89" fill="#000000" fill-opacity="1.00" text-anchor="end" dominant-baseline="central" transform="translate(90.28,297.00) scale(1,-1)">2</text>
<path d="M 100.50 450.50 L 95.50 450.50 " fill="none" fill-opacity="0.00" stroke="#000000" stroke-opacity="1.00" stroke-width="0.80" stroke-linecap="butt" stroke-linejoin="miter"/>
<text font-family="DejaVu Sans" font-size="13.89" fill="#000000" fill-opacity="1.00" text-anchor="end" dominant-baseline="central" transform="translate(90.28,451.00) scale(1,-1)">3</text>
<text font-family="DejaVu Sans" font-size="13.89" fill="#000000" fill-opacity="1.00" text-anchor="middle" transform="translate(69.97,297.00) rotate(-90.00) scale(1,-1)">Group</text>
<path d="M 100.50 66.50 L 100.50 528.50 " fill="none" fill-opacity="0.00" stroke="#000000" stroke-opacity="1.00" stroke-width="0.80" stroke-linecap="square" stroke-linejoin="miter"/>
<path d="M 720.50 66.50 L 720.50 528.50 " fill="none" fill-opacity="0.00" stroke="#000000" stroke-opacity="1.00" stroke-width="0.80" stroke-linecap="square" stroke-linejoin="miter"/>
<path d="M 100.50 65.50 L 720.50 65.50 " fill="none" fill-opacity="0.00" stroke="#000000" stroke-opacity="1.00" stroke-width="0.80" stroke-linecap="square" stroke-linejoin="miter"/>
<path d="M 100.50 527.50 L 720.50 527.50 " fill="none" fill-opacity="0.00" stroke="#000000" stroke-opacity="1.00" stroke-width="0.80" stroke-linecap="square" stroke-linejoin="miter"/>
</g>
</svg>
