<?xml version="1.0" encoding="UTF-8"?>
<svg xmlns="http://www.w3.org/2000/svg"
     xmlns:xlink="http://www.w3.org/1999/xlink"
     width="800" height="600" viewBox="0 0 800 600">
<defs>
<clipPath id="clip-1">
<rect x="100.00" y="66.00" width="620.00" height="462.00"/>
</clipPath>
<clipPath id="clip-2">
<rect x="100.00" y="66.00" width="620.00" height="462.00"/>
</clipPath>
<clipPath id="clip-3">
<rect x="100.00" y="66.00" width="620.00" height="462.00"/>
</clipPath>
<clipPath id="clip-4">
<rect x="100.00" y="66.00" width="620.00" height="462.00"/>
</clipPath>
<clipPath id="clip-5">
<rect x="100.00" y="66.00" width="620.00" height="462.00"/>
</clipPath>
<clipPath id="clip-6">
<rect x="100.00" y="66.00" width="620.00" height="462.00"/>
</clipPath>
<clipPath id="clip-7">
<rect x="100.00" y="66.00" width="620.00" height="462.00"/>
</clipPath>
<clipPath id="clip-8">
<rect x="100.00" y="66.00" width="620.00" height="462.00"/>
</clipPath>
<clipPath id="clip-9">
<rect x="100.00" y="66.00" width="620.00" height="462.00"/>
</clipPath>
<clipPath id="clip-10">
<rect x="100.00" y="66.00" width="620.00" height="462.00"/>
</clipPath>
<clipPath id="clip-11">
<rect x="100.00" y="66.00" width="620.00" height="462.00"/>
</clipPath>
</defs>
<g transform="translate(0,600) scale(1,-1)">
<rect width="800" height="600" fill="white"/>
<path d="M 0.00 0.00 L 800.00 0.00 L 800.00 600.00 L 0.00 600.00 L 0.00 0.00 Z " fill="#FFFFFF" fill-opacity="1.00" stroke="#000000" stroke-opacity="1.00" stroke-width="0.00" stroke-linecap="butt" stroke-linejoin="miter"/>
<path d="M 100.00 66.00 L 720.00 66.00 L 720.00 528.00 L 100.00 528.00 L 100.00 66.00 Z " fill="#FFFFFF" fill-opacity="1.00" stroke="none" stroke-opacity="0.00" stroke-width="0.00" stroke-linecap="butt" stroke-linejoin="miter"/>
<path d="M 203.50 66.50 L 203.50 528.50 " fill="none" fill-opacity="0.00" stroke="#B0B0B0" stroke-opacity="1.00" stroke-width="0.80" stroke-linecap="butt" stroke-linejoin="miter" clip-path="url(#clip-1)"/>
<path d="M 410.50 66.50 L 410.50 528.50 " fill="none" fill-opacity="0.00" stroke="#B0B0B0" stroke-opacity="1.00" stroke-width="0.80" stroke-linecap="butt" stroke-linejoin="miter" clip-path="url(#clip-2)"/>
<path d="M 617.50 66.50 L 617.50 528.50 " fill="none" fill-opacity="0.00" stroke="#B0B0B0" stroke-opacity="1.00" stroke-width="0.80" stroke-linecap="butt" stroke-linejoin="miter" clip-path="url(#clip-3)"/>
<path d="M 100.50 119.50 L 720.50 119.50 " fill="none" fill-opacity="0.00" stroke="#B0B0B0" stroke-opacity="1.00" stroke-width="0.80" stroke-linecap="butt" stroke-linejoin="miter" clip-path="url(#clip-4)"/>
<path d="M 100.50 174.50 L 720.50 174.50 " fill="none" fill-opacity="0.00" stroke="#B0B0B0" stroke-opacity="1.00" stroke-width="0.80" stroke-linecap="butt" stroke-linejoin="miter" clip-path="url(#clip-5)"/>
<path d="M 100.50 230.50 L 720.50 230.50 " fill="none" fill-opacity="0.00" stroke="#B0B0B0" stroke-opacity="1.00" stroke-width="0.80" stroke-linecap="butt" stroke-linejoin="miter" clip-path="url(#clip-6)"/>
<path d="M 100.50 285.50 L 720.50 285.50 " fill="none" fill-opacity="0.00" stroke="#B0B0B0" stroke-opacity="1.00" stroke-width="0.80" stroke-linecap="butt" stroke-linejoin="miter" clip-path="url(#clip-7)"/>
<path d="M 100.50 340.50 L 720.50 340.50 " fill="none" fill-opacity="0.00" stroke="#B0B0B0" stroke-opacity="1.00" stroke-width="0.80" stroke-linecap="butt" stroke-linejoin="miter" clip-path="url(#clip-8)"/>
<path d="M 100.50 395.50 L 720.50 395.50 " fill="none" fill-opacity="0.00" stroke="#B0B0B0" stroke-opacity="1.00" stroke-width="0.80" stroke-linecap="butt" stroke-linejoin="miter" clip-path="url(#clip-9)"/>
<path d="M 100.50 451.50 L 720.50 451.50 " fill="none" fill-opacity="0.00" stroke="#B0B0B0" stroke-opacity="1.00" stroke-width="0.80" stroke-linecap="butt" stroke-linejoin="miter" clip-path="url(#clip-10)"/>
<path d="M 100.50 506.50 L 720.50 506.50 " fill="none" fill-opacity="0.00" stroke="#B0B0B0" stroke-opacity="1.00" stroke-width="0.80" stroke-linecap="butt" stroke-linejoin="miter" clip-path="url(#clip-11)"/>
<path d="M 630.14 232.89 L 631.01 234.86 L 631.89 236.82 L 632.79 238.79 L 633.70 240.75 L 634.63 242.72 L 635.57 244.68 L 636.51 246.65 L 637.47 248.61 L 638.43 250.58 L 639.40 252.54 L 640.37 254.51 L 641.35 256.47 L 642.33 258.44 L 643.31 260.40 L 644.30 262.37 L 645.28 264.33 L 646.27 266.30 L 647.25 268.26 L 648.24 270.23 L 649.22 272.19 L 650.19 274.16 L 651.16 276.12 L 652.13 278.09 L 653.08 280.05 L 654.03 282.02 L 654.96 283.98 L 655.89 285.95 L 656.79 287.91 L 657.68 289.88 L 658.56 291.84 L 659.41 293.81 L 660.23 295.77 L 661.04 297.74 L 661.81 299.70 L 662.55 301.67 L 663.27 303.63 L 663.94 305.60 L 664.58 307.56 L 665.17 309.53 L 665.72 311.49 L 666.23 313.46 L 666.68 315.42 L 667.09 317.39 L 667.44 319.35 L 667.73 321.32 L 667.97 323.28 L 668.15 325.25 L 668.27 327.21 L 668.33 329.18 L 668.33 331.14 L 668.27 333.11 L 668.15 335.07 L 667.97 337.04 L 667.73 339.00 L 667.44 340.96 L 667.09 342.93 L 666.68 344.89 L 666.23 346.86 L 665.72 348.82 L 665.17 350.79 L 664.58 352.75 L 663.94 354.72 L 663.27 356.68 L 662.55 358.65 L 661.81 360.61 L 661.04 362.58 L 660.23 364.54 L 659.41 366.51 L 658.56 368.47 L 657.68 370.44 L 656.79 372.40 L 655.89 374.37 L 654.96 376.33 L 654.03 378.30 L 653.08 380.26 L 652.13 382.23 L 651.16 384.19 L 650.19 386.16 L 649.22 388.12 L 648.24 390.09 L 647.25 392.05 L 646.27 394.02 L 645.28 395.98 L 644.30 397.95 L 643.31 399.91 L 642.33 401.88 L 641.35 403.84 L 640.37 405.81 L 639.40 407.77 L 638.43 409.74 L 637.47 411.70 L 636.51 413.67 L 635.57 415.63 L 634.63 417.60 L 633.70 419.56 L 632.79 421.53 L 631.89 423.49 L 631.01 425.46 L 630.14 427.42 L 603.19 427.42 L 602.33 425.46 L 601.44 423.49 L 600.54 421.53 L 599.63 419.56 L 598.71 417.60 L 597.77 415.63 L 596.82 413.67 L 595.87 411.70 L 594.90 409.74 L 593.94 407.77 L 592.96 405.81 L 591.99 403.84 L 591.00 401.88 L 590.02 399.91 L 589.04 397.95 L 588.05 395.98 L 587.06 394.02 L 586.08 392.05 L 585.10 390.09 L 584.12 388.12 L 583.14 386.16 L 582.17 384.19 L 581.21 382.23 L 580.25 380.26 L 579.30 378.30 L 578.37 376.33 L 577.45 374.37 L 576.54 372.40 L 575.65 370.44 L 574.78 368.47 L 573.93 366.51 L 573.10 364.54 L 572.30 362.58 L 571.52 360.61 L 570.78 358.65 L 570.07 356.68 L 569.39 354.72 L 568.76 352.75 L 568.16 350.79 L 567.61 348.82 L 567.11 346.86 L 566.65 344.89 L 566.25 342.93 L 565.90 340.96 L 565.60 339.00 L 565.36 337.04 L 565.18 335.07 L 565.06 333.11 L 565.00 331.14 L 565.00 329.18 L 565.06 327.21 L 565.18 325.25 L 565.36 323.28 L 565.60 321.32 L 565.90 319.35 L 566.25 317.39 L 566.65 315.42 L 567.11 313.46 L 567.61 311.49 L 568.16 309.53 L 568.76 307.56 L 569.39 305.60 L 570.07 303.63 L 570.78 301.67 L 571.52 299.70 L 572.30 297.74 L 573.10 295.77 L 573.93 293.81 L 574.78 291.84 L 575.65 289.88 L 576.54 287.91 L 577.45 285.95 L 578.37 283.98 L 579.30 282.02 L 580.25 280.05 L 581.21 278.09 L 582.17 276.12 L 583.14 274.16 L 584.12 272.19 L 585.10 270.23 L 586.08 268.26 L 587.06 266.30 L 588.05 264.33 L 589.04 262.37 L 590.02 260.40 L 591.00 258.44 L 591.99 256.47 L 592.96 254.51 L 593.94 252.54 L 594.90 250.58 L 595.87 248.61 L 596.82 246.65 L 597.77 244.68 L 598.71 242.72 L 599.63 240.75 L 600.54 238.79 L 601.44 236.82 L 602.33 234.86 L 603.19 232.89 Z " fill="#1F77B4" fill-opacity="0.70" stroke="#000000" stroke-opacity="0.70" stroke-width="1.00" stroke-linecap="butt" stroke-linejoin="miter"/>
<path d="M 448.78 67.11 L 450.14 71.53 L 451.45 75.95 L 452.71 80.37 L 453.92 84.79 L 455.05 89.21 L 456.12 93.63 L 457.10 98.05 L 458.01 102.47 L 458.82 106.89 L 459.54 111.32 L 460.15 115.74 L 460.67 120.16 L 461.08 124.58 L 461.39 129.00 L 461.58 133.42 L 461.67 137.84 L 461.64 142.26 L 461.51 146.68 L 461.27 151.11 L 460.93 155.53 L 460.48 159.95 L 459.94 164.37 L 459.30 168.79 L 458.58 173.21 L 457.78 177.63 L 456.90 182.05 L 455.95 186.47 L 454.94 190.89 L 453.88 195.32 L 452.78 199.74 L 451.64 204.16 L 450.47 208.58 L 449.28 213.00 L 448.08 217.42 L 446.88 221.84 L 445.68 226.26 L 444.50 230.68 L 443.34 235.11 L 442.21 239.53 L 441.12 243.95 L 440.08 248.37 L 439.08 252.79 L 438.15 257.21 L 437.27 261.63 L 436.46 266.05 L 435.73 270.47 L 435.07 274.89 L 434.49 279.32 L 433.99 283.74 L 433.57 288.16 L 433.24 292.58 L 432.99 297.00 L 432.82 301.42 L 432.74 305.84 L 432.73 310.26 L 432.81 314.68 L 432.96 319.11 L 433.18 323.53 L 433.48 327.95 L 433.83 332.37 L 434.24 336.79 L 434.71 341.21 L 435.23 345.63 L 435.78 350.05 L 436.37 354.47 L 436.99 358.89 L 437.62 363.32 L 438.28 367.74 L 438.93 372.16 L 439.59 376.58 L 440.24 381.00 L 440.88 385.42 L 441.49 389.84 L 442.08 394.26 L 442.63 398.68 L 443.14 403.11 L 443.61 407.53 L 444.02 411.95 L 444.38 416.37 L 444.68 420.79 L 444.91 425.21 L 445.08 429.63 L 445.18 434.05 L 445.21 438.47 L 445.16 442.89 L 445.04 447.32 L 444.85 451.74 L 444.59 456.16 L 444.25 460.58 L 443.84 465.00 L 443.37 469.42 L 442.83 473.84 L 442.22 478.26 L 441.56 482.68 L 440.84 487.11 L 440.07 491.53 L 439.26 495.95 L 438.40 500.37 L 437.51 504.79 L 382.49 504.79 L 381.60 500.37 L 380.74 495.95 L 379.93 491.53 L 379.16 487.11 L 378.44 482.68 L 377.78 478.26 L 377.17 473.84 L 376.63 469.42 L 376.16 465.00 L 375.75 460.58 L 375.41 456.16 L 375.15 451.74 L 374.96 447.32 L 374.84 442.89 L 374.79 438.47 L 374.82 434.05 L 374.92 429.63 L 375.09 425.21 L 375.32 420.79 L 375.62 416.37 L 375.98 411.95 L 376.39 407.53 L 376.86 403.11 L 377.37 398.68 L 377.92 394.26 L 378.51 389.84 L 379.12 385.42 L 379.76 381.00 L 380.41 376.58 L 381.07 372.16 L 381.72 367.74 L 382.38 363.32 L 383.01 358.89 L 383.63 354.47 L 384.22 350.05 L 384.77 345.63 L 385.29 341.21 L 385.76 336.79 L 386.17 332.37 L 386.52 327.95 L 386.82 323.53 L 387.04 319.11 L 387.19 314.68 L 387.27 310.26 L 387.26 305.84 L 387.18 301.42 L 387.01 297.00 L 386.76 292.58 L 386.43 288.16 L 386.01 283.74 L 385.51 279.32 L 384.93 274.89 L 384.27 270.47 L 383.54 266.05 L 382.73 261.63 L 381.85 257.21 L 380.92 252.79 L 379.92 248.37 L 378.88 243.95 L 377.79 239.53 L 376.66 235.11 L 375.50 230.68 L 374.32 226.26 L 373.12 221.84 L 371.92 217.42 L 370.72 213.00 L 369.53 208.58 L 368.36 204.16 L 367.22 199.74 L 366.12 195.32 L 365.06 190.89 L 364.05 186.47 L 363.10 182.05 L 362.22 177.63 L 361.42 173.21 L 360.70 168.79 L 360.06 164.37 L 359.52 159.95 L 359.07 155.53 L 358.73 151.11 L 358.49 146.68 L 358.36 142.26 L 358.33 137.84 L 358.42 133.42 L 358.61 129.00 L 358.92 124.58 L 359.33 120.16 L 359.85 115.74 L 360.46 111.32 L 361.18 106.89 L 361.99 102.47 L 362.90 98.05 L 363.88 93.63 L 364.95 89.21 L 366.08 84.79 L 367.29 80.37 L 368.55 75.95 L 369.86 71.53 L 371.22 67.11 Z " fill="#1F77B4" fill-opacity="0.70" stroke="#000000" stroke-opacity="0.70" stroke-width="1.00" stroke-linecap="butt" stroke-linejoin="miter"/>
<path d="M 218.09 112.42 L 218.98 116.60 L 219.88 120.77 L 220.79 124.95 L 221.72 129.12 L 222.65 133.30 L 223.59 137.47 L 224.54 141.65 L 225.49 145.82 L 226.44 150.00 L 227.40 154.18 L 228.36 158.35 L 229.31 162.53 L 230.27 166.70 L 231.23 170.88 L 232.19 175.05 L 233.15 179.23 L 234.10 183.40 L 235.05 187.58 L 236.00 191.75 L 236.93 195.93 L 237.87 200.11 L 238.79 204.28 L 239.70 208.46 L 240.60 212.63 L 241.49 216.81 L 242.36 220.98 L 243.22 225.16 L 244.05 229.33 L 244.86 233.51 L 245.65 237.68 L 246.41 241.86 L 247.14 246.04 L 247.85 250.21 L 248.52 254.39 L 249.16 258.56 L 249.77 262.74 L 250.35 266.91 L 250.89 271.09 L 251.39 275.26 L 251.86 279.44 L 252.29 283.61 L 252.69 287.79 L 253.06 291.96 L 253.39 296.14 L 253.69 300.32 L 253.95 304.49 L 254.19 308.67 L 254.39 312.84 L 254.56 317.02 L 254.71 321.19 L 254.82 325.37 L 254.91 329.54 L 254.97 333.72 L 255.00 337.89 L 255.00 342.07 L 254.98 346.25 L 254.92 350.42 L 254.84 354.60 L 254.73 358.77 L 254.59 362.95 L 254.42 367.12 L 254.21 371.30 L 253.97 375.47 L 253.70 379.65 L 253.39 383.82 L 253.04 388.00 L 252.65 392.18 L 252.22 396.35 L 251.75 400.53 L 251.24 404.70 L 250.68 408.88 L 250.07 413.05 L 249.42 417.23 L 248.72 421.40 L 247.98 425.58 L 247.19 429.75 L 246.35 433.93 L 245.47 438.11 L 244.54 442.28 L 243.57 446.46 L 242.56 450.63 L 241.51 454.81 L 240.42 458.98 L 239.30 463.16 L 238.15 467.33 L 236.98 471.51 L 235.78 475.68 L 234.55 479.86 L 233.32 484.04 L 232.07 488.21 L 230.81 492.39 L 229.55 496.56 L 228.29 500.74 L 227.04 504.91 L 225.79 509.09 L 224.56 513.26 L 223.34 517.44 L 222.15 521.61 L 220.98 525.79 L 185.69 525.79 L 184.52 521.61 L 183.32 517.44 L 182.11 513.26 L 180.87 509.09 L 179.63 504.91 L 178.37 500.74 L 177.11 496.56 L 175.85 492.39 L 174.60 488.21 L 173.35 484.04 L 172.11 479.86 L 170.89 475.68 L 169.69 471.51 L 168.51 467.33 L 167.36 463.16 L 166.24 458.98 L 165.16 454.81 L 164.11 450.63 L 163.10 446.46 L 162.13 442.28 L 161.20 438.11 L 160.32 433.93 L 159.48 429.75 L 158.69 425.58 L 157.94 421.40 L 157.25 417.23 L 156.59 413.05 L 155.99 408.88 L 155.43 404.70 L 154.91 400.53 L 154.44 396.35 L 154.01 392.18 L 153.63 388.00 L 153.28 383.82 L 152.97 379.65 L 152.69 375.47 L 152.45 371.30 L 152.25 367.12 L 152.08 362.95 L 151.94 358.77 L 151.83 354.60 L 151.74 350.42 L 151.69 346.25 L 151.67 342.07 L 151.67 337.89 L 151.70 333.72 L 151.76 329.54 L 151.85 325.37 L 151.96 321.19 L 152.10 317.02 L 152.28 312.84 L 152.48 308.67 L 152.71 304.49 L 152.98 300.32 L 153.28 296.14 L 153.61 291.96 L 153.97 287.79 L 154.37 283.61 L 154.81 279.44 L 155.28 275.26 L 155.78 271.09 L 156.32 266.91 L 156.89 262.74 L 157.50 258.56 L 158.14 254.39 L 158.82 250.21 L 159.52 246.04 L 160.26 241.86 L 161.02 237.68 L 161.81 233.51 L 162.62 229.33 L 163.45 225.16 L 164.30 220.98 L 165.17 216.81 L 166.06 212.63 L 166.96 208.46 L 167.88 204.28 L 168.80 200.11 L 169.73 195.93 L 170.67 191.75 L 171.62 187.58 L 172.57 183.40 L 173.52 179.23 L 174.48 175.05 L 175.43 170.88 L 176.39 166.70 L 177.35 162.53 L 178.31 158.35 L 179.27 154.18 L 180.23 150.00 L 181.18 145.82 L 182.13 141.65 L 183.08 137.47 L 184.02 133.30 L 184.95 129.12 L 185.87 124.95 L 186.79 120.77 L 187.69 116.60 L 188.58 112.42 Z " fill="#1F77B4" fill-opacity="0.70" stroke="#000000" stroke-opacity="0.70" stroke-width="1.00" stroke-linecap="butt" stroke-linejoin="miter"/>
<path d="M 591.50 419.50 L 642.50 419.50 " fill="none" fill-opacity="0.00" stroke="#000000" stroke-opacity="1.00" stroke-width="1.00" stroke-linecap="square" stroke-linejoin="round"/>
<path d="M 591.50 242.50 L 642.50 242.50 " fill="none" fill-opacity="0.00" stroke="#000000" stroke-opacity="1.00" stroke-width="1.00" stroke-linecap="square" stroke-linejoin="round"/>
<path d="M 565.50 330.50 L 668.50 330.50 " fill="none" fill-opacity="0.00" stroke="#FFFFFF" stroke-opacity="1.00" stroke-width="2.00" stroke-linecap="square" stroke-linejoin="round"/>
<path d="M 384.50 485.50 L 436.50 485.50 " fill="none" fill-opacity="0.00" stroke="#000000" stroke-opacity="1.00" stroke-width="1.00" stroke-linecap="square" stroke-linejoin="round"/>
<path d="M 384.50 87.50 L 436.50 87.50 " fill="none" fill-opacity="0.00" stroke="#000000" stroke-opacity="1.00" stroke-width="1.00" stroke-linecap="square" stroke-linejoin="round"/>
<path d="M 358.50 175.50 L 462.50 175.50 " fill="none" fill-opacity="0.00" stroke="#FFFFFF" stroke-opacity="1.00" stroke-width="2.00" stroke-linecap="square" stroke-linejoin="round"/>
<path d="M 177.50 507.50 L 229.50 507.50 " fill="none" fill-opacity="0.00" stroke="#000000" stroke-opacity="1.00" stroke-width="1.00" stroke-linecap="square" stroke-linejoin="round"/>
<path d="M 177.50 131.50 L 229.50 131.50 " fill="none" fill-opacity="0.00" stroke="#000000" stroke-opacity="1.00" stroke-width="1.00" stroke-linecap="square" stroke-linejoin="round"/>
<path d="M 152.50 330.50 L 255.50 330.50 " fill="none" fill-opacity="0.00" stroke="#FFFFFF" stroke-opacity="1.00" stroke-width="2.00" stroke-linecap="square" stroke-linejoin="round"/>
<text font-family="DejaVu Sans" font-size="16.67" fill="#000000" fill-opacity="1.00" text-anchor="middle" transform="translate(410.00,537.33) scale(1,-1)">Violin Plot — Distribution Comparison</text>
<path d="M 203.50 66.50 L 203.50 61.50 " fill="none" fill-opacity="0.00" stroke="#000000" stroke-opacity="1.00" stroke-width="0.80" stroke-linecap="butt" stroke-linejoin="miter"/>
<text font-family="DejaVu Sans" font-size="13.89" fill="#000000" fill-opacity="1.00" text-anchor="middle" dominant-baseline="text-before-edge" transform="translate(203.33,56.28) scale(1,-1)">1</text>
<path d="M 410.50 66.50 L 410.50 61.50 " fill="none" fill-opacity="0.00" stroke="#000000" stroke-opacity="1.00" stroke-width="0.80" stroke-linecap="butt" stroke-linejoin="miter"/>
<text font-family="DejaVu Sans" font-size="13.89" fill="#000000" fill-opacity="1.00" text-anchor="middle" dominant-baseline="text-before-edge" transform="translate(410.00,56.28) scale(1,-1)">2</text>
<path d="M 617.50 66.50 L 617.50 61.50 " fill="none" fill-opacity="0.00" stroke="#000000" stroke-opacity="1.00" stroke-width="0.80" stroke-linecap="butt" stroke-linejoin="miter"/>
<text font-family="DejaVu Sans" font-size="13.89" fill="#000000" fill-opacity="1.00" text-anchor="middle" dominant-baseline="text-before-edge" transform="translate(616.67,56.28) scale(1,-1)">3</text>
<text font-family="DejaVu Sans" font-size="13.89" fill="#000000" fill-opacity="1.00" text-anchor="middle" dominant-baseline="text-before-edge" transform="translate(410.00,37.17) scale(1,-1)">Group</text>
<path d="M 100.50 119.50 L 95.50 119.50 " fill="none" fill-opacity="0.00" stroke="#000000" stroke-opacity="1.00" stroke-width="0.80" stroke-linecap="butt" stroke-linejoin="miter"/>
<text font-family="DejaVu Sans" font-size="13.89" fill="#000000" fill-opacity="1.00" text-anchor="end" dominant-baseline="central" transform="translate(90.28,120.16) scale(1,-1)">2.5</text>
<path d="M 100.50 174.50 L 95.50 174.50 " fill="none" fill-opacity="0.00" stroke="#000000" stroke-opacity="1.00" stroke-width="0.80" stroke-linecap="butt" stroke-linejoin="miter"/>
<text font-family="DejaVu Sans" font-size="13.89" fill="#000000" fill-opacity="1.00" text-anchor="end" dominant-baseline="central" transform="translate(90.28,175.42) scale(1,-1)">5.0</text>
<path d="M 100.50 230.50 L 95.50 230.50 " fill="none" fill-opacity="0.00" stroke="#000000" stroke-opacity="1.00" stroke-width="0.80" stroke-linecap="butt" stroke-linejoin="miter"/>
<text font-family="DejaVu Sans" font-size="13.89" fill="#000000" fill-opacity="1.00" text-anchor="end" dominant-baseline="central" transform="translate(90.28,230.68) scale(1,-1)">7.5</text>
<path d="M 100.50 285.50 L 95.50 285.50 " fill="none" fill-opacity="0.00" stroke="#000000" stroke-opacity="1.00" stroke-width="0.80" stroke-linecap="butt" stroke-linejoin="miter"/>
<text font-family="DejaVu Sans" font-size="13.89" fill="#000000" fill-opacity="1.00" text-anchor="end" dominant-baseline="central" transform="translate(90.28,285.95) scale(1,-1)">10.0</text>
<path d="M 100.50 340.50 L 95.50 340.50 " fill="none" fill-opacity="0.00" stroke="#000000" stroke-opacity="1.00" stroke-width="0.80" stroke-linecap="butt" stroke-linejoin="miter"/>
<text font-family="DejaVu Sans" font-size="13.89" fill="#000000" fill-opacity="1.00" text-anchor="end" dominant-baseline="central" transform="translate(90.28,341.21) scale(1,-1)">12.5</text>
<path d="M 100.50 395.50 L 95.50 395.50 " fill="none" fill-opacity="0.00" stroke="#000000" stroke-opacity="1.00" stroke-width="0.80" stroke-linecap="butt" stroke-linejoin="miter"/>
<text font-family="DejaVu Sans" font-size="13.89" fill="#000000" fill-opacity="1.00" text-anchor="end" dominant-baseline="central" transform="translate(90.28,396.47) scale(1,-1)">15.0</text>
<path d="M 100.50 451.50 L 95.50 451.50 " fill="none" fill-opacity="0.00" stroke="#000000" stroke-opacity="1.00" stroke-width="0.80" stroke-linecap="butt" stroke-linejoin="miter"/>
<text font-family="DejaVu Sans" font-size="13.89" fill="#000000" fill-opacity="1.00" text-anchor="end" dominant-baseline="central" transform="translate(90.28,451.74) scale(1,-1)">17.5</text>
<path d="M 100.50 506.50 L 95.50 506.50 " fill="none" fill-opacity="0.00" stroke="#000000" stroke-opacity="1.00" stroke-width="0.80" stroke-linecap="butt" stroke-linejoin="miter"/>
<text font-family="DejaVu Sans" font-size="13.89" fill="#000000" fill-opacity="1.00" text-anchor="end" dominant-baseline="central" transform="translate(90.28,507.00) scale(1,-1)">20.0</text>
<text font-family="DejaVu Sans" font-size="13.89" fill="#000000" fill-opacity="1.00" text-anchor="middle" transform="translate(47.65,297.00) rotate(-90.00) scale(1,-1)">Value</text>
<path d="M 100.50 66.50 L 100.50 528.50 " fill="none" fill-opacity="0.00" stroke="#000000" stroke-opacity="1.00" stroke-width="0.80" stroke-linecap="square" stroke-linejoin="miter"/>
<path d="M 720.50 66.50 L 720.50 528.50 " fill="none" fill-opacity="0.00" stroke="#000000" stroke-opacity="1.00" stroke-width="0.80" stroke-linecap="square" stroke-linejoin="miter"/>
<path d="M 100.50 65.50 L 720.50 65.50 " fill="none" fill-opacity="0.00" stroke="#000000" stroke-opacity="1.00" stroke-width="0.80" stroke-linecap="square" stroke-linejoin="miter"/>
<path d="M 100.50 527.50 L 720.50 527.50 " fill="none" fill-opacity="0.00" stroke="#000000" stroke-opacity="1.00" stroke-width="0.80" stroke-linecap="square" stroke-linejoin="miter"/>
</g>
</svg>
