<?xml version="1.0" encoding="UTF-8"?>
<svg xmlns="http://www.w3.org/2000/svg"
     xmlns:xlink="http://www.w3.org/1999/xlink"
     width="800" height="500" viewBox="0 0 800 500">
<defs>
<clipPath id="clip-1">
<rect x="100.00" y="55.00" width="620.00" height="385.00"/>
</clipPath>
<clipPath id="clip-2">
<rect x="100.00" y="55.00" width="620.00" height="385.00"/>
</clipPath>
<clipPath id="clip-3">
<rect x="100.00" y="55.00" width="620.00" height="385.00"/>
</clipPath>
<clipPath id="clip-4">
<rect x="100.00" y="55.00" width="620.00" height="385.00"/>
</clipPath>
<clipPath id="clip-5">
<rect x="100.00" y="55.00" width="620.00" height="385.00"/>
</clipPath>
<clipPath id="clip-6">
<rect x="100.00" y="55.00" width="620.00" height="385.00"/>
</clipPath>
<clipPath id="clip-7">
<rect x="100.00" y="55.00" width="620.00" height="385.00"/>
</clipPath>
<clipPath id="clip-8">
<rect x="100.00" y="55.00" width="620.00" height="385.00"/>
</clipPath>
<clipPath id="clip-9">
<rect x="100.00" y="55.00" width="620.00" height="385.00"/>
</clipPath>
<clipPath id="clip-10">
<rect x="100.00" y="55.00" width="620.00" height="385.00"/>
</clipPath>
<clipPath id="clip-11">
<rect x="100.00" y="55.00" width="620.00" height="385.00"/>
</clipPath>
<clipPath id="clip-12">
<rect x="100.00" y="55.00" width="620.00" height="385.00"/>
</clipPath>
<clipPath id="clip-13">
<rect x="100.00" y="55.00" width="620.00" height="385.00"/>
</clipPath>
</defs>
<g transform="translate(0,500) scale(1,-1)">
<rect width="800" height="500" fill="white"/>
<path d="M 0.00 0.00 L 800.00 0.00 L 800.00 500.00 L 0.00 500.00 L 0.00 0.00 Z " fill="#FFFFFF" fill-opacity="1.00" stroke="#000000" stroke-opacity="1.00" stroke-width="0.00" stroke-linecap="butt" stroke-linejoin="miter"/>
<path d="M 100.00 55.00 L 720.00 55.00 L 720.00 440.00 L 100.00 440.00 L 100.00 55.00 Z " fill="#FFFFFF" fill-opacity="1.00" stroke="none" stroke-opacity="0.00" stroke-width="0.00" stroke-linecap="butt" stroke-linejoin="miter"/>
<path d="M 128.18 289.84 L 139.68 332.18 L 151.19 369.73 L 162.69 398.78 L 174.19 416.75 L 185.70 422.50 L 197.20 416.50 L 208.70 400.64 L 220.20 379.23 L 231.71 357.48 L 243.21 335.78 L 254.71 317.00 L 266.22 303.00 L 277.72 294.42 L 289.22 290.61 L 300.72 289.83 L 312.23 289.66 L 323.73 287.45 L 335.23 280.94 L 346.73 268.66 L 358.24 250.34 L 369.74 227.01 L 381.24 200.94 L 392.75 175.31 L 404.25 157.67 L 415.75 147.84 L 427.25 148.03 L 438.76 159.71 L 450.26 182.86 L 461.76 215.93 L 473.27 255.96 L 484.77 299.02 L 496.27 340.69 L 507.77 376.72 L 519.28 403.59 L 530.78 419.00 L 542.28 422.16 L 553.78 413.87 L 565.29 396.28 L 576.79 374.77 L 588.29 352.76 L 599.80 331.47 L 611.30 313.59 L 622.80 300.73 L 634.30 293.26 L 645.81 290.26 L 657.31 289.83 L 668.81 289.44 L 680.32 286.50 L 691.82 278.84 L 691.82 197.38 L 680.32 203.06 L 668.81 204.86 L 657.31 204.97 L 645.81 206.00 L 634.30 210.45 L 622.80 220.17 L 611.30 235.98 L 599.80 257.39 L 588.29 282.64 L 576.79 308.89 L 565.29 330.52 L 553.78 343.88 L 542.28 348.20 L 530.78 341.49 L 519.28 323.11 L 507.77 293.97 L 496.27 256.46 L 484.77 214.16 L 473.27 171.36 L 461.76 132.45 L 450.26 101.33 L 438.76 80.86 L 427.25 72.50 L 415.75 76.12 L 404.25 90.10 L 392.75 111.26 L 381.24 132.60 L 369.74 154.57 L 358.24 174.16 L 346.73 189.27 L 335.23 198.99 L 323.73 203.71 L 312.23 204.94 L 300.72 205.02 L 289.22 206.58 L 277.72 212.03 L 266.22 223.02 L 254.71 240.10 L 243.21 262.52 L 231.71 288.25 L 220.20 314.26 L 208.70 333.98 L 197.20 345.64 L 185.70 347.74 L 174.19 338.56 L 162.69 317.76 L 151.19 286.60 L 139.68 247.74 L 128.18 204.96 Z " fill="#0000FF" fill-opacity="0.30" stroke="#000000" stroke-opacity="0.00" stroke-width="0.00" stroke-linecap="butt" stroke-linejoin="miter"/>
<path d="M 128.50 55.50 L 128.50 440.50 " fill="none" fill-opacity="0.00" stroke="#B0B0B0" stroke-opacity="1.00" stroke-width="0.80" stroke-linecap="butt" stroke-linejoin="miter" clip-path="url(#clip-1)"/>
<path d="M 241.50 55.50 L 241.50 440.50 " fill="none" fill-opacity="0.00" stroke="#B0B0B0" stroke-opacity="1.00" stroke-width="0.80" stroke-linecap="butt" stroke-linejoin="miter" clip-path="url(#clip-2)"/>
<path d="M 354.50 55.50 L 354.50 440.50 " fill="none" fill-opacity="0.00" stroke="#B0B0B0" stroke-opacity="1.00" stroke-width="0.80" stroke-linecap="butt" stroke-linejoin="miter" clip-path="url(#clip-3)"/>
<path d="M 466.50 55.50 L 466.50 440.50 " fill="none" fill-opacity="0.00" stroke="#B0B0B0" stroke-opacity="1.00" stroke-width="0.80" stroke-linecap="butt" stroke-linejoin="miter" clip-path="url(#clip-4)"/>
<path d="M 579.50 55.50 L 579.50 440.50 " fill="none" fill-opacity="0.00" stroke="#B0B0B0" stroke-opacity="1.00" stroke-width="0.80" stroke-linecap="butt" stroke-linejoin="miter" clip-path="url(#clip-5)"/>
<path d="M 692.50 55.50 L 692.50 440.50 " fill="none" fill-opacity="0.00" stroke="#B0B0B0" stroke-opacity="1.00" stroke-width="0.80" stroke-linecap="butt" stroke-linejoin="miter" clip-path="url(#clip-6)"/>
<path d="M 100.50 87.50 L 720.50 87.50 " fill="none" fill-opacity="0.00" stroke="#B0B0B0" stroke-opacity="1.00" stroke-width="0.80" stroke-linecap="butt" stroke-linejoin="miter" clip-path="url(#clip-7)"/>
<path d="M 100.50 140.50 L 720.50 140.50 " fill="none" fill-opacity="0.00" stroke="#B0B0B0" stroke-opacity="1.00" stroke-width="0.80" stroke-linecap="butt" stroke-linejoin="miter" clip-path="url(#clip-8)"/>
<path d="M 100.50 193.50 L 720.50 193.50 " fill="none" fill-opacity="0.00" stroke="#B0B0B0" stroke-opacity="1.00" stroke-width="0.80" stroke-linecap="butt" stroke-linejoin="miter" clip-path="url(#clip-9)"/>
<path d="M 100.50 246.50 L 720.50 246.50 " fill="none" fill-opacity="0.00" stroke="#B0B0B0" stroke-opacity="1.00" stroke-width="0.80" stroke-linecap="butt" stroke-linejoin="miter" clip-path="url(#clip-10)"/>
<path d="M 100.50 299.50 L 720.50 299.50 " fill="none" fill-opacity="0.00" stroke="#B0B0B0" stroke-opacity="1.00" stroke-width="0.80" stroke-linecap="butt" stroke-linejoin="miter" clip-path="url(#clip-11)"/>
<path d="M 100.50 352.50 L 720.50 352.50 " fill="none" fill-opacity="0.00" stroke="#B0B0B0" stroke-opacity="1.00" stroke-width="0.80" stroke-linecap="butt" stroke-linejoin="miter" clip-path="url(#clip-12)"/>
<path d="M 100.50 406.50 L 720.50 406.50 " fill="none" fill-opacity="0.00" stroke="#B0B0B0" stroke-opacity="1.00" stroke-width="0.80" stroke-linecap="butt" stroke-linejoin="miter" clip-path="url(#clip-13)"/>
<path d="M 128.18 247.40 L 139.68 289.96 L 151.19 328.16 L 162.69 358.27 L 174.19 377.65 L 185.70 385.12 L 197.20 381.07 L 208.70 367.31 L 220.20 346.75 L 231.71 322.86 L 243.21 299.15 L 254.71 278.55 L 266.22 263.01 L 277.72 253.22 L 289.22 248.60 L 300.72 247.43 L 312.23 247.30 L 323.73 245.58 L 335.23 239.97 L 346.73 228.97 L 358.24 212.25 L 369.74 190.79 L 381.24 166.77 L 392.75 143.29 L 404.25 123.89 L 415.75 111.98 L 427.25 110.26 L 438.76 120.29 L 450.26 142.09 L 461.76 174.19 L 473.27 213.66 L 484.77 256.59 L 496.27 298.58 L 507.77 335.34 L 519.28 363.35 L 530.78 380.24 L 542.28 385.18 L 553.78 378.88 L 565.29 363.40 L 576.79 341.83 L 588.29 317.70 L 599.80 294.43 L 611.30 274.78 L 622.80 260.45 L 634.30 251.85 L 645.81 248.13 L 657.31 247.40 L 668.81 247.15 L 680.32 244.78 L 691.82 238.11 " fill="none" fill-opacity="0.00" stroke="#0000FF" stroke-opacity="1.00" stroke-width="2.00" stroke-linecap="butt" stroke-linejoin="round"/>
<text font-family="DejaVu Sans" font-size="16.67" fill="#000000" fill-opacity="1.00" text-anchor="middle" transform="translate(410.00,449.33) scale(1,-1)">Curve with Error Band</text>
<path d="M 570.46 387.22 L 713.06 387.22 L 713.06 433.06 L 570.46 433.06 L 570.46 387.22 Z " fill="#FFFFFF" fill-opacity="0.80" stroke="#CCCCCC" stroke-opacity="1.00" stroke-width="0.80" stroke-linecap="butt" stroke-linejoin="miter"/>
<path d="M 576.50 421.50 L 604.50 421.50 " fill="none" fill-opacity="0.00" stroke="#0000FF" stroke-opacity="1.00" stroke-width="2.00" stroke-linecap="butt" stroke-linejoin="miter"/>
<text font-family="DejaVu Sans" font-size="13.89" fill="#000000" fill-opacity="1.00" text-anchor="start" dominant-baseline="central" transform="translate(614.91,420.56) scale(1,-1)">Signal</text>
<path d="M 576.02 394.86 L 603.79 394.86 L 603.79 404.58 L 576.02 404.58 L 576.02 394.86 Z " fill="#0000FF" fill-opacity="0.30" stroke="none" stroke-opacity="0.00" stroke-width="0.50" stroke-linecap="butt" stroke-linejoin="miter"/>
<text font-family="DejaVu Sans" font-size="13.89" fill="#000000" fill-opacity="1.00" text-anchor="start" dominant-baseline="central" transform="translate(614.91,399.72) scale(1,-1)">Uncertainty</text>
<path d="M 128.50 55.50 L 128.50 50.50 " fill="none" fill-opacity="0.00" stroke="#000000" stroke-opacity="1.00" stroke-width="0.80" stroke-linecap="butt" stroke-linejoin="miter"/>
<text font-family="DejaVu Sans" font-size="13.89" fill="#000000" fill-opacity="1.00" text-anchor="middle" dominant-baseline="text-before-edge" transform="translate(128.18,45.28) scale(1,-1)">0</text>
<path d="M 241.50 55.50 L 241.50 50.50 " fill="none" fill-opacity="0.00" stroke="#000000" stroke-opacity="1.00" stroke-width="0.80" stroke-linecap="butt" stroke-linejoin="miter"/>
<text font-family="DejaVu Sans" font-size="13.89" fill="#000000" fill-opacity="1.00" text-anchor="middle" dominant-baseline="text-before-edge" transform="translate(240.91,45.28) scale(1,-1)">2</text>
<path d="M 354.50 55.50 L 354.50 50.50 " fill="none" fill-opacity="0.00" stroke="#000000" stroke-opacity="1.00" stroke-width="0.80" stroke-linecap="butt" stroke-linejoin="miter"/>
<text font-family="DejaVu Sans" font-size="13.89" fill="#000000" fill-opacity="1.00" text-anchor="middle" dominant-baseline="text-before-edge" transform="translate(353.64,45.28) scale(1,-1)">4</text>
<path d="M 466.50 55.50 L 466.50 50.50 " fill="none" fill-opacity="0.00" stroke="#000000" stroke-opacity="1.00" stroke-width="0.80" stroke-linecap="butt" stroke-linejoin="miter"/>
<text font-family="DejaVu Sans" font-size="13.89" fill="#000000" fill-opacity="1.00" text-anchor="middle" dominant-baseline="text-before-edge" transform="translate(466.36,45.28) scale(1,-1)">6</text>
<path d="M 579.50 55.50 L 579.50 50.50 " fill="none" fill-opacity="0.00" stroke="#000000" stroke-opacity="1.00" stroke-width="0.80" stroke-linecap="butt" stroke-linejoin="miter"/>
<text font-family="DejaVu Sans" font-size="13.89" fill="#000000" fill-opacity="1.00" text-anchor="middle" dominant-baseline="text-before-edge" transform="translate(579.09,45.28) scale(1,-1)">8</text>
<path d="M 692.50 55.50 L 692.50 50.50 " fill="none" fill-opacity="0.00" stroke="#000000" stroke-opacity="1.00" stroke-width="0.80" stroke-linecap="butt" stroke-linejoin="miter"/>
<text font-family="DejaVu Sans" font-size="13.89" fill="#000000" fill-opacity="1.00" text-anchor="middle" dominant-baseline="text-before-edge" transform="translate(691.82,45.28) scale(1,-1)">10</text>
<text font-family="DejaVu Sans" font-size="13.89" fill="#000000" fill-opacity="1.00" text-anchor="middle" dominant-baseline="text-before-edge" transform="translate(410.00,26.17) scale(1,-1)">x</text>
<path d="M 100.50 87.50 L 95.50 87.50 " fill="none" fill-opacity="0.00" stroke="#000000" stroke-opacity="1.00" stroke-width="0.80" stroke-linecap="butt" stroke-linejoin="miter"/>
<text font-family="DejaVu Sans" font-size="13.89" fill="#000000" fill-opacity="1.00" text-anchor="end" dominant-baseline="central" transform="translate(90.28,88.26) scale(1,-1)">-1.5</text>
<path d="M 100.50 140.50 L 95.50 140.50 " fill="none" fill-opacity="0.00" stroke="#000000" stroke-opacity="1.00" stroke-width="0.80" stroke-linecap="butt" stroke-linejoin="miter"/>
<text font-family="DejaVu Sans" font-size="13.89" fill="#000000" fill-opacity="1.00" text-anchor="end" dominant-baseline="central" transform="translate(90.28,141.30) scale(1,-1)">-1.0</text>
<path d="M 100.50 193.50 L 95.50 193.50 " fill="none" fill-opacity="0.00" stroke="#000000" stroke-opacity="1.00" stroke-width="0.80" stroke-linecap="butt" stroke-linejoin="miter"/>
<text font-family="DejaVu Sans" font-size="13.89" fill="#000000" fill-opacity="1.00" text-anchor="end" dominant-baseline="central" transform="translate(90.28,194.35) scale(1,-1)">-0.5</text>
<path d="M 100.50 246.50 L 95.50 246.50 " fill="none" fill-opacity="0.00" stroke="#000000" stroke-opacity="1.00" stroke-width="0.80" stroke-linecap="butt" stroke-linejoin="miter"/>
<text font-family="DejaVu Sans" font-size="13.89" fill="#000000" fill-opacity="1.00" text-anchor="end" dominant-baseline="central" transform="translate(90.28,247.40) scale(1,-1)">0.0</text>
<path d="M 100.50 299.50 L 95.50 299.50 " fill="none" fill-opacity="0.00" stroke="#000000" stroke-opacity="1.00" stroke-width="0.80" stroke-linecap="butt" stroke-linejoin="miter"/>
<text font-family="DejaVu Sans" font-size="13.89" fill="#000000" fill-opacity="1.00" text-anchor="end" dominant-baseline="central" transform="translate(90.28,300.45) scale(1,-1)">0.5</text>
<path d="M 100.50 352.50 L 95.50 352.50 " fill="none" fill-opacity="0.00" stroke="#000000" stroke-opacity="1.00" stroke-width="0.80" stroke-linecap="butt" stroke-linejoin="miter"/>
<text font-family="DejaVu Sans" font-size="13.89" fill="#000000" fill-opacity="1.00" text-anchor="end" dominant-baseline="central" transform="translate(90.28,353.50) scale(1,-1)">1.0</text>
<path d="M 100.50 406.50 L 95.50 406.50 " fill="none" fill-opacity="0.00" stroke="#000000" stroke-opacity="1.00" stroke-width="0.80" stroke-linecap="butt" stroke-linejoin="miter"/>
<text font-family="DejaVu Sans" font-size="13.89" fill="#000000" fill-opacity="1.00" text-anchor="end" dominant-baseline="central" transform="translate(90.28,406.54) scale(1,-1)">1.5</text>
<text font-family="DejaVu Sans" font-size="13.89" fill="#000000" fill-opacity="1.00" text-anchor="middle" transform="translate(44.51,247.50) rotate(90.00) scale(1,-1)">y</text>
<path d="M 100.50 55.50 L 100.50 440.50 " fill="none" fill-opacity="0.00" stroke="#000000" stroke-opacity="1.00" stroke-width="0.80" stroke-linecap="square" stroke-linejoin="miter"/>
<path d="M 720.50 55.50 L 720.50 440.50 " fill="none" fill-opacity="0.00" stroke="#000000" stroke-opacity="1.00" stroke-width="0.80" stroke-linecap="square" stroke-linejoin="miter"/>
<path d="M 100.50 54.50 L 720.50 54.50 " fill="none" fill-opacity="0.00" stroke="#000000" stroke-opacity="1.00" stroke-width="0.80" stroke-linecap="square" stroke-linejoin="miter"/>
<path d="M 100.50 439.50 L 720.50 439.50 " fill="none" fill-opacity="0.00" stroke="#000000" stroke-opacity="1.00" stroke-width="0.80" stroke-linecap="square" stroke-linejoin="miter"/>
<path d="M 570.46 387.22 L 713.06 387.22 L 713.06 433.06 L 570.46 433.06 L 570.46 387.22 Z " fill="#FFFFFF" fill-opacity="0.80" stroke="#CCCCCC" stroke-opacity="1.00" stroke-width="0.80" stroke-linecap="butt" stroke-linejoin="miter"/>
<path d="M 576.50 421.50 L 604.50 421.50 " fill="none" fill-opacity="0.00" stroke="#0000FF" stroke-opacity="1.00" stroke-width="2.00" stroke-linecap="butt" stroke-linejoin="miter"/>
<text font-family="DejaVu Sans" font-size="13.89" fill="#000000" fill-opacity="1.00" text-anchor="start" dominant-baseline="central" transform="translate(614.91,420.56) scale(1,-1)">Signal</text>
<path d="M 576.02 394.86 L 603.79 394.86 L 603.79 404.58 L 576.02 404.58 L 576.02 394.86 Z " fill="#0000FF" fill-opacity="0.30" stroke="none" stroke-opacity="0.00" stroke-width="0.50" stroke-linecap="butt" stroke-linejoin="miter"/>
<text font-family="DejaVu Sans" font-size="13.89" fill="#000000" fill-opacity="1.00" text-anchor="start" dominant-baseline="central" transform="translate(614.91,399.72) scale(1,-1)">Uncertainty</text>
</g>
</svg>
