<?xml version="1.0" encoding="UTF-8"?>
<svg xmlns="http://www.w3.org/2000/svg"
     xmlns:xlink="http://www.w3.org/1999/xlink"
     width="1000" height="800" viewBox="0 0 1000 800">
<defs>
<clipPath id="clip-1">
<rect x="547.73" y="88.00" width="352.27" height="280.00"/>
</clipPath>
<clipPath id="clip-2">
<rect x="547.73" y="88.00" width="352.27" height="280.00"/>
</clipPath>
<clipPath id="clip-3">
<rect x="547.73" y="88.00" width="352.27" height="280.00"/>
</clipPath>
<clipPath id="clip-4">
<rect x="547.73" y="88.00" width="352.27" height="280.00"/>
</clipPath>
<clipPath id="clip-5">
<rect x="547.73" y="88.00" width="352.27" height="280.00"/>
</clipPath>
<clipPath id="clip-6">
<rect x="547.73" y="88.00" width="352.27" height="280.00"/>
</clipPath>
<clipPath id="clip-7">
<rect x="547.73" y="88.00" width="352.27" height="280.00"/>
</clipPath>
<clipPath id="clip-8">
<rect x="547.73" y="88.00" width="352.27" height="280.00"/>
</clipPath>
<clipPath id="clip-9">
<rect x="547.73" y="88.00" width="352.27" height="280.00"/>
</clipPath>
<clipPath id="clip-10">
<rect x="547.73" y="88.00" width="352.27" height="280.00"/>
</clipPath>
<clipPath id="clip-11">
<rect x="547.73" y="88.00" width="352.27" height="280.00"/>
</clipPath>
<clipPath id="clip-12">
<rect x="547.73" y="88.00" width="352.27" height="280.00"/>
</clipPath>
<clipPath id="clip-13">
<rect x="547.73" y="88.00" width="352.27" height="280.00"/>
</clipPath>
<clipPath id="clip-14">
<rect x="547.73" y="88.00" width="352.27" height="280.00"/>
</clipPath>
<clipPath id="clip-15">
<rect x="125.00" y="88.00" width="352.27" height="280.00"/>
</clipPath>
<clipPath id="clip-16">
<rect x="125.00" y="88.00" width="352.27" height="280.00"/>
</clipPath>
<clipPath id="clip-17">
<rect x="125.00" y="88.00" width="352.27" height="280.00"/>
</clipPath>
<clipPath id="clip-18">
<rect x="125.00" y="88.00" width="352.27" height="280.00"/>
</clipPath>
<clipPath id="clip-19">
<rect x="125.00" y="88.00" width="352.27" height="280.00"/>
</clipPath>
<clipPath id="clip-20">
<rect x="125.00" y="88.00" width="352.27" height="280.00"/>
</clipPath>
<clipPath id="clip-21">
<rect x="125.00" y="88.00" width="352.27" height="280.00"/>
</clipPath>
<clipPath id="clip-22">
<rect x="125.00" y="88.00" width="352.27" height="280.00"/>
</clipPath>
<clipPath id="clip-23">
<rect x="125.00" y="88.00" width="352.27" height="280.00"/>
</clipPath>
<clipPath id="clip-24">
<rect x="125.00" y="88.00" width="352.27" height="280.00"/>
</clipPath>
<clipPath id="clip-25">
<rect x="125.00" y="88.00" width="352.27" height="280.00"/>
</clipPath>
<clipPath id="clip-26">
<rect x="125.00" y="88.00" width="352.27" height="280.00"/>
</clipPath>
<clipPath id="clip-27">
<rect x="125.00" y="88.00" width="352.27" height="280.00"/>
</clipPath>
<clipPath id="clip-28">
<rect x="125.00" y="88.00" width="352.27" height="280.00"/>
</clipPath>
<clipPath id="clip-29">
<rect x="547.73" y="424.00" width="352.27" height="280.00"/>
</clipPath>
<clipPath id="clip-30">
<rect x="547.73" y="424.00" width="352.27" height="280.00"/>
</clipPath>
<clipPath id="clip-31">
<rect x="547.73" y="424.00" width="352.27" height="280.00"/>
</clipPath>
<clipPath id="clip-32">
<rect x="547.73" y="424.00" width="352.27" height="280.00"/>
</clipPath>
<clipPath id="clip-33">
<rect x="547.73" y="424.00" width="352.27" height="280.00"/>
</clipPath>
<clipPath id="clip-34">
<rect x="547.73" y="424.00" width="352.27" height="280.00"/>
</clipPath>
<clipPath id="clip-35">
<rect x="547.73" y="424.00" width="352.27" height="280.00"/>
</clipPath>
<clipPath id="clip-36">
<rect x="547.73" y="424.00" width="352.27" height="280.00"/>
</clipPath>
<clipPath id="clip-37">
<rect x="547.73" y="424.00" width="352.27" height="280.00"/>
</clipPath>
<clipPath id="clip-38">
<rect x="547.73" y="424.00" width="352.27" height="280.00"/>
</clipPath>
<clipPath id="clip-39">
<rect x="547.73" y="424.00" width="352.27" height="280.00"/>
</clipPath>
<clipPath id="clip-40">
<rect x="547.73" y="424.00" width="352.27" height="280.00"/>
</clipPath>
<clipPath id="clip-41">
<rect x="547.73" y="424.00" width="352.27" height="280.00"/>
</clipPath>
<clipPath id="clip-42">
<rect x="547.73" y="424.00" width="352.27" height="280.00"/>
</clipPath>
<clipPath id="clip-43">
<rect x="125.00" y="424.00" width="352.27" height="280.00"/>
</clipPath>
<clipPath id="clip-44">
<rect x="125.00" y="424.00" width="352.27" height="280.00"/>
</clipPath>
<clipPath id="clip-45">
<rect x="125.00" y="424.00" width="352.27" height="280.00"/>
</clipPath>
<clipPath id="clip-46">
<rect x="125.00" y="424.00" width="352.27" height="280.00"/>
</clipPath>
<clipPath id="clip-47">
<rect x="125.00" y="424.00" width="352.27" height="280.00"/>
</clipPath>
<clipPath id="clip-48">
<rect x="125.00" y="424.00" width="352.27" height="280.00"/>
</clipPath>
<clipPath id="clip-49">
<rect x="125.00" y="424.00" width="352.27" height="280.00"/>
</clipPath>
<clipPath id="clip-50">
<rect x="125.00" y="424.00" width="352.27" height="280.00"/>
</clipPath>
<clipPath id="clip-51">
<rect x="125.00" y="424.00" width="352.27" height="280.00"/>
</clipPath>
<clipPath id="clip-52">
<rect x="125.00" y="424.00" width="352.27" height="280.00"/>
</clipPath>
<clipPath id="clip-53">
<rect x="125.00" y="424.00" width="352.27" height="280.00"/>
</clipPath>
<clipPath id="clip-54">
<rect x="125.00" y="424.00" width="352.27" height="280.00"/>
</clipPath>
<clipPath id="clip-55">
<rect x="125.00" y="424.00" width="352.27" height="280.00"/>
</clipPath>
<clipPath id="clip-56">
<rect x="125.00" y="424.00" width="352.27" height="280.00"/>
</clipPath>
</defs>
<g transform="translate(0,800) scale(1,-1)">
<rect width="1000" height="800" fill="white"/>
<path d="M 0.00 0.00 L 1000.00 0.00 L 1000.00 800.00 L 0.00 800.00 L 0.00 0.00 Z " fill="#FFFFFF" fill-opacity="1.00" stroke="#000000" stroke-opacity="1.00" stroke-width="0.00" stroke-linecap="butt" stroke-linejoin="miter"/>
<path d="M 547.73 88.00 L 900.00 88.00 L 900.00 368.00 L 547.73 368.00 L 547.73 88.00 Z " fill="#FFFFFF" fill-opacity="1.00" stroke="none" stroke-opacity="0.00" stroke-width="0.00" stroke-linecap="butt" stroke-linejoin="miter"/>
<path d="M 851.96 88.00 L 883.99 88.00 L 883.99 154.67 L 851.96 154.67 L 851.96 88.00 Z " fill="#DAA520" fill-opacity="0.80" stroke="#000000" stroke-opacity="0.80" stroke-width="1.00" stroke-linecap="butt" stroke-linejoin="miter"/>
<path d="M 819.94 88.00 L 851.96 88.00 L 851.96 154.67 L 819.94 154.67 L 819.94 88.00 Z " fill="#DAA520" fill-opacity="0.80" stroke="#000000" stroke-opacity="0.80" stroke-width="1.00" stroke-linecap="butt" stroke-linejoin="miter"/>
<path d="M 787.91 88.00 L 819.94 88.00 L 819.94 221.33 L 787.91 221.33 L 787.91 88.00 Z " fill="#DAA520" fill-opacity="0.80" stroke="#000000" stroke-opacity="0.80" stroke-width="1.00" stroke-linecap="butt" stroke-linejoin="miter"/>
<path d="M 755.89 88.00 L 787.91 88.00 L 787.91 288.00 L 755.89 288.00 L 755.89 88.00 Z " fill="#DAA520" fill-opacity="0.80" stroke="#000000" stroke-opacity="0.80" stroke-width="1.00" stroke-linecap="butt" stroke-linejoin="miter"/>
<path d="M 723.86 88.00 L 755.89 88.00 L 755.89 354.67 L 723.86 354.67 L 723.86 88.00 Z " fill="#DAA520" fill-opacity="0.80" stroke="#000000" stroke-opacity="0.80" stroke-width="1.00" stroke-linecap="butt" stroke-linejoin="miter"/>
<path d="M 691.84 88.00 L 723.86 88.00 L 723.86 354.67 L 691.84 354.67 L 691.84 88.00 Z " fill="#DAA520" fill-opacity="0.80" stroke="#000000" stroke-opacity="0.80" stroke-width="1.00" stroke-linecap="butt" stroke-linejoin="miter"/>
<path d="M 659.81 88.00 L 691.84 88.00 L 691.84 254.67 L 659.81 254.67 L 659.81 88.00 Z " fill="#DAA520" fill-opacity="0.80" stroke="#000000" stroke-opacity="0.80" stroke-width="1.00" stroke-linecap="butt" stroke-linejoin="miter"/>
<path d="M 627.79 88.00 L 659.81 88.00 L 659.81 188.00 L 627.79 188.00 L 627.79 88.00 Z " fill="#DAA520" fill-opacity="0.80" stroke="#000000" stroke-opacity="0.80" stroke-width="1.00" stroke-linecap="butt" stroke-linejoin="miter"/>
<path d="M 595.76 88.00 L 627.79 88.00 L 627.79 154.67 L 595.76 154.67 L 595.76 88.00 Z " fill="#DAA520" fill-opacity="0.80" stroke="#000000" stroke-opacity="0.80" stroke-width="1.00" stroke-linecap="butt" stroke-linejoin="miter"/>
<path d="M 563.74 88.00 L 595.76 88.00 L 595.76 154.67 L 563.74 154.67 L 563.74 88.00 Z " fill="#DAA520" fill-opacity="0.80" stroke="#000000" stroke-opacity="0.80" stroke-width="1.00" stroke-linecap="butt" stroke-linejoin="miter"/>
<path d="M 596.50 88.50 L 596.50 368.50 " fill="none" fill-opacity="0.00" stroke="#B0B0B0" stroke-opacity="1.00" stroke-width="0.80" stroke-linecap="butt" stroke-linejoin="miter" clip-path="url(#clip-1)"/>
<path d="M 660.50 88.50 L 660.50 368.50 " fill="none" fill-opacity="0.00" stroke="#B0B0B0" stroke-opacity="1.00" stroke-width="0.80" stroke-linecap="butt" stroke-linejoin="miter" clip-path="url(#clip-2)"/>
<path d="M 724.50 88.50 L 724.50 368.50 " fill="none" fill-opacity="0.00" stroke="#B0B0B0" stroke-opacity="1.00" stroke-width="0.80" stroke-linecap="butt" stroke-linejoin="miter" clip-path="url(#clip-3)"/>
<path d="M 788.50 88.50 L 788.50 368.50 " fill="none" fill-opacity="0.00" stroke="#B0B0B0" stroke-opacity="1.00" stroke-width="0.80" stroke-linecap="butt" stroke-linejoin="miter" clip-path="url(#clip-4)"/>
<path d="M 852.50 88.50 L 852.50 368.50 " fill="none" fill-opacity="0.00" stroke="#B0B0B0" stroke-opacity="1.00" stroke-width="0.80" stroke-linecap="butt" stroke-linejoin="miter" clip-path="url(#clip-5)"/>
<path d="M 548.50 87.50 L 900.50 87.50 " fill="none" fill-opacity="0.00" stroke="#B0B0B0" stroke-opacity="1.00" stroke-width="0.80" stroke-linecap="butt" stroke-linejoin="miter" clip-path="url(#clip-6)"/>
<path d="M 548.50 120.50 L 900.50 120.50 " fill="none" fill-opacity="0.00" stroke="#B0B0B0" stroke-opacity="1.00" stroke-width="0.80" stroke-linecap="butt" stroke-linejoin="miter" clip-path="url(#clip-7)"/>
<path d="M 548.50 154.50 L 900.50 154.50 " fill="none" fill-opacity="0.00" stroke="#B0B0B0" stroke-opacity="1.00" stroke-width="0.80" stroke-linecap="butt" stroke-linejoin="miter" clip-path="url(#clip-8)"/>
<path d="M 548.50 187.50 L 900.50 187.50 " fill="none" fill-opacity="0.00" stroke="#B0B0B0" stroke-opacity="1.00" stroke-width="0.80" stroke-linecap="butt" stroke-linejoin="miter" clip-path="url(#clip-9)"/>
<path d="M 548.50 220.50 L 900.50 220.50 " fill="none" fill-opacity="0.00" stroke="#B0B0B0" stroke-opacity="1.00" stroke-width="0.80" stroke-linecap="butt" stroke-linejoin="miter" clip-path="url(#clip-10)"/>
<path d="M 548.50 254.50 L 900.50 254.50 " fill="none" fill-opacity="0.00" stroke="#B0B0B0" stroke-opacity="1.00" stroke-width="0.80" stroke-linecap="butt" stroke-linejoin="miter" clip-path="url(#clip-11)"/>
<path d="M 548.50 287.50 L 900.50 287.50 " fill="none" fill-opacity="0.00" stroke="#B0B0B0" stroke-opacity="1.00" stroke-width="0.80" stroke-linecap="butt" stroke-linejoin="miter" clip-path="url(#clip-12)"/>
<path d="M 548.50 320.50 L 900.50 320.50 " fill="none" fill-opacity="0.00" stroke="#B0B0B0" stroke-opacity="1.00" stroke-width="0.80" stroke-linecap="butt" stroke-linejoin="miter" clip-path="url(#clip-13)"/>
<path d="M 548.50 354.50 L 900.50 354.50 " fill="none" fill-opacity="0.00" stroke="#B0B0B0" stroke-opacity="1.00" stroke-width="0.80" stroke-linecap="butt" stroke-linejoin="miter" clip-path="url(#clip-14)"/>
<path d="M 596.50 88.50 L 596.50 83.50 " fill="none" fill-opacity="0.00" stroke="#000000" stroke-opacity="1.00" stroke-width="0.80" stroke-linecap="butt" stroke-linejoin="miter"/>
<text font-family="DejaVu Sans" font-size="13.89" fill="#000000" fill-opacity="1.00" text-anchor="middle" dominant-baseline="text-before-edge" transform="translate(595.76,78.28) scale(1,-1)">-2</text>
<path d="M 660.50 88.50 L 660.50 83.50 " fill="none" fill-opacity="0.00" stroke="#000000" stroke-opacity="1.00" stroke-width="0.80" stroke-linecap="butt" stroke-linejoin="miter"/>
<text font-family="DejaVu Sans" font-size="13.89" fill="#000000" fill-opacity="1.00" text-anchor="middle" dominant-baseline="text-before-edge" transform="translate(659.81,78.28) scale(1,-1)">-1</text>
<path d="M 724.50 88.50 L 724.50 83.50 " fill="none" fill-opacity="0.00" stroke="#000000" stroke-opacity="1.00" stroke-width="0.80" stroke-linecap="butt" stroke-linejoin="miter"/>
<text font-family="DejaVu Sans" font-size="13.89" fill="#000000" fill-opacity="1.00" text-anchor="middle" dominant-baseline="text-before-edge" transform="translate(723.86,78.28) scale(1,-1)">0</text>
<path d="M 788.50 88.50 L 788.50 83.50 " fill="none" fill-opacity="0.00" stroke="#000000" stroke-opacity="1.00" stroke-width="0.80" stroke-linecap="butt" stroke-linejoin="miter"/>
<text font-family="DejaVu Sans" font-size="13.89" fill="#000000" fill-opacity="1.00" text-anchor="middle" dominant-baseline="text-before-edge" transform="translate(787.91,78.28) scale(1,-1)">1</text>
<path d="M 852.50 88.50 L 852.50 83.50 " fill="none" fill-opacity="0.00" stroke="#000000" stroke-opacity="1.00" stroke-width="0.80" stroke-linecap="butt" stroke-linejoin="miter"/>
<text font-family="DejaVu Sans" font-size="13.89" fill="#000000" fill-opacity="1.00" text-anchor="middle" dominant-baseline="text-before-edge" transform="translate(851.96,78.28) scale(1,-1)">2</text>
<path d="M 548.50 87.50 L 543.50 87.50 " fill="none" fill-opacity="0.00" stroke="#000000" stroke-opacity="1.00" stroke-width="0.80" stroke-linecap="butt" stroke-linejoin="miter"/>
<text font-family="DejaVu Sans" font-size="13.89" fill="#000000" fill-opacity="1.00" text-anchor="end" dominant-baseline="central" transform="translate(538.01,88.00) scale(1,-1)">0</text>
<path d="M 548.50 120.50 L 543.50 120.50 " fill="none" fill-opacity="0.00" stroke="#000000" stroke-opacity="1.00" stroke-width="0.80" stroke-linecap="butt" stroke-linejoin="miter"/>
<text font-family="DejaVu Sans" font-size="13.89" fill="#000000" fill-opacity="1.00" text-anchor="end" dominant-baseline="central" transform="translate(538.01,121.33) scale(1,-1)">1</text>
<path d="M 548.50 154.50 L 543.50 154.50 " fill="none" fill-opacity="0.00" stroke="#000000" stroke-opacity="1.00" stroke-width="0.80" stroke-linecap="butt" stroke-linejoin="miter"/>
<text font-family="DejaVu Sans" font-size="13.89" fill="#000000" fill-opacity="1.00" text-anchor="end" dominant-baseline="central" transform="translate(538.01,154.67) scale(1,-1)">2</text>
<path d="M 548.50 187.50 L 543.50 187.50 " fill="none" fill-opacity="0.00" stroke="#000000" stroke-opacity="1.00" stroke-width="0.80" stroke-linecap="butt" stroke-linejoin="miter"/>
<text font-family="DejaVu Sans" font-size="13.89" fill="#000000" fill-opacity="1.00" text-anchor="end" dominant-baseline="central" transform="translate(538.01,188.00) scale(1,-1)">3</text>
<path d="M 548.50 220.50 L 543.50 220.50 " fill="none" fill-opacity="0.00" stroke="#000000" stroke-opacity="1.00" stroke-width="0.80" stroke-linecap="butt" stroke-linejoin="miter"/>
<text font-family="DejaVu Sans" font-size="13.89" fill="#000000" fill-opacity="1.00" text-anchor="end" dominant-baseline="central" transform="translate(538.01,221.33) scale(1,-1)">4</text>
<path d="M 548.50 254.50 L 543.50 254.50 " fill="none" fill-opacity="0.00" stroke="#000000" stroke-opacity="1.00" stroke-width="0.80" stroke-linecap="butt" stroke-linejoin="miter"/>
<text font-family="DejaVu Sans" font-size="13.89" fill="#000000" fill-opacity="1.00" text-anchor="end" dominant-baseline="central" transform="translate(538.01,254.67) scale(1,-1)">5</text>
<path d="M 548.50 287.50 L 543.50 287.50 " fill="none" fill-opacity="0.00" stroke="#000000" stroke-opacity="1.00" stroke-width="0.80" stroke-linecap="butt" stroke-linejoin="miter"/>
<text font-family="DejaVu Sans" font-size="13.89" fill="#000000" fill-opacity="1.00" text-anchor="end" dominant-baseline="central" transform="translate(538.01,288.00) scale(1,-1)">6</text>
<path d="M 548.50 320.50 L 543.50 320.50 " fill="none" fill-opacity="0.00" stroke="#000000" stroke-opacity="1.00" stroke-width="0.80" stroke-linecap="butt" stroke-linejoin="miter"/>
<text font-family="DejaVu Sans" font-size="13.89" fill="#000000" fill-opacity="1.00" text-anchor="end" dominant-baseline="central" transform="translate(538.01,321.33) scale(1,-1)">7</text>
<path d="M 548.50 354.50 L 543.50 354.50 " fill="none" fill-opacity="0.00" stroke="#000000" stroke-opacity="1.00" stroke-width="0.80" stroke-linecap="butt" stroke-linejoin="miter"/>
<text font-family="DejaVu Sans" font-size="13.89" fill="#000000" fill-opacity="1.00" text-anchor="end" dominant-baseline="central" transform="translate(538.01,354.67) scale(1,-1)">8</text>
<path d="M 547.50 88.50 L 547.50 368.50 " fill="none" fill-opacity="0.00" stroke="#000000" stroke-opacity="1.00" stroke-width="0.80" stroke-linecap="square" stroke-linejoin="miter"/>
<path d="M 900.50 88.50 L 900.50 368.50 " fill="none" fill-opacity="0.00" stroke="#000000" stroke-opacity="1.00" stroke-width="0.80" stroke-linecap="square" stroke-linejoin="miter"/>
<path d="M 548.50 87.50 L 900.50 87.50 " fill="none" fill-opacity="0.00" stroke="#000000" stroke-opacity="1.00" stroke-width="0.80" stroke-linecap="square" stroke-linejoin="miter"/>
<path d="M 548.50 367.50 L 900.50 367.50 " fill="none" fill-opacity="0.00" stroke="#000000" stroke-opacity="1.00" stroke-width="0.80" stroke-linecap="square" stroke-linejoin="miter"/>
<path d="M 125.00 88.00 L 477.27 88.00 L 477.27 368.00 L 125.00 368.00 L 125.00 88.00 Z " fill="#FFFFFF" fill-opacity="1.00" stroke="none" stroke-opacity="0.00" stroke-width="0.00" stroke-linecap="butt" stroke-linejoin="miter"/>
<path d="M 141.01 154.67 L 173.04 154.67 L 173.04 154.67 L 205.06 154.67 L 205.06 188.00 L 237.09 188.00 L 237.09 254.67 L 269.11 254.67 L 269.11 354.67 L 301.14 354.67 L 301.14 354.67 L 333.16 354.67 L 333.16 288.00 L 365.19 288.00 L 365.19 221.33 L 397.21 221.33 L 397.21 154.67 L 429.24 154.67 L 429.24 154.67 L 461.26 154.67 L 461.26 88.00 L 141.01 88.00 Z " fill="#2E8B57" fill-opacity="0.70" stroke="#000000" stroke-opacity="0.70" stroke-width="1.00" stroke-linecap="butt" stroke-linejoin="miter"/>
<path d="M 173.50 88.50 L 173.50 368.50 " fill="none" fill-opacity="0.00" stroke="#B0B0B0" stroke-opacity="1.00" stroke-width="0.80" stroke-linecap="butt" stroke-linejoin="miter" clip-path="url(#clip-15)"/>
<path d="M 237.50 88.50 L 237.50 368.50 " fill="none" fill-opacity="0.00" stroke="#B0B0B0" stroke-opacity="1.00" stroke-width="0.80" stroke-linecap="butt" stroke-linejoin="miter" clip-path="url(#clip-16)"/>
<path d="M 301.50 88.50 L 301.50 368.50 " fill="none" fill-opacity="0.00" stroke="#B0B0B0" stroke-opacity="1.00" stroke-width="0.80" stroke-linecap="butt" stroke-linejoin="miter" clip-path="url(#clip-17)"/>
<path d="M 365.50 88.50 L 365.50 368.50 " fill="none" fill-opacity="0.00" stroke="#B0B0B0" stroke-opacity="1.00" stroke-width="0.80" stroke-linecap="butt" stroke-linejoin="miter" clip-path="url(#clip-18)"/>
<path d="M 429.50 88.50 L 429.50 368.50 " fill="none" fill-opacity="0.00" stroke="#B0B0B0" stroke-opacity="1.00" stroke-width="0.80" stroke-linecap="butt" stroke-linejoin="miter" clip-path="url(#clip-19)"/>
<path d="M 125.50 87.50 L 477.50 87.50 " fill="none" fill-opacity="0.00" stroke="#B0B0B0" stroke-opacity="1.00" stroke-width="0.80" stroke-linecap="butt" stroke-linejoin="miter" clip-path="url(#clip-20)"/>
<path d="M 125.50 120.50 L 477.50 120.50 " fill="none" fill-opacity="0.00" stroke="#B0B0B0" stroke-opacity="1.00" stroke-width="0.80" stroke-linecap="butt" stroke-linejoin="miter" clip-path="url(#clip-21)"/>
<path d="M 125.50 154.50 L 477.50 154.50 " fill="none" fill-opacity="0.00" stroke="#B0B0B0" stroke-opacity="1.00" stroke-width="0.80" stroke-linecap="butt" stroke-linejoin="miter" clip-path="url(#clip-22)"/>
<path d="M 125.50 187.50 L 477.50 187.50 " fill="none" fill-opacity="0.00" stroke="#B0B0B0" stroke-opacity="1.00" stroke-width="0.80" stroke-linecap="butt" stroke-linejoin="miter" clip-path="url(#clip-23)"/>
<path d="M 125.50 220.50 L 477.50 220.50 " fill="none" fill-opacity="0.00" stroke="#B0B0B0" stroke-opacity="1.00" stroke-width="0.80" stroke-linecap="butt" stroke-linejoin="miter" clip-path="url(#clip-24)"/>
<path d="M 125.50 254.50 L 477.50 254.50 " fill="none" fill-opacity="0.00" stroke="#B0B0B0" stroke-opacity="1.00" stroke-width="0.80" stroke-linecap="butt" stroke-linejoin="miter" clip-path="url(#clip-25)"/>
<path d="M 125.50 287.50 L 477.50 287.50 " fill="none" fill-opacity="0.00" stroke="#B0B0B0" stroke-opacity="1.00" stroke-width="0.80" stroke-linecap="butt" stroke-linejoin="miter" clip-path="url(#clip-26)"/>
<path d="M 125.50 320.50 L 477.50 320.50 " fill="none" fill-opacity="0.00" stroke="#B0B0B0" stroke-opacity="1.00" stroke-width="0.80" stroke-linecap="butt" stroke-linejoin="miter" clip-path="url(#clip-27)"/>
<path d="M 125.50 354.50 L 477.50 354.50 " fill="none" fill-opacity="0.00" stroke="#B0B0B0" stroke-opacity="1.00" stroke-width="0.80" stroke-linecap="butt" stroke-linejoin="miter" clip-path="url(#clip-28)"/>
<path d="M 173.50 88.50 L 173.50 83.50 " fill="none" fill-opacity="0.00" stroke="#000000" stroke-opacity="1.00" stroke-width="0.80" stroke-linecap="butt" stroke-linejoin="miter"/>
<text font-family="DejaVu Sans" font-size="13.89" fill="#000000" fill-opacity="1.00" text-anchor="middle" dominant-baseline="text-before-edge" transform="translate(173.04,78.28) scale(1,-1)">-2</text>
<path d="M 237.50 88.50 L 237.50 83.50 " fill="none" fill-opacity="0.00" stroke="#000000" stroke-opacity="1.00" stroke-width="0.80" stroke-linecap="butt" stroke-linejoin="miter"/>
<text font-family="DejaVu Sans" font-size="13.89" fill="#000000" fill-opacity="1.00" text-anchor="middle" dominant-baseline="text-before-edge" transform="translate(237.09,78.28) scale(1,-1)">-1</text>
<path d="M 301.50 88.50 L 301.50 83.50 " fill="none" fill-opacity="0.00" stroke="#000000" stroke-opacity="1.00" stroke-width="0.80" stroke-linecap="butt" stroke-linejoin="miter"/>
<text font-family="DejaVu Sans" font-size="13.89" fill="#000000" fill-opacity="1.00" text-anchor="middle" dominant-baseline="text-before-edge" transform="translate(301.14,78.28) scale(1,-1)">0</text>
<path d="M 365.50 88.50 L 365.50 83.50 " fill="none" fill-opacity="0.00" stroke="#000000" stroke-opacity="1.00" stroke-width="0.80" stroke-linecap="butt" stroke-linejoin="miter"/>
<text font-family="DejaVu Sans" font-size="13.89" fill="#000000" fill-opacity="1.00" text-anchor="middle" dominant-baseline="text-before-edge" transform="translate(365.19,78.28) scale(1,-1)">1</text>
<path d="M 429.50 88.50 L 429.50 83.50 " fill="none" fill-opacity="0.00" stroke="#000000" stroke-opacity="1.00" stroke-width="0.80" stroke-linecap="butt" stroke-linejoin="miter"/>
<text font-family="DejaVu Sans" font-size="13.89" fill="#000000" fill-opacity="1.00" text-anchor="middle" dominant-baseline="text-before-edge" transform="translate(429.24,78.28) scale(1,-1)">2</text>
<path d="M 125.50 87.50 L 120.50 87.50 " fill="none" fill-opacity="0.00" stroke="#000000" stroke-opacity="1.00" stroke-width="0.80" stroke-linecap="butt" stroke-linejoin="miter"/>
<text font-family="DejaVu Sans" font-size="13.89" fill="#000000" fill-opacity="1.00" text-anchor="end" dominant-baseline="central" transform="translate(115.28,88.00) scale(1,-1)">0</text>
<path d="M 125.50 120.50 L 120.50 120.50 " fill="none" fill-opacity="0.00" stroke="#000000" stroke-opacity="1.00" stroke-width="0.80" stroke-linecap="butt" stroke-linejoin="miter"/>
<text font-family="DejaVu Sans" font-size="13.89" fill="#000000" fill-opacity="1.00" text-anchor="end" dominant-baseline="central" transform="translate(115.28,121.33) scale(1,-1)">1</text>
<path d="M 125.50 154.50 L 120.50 154.50 " fill="none" fill-opacity="0.00" stroke="#000000" stroke-opacity="1.00" stroke-width="0.80" stroke-linecap="butt" stroke-linejoin="miter"/>
<text font-family="DejaVu Sans" font-size="13.89" fill="#000000" fill-opacity="1.00" text-anchor="end" dominant-baseline="central" transform="translate(115.28,154.67) scale(1,-1)">2</text>
<path d="M 125.50 187.50 L 120.50 187.50 " fill="none" fill-opacity="0.00" stroke="#000000" stroke-opacity="1.00" stroke-width="0.80" stroke-linecap="butt" stroke-linejoin="miter"/>
<text font-family="DejaVu Sans" font-size="13.89" fill="#000000" fill-opacity="1.00" text-anchor="end" dominant-baseline="central" transform="translate(115.28,188.00) scale(1,-1)">3</text>
<path d="M 125.50 220.50 L 120.50 220.50 " fill="none" fill-opacity="0.00" stroke="#000000" stroke-opacity="1.00" stroke-width="0.80" stroke-linecap="butt" stroke-linejoin="miter"/>
<text font-family="DejaVu Sans" font-size="13.89" fill="#000000" fill-opacity="1.00" text-anchor="end" dominant-baseline="central" transform="translate(115.28,221.33) scale(1,-1)">4</text>
<path d="M 125.50 254.50 L 120.50 254.50 " fill="none" fill-opacity="0.00" stroke="#000000" stroke-opacity="1.00" stroke-width="0.80" stroke-linecap="butt" stroke-linejoin="miter"/>
<text font-family="DejaVu Sans" font-size="13.89" fill="#000000" fill-opacity="1.00" text-anchor="end" dominant-baseline="central" transform="translate(115.28,254.67) scale(1,-1)">5</text>
<path d="M 125.50 287.50 L 120.50 287.50 " fill="none" fill-opacity="0.00" stroke="#000000" stroke-opacity="1.00" stroke-width="0.80" stroke-linecap="butt" stroke-linejoin="miter"/>
<text font-family="DejaVu Sans" font-size="13.89" fill="#000000" fill-opacity="1.00" text-anchor="end" dominant-baseline="central" transform="translate(115.28,288.00) scale(1,-1)">6</text>
<path d="M 125.50 320.50 L 120.50 320.50 " fill="none" fill-opacity="0.00" stroke="#000000" stroke-opacity="1.00" stroke-width="0.80" stroke-linecap="butt" stroke-linejoin="miter"/>
<text font-family="DejaVu Sans" font-size="13.89" fill="#000000" fill-opacity="1.00" text-anchor="end" dominant-baseline="central" transform="translate(115.28,321.33) scale(1,-1)">7</text>
<path d="M 125.50 354.50 L 120.50 354.50 " fill="none" fill-opacity="0.00" stroke="#000000" stroke-opacity="1.00" stroke-width="0.80" stroke-linecap="butt" stroke-linejoin="miter"/>
<text font-family="DejaVu Sans" font-size="13.89" fill="#000000" fill-opacity="1.00" text-anchor="end" dominant-baseline="central" transform="translate(115.28,354.67) scale(1,-1)">8</text>
<path d="M 125.50 88.50 L 125.50 368.50 " fill="none" fill-opacity="0.00" stroke="#000000" stroke-opacity="1.00" stroke-width="0.80" stroke-linecap="square" stroke-linejoin="miter"/>
<path d="M 477.50 88.50 L 477.50 368.50 " fill="none" fill-opacity="0.00" stroke="#000000" stroke-opacity="1.00" stroke-width="0.80" stroke-linecap="square" stroke-linejoin="miter"/>
<path d="M 125.50 87.50 L 477.50 87.50 " fill="none" fill-opacity="0.00" stroke="#000000" stroke-opacity="1.00" stroke-width="0.80" stroke-linecap="square" stroke-linejoin="miter"/>
<path d="M 125.50 367.50 L 477.50 367.50 " fill="none" fill-opacity="0.00" stroke="#000000" stroke-opacity="1.00" stroke-width="0.80" stroke-linecap="square" stroke-linejoin="miter"/>
<path d="M 547.73 424.00 L 900.00 424.00 L 900.00 704.00 L 547.73 704.00 L 547.73 424.00 Z " fill="#FFFFFF" fill-opacity="1.00" stroke="none" stroke-opacity="0.00" stroke-width="0.00" stroke-linecap="butt" stroke-linejoin="miter"/>
<path d="M 564.50 491.50 L 596.50 491.50 L 596.50 491.50 L 628.50 491.50 L 628.50 524.50 L 660.50 524.50 L 660.50 591.50 L 692.50 591.50 L 692.50 691.50 L 724.50 691.50 L 724.50 691.50 L 756.50 691.50 L 756.50 624.50 L 788.50 624.50 L 788.50 557.50 L 820.50 557.50 L 820.50 491.50 L 852.50 491.50 L 852.50 491.50 L 884.50 491.50 L 884.50 424.50 L 564.50 424.50 " fill="none" fill-opacity="0.00" stroke="#FF6347" stroke-opacity="1.00" stroke-width="1.00" stroke-linecap="square" stroke-linejoin="round"/>
<path d="M 596.50 424.50 L 596.50 704.50 " fill="none" fill-opacity="0.00" stroke="#B0B0B0" stroke-opacity="1.00" stroke-width="0.80" stroke-linecap="butt" stroke-linejoin="miter" clip-path="url(#clip-29)"/>
<path d="M 660.50 424.50 L 660.50 704.50 " fill="none" fill-opacity="0.00" stroke="#B0B0B0" stroke-opacity="1.00" stroke-width="0.80" stroke-linecap="butt" stroke-linejoin="miter" clip-path="url(#clip-30)"/>
<path d="M 724.50 424.50 L 724.50 704.50 " fill="none" fill-opacity="0.00" stroke="#B0B0B0" stroke-opacity="1.00" stroke-width="0.80" stroke-linecap="butt" stroke-linejoin="miter" clip-path="url(#clip-31)"/>
<path d="M 788.50 424.50 L 788.50 704.50 " fill="none" fill-opacity="0.00" stroke="#B0B0B0" stroke-opacity="1.00" stroke-width="0.80" stroke-linecap="butt" stroke-linejoin="miter" clip-path="url(#clip-32)"/>
<path d="M 852.50 424.50 L 852.50 704.50 " fill="none" fill-opacity="0.00" stroke="#B0B0B0" stroke-opacity="1.00" stroke-width="0.80" stroke-linecap="butt" stroke-linejoin="miter" clip-path="url(#clip-33)"/>
<path d="M 548.50 423.50 L 900.50 423.50 " fill="none" fill-opacity="0.00" stroke="#B0B0B0" stroke-opacity="1.00" stroke-width="0.80" stroke-linecap="butt" stroke-linejoin="miter" clip-path="url(#clip-34)"/>
<path d="M 548.50 456.50 L 900.50 456.50 " fill="none" fill-opacity="0.00" stroke="#B0B0B0" stroke-opacity="1.00" stroke-width="0.80" stroke-linecap="butt" stroke-linejoin="miter" clip-path="url(#clip-35)"/>
<path d="M 548.50 490.50 L 900.50 490.50 " fill="none" fill-opacity="0.00" stroke="#B0B0B0" stroke-opacity="1.00" stroke-width="0.80" stroke-linecap="butt" stroke-linejoin="miter" clip-path="url(#clip-36)"/>
<path d="M 548.50 523.50 L 900.50 523.50 " fill="none" fill-opacity="0.00" stroke="#B0B0B0" stroke-opacity="1.00" stroke-width="0.80" stroke-linecap="butt" stroke-linejoin="miter" clip-path="url(#clip-37)"/>
<path d="M 548.50 556.50 L 900.50 556.50 " fill="none" fill-opacity="0.00" stroke="#B0B0B0" stroke-opacity="1.00" stroke-width="0.80" stroke-linecap="butt" stroke-linejoin="miter" clip-path="url(#clip-38)"/>
<path d="M 548.50 590.50 L 900.50 590.50 " fill="none" fill-opacity="0.00" stroke="#B0B0B0" stroke-opacity="1.00" stroke-width="0.80" stroke-linecap="butt" stroke-linejoin="miter" clip-path="url(#clip-39)"/>
<path d="M 548.50 623.50 L 900.50 623.50 " fill="none" fill-opacity="0.00" stroke="#B0B0B0" stroke-opacity="1.00" stroke-width="0.80" stroke-linecap="butt" stroke-linejoin="miter" clip-path="url(#clip-40)"/>
<path d="M 548.50 656.50 L 900.50 656.50 " fill="none" fill-opacity="0.00" stroke="#B0B0B0" stroke-opacity="1.00" stroke-width="0.80" stroke-linecap="butt" stroke-linejoin="miter" clip-path="url(#clip-41)"/>
<path d="M 548.50 690.50 L 900.50 690.50 " fill="none" fill-opacity="0.00" stroke="#B0B0B0" stroke-opacity="1.00" stroke-width="0.80" stroke-linecap="butt" stroke-linejoin="miter" clip-path="url(#clip-42)"/>
<path d="M 596.50 424.50 L 596.50 419.50 " fill="none" fill-opacity="0.00" stroke="#000000" stroke-opacity="1.00" stroke-width="0.80" stroke-linecap="butt" stroke-linejoin="miter"/>
<text font-family="DejaVu Sans" font-size="13.89" fill="#000000" fill-opacity="1.00" text-anchor="middle" dominant-baseline="text-before-edge" transform="translate(595.76,414.28) scale(1,-1)">-2</text>
<path d="M 660.50 424.50 L 660.50 419.50 " fill="none" fill-opacity="0.00" stroke="#000000" stroke-opacity="1.00" stroke-width="0.80" stroke-linecap="butt" stroke-linejoin="miter"/>
<text font-family="DejaVu Sans" font-size="13.89" fill="#000000" fill-opacity="1.00" text-anchor="middle" dominant-baseline="text-before-edge" transform="translate(659.81,414.28) scale(1,-1)">-1</text>
<path d="M 724.50 424.50 L 724.50 419.50 " fill="none" fill-opacity="0.00" stroke="#000000" stroke-opacity="1.00" stroke-width="0.80" stroke-linecap="butt" stroke-linejoin="miter"/>
<text font-family="DejaVu Sans" font-size="13.89" fill="#000000" fill-opacity="1.00" text-anchor="middle" dominant-baseline="text-before-edge" transform="translate(723.86,414.28) scale(1,-1)">0</text>
<path d="M 788.50 424.50 L 788.50 419.50 " fill="none" fill-opacity="0.00" stroke="#000000" stroke-opacity="1.00" stroke-width="0.80" stroke-linecap="butt" stroke-linejoin="miter"/>
<text font-family="DejaVu Sans" font-size="13.89" fill="#000000" fill-opacity="1.00" text-anchor="middle" dominant-baseline="text-before-edge" transform="translate(787.91,414.28) scale(1,-1)">1</text>
<path d="M 852.50 424.50 L 852.50 419.50 " fill="none" fill-opacity="0.00" stroke="#000000" stroke-opacity="1.00" stroke-width="0.80" stroke-linecap="butt" stroke-linejoin="miter"/>
<text font-family="DejaVu Sans" font-size="13.89" fill="#000000" fill-opacity="1.00" text-anchor="middle" dominant-baseline="text-before-edge" transform="translate(851.96,414.28) scale(1,-1)">2</text>
<path d="M 548.50 423.50 L 543.50 423.50 " fill="none" fill-opacity="0.00" stroke="#000000" stroke-opacity="1.00" stroke-width="0.80" stroke-linecap="butt" stroke-linejoin="miter"/>
<text font-family="DejaVu Sans" font-size="13.89" fill="#000000" fill-opacity="1.00" text-anchor="end" dominant-baseline="central" transform="translate(538.01,424.00) scale(1,-1)">0</text>
<path d="M 548.50 456.50 L 543.50 456.50 " fill="none" fill-opacity="0.00" stroke="#000000" stroke-opacity="1.00" stroke-width="0.80" stroke-linecap="butt" stroke-linejoin="miter"/>
<text font-family="DejaVu Sans" font-size="13.89" fill="#000000" fill-opacity="1.00" text-anchor="end" dominant-baseline="central" transform="translate(538.01,457.33) scale(1,-1)">1</text>
<path d="M 548.50 490.50 L 543.50 490.50 " fill="none" fill-opacity="0.00" stroke="#000000" stroke-opacity="1.00" stroke-width="0.80" stroke-linecap="butt" stroke-linejoin="miter"/>
<text font-family="DejaVu Sans" font-size="13.89" fill="#000000" fill-opacity="1.00" text-anchor="end" dominant-baseline="central" transform="translate(538.01,490.67) scale(1,-1)">2</text>
<path d="M 548.50 523.50 L 543.50 523.50 " fill="none" fill-opacity="0.00" stroke="#000000" stroke-opacity="1.00" stroke-width="0.80" stroke-linecap="butt" stroke-linejoin="miter"/>
<text font-family="DejaVu Sans" font-size="13.89" fill="#000000" fill-opacity="1.00" text-anchor="end" dominant-baseline="central" transform="translate(538.01,524.00) scale(1,-1)">3</text>
<path d="M 548.50 556.50 L 543.50 556.50 " fill="none" fill-opacity="0.00" stroke="#000000" stroke-opacity="1.00" stroke-width="0.80" stroke-linecap="butt" stroke-linejoin="miter"/>
<text font-family="DejaVu Sans" font-size="13.89" fill="#000000" fill-opacity="1.00" text-anchor="end" dominant-baseline="central" transform="translate(538.01,557.33) scale(1,-1)">4</text>
<path d="M 548.50 590.50 L 543.50 590.50 " fill="none" fill-opacity="0.00" stroke="#000000" stroke-opacity="1.00" stroke-width="0.80" stroke-linecap="butt" stroke-linejoin="miter"/>
<text font-family="DejaVu Sans" font-size="13.89" fill="#000000" fill-opacity="1.00" text-anchor="end" dominant-baseline="central" transform="translate(538.01,590.67) scale(1,-1)">5</text>
<path d="M 548.50 623.50 L 543.50 623.50 " fill="none" fill-opacity="0.00" stroke="#000000" stroke-opacity="1.00" stroke-width="0.80" stroke-linecap="butt" stroke-linejoin="miter"/>
<text font-family="DejaVu Sans" font-size="13.89" fill="#000000" fill-opacity="1.00" text-anchor="end" dominant-baseline="central" transform="translate(538.01,624.00) scale(1,-1)">6</text>
<path d="M 548.50 656.50 L 543.50 656.50 " fill="none" fill-opacity="0.00" stroke="#000000" stroke-opacity="1.00" stroke-width="0.80" stroke-linecap="butt" stroke-linejoin="miter"/>
<text font-family="DejaVu Sans" font-size="13.89" fill="#000000" fill-opacity="1.00" text-anchor="end" dominant-baseline="central" transform="translate(538.01,657.33) scale(1,-1)">7</text>
<path d="M 548.50 690.50 L 543.50 690.50 " fill="none" fill-opacity="0.00" stroke="#000000" stroke-opacity="1.00" stroke-width="0.80" stroke-linecap="butt" stroke-linejoin="miter"/>
<text font-family="DejaVu Sans" font-size="13.89" fill="#000000" fill-opacity="1.00" text-anchor="end" dominant-baseline="central" transform="translate(538.01,690.67) scale(1,-1)">8</text>
<path d="M 547.50 424.50 L 547.50 704.50 " fill="none" fill-opacity="0.00" stroke="#000000" stroke-opacity="1.00" stroke-width="0.80" stroke-linecap="square" stroke-linejoin="miter"/>
<path d="M 900.50 424.50 L 900.50 704.50 " fill="none" fill-opacity="0.00" stroke="#000000" stroke-opacity="1.00" stroke-width="0.80" stroke-linecap="square" stroke-linejoin="miter"/>
<path d="M 548.50 423.50 L 900.50 423.50 " fill="none" fill-opacity="0.00" stroke="#000000" stroke-opacity="1.00" stroke-width="0.80" stroke-linecap="square" stroke-linejoin="miter"/>
<path d="M 548.50 703.50 L 900.50 703.50 " fill="none" fill-opacity="0.00" stroke="#000000" stroke-opacity="1.00" stroke-width="0.80" stroke-linecap="square" stroke-linejoin="miter"/>
<path d="M 125.00 424.00 L 477.27 424.00 L 477.27 704.00 L 125.00 704.00 L 125.00 424.00 Z " fill="#FFFFFF" fill-opacity="1.00" stroke="none" stroke-opacity="0.00" stroke-width="0.00" stroke-linecap="butt" stroke-linejoin="miter"/>
<path d="M 429.24 424.00 L 461.26 424.00 L 461.26 490.67 L 429.24 490.67 L 429.24 424.00 Z " fill="#4682B4" fill-opacity="1.00" stroke="#000000" stroke-opacity="1.00" stroke-width="1.00" stroke-linecap="butt" stroke-linejoin="miter"/>
<path d="M 397.21 424.00 L 429.24 424.00 L 429.24 490.67 L 397.21 490.67 L 397.21 424.00 Z " fill="#4682B4" fill-opacity="1.00" stroke="#000000" stroke-opacity="1.00" stroke-width="1.00" stroke-linecap="butt" stroke-linejoin="miter"/>
<path d="M 365.19 424.00 L 397.21 424.00 L 397.21 557.33 L 365.19 557.33 L 365.19 424.00 Z " fill="#4682B4" fill-opacity="1.00" stroke="#000000" stroke-opacity="1.00" stroke-width="1.00" stroke-linecap="butt" stroke-linejoin="miter"/>
<path d="M 333.16 424.00 L 365.19 424.00 L 365.19 624.00 L 333.16 624.00 L 333.16 424.00 Z " fill="#4682B4" fill-opacity="1.00" stroke="#000000" stroke-opacity="1.00" stroke-width="1.00" stroke-linecap="butt" stroke-linejoin="miter"/>
<path d="M 301.14 424.00 L 333.16 424.00 L 333.16 690.67 L 301.14 690.67 L 301.14 424.00 Z " fill="#4682B4" fill-opacity="1.00" stroke="#000000" stroke-opacity="1.00" stroke-width="1.00" stroke-linecap="butt" stroke-linejoin="miter"/>
<path d="M 269.11 424.00 L 301.14 424.00 L 301.14 690.67 L 269.11 690.67 L 269.11 424.00 Z " fill="#4682B4" fill-opacity="1.00" stroke="#000000" stroke-opacity="1.00" stroke-width="1.00" stroke-linecap="butt" stroke-linejoin="miter"/>
<path d="M 237.09 424.00 L 269.11 424.00 L 269.11 590.67 L 237.09 590.67 L 237.09 424.00 Z " fill="#4682B4" fill-opacity="1.00" stroke="#000000" stroke-opacity="1.00" stroke-width="1.00" stroke-linecap="butt" stroke-linejoin="miter"/>
<path d="M 205.06 424.00 L 237.09 424.00 L 237.09 524.00 L 205.06 524.00 L 205.06 424.00 Z " fill="#4682B4" fill-opacity="1.00" stroke="#000000" stroke-opacity="1.00" stroke-width="1.00" stroke-linecap="butt" stroke-linejoin="miter"/>
<path d="M 173.04 424.00 L 205.06 424.00 L 205.06 490.67 L 173.04 490.67 L 173.04 424.00 Z " fill="#4682B4" fill-opacity="1.00" stroke="#000000" stroke-opacity="1.00" stroke-width="1.00" stroke-linecap="butt" stroke-linejoin="miter"/>
<path d="M 141.01 424.00 L 173.04 424.00 L 173.04 490.67 L 141.01 490.67 L 141.01 424.00 Z " fill="#4682B4" fill-opacity="1.00" stroke="#000000" stroke-opacity="1.00" stroke-width="1.00" stroke-linecap="butt" stroke-linejoin="miter"/>
<path d="M 173.50 424.50 L 173.50 704.50 " fill="none" fill-opacity="0.00" stroke="#B0B0B0" stroke-opacity="1.00" stroke-width="0.80" stroke-linecap="butt" stroke-linejoin="miter" clip-path="url(#clip-43)"/>
<path d="M 237.50 424.50 L 237.50 704.50 " fill="none" fill-opacity="0.00" stroke="#B0B0B0" stroke-opacity="1.00" stroke-width="0.80" stroke-linecap="butt" stroke-linejoin="miter" clip-path="url(#clip-44)"/>
<path d="M 301.50 424.50 L 301.50 704.50 " fill="none" fill-opacity="0.00" stroke="#B0B0B0" stroke-opacity="1.00" stroke-width="0.80" stroke-linecap="butt" stroke-linejoin="miter" clip-path="url(#clip-45)"/>
<path d="M 365.50 424.50 L 365.50 704.50 " fill="none" fill-opacity="0.00" stroke="#B0B0B0" stroke-opacity="1.00" stroke-width="0.80" stroke-linecap="butt" stroke-linejoin="miter" clip-path="url(#clip-46)"/>
<path d="M 429.50 424.50 L 429.50 704.50 " fill="none" fill-opacity="0.00" stroke="#B0B0B0" stroke-opacity="1.00" stroke-width="0.80" stroke-linecap="butt" stroke-linejoin="miter" clip-path="url(#clip-47)"/>
<path d="M 125.50 423.50 L 477.50 423.50 " fill="none" fill-opacity="0.00" stroke="#B0B0B0" stroke-opacity="1.00" stroke-width="0.80" stroke-linecap="butt" stroke-linejoin="miter" clip-path="url(#clip-48)"/>
<path d="M 125.50 456.50 L 477.50 456.50 " fill="none" fill-opacity="0.00" stroke="#B0B0B0" stroke-opacity="1.00" stroke-width="0.80" stroke-linecap="butt" stroke-linejoin="miter" clip-path="url(#clip-49)"/>
<path d="M 125.50 490.50 L 477.50 490.50 " fill="none" fill-opacity="0.00" stroke="#B0B0B0" stroke-opacity="1.00" stroke-width="0.80" stroke-linecap="butt" stroke-linejoin="miter" clip-path="url(#clip-50)"/>
<path d="M 125.50 523.50 L 477.50 523.50 " fill="none" fill-opacity="0.00" stroke="#B0B0B0" stroke-opacity="1.00" stroke-width="0.80" stroke-linecap="butt" stroke-linejoin="miter" clip-path="url(#clip-51)"/>
<path d="M 125.50 556.50 L 477.50 556.50 " fill="none" fill-opacity="0.00" stroke="#B0B0B0" stroke-opacity="1.00" stroke-width="0.80" stroke-linecap="butt" stroke-linejoin="miter" clip-path="url(#clip-52)"/>
<path d="M 125.50 590.50 L 477.50 590.50 " fill="none" fill-opacity="0.00" stroke="#B0B0B0" stroke-opacity="1.00" stroke-width="0.80" stroke-linecap="butt" stroke-linejoin="miter" clip-path="url(#clip-53)"/>
<path d="M 125.50 623.50 L 477.50 623.50 " fill="none" fill-opacity="0.00" stroke="#B0B0B0" stroke-opacity="1.00" stroke-width="0.80" stroke-linecap="butt" stroke-linejoin="miter" clip-path="url(#clip-54)"/>
<path d="M 125.50 656.50 L 477.50 656.50 " fill="none" fill-opacity="0.00" stroke="#B0B0B0" stroke-opacity="1.00" stroke-width="0.80" stroke-linecap="butt" stroke-linejoin="miter" clip-path="url(#clip-55)"/>
<path d="M 125.50 690.50 L 477.50 690.50 " fill="none" fill-opacity="0.00" stroke="#B0B0B0" stroke-opacity="1.00" stroke-width="0.80" stroke-linecap="butt" stroke-linejoin="miter" clip-path="url(#clip-56)"/>
<path d="M 173.50 424.50 L 173.50 419.50 " fill="none" fill-opacity="0.00" stroke="#000000" stroke-opacity="1.00" stroke-width="0.80" stroke-linecap="butt" stroke-linejoin="miter"/>
<text font-family="DejaVu Sans" font-size="13.89" fill="#000000" fill-opacity="1.00" text-anchor="middle" dominant-baseline="text-before-edge" transform="translate(173.04,414.28) scale(1,-1)">-2</text>
<path d="M 237.50 424.50 L 237.50 419.50 " fill="none" fill-opacity="0.00" stroke="#000000" stroke-opacity="1.00" stroke-width="0.80" stroke-linecap="butt" stroke-linejoin="miter"/>
<text font-family="DejaVu Sans" font-size="13.89" fill="#000000" fill-opacity="1.00" text-anchor="middle" dominant-baseline="text-before-edge" transform="translate(237.09,414.28) scale(1,-1)">-1</text>
<path d="M 301.50 424.50 L 301.50 419.50 " fill="none" fill-opacity="0.00" stroke="#000000" stroke-opacity="1.00" stroke-width="0.80" stroke-linecap="butt" stroke-linejoin="miter"/>
<text font-family="DejaVu Sans" font-size="13.89" fill="#000000" fill-opacity="1.00" text-anchor="middle" dominant-baseline="text-before-edge" transform="translate(301.14,414.28) scale(1,-1)">0</text>
<path d="M 365.50 424.50 L 365.50 419.50 " fill="none" fill-opacity="0.00" stroke="#000000" stroke-opacity="1.00" stroke-width="0.80" stroke-linecap="butt" stroke-linejoin="miter"/>
<text font-family="DejaVu Sans" font-size="13.89" fill="#000000" fill-opacity="1.00" text-anchor="middle" dominant-baseline="text-before-edge" transform="translate(365.19,414.28) scale(1,-1)">1</text>
<path d="M 429.50 424.50 L 429.50 419.50 " fill="none" fill-opacity="0.00" stroke="#000000" stroke-opacity="1.00" stroke-width="0.80" stroke-linecap="butt" stroke-linejoin="miter"/>
<text font-family="DejaVu Sans" font-size="13.89" fill="#000000" fill-opacity="1.00" text-anchor="middle" dominant-baseline="text-before-edge" transform="translate(429.24,414.28) scale(1,-1)">2</text>
<path d="M 125.50 423.50 L 120.50 423.50 " fill="none" fill-opacity="0.00" stroke="#000000" stroke-opacity="1.00" stroke-width="0.80" stroke-linecap="butt" stroke-linejoin="miter"/>
<text font-family="DejaVu Sans" font-size="13.89" fill="#000000" fill-opacity="1.00" text-anchor="end" dominant-baseline="central" transform="translate(115.28,424.00) scale(1,-1)">0</text>
<path d="M 125.50 456.50 L 120.50 456.50 " fill="none" fill-opacity="0.00" stroke="#000000" stroke-opacity="1.00" stroke-width="0.80" stroke-linecap="butt" stroke-linejoin="miter"/>
<text font-family="DejaVu Sans" font-size="13.89" fill="#000000" fill-opacity="1.00" text-anchor="end" dominant-baseline="central" transform="translate(115.28,457.33) scale(1,-1)">1</text>
<path d="M 125.50 490.50 L 120.50 490.50 " fill="none" fill-opacity="0.00" stroke="#000000" stroke-opacity="1.00" stroke-width="0.80" stroke-linecap="butt" stroke-linejoin="miter"/>
<text font-family="DejaVu Sans" font-size="13.89" fill="#000000" fill-opacity="1.00" text-anchor="end" dominant-baseline="central" transform="translate(115.28,490.67) scale(1,-1)">2</text>
<path d="M 125.50 523.50 L 120.50 523.50 " fill="none" fill-opacity="0.00" stroke="#000000" stroke-opacity="1.00" stroke-width="0.80" stroke-linecap="butt" stroke-linejoin="miter"/>
<text font-family="DejaVu Sans" font-size="13.89" fill="#000000" fill-opacity="1.00" text-anchor="end" dominant-baseline="central" transform="translate(115.28,524.00) scale(1,-1)">3</text>
<path d="M 125.50 556.50 L 120.50 556.50 " fill="none" fill-opacity="0.00" stroke="#000000" stroke-opacity="1.00" stroke-width="0.80" stroke-linecap="butt" stroke-linejoin="miter"/>
<text font-family="DejaVu Sans" font-size="13.89" fill="#000000" fill-opacity="1.00" text-anchor="end" dominant-baseline="central" transform="translate(115.28,557.33) scale(1,-1)">4</text>
<path d="M 125.50 590.50 L 120.50 590.50 " fill="none" fill-opacity="0.00" stroke="#000000" stroke-opacity="1.00" stroke-width="0.80" stroke-linecap="butt" stroke-linejoin="miter"/>
<text font-family="DejaVu Sans" font-size="13.89" fill="#000000" fill-opacity="1.00" text-anchor="end" dominant-baseline="central" transform="translate(115.28,590.67) scale(1,-1)">5</text>
<path d="M 125.50 623.50 L 120.50 623.50 " fill="none" fill-opacity="0.00" stroke="#000000" stroke-opacity="1.00" stroke-width="0.80" stroke-linecap="butt" stroke-linejoin="miter"/>
<text font-family="DejaVu Sans" font-size="13.89" fill="#000000" fill-opacity="1.00" text-anchor="end" dominant-baseline="central" transform="translate(115.28,624.00) scale(1,-1)">6</text>
<path d="M 125.50 656.50 L 120.50 656.50 " fill="none" fill-opacity="0.00" stroke="#000000" stroke-opacity="1.00" stroke-width="0.80" stroke-linecap="butt" stroke-linejoin="miter"/>
<text font-family="DejaVu Sans" font-size="13.89" fill="#000000" fill-opacity="1.00" text-anchor="end" dominant-baseline="central" transform="translate(115.28,657.33) scale(1,-1)">7</text>
<path d="M 125.50 690.50 L 120.50 690.50 " fill="none" fill-opacity="0.00" stroke="#000000" stroke-opacity="1.00" stroke-width="0.80" stroke-linecap="butt" stroke-linejoin="miter"/>
<text font-family="DejaVu Sans" font-size="13.89" fill="#000000" fill-opacity="1.00" text-anchor="end" dominant-baseline="central" transform="translate(115.28,690.67) scale(1,-1)">8</text>
<path d="M 125.50 424.50 L 125.50 704.50 " fill="none" fill-opacity="0.00" stroke="#000000" stroke-opacity="1.00" stroke-width="0.80" stroke-linecap="square" stroke-linejoin="miter"/>
<path d="M 477.50 424.50 L 477.50 704.50 " fill="none" fill-opacity="0.00" stroke="#000000" stroke-opacity="1.00" stroke-width="0.80" stroke-linecap="square" stroke-linejoin="miter"/>
<path d="M 125.50 423.50 L 477.50 423.50 " fill="none" fill-opacity="0.00" stroke="#000000" stroke-opacity="1.00" stroke-width="0.80" stroke-linecap="square" stroke-linejoin="miter"/>
<path d="M 125.50 703.50 L 477.50 703.50 " fill="none" fill-opacity="0.00" stroke="#000000" stroke-opacity="1.00" stroke-width="0.80" stroke-linecap="square" stroke-linejoin="miter"/>
</g>
</svg>
