<?xml version="1.0" encoding="UTF-8"?>
<svg xmlns="http://www.w3.org/2000/svg"
     xmlns:xlink="http://www.w3.org/1999/xlink"
     width="800" height="500" viewBox="0 0 800 500">
<defs>
</defs>
<g transform="translate(0,500) scale(1,-1)">
<rect width="800" height="500" fill="white"/>
<path d="M 0.00 0.00 L 800.00 0.00 L 800.00 500.00 L 0.00 500.00 L 0.00 0.00 Z " fill="#FFFFFF" fill-opacity="1.00" stroke="#000000" stroke-opacity="1.00" stroke-width="0.00" stroke-linecap="butt" stroke-linejoin="miter"/>
<path d="M 100.00 55.00 L 720.00 55.00 L 720.00 440.00 L 100.00 440.00 L 100.00 55.00 Z " fill="#FFFFFF" fill-opacity="1.00" stroke="none" stroke-opacity="0.00" stroke-width="0.00" stroke-linecap="butt" stroke-linejoin="miter"/>
<path d="M 128.18 371.24 L 133.88 363.15 L 139.57 354.58 L 145.26 345.59 L 150.96 336.20 L 156.65 326.45 L 162.34 316.39 L 168.03 306.05 L 173.73 295.47 L 179.42 284.70 L 185.11 273.78 L 190.81 262.75 L 196.50 251.66 L 202.19 240.56 L 207.89 229.48 L 213.58 218.48 L 219.27 207.59 L 224.97 196.86 L 230.66 186.34 L 236.35 176.06 L 242.05 166.07 L 247.74 156.41 L 253.43 147.12 L 259.13 138.23 L 264.82 129.78 L 270.51 121.80 L 276.21 114.33 L 281.90 107.40 L 287.59 101.03 L 293.29 95.25 L 298.98 90.08 L 304.67 85.55 L 310.37 81.67 L 316.06 78.46 L 321.75 75.93 L 327.45 74.08 L 333.14 72.94 L 338.83 72.50 L 344.53 72.76 L 350.22 73.73 L 355.91 75.40 L 361.61 77.76 L 367.30 80.80 L 372.99 84.52 L 378.69 88.89 L 384.38 93.90 L 390.07 99.53 L 395.77 105.75 L 401.46 112.55 L 407.15 119.89 L 412.85 127.74 L 418.54 136.07 L 424.23 144.86 L 429.93 154.05 L 435.62 163.63 L 441.31 173.54 L 447.01 183.75 L 452.70 194.21 L 458.39 204.89 L 464.09 215.74 L 469.78 226.72 L 475.47 237.78 L 481.17 248.89 L 486.86 259.98 L 492.55 271.03 L 498.25 281.98 L 503.94 292.79 L 509.63 303.42 L 515.33 313.83 L 521.02 323.96 L 526.71 333.79 L 532.41 343.28 L 538.10 352.37 L 543.79 361.05 L 549.49 369.26 L 555.18 376.99 L 560.87 384.20 L 566.57 390.85 L 572.26 396.93 L 577.95 402.40 L 583.65 407.26 L 589.34 411.47 L 595.03 415.01 L 600.73 417.89 L 606.42 420.08 L 612.11 421.57 L 617.81 422.36 L 623.50 422.45 L 629.19 421.83 L 634.89 420.52 L 640.58 418.50 L 646.27 415.80 L 651.97 412.42 L 657.66 408.37 L 663.35 403.68 L 669.04 398.36 L 674.74 392.43 L 680.43 385.91 L 686.12 378.84 L 691.82 371.24 " fill="none" fill-opacity="0.00" stroke="#C44E52" stroke-opacity="1.00" stroke-width="1.50" stroke-linecap="square" stroke-linejoin="round"/>
<path d="M 128.18 422.50 L 133.88 422.15 L 139.57 421.09 L 145.26 419.34 L 150.96 416.89 L 156.65 413.76 L 162.34 409.96 L 168.03 405.51 L 173.73 400.42 L 179.42 394.72 L 185.11 388.42 L 190.81 381.56 L 196.50 374.15 L 202.19 366.24 L 207.89 357.85 L 213.58 349.01 L 219.27 339.76 L 224.97 330.15 L 230.66 320.20 L 236.35 309.95 L 242.05 299.46 L 247.74 288.76 L 253.43 277.89 L 259.13 266.89 L 264.82 255.82 L 270.51 244.72 L 276.21 233.63 L 281.90 222.59 L 287.59 211.66 L 293.29 200.86 L 298.98 190.26 L 304.67 179.89 L 310.37 169.78 L 316.06 160.00 L 321.75 150.56 L 327.45 141.51 L 333.14 132.89 L 338.83 124.74 L 344.53 117.07 L 350.22 109.94 L 355.91 103.35 L 361.61 97.35 L 367.30 91.95 L 372.99 87.18 L 378.69 83.05 L 384.38 79.58 L 390.07 76.79 L 395.77 74.69 L 401.46 73.29 L 407.15 72.58 L 412.85 72.58 L 418.54 73.29 L 424.23 74.69 L 429.93 76.79 L 435.62 79.58 L 441.31 83.05 L 447.01 87.18 L 452.70 91.95 L 458.39 97.35 L 464.09 103.35 L 469.78 109.94 L 475.47 117.07 L 481.17 124.74 L 486.86 132.89 L 492.55 141.51 L 498.25 150.56 L 503.94 160.00 L 509.63 169.78 L 515.33 179.89 L 521.02 190.26 L 526.71 200.86 L 532.41 211.66 L 538.10 222.59 L 543.79 233.63 L 549.49 244.72 L 555.18 255.82 L 560.87 266.89 L 566.57 277.89 L 572.26 288.76 L 577.95 299.46 L 583.65 309.95 L 589.34 320.20 L 595.03 330.15 L 600.73 339.76 L 606.42 349.01 L 612.11 357.85 L 617.81 366.24 L 623.50 374.15 L 629.19 381.56 L 634.89 388.42 L 640.58 394.72 L 646.27 400.42 L 651.97 405.51 L 657.66 409.96 L 663.35 413.76 L 669.04 416.89 L 674.74 419.34 L 680.43 421.09 L 686.12 422.15 L 691.82 422.50 " fill="none" fill-opacity="0.00" stroke="#55A868" stroke-opacity="1.00" stroke-width="1.50" stroke-linecap="square" stroke-linejoin="round"/>
<path d="M 128.18 371.24 L 133.88 378.84 L 139.57 385.91 L 145.26 392.43 L 150.96 398.36 L 156.65 403.68 L 162.34 408.37 L 168.03 412.42 L 173.73 415.80 L 179.42 418.50 L 185.11 420.52 L 190.81 421.83 L 196.50 422.45 L 202.19 422.36 L 207.89 421.57 L 213.58 420.08 L 219.27 417.89 L 224.97 415.01 L 230.66 411.47 L 236.35 407.26 L 242.05 402.40 L 247.74 396.93 L 253.43 390.85 L 259.13 384.20 L 264.82 376.99 L 270.51 369.26 L 276.21 361.05 L 281.90 352.37 L 287.59 343.28 L 293.29 333.79 L 298.98 323.96 L 304.67 313.83 L 310.37 303.42 L 316.06 292.79 L 321.75 281.98 L 327.45 271.03 L 333.14 259.98 L 338.83 248.89 L 344.53 237.78 L 350.22 226.72 L 355.91 215.74 L 361.61 204.89 L 367.30 194.21 L 372.99 183.75 L 378.69 173.54 L 384.38 163.63 L 390.07 154.05 L 395.77 144.86 L 401.46 136.07 L 407.15 127.74 L 412.85 119.89 L 418.54 112.55 L 424.23 105.75 L 429.93 99.53 L 435.62 93.90 L 441.31 88.89 L 447.01 84.52 L 452.70 80.80 L 458.39 77.76 L 464.09 75.40 L 469.78 73.73 L 475.47 72.76 L 481.17 72.50 L 486.86 72.94 L 492.55 74.08 L 498.25 75.93 L 503.94 78.46 L 509.63 81.67 L 515.33 85.55 L 521.02 90.08 L 526.71 95.25 L 532.41 101.03 L 538.10 107.40 L 543.79 114.33 L 549.49 121.80 L 555.18 129.78 L 560.87 138.23 L 566.57 147.12 L 572.26 156.41 L 577.95 166.07 L 583.65 176.06 L 589.34 186.34 L 595.03 196.86 L 600.73 207.59 L 606.42 218.48 L 612.11 229.48 L 617.81 240.56 L 623.50 251.66 L 629.19 262.75 L 634.89 273.78 L 640.58 284.70 L 646.27 295.47 L 651.97 306.05 L 657.66 316.39 L 663.35 326.45 L 669.04 336.20 L 674.74 345.59 L 680.43 354.58 L 686.12 363.15 L 691.82 371.24 " fill="none" fill-opacity="0.00" stroke="#DD8452" stroke-opacity="1.00" stroke-width="1.50" stroke-linecap="square" stroke-linejoin="round"/>
<path d="M 128.18 247.50 L 133.88 258.60 L 139.57 269.65 L 145.26 280.62 L 150.96 291.45 L 156.65 302.10 L 162.34 312.54 L 168.03 322.71 L 173.73 332.58 L 179.42 342.11 L 185.11 351.26 L 190.81 359.99 L 196.50 368.26 L 202.19 376.05 L 207.89 383.33 L 213.58 390.05 L 219.27 396.20 L 224.97 401.75 L 230.66 406.69 L 236.35 410.98 L 242.05 414.61 L 247.74 417.57 L 253.43 419.84 L 259.13 421.42 L 264.82 422.30 L 270.51 422.48 L 276.21 421.95 L 281.90 420.72 L 287.59 418.79 L 293.29 416.17 L 298.98 412.87 L 304.67 408.91 L 310.37 404.30 L 316.06 399.05 L 321.75 393.20 L 327.45 386.76 L 333.14 379.76 L 338.83 372.22 L 344.53 364.18 L 350.22 355.68 L 355.91 346.73 L 361.61 337.39 L 367.30 327.69 L 372.99 317.66 L 378.69 307.35 L 384.38 296.80 L 390.07 286.05 L 395.77 275.15 L 401.46 264.13 L 407.15 253.05 L 412.85 241.94 L 418.54 230.86 L 424.23 219.85 L 429.93 208.94 L 435.62 198.19 L 441.31 187.64 L 447.01 177.33 L 452.70 167.31 L 458.39 157.60 L 464.09 148.26 L 469.78 139.32 L 475.47 130.81 L 481.17 122.77 L 486.86 115.24 L 492.55 108.24 L 498.25 101.80 L 503.94 95.94 L 509.63 90.70 L 515.33 86.08 L 521.02 82.12 L 526.71 78.82 L 532.41 76.20 L 538.10 74.28 L 543.79 73.04 L 549.49 72.52 L 555.18 72.69 L 560.87 73.57 L 566.57 75.15 L 572.26 77.43 L 577.95 80.39 L 583.65 84.02 L 589.34 88.31 L 595.03 93.24 L 600.73 98.79 L 606.42 104.94 L 612.11 111.67 L 617.81 118.94 L 623.50 126.73 L 629.19 135.01 L 634.89 143.74 L 640.58 152.88 L 646.27 162.41 L 651.97 172.28 L 657.66 182.46 L 663.35 192.89 L 669.04 203.55 L 674.74 214.38 L 680.43 225.34 L 686.12 236.40 L 691.82 247.50 " fill="none" fill-opacity="0.00" stroke="#4C72B0" stroke-opacity="1.00" stroke-width="1.50" stroke-linecap="square" stroke-linejoin="round"/>
<text font-family="DejaVu Sans" font-size="16.67" fill="#000000" fill-opacity="1.00" text-anchor="middle" transform="translate(410.00,449.33) scale(1,-1)">Legend Outside Plot Area</text>
<path d="M 751.00 352.50 L 869.54 352.50 L 869.54 440.00 L 751.00 440.00 L 751.00 352.50 Z " fill="#FFFFFF" fill-opacity="0.80" stroke="#CCCCCC" stroke-opacity="1.00" stroke-width="0.80" stroke-linecap="butt" stroke-linejoin="miter"/>
<path d="M 757.50 427.50 L 784.50 427.50 " fill="none" fill-opacity="0.00" stroke="#4C72B0" stroke-opacity="1.00" stroke-width="1.50" stroke-linecap="butt" stroke-linejoin="miter"/>
<text font-family="DejaVu Sans" font-size="13.89" fill="#000000" fill-opacity="1.00" text-anchor="start" dominant-baseline="central" transform="translate(795.44,427.50) scale(1,-1)">Alpha</text>
<path d="M 757.50 407.50 L 784.50 407.50 " fill="none" fill-opacity="0.00" stroke="#DD8452" stroke-opacity="1.00" stroke-width="1.50" stroke-linecap="butt" stroke-linejoin="miter"/>
<text font-family="DejaVu Sans" font-size="13.89" fill="#000000" fill-opacity="1.00" text-anchor="start" dominant-baseline="central" transform="translate(795.44,406.67) scale(1,-1)">Beta</text>
<path d="M 757.50 386.50 L 784.50 386.50 " fill="none" fill-opacity="0.00" stroke="#55A868" stroke-opacity="1.00" stroke-width="1.50" stroke-linecap="butt" stroke-linejoin="miter"/>
<text font-family="DejaVu Sans" font-size="13.89" fill="#000000" fill-opacity="1.00" text-anchor="start" dominant-baseline="central" transform="translate(795.44,385.83) scale(1,-1)">Gamma</text>
<path d="M 757.50 365.50 L 784.50 365.50 " fill="none" fill-opacity="0.00" stroke="#C44E52" stroke-opacity="1.00" stroke-width="1.50" stroke-linecap="butt" stroke-linejoin="miter"/>
<text font-family="DejaVu Sans" font-size="13.89" fill="#000000" fill-opacity="1.00" text-anchor="start" dominant-baseline="central" transform="translate(795.44,365.00) scale(1,-1)">Delta</text>
<path d="M 128.50 55.50 L 128.50 50.50 " fill="none" fill-opacity="0.00" stroke="#000000" stroke-opacity="1.00" stroke-width="0.80" stroke-linecap="butt" stroke-linejoin="miter"/>
<text font-family="DejaVu Sans" font-size="13.89" fill="#000000" fill-opacity="1.00" text-anchor="middle" dominant-baseline="text-before-edge" transform="translate(128.18,45.28) scale(1,-1)">0</text>
<path d="M 218.50 55.50 L 218.50 50.50 " fill="none" fill-opacity="0.00" stroke="#000000" stroke-opacity="1.00" stroke-width="0.80" stroke-linecap="butt" stroke-linejoin="miter"/>
<text font-family="DejaVu Sans" font-size="13.89" fill="#000000" fill-opacity="1.00" text-anchor="middle" dominant-baseline="text-before-edge" transform="translate(217.89,45.28) scale(1,-1)">1</text>
<path d="M 308.50 55.50 L 308.50 50.50 " fill="none" fill-opacity="0.00" stroke="#000000" stroke-opacity="1.00" stroke-width="0.80" stroke-linecap="butt" stroke-linejoin="miter"/>
<text font-family="DejaVu Sans" font-size="13.89" fill="#000000" fill-opacity="1.00" text-anchor="middle" dominant-baseline="text-before-edge" transform="translate(307.59,45.28) scale(1,-1)">2</text>
<path d="M 397.50 55.50 L 397.50 50.50 " fill="none" fill-opacity="0.00" stroke="#000000" stroke-opacity="1.00" stroke-width="0.80" stroke-linecap="butt" stroke-linejoin="miter"/>
<text font-family="DejaVu Sans" font-size="13.89" fill="#000000" fill-opacity="1.00" text-anchor="middle" dominant-baseline="text-before-edge" transform="translate(397.30,45.28) scale(1,-1)">3</text>
<path d="M 487.50 55.50 L 487.50 50.50 " fill="none" fill-opacity="0.00" stroke="#000000" stroke-opacity="1.00" stroke-width="0.80" stroke-linecap="butt" stroke-linejoin="miter"/>
<text font-family="DejaVu Sans" font-size="13.89" fill="#000000" fill-opacity="1.00" text-anchor="middle" dominant-baseline="text-before-edge" transform="translate(487.00,45.28) scale(1,-1)">4</text>
<path d="M 577.50 55.50 L 577.50 50.50 " fill="none" fill-opacity="0.00" stroke="#000000" stroke-opacity="1.00" stroke-width="0.80" stroke-linecap="butt" stroke-linejoin="miter"/>
<text font-family="DejaVu Sans" font-size="13.89" fill="#000000" fill-opacity="1.00" text-anchor="middle" dominant-baseline="text-before-edge" transform="translate(576.71,45.28) scale(1,-1)">5</text>
<path d="M 666.50 55.50 L 666.50 50.50 " fill="none" fill-opacity="0.00" stroke="#000000" stroke-opacity="1.00" stroke-width="0.80" stroke-linecap="butt" stroke-linejoin="miter"/>
<text font-family="DejaVu Sans" font-size="13.89" fill="#000000" fill-opacity="1.00" text-anchor="middle" dominant-baseline="text-before-edge" transform="translate(666.41,45.28) scale(1,-1)">6</text>
<text font-family="DejaVu Sans" font-size="13.89" fill="#000000" fill-opacity="1.00" text-anchor="middle" dominant-baseline="text-before-edge" transform="translate(410.00,26.17) scale(1,-1)">x</text>
<path d="M 100.50 71.50 L 95.50 71.50 " fill="none" fill-opacity="0.00" stroke="#000000" stroke-opacity="1.00" stroke-width="0.80" stroke-linecap="butt" stroke-linejoin="miter"/>
<text font-family="DejaVu Sans" font-size="13.89" fill="#000000" fill-opacity="1.00" text-anchor="end" dominant-baseline="central" transform="translate(90.28,72.49) scale(1,-1)">-1.00</text>
<path d="M 100.50 115.50 L 95.50 115.50 " fill="none" fill-opacity="0.00" stroke="#000000" stroke-opacity="1.00" stroke-width="0.80" stroke-linecap="butt" stroke-linejoin="miter"/>
<text font-family="DejaVu Sans" font-size="13.89" fill="#000000" fill-opacity="1.00" text-anchor="end" dominant-baseline="central" transform="translate(90.28,116.25) scale(1,-1)">-0.75</text>
<path d="M 100.50 159.50 L 95.50 159.50 " fill="none" fill-opacity="0.00" stroke="#000000" stroke-opacity="1.00" stroke-width="0.80" stroke-linecap="butt" stroke-linejoin="miter"/>
<text font-family="DejaVu Sans" font-size="13.89" fill="#000000" fill-opacity="1.00" text-anchor="end" dominant-baseline="central" transform="translate(90.28,160.00) scale(1,-1)">-0.50</text>
<path d="M 100.50 203.50 L 95.50 203.50 " fill="none" fill-opacity="0.00" stroke="#000000" stroke-opacity="1.00" stroke-width="0.80" stroke-linecap="butt" stroke-linejoin="miter"/>
<text font-family="DejaVu Sans" font-size="13.89" fill="#000000" fill-opacity="1.00" text-anchor="end" dominant-baseline="central" transform="translate(90.28,203.75) scale(1,-1)">-0.25</text>
<path d="M 100.50 246.50 L 95.50 246.50 " fill="none" fill-opacity="0.00" stroke="#000000" stroke-opacity="1.00" stroke-width="0.80" stroke-linecap="butt" stroke-linejoin="miter"/>
<text font-family="DejaVu Sans" font-size="13.89" fill="#000000" fill-opacity="1.00" text-anchor="end" dominant-baseline="central" transform="translate(90.28,247.50) scale(1,-1)">0.00</text>
<path d="M 100.50 290.50 L 95.50 290.50 " fill="none" fill-opacity="0.00" stroke="#000000" stroke-opacity="1.00" stroke-width="0.80" stroke-linecap="butt" stroke-linejoin="miter"/>
<text font-family="DejaVu Sans" font-size="13.89" fill="#000000" fill-opacity="1.00" text-anchor="end" dominant-baseline="central" transform="translate(90.28,291.25) scale(1,-1)">0.25</text>
<path d="M 100.50 334.50 L 95.50 334.50 " fill="none" fill-opacity="0.00" stroke="#000000" stroke-opacity="1.00" stroke-width="0.80" stroke-linecap="butt" stroke-linejoin="miter"/>
<text font-family="DejaVu Sans" font-size="13.89" fill="#000000" fill-opacity="1.00" text-anchor="end" dominant-baseline="central" transform="translate(90.28,335.00) scale(1,-1)">0.50</text>
<path d="M 100.50 378.50 L 95.50 378.50 " fill="none" fill-opacity="0.00" stroke="#000000" stroke-opacity="1.00" stroke-width="0.80" stroke-linecap="butt" stroke-linejoin="miter"/>
<text font-family="DejaVu Sans" font-size="13.89" fill="#000000" fill-opacity="1.00" text-anchor="end" dominant-baseline="central" transform="translate(90.28,378.75) scale(1,-1)">0.75</text>
<path d="M 100.50 421.50 L 95.50 421.50 " fill="none" fill-opacity="0.00" stroke="#000000" stroke-opacity="1.00" stroke-width="0.80" stroke-linecap="butt" stroke-linejoin="miter"/>
<text font-family="DejaVu Sans" font-size="13.89" fill="#000000" fill-opacity="1.00" text-anchor="end" dominant-baseline="central" transform="translate(90.28,422.50) scale(1,-1)">1.00</text>
<text font-family="DejaVu Sans" font-size="13.89" fill="#000000" fill-opacity="1.00" text-anchor="middle" transform="translate(35.68,247.50) rotate(90.00) scale(1,-1)">y</text>
<path d="M 100.50 55.50 L 100.50 440.50 " fill="none" fill-opacity="0.00" stroke="#000000" stroke-opacity="1.00" stroke-width="0.80" stroke-linecap="square" stroke-linejoin="miter"/>
<path d="M 720.50 55.50 L 720.50 440.50 " fill="none" fill-opacity="0.00" stroke="#000000" stroke-opacity="1.00" stroke-width="0.80" stroke-linecap="square" stroke-linejoin="miter"/>
<path d="M 100.50 54.50 L 720.50 54.50 " fill="none" fill-opacity="0.00" stroke="#000000" stroke-opacity="1.00" stroke-width="0.80" stroke-linecap="square" stroke-linejoin="miter"/>
<path d="M 100.50 439.50 L 720.50 439.50 " fill="none" fill-opacity="0.00" stroke="#000000" stroke-opacity="1.00" stroke-width="0.80" stroke-linecap="square" stroke-linejoin="miter"/>
<path d="M 751.00 352.50 L 869.54 352.50 L 869.54 440.00 L 751.00 440.00 L 751.00 352.50 Z " fill="#FFFFFF" fill-opacity="0.80" stroke="#CCCCCC" stroke-opacity="1.00" stroke-width="0.80" stroke-linecap="butt" stroke-linejoin="miter"/>
<path d="M 757.50 427.50 L 784.50 427.50 " fill="none" fill-opacity="0.00" stroke="#4C72B0" stroke-opacity="1.00" stroke-width="1.50" stroke-linecap="butt" stroke-linejoin="miter"/>
<text font-family="DejaVu Sans" font-size="13.89" fill="#000000" fill-opacity="1.00" text-anchor="start" dominant-baseline="central" transform="translate(795.44,427.50) scale(1,-1)">Alpha</text>
<path d="M 757.50 407.50 L 784.50 407.50 " fill="none" fill-opacity="0.00" stroke="#DD8452" stroke-opacity="1.00" stroke-width="1.50" stroke-linecap="butt" stroke-linejoin="miter"/>
<text font-family="DejaVu Sans" font-size="13.89" fill="#000000" fill-opacity="1.00" text-anchor="start" dominant-baseline="central" transform="translate(795.44,406.67) scale(1,-1)">Beta</text>
<path d="M 757.50 386.50 L 784.50 386.50 " fill="none" fill-opacity="0.00" stroke="#55A868" stroke-opacity="1.00" stroke-width="1.50" stroke-linecap="butt" stroke-linejoin="miter"/>
<text font-family="DejaVu Sans" font-size="13.89" fill="#000000" fill-opacity="1.00" text-anchor="start" dominant-baseline="central" transform="translate(795.44,385.83) scale(1,-1)">Gamma</text>
<path d="M 757.50 365.50 L 784.50 365.50 " fill="none" fill-opacity="0.00" stroke="#C44E52" stroke-opacity="1.00" stroke-width="1.50" stroke-linecap="butt" stroke-linejoin="miter"/>
<text font-family="DejaVu Sans" font-size="13.89" fill="#000000" fill-opacity="1.00" text-anchor="start" dominant-baseline="central" transform="translate(795.44,365.00) scale(1,-1)">Delta</text>
</g>
</svg>
