<?xml version="1.0" encoding="UTF-8"?>
<svg xmlns="http://www.w3.org/2000/svg"
     xmlns:xlink="http://www.w3.org/1999/xlink"
     width="800" height="600" viewBox="0 0 800 600">
<defs>
</defs>
<g transform="translate(0,600) scale(1,-1)">
<rect width="800" height="600" fill="white"/>
<path d="M 0.00 0.00 L 800.00 0.00 L 800.00 600.00 L 0.00 600.00 L 0.00 0.00 Z " fill="#FFFFFF" fill-opacity="1.00" stroke="#000000" stroke-opacity="1.00" stroke-width="0.00" stroke-linecap="butt" stroke-linejoin="miter"/>
<path d="M 410.00 297.00 L 585.76 354.11 C 573.70 391.22 550.19 423.57 518.62 446.51 C 487.05 469.44 449.02 481.80 410.00 481.80 L 410.00 297.00 Z " fill="#C44E52" fill-opacity="1.00" stroke="#000000" stroke-opacity="1.00" stroke-width="0.00" stroke-linecap="butt" stroke-linejoin="miter"/>
<path d="M 410.00 297.00 L 518.62 147.49 C 550.19 170.43 573.70 202.78 585.76 239.89 C 597.81 277.00 597.81 317.00 585.76 354.11 L 410.00 297.00 Z " fill="#55A868" fill-opacity="1.00" stroke="#000000" stroke-opacity="1.00" stroke-width="0.00" stroke-linecap="butt" stroke-linejoin="miter"/>
<path d="M 407.11 278.75 L 257.60 170.12 C 286.40 130.49 329.81 103.89 378.20 96.22 C 426.59 88.56 476.10 100.44 515.73 129.24 L 407.11 278.75 Z " fill="#DD8452" fill-opacity="1.00" stroke="#000000" stroke-opacity="1.00" stroke-width="0.00" stroke-linecap="butt" stroke-linejoin="miter"/>
<path d="M 410.00 297.00 L 410.00 481.80 C 375.92 481.80 342.50 472.37 313.44 454.57 C 284.39 436.76 260.81 411.26 245.34 380.90 C 229.87 350.53 223.10 316.47 225.77 282.50 C 228.44 248.53 240.46 215.95 260.49 188.38 L 410.00 297.00 Z " fill="#4C72B0" fill-opacity="1.00" stroke="#000000" stroke-opacity="1.00" stroke-width="0.00" stroke-linecap="butt" stroke-linejoin="miter"/>
<text font-family="DejaVu Sans" font-size="11.11" fill="#000000" fill-opacity="1.00" text-anchor="middle" dominant-baseline="central" transform="translate(475.17,386.70) scale(1,-1)">20.0%</text>
<text font-family="DejaVu Sans" font-size="13.89" fill="#000000" fill-opacity="1.00" text-anchor="middle" dominant-baseline="central" transform="translate(529.48,461.46) scale(1,-1)">Category D</text>
<text font-family="DejaVu Sans" font-size="11.11" fill="#000000" fill-opacity="1.00" text-anchor="middle" dominant-baseline="central" transform="translate(515.45,262.74) scale(1,-1)">20.0%</text>
<text font-family="DejaVu Sans" font-size="13.89" fill="#000000" fill-opacity="1.00" text-anchor="middle" dominant-baseline="central" transform="translate(603.33,234.18) scale(1,-1)">Category C</text>
<text font-family="DejaVu Sans" font-size="11.11" fill="#000000" fill-opacity="1.00" text-anchor="middle" dominant-baseline="central" transform="translate(389.76,169.23) scale(1,-1)">25.0%</text>
<text font-family="DejaVu Sans" font-size="13.89" fill="#000000" fill-opacity="1.00" text-anchor="middle" dominant-baseline="central" transform="translate(375.31,77.97) scale(1,-1)">Category B</text>
<text font-family="DejaVu Sans" font-size="11.11" fill="#000000" fill-opacity="1.00" text-anchor="middle" dominant-baseline="central" transform="translate(311.21,347.34) scale(1,-1)">35.0%</text>
<text font-family="DejaVu Sans" font-size="13.89" fill="#000000" fill-opacity="1.00" text-anchor="middle" dominant-baseline="central" transform="translate(228.88,389.29) scale(1,-1)">Category A</text>
<text font-family="DejaVu Sans" font-size="16.67" fill="#000000" fill-opacity="1.00" text-anchor="middle" transform="translate(410.00,537.33) scale(1,-1)">Exploded Pie Chart</text>
</g>
</svg>
