<?xml version="1.0" encoding="UTF-8"?>
<svg xmlns="http://www.w3.org/2000/svg"
     xmlns:xlink="http://www.w3.org/1999/xlink"
     width="1000" height="800" viewBox="0 0 1000 800">
<defs>
<clipPath id="clip-1">
<rect x="547.73" y="88.00" width="352.27" height="280.00"/>
</clipPath>
<clipPath id="clip-2">
<rect x="547.73" y="88.00" width="352.27" height="280.00"/>
</clipPath>
<clipPath id="clip-3">
<rect x="547.73" y="88.00" width="352.27" height="280.00"/>
</clipPath>
<clipPath id="clip-4">
<rect x="547.73" y="88.00" width="352.27" height="280.00"/>
</clipPath>
<clipPath id="clip-5">
<rect x="547.73" y="88.00" width="352.27" height="280.00"/>
</clipPath>
<clipPath id="clip-6">
<rect x="547.73" y="88.00" width="352.27" height="280.00"/>
</clipPath>
<clipPath id="clip-7">
<rect x="547.73" y="88.00" width="352.27" height="280.00"/>
</clipPath>
<clipPath id="clip-8">
<rect x="547.73" y="88.00" width="352.27" height="280.00"/>
</clipPath>
<clipPath id="clip-9">
<rect x="547.73" y="88.00" width="352.27" height="280.00"/>
</clipPath>
<clipPath id="clip-10">
<rect x="547.73" y="88.00" width="352.27" height="280.00"/>
</clipPath>
<clipPath id="clip-11">
<rect x="547.73" y="88.00" width="352.27" height="280.00"/>
</clipPath>
<clipPath id="clip-12">
<rect x="547.73" y="88.00" width="352.27" height="280.00"/>
</clipPath>
<clipPath id="clip-13">
<rect x="125.00" y="88.00" width="352.27" height="280.00"/>
</clipPath>
<clipPath id="clip-14">
<rect x="125.00" y="88.00" width="352.27" height="280.00"/>
</clipPath>
<clipPath id="clip-15">
<rect x="125.00" y="88.00" width="352.27" height="280.00"/>
</clipPath>
<clipPath id="clip-16">
<rect x="125.00" y="88.00" width="352.27" height="280.00"/>
</clipPath>
<clipPath id="clip-17">
<rect x="125.00" y="88.00" width="352.27" height="280.00"/>
</clipPath>
<clipPath id="clip-18">
<rect x="125.00" y="88.00" width="352.27" height="280.00"/>
</clipPath>
<clipPath id="clip-19">
<rect x="125.00" y="88.00" width="352.27" height="280.00"/>
</clipPath>
<clipPath id="clip-20">
<rect x="125.00" y="88.00" width="352.27" height="280.00"/>
</clipPath>
<clipPath id="clip-21">
<rect x="125.00" y="88.00" width="352.27" height="280.00"/>
</clipPath>
<clipPath id="clip-22">
<rect x="125.00" y="88.00" width="352.27" height="280.00"/>
</clipPath>
<clipPath id="clip-23">
<rect x="125.00" y="88.00" width="352.27" height="280.00"/>
</clipPath>
<clipPath id="clip-24">
<rect x="125.00" y="88.00" width="352.27" height="280.00"/>
</clipPath>
<clipPath id="clip-25">
<rect x="125.00" y="88.00" width="352.27" height="280.00"/>
</clipPath>
<clipPath id="clip-26">
<rect x="125.00" y="88.00" width="352.27" height="280.00"/>
</clipPath>
<clipPath id="clip-27">
<rect x="125.00" y="88.00" width="352.27" height="280.00"/>
</clipPath>
<clipPath id="clip-28">
<rect x="547.73" y="424.00" width="352.27" height="280.00"/>
</clipPath>
<clipPath id="clip-29">
<rect x="547.73" y="424.00" width="352.27" height="280.00"/>
</clipPath>
<clipPath id="clip-30">
<rect x="547.73" y="424.00" width="352.27" height="280.00"/>
</clipPath>
<clipPath id="clip-31">
<rect x="547.73" y="424.00" width="352.27" height="280.00"/>
</clipPath>
<clipPath id="clip-32">
<rect x="547.73" y="424.00" width="352.27" height="280.00"/>
</clipPath>
<clipPath id="clip-33">
<rect x="547.73" y="424.00" width="352.27" height="280.00"/>
</clipPath>
<clipPath id="clip-34">
<rect x="547.73" y="424.00" width="352.27" height="280.00"/>
</clipPath>
<clipPath id="clip-35">
<rect x="125.00" y="424.00" width="352.27" height="280.00"/>
</clipPath>
<clipPath id="clip-36">
<rect x="125.00" y="424.00" width="352.27" height="280.00"/>
</clipPath>
<clipPath id="clip-37">
<rect x="125.00" y="424.00" width="352.27" height="280.00"/>
</clipPath>
<clipPath id="clip-38">
<rect x="125.00" y="424.00" width="352.27" height="280.00"/>
</clipPath>
<clipPath id="clip-39">
<rect x="125.00" y="424.00" width="352.27" height="280.00"/>
</clipPath>
<clipPath id="clip-40">
<rect x="125.00" y="424.00" width="352.27" height="280.00"/>
</clipPath>
<clipPath id="clip-41">
<rect x="125.00" y="424.00" width="352.27" height="280.00"/>
</clipPath>
<clipPath id="clip-42">
<rect x="125.00" y="424.00" width="352.27" height="280.00"/>
</clipPath>
<clipPath id="clip-43">
<rect x="125.00" y="424.00" width="352.27" height="280.00"/>
</clipPath>
<clipPath id="clip-44">
<rect x="125.00" y="424.00" width="352.27" height="280.00"/>
</clipPath>
<clipPath id="clip-45">
<rect x="125.00" y="424.00" width="352.27" height="280.00"/>
</clipPath>
<clipPath id="clip-46">
<rect x="125.00" y="424.00" width="352.27" height="280.00"/>
</clipPath>
<clipPath id="clip-47">
<rect x="125.00" y="424.00" width="352.27" height="280.00"/>
</clipPath>
<clipPath id="clip-48">
<rect x="125.00" y="424.00" width="352.27" height="280.00"/>
</clipPath>
<clipPath id="clip-49">
<rect x="125.00" y="424.00" width="352.27" height="280.00"/>
</clipPath>
</defs>
<g transform="translate(0,800) scale(1,-1)">
<rect width="1000" height="800" fill="white"/>
<path d="M 0.00 0.00 L 1000.00 0.00 L 1000.00 800.00 L 0.00 800.00 L 0.00 0.00 Z " fill="#FFFFFF" fill-opacity="1.00" stroke="#000000" stroke-opacity="1.00" stroke-width="0.00" stroke-linecap="butt" stroke-linejoin="miter"/>
<path d="M 547.73 88.00 L 900.00 88.00 L 900.00 368.00 L 547.73 368.00 L 547.73 88.00 Z " fill="#FFFFFF" fill-opacity="1.00" stroke="none" stroke-opacity="0.00" stroke-width="0.00" stroke-linecap="butt" stroke-linejoin="miter"/>
<path d="M 564.50 88.50 L 564.50 368.50 " fill="none" fill-opacity="0.00" stroke="#B0B0B0" stroke-opacity="1.00" stroke-width="0.80" stroke-linecap="butt" stroke-linejoin="miter" clip-path="url(#clip-1)"/>
<path d="M 629.50 88.50 L 629.50 368.50 " fill="none" fill-opacity="0.00" stroke="#B0B0B0" stroke-opacity="1.00" stroke-width="0.80" stroke-linecap="butt" stroke-linejoin="miter" clip-path="url(#clip-2)"/>
<path d="M 694.50 88.50 L 694.50 368.50 " fill="none" fill-opacity="0.00" stroke="#B0B0B0" stroke-opacity="1.00" stroke-width="0.80" stroke-linecap="butt" stroke-linejoin="miter" clip-path="url(#clip-3)"/>
<path d="M 760.50 88.50 L 760.50 368.50 " fill="none" fill-opacity="0.00" stroke="#B0B0B0" stroke-opacity="1.00" stroke-width="0.80" stroke-linecap="butt" stroke-linejoin="miter" clip-path="url(#clip-4)"/>
<path d="M 825.50 88.50 L 825.50 368.50 " fill="none" fill-opacity="0.00" stroke="#B0B0B0" stroke-opacity="1.00" stroke-width="0.80" stroke-linecap="butt" stroke-linejoin="miter" clip-path="url(#clip-5)"/>
<path d="M 891.50 88.50 L 891.50 368.50 " fill="none" fill-opacity="0.00" stroke="#B0B0B0" stroke-opacity="1.00" stroke-width="0.80" stroke-linecap="butt" stroke-linejoin="miter" clip-path="url(#clip-6)"/>
<path d="M 548.50 100.50 L 900.50 100.50 " fill="none" fill-opacity="0.00" stroke="#B0B0B0" stroke-opacity="1.00" stroke-width="0.80" stroke-linecap="butt" stroke-linejoin="miter" clip-path="url(#clip-7)"/>
<path d="M 548.50 153.50 L 900.50 153.50 " fill="none" fill-opacity="0.00" stroke="#B0B0B0" stroke-opacity="1.00" stroke-width="0.80" stroke-linecap="butt" stroke-linejoin="miter" clip-path="url(#clip-8)"/>
<path d="M 548.50 206.50 L 900.50 206.50 " fill="none" fill-opacity="0.00" stroke="#B0B0B0" stroke-opacity="1.00" stroke-width="0.80" stroke-linecap="butt" stroke-linejoin="miter" clip-path="url(#clip-9)"/>
<path d="M 548.50 259.50 L 900.50 259.50 " fill="none" fill-opacity="0.00" stroke="#B0B0B0" stroke-opacity="1.00" stroke-width="0.80" stroke-linecap="butt" stroke-linejoin="miter" clip-path="url(#clip-10)"/>
<path d="M 548.50 312.50 L 900.50 312.50 " fill="none" fill-opacity="0.00" stroke="#B0B0B0" stroke-opacity="1.00" stroke-width="0.80" stroke-linecap="butt" stroke-linejoin="miter" clip-path="url(#clip-11)"/>
<path d="M 548.50 365.50 L 900.50 365.50 " fill="none" fill-opacity="0.00" stroke="#B0B0B0" stroke-opacity="1.00" stroke-width="0.80" stroke-linecap="butt" stroke-linejoin="miter" clip-path="url(#clip-12)"/>
<path d="M 563.74 100.73 L 570.28 100.83 L 576.81 101.15 L 583.35 101.68 L 589.88 102.42 L 596.42 103.38 L 602.95 104.54 L 609.49 105.92 L 616.03 107.51 L 622.56 109.31 L 629.10 111.33 L 635.63 113.56 L 642.17 115.99 L 648.70 118.64 L 655.24 121.51 L 661.77 124.58 L 668.31 127.87 L 674.85 131.37 L 681.38 135.08 L 687.92 139.00 L 694.45 143.13 L 700.99 147.48 L 707.52 152.04 L 714.06 156.81 L 720.60 161.79 L 727.13 166.99 L 733.67 172.39 L 740.20 178.01 L 746.74 183.84 L 753.27 189.89 L 759.81 196.14 L 766.35 202.61 L 772.88 209.29 L 779.42 216.18 L 785.95 223.28 L 792.49 230.60 L 799.02 238.12 L 805.56 245.86 L 812.10 253.82 L 818.63 261.98 L 825.17 270.35 L 831.70 278.94 L 838.24 287.74 L 844.77 296.75 L 851.31 305.98 L 857.84 315.41 L 864.38 325.06 L 870.92 334.92 L 877.45 344.99 L 883.99 355.27 " fill="none" fill-opacity="0.00" stroke="#9932CC" stroke-opacity="1.00" stroke-width="1.50" stroke-linecap="square" stroke-linejoin="round"/>
<path d="M 564.50 88.50 L 564.50 83.50 " fill="none" fill-opacity="0.00" stroke="#000000" stroke-opacity="1.00" stroke-width="0.80" stroke-linecap="butt" stroke-linejoin="miter"/>
<text font-family="DejaVu Sans" font-size="13.89" fill="#000000" fill-opacity="1.00" text-anchor="middle" dominant-baseline="text-before-edge" transform="translate(563.74,78.28) scale(1,-1)">0</text>
<path d="M 629.50 88.50 L 629.50 83.50 " fill="none" fill-opacity="0.00" stroke="#000000" stroke-opacity="1.00" stroke-width="0.80" stroke-linecap="butt" stroke-linejoin="miter"/>
<text font-family="DejaVu Sans" font-size="13.89" fill="#000000" fill-opacity="1.00" text-anchor="middle" dominant-baseline="text-before-edge" transform="translate(629.10,78.28) scale(1,-1)">2</text>
<path d="M 694.50 88.50 L 694.50 83.50 " fill="none" fill-opacity="0.00" stroke="#000000" stroke-opacity="1.00" stroke-width="0.80" stroke-linecap="butt" stroke-linejoin="miter"/>
<text font-family="DejaVu Sans" font-size="13.89" fill="#000000" fill-opacity="1.00" text-anchor="middle" dominant-baseline="text-before-edge" transform="translate(694.45,78.28) scale(1,-1)">4</text>
<path d="M 760.50 88.50 L 760.50 83.50 " fill="none" fill-opacity="0.00" stroke="#000000" stroke-opacity="1.00" stroke-width="0.80" stroke-linecap="butt" stroke-linejoin="miter"/>
<text font-family="DejaVu Sans" font-size="13.89" fill="#000000" fill-opacity="1.00" text-anchor="middle" dominant-baseline="text-before-edge" transform="translate(759.81,78.28) scale(1,-1)">6</text>
<path d="M 825.50 88.50 L 825.50 83.50 " fill="none" fill-opacity="0.00" stroke="#000000" stroke-opacity="1.00" stroke-width="0.80" stroke-linecap="butt" stroke-linejoin="miter"/>
<text font-family="DejaVu Sans" font-size="13.89" fill="#000000" fill-opacity="1.00" text-anchor="middle" dominant-baseline="text-before-edge" transform="translate(825.17,78.28) scale(1,-1)">8</text>
<path d="M 891.50 88.50 L 891.50 83.50 " fill="none" fill-opacity="0.00" stroke="#000000" stroke-opacity="1.00" stroke-width="0.80" stroke-linecap="butt" stroke-linejoin="miter"/>
<text font-family="DejaVu Sans" font-size="13.89" fill="#000000" fill-opacity="1.00" text-anchor="middle" dominant-baseline="text-before-edge" transform="translate(890.52,78.28) scale(1,-1)">10</text>
<path d="M 548.50 100.50 L 543.50 100.50 " fill="none" fill-opacity="0.00" stroke="#000000" stroke-opacity="1.00" stroke-width="0.80" stroke-linecap="butt" stroke-linejoin="miter"/>
<text font-family="DejaVu Sans" font-size="13.89" fill="#000000" fill-opacity="1.00" text-anchor="end" dominant-baseline="central" transform="translate(538.01,100.73) scale(1,-1)">0</text>
<path d="M 548.50 153.50 L 543.50 153.50 " fill="none" fill-opacity="0.00" stroke="#000000" stroke-opacity="1.00" stroke-width="0.80" stroke-linecap="butt" stroke-linejoin="miter"/>
<text font-family="DejaVu Sans" font-size="13.89" fill="#000000" fill-opacity="1.00" text-anchor="end" dominant-baseline="central" transform="translate(538.01,153.74) scale(1,-1)">20</text>
<path d="M 548.50 206.50 L 543.50 206.50 " fill="none" fill-opacity="0.00" stroke="#000000" stroke-opacity="1.00" stroke-width="0.80" stroke-linecap="butt" stroke-linejoin="miter"/>
<text font-family="DejaVu Sans" font-size="13.89" fill="#000000" fill-opacity="1.00" text-anchor="end" dominant-baseline="central" transform="translate(538.01,206.74) scale(1,-1)">40</text>
<path d="M 548.50 259.50 L 543.50 259.50 " fill="none" fill-opacity="0.00" stroke="#000000" stroke-opacity="1.00" stroke-width="0.80" stroke-linecap="butt" stroke-linejoin="miter"/>
<text font-family="DejaVu Sans" font-size="13.89" fill="#000000" fill-opacity="1.00" text-anchor="end" dominant-baseline="central" transform="translate(538.01,259.75) scale(1,-1)">60</text>
<path d="M 548.50 312.50 L 543.50 312.50 " fill="none" fill-opacity="0.00" stroke="#000000" stroke-opacity="1.00" stroke-width="0.80" stroke-linecap="butt" stroke-linejoin="miter"/>
<text font-family="DejaVu Sans" font-size="13.89" fill="#000000" fill-opacity="1.00" text-anchor="end" dominant-baseline="central" transform="translate(538.01,312.76) scale(1,-1)">80</text>
<path d="M 548.50 365.50 L 543.50 365.50 " fill="none" fill-opacity="0.00" stroke="#000000" stroke-opacity="1.00" stroke-width="0.80" stroke-linecap="butt" stroke-linejoin="miter"/>
<text font-family="DejaVu Sans" font-size="13.89" fill="#000000" fill-opacity="1.00" text-anchor="end" dominant-baseline="central" transform="translate(538.01,365.77) scale(1,-1)">100</text>
<path d="M 547.50 88.50 L 547.50 368.50 " fill="none" fill-opacity="0.00" stroke="#000000" stroke-opacity="1.00" stroke-width="0.80" stroke-linecap="square" stroke-linejoin="miter"/>
<path d="M 900.50 88.50 L 900.50 368.50 " fill="none" fill-opacity="0.00" stroke="#000000" stroke-opacity="1.00" stroke-width="0.80" stroke-linecap="square" stroke-linejoin="miter"/>
<path d="M 548.50 87.50 L 900.50 87.50 " fill="none" fill-opacity="0.00" stroke="#000000" stroke-opacity="1.00" stroke-width="0.80" stroke-linecap="square" stroke-linejoin="miter"/>
<path d="M 548.50 367.50 L 900.50 367.50 " fill="none" fill-opacity="0.00" stroke="#000000" stroke-opacity="1.00" stroke-width="0.80" stroke-linecap="square" stroke-linejoin="miter"/>
<path d="M 125.00 88.00 L 477.27 88.00 L 477.27 368.00 L 125.00 368.00 L 125.00 88.00 Z " fill="#FFFFFF" fill-opacity="1.00" stroke="none" stroke-opacity="0.00" stroke-width="0.00" stroke-linecap="butt" stroke-linejoin="miter"/>
<path d="M 141.50 88.50 L 141.50 368.50 " fill="none" fill-opacity="0.00" stroke="#B0B0B0" stroke-opacity="1.00" stroke-width="0.80" stroke-linecap="butt" stroke-linejoin="miter" clip-path="url(#clip-13)"/>
<path d="M 206.50 88.50 L 206.50 368.50 " fill="none" fill-opacity="0.00" stroke="#B0B0B0" stroke-opacity="1.00" stroke-width="0.80" stroke-linecap="butt" stroke-linejoin="miter" clip-path="url(#clip-14)"/>
<path d="M 272.50 88.50 L 272.50 368.50 " fill="none" fill-opacity="0.00" stroke="#B0B0B0" stroke-opacity="1.00" stroke-width="0.80" stroke-linecap="butt" stroke-linejoin="miter" clip-path="url(#clip-15)"/>
<path d="M 337.50 88.50 L 337.50 368.50 " fill="none" fill-opacity="0.00" stroke="#B0B0B0" stroke-opacity="1.00" stroke-width="0.80" stroke-linecap="butt" stroke-linejoin="miter" clip-path="url(#clip-16)"/>
<path d="M 402.50 88.50 L 402.50 368.50 " fill="none" fill-opacity="0.00" stroke="#B0B0B0" stroke-opacity="1.00" stroke-width="0.80" stroke-linecap="butt" stroke-linejoin="miter" clip-path="url(#clip-17)"/>
<path d="M 468.50 88.50 L 468.50 368.50 " fill="none" fill-opacity="0.00" stroke="#B0B0B0" stroke-opacity="1.00" stroke-width="0.80" stroke-linecap="butt" stroke-linejoin="miter" clip-path="url(#clip-18)"/>
<path d="M 125.50 100.50 L 477.50 100.50 " fill="none" fill-opacity="0.00" stroke="#B0B0B0" stroke-opacity="1.00" stroke-width="0.80" stroke-linecap="butt" stroke-linejoin="miter" clip-path="url(#clip-19)"/>
<path d="M 125.50 132.50 L 477.50 132.50 " fill="none" fill-opacity="0.00" stroke="#B0B0B0" stroke-opacity="1.00" stroke-width="0.80" stroke-linecap="butt" stroke-linejoin="miter" clip-path="url(#clip-20)"/>
<path d="M 125.50 163.50 L 477.50 163.50 " fill="none" fill-opacity="0.00" stroke="#B0B0B0" stroke-opacity="1.00" stroke-width="0.80" stroke-linecap="butt" stroke-linejoin="miter" clip-path="url(#clip-21)"/>
<path d="M 125.50 195.50 L 477.50 195.50 " fill="none" fill-opacity="0.00" stroke="#B0B0B0" stroke-opacity="1.00" stroke-width="0.80" stroke-linecap="butt" stroke-linejoin="miter" clip-path="url(#clip-22)"/>
<path d="M 125.50 227.50 L 477.50 227.50 " fill="none" fill-opacity="0.00" stroke="#B0B0B0" stroke-opacity="1.00" stroke-width="0.80" stroke-linecap="butt" stroke-linejoin="miter" clip-path="url(#clip-23)"/>
<path d="M 125.50 259.50 L 477.50 259.50 " fill="none" fill-opacity="0.00" stroke="#B0B0B0" stroke-opacity="1.00" stroke-width="0.80" stroke-linecap="butt" stroke-linejoin="miter" clip-path="url(#clip-24)"/>
<path d="M 125.50 291.50 L 477.50 291.50 " fill="none" fill-opacity="0.00" stroke="#B0B0B0" stroke-opacity="1.00" stroke-width="0.80" stroke-linecap="butt" stroke-linejoin="miter" clip-path="url(#clip-25)"/>
<path d="M 125.50 322.50 L 477.50 322.50 " fill="none" fill-opacity="0.00" stroke="#B0B0B0" stroke-opacity="1.00" stroke-width="0.80" stroke-linecap="butt" stroke-linejoin="miter" clip-path="url(#clip-26)"/>
<path d="M 125.50 354.50 L 477.50 354.50 " fill="none" fill-opacity="0.00" stroke="#B0B0B0" stroke-opacity="1.00" stroke-width="0.80" stroke-linecap="butt" stroke-linejoin="miter" clip-path="url(#clip-27)"/>
<path d="M 141.01 355.27 L 147.55 352.74 L 154.08 345.22 L 160.62 333.04 L 167.16 316.67 L 173.69 296.76 L 180.23 274.11 L 186.76 249.62 L 193.30 224.26 L 199.83 199.06 L 206.37 175.01 L 212.90 153.07 L 219.44 134.12 L 225.98 118.91 L 232.51 108.04 L 239.05 101.96 L 245.58 100.91 L 252.12 104.91 L 258.65 113.83 L 265.19 127.30 L 271.73 144.78 L 278.26 165.57 L 284.80 188.86 L 291.33 213.70 L 297.87 239.12 L 304.40 264.09 L 310.94 287.62 L 317.48 308.77 L 324.01 326.70 L 330.55 340.70 L 337.08 350.20 L 343.62 354.83 L 350.15 354.41 L 356.69 348.94 L 363.23 338.65 L 369.76 323.95 L 376.30 305.42 L 382.83 283.80 L 389.37 259.96 L 395.90 234.85 L 402.44 209.46 L 408.97 184.81 L 415.51 161.88 L 422.05 141.58 L 428.58 124.73 L 435.12 112.00 L 441.65 103.89 L 448.19 100.73 L 454.72 102.64 L 461.26 109.54 " fill="none" fill-opacity="0.00" stroke="#2E8B57" stroke-opacity="1.00" stroke-width="1.50" stroke-linecap="square" stroke-linejoin="round"/>
<path d="M 141.50 88.50 L 141.50 83.50 " fill="none" fill-opacity="0.00" stroke="#000000" stroke-opacity="1.00" stroke-width="0.80" stroke-linecap="butt" stroke-linejoin="miter"/>
<text font-family="DejaVu Sans" font-size="13.89" fill="#000000" fill-opacity="1.00" text-anchor="middle" dominant-baseline="text-before-edge" transform="translate(141.01,78.28) scale(1,-1)">0</text>
<path d="M 206.50 88.50 L 206.50 83.50 " fill="none" fill-opacity="0.00" stroke="#000000" stroke-opacity="1.00" stroke-width="0.80" stroke-linecap="butt" stroke-linejoin="miter"/>
<text font-family="DejaVu Sans" font-size="13.89" fill="#000000" fill-opacity="1.00" text-anchor="middle" dominant-baseline="text-before-edge" transform="translate(206.37,78.28) scale(1,-1)">2</text>
<path d="M 272.50 88.50 L 272.50 83.50 " fill="none" fill-opacity="0.00" stroke="#000000" stroke-opacity="1.00" stroke-width="0.80" stroke-linecap="butt" stroke-linejoin="miter"/>
<text font-family="DejaVu Sans" font-size="13.89" fill="#000000" fill-opacity="1.00" text-anchor="middle" dominant-baseline="text-before-edge" transform="translate(271.73,78.28) scale(1,-1)">4</text>
<path d="M 337.50 88.50 L 337.50 83.50 " fill="none" fill-opacity="0.00" stroke="#000000" stroke-opacity="1.00" stroke-width="0.80" stroke-linecap="butt" stroke-linejoin="miter"/>
<text font-family="DejaVu Sans" font-size="13.89" fill="#000000" fill-opacity="1.00" text-anchor="middle" dominant-baseline="text-before-edge" transform="translate(337.08,78.28) scale(1,-1)">6</text>
<path d="M 402.50 88.50 L 402.50 83.50 " fill="none" fill-opacity="0.00" stroke="#000000" stroke-opacity="1.00" stroke-width="0.80" stroke-linecap="butt" stroke-linejoin="miter"/>
<text font-family="DejaVu Sans" font-size="13.89" fill="#000000" fill-opacity="1.00" text-anchor="middle" dominant-baseline="text-before-edge" transform="translate(402.44,78.28) scale(1,-1)">8</text>
<path d="M 468.50 88.50 L 468.50 83.50 " fill="none" fill-opacity="0.00" stroke="#000000" stroke-opacity="1.00" stroke-width="0.80" stroke-linecap="butt" stroke-linejoin="miter"/>
<text font-family="DejaVu Sans" font-size="13.89" fill="#000000" fill-opacity="1.00" text-anchor="middle" dominant-baseline="text-before-edge" transform="translate(467.80,78.28) scale(1,-1)">10</text>
<path d="M 125.50 100.50 L 120.50 100.50 " fill="none" fill-opacity="0.00" stroke="#000000" stroke-opacity="1.00" stroke-width="0.80" stroke-linecap="butt" stroke-linejoin="miter"/>
<text font-family="DejaVu Sans" font-size="13.89" fill="#000000" fill-opacity="1.00" text-anchor="end" dominant-baseline="central" transform="translate(115.28,100.69) scale(1,-1)">-1.00</text>
<path d="M 125.50 132.50 L 120.50 132.50 " fill="none" fill-opacity="0.00" stroke="#000000" stroke-opacity="1.00" stroke-width="0.80" stroke-linecap="butt" stroke-linejoin="miter"/>
<text font-family="DejaVu Sans" font-size="13.89" fill="#000000" fill-opacity="1.00" text-anchor="end" dominant-baseline="central" transform="translate(115.28,132.51) scale(1,-1)">-0.75</text>
<path d="M 125.50 163.50 L 120.50 163.50 " fill="none" fill-opacity="0.00" stroke="#000000" stroke-opacity="1.00" stroke-width="0.80" stroke-linecap="butt" stroke-linejoin="miter"/>
<text font-family="DejaVu Sans" font-size="13.89" fill="#000000" fill-opacity="1.00" text-anchor="end" dominant-baseline="central" transform="translate(115.28,164.33) scale(1,-1)">-0.50</text>
<path d="M 125.50 195.50 L 120.50 195.50 " fill="none" fill-opacity="0.00" stroke="#000000" stroke-opacity="1.00" stroke-width="0.80" stroke-linecap="butt" stroke-linejoin="miter"/>
<text font-family="DejaVu Sans" font-size="13.89" fill="#000000" fill-opacity="1.00" text-anchor="end" dominant-baseline="central" transform="translate(115.28,196.16) scale(1,-1)">-0.25</text>
<path d="M 125.50 227.50 L 120.50 227.50 " fill="none" fill-opacity="0.00" stroke="#000000" stroke-opacity="1.00" stroke-width="0.80" stroke-linecap="butt" stroke-linejoin="miter"/>
<text font-family="DejaVu Sans" font-size="13.89" fill="#000000" fill-opacity="1.00" text-anchor="end" dominant-baseline="central" transform="translate(115.28,227.98) scale(1,-1)">0.00</text>
<path d="M 125.50 259.50 L 120.50 259.50 " fill="none" fill-opacity="0.00" stroke="#000000" stroke-opacity="1.00" stroke-width="0.80" stroke-linecap="butt" stroke-linejoin="miter"/>
<text font-family="DejaVu Sans" font-size="13.89" fill="#000000" fill-opacity="1.00" text-anchor="end" dominant-baseline="central" transform="translate(115.28,259.80) scale(1,-1)">0.25</text>
<path d="M 125.50 291.50 L 120.50 291.50 " fill="none" fill-opacity="0.00" stroke="#000000" stroke-opacity="1.00" stroke-width="0.80" stroke-linecap="butt" stroke-linejoin="miter"/>
<text font-family="DejaVu Sans" font-size="13.89" fill="#000000" fill-opacity="1.00" text-anchor="end" dominant-baseline="central" transform="translate(115.28,291.63) scale(1,-1)">0.50</text>
<path d="M 125.50 322.50 L 120.50 322.50 " fill="none" fill-opacity="0.00" stroke="#000000" stroke-opacity="1.00" stroke-width="0.80" stroke-linecap="butt" stroke-linejoin="miter"/>
<text font-family="DejaVu Sans" font-size="13.89" fill="#000000" fill-opacity="1.00" text-anchor="end" dominant-baseline="central" transform="translate(115.28,323.45) scale(1,-1)">0.75</text>
<path d="M 125.50 354.50 L 120.50 354.50 " fill="none" fill-opacity="0.00" stroke="#000000" stroke-opacity="1.00" stroke-width="0.80" stroke-linecap="butt" stroke-linejoin="miter"/>
<text font-family="DejaVu Sans" font-size="13.89" fill="#000000" fill-opacity="1.00" text-anchor="end" dominant-baseline="central" transform="translate(115.28,355.27) scale(1,-1)">1.00</text>
<path d="M 125.50 88.50 L 125.50 368.50 " fill="none" fill-opacity="0.00" stroke="#000000" stroke-opacity="1.00" stroke-width="0.80" stroke-linecap="square" stroke-linejoin="miter"/>
<path d="M 477.50 88.50 L 477.50 368.50 " fill="none" fill-opacity="0.00" stroke="#000000" stroke-opacity="1.00" stroke-width="0.80" stroke-linecap="square" stroke-linejoin="miter"/>
<path d="M 125.50 87.50 L 477.50 87.50 " fill="none" fill-opacity="0.00" stroke="#000000" stroke-opacity="1.00" stroke-width="0.80" stroke-linecap="square" stroke-linejoin="miter"/>
<path d="M 125.50 367.50 L 477.50 367.50 " fill="none" fill-opacity="0.00" stroke="#000000" stroke-opacity="1.00" stroke-width="0.80" stroke-linecap="square" stroke-linejoin="miter"/>
<path d="M 547.73 424.00 L 900.00 424.00 L 900.00 704.00 L 547.73 704.00 L 547.73 424.00 Z " fill="#FFFFFF" fill-opacity="1.00" stroke="none" stroke-opacity="0.00" stroke-width="0.00" stroke-linecap="butt" stroke-linejoin="miter"/>
<path d="M 564.50 424.50 L 564.50 704.50 " fill="none" fill-opacity="0.00" stroke="#B0B0B0" stroke-opacity="1.00" stroke-width="0.80" stroke-linecap="butt" stroke-linejoin="miter" clip-path="url(#clip-28)"/>
<path d="M 629.50 424.50 L 629.50 704.50 " fill="none" fill-opacity="0.00" stroke="#B0B0B0" stroke-opacity="1.00" stroke-width="0.80" stroke-linecap="butt" stroke-linejoin="miter" clip-path="url(#clip-29)"/>
<path d="M 694.50 424.50 L 694.50 704.50 " fill="none" fill-opacity="0.00" stroke="#B0B0B0" stroke-opacity="1.00" stroke-width="0.80" stroke-linecap="butt" stroke-linejoin="miter" clip-path="url(#clip-30)"/>
<path d="M 760.50 424.50 L 760.50 704.50 " fill="none" fill-opacity="0.00" stroke="#B0B0B0" stroke-opacity="1.00" stroke-width="0.80" stroke-linecap="butt" stroke-linejoin="miter" clip-path="url(#clip-31)"/>
<path d="M 825.50 424.50 L 825.50 704.50 " fill="none" fill-opacity="0.00" stroke="#B0B0B0" stroke-opacity="1.00" stroke-width="0.80" stroke-linecap="butt" stroke-linejoin="miter" clip-path="url(#clip-32)"/>
<path d="M 891.50 424.50 L 891.50 704.50 " fill="none" fill-opacity="0.00" stroke="#B0B0B0" stroke-opacity="1.00" stroke-width="0.80" stroke-linecap="butt" stroke-linejoin="miter" clip-path="url(#clip-33)"/>
<path d="M 548.50 436.50 L 900.50 436.50 " fill="none" fill-opacity="0.00" stroke="#B0B0B0" stroke-opacity="1.00" stroke-width="0.80" stroke-linecap="butt" stroke-linejoin="miter" clip-path="url(#clip-34)"/>
<path d="M 563.74 436.73 L 570.28 441.92 L 576.81 447.12 L 583.35 452.31 L 589.88 457.51 L 596.42 462.70 L 602.95 467.90 L 609.49 473.09 L 616.03 478.29 L 622.56 483.48 L 629.10 488.68 L 635.63 493.87 L 642.17 499.06 L 648.70 504.26 L 655.24 509.45 L 661.77 514.65 L 668.31 519.84 L 674.85 525.04 L 681.38 530.23 L 687.92 535.43 L 694.45 540.62 L 700.99 545.82 L 707.52 551.01 L 714.06 556.21 L 720.60 561.40 L 727.13 566.60 L 733.67 571.79 L 740.20 576.99 L 746.74 582.18 L 753.27 587.38 L 759.81 592.57 L 766.35 597.77 L 772.88 602.96 L 779.42 608.16 L 785.95 613.35 L 792.49 618.55 L 799.02 623.74 L 805.56 628.94 L 812.10 634.13 L 818.63 639.32 L 825.17 644.52 L 831.70 649.71 L 838.24 654.91 L 844.77 660.10 L 851.31 665.30 L 857.84 670.49 L 864.38 675.69 L 870.92 680.88 L 877.45 686.08 L 883.99 691.27 " fill="none" fill-opacity="0.00" stroke="#FF6347" stroke-opacity="1.00" stroke-width="1.50" stroke-linecap="square" stroke-linejoin="round"/>
<path d="M 564.50 424.50 L 564.50 419.50 " fill="none" fill-opacity="0.00" stroke="#000000" stroke-opacity="1.00" stroke-width="0.80" stroke-linecap="butt" stroke-linejoin="miter"/>
<text font-family="DejaVu Sans" font-size="13.89" fill="#000000" fill-opacity="1.00" text-anchor="middle" dominant-baseline="text-before-edge" transform="translate(563.74,414.28) scale(1,-1)">0</text>
<path d="M 629.50 424.50 L 629.50 419.50 " fill="none" fill-opacity="0.00" stroke="#000000" stroke-opacity="1.00" stroke-width="0.80" stroke-linecap="butt" stroke-linejoin="miter"/>
<text font-family="DejaVu Sans" font-size="13.89" fill="#000000" fill-opacity="1.00" text-anchor="middle" dominant-baseline="text-before-edge" transform="translate(629.10,414.28) scale(1,-1)">2</text>
<path d="M 694.50 424.50 L 694.50 419.50 " fill="none" fill-opacity="0.00" stroke="#000000" stroke-opacity="1.00" stroke-width="0.80" stroke-linecap="butt" stroke-linejoin="miter"/>
<text font-family="DejaVu Sans" font-size="13.89" fill="#000000" fill-opacity="1.00" text-anchor="middle" dominant-baseline="text-before-edge" transform="translate(694.45,414.28) scale(1,-1)">4</text>
<path d="M 760.50 424.50 L 760.50 419.50 " fill="none" fill-opacity="0.00" stroke="#000000" stroke-opacity="1.00" stroke-width="0.80" stroke-linecap="butt" stroke-linejoin="miter"/>
<text font-family="DejaVu Sans" font-size="13.89" fill="#000000" fill-opacity="1.00" text-anchor="middle" dominant-baseline="text-before-edge" transform="translate(759.81,414.28) scale(1,-1)">6</text>
<path d="M 825.50 424.50 L 825.50 419.50 " fill="none" fill-opacity="0.00" stroke="#000000" stroke-opacity="1.00" stroke-width="0.80" stroke-linecap="butt" stroke-linejoin="miter"/>
<text font-family="DejaVu Sans" font-size="13.89" fill="#000000" fill-opacity="1.00" text-anchor="middle" dominant-baseline="text-before-edge" transform="translate(825.17,414.28) scale(1,-1)">8</text>
<path d="M 891.50 424.50 L 891.50 419.50 " fill="none" fill-opacity="0.00" stroke="#000000" stroke-opacity="1.00" stroke-width="0.80" stroke-linecap="butt" stroke-linejoin="miter"/>
<text font-family="DejaVu Sans" font-size="13.89" fill="#000000" fill-opacity="1.00" text-anchor="middle" dominant-baseline="text-before-edge" transform="translate(890.52,414.28) scale(1,-1)">10</text>
<path d="M 548.50 436.50 L 543.50 436.50 " fill="none" fill-opacity="0.00" stroke="#000000" stroke-opacity="1.00" stroke-width="0.80" stroke-linecap="butt" stroke-linejoin="miter"/>
<text font-family="DejaVu Sans" font-size="13.89" fill="#000000" fill-opacity="1.00" text-anchor="end" dominant-baseline="central" transform="translate(538.01,436.73) scale(1,-1)">10⁰</text>
<path d="M 548.50 616.50 L 545.50 616.50 " fill="none" fill-opacity="0.00" stroke="#000000" stroke-opacity="1.00" stroke-width="0.60" stroke-linecap="butt" stroke-linejoin="miter"/>
<path d="M 547.50 424.50 L 547.50 704.50 " fill="none" fill-opacity="0.00" stroke="#000000" stroke-opacity="1.00" stroke-width="0.80" stroke-linecap="square" stroke-linejoin="miter"/>
<path d="M 900.50 424.50 L 900.50 704.50 " fill="none" fill-opacity="0.00" stroke="#000000" stroke-opacity="1.00" stroke-width="0.80" stroke-linecap="square" stroke-linejoin="miter"/>
<path d="M 548.50 423.50 L 900.50 423.50 " fill="none" fill-opacity="0.00" stroke="#000000" stroke-opacity="1.00" stroke-width="0.80" stroke-linecap="square" stroke-linejoin="miter"/>
<path d="M 548.50 703.50 L 900.50 703.50 " fill="none" fill-opacity="0.00" stroke="#000000" stroke-opacity="1.00" stroke-width="0.80" stroke-linecap="square" stroke-linejoin="miter"/>
<path d="M 125.00 424.00 L 477.27 424.00 L 477.27 704.00 L 125.00 704.00 L 125.00 424.00 Z " fill="#FFFFFF" fill-opacity="1.00" stroke="none" stroke-opacity="0.00" stroke-width="0.00" stroke-linecap="butt" stroke-linejoin="miter"/>
<path d="M 141.50 424.50 L 141.50 704.50 " fill="none" fill-opacity="0.00" stroke="#B0B0B0" stroke-opacity="1.00" stroke-width="0.80" stroke-linecap="butt" stroke-linejoin="miter" clip-path="url(#clip-35)"/>
<path d="M 206.50 424.50 L 206.50 704.50 " fill="none" fill-opacity="0.00" stroke="#B0B0B0" stroke-opacity="1.00" stroke-width="0.80" stroke-linecap="butt" stroke-linejoin="miter" clip-path="url(#clip-36)"/>
<path d="M 272.50 424.50 L 272.50 704.50 " fill="none" fill-opacity="0.00" stroke="#B0B0B0" stroke-opacity="1.00" stroke-width="0.80" stroke-linecap="butt" stroke-linejoin="miter" clip-path="url(#clip-37)"/>
<path d="M 337.50 424.50 L 337.50 704.50 " fill="none" fill-opacity="0.00" stroke="#B0B0B0" stroke-opacity="1.00" stroke-width="0.80" stroke-linecap="butt" stroke-linejoin="miter" clip-path="url(#clip-38)"/>
<path d="M 402.50 424.50 L 402.50 704.50 " fill="none" fill-opacity="0.00" stroke="#B0B0B0" stroke-opacity="1.00" stroke-width="0.80" stroke-linecap="butt" stroke-linejoin="miter" clip-path="url(#clip-39)"/>
<path d="M 468.50 424.50 L 468.50 704.50 " fill="none" fill-opacity="0.00" stroke="#B0B0B0" stroke-opacity="1.00" stroke-width="0.80" stroke-linecap="butt" stroke-linejoin="miter" clip-path="url(#clip-40)"/>
<path d="M 125.50 435.50 L 477.50 435.50 " fill="none" fill-opacity="0.00" stroke="#B0B0B0" stroke-opacity="1.00" stroke-width="0.80" stroke-linecap="butt" stroke-linejoin="miter" clip-path="url(#clip-41)"/>
<path d="M 125.50 467.50 L 477.50 467.50 " fill="none" fill-opacity="0.00" stroke="#B0B0B0" stroke-opacity="1.00" stroke-width="0.80" stroke-linecap="butt" stroke-linejoin="miter" clip-path="url(#clip-42)"/>
<path d="M 125.50 499.50 L 477.50 499.50 " fill="none" fill-opacity="0.00" stroke="#B0B0B0" stroke-opacity="1.00" stroke-width="0.80" stroke-linecap="butt" stroke-linejoin="miter" clip-path="url(#clip-43)"/>
<path d="M 125.50 531.50 L 477.50 531.50 " fill="none" fill-opacity="0.00" stroke="#B0B0B0" stroke-opacity="1.00" stroke-width="0.80" stroke-linecap="butt" stroke-linejoin="miter" clip-path="url(#clip-44)"/>
<path d="M 125.50 563.50 L 477.50 563.50 " fill="none" fill-opacity="0.00" stroke="#B0B0B0" stroke-opacity="1.00" stroke-width="0.80" stroke-linecap="butt" stroke-linejoin="miter" clip-path="url(#clip-45)"/>
<path d="M 125.50 595.50 L 477.50 595.50 " fill="none" fill-opacity="0.00" stroke="#B0B0B0" stroke-opacity="1.00" stroke-width="0.80" stroke-linecap="butt" stroke-linejoin="miter" clip-path="url(#clip-46)"/>
<path d="M 125.50 627.50 L 477.50 627.50 " fill="none" fill-opacity="0.00" stroke="#B0B0B0" stroke-opacity="1.00" stroke-width="0.80" stroke-linecap="butt" stroke-linejoin="miter" clip-path="url(#clip-47)"/>
<path d="M 125.50 658.50 L 477.50 658.50 " fill="none" fill-opacity="0.00" stroke="#B0B0B0" stroke-opacity="1.00" stroke-width="0.80" stroke-linecap="butt" stroke-linejoin="miter" clip-path="url(#clip-48)"/>
<path d="M 125.50 690.50 L 477.50 690.50 " fill="none" fill-opacity="0.00" stroke="#B0B0B0" stroke-opacity="1.00" stroke-width="0.80" stroke-linecap="butt" stroke-linejoin="miter" clip-path="url(#clip-49)"/>
<path d="M 141.01 563.78 L 147.55 589.12 L 154.08 613.45 L 160.62 635.80 L 167.16 655.28 L 173.69 671.11 L 180.23 682.66 L 186.76 689.47 L 193.30 691.27 L 199.83 687.99 L 206.37 679.76 L 212.90 666.90 L 219.44 649.93 L 225.98 629.53 L 232.51 606.51 L 239.05 581.78 L 245.58 556.34 L 252.12 531.19 L 258.65 507.34 L 265.19 485.74 L 271.73 467.26 L 278.26 452.62 L 284.80 442.41 L 291.33 437.04 L 297.87 436.73 L 304.40 441.48 L 310.94 451.10 L 317.48 465.22 L 324.01 483.27 L 330.55 504.53 L 337.08 528.14 L 343.62 553.19 L 350.15 578.65 L 356.69 603.52 L 363.23 626.80 L 369.76 647.58 L 376.30 665.01 L 382.83 678.41 L 389.37 687.24 L 395.90 691.14 L 402.44 689.97 L 408.97 683.77 L 415.51 672.78 L 422.05 657.45 L 428.58 638.39 L 435.12 616.35 L 441.65 592.21 L 448.19 566.94 L 454.72 541.55 L 461.26 517.04 " fill="none" fill-opacity="0.00" stroke="#4682B4" stroke-opacity="1.00" stroke-width="1.50" stroke-linecap="square" stroke-linejoin="round"/>
<path d="M 141.50 424.50 L 141.50 419.50 " fill="none" fill-opacity="0.00" stroke="#000000" stroke-opacity="1.00" stroke-width="0.80" stroke-linecap="butt" stroke-linejoin="miter"/>
<text font-family="DejaVu Sans" font-size="13.89" fill="#000000" fill-opacity="1.00" text-anchor="middle" dominant-baseline="text-before-edge" transform="translate(141.01,414.28) scale(1,-1)">0</text>
<path d="M 206.50 424.50 L 206.50 419.50 " fill="none" fill-opacity="0.00" stroke="#000000" stroke-opacity="1.00" stroke-width="0.80" stroke-linecap="butt" stroke-linejoin="miter"/>
<text font-family="DejaVu Sans" font-size="13.89" fill="#000000" fill-opacity="1.00" text-anchor="middle" dominant-baseline="text-before-edge" transform="translate(206.37,414.28) scale(1,-1)">2</text>
<path d="M 272.50 424.50 L 272.50 419.50 " fill="none" fill-opacity="0.00" stroke="#000000" stroke-opacity="1.00" stroke-width="0.80" stroke-linecap="butt" stroke-linejoin="miter"/>
<text font-family="DejaVu Sans" font-size="13.89" fill="#000000" fill-opacity="1.00" text-anchor="middle" dominant-baseline="text-before-edge" transform="translate(271.73,414.28) scale(1,-1)">4</text>
<path d="M 337.50 424.50 L 337.50 419.50 " fill="none" fill-opacity="0.00" stroke="#000000" stroke-opacity="1.00" stroke-width="0.80" stroke-linecap="butt" stroke-linejoin="miter"/>
<text font-family="DejaVu Sans" font-size="13.89" fill="#000000" fill-opacity="1.00" text-anchor="middle" dominant-baseline="text-before-edge" transform="translate(337.08,414.28) scale(1,-1)">6</text>
<path d="M 402.50 424.50 L 402.50 419.50 " fill="none" fill-opacity="0.00" stroke="#000000" stroke-opacity="1.00" stroke-width="0.80" stroke-linecap="butt" stroke-linejoin="miter"/>
<text font-family="DejaVu Sans" font-size="13.89" fill="#000000" fill-opacity="1.00" text-anchor="middle" dominant-baseline="text-before-edge" transform="translate(402.44,414.28) scale(1,-1)">8</text>
<path d="M 468.50 424.50 L 468.50 419.50 " fill="none" fill-opacity="0.00" stroke="#000000" stroke-opacity="1.00" stroke-width="0.80" stroke-linecap="butt" stroke-linejoin="miter"/>
<text font-family="DejaVu Sans" font-size="13.89" fill="#000000" fill-opacity="1.00" text-anchor="middle" dominant-baseline="text-before-edge" transform="translate(467.80,414.28) scale(1,-1)">10</text>
<path d="M 125.50 435.50 L 120.50 435.50 " fill="none" fill-opacity="0.00" stroke="#000000" stroke-opacity="1.00" stroke-width="0.80" stroke-linecap="butt" stroke-linejoin="miter"/>
<text font-family="DejaVu Sans" font-size="13.89" fill="#000000" fill-opacity="1.00" text-anchor="end" dominant-baseline="central" transform="translate(115.28,436.24) scale(1,-1)">-1.00</text>
<path d="M 125.50 467.50 L 120.50 467.50 " fill="none" fill-opacity="0.00" stroke="#000000" stroke-opacity="1.00" stroke-width="0.80" stroke-linecap="butt" stroke-linejoin="miter"/>
<text font-family="DejaVu Sans" font-size="13.89" fill="#000000" fill-opacity="1.00" text-anchor="end" dominant-baseline="central" transform="translate(115.28,468.12) scale(1,-1)">-0.75</text>
<path d="M 125.50 499.50 L 120.50 499.50 " fill="none" fill-opacity="0.00" stroke="#000000" stroke-opacity="1.00" stroke-width="0.80" stroke-linecap="butt" stroke-linejoin="miter"/>
<text font-family="DejaVu Sans" font-size="13.89" fill="#000000" fill-opacity="1.00" text-anchor="end" dominant-baseline="central" transform="translate(115.28,500.01) scale(1,-1)">-0.50</text>
<path d="M 125.50 531.50 L 120.50 531.50 " fill="none" fill-opacity="0.00" stroke="#000000" stroke-opacity="1.00" stroke-width="0.80" stroke-linecap="butt" stroke-linejoin="miter"/>
<text font-family="DejaVu Sans" font-size="13.89" fill="#000000" fill-opacity="1.00" text-anchor="end" dominant-baseline="central" transform="translate(115.28,531.90) scale(1,-1)">-0.25</text>
<path d="M 125.50 563.50 L 120.50 563.50 " fill="none" fill-opacity="0.00" stroke="#000000" stroke-opacity="1.00" stroke-width="0.80" stroke-linecap="butt" stroke-linejoin="miter"/>
<text font-family="DejaVu Sans" font-size="13.89" fill="#000000" fill-opacity="1.00" text-anchor="end" dominant-baseline="central" transform="translate(115.28,563.78) scale(1,-1)">0.00</text>
<path d="M 125.50 595.50 L 120.50 595.50 " fill="none" fill-opacity="0.00" stroke="#000000" stroke-opacity="1.00" stroke-width="0.80" stroke-linecap="butt" stroke-linejoin="miter"/>
<text font-family="DejaVu Sans" font-size="13.89" fill="#000000" fill-opacity="1.00" text-anchor="end" dominant-baseline="central" transform="translate(115.28,595.67) scale(1,-1)">0.25</text>
<path d="M 125.50 627.50 L 120.50 627.50 " fill="none" fill-opacity="0.00" stroke="#000000" stroke-opacity="1.00" stroke-width="0.80" stroke-linecap="butt" stroke-linejoin="miter"/>
<text font-family="DejaVu Sans" font-size="13.89" fill="#000000" fill-opacity="1.00" text-anchor="end" dominant-baseline="central" transform="translate(115.28,627.55) scale(1,-1)">0.50</text>
<path d="M 125.50 658.50 L 120.50 658.50 " fill="none" fill-opacity="0.00" stroke="#000000" stroke-opacity="1.00" stroke-width="0.80" stroke-linecap="butt" stroke-linejoin="miter"/>
<text font-family="DejaVu Sans" font-size="13.89" fill="#000000" fill-opacity="1.00" text-anchor="end" dominant-baseline="central" transform="translate(115.28,659.44) scale(1,-1)">0.75</text>
<path d="M 125.50 690.50 L 120.50 690.50 " fill="none" fill-opacity="0.00" stroke="#000000" stroke-opacity="1.00" stroke-width="0.80" stroke-linecap="butt" stroke-linejoin="miter"/>
<text font-family="DejaVu Sans" font-size="13.89" fill="#000000" fill-opacity="1.00" text-anchor="end" dominant-baseline="central" transform="translate(115.28,691.33) scale(1,-1)">1.00</text>
<path d="M 125.50 424.50 L 125.50 704.50 " fill="none" fill-opacity="0.00" stroke="#000000" stroke-opacity="1.00" stroke-width="0.80" stroke-linecap="square" stroke-linejoin="miter"/>
<path d="M 477.50 424.50 L 477.50 704.50 " fill="none" fill-opacity="0.00" stroke="#000000" stroke-opacity="1.00" stroke-width="0.80" stroke-linecap="square" stroke-linejoin="miter"/>
<path d="M 125.50 423.50 L 477.50 423.50 " fill="none" fill-opacity="0.00" stroke="#000000" stroke-opacity="1.00" stroke-width="0.80" stroke-linecap="square" stroke-linejoin="miter"/>
<path d="M 125.50 703.50 L 477.50 703.50 " fill="none" fill-opacity="0.00" stroke="#000000" stroke-opacity="1.00" stroke-width="0.80" stroke-linecap="square" stroke-linejoin="miter"/>
</g>
</svg>
