<?xml version="1.0" encoding="UTF-8"?>
<svg xmlns="http://www.w3.org/2000/svg"
     xmlns:xlink="http://www.w3.org/1999/xlink"
     width="800" height="600" viewBox="0 0 800 600">
<defs>
</defs>
<g transform="translate(0,600) scale(1,-1)">
<rect width="800" height="600" fill="white"/>
<path d="M 0.00 0.00 L 800.00 0.00 L 800.00 600.00 L 0.00 600.00 L 0.00 0.00 Z " fill="#FFFFFF" fill-opacity="1.00" stroke="#000000" stroke-opacity="1.00" stroke-width="0.00" stroke-linecap="butt" stroke-linejoin="miter"/>
<path d="M 100.00 66.00 L 720.00 66.00 L 720.00 528.00 L 100.00 528.00 L 100.00 66.00 Z " fill="#FFFFFF" fill-opacity="1.00" stroke="none" stroke-opacity="0.00" stroke-width="0.00" stroke-linecap="butt" stroke-linejoin="miter"/>
<path d="M 141.29 125.32 C 142.59 125.32 143.84 125.84 144.76 126.76 C 145.68 127.68 146.20 128.93 146.20 130.24 C 146.20 131.54 145.68 132.79 144.76 133.71 C 143.84 134.63 142.59 135.15 141.29 135.15 C 139.99 135.15 138.74 134.63 137.82 133.71 C 136.90 132.79 136.38 131.54 136.38 130.24 C 136.38 128.93 136.90 127.68 137.82 126.76 C 138.74 125.84 139.99 125.32 141.29 125.32 Z " fill="#1F77B4" fill-opacity="0.70" stroke="none" stroke-opacity="0.00" stroke-width="0.00" stroke-linecap="butt" stroke-linejoin="round"/>
<path d="M 239.60 203.58 C 241.44 203.58 243.21 204.32 244.51 205.62 C 245.81 206.92 246.54 208.69 246.54 210.53 C 246.54 212.37 245.81 214.14 244.51 215.44 C 243.21 216.74 241.44 217.47 239.60 217.47 C 237.76 217.47 235.99 216.74 234.69 215.44 C 233.39 214.14 232.65 212.37 232.65 210.53 C 232.65 208.69 233.39 206.92 234.69 205.62 C 235.99 204.32 237.76 203.58 239.60 203.58 Z " fill="#FF7F0E" fill-opacity="0.70" stroke="none" stroke-opacity="0.00" stroke-width="0.00" stroke-linecap="butt" stroke-linejoin="round"/>
<path d="M 318.25 101.88 C 320.85 101.88 323.35 102.92 325.19 104.76 C 327.03 106.60 328.07 109.10 328.07 111.71 C 328.07 114.31 327.03 116.81 325.19 118.65 C 323.35 120.49 320.85 121.53 318.25 121.53 C 315.64 121.53 313.14 120.49 311.30 118.65 C 309.46 116.81 308.42 114.31 308.42 111.71 C 308.42 109.10 309.46 106.60 311.30 104.76 C 313.14 102.92 315.64 101.88 318.25 101.88 Z " fill="#2CA02C" fill-opacity="0.70" stroke="none" stroke-opacity="0.00" stroke-width="0.00" stroke-linecap="butt" stroke-linejoin="round"/>
<path d="M 410.00 272.26 C 411.65 272.26 413.23 272.91 414.39 274.08 C 415.56 275.24 416.21 276.82 416.21 278.47 C 416.21 280.12 415.56 281.70 414.39 282.86 C 413.23 284.03 411.65 284.68 410.00 284.68 C 408.35 284.68 406.77 284.03 405.61 282.86 C 404.44 281.70 403.79 280.12 403.79 278.47 C 403.79 276.82 404.44 275.24 405.61 274.08 C 406.77 272.91 408.35 272.26 410.00 272.26 Z " fill="#D62728" fill-opacity="0.70" stroke="none" stroke-opacity="0.00" stroke-width="0.00" stroke-linecap="butt" stroke-linejoin="round"/>
<path d="M 495.20 171.14 C 497.46 171.14 499.62 172.04 501.21 173.63 C 502.81 175.23 503.71 177.39 503.71 179.65 C 503.71 181.90 502.81 184.07 501.21 185.66 C 499.62 187.26 497.46 188.15 495.20 188.15 C 492.95 188.15 490.78 187.26 489.19 185.66 C 487.59 184.07 486.70 181.90 486.70 179.65 C 486.70 177.39 487.59 175.23 489.19 173.63 C 490.78 172.04 492.95 171.14 495.20 171.14 Z " fill="#9467BD" fill-opacity="0.70" stroke="none" stroke-opacity="0.00" stroke-width="0.00" stroke-linecap="butt" stroke-linejoin="round"/>
<path d="M 547.63 373.49 C 548.64 373.49 549.61 373.89 550.32 374.60 C 551.03 375.32 551.44 376.29 551.44 377.29 C 551.44 378.30 551.03 379.27 550.32 379.98 C 549.61 380.70 548.64 381.10 547.63 381.10 C 546.62 381.10 545.66 380.70 544.94 379.98 C 544.23 379.27 543.83 378.30 543.83 377.29 C 543.83 376.29 544.23 375.32 544.94 374.60 C 545.66 373.89 546.62 373.49 547.63 373.49 Z " fill="#8C564B" fill-opacity="0.70" stroke="none" stroke-opacity="0.00" stroke-width="0.00" stroke-linecap="butt" stroke-linejoin="round"/>
<path d="M 659.05 224.26 C 661.96 224.26 664.75 225.41 666.81 227.47 C 668.87 229.53 670.03 232.32 670.03 235.24 C 670.03 238.15 668.87 240.94 666.81 243.00 C 664.75 245.06 661.96 246.22 659.05 246.22 C 656.14 246.22 653.34 245.06 651.28 243.00 C 649.23 240.94 648.07 238.15 648.07 235.24 C 648.07 232.32 649.23 229.53 651.28 227.47 C 653.34 225.41 656.14 224.26 659.05 224.26 Z " fill="#E377C2" fill-opacity="0.70" stroke="none" stroke-opacity="0.00" stroke-width="0.00" stroke-linecap="butt" stroke-linejoin="round"/>
<path d="M 292.03 314.10 C 294.05 314.10 295.98 314.90 297.41 316.33 C 298.84 317.75 299.64 319.69 299.64 321.71 C 299.64 323.72 298.84 325.66 297.41 327.09 C 295.98 328.51 294.05 329.31 292.03 329.31 C 290.01 329.31 288.08 328.51 286.65 327.09 C 285.22 325.66 284.42 323.72 284.42 321.71 C 284.42 319.69 285.22 317.75 286.65 316.33 C 288.08 314.90 290.01 314.10 292.03 314.10 Z " fill="#7F7F7F" fill-opacity="0.70" stroke="none" stroke-opacity="0.00" stroke-width="0.00" stroke-linecap="butt" stroke-linejoin="round"/>
<path d="M 390.34 87.80 C 391.76 87.80 393.13 88.36 394.14 89.37 C 395.15 90.38 395.72 91.75 395.72 93.18 C 395.72 94.60 395.15 95.97 394.14 96.98 C 393.13 97.99 391.76 98.56 390.34 98.56 C 388.91 98.56 387.54 97.99 386.53 96.98 C 385.53 95.97 384.96 94.60 384.96 93.18 C 384.96 91.75 385.53 90.38 386.53 89.37 C 387.54 88.36 388.91 87.80 390.34 87.80 Z " fill="#BCBD22" fill-opacity="0.70" stroke="none" stroke-opacity="0.00" stroke-width="0.00" stroke-linecap="butt" stroke-linejoin="round"/>
<path d="M 475.54 238.27 C 478.01 238.27 480.38 239.25 482.13 241.00 C 483.87 242.75 484.86 245.12 484.86 247.59 C 484.86 250.06 483.87 252.43 482.13 254.18 C 480.38 255.92 478.01 256.91 475.54 256.91 C 473.07 256.91 470.70 255.92 468.95 254.18 C 467.20 252.43 466.22 250.06 466.22 247.59 C 466.22 245.12 467.20 242.75 468.95 241.00 C 470.70 239.25 473.07 238.27 475.54 238.27 Z " fill="#17BECF" fill-opacity="0.70" stroke="none" stroke-opacity="0.00" stroke-width="0.00" stroke-linecap="butt" stroke-linejoin="round"/>
<path d="M 174.06 407.76 C 175.81 407.76 177.48 408.46 178.72 409.69 C 179.95 410.93 180.65 412.61 180.65 414.35 C 180.65 416.10 179.95 417.78 178.72 419.01 C 177.48 420.25 175.81 420.94 174.06 420.94 C 172.31 420.94 170.64 420.25 169.40 419.01 C 168.17 417.78 167.47 416.10 167.47 414.35 C 167.47 412.61 168.17 410.93 169.40 409.69 C 170.64 408.46 172.31 407.76 174.06 407.76 Z " fill="#1F77B4" fill-opacity="0.70" stroke="none" stroke-opacity="0.00" stroke-width="0.00" stroke-linecap="butt" stroke-linejoin="round"/>
<path d="M 206.83 132.29 C 209.56 132.29 212.18 133.37 214.11 135.30 C 216.04 137.24 217.13 139.86 217.13 142.59 C 217.13 145.32 216.04 147.94 214.11 149.87 C 212.18 151.80 209.56 152.89 206.83 152.89 C 204.10 152.89 201.48 151.80 199.55 149.87 C 197.61 147.94 196.53 145.32 196.53 142.59 C 196.53 139.86 197.61 137.24 199.55 135.30 C 201.48 133.37 204.10 132.29 206.83 132.29 Z " fill="#FF7F0E" fill-opacity="0.70" stroke="none" stroke-opacity="0.00" stroke-width="0.00" stroke-linecap="butt" stroke-linejoin="round"/>
<path d="M 370.68 341.75 C 371.91 341.75 373.10 342.24 373.97 343.12 C 374.84 343.99 375.34 345.18 375.34 346.41 C 375.34 347.65 374.84 348.83 373.97 349.71 C 373.10 350.58 371.91 351.07 370.68 351.07 C 369.44 351.07 368.26 350.58 367.38 349.71 C 366.51 348.83 366.02 347.65 366.02 346.41 C 366.02 345.18 366.51 343.99 367.38 343.12 C 368.26 342.24 369.44 341.75 370.68 341.75 Z " fill="#2CA02C" fill-opacity="0.70" stroke="none" stroke-opacity="0.00" stroke-width="0.00" stroke-linecap="butt" stroke-linejoin="round"/>
<path d="M 455.88 183.22 C 458.21 183.22 460.44 184.14 462.09 185.79 C 463.74 187.44 464.66 189.67 464.66 192.00 C 464.66 194.33 463.74 196.56 462.09 198.21 C 460.44 199.86 458.21 200.78 455.88 200.78 C 453.55 200.78 451.31 199.86 449.67 198.21 C 448.02 196.56 447.09 194.33 447.09 192.00 C 447.09 189.67 448.02 187.44 449.67 185.79 C 451.31 184.14 453.55 183.22 455.88 183.22 Z " fill="#D62728" fill-opacity="0.70" stroke="none" stroke-opacity="0.00" stroke-width="0.00" stroke-linecap="butt" stroke-linejoin="round"/>
<path d="M 580.40 297.16 C 582.00 297.16 583.53 297.80 584.65 298.92 C 585.78 300.05 586.42 301.58 586.42 303.18 C 586.42 304.77 585.78 306.30 584.65 307.43 C 583.53 308.56 582.00 309.19 580.40 309.19 C 578.81 309.19 577.28 308.56 576.15 307.43 C 575.02 306.30 574.39 304.77 574.39 303.18 C 574.39 301.58 575.02 300.05 576.15 298.92 C 577.28 297.80 578.81 297.16 580.40 297.16 Z " fill="#9467BD" fill-opacity="0.70" stroke="none" stroke-opacity="0.00" stroke-width="0.00" stroke-linecap="butt" stroke-linejoin="round"/>
<path d="M 619.73 439.38 C 622.92 439.38 625.97 440.65 628.23 442.91 C 630.49 445.16 631.75 448.22 631.75 451.41 C 631.75 454.60 630.49 457.66 628.23 459.92 C 625.97 462.17 622.92 463.44 619.73 463.44 C 616.54 463.44 613.48 462.17 611.22 459.92 C 608.96 457.66 607.70 454.60 607.70 451.41 C 607.70 448.22 608.96 445.16 611.22 442.91 C 613.48 440.65 616.54 439.38 619.73 439.38 Z " fill="#8C564B" fill-opacity="0.70" stroke="none" stroke-opacity="0.00" stroke-width="0.00" stroke-linecap="butt" stroke-linejoin="round"/>
<path d="M 252.71 110.60 C 254.64 110.60 256.49 111.37 257.86 112.73 C 259.22 114.10 259.99 115.95 259.99 117.88 C 259.99 119.81 259.22 121.67 257.86 123.03 C 256.49 124.40 254.64 125.17 252.71 125.17 C 250.77 125.17 248.92 124.40 247.56 123.03 C 246.19 121.67 245.42 119.81 245.42 117.88 C 245.42 115.95 246.19 114.10 247.56 112.73 C 248.92 111.37 250.77 110.60 252.71 110.60 Z " fill="#E377C2" fill-opacity="0.70" stroke="none" stroke-opacity="0.00" stroke-width="0.00" stroke-linecap="butt" stroke-linejoin="round"/>
<path d="M 521.42 354.37 C 522.58 354.37 523.70 354.84 524.52 355.66 C 525.35 356.48 525.81 357.60 525.81 358.76 C 525.81 359.93 525.35 361.05 524.52 361.87 C 523.70 362.69 522.58 363.16 521.42 363.16 C 520.25 363.16 519.13 362.69 518.31 361.87 C 517.49 361.05 517.02 359.93 517.02 358.76 C 517.02 357.60 517.49 356.48 518.31 355.66 C 519.13 354.84 520.25 354.37 521.42 354.37 Z " fill="#7F7F7F" fill-opacity="0.70" stroke="none" stroke-opacity="0.00" stroke-width="0.00" stroke-linecap="butt" stroke-linejoin="round"/>
<path d="M 672.16 151.55 C 674.70 151.55 677.13 152.55 678.93 154.35 C 680.72 156.14 681.73 158.58 681.73 161.12 C 681.73 163.66 680.72 166.09 678.93 167.89 C 677.13 169.68 674.70 170.69 672.16 170.69 C 669.62 170.69 667.18 169.68 665.39 167.89 C 663.59 166.09 662.58 163.66 662.58 161.12 C 662.58 158.58 663.59 156.14 665.39 154.35 C 667.18 152.55 669.62 151.55 672.16 151.55 Z " fill="#BCBD22" fill-opacity="0.70" stroke="none" stroke-opacity="0.00" stroke-width="0.00" stroke-linecap="butt" stroke-linejoin="round"/>
<path d="M 128.18 475.89 C 129.88 475.89 131.51 476.57 132.71 477.77 C 133.91 478.97 134.58 480.60 134.58 482.29 C 134.58 483.99 133.91 485.62 132.71 486.82 C 131.51 488.02 129.88 488.70 128.18 488.70 C 126.48 488.70 124.86 488.02 123.65 486.82 C 122.45 485.62 121.78 483.99 121.78 482.29 C 121.78 480.60 122.45 478.97 123.65 477.77 C 124.86 476.57 126.48 475.89 128.18 475.89 Z " fill="#17BECF" fill-opacity="0.70" stroke="none" stroke-opacity="0.00" stroke-width="0.00" stroke-linecap="butt" stroke-linejoin="round"/>
<path d="M 278.92 221.14 C 281.02 221.14 283.04 221.98 284.52 223.46 C 286.01 224.94 286.84 226.96 286.84 229.06 C 286.84 231.16 286.01 233.17 284.52 234.66 C 283.04 236.14 281.02 236.98 278.92 236.98 C 276.82 236.98 274.81 236.14 273.32 234.66 C 271.84 233.17 271.00 231.16 271.00 229.06 C 271.00 226.96 271.84 224.94 273.32 223.46 C 274.81 221.98 276.82 221.14 278.92 221.14 Z " fill="#1F77B4" fill-opacity="0.70" stroke="none" stroke-opacity="0.00" stroke-width="0.00" stroke-linecap="butt" stroke-linejoin="round"/>
<path d="M 351.01 260.31 C 352.56 260.31 354.03 260.92 355.12 262.01 C 356.21 263.10 356.82 264.58 356.82 266.12 C 356.82 267.66 356.21 269.14 355.12 270.23 C 354.03 271.32 352.56 271.93 351.01 271.93 C 349.47 271.93 348.00 271.32 346.91 270.23 C 345.82 269.14 345.20 267.66 345.20 266.12 C 345.20 264.58 345.82 263.10 346.91 262.01 C 348.00 260.92 349.47 260.31 351.01 260.31 Z " fill="#FF7F0E" fill-opacity="0.70" stroke="none" stroke-opacity="0.00" stroke-width="0.00" stroke-linecap="butt" stroke-linejoin="round"/>
<path d="M 436.22 385.07 C 439.07 385.07 441.81 386.20 443.82 388.22 C 445.84 390.23 446.97 392.97 446.97 395.82 C 446.97 398.68 445.84 401.41 443.82 403.43 C 441.81 405.45 439.07 406.58 436.22 406.58 C 433.36 406.58 430.63 405.45 428.61 403.43 C 426.59 401.41 425.46 398.68 425.46 395.82 C 425.46 392.97 426.59 390.23 428.61 388.22 C 430.63 386.20 433.36 385.07 436.22 385.07 Z " fill="#2CA02C" fill-opacity="0.70" stroke="none" stroke-opacity="0.00" stroke-width="0.00" stroke-linecap="butt" stroke-linejoin="round"/>
<path d="M 534.52 168.32 C 535.89 168.32 537.20 168.86 538.17 169.83 C 539.13 170.79 539.67 172.10 539.67 173.47 C 539.67 174.84 539.13 176.15 538.17 177.11 C 537.20 178.08 535.89 178.62 534.52 178.62 C 533.16 178.62 531.85 178.08 530.88 177.11 C 529.92 176.15 529.37 174.84 529.37 173.47 C 529.37 172.10 529.92 170.79 530.88 169.83 C 531.85 168.86 533.16 168.32 534.52 168.32 Z " fill="#D62728" fill-opacity="0.70" stroke="none" stroke-opacity="0.00" stroke-width="0.00" stroke-linecap="butt" stroke-linejoin="round"/>
<path d="M 639.39 306.47 C 641.79 306.47 644.09 307.43 645.79 309.13 C 647.49 310.82 648.44 313.13 648.44 315.53 C 648.44 317.93 647.49 320.23 645.79 321.93 C 644.09 323.63 641.79 324.58 639.39 324.58 C 636.99 324.58 634.68 323.63 632.98 321.93 C 631.29 320.23 630.33 317.93 630.33 315.53 C 630.33 313.13 631.29 310.82 632.98 309.13 C 634.68 307.43 636.99 306.47 639.39 306.47 Z " fill="#9467BD" fill-opacity="0.70" stroke="none" stroke-opacity="0.00" stroke-width="0.00" stroke-linecap="butt" stroke-linejoin="round"/>
<path d="M 154.40 500.23 C 156.19 500.23 157.91 500.94 159.18 502.21 C 160.45 503.48 161.17 505.20 161.17 507.00 C 161.17 508.80 160.45 510.52 159.18 511.79 C 157.91 513.06 156.19 513.77 154.40 513.77 C 152.60 513.77 150.88 513.06 149.61 511.79 C 148.34 510.52 147.63 508.80 147.63 507.00 C 147.63 505.20 148.34 503.48 149.61 502.21 C 150.88 500.94 152.60 500.23 154.40 500.23 Z " fill="#8C564B" fill-opacity="0.70" stroke="none" stroke-opacity="0.00" stroke-width="0.00" stroke-linecap="butt" stroke-linejoin="round"/>
<path d="M 265.81 205.09 C 268.90 205.09 271.85 206.31 274.03 208.49 C 276.21 210.67 277.43 213.62 277.43 216.71 C 277.43 219.79 276.21 222.74 274.03 224.92 C 271.85 227.10 268.90 228.33 265.81 228.33 C 262.73 228.33 259.78 227.10 257.60 224.92 C 255.42 222.74 254.19 219.79 254.19 216.71 C 254.19 213.62 255.42 210.67 257.60 208.49 C 259.78 206.31 262.73 205.09 265.81 205.09 Z " fill="#E377C2" fill-opacity="0.70" stroke="none" stroke-opacity="0.00" stroke-width="0.00" stroke-linecap="butt" stroke-linejoin="round"/>
<path d="M 416.55 464.34 C 418.04 464.34 419.46 464.93 420.51 465.98 C 421.56 467.03 422.15 468.46 422.15 469.94 C 422.15 471.43 421.56 472.85 420.51 473.90 C 419.46 474.95 418.04 475.54 416.55 475.54 C 415.07 475.54 413.64 474.95 412.59 473.90 C 411.55 472.85 410.96 471.43 410.96 469.94 C 410.96 468.46 411.55 467.03 412.59 465.98 C 413.64 464.93 415.07 464.34 416.55 464.34 Z " fill="#7F7F7F" fill-opacity="0.70" stroke="none" stroke-opacity="0.00" stroke-width="0.00" stroke-linecap="butt" stroke-linejoin="round"/>
<path d="M 514.86 78.64 C 517.08 78.64 519.21 79.52 520.78 81.09 C 522.34 82.66 523.22 84.78 523.22 87.00 C 523.22 89.22 522.34 91.34 520.78 92.91 C 519.21 94.48 517.08 95.36 514.86 95.36 C 512.64 95.36 510.52 94.48 508.95 92.91 C 507.38 91.34 506.50 89.22 506.50 87.00 C 506.50 84.78 507.38 82.66 508.95 81.09 C 510.52 79.52 512.64 78.64 514.86 78.64 Z " fill="#BCBD22" fill-opacity="0.70" stroke="none" stroke-opacity="0.00" stroke-width="0.00" stroke-linecap="butt" stroke-linejoin="round"/>
<path d="M 691.82 280.76 C 694.49 280.76 697.05 281.82 698.93 283.71 C 700.82 285.59 701.88 288.15 701.88 290.82 C 701.88 293.49 700.82 296.05 698.93 297.94 C 697.05 299.83 694.49 300.89 691.82 300.89 C 689.15 300.89 686.59 299.83 684.70 297.94 C 682.82 296.05 681.75 293.49 681.75 290.82 C 681.75 288.15 682.82 285.59 684.70 283.71 C 686.59 281.82 689.15 280.76 691.82 280.76 Z " fill="#17BECF" fill-opacity="0.70" stroke="none" stroke-opacity="0.00" stroke-width="0.00" stroke-linecap="butt" stroke-linejoin="round"/>
<text font-family="DejaVu Sans" font-size="16.67" fill="#000000" fill-opacity="1.00" text-anchor="middle" transform="translate(410.00,537.33) scale(1,-1)">Scatter with Varying Sizes</text>
<path d="M 207.50 66.50 L 207.50 61.50 " fill="none" fill-opacity="0.00" stroke="#000000" stroke-opacity="1.00" stroke-width="0.80" stroke-linecap="butt" stroke-linejoin="miter"/>
<text font-family="DejaVu Sans" font-size="13.89" fill="#000000" fill-opacity="1.00" text-anchor="middle" dominant-baseline="text-before-edge" transform="translate(206.83,56.28) scale(1,-1)">2</text>
<path d="M 338.50 66.50 L 338.50 61.50 " fill="none" fill-opacity="0.00" stroke="#000000" stroke-opacity="1.00" stroke-width="0.80" stroke-linecap="butt" stroke-linejoin="miter"/>
<text font-family="DejaVu Sans" font-size="13.89" fill="#000000" fill-opacity="1.00" text-anchor="middle" dominant-baseline="text-before-edge" transform="translate(337.91,56.28) scale(1,-1)">4</text>
<path d="M 469.50 66.50 L 469.50 61.50 " fill="none" fill-opacity="0.00" stroke="#000000" stroke-opacity="1.00" stroke-width="0.80" stroke-linecap="butt" stroke-linejoin="miter"/>
<text font-family="DejaVu Sans" font-size="13.89" fill="#000000" fill-opacity="1.00" text-anchor="middle" dominant-baseline="text-before-edge" transform="translate(468.99,56.28) scale(1,-1)">6</text>
<path d="M 600.50 66.50 L 600.50 61.50 " fill="none" fill-opacity="0.00" stroke="#000000" stroke-opacity="1.00" stroke-width="0.80" stroke-linecap="butt" stroke-linejoin="miter"/>
<text font-family="DejaVu Sans" font-size="13.89" fill="#000000" fill-opacity="1.00" text-anchor="middle" dominant-baseline="text-before-edge" transform="translate(600.06,56.28) scale(1,-1)">8</text>
<text font-family="DejaVu Sans" font-size="13.89" fill="#000000" fill-opacity="1.00" text-anchor="middle" dominant-baseline="text-before-edge" transform="translate(410.00,37.17) scale(1,-1)">X</text>
<path d="M 100.50 123.50 L 95.50 123.50 " fill="none" fill-opacity="0.00" stroke="#000000" stroke-opacity="1.00" stroke-width="0.80" stroke-linecap="butt" stroke-linejoin="miter"/>
<text font-family="DejaVu Sans" font-size="13.89" fill="#000000" fill-opacity="1.00" text-anchor="end" dominant-baseline="central" transform="translate(90.28,124.06) scale(1,-1)">2</text>
<path d="M 100.50 185.50 L 95.50 185.50 " fill="none" fill-opacity="0.00" stroke="#000000" stroke-opacity="1.00" stroke-width="0.80" stroke-linecap="butt" stroke-linejoin="miter"/>
<text font-family="DejaVu Sans" font-size="13.89" fill="#000000" fill-opacity="1.00" text-anchor="end" dominant-baseline="central" transform="translate(90.28,185.82) scale(1,-1)">3</text>
<path d="M 100.50 247.50 L 95.50 247.50 " fill="none" fill-opacity="0.00" stroke="#000000" stroke-opacity="1.00" stroke-width="0.80" stroke-linecap="butt" stroke-linejoin="miter"/>
<text font-family="DejaVu Sans" font-size="13.89" fill="#000000" fill-opacity="1.00" text-anchor="end" dominant-baseline="central" transform="translate(90.28,247.59) scale(1,-1)">4</text>
<path d="M 100.50 308.50 L 95.50 308.50 " fill="none" fill-opacity="0.00" stroke="#000000" stroke-opacity="1.00" stroke-width="0.80" stroke-linecap="butt" stroke-linejoin="miter"/>
<text font-family="DejaVu Sans" font-size="13.89" fill="#000000" fill-opacity="1.00" text-anchor="end" dominant-baseline="central" transform="translate(90.28,309.35) scale(1,-1)">5</text>
<path d="M 100.50 370.50 L 95.50 370.50 " fill="none" fill-opacity="0.00" stroke="#000000" stroke-opacity="1.00" stroke-width="0.80" stroke-linecap="butt" stroke-linejoin="miter"/>
<text font-family="DejaVu Sans" font-size="13.89" fill="#000000" fill-opacity="1.00" text-anchor="end" dominant-baseline="central" transform="translate(90.28,371.12) scale(1,-1)">6</text>
<path d="M 100.50 432.50 L 95.50 432.50 " fill="none" fill-opacity="0.00" stroke="#000000" stroke-opacity="1.00" stroke-width="0.80" stroke-linecap="butt" stroke-linejoin="miter"/>
<text font-family="DejaVu Sans" font-size="13.89" fill="#000000" fill-opacity="1.00" text-anchor="end" dominant-baseline="central" transform="translate(90.28,432.88) scale(1,-1)">7</text>
<path d="M 100.50 494.50 L 95.50 494.50 " fill="none" fill-opacity="0.00" stroke="#000000" stroke-opacity="1.00" stroke-width="0.80" stroke-linecap="butt" stroke-linejoin="miter"/>
<text font-family="DejaVu Sans" font-size="13.89" fill="#000000" fill-opacity="1.00" text-anchor="end" dominant-baseline="central" transform="translate(90.28,494.65) scale(1,-1)">8</text>
<text font-family="DejaVu Sans" font-size="13.89" fill="#000000" fill-opacity="1.00" text-anchor="middle" transform="translate(69.26,297.00) rotate(90.00) scale(1,-1)">Y</text>
<path d="M 100.50 66.50 L 100.50 528.50 " fill="none" fill-opacity="0.00" stroke="#000000" stroke-opacity="1.00" stroke-width="0.80" stroke-linecap="square" stroke-linejoin="miter"/>
<path d="M 720.50 66.50 L 720.50 528.50 " fill="none" fill-opacity="0.00" stroke="#000000" stroke-opacity="1.00" stroke-width="0.80" stroke-linecap="square" stroke-linejoin="miter"/>
<path d="M 100.50 65.50 L 720.50 65.50 " fill="none" fill-opacity="0.00" stroke="#000000" stroke-opacity="1.00" stroke-width="0.80" stroke-linecap="square" stroke-linejoin="miter"/>
<path d="M 100.50 527.50 L 720.50 527.50 " fill="none" fill-opacity="0.00" stroke="#000000" stroke-opacity="1.00" stroke-width="0.80" stroke-linecap="square" stroke-linejoin="miter"/>
</g>
</svg>
