<?xml version="1.0" encoding="UTF-8"?>
<svg xmlns="http://www.w3.org/2000/svg"
     xmlns:xlink="http://www.w3.org/1999/xlink"
     width="800" height="500" viewBox="0 0 800 500">
<defs>
</defs>
<g transform="translate(0,500) scale(1,-1)">
<rect width="800" height="500" fill="white"/>
<path d="M 0.00 0.00 L 800.00 0.00 L 800.00 500.00 L 0.00 500.00 L 0.00 0.00 Z " fill="#FFFFFF" fill-opacity="1.00" stroke="#000000" stroke-opacity="1.00" stroke-width="0.00" stroke-linecap="butt" stroke-linejoin="miter"/>
<path d="M 100.00 55.00 L 720.00 55.00 L 720.00 440.00 L 100.00 440.00 L 100.00 55.00 Z " fill="#FFFFFF" fill-opacity="1.00" stroke="none" stroke-opacity="0.00" stroke-width="0.00" stroke-linecap="butt" stroke-linejoin="miter"/>
<path d="M 410.06 414.89 C 412.08 414.89 414.01 415.69 415.44 417.12 C 416.86 418.55 417.67 420.48 417.67 422.50 C 417.67 424.52 416.86 426.45 415.44 427.88 C 414.01 429.31 412.08 430.11 410.06 430.11 C 408.04 430.11 406.11 429.31 404.68 427.88 C 403.25 426.45 402.45 424.52 402.45 422.50 C 402.45 420.48 403.25 418.55 404.68 417.12 C 406.11 415.69 408.04 414.89 410.06 414.89 Z " fill="#805BA4" fill-opacity="0.80" stroke="none" stroke-opacity="0.00" stroke-width="0.00" stroke-linecap="butt" stroke-linejoin="round"/>
<path d="M 438.20 413.20 C 440.28 413.20 442.27 414.02 443.73 415.49 C 445.20 416.96 446.03 418.95 446.03 421.02 C 446.03 423.10 445.20 425.09 443.73 426.56 C 442.27 428.02 440.28 428.85 438.20 428.85 C 436.12 428.85 434.13 428.02 432.67 426.56 C 431.20 425.09 430.37 423.10 430.37 421.02 C 430.37 418.95 431.20 416.96 432.67 415.49 C 434.13 414.02 436.12 413.20 438.20 413.20 Z " fill="#825FA0" fill-opacity="0.80" stroke="none" stroke-opacity="0.00" stroke-width="0.00" stroke-linecap="butt" stroke-linejoin="round"/>
<path d="M 466.06 408.58 C 468.19 408.58 470.24 409.43 471.74 410.93 C 473.25 412.44 474.10 414.49 474.10 416.62 C 474.10 418.75 473.25 420.79 471.74 422.30 C 470.24 423.81 468.19 424.65 466.06 424.65 C 463.93 424.65 461.88 423.81 460.38 422.30 C 458.87 420.79 458.02 418.75 458.02 416.62 C 458.02 414.49 458.87 412.44 460.38 410.93 C 461.88 409.43 463.93 408.58 466.06 408.58 Z " fill="#85639C" fill-opacity="0.80" stroke="none" stroke-opacity="0.00" stroke-width="0.00" stroke-linecap="butt" stroke-linejoin="round"/>
<path d="M 493.36 401.12 C 495.55 401.12 497.64 401.98 499.19 403.53 C 500.73 405.08 501.60 407.17 501.60 409.36 C 501.60 411.54 500.73 413.64 499.19 415.19 C 497.64 416.73 495.55 417.60 493.36 417.60 C 491.17 417.60 489.08 416.73 487.53 415.19 C 485.99 413.64 485.12 411.54 485.12 409.36 C 485.12 407.17 485.99 405.08 487.53 403.53 C 489.08 401.98 491.17 401.12 493.36 401.12 Z " fill="#886898" fill-opacity="0.80" stroke="none" stroke-opacity="0.00" stroke-width="0.00" stroke-linecap="butt" stroke-linejoin="round"/>
<path d="M 519.83 390.93 C 522.07 390.93 524.21 391.82 525.79 393.40 C 527.38 394.98 528.27 397.13 528.27 399.37 C 528.27 401.60 527.38 403.75 525.79 405.33 C 524.21 406.91 522.07 407.80 519.83 407.80 C 517.59 407.80 515.44 406.91 513.86 405.33 C 512.28 403.75 511.39 401.60 511.39 399.37 C 511.39 397.13 512.28 394.98 513.86 393.40 C 515.44 391.82 517.59 390.93 519.83 390.93 Z " fill="#8B6C94" fill-opacity="0.80" stroke="none" stroke-opacity="0.00" stroke-width="0.00" stroke-linecap="butt" stroke-linejoin="round"/>
<path d="M 545.20 378.18 C 547.49 378.18 549.68 379.09 551.30 380.71 C 552.92 382.33 553.82 384.52 553.82 386.81 C 553.82 389.10 552.92 391.29 551.30 392.91 C 549.68 394.53 547.49 395.44 545.20 395.44 C 542.91 395.44 540.72 394.53 539.10 392.91 C 537.48 391.29 536.57 389.10 536.57 386.81 C 536.57 384.52 537.48 382.33 539.10 380.71 C 540.72 379.09 542.91 378.18 545.20 378.18 Z " fill="#8E7190" fill-opacity="0.80" stroke="none" stroke-opacity="0.00" stroke-width="0.00" stroke-linecap="butt" stroke-linejoin="round"/>
<path d="M 569.22 363.10 C 571.56 363.10 573.80 364.03 575.45 365.68 C 577.10 367.33 578.03 369.57 578.03 371.90 C 578.03 374.24 577.10 376.48 575.45 378.13 C 573.80 379.78 571.56 380.71 569.22 380.71 C 566.88 380.71 564.64 379.78 562.99 378.13 C 561.34 376.48 560.41 374.24 560.41 371.90 C 560.41 369.57 561.34 367.33 562.99 365.68 C 564.64 364.03 566.88 363.10 569.22 363.10 Z " fill="#91758C" fill-opacity="0.80" stroke="none" stroke-opacity="0.00" stroke-width="0.00" stroke-linecap="butt" stroke-linejoin="round"/>
<path d="M 591.65 345.92 C 594.03 345.92 596.31 346.87 598.00 348.55 C 599.68 350.23 600.63 352.52 600.63 354.90 C 600.63 357.28 599.68 359.56 598.00 361.24 C 596.31 362.93 594.03 363.87 591.65 363.87 C 589.27 363.87 586.99 362.93 585.30 361.24 C 583.62 359.56 582.67 357.28 582.67 354.90 C 582.67 352.52 583.62 350.23 585.30 348.55 C 586.99 346.87 589.27 345.92 591.65 345.92 Z " fill="#947988" fill-opacity="0.80" stroke="none" stroke-opacity="0.00" stroke-width="0.00" stroke-linecap="butt" stroke-linejoin="round"/>
<path d="M 612.27 326.94 C 614.69 326.94 617.01 327.90 618.73 329.62 C 620.44 331.33 621.40 333.66 621.40 336.08 C 621.40 338.50 620.44 340.83 618.73 342.54 C 617.01 344.25 614.69 345.22 612.27 345.22 C 609.84 345.22 607.52 344.25 605.81 342.54 C 604.09 340.83 603.13 338.50 603.13 336.08 C 603.13 333.66 604.09 331.33 605.81 329.62 C 607.52 327.90 609.84 326.94 612.27 326.94 Z " fill="#977E84" fill-opacity="0.80" stroke="none" stroke-opacity="0.00" stroke-width="0.00" stroke-linecap="butt" stroke-linejoin="round"/>
<path d="M 630.86 306.48 C 633.33 306.48 635.69 307.45 637.43 309.20 C 639.17 310.94 640.15 313.30 640.15 315.76 C 640.15 318.23 639.17 320.59 637.43 322.33 C 635.69 324.07 633.33 325.05 630.86 325.05 C 628.40 325.05 626.04 324.07 624.29 322.33 C 622.55 320.59 621.57 318.23 621.57 315.76 C 621.57 313.30 622.55 310.94 624.29 309.20 C 626.04 307.45 628.40 306.48 630.86 306.48 Z " fill="#9A8281" fill-opacity="0.80" stroke="none" stroke-opacity="0.00" stroke-width="0.00" stroke-linecap="butt" stroke-linejoin="round"/>
<path d="M 647.25 284.87 C 649.75 284.87 652.15 285.86 653.92 287.63 C 655.69 289.40 656.68 291.80 656.68 294.30 C 656.68 296.80 655.69 299.20 653.92 300.97 C 652.15 302.73 649.75 303.73 647.25 303.73 C 644.75 303.73 642.35 302.73 640.58 300.97 C 638.82 299.20 637.82 296.80 637.82 294.30 C 637.82 291.80 638.82 289.40 640.58 287.63 C 642.35 285.86 644.75 284.87 647.25 284.87 Z " fill="#9C867D" fill-opacity="0.80" stroke="none" stroke-opacity="0.00" stroke-width="0.00" stroke-linecap="butt" stroke-linejoin="round"/>
<path d="M 661.27 262.48 C 663.81 262.48 666.24 263.49 668.03 265.28 C 669.83 267.07 670.83 269.50 670.83 272.04 C 670.83 274.58 669.83 277.01 668.03 278.80 C 666.24 280.60 663.81 281.60 661.27 281.60 C 658.74 281.60 656.30 280.60 654.51 278.80 C 652.72 277.01 651.71 274.58 651.71 272.04 C 651.71 269.50 652.72 267.07 654.51 265.28 C 656.30 263.49 658.74 262.48 661.27 262.48 Z " fill="#9F8A7A" fill-opacity="0.80" stroke="none" stroke-opacity="0.00" stroke-width="0.00" stroke-linecap="butt" stroke-linejoin="round"/>
<path d="M 672.78 239.69 C 675.35 239.69 677.81 240.71 679.63 242.52 C 681.45 244.34 682.47 246.80 682.47 249.37 C 682.47 251.94 681.45 254.40 679.63 256.22 C 677.81 258.03 675.35 259.05 672.78 259.05 C 670.21 259.05 667.75 258.03 665.93 256.22 C 664.12 254.40 663.10 251.94 663.10 249.37 C 663.10 246.80 664.12 244.34 665.93 242.52 C 667.75 240.71 670.21 239.69 672.78 239.69 Z " fill="#A18D76" fill-opacity="0.80" stroke="none" stroke-opacity="0.00" stroke-width="0.00" stroke-linecap="butt" stroke-linejoin="round"/>
<path d="M 681.67 216.87 C 684.26 216.87 686.76 217.90 688.59 219.74 C 690.43 221.58 691.46 224.07 691.46 226.67 C 691.46 229.26 690.43 231.76 688.59 233.59 C 686.76 235.43 684.26 236.46 681.67 236.46 C 679.07 236.46 676.58 235.43 674.74 233.59 C 672.90 231.76 671.87 229.26 671.87 226.67 C 671.87 224.07 672.90 221.58 674.74 219.74 C 676.58 217.90 679.07 216.87 681.67 216.87 Z " fill="#A49173" fill-opacity="0.80" stroke="none" stroke-opacity="0.00" stroke-width="0.00" stroke-linecap="butt" stroke-linejoin="round"/>
<path d="M 687.84 194.42 C 690.46 194.42 692.98 195.46 694.83 197.32 C 696.69 199.17 697.73 201.69 697.73 204.31 C 697.73 206.94 696.69 209.46 694.83 211.31 C 692.98 213.17 690.46 214.21 687.84 214.21 C 685.21 214.21 682.70 213.17 680.84 211.31 C 678.98 209.46 677.94 206.94 677.94 204.31 C 677.94 201.69 678.98 199.17 680.84 197.32 C 682.70 195.46 685.21 194.42 687.84 194.42 Z " fill="#A69470" fill-opacity="0.80" stroke="none" stroke-opacity="0.00" stroke-width="0.00" stroke-linecap="butt" stroke-linejoin="round"/>
<path d="M 691.23 172.71 C 693.88 172.71 696.42 173.76 698.29 175.63 C 700.17 177.50 701.22 180.04 701.22 182.69 C 701.22 185.34 700.17 187.88 698.29 189.75 C 696.42 191.62 693.88 192.68 691.23 192.68 C 688.58 192.68 686.04 191.62 684.17 189.75 C 682.30 187.88 681.25 185.34 681.25 182.69 C 681.25 180.04 682.30 177.50 684.17 175.63 C 686.04 173.76 688.58 172.71 691.23 172.71 Z " fill="#A8986D" fill-opacity="0.80" stroke="none" stroke-opacity="0.00" stroke-width="0.00" stroke-linecap="butt" stroke-linejoin="round"/>
<path d="M 691.82 152.10 C 694.49 152.10 697.05 153.16 698.93 155.04 C 700.82 156.93 701.88 159.49 701.88 162.16 C 701.88 164.83 700.82 167.39 698.93 169.28 C 697.05 171.16 694.49 172.22 691.82 172.22 C 689.15 172.22 686.59 171.16 684.70 169.28 C 682.81 167.39 681.75 164.83 681.75 162.16 C 681.75 159.49 682.81 156.93 684.70 155.04 C 686.59 153.16 689.15 152.10 691.82 152.10 Z " fill="#AB9B6A" fill-opacity="0.80" stroke="none" stroke-opacity="0.00" stroke-width="0.00" stroke-linecap="butt" stroke-linejoin="round"/>
<path d="M 689.59 132.94 C 692.28 132.94 694.85 134.01 696.75 135.91 C 698.65 137.81 699.72 140.38 699.72 143.07 C 699.72 145.76 698.65 148.33 696.75 150.23 C 694.85 152.13 692.28 153.20 689.59 153.20 C 686.90 153.20 684.32 152.13 682.43 150.23 C 680.53 148.33 679.46 145.76 679.46 143.07 C 679.46 140.38 680.53 137.81 682.43 135.91 C 684.32 134.01 686.90 132.94 689.59 132.94 Z " fill="#AD9E67" fill-opacity="0.80" stroke="none" stroke-opacity="0.00" stroke-width="0.00" stroke-linecap="butt" stroke-linejoin="round"/>
<path d="M 684.57 115.55 C 687.27 115.55 689.86 116.63 691.77 118.54 C 693.68 120.45 694.75 123.04 694.75 125.74 C 694.75 128.44 693.68 131.04 691.77 132.95 C 689.86 134.86 687.27 135.93 684.57 135.93 C 681.86 135.93 679.27 134.86 677.36 132.95 C 675.45 131.04 674.38 128.44 674.38 125.74 C 674.38 123.04 675.45 120.45 677.36 118.54 C 679.27 116.63 681.86 115.55 684.57 115.55 Z " fill="#AEA165" fill-opacity="0.80" stroke="none" stroke-opacity="0.00" stroke-width="0.00" stroke-linecap="butt" stroke-linejoin="round"/>
<path d="M 676.80 100.24 C 679.52 100.24 682.12 101.31 684.04 103.23 C 685.96 105.15 687.03 107.75 687.03 110.47 C 687.03 113.18 685.96 115.78 684.04 117.70 C 682.12 119.62 679.52 120.70 676.80 120.70 C 674.09 120.70 671.48 119.62 669.57 117.70 C 667.65 115.78 666.57 113.18 666.57 110.47 C 666.57 107.75 667.65 105.15 669.57 103.23 C 671.48 101.31 674.09 100.24 676.80 100.24 Z " fill="#B0A462" fill-opacity="0.80" stroke="none" stroke-opacity="0.00" stroke-width="0.00" stroke-linecap="butt" stroke-linejoin="round"/>
<path d="M 666.37 87.24 C 669.09 87.24 671.71 88.32 673.63 90.25 C 675.56 92.17 676.64 94.78 676.64 97.51 C 676.64 100.23 675.56 102.84 673.63 104.77 C 671.71 106.69 669.09 107.77 666.37 107.77 C 663.65 107.77 661.04 106.69 659.11 104.77 C 657.19 102.84 656.11 100.23 656.11 97.51 C 656.11 94.78 657.19 92.17 659.11 90.25 C 661.04 88.32 663.65 87.24 666.37 87.24 Z " fill="#B2A660" fill-opacity="0.80" stroke="none" stroke-opacity="0.00" stroke-width="0.00" stroke-linecap="butt" stroke-linejoin="round"/>
<path d="M 653.38 76.79 C 656.11 76.79 658.73 77.87 660.65 79.80 C 662.58 81.73 663.67 84.35 663.67 87.08 C 663.67 89.80 662.58 92.42 660.65 94.35 C 658.73 96.28 656.11 97.36 653.38 97.36 C 650.65 97.36 648.03 96.28 646.10 94.35 C 644.18 92.42 643.09 89.80 643.09 87.08 C 643.09 84.35 644.18 81.73 646.10 79.80 C 648.03 77.87 650.65 76.79 653.38 76.79 Z " fill="#B4A95E" fill-opacity="0.80" stroke="none" stroke-opacity="0.00" stroke-width="0.00" stroke-linecap="butt" stroke-linejoin="round"/>
<path d="M 637.96 69.05 C 640.69 69.05 643.31 70.14 645.24 72.07 C 647.17 74.00 648.26 76.62 648.26 79.35 C 648.26 82.08 647.17 84.70 645.24 86.64 C 643.31 88.57 640.69 89.65 637.96 89.65 C 635.23 89.65 632.61 88.57 630.67 86.64 C 628.74 84.70 627.66 82.08 627.66 79.35 C 627.66 76.62 628.74 74.00 630.67 72.07 C 632.61 70.14 635.23 69.05 637.96 69.05 Z " fill="#B5AB5C" fill-opacity="0.80" stroke="none" stroke-opacity="0.00" stroke-width="0.00" stroke-linecap="butt" stroke-linejoin="round"/>
<path d="M 620.26 64.17 C 622.99 64.17 625.61 65.25 627.54 67.18 C 629.47 69.12 630.56 71.74 630.56 74.47 C 630.56 77.20 629.47 79.82 627.54 81.75 C 625.61 83.68 622.99 84.76 620.26 84.76 C 617.53 84.76 614.91 83.68 612.98 81.75 C 611.04 79.82 609.96 77.20 609.96 74.47 C 609.96 71.74 611.04 69.12 612.98 67.18 C 614.91 65.25 617.53 64.17 620.26 64.17 Z " fill="#B6AD5A" fill-opacity="0.80" stroke="none" stroke-opacity="0.00" stroke-width="0.00" stroke-linecap="butt" stroke-linejoin="round"/>
<path d="M 600.46 62.21 C 603.19 62.21 605.80 63.30 607.73 65.23 C 609.66 67.16 610.74 69.77 610.74 72.50 C 610.74 75.23 609.66 77.84 607.73 79.77 C 605.80 81.70 603.19 82.79 600.46 82.79 C 597.73 82.79 595.11 81.70 593.18 79.77 C 591.26 77.84 590.17 75.23 590.17 72.50 C 590.17 69.77 591.26 67.16 593.18 65.23 C 595.11 63.30 597.73 62.21 600.46 62.21 Z " fill="#B7AE59" fill-opacity="0.80" stroke="none" stroke-opacity="0.00" stroke-width="0.00" stroke-linecap="butt" stroke-linejoin="round"/>
<path d="M 578.76 63.22 C 581.48 63.22 584.09 64.31 586.01 66.23 C 587.94 68.15 589.02 70.76 589.02 73.49 C 589.02 76.21 587.94 78.82 586.01 80.74 C 584.09 82.67 581.48 83.75 578.76 83.75 C 576.03 83.75 573.42 82.67 571.50 80.74 C 569.57 78.82 568.49 76.21 568.49 73.49 C 568.49 70.76 569.57 68.15 571.50 66.23 C 573.42 64.31 576.03 63.22 578.76 63.22 Z " fill="#B8B058" fill-opacity="0.80" stroke="none" stroke-opacity="0.00" stroke-width="0.00" stroke-linecap="butt" stroke-linejoin="round"/>
<path d="M 555.37 67.18 C 558.08 67.18 560.68 68.26 562.60 70.18 C 564.52 72.10 565.60 74.70 565.60 77.41 C 565.60 80.12 564.52 82.72 562.60 84.64 C 560.68 86.56 558.08 87.64 555.37 87.64 C 552.66 87.64 550.05 86.56 548.14 84.64 C 546.22 82.72 545.14 80.12 545.14 77.41 C 545.14 74.70 546.22 72.10 548.14 70.18 C 550.05 68.26 552.66 67.18 555.37 67.18 Z " fill="#B9B156" fill-opacity="0.80" stroke="none" stroke-opacity="0.00" stroke-width="0.00" stroke-linecap="butt" stroke-linejoin="round"/>
<path d="M 530.53 74.02 C 533.23 74.02 535.82 75.09 537.73 77.00 C 539.64 78.91 540.71 81.50 540.71 84.20 C 540.71 86.90 539.64 89.49 537.73 91.40 C 535.82 93.31 533.23 94.38 530.53 94.38 C 527.83 94.38 525.24 93.31 523.33 91.40 C 521.42 89.49 520.35 86.90 520.35 84.20 C 520.35 81.50 521.42 78.91 523.33 77.00 C 525.24 75.09 527.83 74.02 530.53 74.02 Z " fill="#BAB255" fill-opacity="0.80" stroke="none" stroke-opacity="0.00" stroke-width="0.00" stroke-linecap="butt" stroke-linejoin="round"/>
<path d="M 504.49 83.63 C 507.17 83.63 509.75 84.69 511.64 86.59 C 513.54 88.49 514.61 91.07 514.61 93.75 C 514.61 96.44 513.54 99.01 511.64 100.91 C 509.75 102.81 507.17 103.87 504.49 103.87 C 501.80 103.87 499.22 102.81 497.33 100.91 C 495.43 99.01 494.36 96.44 494.36 93.75 C 494.36 91.07 495.43 88.49 497.33 86.59 C 499.22 84.69 501.80 83.63 504.49 83.63 Z " fill="#BBB355" fill-opacity="0.80" stroke="none" stroke-opacity="0.00" stroke-width="0.00" stroke-linecap="butt" stroke-linejoin="round"/>
<path d="M 477.50 95.84 C 480.16 95.84 482.72 96.90 484.61 98.78 C 486.49 100.67 487.55 103.23 487.55 105.89 C 487.55 108.56 486.49 111.12 484.61 113.00 C 482.72 114.89 480.16 115.95 477.50 115.95 C 474.83 115.95 472.27 114.89 470.39 113.00 C 468.50 111.12 467.44 108.56 467.44 105.89 C 467.44 103.23 468.50 100.67 470.39 98.78 C 472.27 96.90 474.83 95.84 477.50 95.84 Z " fill="#BBB454" fill-opacity="0.80" stroke="none" stroke-opacity="0.00" stroke-width="0.00" stroke-linecap="butt" stroke-linejoin="round"/>
<path d="M 449.84 110.45 C 452.48 110.45 455.02 111.50 456.89 113.37 C 458.76 115.24 459.81 117.78 459.81 120.43 C 459.81 123.07 458.76 125.61 456.89 127.48 C 455.02 129.35 452.48 130.40 449.84 130.40 C 447.19 130.40 444.65 129.35 442.78 127.48 C 440.91 125.61 439.86 123.07 439.86 120.43 C 439.86 117.78 440.91 115.24 442.78 113.37 C 444.65 111.50 447.19 110.45 449.84 110.45 Z " fill="#BBB454" fill-opacity="0.80" stroke="none" stroke-opacity="0.00" stroke-width="0.00" stroke-linecap="butt" stroke-linejoin="round"/>
<path d="M 421.78 127.22 C 424.40 127.22 426.92 128.26 428.77 130.11 C 430.62 131.97 431.66 134.48 431.66 137.10 C 431.66 139.72 430.62 142.24 428.77 144.09 C 426.92 145.95 424.40 146.99 421.78 146.99 C 419.16 146.99 416.64 145.95 414.79 144.09 C 412.94 142.24 411.90 139.72 411.90 137.10 C 411.90 134.48 412.94 131.97 414.79 130.11 C 416.64 128.26 419.16 127.22 421.78 127.22 Z " fill="#BBB454" fill-opacity="0.80" stroke="none" stroke-opacity="0.00" stroke-width="0.00" stroke-linecap="butt" stroke-linejoin="round"/>
<path d="M 393.60 145.86 C 396.20 145.86 398.69 146.89 400.52 148.73 C 402.36 150.56 403.39 153.05 403.39 155.64 C 403.39 158.24 402.36 160.73 400.52 162.56 C 398.69 164.39 396.20 165.42 393.60 165.42 C 391.01 165.42 388.52 164.39 386.69 162.56 C 384.85 160.73 383.82 158.24 383.82 155.64 C 383.82 153.05 384.85 150.56 386.69 148.73 C 388.52 146.89 391.01 145.86 393.60 145.86 Z " fill="#BBB454" fill-opacity="0.80" stroke="none" stroke-opacity="0.00" stroke-width="0.00" stroke-linecap="butt" stroke-linejoin="round"/>
<path d="M 365.59 166.06 C 368.16 166.06 370.62 167.08 372.43 168.89 C 374.24 170.71 375.26 173.17 375.26 175.73 C 375.26 178.30 374.24 180.76 372.43 182.57 C 370.62 184.38 368.16 185.40 365.59 185.40 C 363.03 185.40 360.57 184.38 358.76 182.57 C 356.94 180.76 355.92 178.30 355.92 175.73 C 355.92 173.17 356.94 170.71 358.76 168.89 C 360.57 167.08 363.03 166.06 365.59 166.06 Z " fill="#BBB454" fill-opacity="0.80" stroke="none" stroke-opacity="0.00" stroke-width="0.00" stroke-linecap="butt" stroke-linejoin="round"/>
<path d="M 338.03 187.48 C 340.56 187.48 342.99 188.49 344.78 190.28 C 346.57 192.07 347.57 194.50 347.57 197.03 C 347.57 199.56 346.57 201.99 344.78 203.78 C 342.99 205.57 340.56 206.58 338.03 206.58 C 335.49 206.58 333.07 205.57 331.28 203.78 C 329.49 201.99 328.48 199.56 328.48 197.03 C 328.48 194.50 329.49 192.07 331.28 190.28 C 333.07 188.49 335.49 187.48 338.03 187.48 Z " fill="#BBB454" fill-opacity="0.80" stroke="none" stroke-opacity="0.00" stroke-width="0.00" stroke-linecap="butt" stroke-linejoin="round"/>
<path d="M 311.18 209.77 C 313.68 209.77 316.07 210.76 317.84 212.53 C 319.60 214.29 320.59 216.69 320.59 219.18 C 320.59 221.68 319.60 224.07 317.84 225.84 C 316.07 227.61 313.68 228.60 311.18 228.60 C 308.68 228.60 306.29 227.61 304.52 225.84 C 302.76 224.07 301.77 221.68 301.77 219.18 C 301.77 216.69 302.76 214.29 304.52 212.53 C 306.29 210.76 308.68 209.77 311.18 209.77 Z " fill="#BBB355" fill-opacity="0.80" stroke="none" stroke-opacity="0.00" stroke-width="0.00" stroke-linecap="butt" stroke-linejoin="round"/>
<path d="M 285.32 232.54 C 287.78 232.54 290.14 233.52 291.88 235.26 C 293.62 236.99 294.59 239.35 294.59 241.81 C 294.59 244.27 293.62 246.63 291.88 248.37 C 290.14 250.11 287.78 251.08 285.32 251.08 C 282.86 251.08 280.50 250.11 278.77 248.37 C 277.03 246.63 276.05 244.27 276.05 241.81 C 276.05 239.35 277.03 236.99 278.77 235.26 C 280.50 233.52 282.86 232.54 285.32 232.54 Z " fill="#BAB256" fill-opacity="0.80" stroke="none" stroke-opacity="0.00" stroke-width="0.00" stroke-linecap="butt" stroke-linejoin="round"/>
<path d="M 260.71 255.42 C 263.13 255.42 265.45 256.38 267.16 258.09 C 268.87 259.80 269.83 262.12 269.83 264.54 C 269.83 266.95 268.87 269.27 267.16 270.98 C 265.45 272.69 263.13 273.65 260.71 273.65 C 258.29 273.65 255.97 272.69 254.26 270.98 C 252.55 269.27 251.59 266.95 251.59 264.54 C 251.59 262.12 252.55 259.80 254.26 258.09 C 255.97 256.38 258.29 255.42 260.71 255.42 Z " fill="#B9B157" fill-opacity="0.80" stroke="none" stroke-opacity="0.00" stroke-width="0.00" stroke-linecap="butt" stroke-linejoin="round"/>
<path d="M 237.59 278.02 C 239.96 278.02 242.24 278.96 243.92 280.64 C 245.60 282.32 246.54 284.60 246.54 286.97 C 246.54 289.35 245.60 291.63 243.92 293.31 C 242.24 294.99 239.96 295.93 237.59 295.93 C 235.21 295.93 232.94 294.99 231.26 293.31 C 229.58 291.63 228.63 289.35 228.63 286.97 C 228.63 284.60 229.58 282.32 231.26 280.64 C 232.94 278.96 235.21 278.02 237.59 278.02 Z " fill="#B8B058" fill-opacity="0.80" stroke="none" stroke-opacity="0.00" stroke-width="0.00" stroke-linecap="butt" stroke-linejoin="round"/>
<path d="M 216.19 299.96 C 218.52 299.96 220.76 300.88 222.40 302.53 C 224.05 304.18 224.98 306.41 224.98 308.74 C 224.98 311.07 224.05 313.31 222.40 314.95 C 220.76 316.60 218.52 317.53 216.19 317.53 C 213.86 317.53 211.63 316.60 209.98 314.95 C 208.33 313.31 207.41 311.07 207.41 308.74 C 207.41 306.41 208.33 304.18 209.98 302.53 C 211.63 300.88 213.86 299.96 216.19 299.96 Z " fill="#B7AE59" fill-opacity="0.80" stroke="none" stroke-opacity="0.00" stroke-width="0.00" stroke-linecap="butt" stroke-linejoin="round"/>
<path d="M 196.73 320.88 C 199.01 320.88 201.20 321.78 202.82 323.40 C 204.43 325.01 205.34 327.20 205.34 329.48 C 205.34 331.76 204.43 333.95 202.82 335.56 C 201.20 337.18 199.01 338.08 196.73 338.08 C 194.45 338.08 192.26 337.18 190.65 335.56 C 189.03 333.95 188.13 331.76 188.13 329.48 C 188.13 327.20 189.03 325.01 190.65 323.40 C 192.26 321.78 194.45 320.88 196.73 320.88 Z " fill="#B6AC5B" fill-opacity="0.80" stroke="none" stroke-opacity="0.00" stroke-width="0.00" stroke-linecap="butt" stroke-linejoin="round"/>
<path d="M 179.40 340.42 C 181.63 340.42 183.78 341.30 185.35 342.88 C 186.93 344.46 187.82 346.60 187.82 348.83 C 187.82 351.06 186.93 353.20 185.35 354.78 C 183.78 356.36 181.63 357.25 179.40 357.25 C 177.17 357.25 175.03 356.36 173.45 354.78 C 171.87 353.20 170.99 351.06 170.99 348.83 C 170.99 346.60 171.87 344.46 173.45 342.88 C 175.03 341.30 177.17 340.42 179.40 340.42 Z " fill="#B5AA5D" fill-opacity="0.80" stroke="none" stroke-opacity="0.00" stroke-width="0.00" stroke-linecap="butt" stroke-linejoin="round"/>
<path d="M 164.38 358.26 C 166.56 358.26 168.65 359.12 170.19 360.66 C 171.73 362.20 172.60 364.29 172.60 366.47 C 172.60 368.65 171.73 370.74 170.19 372.28 C 168.65 373.83 166.56 374.69 164.38 374.69 C 162.20 374.69 160.11 373.83 158.57 372.28 C 157.03 370.74 156.16 368.65 156.16 366.47 C 156.16 364.29 157.03 362.20 158.57 360.66 C 160.11 359.12 162.20 358.26 164.38 358.26 Z " fill="#B3A85E" fill-opacity="0.80" stroke="none" stroke-opacity="0.00" stroke-width="0.00" stroke-linecap="butt" stroke-linejoin="round"/>
<path d="M 151.81 374.10 C 153.94 374.10 155.97 374.94 157.48 376.44 C 158.98 377.94 159.82 379.98 159.82 382.11 C 159.82 384.23 158.98 386.27 157.48 387.77 C 155.97 389.28 153.94 390.12 151.81 390.12 C 149.69 390.12 147.65 389.28 146.14 387.77 C 144.64 386.27 143.80 384.23 143.80 382.11 C 143.80 379.98 144.64 377.94 146.14 376.44 C 147.65 374.94 149.69 374.10 151.81 374.10 Z " fill="#B2A661" fill-opacity="0.80" stroke="none" stroke-opacity="0.00" stroke-width="0.00" stroke-linecap="butt" stroke-linejoin="round"/>
<path d="M 141.82 387.67 C 143.89 387.67 145.87 388.49 147.34 389.95 C 148.80 391.42 149.62 393.40 149.62 395.47 C 149.62 397.54 148.80 399.52 147.34 400.99 C 145.87 402.45 143.89 403.27 141.82 403.27 C 139.75 403.27 137.77 402.45 136.31 400.99 C 134.84 399.52 134.02 397.54 134.02 395.47 C 134.02 393.40 134.84 391.42 136.31 389.95 C 137.77 388.49 139.75 387.67 141.82 387.67 Z " fill="#B0A363" fill-opacity="0.80" stroke="none" stroke-opacity="0.00" stroke-width="0.00" stroke-linecap="butt" stroke-linejoin="round"/>
<path d="M 134.51 398.75 C 136.52 398.75 138.45 399.55 139.87 400.97 C 141.29 402.40 142.09 404.32 142.09 406.33 C 142.09 408.34 141.29 410.27 139.87 411.69 C 138.45 413.12 136.52 413.91 134.51 413.91 C 132.50 413.91 130.57 413.12 129.15 411.69 C 127.73 410.27 126.93 408.34 126.93 406.33 C 126.93 404.32 127.73 402.40 129.15 400.97 C 130.57 399.55 132.50 398.75 134.51 398.75 Z " fill="#AEA165" fill-opacity="0.80" stroke="none" stroke-opacity="0.00" stroke-width="0.00" stroke-linecap="butt" stroke-linejoin="round"/>
<path d="M 129.96 407.16 C 131.91 407.16 133.78 407.94 135.16 409.32 C 136.54 410.70 137.31 412.57 137.31 414.52 C 137.31 416.47 136.54 418.34 135.16 419.72 C 133.78 421.10 131.91 421.87 129.96 421.87 C 128.01 421.87 126.14 421.10 124.76 419.72 C 123.38 418.34 122.60 416.47 122.60 414.52 C 122.60 412.57 123.38 410.70 124.76 409.32 C 126.14 407.94 128.01 407.16 129.96 407.16 Z " fill="#AC9E68" fill-opacity="0.80" stroke="none" stroke-opacity="0.00" stroke-width="0.00" stroke-linecap="butt" stroke-linejoin="round"/>
<path d="M 128.20 412.76 C 130.09 412.76 131.90 413.51 133.24 414.85 C 134.57 416.18 135.32 417.99 135.32 419.88 C 135.32 421.77 134.57 423.58 133.24 424.92 C 131.90 426.25 130.09 427.01 128.20 427.01 C 126.31 427.01 124.50 426.25 123.16 424.92 C 121.83 423.58 121.08 421.77 121.08 419.88 C 121.08 417.99 121.83 416.18 123.16 414.85 C 124.50 413.51 126.31 412.76 128.20 412.76 Z " fill="#AA9B6B" fill-opacity="0.80" stroke="none" stroke-opacity="0.00" stroke-width="0.00" stroke-linecap="butt" stroke-linejoin="round"/>
<path d="M 129.26 415.45 C 131.09 415.45 132.84 416.18 134.13 417.47 C 135.42 418.76 136.15 420.51 136.15 422.34 C 136.15 424.16 135.42 425.91 134.13 427.21 C 132.84 428.50 131.09 429.22 129.26 429.22 C 127.43 429.22 125.68 428.50 124.39 427.21 C 123.10 425.91 122.37 424.16 122.37 422.34 C 122.37 420.51 123.10 418.76 124.39 417.47 C 125.68 416.18 127.43 415.45 129.26 415.45 Z " fill="#A8976D" fill-opacity="0.80" stroke="none" stroke-opacity="0.00" stroke-width="0.00" stroke-linecap="butt" stroke-linejoin="round"/>
<path d="M 133.13 415.20 C 134.89 415.20 136.58 415.90 137.82 417.14 C 139.07 418.39 139.77 420.08 139.77 421.84 C 139.77 423.60 139.07 425.29 137.82 426.54 C 136.58 427.79 134.89 428.49 133.13 428.49 C 131.36 428.49 129.67 427.79 128.43 426.54 C 127.18 425.29 126.48 423.60 126.48 421.84 C 126.48 420.08 127.18 418.39 128.43 417.14 C 129.67 415.90 131.36 415.20 133.13 415.20 Z " fill="#A69470" fill-opacity="0.80" stroke="none" stroke-opacity="0.00" stroke-width="0.00" stroke-linecap="butt" stroke-linejoin="round"/>
<path d="M 139.76 412.00 C 141.45 412.00 143.08 412.68 144.28 413.88 C 145.48 415.08 146.16 416.71 146.16 418.40 C 146.16 420.10 145.48 421.73 144.28 422.93 C 143.08 424.13 141.45 424.80 139.76 424.80 C 138.06 424.80 136.43 424.13 135.23 422.93 C 134.03 421.73 133.36 420.10 133.36 418.40 C 133.36 416.71 134.03 415.08 135.23 413.88 C 136.43 412.68 138.06 412.00 139.76 412.00 Z " fill="#A39074" fill-opacity="0.80" stroke="none" stroke-opacity="0.00" stroke-width="0.00" stroke-linecap="butt" stroke-linejoin="round"/>
<path d="M 149.09 405.93 C 150.72 405.93 152.29 406.58 153.44 407.73 C 154.59 408.88 155.24 410.45 155.24 412.08 C 155.24 413.71 154.59 415.28 153.44 416.43 C 152.29 417.58 150.72 418.23 149.09 418.23 C 147.46 418.23 145.89 417.58 144.74 416.43 C 143.59 415.28 142.94 413.71 142.94 412.08 C 142.94 410.45 143.59 408.88 144.74 407.73 C 145.89 406.58 147.46 405.93 149.09 405.93 Z " fill="#A18D77" fill-opacity="0.80" stroke="none" stroke-opacity="0.00" stroke-width="0.00" stroke-linecap="butt" stroke-linejoin="round"/>
<path d="M 161.03 397.08 C 162.60 397.08 164.10 397.70 165.20 398.81 C 166.31 399.91 166.93 401.41 166.93 402.98 C 166.93 404.54 166.31 406.04 165.20 407.15 C 164.10 408.26 162.60 408.88 161.03 408.88 C 159.47 408.88 157.96 408.26 156.86 407.15 C 155.75 406.04 155.13 404.54 155.13 402.98 C 155.13 401.41 155.75 399.91 156.86 398.81 C 157.96 397.70 159.47 397.08 161.03 397.08 Z " fill="#9E897A" fill-opacity="0.80" stroke="none" stroke-opacity="0.00" stroke-width="0.00" stroke-linecap="butt" stroke-linejoin="round"/>
<path d="M 175.46 385.60 C 176.96 385.60 178.39 386.20 179.45 387.26 C 180.51 388.32 181.11 389.76 181.11 391.25 C 181.11 392.75 180.51 394.19 179.45 395.25 C 178.39 396.31 176.96 396.90 175.46 396.90 C 173.96 396.90 172.52 396.31 171.47 395.25 C 170.41 394.19 169.81 392.75 169.81 391.25 C 169.81 389.76 170.41 388.32 171.47 387.26 C 172.52 386.20 173.96 385.60 175.46 385.60 Z " fill="#9C857E" fill-opacity="0.80" stroke="none" stroke-opacity="0.00" stroke-width="0.00" stroke-linecap="butt" stroke-linejoin="round"/>
<path d="M 192.23 371.70 C 193.66 371.70 195.04 372.27 196.05 373.29 C 197.06 374.30 197.63 375.67 197.63 377.10 C 197.63 378.53 197.06 379.91 196.05 380.92 C 195.04 381.93 193.66 382.50 192.23 382.50 C 190.80 382.50 189.43 381.93 188.42 380.92 C 187.40 379.91 186.83 378.53 186.83 377.10 C 186.83 375.67 187.40 374.30 188.42 373.29 C 189.43 372.27 190.80 371.70 192.23 371.70 Z " fill="#998181" fill-opacity="0.80" stroke="none" stroke-opacity="0.00" stroke-width="0.00" stroke-linecap="butt" stroke-linejoin="round"/>
<path d="M 211.18 355.62 C 212.55 355.62 213.86 356.16 214.82 357.12 C 215.79 358.09 216.33 359.40 216.33 360.76 C 216.33 362.13 215.79 363.44 214.82 364.40 C 213.86 365.37 212.55 365.91 211.18 365.91 C 209.82 365.91 208.51 365.37 207.54 364.40 C 206.58 363.44 206.03 362.13 206.03 360.76 C 206.03 359.40 206.58 358.09 207.54 357.12 C 208.51 356.16 209.82 355.62 211.18 355.62 Z " fill="#967D85" fill-opacity="0.80" stroke="none" stroke-opacity="0.00" stroke-width="0.00" stroke-linecap="butt" stroke-linejoin="round"/>
<path d="M 232.12 337.61 C 233.42 337.61 234.66 338.13 235.58 339.05 C 236.50 339.97 237.02 341.21 237.02 342.51 C 237.02 343.81 236.50 345.06 235.58 345.98 C 234.66 346.90 233.42 347.41 232.12 347.41 C 230.82 347.41 229.57 346.90 228.65 345.98 C 227.73 345.06 227.22 343.81 227.22 342.51 C 227.22 341.21 227.73 339.97 228.65 339.05 C 229.57 338.13 230.82 337.61 232.12 337.61 Z " fill="#947989" fill-opacity="0.80" stroke="none" stroke-opacity="0.00" stroke-width="0.00" stroke-linecap="butt" stroke-linejoin="round"/>
<path d="M 254.83 318.00 C 256.07 318.00 257.25 318.49 258.12 319.36 C 259.00 320.24 259.49 321.42 259.49 322.66 C 259.49 323.89 259.00 325.08 258.12 325.95 C 257.25 326.82 256.07 327.31 254.83 327.31 C 253.60 327.31 252.41 326.82 251.54 325.95 C 250.67 325.08 250.17 323.89 250.17 322.66 C 250.17 321.42 250.67 320.24 251.54 319.36 C 252.41 318.49 253.60 318.00 254.83 318.00 Z " fill="#91748D" fill-opacity="0.80" stroke="none" stroke-opacity="0.00" stroke-width="0.00" stroke-linecap="butt" stroke-linejoin="round"/>
<path d="M 279.10 297.11 C 280.27 297.11 281.39 297.58 282.22 298.41 C 283.05 299.24 283.52 300.36 283.52 301.53 C 283.52 302.71 283.05 303.83 282.22 304.66 C 281.39 305.49 280.27 305.96 279.10 305.96 C 277.92 305.96 276.80 305.49 275.97 304.66 C 275.14 303.83 274.68 302.71 274.68 301.53 C 274.68 300.36 275.14 299.24 275.97 298.41 C 276.80 297.58 277.92 297.11 279.10 297.11 Z " fill="#8E7090" fill-opacity="0.80" stroke="none" stroke-opacity="0.00" stroke-width="0.00" stroke-linecap="butt" stroke-linejoin="round"/>
<path d="M 304.67 275.30 C 305.78 275.30 306.85 275.75 307.64 276.53 C 308.42 277.32 308.87 278.39 308.87 279.50 C 308.87 280.61 308.42 281.68 307.64 282.46 C 306.85 283.25 305.78 283.69 304.67 283.69 C 303.56 283.69 302.49 283.25 301.70 282.46 C 300.92 281.68 300.48 280.61 300.48 279.50 C 300.48 278.39 300.92 277.32 301.70 276.53 C 302.49 275.75 303.56 275.30 304.67 275.30 Z " fill="#8B6C94" fill-opacity="0.80" stroke="none" stroke-opacity="0.00" stroke-width="0.00" stroke-linecap="butt" stroke-linejoin="round"/>
<path d="M 331.30 252.94 C 332.35 252.94 333.36 253.36 334.11 254.11 C 334.86 254.86 335.28 255.87 335.28 256.92 C 335.28 257.98 334.86 258.99 334.11 259.74 C 333.36 260.48 332.35 260.90 331.30 260.90 C 330.24 260.90 329.23 260.48 328.48 259.74 C 327.74 258.99 327.32 257.98 327.32 256.92 C 327.32 255.87 327.74 254.86 328.48 254.11 C 329.23 253.36 330.24 252.94 331.30 252.94 Z " fill="#886798" fill-opacity="0.80" stroke="none" stroke-opacity="0.00" stroke-width="0.00" stroke-linecap="butt" stroke-linejoin="round"/>
<path d="M 358.71 230.41 C 359.71 230.41 360.67 230.81 361.38 231.51 C 362.09 232.22 362.49 233.19 362.49 234.19 C 362.49 235.19 362.09 236.15 361.38 236.86 C 360.67 237.57 359.71 237.97 358.71 237.97 C 357.71 237.97 356.75 237.57 356.04 236.86 C 355.33 236.15 354.93 235.19 354.93 234.19 C 354.93 233.19 355.33 232.22 356.04 231.51 C 356.75 230.81 357.71 230.41 358.71 230.41 Z " fill="#85639C" fill-opacity="0.80" stroke="none" stroke-opacity="0.00" stroke-width="0.00" stroke-linecap="butt" stroke-linejoin="round"/>
<path d="M 386.64 208.08 C 387.59 208.08 388.51 208.46 389.18 209.13 C 389.86 209.81 390.24 210.72 390.24 211.68 C 390.24 212.63 389.86 213.55 389.18 214.22 C 388.51 214.90 387.59 215.28 386.64 215.28 C 385.68 215.28 384.77 214.90 384.09 214.22 C 383.42 213.55 383.04 212.63 383.04 211.68 C 383.04 210.72 383.42 209.81 384.09 209.13 C 384.77 208.46 385.68 208.08 386.64 208.08 Z " fill="#825EA0" fill-opacity="0.80" stroke="none" stroke-opacity="0.00" stroke-width="0.00" stroke-linecap="butt" stroke-linejoin="round"/>
<path d="M 414.80 186.33 C 415.71 186.33 416.59 186.69 417.23 187.34 C 417.88 187.98 418.24 188.86 418.24 189.77 C 418.24 190.68 417.88 191.56 417.23 192.20 C 416.59 192.85 415.71 193.21 414.80 193.21 C 413.89 193.21 413.01 192.85 412.37 192.20 C 411.72 191.56 411.36 190.68 411.36 189.77 C 411.36 188.86 411.72 187.98 412.37 187.34 C 413.01 186.69 413.89 186.33 414.80 186.33 Z " fill="#7F5AA4" fill-opacity="0.80" stroke="none" stroke-opacity="0.00" stroke-width="0.00" stroke-linecap="butt" stroke-linejoin="round"/>
<path d="M 442.91 165.53 C 443.79 165.53 444.63 165.88 445.25 166.50 C 445.87 167.12 446.22 167.96 446.22 168.84 C 446.22 169.71 445.87 170.56 445.25 171.18 C 444.63 171.80 443.79 172.14 442.91 172.14 C 442.03 172.14 441.19 171.80 440.57 171.18 C 439.95 170.56 439.60 169.71 439.60 168.84 C 439.60 167.96 439.95 167.12 440.57 166.50 C 441.19 165.88 442.03 165.53 442.91 165.53 Z " fill="#7C55A8" fill-opacity="0.80" stroke="none" stroke-opacity="0.00" stroke-width="0.00" stroke-linecap="butt" stroke-linejoin="round"/>
<path d="M 470.70 146.03 C 471.55 146.03 472.36 146.36 472.96 146.96 C 473.57 147.57 473.90 148.38 473.90 149.23 C 473.90 150.08 473.57 150.90 472.96 151.50 C 472.36 152.10 471.55 152.44 470.70 152.44 C 469.85 152.44 469.03 152.10 468.43 151.50 C 467.83 150.90 467.49 150.08 467.49 149.23 C 467.49 148.38 467.83 147.57 468.43 146.96 C 469.03 146.36 469.85 146.03 470.70 146.03 Z " fill="#7951AC" fill-opacity="0.80" stroke="none" stroke-opacity="0.00" stroke-width="0.00" stroke-linecap="butt" stroke-linejoin="round"/>
<path d="M 497.88 128.15 C 498.71 128.15 499.51 128.48 500.10 129.06 C 500.68 129.65 501.01 130.45 501.01 131.28 C 501.01 132.12 500.68 132.91 500.10 133.50 C 499.51 134.09 498.71 134.42 497.88 134.42 C 497.04 134.42 496.25 134.09 495.66 133.50 C 495.07 132.91 494.74 132.12 494.74 131.28 C 494.74 130.45 495.07 129.65 495.66 129.06 C 496.25 128.48 497.04 128.15 497.88 128.15 Z " fill="#764CB0" fill-opacity="0.80" stroke="none" stroke-opacity="0.00" stroke-width="0.00" stroke-linecap="butt" stroke-linejoin="round"/>
<path d="M 524.18 112.19 C 525.00 112.19 525.79 112.52 526.38 113.10 C 526.96 113.68 527.29 114.47 527.29 115.30 C 527.29 116.12 526.96 116.91 526.38 117.49 C 525.79 118.08 525.00 118.40 524.18 118.40 C 523.35 118.40 522.56 118.08 521.98 117.49 C 521.40 116.91 521.07 116.12 521.07 115.30 C 521.07 114.47 521.40 113.68 521.98 113.10 C 522.56 112.52 523.35 112.19 524.18 112.19 Z " fill="#7348B4" fill-opacity="0.80" stroke="none" stroke-opacity="0.00" stroke-width="0.00" stroke-linecap="butt" stroke-linejoin="round"/>
<path d="M 549.34 98.43 C 550.17 98.43 550.96 98.76 551.54 99.34 C 552.13 99.92 552.45 100.72 552.45 101.54 C 552.45 102.37 552.13 103.16 551.54 103.74 C 550.96 104.33 550.17 104.66 549.34 104.66 C 548.51 104.66 547.72 104.33 547.14 103.74 C 546.55 103.16 546.22 102.37 546.22 101.54 C 546.22 100.72 546.55 99.92 547.14 99.34 C 547.72 98.76 548.51 98.43 549.34 98.43 Z " fill="#7044B8" fill-opacity="0.80" stroke="none" stroke-opacity="0.00" stroke-width="0.00" stroke-linecap="butt" stroke-linejoin="round"/>
<path d="M 573.11 87.09 C 573.95 87.09 574.75 87.42 575.34 88.01 C 575.94 88.61 576.27 89.41 576.27 90.25 C 576.27 91.09 575.94 91.89 575.34 92.48 C 574.75 93.07 573.95 93.41 573.11 93.41 C 572.27 93.41 571.47 93.07 570.88 92.48 C 570.28 91.89 569.95 91.09 569.95 90.25 C 569.95 89.41 570.28 88.61 570.88 88.01 C 571.47 87.42 572.27 87.09 573.11 87.09 Z " fill="#6D3FBC" fill-opacity="0.80" stroke="none" stroke-opacity="0.00" stroke-width="0.00" stroke-linecap="butt" stroke-linejoin="round"/>
<path d="M 595.25 78.37 C 596.11 78.37 596.93 78.71 597.54 79.32 C 598.15 79.93 598.49 80.75 598.49 81.61 C 598.49 82.47 598.15 83.29 597.54 83.90 C 596.93 84.51 596.11 84.85 595.25 84.85 C 594.39 84.85 593.57 84.51 592.96 83.90 C 592.35 83.29 592.01 82.47 592.01 81.61 C 592.01 80.75 592.35 79.93 592.96 79.32 C 593.57 78.71 594.39 78.37 595.25 78.37 Z " fill="#6A3BC0" fill-opacity="0.80" stroke="none" stroke-opacity="0.00" stroke-width="0.00" stroke-linecap="butt" stroke-linejoin="round"/>
<path d="M 615.54 72.42 C 616.43 72.42 617.28 72.77 617.91 73.40 C 618.54 74.03 618.89 74.88 618.89 75.77 C 618.89 76.66 618.54 77.51 617.91 78.14 C 617.28 78.77 616.43 79.12 615.54 79.12 C 614.65 79.12 613.80 78.77 613.17 78.14 C 612.54 77.51 612.19 76.66 612.19 75.77 C 612.19 74.88 612.54 74.03 613.17 73.40 C 613.80 72.77 614.65 72.42 615.54 72.42 Z " fill="#6837C3" fill-opacity="0.80" stroke="none" stroke-opacity="0.00" stroke-width="0.00" stroke-linecap="butt" stroke-linejoin="round"/>
<path d="M 633.78 69.33 C 634.70 69.33 635.59 69.70 636.25 70.36 C 636.90 71.01 637.27 71.90 637.27 72.83 C 637.27 73.75 636.90 74.64 636.25 75.30 C 635.59 75.95 634.70 76.32 633.78 76.32 C 632.85 76.32 631.96 75.95 631.31 75.30 C 630.65 74.64 630.28 73.75 630.28 72.83 C 630.28 71.90 630.65 71.01 631.31 70.36 C 631.96 69.70 632.85 69.33 633.78 69.33 Z " fill="#6533C7" fill-opacity="0.80" stroke="none" stroke-opacity="0.00" stroke-width="0.00" stroke-linecap="butt" stroke-linejoin="round"/>
<path d="M 649.78 69.17 C 650.75 69.17 651.68 69.56 652.37 70.24 C 653.06 70.93 653.44 71.86 653.44 72.83 C 653.44 73.80 653.06 74.73 652.37 75.42 C 651.68 76.11 650.75 76.49 649.78 76.49 C 648.81 76.49 647.88 76.11 647.19 75.42 C 646.50 74.73 646.12 73.80 646.12 72.83 C 646.12 71.86 646.50 70.93 647.19 70.24 C 647.88 69.56 648.81 69.17 649.78 69.17 Z " fill="#622FCA" fill-opacity="0.80" stroke="none" stroke-opacity="0.00" stroke-width="0.00" stroke-linecap="butt" stroke-linejoin="round"/>
<path d="M 663.39 71.93 C 664.41 71.93 665.39 72.34 666.11 73.06 C 666.83 73.78 667.24 74.76 667.24 75.78 C 667.24 76.80 666.83 77.78 666.11 78.51 C 665.39 79.23 664.41 79.63 663.39 79.63 C 662.37 79.63 661.39 79.23 660.66 78.51 C 659.94 77.78 659.54 76.80 659.54 75.78 C 659.54 74.76 659.94 73.78 660.66 73.06 C 661.39 72.34 662.37 71.93 663.39 71.93 Z " fill="#602BCE" fill-opacity="0.80" stroke="none" stroke-opacity="0.00" stroke-width="0.00" stroke-linecap="butt" stroke-linejoin="round"/>
<path d="M 674.46 77.58 C 675.54 77.58 676.57 78.01 677.33 78.77 C 678.09 79.53 678.52 80.56 678.52 81.63 C 678.52 82.71 678.09 83.74 677.33 84.50 C 676.57 85.26 675.54 85.69 674.46 85.69 C 673.39 85.69 672.35 85.26 671.59 84.50 C 670.83 83.74 670.41 82.71 670.41 81.63 C 670.41 80.56 670.83 79.53 671.59 78.77 C 672.35 78.01 673.39 77.58 674.46 77.58 Z " fill="#5D27D1" fill-opacity="0.80" stroke="none" stroke-opacity="0.00" stroke-width="0.00" stroke-linecap="butt" stroke-linejoin="round"/>
<path d="M 682.90 86.01 C 684.03 86.01 685.12 86.46 685.92 87.26 C 686.72 88.06 687.17 89.15 687.17 90.28 C 687.17 91.42 686.72 92.50 685.92 93.31 C 685.12 94.11 684.03 94.56 682.90 94.56 C 681.76 94.56 680.67 94.11 679.87 93.31 C 679.07 92.50 678.62 91.42 678.62 90.28 C 678.62 89.15 679.07 88.06 679.87 87.26 C 680.67 86.46 681.76 86.01 682.90 86.01 Z " fill="#5B23D4" fill-opacity="0.80" stroke="none" stroke-opacity="0.00" stroke-width="0.00" stroke-linecap="butt" stroke-linejoin="round"/>
<path d="M 688.60 97.08 C 689.80 97.08 690.94 97.55 691.79 98.40 C 692.63 99.24 693.11 100.39 693.11 101.58 C 693.11 102.78 692.63 103.93 691.79 104.77 C 690.94 105.62 689.80 106.09 688.60 106.09 C 687.41 106.09 686.26 105.62 685.42 104.77 C 684.57 103.93 684.10 102.78 684.10 101.58 C 684.10 100.39 684.57 99.24 685.42 98.40 C 686.26 97.55 687.41 97.08 688.60 97.08 Z " fill="#5820D8" fill-opacity="0.80" stroke="none" stroke-opacity="0.00" stroke-width="0.00" stroke-linecap="butt" stroke-linejoin="round"/>
<path d="M 691.53 110.60 C 692.79 110.60 693.99 111.10 694.88 111.99 C 695.77 112.88 696.27 114.09 696.27 115.35 C 696.27 116.61 695.77 117.81 694.88 118.70 C 693.99 119.59 692.79 120.09 691.53 120.09 C 690.27 120.09 689.06 119.59 688.17 118.70 C 687.28 117.81 686.78 116.61 686.78 115.35 C 686.78 114.09 687.28 112.88 688.17 111.99 C 689.06 111.10 690.27 110.60 691.53 110.60 Z " fill="#561DDB" fill-opacity="0.80" stroke="none" stroke-opacity="0.00" stroke-width="0.00" stroke-linecap="butt" stroke-linejoin="round"/>
<path d="M 691.64 126.35 C 692.96 126.35 694.23 126.88 695.17 127.81 C 696.10 128.75 696.63 130.02 696.63 131.34 C 696.63 132.67 696.10 133.93 695.17 134.87 C 694.23 135.81 692.96 136.33 691.64 136.33 C 690.32 136.33 689.05 135.81 688.11 134.87 C 687.18 133.93 686.65 132.67 686.65 131.34 C 686.65 130.02 687.18 128.75 688.11 127.81 C 689.05 126.88 690.32 126.35 691.64 126.35 Z " fill="#5419DD" fill-opacity="0.80" stroke="none" stroke-opacity="0.00" stroke-width="0.00" stroke-linecap="butt" stroke-linejoin="round"/>
<path d="M 688.94 144.06 C 690.33 144.06 691.66 144.61 692.64 145.59 C 693.62 146.57 694.18 147.91 694.18 149.30 C 694.18 150.68 693.62 152.02 692.64 153.00 C 691.66 153.98 690.33 154.53 688.94 154.53 C 687.55 154.53 686.22 153.98 685.24 153.00 C 684.25 152.02 683.70 150.68 683.70 149.30 C 683.70 147.91 684.25 146.57 685.24 145.59 C 686.22 144.61 687.55 144.06 688.94 144.06 Z " fill="#5216E0" fill-opacity="0.80" stroke="none" stroke-opacity="0.00" stroke-width="0.00" stroke-linecap="butt" stroke-linejoin="round"/>
<path d="M 683.45 163.42 C 684.91 163.42 686.30 164.00 687.33 165.03 C 688.36 166.06 688.94 167.45 688.94 168.91 C 688.94 170.36 688.36 171.76 687.33 172.79 C 686.30 173.82 684.91 174.39 683.45 174.39 C 682.00 174.39 680.60 173.82 679.57 172.79 C 678.54 171.76 677.96 170.36 677.96 168.91 C 677.96 167.45 678.54 166.06 679.57 165.03 C 680.60 164.00 682.00 163.42 683.45 163.42 Z " fill="#5014E3" fill-opacity="0.80" stroke="none" stroke-opacity="0.00" stroke-width="0.00" stroke-linecap="butt" stroke-linejoin="round"/>
<path d="M 675.23 184.10 C 676.75 184.10 678.21 184.71 679.29 185.78 C 680.37 186.86 680.97 188.32 680.97 189.84 C 680.97 191.37 680.37 192.83 679.29 193.90 C 678.21 194.98 676.75 195.58 675.23 195.58 C 673.71 195.58 672.25 194.98 671.17 193.90 C 670.10 192.83 669.49 191.37 669.49 189.84 C 669.49 188.32 670.10 186.86 671.17 185.78 C 672.25 184.71 673.71 184.10 675.23 184.10 Z " fill="#4E11E5" fill-opacity="0.80" stroke="none" stroke-opacity="0.00" stroke-width="0.00" stroke-linecap="butt" stroke-linejoin="round"/>
<path d="M 664.36 205.76 C 665.95 205.76 667.48 206.39 668.60 207.52 C 669.72 208.64 670.35 210.16 670.35 211.75 C 670.35 213.34 669.72 214.87 668.60 215.99 C 667.48 217.11 665.95 217.74 664.36 217.74 C 662.77 217.74 661.25 217.11 660.13 215.99 C 659.00 214.87 658.37 213.34 658.37 211.75 C 658.37 210.16 659.00 208.64 660.13 207.52 C 661.25 206.39 662.77 205.76 664.36 205.76 Z " fill="#4D0EE7" fill-opacity="0.80" stroke="none" stroke-opacity="0.00" stroke-width="0.00" stroke-linecap="butt" stroke-linejoin="round"/>
<path d="M 650.95 228.02 C 652.61 228.02 654.20 228.68 655.37 229.85 C 656.54 231.02 657.19 232.61 657.19 234.27 C 657.19 235.92 656.54 237.51 655.37 238.68 C 654.20 239.85 652.61 240.51 650.95 240.51 C 649.30 240.51 647.71 239.85 646.54 238.68 C 645.37 237.51 644.71 235.92 644.71 234.27 C 644.71 232.61 645.37 231.02 646.54 229.85 C 647.71 228.68 649.30 228.02 650.95 228.02 Z " fill="#4B0CE9" fill-opacity="0.80" stroke="none" stroke-opacity="0.00" stroke-width="0.00" stroke-linecap="butt" stroke-linejoin="round"/>
<path d="M 635.14 250.51 C 636.86 250.51 638.51 251.20 639.72 252.41 C 640.94 253.63 641.62 255.28 641.62 257.00 C 641.62 258.72 640.94 260.37 639.72 261.59 C 638.51 262.81 636.86 263.49 635.14 263.49 C 633.42 263.49 631.76 262.81 630.55 261.59 C 629.33 260.37 628.65 258.72 628.65 257.00 C 628.65 255.28 629.33 253.63 630.55 252.41 C 631.76 251.20 633.42 250.51 635.14 250.51 Z " fill="#4A0AEB" fill-opacity="0.80" stroke="none" stroke-opacity="0.00" stroke-width="0.00" stroke-linecap="butt" stroke-linejoin="round"/>
<path d="M 617.07 272.84 C 618.86 272.84 620.57 273.55 621.83 274.81 C 623.09 276.08 623.80 277.79 623.80 279.58 C 623.80 281.36 623.09 283.07 621.83 284.34 C 620.57 285.60 618.86 286.31 617.07 286.31 C 615.28 286.31 613.57 285.60 612.31 284.34 C 611.05 283.07 610.34 281.36 610.34 279.58 C 610.34 277.79 611.05 276.08 612.31 274.81 C 613.57 273.55 615.28 272.84 617.07 272.84 Z " fill="#4908ED" fill-opacity="0.80" stroke="none" stroke-opacity="0.00" stroke-width="0.00" stroke-linecap="butt" stroke-linejoin="round"/>
<path d="M 596.94 294.64 C 598.79 294.64 600.56 295.37 601.87 296.68 C 603.17 297.99 603.91 299.76 603.91 301.61 C 603.91 303.46 603.17 305.23 601.87 306.54 C 600.56 307.85 598.79 308.58 596.94 308.58 C 595.09 308.58 593.31 307.85 592.01 306.54 C 590.70 305.23 589.96 303.46 589.96 301.61 C 589.96 299.76 590.70 297.99 592.01 296.68 C 593.31 295.37 595.09 294.64 596.94 294.64 Z " fill="#4706EE" fill-opacity="0.80" stroke="none" stroke-opacity="0.00" stroke-width="0.00" stroke-linecap="butt" stroke-linejoin="round"/>
<path d="M 574.93 315.52 C 576.85 315.52 578.68 316.28 580.03 317.63 C 581.38 318.98 582.14 320.82 582.14 322.73 C 582.14 324.64 581.38 326.47 580.03 327.82 C 578.68 329.18 576.85 329.94 574.93 329.94 C 573.02 329.94 571.19 329.18 569.84 327.82 C 568.49 326.47 567.73 324.64 567.73 322.73 C 567.73 320.82 568.49 318.98 569.84 317.63 C 571.19 316.28 573.02 315.52 574.93 315.52 Z " fill="#4605F0" fill-opacity="0.80" stroke="none" stroke-opacity="0.00" stroke-width="0.00" stroke-linecap="butt" stroke-linejoin="round"/>
<path d="M 551.29 335.14 C 553.26 335.14 555.15 335.92 556.54 337.32 C 557.94 338.71 558.72 340.61 558.72 342.58 C 558.72 344.55 557.94 346.44 556.54 347.84 C 555.15 349.23 553.26 350.01 551.29 350.01 C 549.31 350.01 547.42 349.23 546.03 347.84 C 544.63 346.44 543.85 344.55 543.85 342.58 C 543.85 340.61 544.63 338.71 546.03 337.32 C 547.42 335.92 549.31 335.14 551.29 335.14 Z " fill="#4604F1" fill-opacity="0.80" stroke="none" stroke-opacity="0.00" stroke-width="0.00" stroke-linecap="butt" stroke-linejoin="round"/>
<path d="M 526.23 353.16 C 528.26 353.16 530.21 353.97 531.64 355.41 C 533.08 356.84 533.89 358.79 533.89 360.82 C 533.89 362.85 533.08 364.80 531.64 366.24 C 530.21 367.68 528.26 368.48 526.23 368.48 C 524.19 368.48 522.25 367.68 520.81 366.24 C 519.37 364.80 518.57 362.85 518.57 360.82 C 518.57 358.79 519.37 356.84 520.81 355.41 C 522.25 353.97 524.19 353.16 526.23 353.16 Z " fill="#4503F2" fill-opacity="0.80" stroke="none" stroke-opacity="0.00" stroke-width="0.00" stroke-linecap="butt" stroke-linejoin="round"/>
<path d="M 500.01 369.28 C 502.10 369.28 504.10 370.11 505.58 371.58 C 507.05 373.06 507.88 375.07 507.88 377.15 C 507.88 379.24 507.05 381.25 505.58 382.72 C 504.10 384.20 502.10 385.03 500.01 385.03 C 497.92 385.03 495.91 384.20 494.44 382.72 C 492.96 381.25 492.13 379.24 492.13 377.15 C 492.13 375.07 492.96 373.06 494.44 371.58 C 495.91 370.11 497.92 369.28 500.01 369.28 Z " fill="#4402F2" fill-opacity="0.80" stroke="none" stroke-opacity="0.00" stroke-width="0.00" stroke-linecap="butt" stroke-linejoin="round"/>
<path d="M 472.89 383.21 C 475.03 383.21 477.09 384.06 478.61 385.58 C 480.12 387.10 480.97 389.15 480.97 391.30 C 480.97 393.44 480.12 395.50 478.61 397.02 C 477.09 398.53 475.03 399.38 472.89 399.38 C 470.74 399.38 468.68 398.53 467.17 397.02 C 465.65 395.50 464.80 393.44 464.80 391.30 C 464.80 389.15 465.65 387.10 467.17 385.58 C 468.68 384.06 470.74 383.21 472.89 383.21 Z " fill="#4401F3" fill-opacity="0.80" stroke="none" stroke-opacity="0.00" stroke-width="0.00" stroke-linecap="butt" stroke-linejoin="round"/>
<path d="M 445.14 394.72 C 447.34 394.72 449.45 395.60 451.00 397.15 C 452.56 398.71 453.43 400.82 453.43 403.01 C 453.43 405.21 452.56 407.32 451.00 408.88 C 449.45 410.43 447.34 411.30 445.14 411.30 C 442.94 411.30 440.83 410.43 439.28 408.88 C 437.72 407.32 436.85 405.21 436.85 403.01 C 436.85 400.82 437.72 398.71 439.28 397.15 C 440.83 395.60 442.94 394.72 445.14 394.72 Z " fill="#4401F3" fill-opacity="0.80" stroke="none" stroke-opacity="0.00" stroke-width="0.00" stroke-linecap="butt" stroke-linejoin="round"/>
<path d="M 417.04 403.62 C 419.29 403.62 421.45 404.52 423.04 406.11 C 424.63 407.70 425.53 409.86 425.53 412.11 C 425.53 414.36 424.63 416.51 423.04 418.10 C 421.45 419.70 419.29 420.59 417.04 420.59 C 414.79 420.59 412.63 419.70 411.04 418.10 C 409.45 416.51 408.56 414.36 408.56 412.11 C 408.56 409.86 409.45 407.70 411.04 406.11 C 412.63 404.52 414.79 403.62 417.04 403.62 Z " fill="#4401F3" fill-opacity="0.80" stroke="none" stroke-opacity="0.00" stroke-width="0.00" stroke-linecap="butt" stroke-linejoin="round"/>
<path d="M 388.88 409.75 C 391.17 409.75 393.38 410.66 395.01 412.29 C 396.63 413.91 397.54 416.12 397.54 418.42 C 397.54 420.72 396.63 422.92 395.01 424.55 C 393.38 426.18 391.17 427.09 388.88 427.09 C 386.58 427.09 384.37 426.18 382.74 424.55 C 381.12 422.92 380.21 420.72 380.21 418.42 C 380.21 416.12 381.12 413.91 382.74 412.29 C 384.37 410.66 386.58 409.75 388.88 409.75 Z " fill="#4401F3" fill-opacity="0.80" stroke="none" stroke-opacity="0.00" stroke-width="0.00" stroke-linecap="butt" stroke-linejoin="round"/>
<path d="M 360.92 413.00 C 363.27 413.00 365.52 413.93 367.18 415.59 C 368.83 417.25 369.77 419.50 369.77 421.85 C 369.77 424.19 368.83 426.44 367.18 428.10 C 365.52 429.76 363.27 430.69 360.92 430.69 C 358.57 430.69 356.32 429.76 354.66 428.10 C 353.00 426.44 352.07 424.19 352.07 421.85 C 352.07 419.50 353.00 417.25 354.66 415.59 C 356.32 413.93 358.57 413.00 360.92 413.00 Z " fill="#4401F3" fill-opacity="0.80" stroke="none" stroke-opacity="0.00" stroke-width="0.00" stroke-linecap="butt" stroke-linejoin="round"/>
<path d="M 333.45 413.32 C 335.85 413.32 338.14 414.27 339.83 415.96 C 341.52 417.65 342.47 419.94 342.47 422.33 C 342.47 424.72 341.52 427.02 339.83 428.71 C 338.14 430.40 335.85 431.35 333.45 431.35 C 331.06 431.35 328.77 430.40 327.08 428.71 C 325.39 427.02 324.44 424.72 324.44 422.33 C 324.44 419.94 325.39 417.65 327.08 415.96 C 328.77 414.27 331.06 413.32 333.45 413.32 Z " fill="#4401F3" fill-opacity="0.80" stroke="none" stroke-opacity="0.00" stroke-width="0.00" stroke-linecap="butt" stroke-linejoin="round"/>
<path d="M 306.76 410.69 C 309.19 410.69 311.52 411.66 313.24 413.38 C 314.96 415.10 315.93 417.44 315.93 419.87 C 315.93 422.30 314.96 424.64 313.24 426.36 C 311.52 428.08 309.19 429.04 306.76 429.04 C 304.32 429.04 301.99 428.08 300.27 426.36 C 298.55 424.64 297.58 422.30 297.58 419.87 C 297.58 417.44 298.55 415.10 300.27 413.38 C 301.99 411.66 304.32 410.69 306.76 410.69 Z " fill="#4502F2" fill-opacity="0.80" stroke="none" stroke-opacity="0.00" stroke-width="0.00" stroke-linecap="butt" stroke-linejoin="round"/>
<path d="M 281.09 405.17 C 283.56 405.17 285.93 406.15 287.68 407.90 C 289.43 409.65 290.41 412.02 290.41 414.49 C 290.41 416.97 289.43 419.34 287.68 421.09 C 285.93 422.84 283.56 423.82 281.09 423.82 C 278.62 423.82 276.24 422.84 274.50 421.09 C 272.75 419.34 271.76 416.97 271.76 414.49 C 271.76 412.02 272.75 409.65 274.50 407.90 C 276.24 406.15 278.62 405.17 281.09 405.17 Z " fill="#4503F1" fill-opacity="0.80" stroke="none" stroke-opacity="0.00" stroke-width="0.00" stroke-linecap="butt" stroke-linejoin="round"/>
<path d="M 256.71 396.84 C 259.22 396.84 261.63 397.84 263.40 399.61 C 265.18 401.38 266.17 403.79 266.17 406.30 C 266.17 408.81 265.18 411.22 263.40 412.99 C 261.63 414.77 259.22 415.76 256.71 415.76 C 254.20 415.76 251.79 414.77 250.02 412.99 C 248.24 411.22 247.25 408.81 247.25 406.30 C 247.25 403.79 248.24 401.38 250.02 399.61 C 251.79 397.84 254.20 396.84 256.71 396.84 Z " fill="#4604F0" fill-opacity="0.80" stroke="none" stroke-opacity="0.00" stroke-width="0.00" stroke-linecap="butt" stroke-linejoin="round"/>
<path d="M 233.86 385.84 C 236.41 385.84 238.85 386.85 240.65 388.65 C 242.45 390.44 243.46 392.88 243.46 395.43 C 243.46 397.97 242.45 400.41 240.65 402.21 C 238.85 404.01 236.41 405.02 233.86 405.02 C 231.32 405.02 228.88 404.01 227.08 402.21 C 225.28 400.41 224.27 397.97 224.27 395.43 C 224.27 392.88 225.28 390.44 227.08 388.65 C 228.88 386.85 231.32 385.84 233.86 385.84 Z " fill="#4706EF" fill-opacity="0.80" stroke="none" stroke-opacity="0.00" stroke-width="0.00" stroke-linecap="butt" stroke-linejoin="round"/>
<path d="M 212.78 372.35 C 215.35 372.35 217.82 373.37 219.65 375.19 C 221.47 377.01 222.49 379.48 222.49 382.06 C 222.49 384.63 221.47 387.10 219.65 388.93 C 217.82 390.75 215.35 391.77 212.78 391.77 C 210.20 391.77 207.73 390.75 205.91 388.93 C 204.09 387.10 203.07 384.63 203.07 382.06 C 203.07 379.48 204.09 377.01 205.91 375.19 C 207.73 373.37 210.20 372.35 212.78 372.35 Z " fill="#4807EE" fill-opacity="0.80" stroke="none" stroke-opacity="0.00" stroke-width="0.00" stroke-linecap="butt" stroke-linejoin="round"/>
<path d="M 193.66 356.60 C 196.27 356.60 198.77 357.63 200.61 359.47 C 202.45 361.31 203.48 363.81 203.48 366.42 C 203.48 369.02 202.45 371.52 200.61 373.36 C 198.77 375.20 196.27 376.24 193.66 376.24 C 191.06 376.24 188.56 375.20 186.72 373.36 C 184.88 371.52 183.84 369.02 183.84 366.42 C 183.84 363.81 184.88 361.31 186.72 359.47 C 188.56 357.63 191.06 356.60 193.66 356.60 Z " fill="#4909EC" fill-opacity="0.80" stroke="none" stroke-opacity="0.00" stroke-width="0.00" stroke-linecap="butt" stroke-linejoin="round"/>
<path d="M 176.71 338.85 C 179.34 338.85 181.86 339.90 183.72 341.76 C 185.58 343.62 186.63 346.14 186.63 348.77 C 186.63 351.40 185.58 353.92 183.72 355.78 C 181.86 357.64 179.34 358.69 176.71 358.69 C 174.08 358.69 171.56 357.64 169.70 355.78 C 167.84 353.92 166.79 351.40 166.79 348.77 C 166.79 346.14 167.84 343.62 169.70 341.76 C 171.56 339.90 174.08 338.85 176.71 338.85 Z " fill="#4A0BEA" fill-opacity="0.80" stroke="none" stroke-opacity="0.00" stroke-width="0.00" stroke-linecap="butt" stroke-linejoin="round"/>
<path d="M 162.09 319.41 C 164.74 319.41 167.29 320.46 169.16 322.34 C 171.04 324.21 172.10 326.76 172.10 329.41 C 172.10 332.06 171.04 334.61 169.16 336.49 C 167.29 338.36 164.74 339.42 162.09 339.42 C 159.44 339.42 156.89 338.36 155.02 336.49 C 153.14 334.61 152.09 332.06 152.09 329.41 C 152.09 326.76 153.14 324.21 155.02 322.34 C 156.89 320.46 159.44 319.41 162.09 319.41 Z " fill="#4C0DE8" fill-opacity="0.80" stroke="none" stroke-opacity="0.00" stroke-width="0.00" stroke-linecap="butt" stroke-linejoin="round"/>
<path d="M 149.95 298.59 C 152.62 298.59 155.18 299.65 157.08 301.54 C 158.97 303.43 160.03 306.00 160.03 308.67 C 160.03 311.34 158.97 313.91 157.08 315.80 C 155.18 317.69 152.62 318.75 149.95 318.75 C 147.27 318.75 144.71 317.69 142.82 315.80 C 140.93 313.91 139.87 311.34 139.87 308.67 C 139.87 306.00 140.93 303.43 142.82 301.54 C 144.71 299.65 147.27 298.59 149.95 298.59 Z " fill="#4E10E6" fill-opacity="0.80" stroke="none" stroke-opacity="0.00" stroke-width="0.00" stroke-linecap="butt" stroke-linejoin="round"/>
<path d="M 140.40 276.75 C 143.09 276.75 145.67 277.82 147.58 279.72 C 149.48 281.63 150.55 284.21 150.55 286.90 C 150.55 289.59 149.48 292.17 147.58 294.07 C 145.67 295.97 143.09 297.04 140.40 297.04 C 137.71 297.04 135.13 295.97 133.23 294.07 C 131.33 292.17 130.26 289.59 130.26 286.90 C 130.26 284.21 131.33 281.63 133.23 279.72 C 135.13 277.82 137.71 276.75 140.40 276.75 Z " fill="#4F12E4" fill-opacity="0.80" stroke="none" stroke-opacity="0.00" stroke-width="0.00" stroke-linecap="butt" stroke-linejoin="round"/>
<path d="M 133.55 254.26 C 136.26 254.26 138.85 255.33 140.76 257.25 C 142.68 259.16 143.75 261.75 143.75 264.46 C 143.75 267.16 142.68 269.76 140.76 271.67 C 138.85 273.58 136.26 274.66 133.55 274.66 C 130.85 274.66 128.25 273.58 126.34 271.67 C 124.43 269.76 123.35 267.16 123.35 264.46 C 123.35 261.75 124.43 259.16 126.34 257.25 C 128.25 255.33 130.85 254.26 133.55 254.26 Z " fill="#5115E1" fill-opacity="0.80" stroke="none" stroke-opacity="0.00" stroke-width="0.00" stroke-linecap="butt" stroke-linejoin="round"/>
<path d="M 129.47 231.49 C 132.18 231.49 134.79 232.57 136.71 234.49 C 138.63 236.41 139.71 239.02 139.71 241.73 C 139.71 244.45 138.63 247.06 136.71 248.98 C 134.79 250.90 132.18 251.98 129.47 251.98 C 126.75 251.98 124.14 250.90 122.22 248.98 C 120.30 247.06 119.22 244.45 119.22 241.73 C 119.22 239.02 120.30 236.41 122.22 234.49 C 124.14 232.57 126.75 231.49 129.47 231.49 Z " fill="#5318DF" fill-opacity="0.80" stroke="none" stroke-opacity="0.00" stroke-width="0.00" stroke-linecap="butt" stroke-linejoin="round"/>
<path d="M 128.18 208.83 C 130.91 208.83 133.52 209.92 135.45 211.84 C 137.37 213.77 138.45 216.38 138.45 219.11 C 138.45 221.83 137.37 224.44 135.45 226.37 C 133.52 228.30 130.91 229.38 128.18 229.38 C 125.46 229.38 122.84 228.30 120.92 226.37 C 118.99 224.44 117.91 221.83 117.91 219.11 C 117.91 216.38 118.99 213.77 120.92 211.84 C 122.84 209.92 125.46 208.83 128.18 208.83 Z " fill="#551BDC" fill-opacity="0.80" stroke="none" stroke-opacity="0.00" stroke-width="0.00" stroke-linecap="butt" stroke-linejoin="round"/>
<path d="M 129.71 186.67 C 132.44 186.67 135.06 187.75 136.99 189.68 C 138.92 191.61 140.01 194.23 140.01 196.96 C 140.01 199.69 138.92 202.30 136.99 204.23 C 135.06 206.16 132.44 207.25 129.71 207.25 C 126.99 207.25 124.37 206.16 122.44 204.23 C 120.51 202.30 119.42 199.69 119.42 196.96 C 119.42 194.23 120.51 191.61 122.44 189.68 C 124.37 187.75 126.99 186.67 129.71 186.67 Z " fill="#571ED9" fill-opacity="0.80" stroke="none" stroke-opacity="0.00" stroke-width="0.00" stroke-linecap="butt" stroke-linejoin="round"/>
<path d="M 134.05 165.36 C 136.78 165.36 139.40 166.45 141.33 168.38 C 143.26 170.31 144.35 172.93 144.35 175.66 C 144.35 178.39 143.26 181.01 141.33 182.94 C 139.40 184.88 136.78 185.96 134.05 185.96 C 131.32 185.96 128.70 184.88 126.77 182.94 C 124.83 181.01 123.75 178.39 123.75 175.66 C 123.75 172.93 124.83 170.31 126.77 168.38 C 128.70 166.45 131.32 165.36 134.05 165.36 Z " fill="#5A22D6" fill-opacity="0.80" stroke="none" stroke-opacity="0.00" stroke-width="0.00" stroke-linecap="butt" stroke-linejoin="round"/>
<path d="M 141.14 145.28 C 143.87 145.28 146.49 146.36 148.42 148.30 C 150.35 150.23 151.44 152.85 151.44 155.58 C 151.44 158.31 150.35 160.93 148.42 162.86 C 146.49 164.79 143.87 165.87 141.14 165.87 C 138.41 165.87 135.79 164.79 133.86 162.86 C 131.93 160.93 130.84 158.31 130.84 155.58 C 130.84 152.85 131.93 150.23 133.86 148.30 C 135.79 146.36 138.41 145.28 141.14 145.28 Z " fill="#5C25D3" fill-opacity="0.80" stroke="none" stroke-opacity="0.00" stroke-width="0.00" stroke-linecap="butt" stroke-linejoin="round"/>
<path d="M 150.92 126.76 C 153.65 126.76 156.26 127.84 158.19 129.77 C 160.12 131.70 161.20 134.32 161.20 137.04 C 161.20 139.77 160.12 142.39 158.19 144.31 C 156.26 146.24 153.65 147.32 150.92 147.32 C 148.19 147.32 145.58 146.24 143.65 144.31 C 141.72 142.39 140.64 139.77 140.64 137.04 C 140.64 134.32 141.72 131.70 143.65 129.77 C 145.58 127.84 148.19 126.76 150.92 126.76 Z " fill="#5E29D0" fill-opacity="0.80" stroke="none" stroke-opacity="0.00" stroke-width="0.00" stroke-linecap="butt" stroke-linejoin="round"/>
<path d="M 163.29 110.12 C 166.01 110.12 168.62 111.20 170.54 113.12 C 172.46 115.04 173.54 117.65 173.54 120.37 C 173.54 123.09 172.46 125.70 170.54 127.62 C 168.62 129.55 166.01 130.63 163.29 130.63 C 160.57 130.63 157.96 129.55 156.03 127.62 C 154.11 125.70 153.03 123.09 153.03 120.37 C 153.03 117.65 154.11 115.04 156.03 113.12 C 157.96 111.20 160.57 110.12 163.29 110.12 Z " fill="#612DCC" fill-opacity="0.80" stroke="none" stroke-opacity="0.00" stroke-width="0.00" stroke-linecap="butt" stroke-linejoin="round"/>
<path d="M 178.12 95.63 C 180.83 95.63 183.43 96.71 185.35 98.62 C 187.26 100.54 188.34 103.14 188.34 105.85 C 188.34 108.56 187.26 111.16 185.35 113.07 C 183.43 114.99 180.83 116.07 178.12 116.07 C 175.41 116.07 172.81 114.99 170.90 113.07 C 168.98 111.16 167.90 108.56 167.90 105.85 C 167.90 103.14 168.98 100.54 170.90 98.62 C 172.81 96.71 175.41 95.63 178.12 95.63 Z " fill="#6431C9" fill-opacity="0.80" stroke="none" stroke-opacity="0.00" stroke-width="0.00" stroke-linecap="butt" stroke-linejoin="round"/>
<path d="M 195.27 83.55 C 197.97 83.55 200.55 84.62 202.46 86.52 C 204.37 88.43 205.44 91.02 205.44 93.71 C 205.44 96.41 204.37 99.00 202.46 100.90 C 200.55 102.81 197.97 103.88 195.27 103.88 C 192.57 103.88 189.99 102.81 188.08 100.90 C 186.17 99.00 185.10 96.41 185.10 93.71 C 185.10 91.02 186.17 88.43 188.08 86.52 C 189.99 84.62 192.57 83.55 195.27 83.55 Z " fill="#6635C5" fill-opacity="0.80" stroke="none" stroke-opacity="0.00" stroke-width="0.00" stroke-linecap="butt" stroke-linejoin="round"/>
<path d="M 214.57 74.07 C 217.25 74.07 219.82 75.13 221.72 77.03 C 223.61 78.92 224.68 81.49 224.68 84.17 C 224.68 86.86 223.61 89.43 221.72 91.32 C 219.82 93.22 217.25 94.28 214.57 94.28 C 211.89 94.28 209.32 93.22 207.42 91.32 C 205.52 89.43 204.46 86.86 204.46 84.17 C 204.46 81.49 205.52 78.92 207.42 77.03 C 209.32 75.13 211.89 74.07 214.57 74.07 Z " fill="#6939C1" fill-opacity="0.80" stroke="none" stroke-opacity="0.00" stroke-width="0.00" stroke-linecap="butt" stroke-linejoin="round"/>
<path d="M 235.82 67.35 C 238.48 67.35 241.03 68.41 242.92 70.29 C 244.80 72.18 245.86 74.73 245.86 77.39 C 245.86 80.05 244.80 82.61 242.92 84.49 C 241.03 86.37 238.48 87.43 235.82 87.43 C 233.16 87.43 230.60 86.37 228.72 84.49 C 226.84 82.61 225.78 80.05 225.78 77.39 C 225.78 74.73 226.84 72.18 228.72 70.29 C 230.60 68.41 233.16 67.35 235.82 67.35 Z " fill="#6C3DBE" fill-opacity="0.80" stroke="none" stroke-opacity="0.00" stroke-width="0.00" stroke-linecap="butt" stroke-linejoin="round"/>
<path d="M 258.81 63.52 C 261.45 63.52 263.98 64.57 265.85 66.44 C 267.71 68.31 268.76 70.84 268.76 73.48 C 268.76 76.12 267.71 78.65 265.85 80.52 C 263.98 82.38 261.45 83.43 258.81 83.43 C 256.17 83.43 253.64 82.38 251.77 80.52 C 249.90 78.65 248.86 76.12 248.86 73.48 C 248.86 70.84 249.90 68.31 251.77 66.44 C 253.64 64.57 256.17 63.52 258.81 63.52 Z " fill="#6F41BA" fill-opacity="0.80" stroke="none" stroke-opacity="0.00" stroke-width="0.00" stroke-linecap="butt" stroke-linejoin="round"/>
<path d="M 283.31 62.64 C 285.93 62.64 288.44 63.68 290.28 65.53 C 292.13 67.38 293.17 69.89 293.17 72.50 C 293.17 75.12 292.13 77.63 290.28 79.47 C 288.44 81.32 285.93 82.36 283.31 82.36 C 280.70 82.36 278.19 81.32 276.34 79.47 C 274.49 77.63 273.45 75.12 273.45 72.50 C 273.45 69.89 274.49 67.38 276.34 65.53 C 278.19 63.68 280.70 62.64 283.31 62.64 Z " fill="#7246B6" fill-opacity="0.80" stroke="none" stroke-opacity="0.00" stroke-width="0.00" stroke-linecap="butt" stroke-linejoin="round"/>
<path d="M 309.08 64.72 C 311.67 64.72 314.15 65.75 315.98 67.58 C 317.81 69.41 318.84 71.89 318.84 74.48 C 318.84 77.07 317.81 79.55 315.98 81.38 C 314.15 83.21 311.67 84.23 309.08 84.23 C 306.49 84.23 304.01 83.21 302.18 81.38 C 300.35 79.55 299.32 77.07 299.32 74.48 C 299.32 71.89 300.35 69.41 302.18 67.58 C 304.01 65.75 306.49 64.72 309.08 64.72 Z " fill="#754AB2" fill-opacity="0.80" stroke="none" stroke-opacity="0.00" stroke-width="0.00" stroke-linecap="butt" stroke-linejoin="round"/>
<path d="M 335.86 69.73 C 338.42 69.73 340.87 70.75 342.68 72.56 C 344.48 74.36 345.50 76.82 345.50 79.37 C 345.50 81.93 344.48 84.38 342.68 86.19 C 340.87 88.00 338.42 89.02 335.86 89.02 C 333.30 89.02 330.85 88.00 329.04 86.19 C 327.23 84.38 326.22 81.93 326.22 79.37 C 326.22 76.82 327.23 74.36 329.04 72.56 C 330.85 70.75 333.30 69.73 335.86 69.73 Z " fill="#784FAE" fill-opacity="0.80" stroke="none" stroke-opacity="0.00" stroke-width="0.00" stroke-linecap="butt" stroke-linejoin="round"/>
<path d="M 363.38 77.59 C 365.90 77.59 368.32 78.59 370.11 80.38 C 371.89 82.16 372.89 84.58 372.89 87.11 C 372.89 89.63 371.89 92.05 370.11 93.84 C 368.32 95.62 365.90 96.62 363.38 96.62 C 360.85 96.62 358.43 95.62 356.65 93.84 C 354.86 92.05 353.86 89.63 353.86 87.11 C 353.86 84.58 354.86 82.16 356.65 80.38 C 358.43 78.59 360.85 77.59 363.38 77.59 Z " fill="#7B53AA" fill-opacity="0.80" stroke="none" stroke-opacity="0.00" stroke-width="0.00" stroke-linecap="butt" stroke-linejoin="round"/>
<path d="M 391.36 88.17 C 393.85 88.17 396.24 89.15 398.00 90.91 C 399.76 92.67 400.74 95.06 400.74 97.55 C 400.74 100.03 399.76 102.42 398.00 104.18 C 396.24 105.94 393.85 106.93 391.36 106.93 C 388.88 106.93 386.49 105.94 384.73 104.18 C 382.97 102.42 381.98 100.03 381.98 97.55 C 381.98 95.06 382.97 92.67 384.73 90.91 C 386.49 89.15 388.88 88.17 391.36 88.17 Z " fill="#7E58A6" fill-opacity="0.80" stroke="none" stroke-opacity="0.00" stroke-width="0.00" stroke-linecap="butt" stroke-linejoin="round"/>
<path d="M 419.54 101.28 C 421.99 101.28 424.33 102.25 426.07 103.99 C 427.80 105.72 428.77 108.07 428.77 110.52 C 428.77 112.97 427.80 115.31 426.07 117.05 C 424.33 118.78 421.99 119.75 419.54 119.75 C 417.09 119.75 414.74 118.78 413.01 117.05 C 411.27 115.31 410.30 112.97 410.30 110.52 C 410.30 108.07 411.27 105.72 413.01 103.99 C 414.74 102.25 417.09 101.28 419.54 101.28 Z " fill="#815CA2" fill-opacity="0.80" stroke="none" stroke-opacity="0.00" stroke-width="0.00" stroke-linecap="butt" stroke-linejoin="round"/>
<path d="M 447.61 116.72 C 450.02 116.72 452.33 117.67 454.03 119.38 C 455.74 121.08 456.69 123.39 456.69 125.80 C 456.69 128.21 455.74 130.52 454.03 132.22 C 452.33 133.92 450.02 134.88 447.61 134.88 C 445.21 134.88 442.90 133.92 441.19 132.22 C 439.49 130.52 438.53 128.21 438.53 125.80 C 438.53 123.39 439.49 121.08 441.19 119.38 C 442.90 117.67 445.21 116.72 447.61 116.72 Z " fill="#84619E" fill-opacity="0.80" stroke="none" stroke-opacity="0.00" stroke-width="0.00" stroke-linecap="butt" stroke-linejoin="round"/>
<path d="M 475.32 134.22 C 477.68 134.22 479.95 135.16 481.62 136.83 C 483.29 138.50 484.23 140.77 484.23 143.13 C 484.23 145.50 483.29 147.76 481.62 149.44 C 479.95 151.11 477.68 152.05 475.32 152.05 C 472.95 152.05 470.68 151.11 469.01 149.44 C 467.34 147.76 466.40 145.50 466.40 143.13 C 466.40 140.77 467.34 138.50 469.01 136.83 C 470.68 135.16 472.95 134.22 475.32 134.22 Z " fill="#86659A" fill-opacity="0.80" stroke="none" stroke-opacity="0.00" stroke-width="0.00" stroke-linecap="butt" stroke-linejoin="round"/>
<path d="M 502.37 153.49 C 504.69 153.49 506.91 154.41 508.55 156.05 C 510.19 157.69 511.11 159.91 511.11 162.23 C 511.11 164.55 510.19 166.77 508.55 168.41 C 506.91 170.05 504.69 170.97 502.37 170.97 C 500.05 170.97 497.83 170.05 496.19 168.41 C 494.55 166.77 493.63 164.55 493.63 162.23 C 493.63 159.91 494.55 157.69 496.19 156.05 C 497.83 154.41 500.05 153.49 502.37 153.49 Z " fill="#896996" fill-opacity="0.80" stroke="none" stroke-opacity="0.00" stroke-width="0.00" stroke-linecap="butt" stroke-linejoin="round"/>
<path d="M 528.50 174.20 C 530.77 174.20 532.94 175.11 534.55 176.71 C 536.15 178.32 537.05 180.49 537.05 182.76 C 537.05 185.03 536.15 187.21 534.55 188.81 C 532.94 190.42 530.77 191.32 528.50 191.32 C 526.23 191.32 524.05 190.42 522.44 188.81 C 520.84 187.21 519.94 185.03 519.94 182.76 C 519.94 180.49 520.84 178.32 522.44 176.71 C 524.05 175.11 526.23 174.20 528.50 174.20 Z " fill="#8C6E92" fill-opacity="0.80" stroke="none" stroke-opacity="0.00" stroke-width="0.00" stroke-linecap="butt" stroke-linejoin="round"/>
<path d="M 553.44 196.02 C 555.66 196.02 557.79 196.90 559.36 198.47 C 560.93 200.04 561.81 202.17 561.81 204.39 C 561.81 206.61 560.93 208.74 559.36 210.31 C 557.79 211.88 555.66 212.76 553.44 212.76 C 551.22 212.76 549.09 211.88 547.52 210.31 C 545.95 208.74 545.07 206.61 545.07 204.39 C 545.07 202.17 545.95 200.04 547.52 198.47 C 549.09 196.90 551.22 196.02 553.44 196.02 Z " fill="#8F728E" fill-opacity="0.80" stroke="none" stroke-opacity="0.00" stroke-width="0.00" stroke-linecap="butt" stroke-linejoin="round"/>
<path d="M 576.95 218.57 C 579.12 218.57 581.20 219.43 582.73 220.97 C 584.26 222.50 585.12 224.58 585.12 226.74 C 585.12 228.91 584.26 230.99 582.73 232.52 C 581.20 234.05 579.12 234.91 576.95 234.91 C 574.79 234.91 572.71 234.05 571.18 232.52 C 569.64 230.99 568.78 228.91 568.78 226.74 C 568.78 224.58 569.64 222.50 571.18 220.97 C 572.71 219.43 574.79 218.57 576.95 218.57 Z " fill="#92778B" fill-opacity="0.80" stroke="none" stroke-opacity="0.00" stroke-width="0.00" stroke-linecap="butt" stroke-linejoin="round"/>
<path d="M 598.80 241.48 C 600.91 241.48 602.93 242.32 604.43 243.82 C 605.92 245.31 606.76 247.34 606.76 249.45 C 606.76 251.56 605.92 253.58 604.43 255.08 C 602.93 256.57 600.91 257.41 598.80 257.41 C 596.69 257.41 594.66 256.57 593.17 255.08 C 591.67 253.58 590.83 251.56 590.83 249.45 C 590.83 247.34 591.67 245.31 593.17 243.82 C 594.66 242.32 596.69 241.48 598.80 241.48 Z " fill="#957B87" fill-opacity="0.80" stroke="none" stroke-opacity="0.00" stroke-width="0.00" stroke-linecap="butt" stroke-linejoin="round"/>
<path d="M 618.76 264.37 C 620.81 264.37 622.78 265.19 624.23 266.64 C 625.69 268.09 626.50 270.06 626.50 272.12 C 626.50 274.17 625.69 276.14 624.23 277.60 C 622.78 279.05 620.81 279.87 618.76 279.87 C 616.70 279.87 614.73 279.05 613.28 277.60 C 611.82 276.14 611.01 274.17 611.01 272.12 C 611.01 270.06 611.82 268.09 613.28 266.64 C 614.73 265.19 616.70 264.37 618.76 264.37 Z " fill="#987F83" fill-opacity="0.80" stroke="none" stroke-opacity="0.00" stroke-width="0.00" stroke-linecap="butt" stroke-linejoin="round"/>
<path d="M 636.63 286.85 C 638.63 286.85 640.54 287.64 641.95 289.05 C 643.36 290.46 644.16 292.38 644.16 294.37 C 644.16 296.37 643.36 298.28 641.95 299.69 C 640.54 301.11 638.63 301.90 636.63 301.90 C 634.63 301.90 632.72 301.11 631.31 299.69 C 629.90 298.28 629.10 296.37 629.10 294.37 C 629.10 292.38 629.90 290.46 631.31 289.05 C 632.72 287.64 634.63 286.85 636.63 286.85 Z " fill="#9B837F" fill-opacity="0.80" stroke="none" stroke-opacity="0.00" stroke-width="0.00" stroke-linecap="butt" stroke-linejoin="round"/>
<path d="M 652.24 308.54 C 654.17 308.54 656.03 309.31 657.40 310.67 C 658.77 312.04 659.54 313.90 659.54 315.84 C 659.54 317.77 658.77 319.63 657.40 321.00 C 656.03 322.37 654.17 323.14 652.24 323.14 C 650.30 323.14 648.45 322.37 647.08 321.00 C 645.71 319.63 644.94 317.77 644.94 315.84 C 644.94 313.90 645.71 312.04 647.08 310.67 C 648.45 309.31 650.30 308.54 652.24 308.54 Z " fill="#9D877C" fill-opacity="0.80" stroke="none" stroke-opacity="0.00" stroke-width="0.00" stroke-linecap="butt" stroke-linejoin="round"/>
<path d="M 665.43 329.08 C 667.30 329.08 669.10 329.82 670.43 331.15 C 671.75 332.47 672.50 334.27 672.50 336.15 C 672.50 338.02 671.75 339.82 670.43 341.14 C 669.10 342.47 667.30 343.21 665.43 343.21 C 663.55 343.21 661.76 342.47 660.43 341.14 C 659.11 339.82 658.36 338.02 658.36 336.15 C 658.36 334.27 659.11 332.47 660.43 331.15 C 661.76 329.82 663.55 329.08 665.43 329.08 Z " fill="#A08B79" fill-opacity="0.80" stroke="none" stroke-opacity="0.00" stroke-width="0.00" stroke-linecap="butt" stroke-linejoin="round"/>
<path d="M 676.07 348.13 C 677.88 348.13 679.62 348.85 680.90 350.13 C 682.18 351.41 682.90 353.15 682.90 354.96 C 682.90 356.77 682.18 358.51 680.90 359.79 C 679.62 361.07 677.88 361.79 676.07 361.79 C 674.26 361.79 672.52 361.07 671.24 359.79 C 669.96 358.51 669.24 356.77 669.24 354.96 C 669.24 353.15 669.96 351.41 671.24 350.13 C 672.52 348.85 674.26 348.13 676.07 348.13 Z " fill="#A28F75" fill-opacity="0.80" stroke="none" stroke-opacity="0.00" stroke-width="0.00" stroke-linecap="butt" stroke-linejoin="round"/>
<path d="M 684.05 365.37 C 685.79 365.37 687.47 366.07 688.71 367.30 C 689.94 368.54 690.63 370.21 690.63 371.96 C 690.63 373.71 689.94 375.38 688.71 376.62 C 687.47 377.85 685.79 378.54 684.05 378.54 C 682.30 378.54 680.63 377.85 679.39 376.62 C 678.16 375.38 677.46 373.71 677.46 371.96 C 677.46 370.21 678.16 368.54 679.39 367.30 C 680.63 366.07 682.30 365.37 684.05 365.37 Z " fill="#A59272" fill-opacity="0.80" stroke="none" stroke-opacity="0.00" stroke-width="0.00" stroke-linecap="butt" stroke-linejoin="round"/>
<path d="M 689.29 380.52 C 690.97 380.52 692.58 381.19 693.77 382.37 C 694.96 383.56 695.63 385.18 695.63 386.86 C 695.63 388.54 694.96 390.15 693.77 391.34 C 692.58 392.53 690.97 393.20 689.29 393.20 C 687.61 393.20 686.00 392.53 684.81 391.34 C 683.62 390.15 682.95 388.54 682.95 386.86 C 682.95 385.18 683.62 383.56 684.81 382.37 C 686.00 381.19 687.61 380.52 689.29 380.52 Z " fill="#A7966F" fill-opacity="0.80" stroke="none" stroke-opacity="0.00" stroke-width="0.00" stroke-linecap="butt" stroke-linejoin="round"/>
<path d="M 691.74 393.31 C 693.36 393.31 694.91 393.95 696.05 395.10 C 697.19 396.24 697.83 397.79 697.83 399.40 C 697.83 401.02 697.19 402.57 696.05 403.71 C 694.91 404.85 693.36 405.50 691.74 405.50 C 690.13 405.50 688.58 404.85 687.44 403.71 C 686.29 402.57 685.65 401.02 685.65 399.40 C 685.65 397.79 686.29 396.24 687.44 395.10 C 688.58 393.95 690.13 393.31 691.74 393.31 Z " fill="#A9996C" fill-opacity="0.80" stroke="none" stroke-opacity="0.00" stroke-width="0.00" stroke-linecap="butt" stroke-linejoin="round"/>
<path d="M 691.38 403.55 C 692.93 403.55 694.42 404.16 695.51 405.26 C 696.61 406.35 697.22 407.84 697.22 409.39 C 697.22 410.94 696.61 412.42 695.51 413.52 C 694.42 414.61 692.93 415.23 691.38 415.23 C 689.83 415.23 688.35 414.61 687.25 413.52 C 686.16 412.42 685.54 410.94 685.54 409.39 C 685.54 407.84 686.16 406.35 687.25 405.26 C 688.35 404.16 689.83 403.55 691.38 403.55 Z " fill="#AB9C69" fill-opacity="0.80" stroke="none" stroke-opacity="0.00" stroke-width="0.00" stroke-linecap="butt" stroke-linejoin="round"/>
<path d="M 688.21 411.05 C 689.69 411.05 691.11 411.64 692.16 412.69 C 693.21 413.73 693.80 415.16 693.80 416.64 C 693.80 418.12 693.21 419.54 692.16 420.59 C 691.11 421.64 689.69 422.23 688.21 422.23 C 686.73 422.23 685.31 421.64 684.26 420.59 C 683.21 419.54 682.62 418.12 682.62 416.64 C 682.62 415.16 683.21 413.73 684.26 412.69 C 685.31 411.64 686.73 411.05 688.21 411.05 Z " fill="#AD9F67" fill-opacity="0.80" stroke="none" stroke-opacity="0.00" stroke-width="0.00" stroke-linecap="butt" stroke-linejoin="round"/>
<path d="M 682.26 415.70 C 683.67 415.70 685.03 416.26 686.03 417.26 C 687.03 418.26 687.60 419.62 687.60 421.03 C 687.60 422.45 687.03 423.81 686.03 424.81 C 685.03 425.81 683.67 426.37 682.26 426.37 C 680.84 426.37 679.48 425.81 678.48 424.81 C 677.48 423.81 676.92 422.45 676.92 421.03 C 676.92 419.62 677.48 418.26 678.48 417.26 C 679.48 416.26 680.84 415.70 682.26 415.70 Z " fill="#AFA264" fill-opacity="0.80" stroke="none" stroke-opacity="0.00" stroke-width="0.00" stroke-linecap="butt" stroke-linejoin="round"/>
<path d="M 673.59 417.41 C 674.94 417.41 676.23 417.95 677.18 418.90 C 678.14 419.86 678.67 421.15 678.67 422.50 C 678.67 423.85 678.14 425.14 677.18 426.10 C 676.23 427.05 674.94 427.59 673.59 427.59 C 672.24 427.59 670.94 427.05 669.99 426.10 C 669.04 425.14 668.50 423.85 668.50 422.50 C 668.50 421.15 669.04 419.86 669.99 418.90 C 670.94 417.95 672.24 417.41 673.59 417.41 Z " fill="#B1A562" fill-opacity="0.80" stroke="none" stroke-opacity="0.00" stroke-width="0.00" stroke-linecap="butt" stroke-linejoin="round"/>
<path d="M 662.28 416.17 C 663.57 416.17 664.80 416.68 665.71 417.59 C 666.61 418.50 667.12 419.73 667.12 421.01 C 667.12 422.30 666.61 423.53 665.71 424.44 C 664.80 425.34 663.57 425.85 662.28 425.85 C 661.00 425.85 659.77 425.34 658.86 424.44 C 657.95 423.53 657.44 422.30 657.44 421.01 C 657.44 419.73 657.95 418.50 658.86 417.59 C 659.77 416.68 661.00 416.17 662.28 416.17 Z " fill="#B3A75F" fill-opacity="0.80" stroke="none" stroke-opacity="0.00" stroke-width="0.00" stroke-linecap="butt" stroke-linejoin="round"/>
<path d="M 648.46 412.00 C 649.68 412.00 650.85 412.48 651.71 413.34 C 652.57 414.21 653.06 415.38 653.06 416.60 C 653.06 417.82 652.57 418.99 651.71 419.85 C 650.85 420.71 649.68 421.20 648.46 421.20 C 647.24 421.20 646.07 420.71 645.20 419.85 C 644.34 418.99 643.86 417.82 643.86 416.60 C 643.86 415.38 644.34 414.21 645.20 413.34 C 646.07 412.48 647.24 412.00 648.46 412.00 Z " fill="#B4A95D" fill-opacity="0.80" stroke="none" stroke-opacity="0.00" stroke-width="0.00" stroke-linecap="butt" stroke-linejoin="round"/>
<path d="M 632.25 404.96 C 633.41 404.96 634.52 405.42 635.34 406.24 C 636.16 407.06 636.62 408.17 636.62 409.33 C 636.62 410.49 636.16 411.60 635.34 412.42 C 634.52 413.23 633.41 413.69 632.25 413.69 C 631.09 413.69 629.98 413.23 629.16 412.42 C 628.34 411.60 627.88 410.49 627.88 409.33 C 627.88 408.17 628.34 407.06 629.16 406.24 C 629.98 405.42 631.09 404.96 632.25 404.96 Z " fill="#B5AB5C" fill-opacity="0.80" stroke="none" stroke-opacity="0.00" stroke-width="0.00" stroke-linecap="butt" stroke-linejoin="round"/>
<path d="M 613.82 395.19 C 614.92 395.19 615.98 395.62 616.75 396.40 C 617.53 397.18 617.97 398.23 617.97 399.33 C 617.97 400.43 617.53 401.48 616.75 402.26 C 615.98 403.03 614.92 403.47 613.82 403.47 C 612.73 403.47 611.67 403.03 610.90 402.26 C 610.12 401.48 609.68 400.43 609.68 399.33 C 609.68 398.23 610.12 397.18 610.90 396.40 C 611.67 395.62 612.73 395.19 613.82 395.19 Z " fill="#B7AD5A" fill-opacity="0.80" stroke="none" stroke-opacity="0.00" stroke-width="0.00" stroke-linecap="butt" stroke-linejoin="round"/>
<text font-family="DejaVu Sans" font-size="16.67" fill="#000000" fill-opacity="1.00" text-anchor="middle" transform="translate(410.00,449.33) scale(1,-1)">Scatter with Colormap</text>
<path d="M 128.50 55.50 L 128.50 50.50 " fill="none" fill-opacity="0.00" stroke="#000000" stroke-opacity="1.00" stroke-width="0.80" stroke-linecap="butt" stroke-linejoin="miter"/>
<text font-family="DejaVu Sans" font-size="13.89" fill="#000000" fill-opacity="1.00" text-anchor="middle" dominant-baseline="text-before-edge" transform="translate(128.18,45.28) scale(1,-1)">0</text>
<path d="M 241.50 55.50 L 241.50 50.50 " fill="none" fill-opacity="0.00" stroke="#000000" stroke-opacity="1.00" stroke-width="0.80" stroke-linecap="butt" stroke-linejoin="miter"/>
<text font-family="DejaVu Sans" font-size="13.89" fill="#000000" fill-opacity="1.00" text-anchor="middle" dominant-baseline="text-before-edge" transform="translate(240.93,45.28) scale(1,-1)">20</text>
<path d="M 354.50 55.50 L 354.50 50.50 " fill="none" fill-opacity="0.00" stroke="#000000" stroke-opacity="1.00" stroke-width="0.80" stroke-linecap="butt" stroke-linejoin="miter"/>
<text font-family="DejaVu Sans" font-size="13.89" fill="#000000" fill-opacity="1.00" text-anchor="middle" dominant-baseline="text-before-edge" transform="translate(353.68,45.28) scale(1,-1)">40</text>
<path d="M 466.50 55.50 L 466.50 50.50 " fill="none" fill-opacity="0.00" stroke="#000000" stroke-opacity="1.00" stroke-width="0.80" stroke-linecap="butt" stroke-linejoin="miter"/>
<text font-family="DejaVu Sans" font-size="13.89" fill="#000000" fill-opacity="1.00" text-anchor="middle" dominant-baseline="text-before-edge" transform="translate(466.43,45.28) scale(1,-1)">60</text>
<path d="M 579.50 55.50 L 579.50 50.50 " fill="none" fill-opacity="0.00" stroke="#000000" stroke-opacity="1.00" stroke-width="0.80" stroke-linecap="butt" stroke-linejoin="miter"/>
<text font-family="DejaVu Sans" font-size="13.89" fill="#000000" fill-opacity="1.00" text-anchor="middle" dominant-baseline="text-before-edge" transform="translate(579.19,45.28) scale(1,-1)">80</text>
<path d="M 692.50 55.50 L 692.50 50.50 " fill="none" fill-opacity="0.00" stroke="#000000" stroke-opacity="1.00" stroke-width="0.80" stroke-linecap="butt" stroke-linejoin="miter"/>
<text font-family="DejaVu Sans" font-size="13.89" fill="#000000" fill-opacity="1.00" text-anchor="middle" dominant-baseline="text-before-edge" transform="translate(691.94,45.28) scale(1,-1)">100</text>
<text font-family="DejaVu Sans" font-size="13.89" fill="#000000" fill-opacity="1.00" text-anchor="middle" dominant-baseline="text-before-edge" transform="translate(410.00,26.17) scale(1,-1)">X</text>
<path d="M 100.50 71.50 L 95.50 71.50 " fill="none" fill-opacity="0.00" stroke="#000000" stroke-opacity="1.00" stroke-width="0.80" stroke-linecap="butt" stroke-linejoin="miter"/>
<text font-family="DejaVu Sans" font-size="13.89" fill="#000000" fill-opacity="1.00" text-anchor="end" dominant-baseline="central" transform="translate(90.28,72.46) scale(1,-1)">0</text>
<path d="M 100.50 141.50 L 95.50 141.50 " fill="none" fill-opacity="0.00" stroke="#000000" stroke-opacity="1.00" stroke-width="0.80" stroke-linecap="butt" stroke-linejoin="miter"/>
<text font-family="DejaVu Sans" font-size="13.89" fill="#000000" fill-opacity="1.00" text-anchor="end" dominant-baseline="central" transform="translate(90.28,142.47) scale(1,-1)">20</text>
<path d="M 100.50 211.50 L 95.50 211.50 " fill="none" fill-opacity="0.00" stroke="#000000" stroke-opacity="1.00" stroke-width="0.80" stroke-linecap="butt" stroke-linejoin="miter"/>
<text font-family="DejaVu Sans" font-size="13.89" fill="#000000" fill-opacity="1.00" text-anchor="end" dominant-baseline="central" transform="translate(90.28,212.48) scale(1,-1)">40</text>
<path d="M 100.50 281.50 L 95.50 281.50 " fill="none" fill-opacity="0.00" stroke="#000000" stroke-opacity="1.00" stroke-width="0.80" stroke-linecap="butt" stroke-linejoin="miter"/>
<text font-family="DejaVu Sans" font-size="13.89" fill="#000000" fill-opacity="1.00" text-anchor="end" dominant-baseline="central" transform="translate(90.28,282.48) scale(1,-1)">60</text>
<path d="M 100.50 351.50 L 95.50 351.50 " fill="none" fill-opacity="0.00" stroke="#000000" stroke-opacity="1.00" stroke-width="0.80" stroke-linecap="butt" stroke-linejoin="miter"/>
<text font-family="DejaVu Sans" font-size="13.89" fill="#000000" fill-opacity="1.00" text-anchor="end" dominant-baseline="central" transform="translate(90.28,352.49) scale(1,-1)">80</text>
<path d="M 100.50 421.50 L 95.50 421.50 " fill="none" fill-opacity="0.00" stroke="#000000" stroke-opacity="1.00" stroke-width="0.80" stroke-linecap="butt" stroke-linejoin="miter"/>
<text font-family="DejaVu Sans" font-size="13.89" fill="#000000" fill-opacity="1.00" text-anchor="end" dominant-baseline="central" transform="translate(90.28,422.50) scale(1,-1)">100</text>
<text font-family="DejaVu Sans" font-size="13.89" fill="#000000" fill-opacity="1.00" text-anchor="middle" transform="translate(52.58,247.50) rotate(90.00) scale(1,-1)">Y</text>
<path d="M 100.50 55.50 L 100.50 440.50 " fill="none" fill-opacity="0.00" stroke="#000000" stroke-opacity="1.00" stroke-width="0.80" stroke-linecap="square" stroke-linejoin="miter"/>
<path d="M 720.50 55.50 L 720.50 440.50 " fill="none" fill-opacity="0.00" stroke="#000000" stroke-opacity="1.00" stroke-width="0.80" stroke-linecap="square" stroke-linejoin="miter"/>
<path d="M 100.50 54.50 L 720.50 54.50 " fill="none" fill-opacity="0.00" stroke="#000000" stroke-opacity="1.00" stroke-width="0.80" stroke-linecap="square" stroke-linejoin="miter"/>
<path d="M 100.50 439.50 L 720.50 439.50 " fill="none" fill-opacity="0.00" stroke="#000000" stroke-opacity="1.00" stroke-width="0.80" stroke-linecap="square" stroke-linejoin="miter"/>
</g>
</svg>
