<?xml version="1.0" encoding="UTF-8"?>
<svg xmlns="http://www.w3.org/2000/svg"
     xmlns:xlink="http://www.w3.org/1999/xlink"
     width="700" height="500" viewBox="0 0 700 500">
<defs>
<symbol id="marker-1" overflow="visible">
<path d="M 0.00 -4.17 C 1.11 -4.17 2.16 -3.73 2.95 -2.95 C 3.73 -2.16 4.17 -1.11 4.17 0.00 C 4.17 1.11 3.73 2.16 2.95 2.95 C 2.16 3.73 1.11 4.17 0.00 4.17 C -1.11 4.17 -2.16 3.73 -2.95 2.95 C -3.73 2.16 -4.17 1.11 -4.17 0.00 C -4.17 -1.11 -3.73 -2.16 -2.95 -2.95 C -2.16 -3.73 -1.11 -4.17 0.00 -4.17 Z " fill="#4682B4" fill-opacity="1.00" stroke="#4682B4" stroke-opacity="1.00" stroke-width="1.00" stroke-linecap="butt" stroke-linejoin="miter"/>
</symbol>
</defs>
<g transform="translate(0,500) scale(1,-1)">
<rect width="700" height="500" fill="white"/>
<path d="M 0.00 0.00 L 700.00 0.00 L 700.00 500.00 L 0.00 500.00 L 0.00 0.00 Z " fill="#FFFFFF" fill-opacity="1.00" stroke="#000000" stroke-opacity="1.00" stroke-width="0.00" stroke-linecap="butt" stroke-linejoin="miter"/>
<path d="M 87.50 55.00 L 630.00 55.00 L 630.00 440.00 L 87.50 440.00 L 87.50 55.00 Z " fill="#FFFFFF" fill-opacity="1.00" stroke="none" stroke-opacity="0.00" stroke-width="0.00" stroke-linecap="butt" stroke-linejoin="miter"/>
<path d="M 132.71 199.38 L 223.13 295.63 L 313.54 151.25 L 403.96 343.75 L 494.37 247.50 L 584.79 391.88 " fill="none" fill-opacity="0.00" stroke="#4682B4" stroke-opacity="1.00" stroke-width="2.00" stroke-linecap="square" stroke-linejoin="round"/>
<use xlink:href="#marker-1" x="132.71" y="199.38"/>
<use xlink:href="#marker-1" x="223.13" y="295.63"/>
<use xlink:href="#marker-1" x="313.54" y="151.25"/>
<use xlink:href="#marker-1" x="403.96" y="343.75"/>
<use xlink:href="#marker-1" x="494.37" y="247.50"/>
<use xlink:href="#marker-1" x="584.79" y="391.88"/>
<text font-family="DejaVu Sans" font-size="16.67" fill="#FF6347" fill-opacity="1.00" text-anchor="end" dominant-baseline="text-after-edge" transform="translate(584.79,391.88) scale(1,-1)">right</text>
<text font-family="DejaVu Sans" font-size="16.67" fill="#FF6347" fill-opacity="1.00" text-anchor="middle" dominant-baseline="text-before-edge" transform="translate(313.54,151.25) scale(1,-1)">center</text>
<text font-family="DejaVu Sans" font-size="16.67" fill="#FF6347" fill-opacity="1.00" text-anchor="start" dominant-baseline="text-after-edge" transform="translate(132.71,199.38) scale(1,-1)">left</text>
<text font-family="DejaVu Sans" font-size="16.67" fill="#000000" fill-opacity="1.00" text-anchor="middle" transform="translate(358.75,449.33) scale(1,-1)">Text Alignment Demo</text>
<text font-family="DejaVu Sans" font-size="16.67" fill="#FF6347" fill-opacity="1.00" text-anchor="end" dominant-baseline="text-after-edge" transform="translate(584.79,391.88) scale(1,-1)">right</text>
<text font-family="DejaVu Sans" font-size="16.67" fill="#FF6347" fill-opacity="1.00" text-anchor="middle" dominant-baseline="text-before-edge" transform="translate(313.54,151.25) scale(1,-1)">center</text>
<text font-family="DejaVu Sans" font-size="16.67" fill="#FF6347" fill-opacity="1.00" text-anchor="start" dominant-baseline="text-after-edge" transform="translate(132.71,199.38) scale(1,-1)">left</text>
<path d="M 133.50 55.50 L 133.50 50.50 " fill="none" fill-opacity="0.00" stroke="#000000" stroke-opacity="1.00" stroke-width="0.80" stroke-linecap="butt" stroke-linejoin="miter"/>
<text font-family="DejaVu Sans" font-size="13.89" fill="#000000" fill-opacity="1.00" text-anchor="middle" dominant-baseline="text-before-edge" transform="translate(132.71,45.28) scale(1,-1)">1</text>
<path d="M 223.50 55.50 L 223.50 50.50 " fill="none" fill-opacity="0.00" stroke="#000000" stroke-opacity="1.00" stroke-width="0.80" stroke-linecap="butt" stroke-linejoin="miter"/>
<text font-family="DejaVu Sans" font-size="13.89" fill="#000000" fill-opacity="1.00" text-anchor="middle" dominant-baseline="text-before-edge" transform="translate(223.13,45.28) scale(1,-1)">2</text>
<path d="M 314.50 55.50 L 314.50 50.50 " fill="none" fill-opacity="0.00" stroke="#000000" stroke-opacity="1.00" stroke-width="0.80" stroke-linecap="butt" stroke-linejoin="miter"/>
<text font-family="DejaVu Sans" font-size="13.89" fill="#000000" fill-opacity="1.00" text-anchor="middle" dominant-baseline="text-before-edge" transform="translate(313.54,45.28) scale(1,-1)">3</text>
<path d="M 404.50 55.50 L 404.50 50.50 " fill="none" fill-opacity="0.00" stroke="#000000" stroke-opacity="1.00" stroke-width="0.80" stroke-linecap="butt" stroke-linejoin="miter"/>
<text font-family="DejaVu Sans" font-size="13.89" fill="#000000" fill-opacity="1.00" text-anchor="middle" dominant-baseline="text-before-edge" transform="translate(403.96,45.28) scale(1,-1)">4</text>
<path d="M 494.50 55.50 L 494.50 50.50 " fill="none" fill-opacity="0.00" stroke="#000000" stroke-opacity="1.00" stroke-width="0.80" stroke-linecap="butt" stroke-linejoin="miter"/>
<text font-family="DejaVu Sans" font-size="13.89" fill="#000000" fill-opacity="1.00" text-anchor="middle" dominant-baseline="text-before-edge" transform="translate(494.37,45.28) scale(1,-1)">5</text>
<path d="M 585.50 55.50 L 585.50 50.50 " fill="none" fill-opacity="0.00" stroke="#000000" stroke-opacity="1.00" stroke-width="0.80" stroke-linecap="butt" stroke-linejoin="miter"/>
<text font-family="DejaVu Sans" font-size="13.89" fill="#000000" fill-opacity="1.00" text-anchor="middle" dominant-baseline="text-before-edge" transform="translate(584.79,45.28) scale(1,-1)">6</text>
<path d="M 87.50 54.50 L 83.50 54.50 " fill="none" fill-opacity="0.00" stroke="#000000" stroke-opacity="1.00" stroke-width="0.80" stroke-linecap="butt" stroke-linejoin="miter"/>
<text font-family="DejaVu Sans" font-size="13.89" fill="#000000" fill-opacity="1.00" text-anchor="end" dominant-baseline="central" transform="translate(77.78,55.00) scale(1,-1)">0</text>
<path d="M 87.50 102.50 L 83.50 102.50 " fill="none" fill-opacity="0.00" stroke="#000000" stroke-opacity="1.00" stroke-width="0.80" stroke-linecap="butt" stroke-linejoin="miter"/>
<text font-family="DejaVu Sans" font-size="13.89" fill="#000000" fill-opacity="1.00" text-anchor="end" dominant-baseline="central" transform="translate(77.78,103.13) scale(1,-1)">1</text>
<path d="M 87.50 150.50 L 83.50 150.50 " fill="none" fill-opacity="0.00" stroke="#000000" stroke-opacity="1.00" stroke-width="0.80" stroke-linecap="butt" stroke-linejoin="miter"/>
<text font-family="DejaVu Sans" font-size="13.89" fill="#000000" fill-opacity="1.00" text-anchor="end" dominant-baseline="central" transform="translate(77.78,151.25) scale(1,-1)">2</text>
<path d="M 87.50 198.50 L 83.50 198.50 " fill="none" fill-opacity="0.00" stroke="#000000" stroke-opacity="1.00" stroke-width="0.80" stroke-linecap="butt" stroke-linejoin="miter"/>
<text font-family="DejaVu Sans" font-size="13.89" fill="#000000" fill-opacity="1.00" text-anchor="end" dominant-baseline="central" transform="translate(77.78,199.38) scale(1,-1)">3</text>
<path d="M 87.50 247.50 L 83.50 247.50 " fill="none" fill-opacity="0.00" stroke="#000000" stroke-opacity="1.00" stroke-width="0.80" stroke-linecap="butt" stroke-linejoin="miter"/>
<text font-family="DejaVu Sans" font-size="13.89" fill="#000000" fill-opacity="1.00" text-anchor="end" dominant-baseline="central" transform="translate(77.78,247.50) scale(1,-1)">4</text>
<path d="M 87.50 295.50 L 83.50 295.50 " fill="none" fill-opacity="0.00" stroke="#000000" stroke-opacity="1.00" stroke-width="0.80" stroke-linecap="butt" stroke-linejoin="miter"/>
<text font-family="DejaVu Sans" font-size="13.89" fill="#000000" fill-opacity="1.00" text-anchor="end" dominant-baseline="central" transform="translate(77.78,295.63) scale(1,-1)">5</text>
<path d="M 87.50 343.50 L 83.50 343.50 " fill="none" fill-opacity="0.00" stroke="#000000" stroke-opacity="1.00" stroke-width="0.80" stroke-linecap="butt" stroke-linejoin="miter"/>
<text font-family="DejaVu Sans" font-size="13.89" fill="#000000" fill-opacity="1.00" text-anchor="end" dominant-baseline="central" transform="translate(77.78,343.75) scale(1,-1)">6</text>
<path d="M 87.50 391.50 L 83.50 391.50 " fill="none" fill-opacity="0.00" stroke="#000000" stroke-opacity="1.00" stroke-width="0.80" stroke-linecap="butt" stroke-linejoin="miter"/>
<text font-family="DejaVu Sans" font-size="13.89" fill="#000000" fill-opacity="1.00" text-anchor="end" dominant-baseline="central" transform="translate(77.78,391.88) scale(1,-1)">7</text>
<path d="M 87.50 439.50 L 83.50 439.50 " fill="none" fill-opacity="0.00" stroke="#000000" stroke-opacity="1.00" stroke-width="0.80" stroke-linecap="butt" stroke-linejoin="miter"/>
<text font-family="DejaVu Sans" font-size="13.89" fill="#000000" fill-opacity="1.00" text-anchor="end" dominant-baseline="central" transform="translate(77.78,440.00) scale(1,-1)">8</text>
<path d="M 87.50 55.50 L 87.50 440.50 " fill="none" fill-opacity="0.00" stroke="#000000" stroke-opacity="1.00" stroke-width="0.80" stroke-linecap="square" stroke-linejoin="miter"/>
<path d="M 630.50 55.50 L 630.50 440.50 " fill="none" fill-opacity="0.00" stroke="#000000" stroke-opacity="1.00" stroke-width="0.80" stroke-linecap="square" stroke-linejoin="miter"/>
<path d="M 87.50 54.50 L 630.50 54.50 " fill="none" fill-opacity="0.00" stroke="#000000" stroke-opacity="1.00" stroke-width="0.80" stroke-linecap="square" stroke-linejoin="miter"/>
<path d="M 87.50 439.50 L 630.50 439.50 " fill="none" fill-opacity="0.00" stroke="#000000" stroke-opacity="1.00" stroke-width="0.80" stroke-linecap="square" stroke-linejoin="miter"/>
</g>
</svg>
